%TF.GenerationSoftware,KiCad,Pcbnew,8.0.6*%
%TF.CreationDate,2024-11-11T21:44:25+01:00*%
%TF.ProjectId,Motor_Driver_carrier_board,4d6f746f-725f-4447-9269-7665725f6361,rev?*%
%TF.SameCoordinates,Original*%
%TF.FileFunction,Profile,NP*%
%FSLAX46Y46*%
G04 Gerber Fmt 4.6, Leading zero omitted, Abs format (unit mm)*
G04 Created by KiCad (PCBNEW 8.0.6) date 2024-11-11 21:44:25*
%MOMM*%
%LPD*%
G01*
G04 APERTURE LIST*
%TA.AperFunction,Profile*%
%ADD10C,0.050000*%
%TD*%
%TA.AperFunction,Profile*%
%ADD11C,0.250000*%
%TD*%
%ADD12C,0.350000*%
G04 APERTURE END LIST*
D10*
X157350000Y-88900000D02*
G75*
G02*
X147350000Y-98900000I-10000000J0D01*
G01*
D11*
X125000000Y-90550000D02*
G75*
G02*
X124750000Y-89616987I0J500000D01*
G01*
X143400000Y-89616987D02*
G75*
G02*
X143150000Y-90550000I-250000J-433013D01*
G01*
D10*
X157350124Y-46300000D02*
X157350000Y-88900000D01*
D11*
X136967037Y-49500066D02*
X137328500Y-50650000D01*
D10*
X117200000Y-46300000D02*
G75*
G02*
X127200000Y-36300000I10000000J0D01*
G01*
D11*
X131489044Y-49498188D02*
G75*
G02*
X131965440Y-49149987I476556J-152012D01*
G01*
X125000000Y-89183975D02*
G75*
G02*
X124749986Y-89616963I-499900J-25D01*
G01*
X124994500Y-72150000D02*
G75*
G02*
X124494500Y-71650000I0J500000D01*
G01*
X125000000Y-84790000D02*
X125000000Y-89183975D01*
X137328500Y-50650000D02*
X137689963Y-49500066D01*
X143150000Y-50516025D02*
X143150000Y-89183975D01*
X136490047Y-49150000D02*
G75*
G02*
X136967037Y-49500066I-147J-500200D01*
G01*
D10*
X127200000Y-98900000D02*
G75*
G02*
X117200000Y-88900000I0J10000000D01*
G01*
D11*
X124994500Y-84790000D02*
G75*
G02*
X124494500Y-84290000I0J500000D01*
G01*
X124494500Y-80570000D02*
G75*
G02*
X124994500Y-80070000I500000J0D01*
G01*
X136490047Y-49150000D02*
X131965440Y-49150000D01*
X124750000Y-50083013D02*
G75*
G02*
X125000000Y-49150000I250000J433013D01*
G01*
X143150000Y-90550000D02*
X125000000Y-90550000D01*
X130278560Y-49150000D02*
X125000000Y-49150000D01*
D10*
X127200000Y-36300000D02*
X147350000Y-36250000D01*
D11*
X130754956Y-49498188D02*
X131122000Y-50650000D01*
X124494500Y-67850000D02*
G75*
G02*
X124994500Y-67350000I500000J0D01*
G01*
X143150000Y-49150000D02*
X138166953Y-49150000D01*
X131122000Y-50650000D02*
X131489044Y-49498188D01*
X143150000Y-49150000D02*
G75*
G02*
X143400000Y-50083013I0J-500000D01*
G01*
X125000000Y-50516025D02*
X125000000Y-67350000D01*
X130278560Y-49150000D02*
G75*
G02*
X130754992Y-49498176I40J-500000D01*
G01*
X124494500Y-84290000D02*
X124494500Y-80570000D01*
X125000000Y-72150000D02*
X125000000Y-80070000D01*
X137689963Y-49500066D02*
G75*
G02*
X138166953Y-49149981I476937J-149834D01*
G01*
X124750000Y-50083013D02*
G75*
G02*
X125000028Y-50516025I-249900J-432987D01*
G01*
X143150000Y-50516025D02*
G75*
G02*
X143400014Y-50083037I499900J25D01*
G01*
D10*
X117200000Y-88900000D02*
X117200000Y-46300000D01*
X147350000Y-36250000D02*
G75*
G02*
X157350124Y-46300000I-50000J-10050000D01*
G01*
D11*
X143400000Y-89616987D02*
G75*
G02*
X143150022Y-89183975I250000J432987D01*
G01*
D10*
X147350000Y-98900000D02*
X127200000Y-98900000D01*
D11*
X124494500Y-67850000D02*
X124494500Y-71650000D01*
D12*
X121800000Y-62120000D03*
X121800000Y-64660000D03*
X121800000Y-67200000D03*
X121800000Y-69740000D03*
X121800000Y-72280000D03*
X153375000Y-46350000D03*
X150835000Y-46350000D03*
X153375000Y-48890000D03*
X150835000Y-48890000D03*
X153375000Y-51430000D03*
X150835000Y-51430000D03*
X153375000Y-53970000D03*
X150835000Y-53970000D03*
X153375000Y-56510000D03*
X150835000Y-56510000D03*
X153375000Y-59050000D03*
X150835000Y-59050000D03*
X153375000Y-61590000D03*
X150835000Y-61590000D03*
X153375000Y-64130000D03*
X150835000Y-64130000D03*
X153375000Y-66670000D03*
X150835000Y-66670000D03*
X153375000Y-69210000D03*
X150835000Y-69210000D03*
X153375000Y-82450000D03*
X150835000Y-82450000D03*
X153375000Y-84990000D03*
X150835000Y-84990000D03*
X153375000Y-87530000D03*
X150835000Y-87530000D03*
X153375000Y-90070000D03*
X150835000Y-90070000D03*
X153375000Y-92610000D03*
X150835000Y-92610000D03*
M02*
