%TF.GenerationSoftware,KiCad,Pcbnew,8.0.6*%
%TF.CreationDate,2024-11-11T21:44:25+01:00*%
%TF.ProjectId,Motor_Driver_carrier_board,4d6f746f-725f-4447-9269-7665725f6361,rev?*%
%TF.SameCoordinates,Original*%
%TF.FileFunction,Legend,Top*%
%TF.FilePolarity,Positive*%
%FSLAX46Y46*%
G04 Gerber Fmt 4.6, Leading zero omitted, Abs format (unit mm)*
G04 Created by KiCad (PCBNEW 8.0.6) date 2024-11-11 21:44:25*
%MOMM*%
%LPD*%
G01*
G04 APERTURE LIST*
%ADD10C,0.150000*%
%ADD11C,0.065024*%
%ADD12C,0.120000*%
%ADD13C,0.200000*%
%ADD14C,0.250000*%
%ADD15C,0.350000*%
G04 APERTURE END LIST*
D10*
X126198809Y-43404819D02*
X126389285Y-43404819D01*
X126389285Y-43404819D02*
X126484523Y-43452438D01*
X126484523Y-43452438D02*
X126579761Y-43547676D01*
X126579761Y-43547676D02*
X126627380Y-43738152D01*
X126627380Y-43738152D02*
X126627380Y-44071485D01*
X126627380Y-44071485D02*
X126579761Y-44261961D01*
X126579761Y-44261961D02*
X126484523Y-44357200D01*
X126484523Y-44357200D02*
X126389285Y-44404819D01*
X126389285Y-44404819D02*
X126198809Y-44404819D01*
X126198809Y-44404819D02*
X126103571Y-44357200D01*
X126103571Y-44357200D02*
X126008333Y-44261961D01*
X126008333Y-44261961D02*
X125960714Y-44071485D01*
X125960714Y-44071485D02*
X125960714Y-43738152D01*
X125960714Y-43738152D02*
X126008333Y-43547676D01*
X126008333Y-43547676D02*
X126103571Y-43452438D01*
X126103571Y-43452438D02*
X126198809Y-43404819D01*
X127055952Y-43404819D02*
X127055952Y-44214342D01*
X127055952Y-44214342D02*
X127103571Y-44309580D01*
X127103571Y-44309580D02*
X127151190Y-44357200D01*
X127151190Y-44357200D02*
X127246428Y-44404819D01*
X127246428Y-44404819D02*
X127436904Y-44404819D01*
X127436904Y-44404819D02*
X127532142Y-44357200D01*
X127532142Y-44357200D02*
X127579761Y-44309580D01*
X127579761Y-44309580D02*
X127627380Y-44214342D01*
X127627380Y-44214342D02*
X127627380Y-43404819D01*
X127960714Y-43404819D02*
X128532142Y-43404819D01*
X128246428Y-44404819D02*
X128246428Y-43404819D01*
X129389285Y-44404819D02*
X128817857Y-44404819D01*
X129103571Y-44404819D02*
X129103571Y-43404819D01*
X129103571Y-43404819D02*
X129008333Y-43547676D01*
X129008333Y-43547676D02*
X128913095Y-43642914D01*
X128913095Y-43642914D02*
X128817857Y-43690533D01*
D11*
X122382012Y-59387329D02*
X122382012Y-59921455D01*
X122382012Y-59921455D02*
X122346403Y-60028280D01*
X122346403Y-60028280D02*
X122275187Y-60099497D01*
X122275187Y-60099497D02*
X122168361Y-60135105D01*
X122168361Y-60135105D02*
X122097145Y-60135105D01*
X122666879Y-59387329D02*
X123129788Y-59387329D01*
X123129788Y-59387329D02*
X122880529Y-59672196D01*
X122880529Y-59672196D02*
X122987354Y-59672196D01*
X122987354Y-59672196D02*
X123058571Y-59707804D01*
X123058571Y-59707804D02*
X123094179Y-59743413D01*
X123094179Y-59743413D02*
X123129788Y-59814629D01*
X123129788Y-59814629D02*
X123129788Y-59992671D01*
X123129788Y-59992671D02*
X123094179Y-60063888D01*
X123094179Y-60063888D02*
X123058571Y-60099497D01*
X123058571Y-60099497D02*
X122987354Y-60135105D01*
X122987354Y-60135105D02*
X122773704Y-60135105D01*
X122773704Y-60135105D02*
X122702487Y-60099497D01*
X122702487Y-60099497D02*
X122666879Y-60063888D01*
D10*
X129734820Y-93294771D02*
X129449106Y-93294771D01*
X129449106Y-93294771D02*
X129420534Y-93580485D01*
X129420534Y-93580485D02*
X129449106Y-93551914D01*
X129449106Y-93551914D02*
X129506249Y-93523342D01*
X129506249Y-93523342D02*
X129649106Y-93523342D01*
X129649106Y-93523342D02*
X129706249Y-93551914D01*
X129706249Y-93551914D02*
X129734820Y-93580485D01*
X129734820Y-93580485D02*
X129763391Y-93637628D01*
X129763391Y-93637628D02*
X129763391Y-93780485D01*
X129763391Y-93780485D02*
X129734820Y-93837628D01*
X129734820Y-93837628D02*
X129706249Y-93866200D01*
X129706249Y-93866200D02*
X129649106Y-93894771D01*
X129649106Y-93894771D02*
X129506249Y-93894771D01*
X129506249Y-93894771D02*
X129449106Y-93866200D01*
X129449106Y-93866200D02*
X129420534Y-93837628D01*
X129934820Y-93294771D02*
X130134820Y-93894771D01*
X130134820Y-93894771D02*
X130334820Y-93294771D01*
X137116963Y-93323342D02*
X137059821Y-93294771D01*
X137059821Y-93294771D02*
X136974106Y-93294771D01*
X136974106Y-93294771D02*
X136888392Y-93323342D01*
X136888392Y-93323342D02*
X136831249Y-93380485D01*
X136831249Y-93380485D02*
X136802678Y-93437628D01*
X136802678Y-93437628D02*
X136774106Y-93551914D01*
X136774106Y-93551914D02*
X136774106Y-93637628D01*
X136774106Y-93637628D02*
X136802678Y-93751914D01*
X136802678Y-93751914D02*
X136831249Y-93809057D01*
X136831249Y-93809057D02*
X136888392Y-93866200D01*
X136888392Y-93866200D02*
X136974106Y-93894771D01*
X136974106Y-93894771D02*
X137031249Y-93894771D01*
X137031249Y-93894771D02*
X137116963Y-93866200D01*
X137116963Y-93866200D02*
X137145535Y-93837628D01*
X137145535Y-93837628D02*
X137145535Y-93637628D01*
X137145535Y-93637628D02*
X137031249Y-93637628D01*
X137402678Y-93894771D02*
X137402678Y-93294771D01*
X137402678Y-93294771D02*
X137745535Y-93894771D01*
X137745535Y-93894771D02*
X137745535Y-93294771D01*
X138031249Y-93894771D02*
X138031249Y-93294771D01*
X138031249Y-93294771D02*
X138174106Y-93294771D01*
X138174106Y-93294771D02*
X138259820Y-93323342D01*
X138259820Y-93323342D02*
X138316963Y-93380485D01*
X138316963Y-93380485D02*
X138345534Y-93437628D01*
X138345534Y-93437628D02*
X138374106Y-93551914D01*
X138374106Y-93551914D02*
X138374106Y-93637628D01*
X138374106Y-93637628D02*
X138345534Y-93751914D01*
X138345534Y-93751914D02*
X138316963Y-93809057D01*
X138316963Y-93809057D02*
X138259820Y-93866200D01*
X138259820Y-93866200D02*
X138174106Y-93894771D01*
X138174106Y-93894771D02*
X138031249Y-93894771D01*
X140038095Y-95773866D02*
X140800000Y-95773866D01*
X140419047Y-96154819D02*
X140419047Y-95392914D01*
X141228571Y-95250057D02*
X141276190Y-95202438D01*
X141276190Y-95202438D02*
X141371428Y-95154819D01*
X141371428Y-95154819D02*
X141609523Y-95154819D01*
X141609523Y-95154819D02*
X141704761Y-95202438D01*
X141704761Y-95202438D02*
X141752380Y-95250057D01*
X141752380Y-95250057D02*
X141799999Y-95345295D01*
X141799999Y-95345295D02*
X141799999Y-95440533D01*
X141799999Y-95440533D02*
X141752380Y-95583390D01*
X141752380Y-95583390D02*
X141180952Y-96154819D01*
X141180952Y-96154819D02*
X141799999Y-96154819D01*
X142657142Y-95488152D02*
X142657142Y-96154819D01*
X142419047Y-95107200D02*
X142180952Y-95821485D01*
X142180952Y-95821485D02*
X142799999Y-95821485D01*
X143038095Y-95154819D02*
X143371428Y-96154819D01*
X143371428Y-96154819D02*
X143704761Y-95154819D01*
X123538095Y-95773866D02*
X124300000Y-95773866D01*
X124728571Y-95250057D02*
X124776190Y-95202438D01*
X124776190Y-95202438D02*
X124871428Y-95154819D01*
X124871428Y-95154819D02*
X125109523Y-95154819D01*
X125109523Y-95154819D02*
X125204761Y-95202438D01*
X125204761Y-95202438D02*
X125252380Y-95250057D01*
X125252380Y-95250057D02*
X125299999Y-95345295D01*
X125299999Y-95345295D02*
X125299999Y-95440533D01*
X125299999Y-95440533D02*
X125252380Y-95583390D01*
X125252380Y-95583390D02*
X124680952Y-96154819D01*
X124680952Y-96154819D02*
X125299999Y-96154819D01*
X126157142Y-95488152D02*
X126157142Y-96154819D01*
X125919047Y-95107200D02*
X125680952Y-95821485D01*
X125680952Y-95821485D02*
X126299999Y-95821485D01*
X126538095Y-95154819D02*
X126871428Y-96154819D01*
X126871428Y-96154819D02*
X127204761Y-95154819D01*
X139198809Y-43404819D02*
X139389285Y-43404819D01*
X139389285Y-43404819D02*
X139484523Y-43452438D01*
X139484523Y-43452438D02*
X139579761Y-43547676D01*
X139579761Y-43547676D02*
X139627380Y-43738152D01*
X139627380Y-43738152D02*
X139627380Y-44071485D01*
X139627380Y-44071485D02*
X139579761Y-44261961D01*
X139579761Y-44261961D02*
X139484523Y-44357200D01*
X139484523Y-44357200D02*
X139389285Y-44404819D01*
X139389285Y-44404819D02*
X139198809Y-44404819D01*
X139198809Y-44404819D02*
X139103571Y-44357200D01*
X139103571Y-44357200D02*
X139008333Y-44261961D01*
X139008333Y-44261961D02*
X138960714Y-44071485D01*
X138960714Y-44071485D02*
X138960714Y-43738152D01*
X138960714Y-43738152D02*
X139008333Y-43547676D01*
X139008333Y-43547676D02*
X139103571Y-43452438D01*
X139103571Y-43452438D02*
X139198809Y-43404819D01*
X140055952Y-43404819D02*
X140055952Y-44214342D01*
X140055952Y-44214342D02*
X140103571Y-44309580D01*
X140103571Y-44309580D02*
X140151190Y-44357200D01*
X140151190Y-44357200D02*
X140246428Y-44404819D01*
X140246428Y-44404819D02*
X140436904Y-44404819D01*
X140436904Y-44404819D02*
X140532142Y-44357200D01*
X140532142Y-44357200D02*
X140579761Y-44309580D01*
X140579761Y-44309580D02*
X140627380Y-44214342D01*
X140627380Y-44214342D02*
X140627380Y-43404819D01*
X140960714Y-43404819D02*
X141532142Y-43404819D01*
X141246428Y-44404819D02*
X141246428Y-43404819D01*
X141770238Y-43404819D02*
X142389285Y-43404819D01*
X142389285Y-43404819D02*
X142055952Y-43785771D01*
X142055952Y-43785771D02*
X142198809Y-43785771D01*
X142198809Y-43785771D02*
X142294047Y-43833390D01*
X142294047Y-43833390D02*
X142341666Y-43881009D01*
X142341666Y-43881009D02*
X142389285Y-43976247D01*
X142389285Y-43976247D02*
X142389285Y-44214342D01*
X142389285Y-44214342D02*
X142341666Y-44309580D01*
X142341666Y-44309580D02*
X142294047Y-44357200D01*
X142294047Y-44357200D02*
X142198809Y-44404819D01*
X142198809Y-44404819D02*
X141913095Y-44404819D01*
X141913095Y-44404819D02*
X141817857Y-44357200D01*
X141817857Y-44357200D02*
X141770238Y-44309580D01*
X132698809Y-43404819D02*
X132889285Y-43404819D01*
X132889285Y-43404819D02*
X132984523Y-43452438D01*
X132984523Y-43452438D02*
X133079761Y-43547676D01*
X133079761Y-43547676D02*
X133127380Y-43738152D01*
X133127380Y-43738152D02*
X133127380Y-44071485D01*
X133127380Y-44071485D02*
X133079761Y-44261961D01*
X133079761Y-44261961D02*
X132984523Y-44357200D01*
X132984523Y-44357200D02*
X132889285Y-44404819D01*
X132889285Y-44404819D02*
X132698809Y-44404819D01*
X132698809Y-44404819D02*
X132603571Y-44357200D01*
X132603571Y-44357200D02*
X132508333Y-44261961D01*
X132508333Y-44261961D02*
X132460714Y-44071485D01*
X132460714Y-44071485D02*
X132460714Y-43738152D01*
X132460714Y-43738152D02*
X132508333Y-43547676D01*
X132508333Y-43547676D02*
X132603571Y-43452438D01*
X132603571Y-43452438D02*
X132698809Y-43404819D01*
X133555952Y-43404819D02*
X133555952Y-44214342D01*
X133555952Y-44214342D02*
X133603571Y-44309580D01*
X133603571Y-44309580D02*
X133651190Y-44357200D01*
X133651190Y-44357200D02*
X133746428Y-44404819D01*
X133746428Y-44404819D02*
X133936904Y-44404819D01*
X133936904Y-44404819D02*
X134032142Y-44357200D01*
X134032142Y-44357200D02*
X134079761Y-44309580D01*
X134079761Y-44309580D02*
X134127380Y-44214342D01*
X134127380Y-44214342D02*
X134127380Y-43404819D01*
X134460714Y-43404819D02*
X135032142Y-43404819D01*
X134746428Y-44404819D02*
X134746428Y-43404819D01*
X135317857Y-43500057D02*
X135365476Y-43452438D01*
X135365476Y-43452438D02*
X135460714Y-43404819D01*
X135460714Y-43404819D02*
X135698809Y-43404819D01*
X135698809Y-43404819D02*
X135794047Y-43452438D01*
X135794047Y-43452438D02*
X135841666Y-43500057D01*
X135841666Y-43500057D02*
X135889285Y-43595295D01*
X135889285Y-43595295D02*
X135889285Y-43690533D01*
X135889285Y-43690533D02*
X135841666Y-43833390D01*
X135841666Y-43833390D02*
X135270238Y-44404819D01*
X135270238Y-44404819D02*
X135889285Y-44404819D01*
X134307143Y-93894771D02*
X134307143Y-93294771D01*
X134307143Y-93294771D02*
X134535714Y-93294771D01*
X134535714Y-93294771D02*
X134592857Y-93323342D01*
X134592857Y-93323342D02*
X134621428Y-93351914D01*
X134621428Y-93351914D02*
X134650000Y-93409057D01*
X134650000Y-93409057D02*
X134650000Y-93494771D01*
X134650000Y-93494771D02*
X134621428Y-93551914D01*
X134621428Y-93551914D02*
X134592857Y-93580485D01*
X134592857Y-93580485D02*
X134535714Y-93609057D01*
X134535714Y-93609057D02*
X134307143Y-93609057D01*
X134850000Y-93294771D02*
X134992857Y-93894771D01*
X134992857Y-93894771D02*
X135107143Y-93466200D01*
X135107143Y-93466200D02*
X135221428Y-93894771D01*
X135221428Y-93894771D02*
X135364286Y-93294771D01*
X135592857Y-93894771D02*
X135592857Y-93294771D01*
X135592857Y-93294771D02*
X135792857Y-93723342D01*
X135792857Y-93723342D02*
X135992857Y-93294771D01*
X135992857Y-93294771D02*
X135992857Y-93894771D01*
X149119819Y-87408094D02*
X148119819Y-87408094D01*
X148119819Y-87408094D02*
X148119819Y-87027142D01*
X148119819Y-87027142D02*
X148167438Y-86931904D01*
X148167438Y-86931904D02*
X148215057Y-86884285D01*
X148215057Y-86884285D02*
X148310295Y-86836666D01*
X148310295Y-86836666D02*
X148453152Y-86836666D01*
X148453152Y-86836666D02*
X148548390Y-86884285D01*
X148548390Y-86884285D02*
X148596009Y-86931904D01*
X148596009Y-86931904D02*
X148643628Y-87027142D01*
X148643628Y-87027142D02*
X148643628Y-87408094D01*
X148215057Y-86455713D02*
X148167438Y-86408094D01*
X148167438Y-86408094D02*
X148119819Y-86312856D01*
X148119819Y-86312856D02*
X148119819Y-86074761D01*
X148119819Y-86074761D02*
X148167438Y-85979523D01*
X148167438Y-85979523D02*
X148215057Y-85931904D01*
X148215057Y-85931904D02*
X148310295Y-85884285D01*
X148310295Y-85884285D02*
X148405533Y-85884285D01*
X148405533Y-85884285D02*
X148548390Y-85931904D01*
X148548390Y-85931904D02*
X149119819Y-86503332D01*
X149119819Y-86503332D02*
X149119819Y-85884285D01*
X119153571Y-80691200D02*
X119239286Y-80719771D01*
X119239286Y-80719771D02*
X119382143Y-80719771D01*
X119382143Y-80719771D02*
X119439286Y-80691200D01*
X119439286Y-80691200D02*
X119467857Y-80662628D01*
X119467857Y-80662628D02*
X119496428Y-80605485D01*
X119496428Y-80605485D02*
X119496428Y-80548342D01*
X119496428Y-80548342D02*
X119467857Y-80491200D01*
X119467857Y-80491200D02*
X119439286Y-80462628D01*
X119439286Y-80462628D02*
X119382143Y-80434057D01*
X119382143Y-80434057D02*
X119267857Y-80405485D01*
X119267857Y-80405485D02*
X119210714Y-80376914D01*
X119210714Y-80376914D02*
X119182143Y-80348342D01*
X119182143Y-80348342D02*
X119153571Y-80291200D01*
X119153571Y-80291200D02*
X119153571Y-80234057D01*
X119153571Y-80234057D02*
X119182143Y-80176914D01*
X119182143Y-80176914D02*
X119210714Y-80148342D01*
X119210714Y-80148342D02*
X119267857Y-80119771D01*
X119267857Y-80119771D02*
X119410714Y-80119771D01*
X119410714Y-80119771D02*
X119496428Y-80148342D01*
X119696429Y-80119771D02*
X119839286Y-80719771D01*
X119839286Y-80719771D02*
X119953572Y-80291200D01*
X119953572Y-80291200D02*
X120067857Y-80719771D01*
X120067857Y-80719771D02*
X120210715Y-80119771D01*
X120439286Y-80719771D02*
X120439286Y-80119771D01*
X120439286Y-80119771D02*
X120582143Y-80119771D01*
X120582143Y-80119771D02*
X120667857Y-80148342D01*
X120667857Y-80148342D02*
X120725000Y-80205485D01*
X120725000Y-80205485D02*
X120753571Y-80262628D01*
X120753571Y-80262628D02*
X120782143Y-80376914D01*
X120782143Y-80376914D02*
X120782143Y-80462628D01*
X120782143Y-80462628D02*
X120753571Y-80576914D01*
X120753571Y-80576914D02*
X120725000Y-80634057D01*
X120725000Y-80634057D02*
X120667857Y-80691200D01*
X120667857Y-80691200D02*
X120582143Y-80719771D01*
X120582143Y-80719771D02*
X120439286Y-80719771D01*
X121039286Y-80719771D02*
X121039286Y-80119771D01*
X121439285Y-80119771D02*
X121553571Y-80119771D01*
X121553571Y-80119771D02*
X121610714Y-80148342D01*
X121610714Y-80148342D02*
X121667857Y-80205485D01*
X121667857Y-80205485D02*
X121696428Y-80319771D01*
X121696428Y-80319771D02*
X121696428Y-80519771D01*
X121696428Y-80519771D02*
X121667857Y-80634057D01*
X121667857Y-80634057D02*
X121610714Y-80691200D01*
X121610714Y-80691200D02*
X121553571Y-80719771D01*
X121553571Y-80719771D02*
X121439285Y-80719771D01*
X121439285Y-80719771D02*
X121382143Y-80691200D01*
X121382143Y-80691200D02*
X121325000Y-80634057D01*
X121325000Y-80634057D02*
X121296428Y-80519771D01*
X121296428Y-80519771D02*
X121296428Y-80319771D01*
X121296428Y-80319771D02*
X121325000Y-80205485D01*
X121325000Y-80205485D02*
X121382143Y-80148342D01*
X121382143Y-80148342D02*
X121439285Y-80119771D01*
X130973213Y-93294771D02*
X131316071Y-93294771D01*
X131144642Y-93894771D02*
X131144642Y-93294771D01*
X131458928Y-93294771D02*
X131858928Y-93894771D01*
X131858928Y-93294771D02*
X131458928Y-93894771D01*
X119967857Y-85623342D02*
X119910715Y-85594771D01*
X119910715Y-85594771D02*
X119825000Y-85594771D01*
X119825000Y-85594771D02*
X119739286Y-85623342D01*
X119739286Y-85623342D02*
X119682143Y-85680485D01*
X119682143Y-85680485D02*
X119653572Y-85737628D01*
X119653572Y-85737628D02*
X119625000Y-85851914D01*
X119625000Y-85851914D02*
X119625000Y-85937628D01*
X119625000Y-85937628D02*
X119653572Y-86051914D01*
X119653572Y-86051914D02*
X119682143Y-86109057D01*
X119682143Y-86109057D02*
X119739286Y-86166200D01*
X119739286Y-86166200D02*
X119825000Y-86194771D01*
X119825000Y-86194771D02*
X119882143Y-86194771D01*
X119882143Y-86194771D02*
X119967857Y-86166200D01*
X119967857Y-86166200D02*
X119996429Y-86137628D01*
X119996429Y-86137628D02*
X119996429Y-85937628D01*
X119996429Y-85937628D02*
X119882143Y-85937628D01*
X120253572Y-86194771D02*
X120253572Y-85594771D01*
X120253572Y-85594771D02*
X120596429Y-86194771D01*
X120596429Y-86194771D02*
X120596429Y-85594771D01*
X120882143Y-86194771D02*
X120882143Y-85594771D01*
X120882143Y-85594771D02*
X121025000Y-85594771D01*
X121025000Y-85594771D02*
X121110714Y-85623342D01*
X121110714Y-85623342D02*
X121167857Y-85680485D01*
X121167857Y-85680485D02*
X121196428Y-85737628D01*
X121196428Y-85737628D02*
X121225000Y-85851914D01*
X121225000Y-85851914D02*
X121225000Y-85937628D01*
X121225000Y-85937628D02*
X121196428Y-86051914D01*
X121196428Y-86051914D02*
X121167857Y-86109057D01*
X121167857Y-86109057D02*
X121110714Y-86166200D01*
X121110714Y-86166200D02*
X121025000Y-86194771D01*
X121025000Y-86194771D02*
X120882143Y-86194771D01*
X119067857Y-82516200D02*
X119153572Y-82544771D01*
X119153572Y-82544771D02*
X119296429Y-82544771D01*
X119296429Y-82544771D02*
X119353572Y-82516200D01*
X119353572Y-82516200D02*
X119382143Y-82487628D01*
X119382143Y-82487628D02*
X119410714Y-82430485D01*
X119410714Y-82430485D02*
X119410714Y-82373342D01*
X119410714Y-82373342D02*
X119382143Y-82316200D01*
X119382143Y-82316200D02*
X119353572Y-82287628D01*
X119353572Y-82287628D02*
X119296429Y-82259057D01*
X119296429Y-82259057D02*
X119182143Y-82230485D01*
X119182143Y-82230485D02*
X119125000Y-82201914D01*
X119125000Y-82201914D02*
X119096429Y-82173342D01*
X119096429Y-82173342D02*
X119067857Y-82116200D01*
X119067857Y-82116200D02*
X119067857Y-82059057D01*
X119067857Y-82059057D02*
X119096429Y-82001914D01*
X119096429Y-82001914D02*
X119125000Y-81973342D01*
X119125000Y-81973342D02*
X119182143Y-81944771D01*
X119182143Y-81944771D02*
X119325000Y-81944771D01*
X119325000Y-81944771D02*
X119410714Y-81973342D01*
X119610715Y-81944771D02*
X119753572Y-82544771D01*
X119753572Y-82544771D02*
X119867858Y-82116200D01*
X119867858Y-82116200D02*
X119982143Y-82544771D01*
X119982143Y-82544771D02*
X120125001Y-81944771D01*
X120696429Y-82487628D02*
X120667857Y-82516200D01*
X120667857Y-82516200D02*
X120582143Y-82544771D01*
X120582143Y-82544771D02*
X120525000Y-82544771D01*
X120525000Y-82544771D02*
X120439286Y-82516200D01*
X120439286Y-82516200D02*
X120382143Y-82459057D01*
X120382143Y-82459057D02*
X120353572Y-82401914D01*
X120353572Y-82401914D02*
X120325000Y-82287628D01*
X120325000Y-82287628D02*
X120325000Y-82201914D01*
X120325000Y-82201914D02*
X120353572Y-82087628D01*
X120353572Y-82087628D02*
X120382143Y-82030485D01*
X120382143Y-82030485D02*
X120439286Y-81973342D01*
X120439286Y-81973342D02*
X120525000Y-81944771D01*
X120525000Y-81944771D02*
X120582143Y-81944771D01*
X120582143Y-81944771D02*
X120667857Y-81973342D01*
X120667857Y-81973342D02*
X120696429Y-82001914D01*
X121239286Y-82544771D02*
X120953572Y-82544771D01*
X120953572Y-82544771D02*
X120953572Y-81944771D01*
X121439286Y-82544771D02*
X121439286Y-81944771D01*
X121782143Y-82544771D02*
X121525000Y-82201914D01*
X121782143Y-81944771D02*
X121439286Y-82287628D01*
X119225000Y-84141200D02*
X119682143Y-84141200D01*
X119453571Y-84369771D02*
X119453571Y-83912628D01*
X119910714Y-83769771D02*
X120282142Y-83769771D01*
X120282142Y-83769771D02*
X120082142Y-83998342D01*
X120082142Y-83998342D02*
X120167857Y-83998342D01*
X120167857Y-83998342D02*
X120225000Y-84026914D01*
X120225000Y-84026914D02*
X120253571Y-84055485D01*
X120253571Y-84055485D02*
X120282142Y-84112628D01*
X120282142Y-84112628D02*
X120282142Y-84255485D01*
X120282142Y-84255485D02*
X120253571Y-84312628D01*
X120253571Y-84312628D02*
X120225000Y-84341200D01*
X120225000Y-84341200D02*
X120167857Y-84369771D01*
X120167857Y-84369771D02*
X119996428Y-84369771D01*
X119996428Y-84369771D02*
X119939285Y-84341200D01*
X119939285Y-84341200D02*
X119910714Y-84312628D01*
X120539286Y-84312628D02*
X120567857Y-84341200D01*
X120567857Y-84341200D02*
X120539286Y-84369771D01*
X120539286Y-84369771D02*
X120510714Y-84341200D01*
X120510714Y-84341200D02*
X120539286Y-84312628D01*
X120539286Y-84312628D02*
X120539286Y-84369771D01*
X120767857Y-83769771D02*
X121139285Y-83769771D01*
X121139285Y-83769771D02*
X120939285Y-83998342D01*
X120939285Y-83998342D02*
X121025000Y-83998342D01*
X121025000Y-83998342D02*
X121082143Y-84026914D01*
X121082143Y-84026914D02*
X121110714Y-84055485D01*
X121110714Y-84055485D02*
X121139285Y-84112628D01*
X121139285Y-84112628D02*
X121139285Y-84255485D01*
X121139285Y-84255485D02*
X121110714Y-84312628D01*
X121110714Y-84312628D02*
X121082143Y-84341200D01*
X121082143Y-84341200D02*
X121025000Y-84369771D01*
X121025000Y-84369771D02*
X120853571Y-84369771D01*
X120853571Y-84369771D02*
X120796428Y-84341200D01*
X120796428Y-84341200D02*
X120767857Y-84312628D01*
X121310714Y-83769771D02*
X121510714Y-84369771D01*
X121510714Y-84369771D02*
X121710714Y-83769771D01*
X132954464Y-93894771D02*
X132754464Y-93609057D01*
X132611607Y-93894771D02*
X132611607Y-93294771D01*
X132611607Y-93294771D02*
X132840178Y-93294771D01*
X132840178Y-93294771D02*
X132897321Y-93323342D01*
X132897321Y-93323342D02*
X132925892Y-93351914D01*
X132925892Y-93351914D02*
X132954464Y-93409057D01*
X132954464Y-93409057D02*
X132954464Y-93494771D01*
X132954464Y-93494771D02*
X132925892Y-93551914D01*
X132925892Y-93551914D02*
X132897321Y-93580485D01*
X132897321Y-93580485D02*
X132840178Y-93609057D01*
X132840178Y-93609057D02*
X132611607Y-93609057D01*
X133154464Y-93294771D02*
X133554464Y-93894771D01*
X133554464Y-93294771D02*
X133154464Y-93894771D01*
D12*
%TO.C,OUT1*%
X124975000Y-45250000D02*
X130375000Y-45250000D01*
X124975000Y-48650000D02*
X124975000Y-45250000D01*
X130375000Y-45250000D02*
X130375000Y-48650000D01*
X130375000Y-48650000D02*
X124975000Y-48650000D01*
D13*
%TO.C,J3*%
X120430000Y-60750000D02*
X123170000Y-60750000D01*
X120430000Y-73650000D02*
X120430000Y-60750000D01*
X123170000Y-60750000D02*
X123170000Y-73650000D01*
X123170000Y-73650000D02*
X120430000Y-73650000D01*
X121000000Y-61200000D02*
G75*
G02*
X120800000Y-61200000I-100000J0D01*
G01*
X120800000Y-61200000D02*
G75*
G02*
X121000000Y-61200000I100000J0D01*
G01*
D12*
%TO.C,5V*%
X128975000Y-90975000D02*
X130775000Y-90975000D01*
X128975000Y-92775000D02*
X128975000Y-90975000D01*
X130775000Y-90975000D02*
X130775000Y-92775000D01*
X130775000Y-92775000D02*
X128975000Y-92775000D01*
%TO.C,GND*%
X136575000Y-90975000D02*
X138375000Y-90975000D01*
X136575000Y-92775000D02*
X136575000Y-90975000D01*
X138375000Y-90975000D02*
X138375000Y-92775000D01*
X138375000Y-92775000D02*
X136575000Y-92775000D01*
%TO.C,+24V*%
X139600000Y-91000000D02*
X145000000Y-91000000D01*
X139600000Y-94400000D02*
X139600000Y-91000000D01*
X145000000Y-91000000D02*
X145000000Y-94400000D01*
X145000000Y-94400000D02*
X139600000Y-94400000D01*
%TO.C,-24V*%
X123100000Y-91000000D02*
X128500000Y-91000000D01*
X123100000Y-94400000D02*
X123100000Y-91000000D01*
X128500000Y-91000000D02*
X128500000Y-94400000D01*
X128500000Y-94400000D02*
X123100000Y-94400000D01*
%TO.C,OUT3*%
X137975000Y-45250000D02*
X143375000Y-45250000D01*
X137975000Y-48650000D02*
X137975000Y-45250000D01*
X143375000Y-45250000D02*
X143375000Y-48650000D01*
X143375000Y-48650000D02*
X137975000Y-48650000D01*
%TO.C,OUT2*%
X131475000Y-45250000D02*
X136875000Y-45250000D01*
X131475000Y-48650000D02*
X131475000Y-45250000D01*
X136875000Y-45250000D02*
X136875000Y-48650000D01*
X136875000Y-48650000D02*
X131475000Y-48650000D01*
%TO.C,PWM*%
X134675000Y-90975000D02*
X136475000Y-90975000D01*
X134675000Y-92775000D02*
X134675000Y-90975000D01*
X136475000Y-90975000D02*
X136475000Y-92775000D01*
X136475000Y-92775000D02*
X134675000Y-92775000D01*
D13*
%TO.C,P2*%
X154760000Y-70630000D02*
X154760000Y-44930000D01*
X154760000Y-94030000D02*
X154760000Y-81030000D01*
X157450000Y-44930000D02*
X154760000Y-44930000D01*
X157450000Y-70630000D02*
X154760000Y-70630000D01*
X157450000Y-70630000D02*
X157450000Y-44930000D01*
X157450000Y-81030000D02*
X154760000Y-81030000D01*
X157450000Y-94030000D02*
X154760000Y-94030000D01*
X157450000Y-94030000D02*
X157450000Y-81030000D01*
X163175000Y-46030000D02*
X157450000Y-46030000D01*
X163175000Y-46670000D02*
X157450000Y-46670000D01*
X163175000Y-46670000D02*
X163375000Y-46470000D01*
X163175000Y-48570000D02*
X157450000Y-48570000D01*
X163175000Y-49210000D02*
X157450000Y-49210000D01*
X163175000Y-49210000D02*
X163375000Y-49010000D01*
X163175000Y-51110000D02*
X157450000Y-51110000D01*
X163175000Y-51750000D02*
X157450000Y-51750000D01*
X163175000Y-51750000D02*
X163375000Y-51550000D01*
X163175000Y-53650000D02*
X157450000Y-53650000D01*
X163175000Y-54290000D02*
X157450000Y-54290000D01*
X163175000Y-54290000D02*
X163375000Y-54090000D01*
X163175000Y-56190000D02*
X157450000Y-56190000D01*
X163175000Y-56830000D02*
X157450000Y-56830000D01*
X163175000Y-56830000D02*
X163375000Y-56630000D01*
X163175000Y-58730000D02*
X157450000Y-58730000D01*
X163175000Y-59370000D02*
X157450000Y-59370000D01*
X163175000Y-59370000D02*
X163375000Y-59170000D01*
X163175000Y-61270000D02*
X157450000Y-61270000D01*
X163175000Y-61910000D02*
X157450000Y-61910000D01*
X163175000Y-61910000D02*
X163375000Y-61710000D01*
X163175000Y-63810000D02*
X157450000Y-63810000D01*
X163175000Y-64450000D02*
X157450000Y-64450000D01*
X163175000Y-64450000D02*
X163375000Y-64250000D01*
X163175000Y-66350000D02*
X157450000Y-66350000D01*
X163175000Y-66990000D02*
X157450000Y-66990000D01*
X163175000Y-66990000D02*
X163375000Y-66790000D01*
X163175000Y-68890000D02*
X157450000Y-68890000D01*
X163175000Y-69530000D02*
X157450000Y-69530000D01*
X163175000Y-69530000D02*
X163375000Y-69330000D01*
X163175000Y-82130000D02*
X157450000Y-82130000D01*
X163175000Y-82770000D02*
X157450000Y-82770000D01*
X163175000Y-82770000D02*
X163375000Y-82570000D01*
X163175000Y-84670000D02*
X157450000Y-84670000D01*
X163175000Y-85310000D02*
X157450000Y-85310000D01*
X163175000Y-85310000D02*
X163375000Y-85110000D01*
X163175000Y-87210000D02*
X157450000Y-87210000D01*
X163175000Y-87850000D02*
X157450000Y-87850000D01*
X163175000Y-87850000D02*
X163375000Y-87650000D01*
X163175000Y-89750000D02*
X157450000Y-89750000D01*
X163175000Y-90390000D02*
X157450000Y-90390000D01*
X163175000Y-90390000D02*
X163375000Y-90190000D01*
X163175000Y-92290000D02*
X157450000Y-92290000D01*
X163175000Y-92930000D02*
X157450000Y-92930000D01*
X163175000Y-92930000D02*
X163375000Y-92730000D01*
X163375000Y-46230000D02*
X163175000Y-46030000D01*
X163375000Y-46470000D02*
X163375000Y-46230000D01*
X163375000Y-48770000D02*
X163175000Y-48570000D01*
X163375000Y-49010000D02*
X163375000Y-48770000D01*
X163375000Y-51310000D02*
X163175000Y-51110000D01*
X163375000Y-51550000D02*
X163375000Y-51310000D01*
X163375000Y-53850000D02*
X163175000Y-53650000D01*
X163375000Y-54090000D02*
X163375000Y-53850000D01*
X163375000Y-56390000D02*
X163175000Y-56190000D01*
X163375000Y-56630000D02*
X163375000Y-56390000D01*
X163375000Y-58930000D02*
X163175000Y-58730000D01*
X163375000Y-59170000D02*
X163375000Y-58930000D01*
X163375000Y-61470000D02*
X163175000Y-61270000D01*
X163375000Y-61710000D02*
X163375000Y-61470000D01*
X163375000Y-64010000D02*
X163175000Y-63810000D01*
X163375000Y-64250000D02*
X163375000Y-64010000D01*
X163375000Y-66550000D02*
X163175000Y-66350000D01*
X163375000Y-66790000D02*
X163375000Y-66550000D01*
X163375000Y-69090000D02*
X163175000Y-68890000D01*
X163375000Y-69330000D02*
X163375000Y-69090000D01*
X163375000Y-82330000D02*
X163175000Y-82130000D01*
X163375000Y-82570000D02*
X163375000Y-82330000D01*
X163375000Y-84870000D02*
X163175000Y-84670000D01*
X163375000Y-85110000D02*
X163375000Y-84870000D01*
X163375000Y-87410000D02*
X163175000Y-87210000D01*
X163375000Y-87650000D02*
X163375000Y-87410000D01*
X163375000Y-89950000D02*
X163175000Y-89750000D01*
X163375000Y-90190000D02*
X163375000Y-89950000D01*
X163375000Y-92490000D02*
X163175000Y-92290000D01*
X163375000Y-92730000D02*
X163375000Y-92490000D01*
D14*
X153530000Y-44920000D02*
G75*
G02*
X153280000Y-44920000I-125000J0D01*
G01*
X153280000Y-44920000D02*
G75*
G02*
X153530000Y-44920000I125000J0D01*
G01*
X153530000Y-81020000D02*
G75*
G02*
X153280000Y-81020000I-125000J0D01*
G01*
X153280000Y-81020000D02*
G75*
G02*
X153530000Y-81020000I125000J0D01*
G01*
D12*
%TO.C,SWDIO*%
X122000000Y-80400000D02*
X123800000Y-80400000D01*
X122000000Y-82200000D02*
X122000000Y-80400000D01*
X123800000Y-80400000D02*
X123800000Y-82200000D01*
X123800000Y-82200000D02*
X122000000Y-82200000D01*
%TO.C,TX*%
X130875000Y-90975000D02*
X132675000Y-90975000D01*
X130875000Y-92775000D02*
X130875000Y-90975000D01*
X132675000Y-90975000D02*
X132675000Y-92775000D01*
X132675000Y-92775000D02*
X130875000Y-92775000D01*
%TO.C,GND*%
X122000000Y-86100000D02*
X123800000Y-86100000D01*
X122000000Y-87900000D02*
X122000000Y-86100000D01*
X123800000Y-86100000D02*
X123800000Y-87900000D01*
X123800000Y-87900000D02*
X122000000Y-87900000D01*
%TO.C,SWCLK*%
X122000000Y-82300000D02*
X123800000Y-82300000D01*
X122000000Y-84100000D02*
X122000000Y-82300000D01*
X123800000Y-82300000D02*
X123800000Y-84100000D01*
X123800000Y-84100000D02*
X122000000Y-84100000D01*
%TO.C,+3.3V*%
X122000000Y-84200000D02*
X123800000Y-84200000D01*
X122000000Y-86000000D02*
X122000000Y-84200000D01*
X123800000Y-84200000D02*
X123800000Y-86000000D01*
X123800000Y-86000000D02*
X122000000Y-86000000D01*
%TO.C,RX*%
X132775000Y-90975000D02*
X134575000Y-90975000D01*
X132775000Y-92775000D02*
X132775000Y-90975000D01*
X134575000Y-90975000D02*
X134575000Y-92775000D01*
X134575000Y-92775000D02*
X132775000Y-92775000D01*
%TD*%
D15*
X121800000Y-62120000D03*
X121800000Y-64660000D03*
X121800000Y-67200000D03*
X121800000Y-69740000D03*
X121800000Y-72280000D03*
X153375000Y-46350000D03*
X150835000Y-46350000D03*
X153375000Y-48890000D03*
X150835000Y-48890000D03*
X153375000Y-51430000D03*
X150835000Y-51430000D03*
X153375000Y-53970000D03*
X150835000Y-53970000D03*
X153375000Y-56510000D03*
X150835000Y-56510000D03*
X153375000Y-59050000D03*
X150835000Y-59050000D03*
X153375000Y-61590000D03*
X150835000Y-61590000D03*
X153375000Y-64130000D03*
X150835000Y-64130000D03*
X153375000Y-66670000D03*
X150835000Y-66670000D03*
X153375000Y-69210000D03*
X150835000Y-69210000D03*
X153375000Y-82450000D03*
X150835000Y-82450000D03*
X153375000Y-84990000D03*
X150835000Y-84990000D03*
X153375000Y-87530000D03*
X150835000Y-87530000D03*
X153375000Y-90070000D03*
X150835000Y-90070000D03*
X153375000Y-92610000D03*
X150835000Y-92610000D03*
M02*
