M48
METRIC,TZ
T1C0.300
T2C1.000
T3C1.100
%
G90
G05
T1
X122900Y-83200
X122900Y-85100
X122900Y-87000
X150900Y-77150
T2
X124110Y-91920
X124110Y-93360
X125790Y-91910
X125800Y-93300
X127440Y-91950
X127440Y-93370
T3
X121800Y-62120
X121800Y-64660
X121800Y-67200
X121800Y-69740
X121800Y-72280
X150835Y-46350
X150835Y-48890
X150835Y-51430
X150835Y-53970
X150835Y-56510
X150835Y-59050
X150835Y-61590
X150835Y-64130
X150835Y-66670
X150835Y-69210
X150835Y-82450
X150835Y-84990
X150835Y-87530
X150835Y-90070
X150835Y-92610
X153375Y-46350
X153375Y-48890
X153375Y-51430
X153375Y-53970
X153375Y-56510
X153375Y-59050
X153375Y-61590
X153375Y-64130
X153375Y-66670
X153375Y-69210
X153375Y-82450
X153375Y-84990
X153375Y-87530
X153375Y-90070
X153375Y-92610
M30
