%TF.GenerationSoftware,KiCad,Pcbnew,7.0.9*%
%TF.CreationDate,2024-04-13T12:05:23+02:00*%
%TF.ProjectId,MotorDriverCarrier-rounded,4d6f746f-7244-4726-9976-657243617272,rev?*%
%TF.SameCoordinates,Original*%
%TF.FileFunction,Legend,Bot*%
%TF.FilePolarity,Positive*%
%FSLAX46Y46*%
G04 Gerber Fmt 4.6, Leading zero omitted, Abs format (unit mm)*
G04 Created by KiCad (PCBNEW 7.0.9) date 2024-04-13 12:05:23*
%MOMM*%
%LPD*%
G01*
G04 APERTURE LIST*
%ADD10C,0.150000*%
%ADD11C,0.254000*%
%ADD12C,0.120000*%
G04 APERTURE END LIST*
D10*
X118166942Y-98368713D02*
X118214561Y-98321094D01*
X118214561Y-98321094D02*
X118262180Y-98225856D01*
X118262180Y-98225856D02*
X118262180Y-97987761D01*
X118262180Y-97987761D02*
X118214561Y-97892523D01*
X118214561Y-97892523D02*
X118166942Y-97844904D01*
X118166942Y-97844904D02*
X118071704Y-97797285D01*
X118071704Y-97797285D02*
X117976466Y-97797285D01*
X117976466Y-97797285D02*
X117833609Y-97844904D01*
X117833609Y-97844904D02*
X117262180Y-98416332D01*
X117262180Y-98416332D02*
X117262180Y-97797285D01*
X118262180Y-97178237D02*
X118262180Y-97082999D01*
X118262180Y-97082999D02*
X118214561Y-96987761D01*
X118214561Y-96987761D02*
X118166942Y-96940142D01*
X118166942Y-96940142D02*
X118071704Y-96892523D01*
X118071704Y-96892523D02*
X117881228Y-96844904D01*
X117881228Y-96844904D02*
X117643133Y-96844904D01*
X117643133Y-96844904D02*
X117452657Y-96892523D01*
X117452657Y-96892523D02*
X117357419Y-96940142D01*
X117357419Y-96940142D02*
X117309800Y-96987761D01*
X117309800Y-96987761D02*
X117262180Y-97082999D01*
X117262180Y-97082999D02*
X117262180Y-97178237D01*
X117262180Y-97178237D02*
X117309800Y-97273475D01*
X117309800Y-97273475D02*
X117357419Y-97321094D01*
X117357419Y-97321094D02*
X117452657Y-97368713D01*
X117452657Y-97368713D02*
X117643133Y-97416332D01*
X117643133Y-97416332D02*
X117881228Y-97416332D01*
X117881228Y-97416332D02*
X118071704Y-97368713D01*
X118071704Y-97368713D02*
X118166942Y-97321094D01*
X118166942Y-97321094D02*
X118214561Y-97273475D01*
X118214561Y-97273475D02*
X118262180Y-97178237D01*
X118166942Y-96463951D02*
X118214561Y-96416332D01*
X118214561Y-96416332D02*
X118262180Y-96321094D01*
X118262180Y-96321094D02*
X118262180Y-96082999D01*
X118262180Y-96082999D02*
X118214561Y-95987761D01*
X118214561Y-95987761D02*
X118166942Y-95940142D01*
X118166942Y-95940142D02*
X118071704Y-95892523D01*
X118071704Y-95892523D02*
X117976466Y-95892523D01*
X117976466Y-95892523D02*
X117833609Y-95940142D01*
X117833609Y-95940142D02*
X117262180Y-96511570D01*
X117262180Y-96511570D02*
X117262180Y-95892523D01*
X117928847Y-95035380D02*
X117262180Y-95035380D01*
X118309800Y-95273475D02*
X117595514Y-95511570D01*
X117595514Y-95511570D02*
X117595514Y-94892523D01*
X117643133Y-94511570D02*
X117643133Y-93749666D01*
X118262180Y-93082999D02*
X118262180Y-92987761D01*
X118262180Y-92987761D02*
X118214561Y-92892523D01*
X118214561Y-92892523D02*
X118166942Y-92844904D01*
X118166942Y-92844904D02*
X118071704Y-92797285D01*
X118071704Y-92797285D02*
X117881228Y-92749666D01*
X117881228Y-92749666D02*
X117643133Y-92749666D01*
X117643133Y-92749666D02*
X117452657Y-92797285D01*
X117452657Y-92797285D02*
X117357419Y-92844904D01*
X117357419Y-92844904D02*
X117309800Y-92892523D01*
X117309800Y-92892523D02*
X117262180Y-92987761D01*
X117262180Y-92987761D02*
X117262180Y-93082999D01*
X117262180Y-93082999D02*
X117309800Y-93178237D01*
X117309800Y-93178237D02*
X117357419Y-93225856D01*
X117357419Y-93225856D02*
X117452657Y-93273475D01*
X117452657Y-93273475D02*
X117643133Y-93321094D01*
X117643133Y-93321094D02*
X117881228Y-93321094D01*
X117881228Y-93321094D02*
X118071704Y-93273475D01*
X118071704Y-93273475D02*
X118166942Y-93225856D01*
X118166942Y-93225856D02*
X118214561Y-93178237D01*
X118214561Y-93178237D02*
X118262180Y-93082999D01*
X117928847Y-91892523D02*
X117262180Y-91892523D01*
X118309800Y-92130618D02*
X117595514Y-92368713D01*
X117595514Y-92368713D02*
X117595514Y-91749666D01*
X139493048Y-53175819D02*
X139493048Y-53890104D01*
X139493048Y-53890104D02*
X139540667Y-54032961D01*
X139540667Y-54032961D02*
X139635905Y-54128200D01*
X139635905Y-54128200D02*
X139778762Y-54175819D01*
X139778762Y-54175819D02*
X139874000Y-54175819D01*
X138540667Y-54175819D02*
X139016857Y-54175819D01*
X139016857Y-54175819D02*
X139016857Y-53175819D01*
X137635905Y-54080580D02*
X137683524Y-54128200D01*
X137683524Y-54128200D02*
X137826381Y-54175819D01*
X137826381Y-54175819D02*
X137921619Y-54175819D01*
X137921619Y-54175819D02*
X138064476Y-54128200D01*
X138064476Y-54128200D02*
X138159714Y-54032961D01*
X138159714Y-54032961D02*
X138207333Y-53937723D01*
X138207333Y-53937723D02*
X138254952Y-53747247D01*
X138254952Y-53747247D02*
X138254952Y-53604390D01*
X138254952Y-53604390D02*
X138207333Y-53413914D01*
X138207333Y-53413914D02*
X138159714Y-53318676D01*
X138159714Y-53318676D02*
X138064476Y-53223438D01*
X138064476Y-53223438D02*
X137921619Y-53175819D01*
X137921619Y-53175819D02*
X137826381Y-53175819D01*
X137826381Y-53175819D02*
X137683524Y-53223438D01*
X137683524Y-53223438D02*
X137635905Y-53271057D01*
X136921619Y-53175819D02*
X136921619Y-53890104D01*
X136921619Y-53890104D02*
X136969238Y-54032961D01*
X136969238Y-54032961D02*
X137064476Y-54128200D01*
X137064476Y-54128200D02*
X137207333Y-54175819D01*
X137207333Y-54175819D02*
X137302571Y-54175819D01*
X135969238Y-54175819D02*
X136445428Y-54175819D01*
X136445428Y-54175819D02*
X136445428Y-53175819D01*
X135064476Y-54080580D02*
X135112095Y-54128200D01*
X135112095Y-54128200D02*
X135254952Y-54175819D01*
X135254952Y-54175819D02*
X135350190Y-54175819D01*
X135350190Y-54175819D02*
X135493047Y-54128200D01*
X135493047Y-54128200D02*
X135588285Y-54032961D01*
X135588285Y-54032961D02*
X135635904Y-53937723D01*
X135635904Y-53937723D02*
X135683523Y-53747247D01*
X135683523Y-53747247D02*
X135683523Y-53604390D01*
X135683523Y-53604390D02*
X135635904Y-53413914D01*
X135635904Y-53413914D02*
X135588285Y-53318676D01*
X135588285Y-53318676D02*
X135493047Y-53223438D01*
X135493047Y-53223438D02*
X135350190Y-53175819D01*
X135350190Y-53175819D02*
X135254952Y-53175819D01*
X135254952Y-53175819D02*
X135112095Y-53223438D01*
X135112095Y-53223438D02*
X135064476Y-53271057D01*
X134350190Y-53175819D02*
X134350190Y-53890104D01*
X134350190Y-53890104D02*
X134397809Y-54032961D01*
X134397809Y-54032961D02*
X134493047Y-54128200D01*
X134493047Y-54128200D02*
X134635904Y-54175819D01*
X134635904Y-54175819D02*
X134731142Y-54175819D01*
X133397809Y-54175819D02*
X133873999Y-54175819D01*
X133873999Y-54175819D02*
X133873999Y-53175819D01*
X132493047Y-54080580D02*
X132540666Y-54128200D01*
X132540666Y-54128200D02*
X132683523Y-54175819D01*
X132683523Y-54175819D02*
X132778761Y-54175819D01*
X132778761Y-54175819D02*
X132921618Y-54128200D01*
X132921618Y-54128200D02*
X133016856Y-54032961D01*
X133016856Y-54032961D02*
X133064475Y-53937723D01*
X133064475Y-53937723D02*
X133112094Y-53747247D01*
X133112094Y-53747247D02*
X133112094Y-53604390D01*
X133112094Y-53604390D02*
X133064475Y-53413914D01*
X133064475Y-53413914D02*
X133016856Y-53318676D01*
X133016856Y-53318676D02*
X132921618Y-53223438D01*
X132921618Y-53223438D02*
X132778761Y-53175819D01*
X132778761Y-53175819D02*
X132683523Y-53175819D01*
X132683523Y-53175819D02*
X132540666Y-53223438D01*
X132540666Y-53223438D02*
X132493047Y-53271057D01*
X131778761Y-53175819D02*
X131778761Y-53890104D01*
X131778761Y-53890104D02*
X131826380Y-54032961D01*
X131826380Y-54032961D02*
X131921618Y-54128200D01*
X131921618Y-54128200D02*
X132064475Y-54175819D01*
X132064475Y-54175819D02*
X132159713Y-54175819D01*
X130826380Y-54175819D02*
X131302570Y-54175819D01*
X131302570Y-54175819D02*
X131302570Y-53175819D01*
X129921618Y-54080580D02*
X129969237Y-54128200D01*
X129969237Y-54128200D02*
X130112094Y-54175819D01*
X130112094Y-54175819D02*
X130207332Y-54175819D01*
X130207332Y-54175819D02*
X130350189Y-54128200D01*
X130350189Y-54128200D02*
X130445427Y-54032961D01*
X130445427Y-54032961D02*
X130493046Y-53937723D01*
X130493046Y-53937723D02*
X130540665Y-53747247D01*
X130540665Y-53747247D02*
X130540665Y-53604390D01*
X130540665Y-53604390D02*
X130493046Y-53413914D01*
X130493046Y-53413914D02*
X130445427Y-53318676D01*
X130445427Y-53318676D02*
X130350189Y-53223438D01*
X130350189Y-53223438D02*
X130207332Y-53175819D01*
X130207332Y-53175819D02*
X130112094Y-53175819D01*
X130112094Y-53175819D02*
X129969237Y-53223438D01*
X129969237Y-53223438D02*
X129921618Y-53271057D01*
D11*
X141929176Y-108294714D02*
X143453176Y-108294714D01*
X143453176Y-108294714D02*
X142364605Y-107786714D01*
X142364605Y-107786714D02*
X143453176Y-107278714D01*
X143453176Y-107278714D02*
X141929176Y-107278714D01*
X141929176Y-106335286D02*
X142001748Y-106480429D01*
X142001748Y-106480429D02*
X142074319Y-106553000D01*
X142074319Y-106553000D02*
X142219462Y-106625572D01*
X142219462Y-106625572D02*
X142654890Y-106625572D01*
X142654890Y-106625572D02*
X142800033Y-106553000D01*
X142800033Y-106553000D02*
X142872605Y-106480429D01*
X142872605Y-106480429D02*
X142945176Y-106335286D01*
X142945176Y-106335286D02*
X142945176Y-106117572D01*
X142945176Y-106117572D02*
X142872605Y-105972429D01*
X142872605Y-105972429D02*
X142800033Y-105899858D01*
X142800033Y-105899858D02*
X142654890Y-105827286D01*
X142654890Y-105827286D02*
X142219462Y-105827286D01*
X142219462Y-105827286D02*
X142074319Y-105899858D01*
X142074319Y-105899858D02*
X142001748Y-105972429D01*
X142001748Y-105972429D02*
X141929176Y-106117572D01*
X141929176Y-106117572D02*
X141929176Y-106335286D01*
X142945176Y-105391858D02*
X142945176Y-104811286D01*
X143453176Y-105174143D02*
X142146890Y-105174143D01*
X142146890Y-105174143D02*
X142001748Y-105101572D01*
X142001748Y-105101572D02*
X141929176Y-104956429D01*
X141929176Y-104956429D02*
X141929176Y-104811286D01*
X141929176Y-104085572D02*
X142001748Y-104230715D01*
X142001748Y-104230715D02*
X142074319Y-104303286D01*
X142074319Y-104303286D02*
X142219462Y-104375858D01*
X142219462Y-104375858D02*
X142654890Y-104375858D01*
X142654890Y-104375858D02*
X142800033Y-104303286D01*
X142800033Y-104303286D02*
X142872605Y-104230715D01*
X142872605Y-104230715D02*
X142945176Y-104085572D01*
X142945176Y-104085572D02*
X142945176Y-103867858D01*
X142945176Y-103867858D02*
X142872605Y-103722715D01*
X142872605Y-103722715D02*
X142800033Y-103650144D01*
X142800033Y-103650144D02*
X142654890Y-103577572D01*
X142654890Y-103577572D02*
X142219462Y-103577572D01*
X142219462Y-103577572D02*
X142074319Y-103650144D01*
X142074319Y-103650144D02*
X142001748Y-103722715D01*
X142001748Y-103722715D02*
X141929176Y-103867858D01*
X141929176Y-103867858D02*
X141929176Y-104085572D01*
X141929176Y-102924429D02*
X142945176Y-102924429D01*
X142654890Y-102924429D02*
X142800033Y-102851858D01*
X142800033Y-102851858D02*
X142872605Y-102779287D01*
X142872605Y-102779287D02*
X142945176Y-102634144D01*
X142945176Y-102634144D02*
X142945176Y-102489001D01*
X141929176Y-100819857D02*
X143453176Y-100819857D01*
X143453176Y-100819857D02*
X143453176Y-100457000D01*
X143453176Y-100457000D02*
X143380605Y-100239286D01*
X143380605Y-100239286D02*
X143235462Y-100094143D01*
X143235462Y-100094143D02*
X143090319Y-100021572D01*
X143090319Y-100021572D02*
X142800033Y-99949000D01*
X142800033Y-99949000D02*
X142582319Y-99949000D01*
X142582319Y-99949000D02*
X142292033Y-100021572D01*
X142292033Y-100021572D02*
X142146890Y-100094143D01*
X142146890Y-100094143D02*
X142001748Y-100239286D01*
X142001748Y-100239286D02*
X141929176Y-100457000D01*
X141929176Y-100457000D02*
X141929176Y-100819857D01*
X141929176Y-99295857D02*
X142945176Y-99295857D01*
X142654890Y-99295857D02*
X142800033Y-99223286D01*
X142800033Y-99223286D02*
X142872605Y-99150715D01*
X142872605Y-99150715D02*
X142945176Y-99005572D01*
X142945176Y-99005572D02*
X142945176Y-98860429D01*
X141929176Y-98352428D02*
X142945176Y-98352428D01*
X143453176Y-98352428D02*
X143380605Y-98425000D01*
X143380605Y-98425000D02*
X143308033Y-98352428D01*
X143308033Y-98352428D02*
X143380605Y-98279857D01*
X143380605Y-98279857D02*
X143453176Y-98352428D01*
X143453176Y-98352428D02*
X143308033Y-98352428D01*
X142945176Y-97771857D02*
X141929176Y-97409000D01*
X141929176Y-97409000D02*
X142945176Y-97046143D01*
X142001748Y-95885000D02*
X141929176Y-96030143D01*
X141929176Y-96030143D02*
X141929176Y-96320429D01*
X141929176Y-96320429D02*
X142001748Y-96465571D01*
X142001748Y-96465571D02*
X142146890Y-96538143D01*
X142146890Y-96538143D02*
X142727462Y-96538143D01*
X142727462Y-96538143D02*
X142872605Y-96465571D01*
X142872605Y-96465571D02*
X142945176Y-96320429D01*
X142945176Y-96320429D02*
X142945176Y-96030143D01*
X142945176Y-96030143D02*
X142872605Y-95885000D01*
X142872605Y-95885000D02*
X142727462Y-95812429D01*
X142727462Y-95812429D02*
X142582319Y-95812429D01*
X142582319Y-95812429D02*
X142437176Y-96538143D01*
X141929176Y-95159285D02*
X142945176Y-95159285D01*
X142654890Y-95159285D02*
X142800033Y-95086714D01*
X142800033Y-95086714D02*
X142872605Y-95014143D01*
X142872605Y-95014143D02*
X142945176Y-94869000D01*
X142945176Y-94869000D02*
X142945176Y-94723857D01*
X142074319Y-92183856D02*
X142001748Y-92256428D01*
X142001748Y-92256428D02*
X141929176Y-92474142D01*
X141929176Y-92474142D02*
X141929176Y-92619285D01*
X141929176Y-92619285D02*
X142001748Y-92836999D01*
X142001748Y-92836999D02*
X142146890Y-92982142D01*
X142146890Y-92982142D02*
X142292033Y-93054713D01*
X142292033Y-93054713D02*
X142582319Y-93127285D01*
X142582319Y-93127285D02*
X142800033Y-93127285D01*
X142800033Y-93127285D02*
X143090319Y-93054713D01*
X143090319Y-93054713D02*
X143235462Y-92982142D01*
X143235462Y-92982142D02*
X143380605Y-92836999D01*
X143380605Y-92836999D02*
X143453176Y-92619285D01*
X143453176Y-92619285D02*
X143453176Y-92474142D01*
X143453176Y-92474142D02*
X143380605Y-92256428D01*
X143380605Y-92256428D02*
X143308033Y-92183856D01*
X141929176Y-90877571D02*
X142727462Y-90877571D01*
X142727462Y-90877571D02*
X142872605Y-90950142D01*
X142872605Y-90950142D02*
X142945176Y-91095285D01*
X142945176Y-91095285D02*
X142945176Y-91385571D01*
X142945176Y-91385571D02*
X142872605Y-91530713D01*
X142001748Y-90877571D02*
X141929176Y-91022713D01*
X141929176Y-91022713D02*
X141929176Y-91385571D01*
X141929176Y-91385571D02*
X142001748Y-91530713D01*
X142001748Y-91530713D02*
X142146890Y-91603285D01*
X142146890Y-91603285D02*
X142292033Y-91603285D01*
X142292033Y-91603285D02*
X142437176Y-91530713D01*
X142437176Y-91530713D02*
X142509748Y-91385571D01*
X142509748Y-91385571D02*
X142509748Y-91022713D01*
X142509748Y-91022713D02*
X142582319Y-90877571D01*
X141929176Y-90151856D02*
X142945176Y-90151856D01*
X142654890Y-90151856D02*
X142800033Y-90079285D01*
X142800033Y-90079285D02*
X142872605Y-90006714D01*
X142872605Y-90006714D02*
X142945176Y-89861571D01*
X142945176Y-89861571D02*
X142945176Y-89716428D01*
X141929176Y-89208427D02*
X142945176Y-89208427D01*
X142654890Y-89208427D02*
X142800033Y-89135856D01*
X142800033Y-89135856D02*
X142872605Y-89063285D01*
X142872605Y-89063285D02*
X142945176Y-88918142D01*
X142945176Y-88918142D02*
X142945176Y-88772999D01*
X141929176Y-88264998D02*
X142945176Y-88264998D01*
X143453176Y-88264998D02*
X143380605Y-88337570D01*
X143380605Y-88337570D02*
X143308033Y-88264998D01*
X143308033Y-88264998D02*
X143380605Y-88192427D01*
X143380605Y-88192427D02*
X143453176Y-88264998D01*
X143453176Y-88264998D02*
X143308033Y-88264998D01*
X142001748Y-86958713D02*
X141929176Y-87103856D01*
X141929176Y-87103856D02*
X141929176Y-87394142D01*
X141929176Y-87394142D02*
X142001748Y-87539284D01*
X142001748Y-87539284D02*
X142146890Y-87611856D01*
X142146890Y-87611856D02*
X142727462Y-87611856D01*
X142727462Y-87611856D02*
X142872605Y-87539284D01*
X142872605Y-87539284D02*
X142945176Y-87394142D01*
X142945176Y-87394142D02*
X142945176Y-87103856D01*
X142945176Y-87103856D02*
X142872605Y-86958713D01*
X142872605Y-86958713D02*
X142727462Y-86886142D01*
X142727462Y-86886142D02*
X142582319Y-86886142D01*
X142582319Y-86886142D02*
X142437176Y-87611856D01*
X141929176Y-86232998D02*
X142945176Y-86232998D01*
X142654890Y-86232998D02*
X142800033Y-86160427D01*
X142800033Y-86160427D02*
X142872605Y-86087856D01*
X142872605Y-86087856D02*
X142945176Y-85942713D01*
X142945176Y-85942713D02*
X142945176Y-85797570D01*
D10*
X120256904Y-80567819D02*
X120256904Y-81377342D01*
X120256904Y-81377342D02*
X120209285Y-81472580D01*
X120209285Y-81472580D02*
X120161666Y-81520200D01*
X120161666Y-81520200D02*
X120066428Y-81567819D01*
X120066428Y-81567819D02*
X119875952Y-81567819D01*
X119875952Y-81567819D02*
X119780714Y-81520200D01*
X119780714Y-81520200D02*
X119733095Y-81472580D01*
X119733095Y-81472580D02*
X119685476Y-81377342D01*
X119685476Y-81377342D02*
X119685476Y-80567819D01*
X118685476Y-81567819D02*
X119256904Y-81567819D01*
X118971190Y-81567819D02*
X118971190Y-80567819D01*
X118971190Y-80567819D02*
X119066428Y-80710676D01*
X119066428Y-80710676D02*
X119161666Y-80805914D01*
X119161666Y-80805914D02*
X119256904Y-80853533D01*
%TO.C,G\u002A\u002A\u002A*%
G36*
X122069000Y-53579542D02*
G01*
X121897000Y-53575000D01*
X121892862Y-52707000D01*
X122069000Y-52707000D01*
X122069000Y-53579542D01*
G37*
G36*
X118533000Y-53898623D02*
G01*
X118395000Y-53900812D01*
X118257000Y-53903000D01*
X118254890Y-54165000D01*
X118252781Y-54427000D01*
X118125000Y-54427000D01*
X118125000Y-53779000D01*
X118533000Y-53779000D01*
X118533000Y-53898623D01*
G37*
G36*
X119405000Y-54307000D02*
G01*
X119573000Y-54307000D01*
X119573000Y-54427000D01*
X119101000Y-54427000D01*
X119101000Y-54307000D01*
X119269000Y-54307000D01*
X119269000Y-53779000D01*
X119405000Y-53779000D01*
X119405000Y-54307000D01*
G37*
G36*
X118757000Y-54043000D02*
G01*
X118997000Y-54043000D01*
X118997000Y-54171000D01*
X118757000Y-54171000D01*
X118757000Y-54307000D01*
X119053000Y-54307000D01*
X119053000Y-54427000D01*
X118629000Y-54427000D01*
X118629000Y-53779000D01*
X118757000Y-53779000D01*
X118757000Y-54043000D01*
G37*
G36*
X118013000Y-53899000D02*
G01*
X117717000Y-53899000D01*
X117717000Y-54051000D01*
X117957000Y-54051000D01*
X117957000Y-54171000D01*
X117717000Y-54171000D01*
X117717000Y-54307000D01*
X118013000Y-54307000D01*
X118013000Y-54427000D01*
X117581000Y-54427000D01*
X117581000Y-53779000D01*
X118013000Y-53779000D01*
X118013000Y-53899000D01*
G37*
G36*
X123230900Y-52995729D02*
G01*
X123233000Y-53284457D01*
X123388944Y-52995729D01*
X123544888Y-52707000D01*
X123733000Y-52707000D01*
X123733000Y-53571000D01*
X123573197Y-53571000D01*
X123571098Y-53279547D01*
X123569000Y-52988093D01*
X123412805Y-53277547D01*
X123256610Y-53567000D01*
X123158805Y-53569247D01*
X123061000Y-53571493D01*
X123061000Y-52707000D01*
X123228800Y-52707000D01*
X123230900Y-52995729D01*
G37*
G36*
X118637000Y-52867000D02*
G01*
X118245000Y-52867000D01*
X118245000Y-53067000D01*
X118565559Y-53067000D01*
X118563279Y-53149000D01*
X118561000Y-53231000D01*
X118403000Y-53233170D01*
X118245000Y-53235339D01*
X118245000Y-53411000D01*
X118637559Y-53411000D01*
X118635279Y-53493000D01*
X118633000Y-53575000D01*
X118351000Y-53577103D01*
X118069000Y-53579205D01*
X118069000Y-52707000D01*
X118637000Y-52707000D01*
X118637000Y-52867000D01*
G37*
G36*
X117213269Y-52989000D02*
G01*
X117213539Y-53271000D01*
X117395823Y-52847000D01*
X117526176Y-52847000D01*
X117708460Y-53271000D01*
X117709000Y-52707000D01*
X117877000Y-52707000D01*
X117877000Y-53571493D01*
X117779130Y-53569247D01*
X117681260Y-53567000D01*
X117573130Y-53321079D01*
X117554182Y-53278125D01*
X117529748Y-53223167D01*
X117507845Y-53174396D01*
X117489245Y-53133508D01*
X117474722Y-53102199D01*
X117465050Y-53082164D01*
X117461000Y-53075099D01*
X117458636Y-53078878D01*
X117450415Y-53095541D01*
X117437139Y-53123941D01*
X117419579Y-53162384D01*
X117398509Y-53209175D01*
X117374700Y-53262619D01*
X117348925Y-53321020D01*
X117240851Y-53567000D01*
X117142925Y-53569247D01*
X117045000Y-53571493D01*
X117045000Y-52707000D01*
X117213000Y-52707000D01*
X117213269Y-52989000D01*
G37*
G36*
X120638333Y-52701084D02*
G01*
X120827667Y-52703000D01*
X120861719Y-52727000D01*
X120871318Y-52734545D01*
X120895867Y-52759678D01*
X120914385Y-52786259D01*
X120933000Y-52821517D01*
X120933000Y-53571000D01*
X120757000Y-53571000D01*
X120757000Y-53227980D01*
X120756999Y-53219440D01*
X120756906Y-53135404D01*
X120756625Y-53065922D01*
X120756116Y-53009667D01*
X120755336Y-52965316D01*
X120754243Y-52931544D01*
X120752797Y-52907027D01*
X120750954Y-52890441D01*
X120748675Y-52880460D01*
X120745916Y-52875761D01*
X120735920Y-52872209D01*
X120710923Y-52869500D01*
X120671106Y-52868368D01*
X120615916Y-52868781D01*
X120497000Y-52871000D01*
X120494915Y-53221000D01*
X120492831Y-53571000D01*
X120308000Y-53571000D01*
X120310500Y-53197000D01*
X120310835Y-53147422D01*
X120311419Y-53068444D01*
X120312023Y-53003191D01*
X120312721Y-52950193D01*
X120313583Y-52907980D01*
X120314682Y-52875083D01*
X120316087Y-52850030D01*
X120317871Y-52831354D01*
X120320105Y-52817582D01*
X120322860Y-52807246D01*
X120326208Y-52798875D01*
X120330221Y-52791000D01*
X120345058Y-52766925D01*
X120377658Y-52732484D01*
X120418241Y-52710403D01*
X120418504Y-52710307D01*
X120432952Y-52706532D01*
X120453689Y-52703761D01*
X120482656Y-52701913D01*
X120521793Y-52700906D01*
X120573038Y-52700657D01*
X120638333Y-52701084D01*
G37*
G36*
X117179000Y-53779030D02*
G01*
X117224135Y-53779079D01*
X117274491Y-53779362D01*
X117312583Y-53780040D01*
X117340583Y-53781273D01*
X117360661Y-53783221D01*
X117374988Y-53786045D01*
X117385735Y-53789903D01*
X117395073Y-53794957D01*
X117395956Y-53795505D01*
X117418621Y-53814310D01*
X117437043Y-53836927D01*
X117440998Y-53844004D01*
X117444713Y-53853244D01*
X117447569Y-53865339D01*
X117449678Y-53882165D01*
X117451151Y-53905600D01*
X117452102Y-53937524D01*
X117452642Y-53979813D01*
X117452884Y-54034346D01*
X117452940Y-54103000D01*
X117452901Y-54162783D01*
X117452692Y-54219213D01*
X117452201Y-54263131D01*
X117451316Y-54296416D01*
X117449924Y-54320946D01*
X117447912Y-54338599D01*
X117445170Y-54351252D01*
X117441584Y-54360784D01*
X117437043Y-54369074D01*
X117436495Y-54369957D01*
X117417690Y-54392622D01*
X117395073Y-54411044D01*
X117388389Y-54414814D01*
X117378254Y-54418990D01*
X117365144Y-54422087D01*
X117346889Y-54424263D01*
X117321318Y-54425680D01*
X117286260Y-54426496D01*
X117239544Y-54426873D01*
X117179000Y-54426971D01*
X116989000Y-54427000D01*
X116989000Y-53899000D01*
X117117000Y-53899000D01*
X117117000Y-54307000D01*
X117211399Y-54307000D01*
X117226769Y-54306931D01*
X117272048Y-54305536D01*
X117301625Y-54302356D01*
X117315399Y-54297401D01*
X117317051Y-54294634D01*
X117320065Y-54281030D01*
X117322310Y-54256098D01*
X117323842Y-54218674D01*
X117324720Y-54167590D01*
X117325000Y-54101682D01*
X117324951Y-54049313D01*
X117324682Y-54002204D01*
X117324033Y-53967363D01*
X117322846Y-53942794D01*
X117320960Y-53926498D01*
X117318217Y-53916480D01*
X117314459Y-53910740D01*
X117309525Y-53907282D01*
X117299547Y-53904569D01*
X117275683Y-53901688D01*
X117243005Y-53899726D01*
X117205525Y-53899000D01*
X117117000Y-53899000D01*
X116989000Y-53899000D01*
X116989000Y-53779000D01*
X117179000Y-53779030D01*
G37*
G36*
X121285000Y-53027000D02*
G01*
X121425382Y-53027000D01*
X121562474Y-52711000D01*
X121655737Y-52708747D01*
X121691154Y-52708362D01*
X121721202Y-52708977D01*
X121741528Y-52710486D01*
X121749000Y-52712754D01*
X121748630Y-52714241D01*
X121743539Y-52727570D01*
X121733211Y-52752521D01*
X121718592Y-52786861D01*
X121700632Y-52828355D01*
X121680279Y-52874768D01*
X121672759Y-52891941D01*
X121653857Y-52936386D01*
X121638283Y-52974898D01*
X121626859Y-53005319D01*
X121620410Y-53025490D01*
X121619760Y-53033254D01*
X121641067Y-53044650D01*
X121667233Y-53065956D01*
X121691271Y-53091665D01*
X121707938Y-53116807D01*
X121712744Y-53127414D01*
X121717503Y-53141274D01*
X121720843Y-53157767D01*
X121723008Y-53179565D01*
X121724238Y-53209342D01*
X121724777Y-53249771D01*
X121724868Y-53303526D01*
X121724722Y-53340759D01*
X121723665Y-53392684D01*
X121720978Y-53432658D01*
X121715952Y-53463223D01*
X121707877Y-53486921D01*
X121696045Y-53506296D01*
X121679745Y-53523888D01*
X121658270Y-53542240D01*
X121627540Y-53567000D01*
X121109000Y-53571630D01*
X121109000Y-53187000D01*
X121285000Y-53187000D01*
X121285000Y-53411000D01*
X121401525Y-53411000D01*
X121415754Y-53410942D01*
X121457969Y-53410055D01*
X121493807Y-53408254D01*
X121520062Y-53405742D01*
X121533525Y-53402719D01*
X121536061Y-53401230D01*
X121541869Y-53395425D01*
X121545636Y-53385191D01*
X121547792Y-53367638D01*
X121548770Y-53339871D01*
X121549000Y-53299000D01*
X121548978Y-53283351D01*
X121548541Y-53247293D01*
X121547208Y-53223349D01*
X121544549Y-53208627D01*
X121540132Y-53200236D01*
X121533525Y-53195282D01*
X121530829Y-53194279D01*
X121512954Y-53191396D01*
X121483307Y-53189088D01*
X121445096Y-53187556D01*
X121401525Y-53187000D01*
X121285000Y-53187000D01*
X121109000Y-53187000D01*
X121109000Y-52707000D01*
X121285000Y-52707000D01*
X121285000Y-53027000D01*
G37*
G36*
X122891017Y-52707157D02*
G01*
X122921136Y-52707587D01*
X122941478Y-52708223D01*
X122948932Y-52709000D01*
X122947718Y-52712999D01*
X122942104Y-52730709D01*
X122932323Y-52761309D01*
X122918813Y-52803431D01*
X122902014Y-52855707D01*
X122882367Y-52916770D01*
X122860310Y-52985252D01*
X122836282Y-53059784D01*
X122810725Y-53139000D01*
X122672585Y-53567000D01*
X122568445Y-53569221D01*
X122464304Y-53571442D01*
X122329476Y-53153221D01*
X122314625Y-53107140D01*
X122303632Y-53073000D01*
X122477153Y-53073000D01*
X122477492Y-53075077D01*
X122481270Y-53089828D01*
X122488527Y-53115588D01*
X122498380Y-53149426D01*
X122509944Y-53188413D01*
X122522334Y-53229619D01*
X122534665Y-53270114D01*
X122546054Y-53306969D01*
X122555617Y-53337252D01*
X122562467Y-53358036D01*
X122565722Y-53366390D01*
X122566873Y-53364690D01*
X122571885Y-53351198D01*
X122579940Y-53326681D01*
X122590198Y-53293968D01*
X122601817Y-53255885D01*
X122613956Y-53215262D01*
X122625774Y-53174925D01*
X122636429Y-53137702D01*
X122645080Y-53106422D01*
X122650886Y-53083912D01*
X122653006Y-53073000D01*
X122647508Y-53070918D01*
X122628941Y-53068889D01*
X122600362Y-53067509D01*
X122565000Y-53067000D01*
X122534452Y-53067376D01*
X122504723Y-53068642D01*
X122484550Y-53070590D01*
X122477153Y-53073000D01*
X122303632Y-53073000D01*
X122290021Y-53030732D01*
X122267105Y-52959490D01*
X122246340Y-52894850D01*
X122228185Y-52838251D01*
X122213102Y-52791129D01*
X122201552Y-52754922D01*
X122193994Y-52731067D01*
X122190891Y-52721000D01*
X122190434Y-52718964D01*
X122191347Y-52713560D01*
X122198003Y-52710073D01*
X122212966Y-52708094D01*
X122238799Y-52707210D01*
X122278066Y-52707010D01*
X122369000Y-52707019D01*
X122396373Y-52803010D01*
X122423746Y-52899000D01*
X122705000Y-52898982D01*
X122759746Y-52707000D01*
X122854373Y-52707000D01*
X122891017Y-52707157D01*
G37*
G36*
X118965000Y-53027623D02*
G01*
X119034645Y-53025312D01*
X119104291Y-53023000D01*
X119172645Y-52865012D01*
X119241000Y-52707023D01*
X119335000Y-52707012D01*
X119371061Y-52707228D01*
X119401166Y-52707839D01*
X119421520Y-52708751D01*
X119429000Y-52709867D01*
X119428400Y-52711594D01*
X119422776Y-52725101D01*
X119411990Y-52750163D01*
X119396970Y-52784641D01*
X119378647Y-52826397D01*
X119357951Y-52873291D01*
X119286903Y-53033848D01*
X119309951Y-53043395D01*
X119313530Y-53044972D01*
X119345273Y-53066673D01*
X119373511Y-53098495D01*
X119393517Y-53135241D01*
X119397201Y-53146514D01*
X119400812Y-53164253D01*
X119403118Y-53187596D01*
X119404264Y-53219137D01*
X119404393Y-53261472D01*
X119403651Y-53317195D01*
X119401000Y-53465672D01*
X119376667Y-53500268D01*
X119368461Y-53510819D01*
X119344697Y-53534958D01*
X119320667Y-53552801D01*
X119316498Y-53555128D01*
X119307304Y-53559674D01*
X119297060Y-53563241D01*
X119283899Y-53565949D01*
X119265951Y-53567918D01*
X119241348Y-53569267D01*
X119208220Y-53570117D01*
X119164698Y-53570587D01*
X119108914Y-53570798D01*
X119039000Y-53570869D01*
X118789000Y-53571000D01*
X118789000Y-53185874D01*
X118965000Y-53185874D01*
X118965000Y-53411000D01*
X119084428Y-53411000D01*
X119099055Y-53410981D01*
X119143235Y-53410523D01*
X119174581Y-53409275D01*
X119195575Y-53407001D01*
X119208697Y-53403464D01*
X119216428Y-53398429D01*
X119217548Y-53397224D01*
X119223111Y-53386794D01*
X119226607Y-53369125D01*
X119228406Y-53341307D01*
X119228877Y-53300429D01*
X119228461Y-53273245D01*
X119226853Y-53240365D01*
X119224324Y-53215644D01*
X119221184Y-53203000D01*
X119220126Y-53201616D01*
X119212639Y-53197157D01*
X119198034Y-53193854D01*
X119174090Y-53191464D01*
X119138588Y-53189740D01*
X119089306Y-53188437D01*
X118965000Y-53185874D01*
X118789000Y-53185874D01*
X118789000Y-52707000D01*
X118965000Y-52707000D01*
X118965000Y-53027623D01*
G37*
G36*
X120085811Y-52721275D02*
G01*
X120112847Y-52737602D01*
X120133126Y-52757469D01*
X120150725Y-52786189D01*
X120153665Y-52791879D01*
X120162508Y-52810920D01*
X120168157Y-52829007D01*
X120171318Y-52850376D01*
X120172697Y-52879266D01*
X120173000Y-52919914D01*
X120173000Y-53011000D01*
X119997000Y-53011000D01*
X119997000Y-52947980D01*
X119996009Y-52913381D01*
X119992403Y-52888217D01*
X119985916Y-52875761D01*
X119975920Y-52872209D01*
X119950923Y-52869500D01*
X119911106Y-52868368D01*
X119855916Y-52868781D01*
X119737000Y-52871000D01*
X119737000Y-53407000D01*
X119855916Y-53409220D01*
X119903707Y-53409669D01*
X119945830Y-53408774D01*
X119973048Y-53406308D01*
X119985916Y-53402240D01*
X119991856Y-53391677D01*
X119995756Y-53367937D01*
X119997000Y-53330021D01*
X119997000Y-53267000D01*
X120173000Y-53267000D01*
X120172824Y-53357000D01*
X120171460Y-53406788D01*
X120166500Y-53448958D01*
X120156941Y-53481754D01*
X120141779Y-53508514D01*
X120120008Y-53532576D01*
X120103785Y-53546742D01*
X120087452Y-53557752D01*
X120068802Y-53565947D01*
X120045555Y-53571736D01*
X120015431Y-53575527D01*
X119976150Y-53577729D01*
X119925433Y-53578751D01*
X119861000Y-53579000D01*
X119852486Y-53578997D01*
X119792799Y-53578719D01*
X119746683Y-53577900D01*
X119711985Y-53576409D01*
X119686550Y-53574119D01*
X119668224Y-53570898D01*
X119654852Y-53566619D01*
X119632970Y-53555763D01*
X119598196Y-53527560D01*
X119570221Y-53487000D01*
X119567520Y-53481854D01*
X119563677Y-53473301D01*
X119560579Y-53463359D01*
X119558146Y-53450404D01*
X119556299Y-53432813D01*
X119554956Y-53408963D01*
X119554037Y-53377230D01*
X119553463Y-53335990D01*
X119553152Y-53283621D01*
X119553024Y-53218499D01*
X119553000Y-53139000D01*
X119553006Y-53089428D01*
X119553083Y-53018760D01*
X119553312Y-52961494D01*
X119553771Y-52916006D01*
X119554543Y-52880672D01*
X119555707Y-52853869D01*
X119557343Y-52833974D01*
X119559532Y-52819363D01*
X119562355Y-52808413D01*
X119565891Y-52799500D01*
X119570221Y-52791000D01*
X119585401Y-52766437D01*
X119617920Y-52732311D01*
X119658241Y-52710670D01*
X119661166Y-52709713D01*
X119679907Y-52705865D01*
X119708147Y-52702993D01*
X119747509Y-52701009D01*
X119799615Y-52699825D01*
X119866086Y-52699352D01*
X120043172Y-52699000D01*
X120085811Y-52721275D01*
G37*
G36*
X124284837Y-52700131D02*
G01*
X124333840Y-52701339D01*
X124371787Y-52704063D01*
X124400935Y-52708792D01*
X124423538Y-52716015D01*
X124441852Y-52726219D01*
X124458131Y-52739893D01*
X124474632Y-52757526D01*
X124484900Y-52770154D01*
X124498249Y-52792051D01*
X124507440Y-52817617D01*
X124513157Y-52849919D01*
X124516086Y-52892025D01*
X124516910Y-52947000D01*
X124516474Y-52990490D01*
X124514273Y-53034160D01*
X124509578Y-53067228D01*
X124501690Y-53092695D01*
X124489907Y-53113563D01*
X124473529Y-53132832D01*
X124464988Y-53141211D01*
X124444231Y-53158032D01*
X124419646Y-53172533D01*
X124388835Y-53185653D01*
X124349398Y-53198330D01*
X124298937Y-53211502D01*
X124235051Y-53226108D01*
X124194739Y-53235087D01*
X124153527Y-53244612D01*
X124119878Y-53252768D01*
X124096488Y-53258899D01*
X124086052Y-53262350D01*
X124083510Y-53265771D01*
X124079537Y-53282372D01*
X124077384Y-53307775D01*
X124077033Y-53337181D01*
X124078464Y-53365787D01*
X124081659Y-53388794D01*
X124086599Y-53401400D01*
X124093994Y-53404810D01*
X124116484Y-53408281D01*
X124153727Y-53410329D01*
X124206318Y-53411000D01*
X124246601Y-53410856D01*
X124282672Y-53409607D01*
X124306979Y-53406017D01*
X124321845Y-53398851D01*
X124329589Y-53386871D01*
X124332534Y-53368841D01*
X124333000Y-53343526D01*
X124333000Y-53307000D01*
X124501000Y-53307000D01*
X124500824Y-53377000D01*
X124499270Y-53413030D01*
X124489118Y-53466942D01*
X124468883Y-53509633D01*
X124437838Y-53542409D01*
X124395256Y-53566576D01*
X124379935Y-53570359D01*
X124349877Y-53573987D01*
X124309716Y-53576745D01*
X124262614Y-53578607D01*
X124211736Y-53579549D01*
X124160245Y-53579546D01*
X124111306Y-53578573D01*
X124068082Y-53576605D01*
X124033737Y-53573618D01*
X124011436Y-53569587D01*
X123989324Y-53560106D01*
X123955759Y-53535668D01*
X123927903Y-53503908D01*
X123910789Y-53469818D01*
X123907421Y-53452907D01*
X123904223Y-53421361D01*
X123902157Y-53381929D01*
X123901242Y-53338583D01*
X123901499Y-53295296D01*
X123902946Y-53256042D01*
X123905603Y-53224792D01*
X123909490Y-53205521D01*
X123914764Y-53194189D01*
X123937158Y-53163633D01*
X123968791Y-53134471D01*
X124005283Y-53111021D01*
X124018697Y-53105447D01*
X124047990Y-53095880D01*
X124086970Y-53084849D01*
X124132190Y-53073318D01*
X124180200Y-53062247D01*
X124218922Y-53053467D01*
X124260498Y-53043214D01*
X124294701Y-53033866D01*
X124318764Y-53026187D01*
X124329917Y-53020940D01*
X124334683Y-53011121D01*
X124338909Y-52988350D01*
X124340930Y-52958924D01*
X124340642Y-52928019D01*
X124337939Y-52900811D01*
X124332718Y-52882475D01*
X124332286Y-52881688D01*
X124327705Y-52875913D01*
X124319870Y-52871881D01*
X124306230Y-52869283D01*
X124284237Y-52867809D01*
X124251343Y-52867151D01*
X124205000Y-52867000D01*
X124192167Y-52867000D01*
X124146050Y-52867304D01*
X124113174Y-52869029D01*
X124091299Y-52873418D01*
X124078183Y-52881714D01*
X124071588Y-52895160D01*
X124069273Y-52914999D01*
X124069000Y-52942475D01*
X124069000Y-52987000D01*
X123901000Y-52987000D01*
X123901000Y-52913929D01*
X123901128Y-52901695D01*
X123902898Y-52864513D01*
X123906310Y-52831322D01*
X123910807Y-52808121D01*
X123920295Y-52786082D01*
X123943722Y-52753496D01*
X123973733Y-52726226D01*
X124005377Y-52709440D01*
X124005434Y-52709422D01*
X124022947Y-52706480D01*
X124054253Y-52703965D01*
X124097158Y-52701978D01*
X124149471Y-52700620D01*
X124209000Y-52699993D01*
X124222525Y-52699951D01*
X124284837Y-52700131D01*
G37*
G36*
X123936391Y-53884802D02*
G01*
X124056119Y-53887000D01*
X124108559Y-54000749D01*
X124114176Y-54012909D01*
X124133213Y-54053374D01*
X124147933Y-54082481D01*
X124160046Y-54102854D01*
X124171262Y-54117121D01*
X124183292Y-54127908D01*
X124197847Y-54137841D01*
X124226944Y-54161914D01*
X124253138Y-54201415D01*
X124267166Y-54250071D01*
X124268780Y-54306911D01*
X124257729Y-54370963D01*
X124252482Y-54392789D01*
X124250604Y-54411768D01*
X124254443Y-54428634D01*
X124264634Y-54450706D01*
X124280631Y-54488556D01*
X124296905Y-54554753D01*
X124300705Y-54622688D01*
X124291953Y-54688539D01*
X124270575Y-54748483D01*
X124256539Y-54773950D01*
X124234280Y-54808513D01*
X124212574Y-54837030D01*
X124208562Y-54841551D01*
X124175729Y-54873523D01*
X124132286Y-54909725D01*
X124081510Y-54947795D01*
X124026677Y-54985369D01*
X123971061Y-55020085D01*
X123917938Y-55049580D01*
X123876308Y-55070399D01*
X123835532Y-55089411D01*
X123793357Y-55107450D01*
X123747446Y-55125390D01*
X123695462Y-55144105D01*
X123635069Y-55164470D01*
X123563931Y-55187361D01*
X123479710Y-55213651D01*
X123455278Y-55221227D01*
X123367670Y-55249131D01*
X123292181Y-55274995D01*
X123226557Y-55300236D01*
X123168544Y-55326272D01*
X123115887Y-55354521D01*
X123066332Y-55386402D01*
X123017625Y-55423332D01*
X122967512Y-55466729D01*
X122913739Y-55518012D01*
X122854051Y-55578598D01*
X122786195Y-55649905D01*
X122729065Y-55711432D01*
X122600589Y-55857635D01*
X122484548Y-56002052D01*
X122379101Y-56147298D01*
X122282410Y-56295986D01*
X122192636Y-56450731D01*
X122107941Y-56614148D01*
X122093851Y-56643209D01*
X122070447Y-56692868D01*
X122048357Y-56741296D01*
X122029550Y-56784142D01*
X122015996Y-56817061D01*
X121987300Y-56891121D01*
X121997312Y-57017061D01*
X122001075Y-57071265D01*
X122005069Y-57154088D01*
X122007387Y-57239604D01*
X122008043Y-57324711D01*
X122007052Y-57406307D01*
X122004432Y-57481289D01*
X122000197Y-57546554D01*
X121994363Y-57599000D01*
X121976887Y-57703786D01*
X121949120Y-57830175D01*
X121914680Y-57948206D01*
X121872380Y-58061831D01*
X121821029Y-58175000D01*
X121787182Y-58240533D01*
X121709737Y-58370479D01*
X121621596Y-58493443D01*
X121521706Y-58610611D01*
X121409012Y-58723166D01*
X121282461Y-58832292D01*
X121141000Y-58939174D01*
X121062338Y-58992477D01*
X120922997Y-59076300D01*
X120770752Y-59156188D01*
X120607367Y-59231443D01*
X120434603Y-59301370D01*
X120254222Y-59365274D01*
X120067986Y-59422460D01*
X119877658Y-59472231D01*
X119685000Y-59513893D01*
X119638057Y-59522810D01*
X119584960Y-59532388D01*
X119533068Y-59541064D01*
X119480666Y-59549034D01*
X119426035Y-59556494D01*
X119367459Y-59563641D01*
X119303221Y-59570671D01*
X119231604Y-59577781D01*
X119150890Y-59585168D01*
X119059363Y-59593027D01*
X118955305Y-59601556D01*
X118837000Y-59610951D01*
X118786837Y-59614931D01*
X118655361Y-59625846D01*
X118537717Y-59636442D01*
X118432314Y-59646931D01*
X118337558Y-59657527D01*
X118251858Y-59668440D01*
X118173621Y-59679882D01*
X118101255Y-59692066D01*
X118033167Y-59705203D01*
X117967766Y-59719505D01*
X117903459Y-59735185D01*
X117886500Y-59739572D01*
X117722968Y-59787618D01*
X117572503Y-59842664D01*
X117435646Y-59904491D01*
X117312937Y-59972882D01*
X117289948Y-59987424D01*
X117237144Y-60024027D01*
X117195790Y-60058621D01*
X117163222Y-60093602D01*
X117136778Y-60131366D01*
X117136593Y-60131669D01*
X117114725Y-60162253D01*
X117094938Y-60177726D01*
X117075982Y-60178619D01*
X117056606Y-60165464D01*
X117055313Y-60164076D01*
X117045905Y-60142322D01*
X117044473Y-60110108D01*
X117050598Y-60070303D01*
X117063860Y-60025778D01*
X117083839Y-59979401D01*
X117100279Y-59948055D01*
X117132939Y-59894458D01*
X117169909Y-59845508D01*
X117213287Y-59799061D01*
X117265172Y-59752972D01*
X117327661Y-59705096D01*
X117402853Y-59653288D01*
X117429212Y-59635973D01*
X117460440Y-59615977D01*
X117491651Y-59596734D01*
X117524163Y-59577559D01*
X117559296Y-59557766D01*
X117598369Y-59536673D01*
X117642700Y-59513592D01*
X117693610Y-59487841D01*
X117752417Y-59458735D01*
X117820440Y-59425587D01*
X117898999Y-59387715D01*
X117989412Y-59344433D01*
X118093000Y-59295057D01*
X118167070Y-59259625D01*
X118241315Y-59223774D01*
X118312572Y-59189045D01*
X118378925Y-59156387D01*
X118438459Y-59126748D01*
X118489260Y-59101074D01*
X118529411Y-59080314D01*
X118557000Y-59065415D01*
X118565241Y-59060755D01*
X118681203Y-58991858D01*
X118782179Y-58924985D01*
X118868896Y-58859435D01*
X118942077Y-58794507D01*
X119002449Y-58729501D01*
X119050735Y-58663715D01*
X119087662Y-58596448D01*
X119113954Y-58527000D01*
X119114112Y-58526471D01*
X119124193Y-58476803D01*
X119128843Y-58418049D01*
X119128125Y-58356079D01*
X119122106Y-58296762D01*
X119110850Y-58245966D01*
X119090811Y-58195111D01*
X119052434Y-58133778D01*
X119001979Y-58082583D01*
X118940068Y-58042122D01*
X118867323Y-58012989D01*
X118864531Y-58012168D01*
X118803200Y-57998749D01*
X118732715Y-57990429D01*
X118658878Y-57987451D01*
X118587489Y-57990060D01*
X118524348Y-57998502D01*
X118519307Y-57999523D01*
X118409150Y-58027561D01*
X118298914Y-58066891D01*
X118186183Y-58118491D01*
X118068547Y-58183341D01*
X118025026Y-58208451D01*
X117987553Y-58227836D01*
X117959723Y-58238804D01*
X117939781Y-58241850D01*
X117925973Y-58237467D01*
X117916545Y-58226151D01*
X117916125Y-58225341D01*
X117911870Y-58205821D01*
X117915581Y-58178715D01*
X117927687Y-58142735D01*
X117948616Y-58096593D01*
X117978798Y-58039000D01*
X118023499Y-57959448D01*
X118106178Y-57822777D01*
X118172974Y-57723040D01*
X119509000Y-57723040D01*
X119510762Y-57748600D01*
X119517458Y-57764170D01*
X119529988Y-57765952D01*
X119549230Y-57754015D01*
X119576061Y-57728431D01*
X119592468Y-57711283D01*
X119620848Y-57681702D01*
X119652822Y-57648445D01*
X119684098Y-57615977D01*
X119725289Y-57576034D01*
X119799250Y-57515646D01*
X119878427Y-57463330D01*
X119960982Y-57419688D01*
X120045078Y-57385321D01*
X120128877Y-57360831D01*
X120210542Y-57346820D01*
X120288233Y-57343889D01*
X120360114Y-57352639D01*
X120424347Y-57373673D01*
X120472630Y-57401690D01*
X120523173Y-57446641D01*
X120564519Y-57501812D01*
X120595628Y-57565008D01*
X120615461Y-57634032D01*
X120622977Y-57706689D01*
X120617137Y-57780783D01*
X120614839Y-57793031D01*
X120605413Y-57830314D01*
X120591815Y-57867356D01*
X120573082Y-57905530D01*
X120548255Y-57946207D01*
X120516371Y-57990760D01*
X120476472Y-58040563D01*
X120427595Y-58096988D01*
X120368780Y-58161407D01*
X120299065Y-58235193D01*
X120255176Y-58281212D01*
X120201304Y-58338240D01*
X120156387Y-58386664D01*
X120119046Y-58428087D01*
X120087908Y-58464114D01*
X120061596Y-58496349D01*
X120038735Y-58526394D01*
X120017948Y-58555854D01*
X119997861Y-58586333D01*
X119988844Y-58600656D01*
X119960071Y-58649676D01*
X119933576Y-58699593D01*
X119910398Y-58748002D01*
X119891578Y-58792493D01*
X119878155Y-58830662D01*
X119871170Y-58860099D01*
X119871662Y-58878400D01*
X119873493Y-58882468D01*
X119880366Y-58889741D01*
X119890806Y-58890360D01*
X119906045Y-58883491D01*
X119927312Y-58868297D01*
X119955838Y-58843944D01*
X119992854Y-58809596D01*
X120039591Y-58764419D01*
X120049300Y-58754942D01*
X120098874Y-58707393D01*
X120144915Y-58665099D01*
X120189223Y-58626846D01*
X120233595Y-58591420D01*
X120279829Y-58557610D01*
X120329722Y-58524200D01*
X120385073Y-58489979D01*
X120447678Y-58453731D01*
X120519335Y-58414245D01*
X120601843Y-58370307D01*
X120697000Y-58320703D01*
X120753484Y-58291404D01*
X120855861Y-58237909D01*
X120945861Y-58190245D01*
X121024825Y-58147639D01*
X121094095Y-58109318D01*
X121155011Y-58074508D01*
X121208914Y-58042436D01*
X121257146Y-58012328D01*
X121301047Y-57983411D01*
X121341958Y-57954911D01*
X121381220Y-57926055D01*
X121404150Y-57908187D01*
X121473722Y-57847647D01*
X121545614Y-57776671D01*
X121616979Y-57698483D01*
X121684968Y-57616306D01*
X121746731Y-57533363D01*
X121799420Y-57452878D01*
X121825263Y-57407007D01*
X121858716Y-57338453D01*
X121888977Y-57266244D01*
X121914477Y-57194520D01*
X121933648Y-57127418D01*
X121944921Y-57069076D01*
X121946483Y-57056473D01*
X121947215Y-57045614D01*
X121945120Y-57046810D01*
X121939411Y-57061085D01*
X121929301Y-57089469D01*
X121917882Y-57120532D01*
X121881252Y-57203217D01*
X121837445Y-57277699D01*
X121783735Y-57348214D01*
X121717398Y-57419000D01*
X121714542Y-57421797D01*
X121627216Y-57496212D01*
X121532995Y-57556667D01*
X121433125Y-57602957D01*
X121328851Y-57634878D01*
X121221418Y-57652227D01*
X121112071Y-57654799D01*
X121002055Y-57642391D01*
X120892617Y-57614797D01*
X120785000Y-57571814D01*
X120782208Y-57570476D01*
X120681742Y-57513990D01*
X120592976Y-57446736D01*
X120515474Y-57368276D01*
X120448802Y-57278170D01*
X120392524Y-57175981D01*
X120371298Y-57127955D01*
X120345480Y-57054439D01*
X120327678Y-56978370D01*
X120316164Y-56893357D01*
X120314068Y-56866928D01*
X120314429Y-56827000D01*
X120538713Y-56827000D01*
X120542974Y-56889000D01*
X120547319Y-56924990D01*
X120556623Y-56971935D01*
X120568580Y-57015000D01*
X120583125Y-57054075D01*
X120625976Y-57138661D01*
X120680639Y-57214674D01*
X120745624Y-57280919D01*
X120819442Y-57336202D01*
X120900603Y-57379329D01*
X120987619Y-57409105D01*
X121079000Y-57424336D01*
X121141000Y-57429372D01*
X121141000Y-57339000D01*
X121110279Y-57339000D01*
X121085436Y-57337178D01*
X121041330Y-57328856D01*
X120992051Y-57315151D01*
X120942755Y-57297559D01*
X120898596Y-57277577D01*
X120831143Y-57234131D01*
X120770055Y-57177887D01*
X120717783Y-57111845D01*
X120676117Y-57038662D01*
X120667451Y-57015667D01*
X121949631Y-57015667D01*
X121950912Y-57023531D01*
X121954464Y-57020500D01*
X121955743Y-57015874D01*
X121953833Y-57005167D01*
X121951102Y-57005291D01*
X121949631Y-57015667D01*
X120667451Y-57015667D01*
X120646849Y-56960997D01*
X120631768Y-56881507D01*
X120626702Y-56827000D01*
X120538713Y-56827000D01*
X120314429Y-56827000D01*
X120315034Y-56760178D01*
X120330367Y-56653620D01*
X120359281Y-56549644D01*
X120400985Y-56450638D01*
X120454692Y-56358991D01*
X120519612Y-56277093D01*
X120533218Y-56262011D01*
X120544757Y-56248373D01*
X120548018Y-56243190D01*
X120545938Y-56244221D01*
X120533455Y-56253686D01*
X120511748Y-56271763D01*
X120482595Y-56296882D01*
X120447775Y-56327474D01*
X120409065Y-56361970D01*
X120368244Y-56398802D01*
X120327088Y-56436400D01*
X120287376Y-56473196D01*
X120279195Y-56480858D01*
X120190762Y-56566125D01*
X120105404Y-56652775D01*
X120024746Y-56738979D01*
X119950409Y-56822911D01*
X119884016Y-56902743D01*
X119827191Y-56976647D01*
X119781556Y-57042796D01*
X119775295Y-57052721D01*
X119743822Y-57106659D01*
X119711149Y-57168621D01*
X119678158Y-57236399D01*
X119645736Y-57307784D01*
X119614767Y-57380570D01*
X119586135Y-57452547D01*
X119560725Y-57521509D01*
X119539422Y-57585247D01*
X119523111Y-57641553D01*
X119512675Y-57688220D01*
X119509000Y-57723040D01*
X118172974Y-57723040D01*
X118192746Y-57693517D01*
X118285340Y-57568859D01*
X118386091Y-57445995D01*
X118497136Y-57322117D01*
X118620607Y-57194417D01*
X118648563Y-57166605D01*
X118768697Y-57051567D01*
X118884565Y-56948617D01*
X118998657Y-56856008D01*
X119113463Y-56771996D01*
X119231474Y-56694834D01*
X119355181Y-56622776D01*
X119487073Y-56554076D01*
X119629641Y-56486988D01*
X119651452Y-56477142D01*
X119687959Y-56460460D01*
X119717679Y-56446619D01*
X119738003Y-56436841D01*
X119746320Y-56432347D01*
X119747100Y-56424922D01*
X119738824Y-56407421D01*
X119721511Y-56383059D01*
X119696624Y-56354137D01*
X119693811Y-56351074D01*
X119687810Y-56343351D01*
X119917440Y-56343351D01*
X119919108Y-56358212D01*
X119927000Y-56360590D01*
X120005747Y-56328367D01*
X120135625Y-56276461D01*
X120253922Y-56230949D01*
X120277676Y-56222243D01*
X121141000Y-56222243D01*
X121141000Y-56315000D01*
X121175000Y-56315119D01*
X121202065Y-56316780D01*
X121256680Y-56326831D01*
X121315420Y-56344735D01*
X121373000Y-56369053D01*
X121417710Y-56395380D01*
X121471772Y-56437583D01*
X121522726Y-56487648D01*
X121566481Y-56541484D01*
X121598947Y-56595000D01*
X121613407Y-56627119D01*
X121634273Y-56686004D01*
X121647912Y-56743060D01*
X121652881Y-56793000D01*
X121653000Y-56827000D01*
X121743286Y-56827000D01*
X121738849Y-56765000D01*
X121737402Y-56748493D01*
X121720230Y-56659123D01*
X121687968Y-56572914D01*
X121641344Y-56491474D01*
X121581086Y-56416411D01*
X121530611Y-56368087D01*
X121456745Y-56313319D01*
X121377963Y-56271212D01*
X121297000Y-56243429D01*
X121271567Y-56238152D01*
X121235175Y-56232299D01*
X121199000Y-56227890D01*
X121141000Y-56222243D01*
X120277676Y-56222243D01*
X120362323Y-56191220D01*
X120462513Y-56156666D01*
X120556177Y-56126676D01*
X120645000Y-56100640D01*
X120707425Y-56083238D01*
X120781916Y-56062588D01*
X120844061Y-56045639D01*
X120895637Y-56032030D01*
X120938421Y-56021402D01*
X120974189Y-56013396D01*
X121004720Y-56007651D01*
X121031789Y-56003808D01*
X121057175Y-56001507D01*
X121082654Y-56000389D01*
X121110003Y-56000095D01*
X121141000Y-56000263D01*
X121187569Y-56001318D01*
X121253137Y-56006152D01*
X121312642Y-56015797D01*
X121372024Y-56031326D01*
X121437220Y-56053813D01*
X121508790Y-56084227D01*
X121582505Y-56125316D01*
X121651876Y-56175940D01*
X121721355Y-56239000D01*
X121724405Y-56242030D01*
X121800679Y-56327836D01*
X121862212Y-56418778D01*
X121909796Y-56516213D01*
X121944220Y-56621497D01*
X121954857Y-56663000D01*
X122014983Y-56543000D01*
X122018926Y-56535148D01*
X122095789Y-56389053D01*
X122175550Y-56251165D01*
X122260067Y-56118840D01*
X122351197Y-55989432D01*
X122450799Y-55860297D01*
X122560732Y-55728790D01*
X122682852Y-55592265D01*
X122738505Y-55532486D01*
X122807513Y-55461050D01*
X122870622Y-55399898D01*
X122930015Y-55347616D01*
X122987875Y-55302788D01*
X123046384Y-55263999D01*
X123107726Y-55229834D01*
X123174082Y-55198878D01*
X123247636Y-55169717D01*
X123330571Y-55140936D01*
X123425068Y-55111118D01*
X123495118Y-55089446D01*
X123592215Y-55058025D01*
X123676794Y-55028580D01*
X123750756Y-55000276D01*
X123816002Y-54972279D01*
X123874435Y-54943755D01*
X123927957Y-54913869D01*
X123978469Y-54881788D01*
X124027874Y-54846676D01*
X124045829Y-54833055D01*
X124096481Y-54790935D01*
X124134323Y-54752173D01*
X124160900Y-54714710D01*
X124177756Y-54676490D01*
X124186437Y-54635453D01*
X124187810Y-54613243D01*
X124182086Y-54561071D01*
X124165253Y-54511428D01*
X124138979Y-54468402D01*
X124104938Y-54436082D01*
X124088982Y-54426522D01*
X124062065Y-54415224D01*
X124028027Y-54406115D01*
X123984649Y-54398754D01*
X123929712Y-54392699D01*
X123861000Y-54387509D01*
X123838882Y-54386340D01*
X123798487Y-54384859D01*
X123748603Y-54383546D01*
X123691353Y-54382412D01*
X123628862Y-54381470D01*
X123563252Y-54380731D01*
X123496649Y-54380209D01*
X123431176Y-54379914D01*
X123368956Y-54379860D01*
X123312114Y-54380058D01*
X123262774Y-54380521D01*
X123223058Y-54381260D01*
X123195092Y-54382288D01*
X123181000Y-54383618D01*
X123176523Y-54384285D01*
X123157470Y-54386186D01*
X123127150Y-54388712D01*
X123088635Y-54391616D01*
X123045000Y-54394648D01*
X122943566Y-54404458D01*
X122828240Y-54424441D01*
X122716827Y-54454419D01*
X122605148Y-54495552D01*
X122489022Y-54548999D01*
X122482982Y-54552016D01*
X122432297Y-54576764D01*
X122376921Y-54602999D01*
X122323152Y-54627771D01*
X122277291Y-54648130D01*
X122246460Y-54661578D01*
X122196098Y-54684810D01*
X122157956Y-54705124D01*
X122130163Y-54724212D01*
X122110850Y-54743767D01*
X122098149Y-54765481D01*
X122090190Y-54791047D01*
X122085104Y-54822158D01*
X122083524Y-54833880D01*
X122076766Y-54868579D01*
X122066428Y-54899613D01*
X122051168Y-54928328D01*
X122029642Y-54956075D01*
X122000506Y-54984202D01*
X121962417Y-55014057D01*
X121914032Y-55046990D01*
X121854007Y-55084350D01*
X121781000Y-55127485D01*
X121665814Y-55194367D01*
X121558736Y-55256367D01*
X121464082Y-55310963D01*
X121381166Y-55358537D01*
X121309304Y-55399474D01*
X121247811Y-55434156D01*
X121196004Y-55462968D01*
X121153197Y-55486293D01*
X121118707Y-55504513D01*
X121091848Y-55518014D01*
X121071936Y-55527178D01*
X121058287Y-55532388D01*
X121052031Y-55534281D01*
X120991130Y-55545581D01*
X120929779Y-55543189D01*
X120864242Y-55527000D01*
X120834231Y-55517381D01*
X120803673Y-55509870D01*
X120779516Y-55508255D01*
X120756995Y-55512357D01*
X120731342Y-55521997D01*
X120728005Y-55523464D01*
X120692101Y-55542414D01*
X120646328Y-55571039D01*
X120592267Y-55608156D01*
X120531500Y-55652583D01*
X120465608Y-55703135D01*
X120396173Y-55758632D01*
X120324776Y-55817890D01*
X120253000Y-55879726D01*
X120248509Y-55883675D01*
X120168533Y-55956772D01*
X120101528Y-56023957D01*
X120046340Y-56086643D01*
X120001813Y-56146241D01*
X119966789Y-56204164D01*
X119940113Y-56261824D01*
X119931646Y-56284709D01*
X119921714Y-56318139D01*
X119917440Y-56343351D01*
X119687810Y-56343351D01*
X119658729Y-56305924D01*
X119635519Y-56258663D01*
X119620979Y-56202886D01*
X119620395Y-56199592D01*
X119615638Y-56144231D01*
X119622040Y-56091073D01*
X119640295Y-56034051D01*
X119658291Y-55989102D01*
X119590745Y-55876344D01*
X119523199Y-55763585D01*
X119602099Y-55666699D01*
X119617038Y-55648345D01*
X119643617Y-55615630D01*
X119666112Y-55587868D01*
X119682514Y-55567542D01*
X119690813Y-55557134D01*
X119692228Y-55555489D01*
X119697949Y-55551944D01*
X119707519Y-55550989D01*
X119723235Y-55553017D01*
X119747396Y-55558418D01*
X119782299Y-55567585D01*
X119830244Y-55580910D01*
X119959862Y-55617366D01*
X120014807Y-55571116D01*
X120023526Y-55563936D01*
X120059489Y-55536300D01*
X120099978Y-55507427D01*
X120137781Y-55482514D01*
X120157159Y-55470333D01*
X120182882Y-55453737D01*
X120201077Y-55441452D01*
X120208689Y-55435502D01*
X120208791Y-55435230D01*
X120208078Y-55424628D01*
X120204637Y-55401832D01*
X120198986Y-55369985D01*
X120191645Y-55332228D01*
X120190760Y-55327832D01*
X120183574Y-55290851D01*
X120178560Y-55262945D01*
X120921492Y-55262945D01*
X120927116Y-55295187D01*
X120947153Y-55324847D01*
X120948643Y-55326339D01*
X120957918Y-55335389D01*
X120966846Y-55342561D01*
X120976521Y-55347384D01*
X120988036Y-55349390D01*
X121002486Y-55348109D01*
X121020963Y-55343073D01*
X121044562Y-55333811D01*
X121074375Y-55319856D01*
X121111496Y-55300738D01*
X121157019Y-55275988D01*
X121212038Y-55245136D01*
X121277645Y-55207714D01*
X121354934Y-55163253D01*
X121445000Y-55111284D01*
X121514029Y-55071384D01*
X121585111Y-55030170D01*
X121651120Y-54991766D01*
X121710800Y-54956910D01*
X121762893Y-54926339D01*
X121806144Y-54900792D01*
X121839295Y-54881005D01*
X121861089Y-54867718D01*
X121870268Y-54861667D01*
X121881767Y-54847581D01*
X121893044Y-54826893D01*
X121894825Y-54821868D01*
X121896842Y-54791850D01*
X121887759Y-54760749D01*
X121869319Y-54735290D01*
X121858130Y-54727825D01*
X121830057Y-54719169D01*
X121799112Y-54718041D01*
X121773000Y-54725245D01*
X121762396Y-54731111D01*
X121721828Y-54753858D01*
X121672976Y-54781619D01*
X121617316Y-54813526D01*
X121556324Y-54848713D01*
X121491477Y-54886312D01*
X121424250Y-54925456D01*
X121356121Y-54965277D01*
X121288564Y-55004910D01*
X121223058Y-55043485D01*
X121161077Y-55080137D01*
X121104099Y-55113998D01*
X121053599Y-55144201D01*
X121011053Y-55169878D01*
X120977939Y-55190164D01*
X120955732Y-55204189D01*
X120945909Y-55211087D01*
X120930320Y-55231533D01*
X120921492Y-55262945D01*
X120178560Y-55262945D01*
X120178097Y-55260366D01*
X120174851Y-55239431D01*
X120174360Y-55231101D01*
X120175294Y-55230433D01*
X120186445Y-55223206D01*
X120208493Y-55209194D01*
X120239407Y-55189678D01*
X120277157Y-55165943D01*
X120319713Y-55139269D01*
X120462427Y-55049948D01*
X120503713Y-55082583D01*
X120522122Y-55097111D01*
X120555678Y-55123520D01*
X120586219Y-55147480D01*
X120627438Y-55179741D01*
X120798219Y-55080710D01*
X120829623Y-55062539D01*
X120992230Y-54969569D01*
X121164278Y-54872905D01*
X121341473Y-54774907D01*
X121519521Y-54677934D01*
X121694128Y-54584348D01*
X121861000Y-54496508D01*
X121901567Y-54475231D01*
X121940406Y-54454569D01*
X121972629Y-54437123D01*
X121995701Y-54424265D01*
X122007088Y-54417369D01*
X122008829Y-54416040D01*
X122013613Y-54410884D01*
X122016290Y-54402975D01*
X122016817Y-54389696D01*
X122015154Y-54368432D01*
X122011258Y-54336568D01*
X122005088Y-54291488D01*
X122002670Y-54274052D01*
X121997280Y-54234616D01*
X121992943Y-54202061D01*
X121990051Y-54179375D01*
X121989000Y-54169545D01*
X121989208Y-54169070D01*
X121998076Y-54162647D01*
X122017799Y-54151124D01*
X122045335Y-54136064D01*
X122077640Y-54119032D01*
X122111670Y-54101590D01*
X122144382Y-54085303D01*
X122172733Y-54071733D01*
X122193678Y-54062444D01*
X122204175Y-54059000D01*
X122207245Y-54060402D01*
X122221169Y-54070041D01*
X122243772Y-54087320D01*
X122272756Y-54110461D01*
X122305820Y-54137684D01*
X122400061Y-54216368D01*
X122508530Y-54161243D01*
X122524468Y-54153214D01*
X122577293Y-54128166D01*
X122623767Y-54109616D01*
X122668357Y-54096422D01*
X122715527Y-54087440D01*
X122769746Y-54081526D01*
X122835480Y-54077536D01*
X122941960Y-54072564D01*
X123054134Y-53883000D01*
X123313532Y-53883000D01*
X123361000Y-53979000D01*
X123408467Y-54075000D01*
X123721532Y-54075000D01*
X123816664Y-53882604D01*
X123936391Y-53884802D01*
G37*
D12*
%TO.C,U1*%
X116681000Y-81113000D02*
X116681000Y-83063000D01*
X116681000Y-81113000D02*
X116681000Y-79163000D01*
X121801000Y-81113000D02*
X121801000Y-84563000D01*
X121801000Y-81113000D02*
X121801000Y-79163000D01*
%TD*%
M02*
