%TF.GenerationSoftware,KiCad,Pcbnew,7.0.9*%
%TF.CreationDate,2024-04-13T12:05:23+02:00*%
%TF.ProjectId,MotorDriverCarrier-rounded,4d6f746f-7244-4726-9976-657243617272,rev?*%
%TF.SameCoordinates,Original*%
%TF.FileFunction,Profile,NP*%
%FSLAX46Y46*%
G04 Gerber Fmt 4.6, Leading zero omitted, Abs format (unit mm)*
G04 Created by KiCad (PCBNEW 7.0.9) date 2024-04-13 12:05:23*
%MOMM*%
%LPD*%
G01*
G04 APERTURE LIST*
%TA.AperFunction,Profile*%
%ADD10C,0.250000*%
%TD*%
%TA.AperFunction,Profile*%
%ADD11C,0.100000*%
%TD*%
G04 APERTURE END LIST*
D10*
X140700000Y-103200000D02*
G75*
G03*
X140950000Y-102266987I0J500000D01*
G01*
X140950014Y-62733037D02*
G75*
G03*
X140700000Y-63166025I249886J-432963D01*
G01*
D11*
X115550000Y-101200000D02*
X115440000Y-98137000D01*
D10*
X141205500Y-68060000D02*
G75*
G03*
X140705500Y-67560000I-500000J0D01*
G01*
X113550000Y-103200000D02*
X110550000Y-103200000D01*
X140705500Y-85000000D02*
G75*
G03*
X141205500Y-84500000I0J500000D01*
G01*
X140699986Y-101833975D02*
G75*
G03*
X140950000Y-102266987I500114J75D01*
G01*
X122550014Y-63166025D02*
G75*
G03*
X122300000Y-62733013I-500114J-75D01*
G01*
X140700000Y-80200000D02*
X140700000Y-72280000D01*
X145200000Y-53800000D02*
G75*
G03*
X143200000Y-51800000I-2000000J0D01*
G01*
X141205500Y-80700000D02*
G75*
G03*
X140705500Y-80200000I-500000J0D01*
G01*
X122550000Y-103200000D02*
X127533047Y-103200000D01*
X141205500Y-68060000D02*
X141205500Y-71780000D01*
X115550000Y-60800000D02*
G75*
G03*
X113550000Y-58800000I-2000000J0D01*
G01*
X140700000Y-67560000D02*
X140705500Y-67560000D01*
X122550000Y-61800000D02*
G75*
G03*
X122300000Y-62733013I0J-500000D01*
G01*
X122550000Y-61800000D02*
X140700000Y-61800000D01*
X134945044Y-102851812D02*
X134578000Y-101700000D01*
X140705500Y-80200000D02*
X140700000Y-80200000D01*
X122550000Y-101833975D02*
X122550000Y-63166025D01*
X122299986Y-102266963D02*
G75*
G03*
X122550000Y-101833975I-249886J432963D01*
G01*
X110550000Y-51800000D02*
G75*
G03*
X108550000Y-53800000I0J-2000000D01*
G01*
X122300000Y-102266987D02*
G75*
G03*
X122550000Y-103200000I250000J-433013D01*
G01*
X140950000Y-62733013D02*
G75*
G03*
X140700000Y-61800000I-250000J433013D01*
G01*
X143200000Y-51800000D02*
X110550000Y-51800000D01*
X108550000Y-108200000D02*
X108550000Y-105200000D01*
X113550000Y-58800000D02*
X110550000Y-58800000D01*
X140700000Y-85000000D02*
X140705500Y-85000000D01*
X134945074Y-102851802D02*
G75*
G03*
X135421440Y-103200000I476326J151702D01*
G01*
X140705500Y-72280000D02*
G75*
G03*
X141205500Y-71780000I0J500000D01*
G01*
X143200000Y-110200000D02*
G75*
G03*
X145200000Y-108200000I0J2000000D01*
G01*
X129209953Y-103200000D02*
X133734560Y-103200000D01*
X140700000Y-101833975D02*
X140700000Y-85000000D01*
X134578000Y-101700000D02*
X134210956Y-102851812D01*
X108550000Y-108200000D02*
G75*
G03*
X110550000Y-110200000I2000000J0D01*
G01*
X113550000Y-103200000D02*
G75*
G03*
X115550000Y-101200000I0J2000000D01*
G01*
X143200000Y-110200000D02*
X110550000Y-110200000D01*
X145200000Y-53800000D02*
X145200000Y-108200000D01*
X140700000Y-67560000D02*
X140700000Y-63166025D01*
X128732963Y-102849934D02*
X128371500Y-101700000D01*
X128371500Y-101700000D02*
X128010037Y-102849934D01*
X128732939Y-102849942D02*
G75*
G03*
X129209953Y-103200000I477061J150042D01*
G01*
X135421440Y-103200000D02*
X140700000Y-103200000D01*
X140705500Y-72280000D02*
X140700000Y-72280000D01*
X127533047Y-103200019D02*
G75*
G03*
X128010037Y-102849934I53J499919D01*
G01*
X108550000Y-53800000D02*
X108550000Y-56800000D01*
X110550000Y-103200000D02*
G75*
G03*
X108550000Y-105200000I0J-2000000D01*
G01*
D11*
X115440000Y-63837000D02*
X115550000Y-60800000D01*
D10*
X108550000Y-56800000D02*
G75*
G03*
X110550000Y-58800000I2000000J0D01*
G01*
X133734560Y-103199987D02*
G75*
G03*
X134210955Y-102851812I-60J500087D01*
G01*
X141205500Y-84500000D02*
X141205500Y-80700000D01*
D11*
%TO.C,J15*%
X115440000Y-63837000D02*
X107540000Y-63837000D01*
X107540000Y-63837000D02*
X107040000Y-64337000D01*
X107040000Y-64337000D02*
X107040000Y-74537000D01*
X114490000Y-75037000D02*
X107540000Y-75037000D01*
X107540000Y-75037000D02*
X107040000Y-74537000D01*
X114490000Y-76937000D02*
X107540000Y-76937000D01*
X107540000Y-76937000D02*
X107040000Y-77437000D01*
X107040000Y-77437000D02*
X107040000Y-97637000D01*
X115440000Y-98137000D02*
X107540000Y-98137000D01*
X107540000Y-98137000D02*
X107040000Y-97637000D01*
X114490000Y-76937000D02*
G75*
G03*
X114490000Y-75037000I0J950000D01*
G01*
%TD*%
M02*
