%TF.GenerationSoftware,KiCad,Pcbnew,7.0.9*%
%TF.CreationDate,2024-04-13T12:05:23+02:00*%
%TF.ProjectId,MotorDriverCarrier-rounded,4d6f746f-7244-4726-9976-657243617272,rev?*%
%TF.SameCoordinates,Original*%
%TF.FileFunction,Copper,L4,Bot*%
%TF.FilePolarity,Positive*%
%FSLAX46Y46*%
G04 Gerber Fmt 4.6, Leading zero omitted, Abs format (unit mm)*
G04 Created by KiCad (PCBNEW 7.0.9) date 2024-04-13 12:05:23*
%MOMM*%
%LPD*%
G01*
G04 APERTURE LIST*
G04 Aperture macros list*
%AMRoundRect*
0 Rectangle with rounded corners*
0 $1 Rounding radius*
0 $2 $3 $4 $5 $6 $7 $8 $9 X,Y pos of 4 corners*
0 Add a 4 corners polygon primitive as box body*
4,1,4,$2,$3,$4,$5,$6,$7,$8,$9,$2,$3,0*
0 Add four circle primitives for the rounded corners*
1,1,$1+$1,$2,$3*
1,1,$1+$1,$4,$5*
1,1,$1+$1,$6,$7*
1,1,$1+$1,$8,$9*
0 Add four rect primitives between the rounded corners*
20,1,$1+$1,$2,$3,$4,$5,0*
20,1,$1+$1,$4,$5,$6,$7,0*
20,1,$1+$1,$6,$7,$8,$9,0*
20,1,$1+$1,$8,$9,$2,$3,0*%
%AMOutline5P*
0 Free polygon, 5 corners , with rotation*
0 The origin of the aperture is its center*
0 number of corners: always 5*
0 $1 to $10 corner X, Y*
0 $11 Rotation angle, in degrees counterclockwise*
0 create outline with 5 corners*
4,1,5,$1,$2,$3,$4,$5,$6,$7,$8,$9,$10,$1,$2,$11*%
%AMOutline6P*
0 Free polygon, 6 corners , with rotation*
0 The origin of the aperture is its center*
0 number of corners: always 6*
0 $1 to $12 corner X, Y*
0 $13 Rotation angle, in degrees counterclockwise*
0 create outline with 6 corners*
4,1,6,$1,$2,$3,$4,$5,$6,$7,$8,$9,$10,$11,$12,$1,$2,$13*%
%AMOutline7P*
0 Free polygon, 7 corners , with rotation*
0 The origin of the aperture is its center*
0 number of corners: always 7*
0 $1 to $14 corner X, Y*
0 $15 Rotation angle, in degrees counterclockwise*
0 create outline with 7 corners*
4,1,7,$1,$2,$3,$4,$5,$6,$7,$8,$9,$10,$11,$12,$13,$14,$1,$2,$15*%
%AMOutline8P*
0 Free polygon, 8 corners , with rotation*
0 The origin of the aperture is its center*
0 number of corners: always 8*
0 $1 to $16 corner X, Y*
0 $17 Rotation angle, in degrees counterclockwise*
0 create outline with 8 corners*
4,1,8,$1,$2,$3,$4,$5,$6,$7,$8,$9,$10,$11,$12,$13,$14,$15,$16,$1,$2,$17*%
G04 Aperture macros list end*
%TA.AperFunction,ComponentPad*%
%ADD10O,1.350000X1.350000*%
%TD*%
%TA.AperFunction,ComponentPad*%
%ADD11R,1.350000X1.350000*%
%TD*%
%TA.AperFunction,ComponentPad*%
%ADD12Outline6P,-0.500000X1.200000X-0.200000X1.500000X0.200000X1.500000X0.500000X1.200000X0.500000X-1.500000X-0.500000X-1.500000X0.000000*%
%TD*%
%TA.AperFunction,ComponentPad*%
%ADD13C,1.000000*%
%TD*%
%TA.AperFunction,SMDPad,CuDef*%
%ADD14Outline6P,-0.350000X0.290000X-0.140000X0.500000X0.140000X0.500000X0.350000X0.290000X0.350000X-0.500000X-0.350000X-0.500000X270.000000*%
%TD*%
%TA.AperFunction,ConnectorPad*%
%ADD15R,3.200000X0.700000*%
%TD*%
%TA.AperFunction,ConnectorPad*%
%ADD16R,4.300000X0.700000*%
%TD*%
%TA.AperFunction,ComponentPad*%
%ADD17RoundRect,0.625000X1.875000X0.625000X-1.875000X0.625000X-1.875000X-0.625000X1.875000X-0.625000X0*%
%TD*%
%TA.AperFunction,ComponentPad*%
%ADD18Outline6P,-0.500000X1.200000X-0.200000X1.500000X0.200000X1.500000X0.500000X1.200000X0.500000X-1.500000X-0.500000X-1.500000X90.000000*%
%TD*%
%TA.AperFunction,ComponentPad*%
%ADD19RoundRect,0.750000X0.750000X0.750000X-0.750000X0.750000X-0.750000X-0.750000X0.750000X-0.750000X0*%
%TD*%
%TA.AperFunction,SMDPad,CuDef*%
%ADD20RoundRect,0.150000X0.150000X-0.825000X0.150000X0.825000X-0.150000X0.825000X-0.150000X-0.825000X0*%
%TD*%
%TA.AperFunction,ViaPad*%
%ADD21C,0.800000*%
%TD*%
%TA.AperFunction,ViaPad*%
%ADD22C,0.450000*%
%TD*%
%TA.AperFunction,Conductor*%
%ADD23C,0.250000*%
%TD*%
%TA.AperFunction,Conductor*%
%ADD24C,0.254000*%
%TD*%
%TA.AperFunction,Conductor*%
%ADD25C,0.508000*%
%TD*%
%TA.AperFunction,Conductor*%
%ADD26C,0.200000*%
%TD*%
G04 APERTURE END LIST*
D10*
%TO.P,J2,5,Pin_5*%
%TO.N,A*%
X121158000Y-86075000D03*
%TO.P,J2,4,Pin_4*%
%TO.N,B*%
X121158000Y-88075000D03*
%TO.P,J2,3,Pin_3*%
%TO.N,Z*%
X121158000Y-90075000D03*
%TO.P,J2,2,Pin_2*%
%TO.N,+5V*%
X121158000Y-92075000D03*
D11*
%TO.P,J2,1,Pin_1*%
%TO.N,UART_GND*%
X121158000Y-94075000D03*
%TD*%
D12*
%TO.P,J13,1,Pin_1*%
%TO.N,UART_GND*%
X128004000Y-60093566D03*
%TO.P,J13,2,Pin_2*%
%TO.N,OK*%
X129879000Y-60093566D03*
%TO.P,J13,3,Pin_3*%
%TO.N,UART_RX*%
X131754000Y-60093566D03*
%TO.P,J13,4,Pin_4*%
%TO.N,UART_TX*%
X133629000Y-60093566D03*
%TO.P,J13,5,Pin_5*%
%TO.N,UART_VCC*%
X135504000Y-60093566D03*
%TD*%
D13*
%TO.P,J1,1,Pin_1*%
%TO.N,UART_GND*%
X142980000Y-66670683D03*
%TO.P,J1,2,Pin_2*%
%TO.N,+3.3V*%
X142980000Y-68170683D03*
%TO.P,J1,3,Pin_3*%
%TO.N,SWCLK*%
X142980000Y-69670683D03*
%TO.P,J1,4,Pin_4*%
%TO.N,SWDIO*%
X142980000Y-71170683D03*
%TO.P,J1,5,Pin_5*%
%TO.N,NRST*%
X142980000Y-82347317D03*
D14*
X141980000Y-82345683D03*
%TD*%
D15*
%TO.P,J15,A1,PGND*%
%TO.N,GNDPWR*%
X111040000Y-64487000D03*
D16*
%TO.P,J15,A2,PGND*%
X110490000Y-65487000D03*
%TO.P,J15,A3,PGND*%
X110490000Y-66487000D03*
%TO.P,J15,A4,VCC*%
%TO.N,+24V*%
X110490000Y-67487000D03*
%TO.P,J15,A5,VCC*%
X110490000Y-68487000D03*
%TO.P,J15,A6,VCC*%
X110490000Y-69487000D03*
%TO.P,J15,A7,A7*%
%TO.N,unconnected-(J15-PadA7)*%
X110490000Y-70487000D03*
%TO.P,J15,A8,UART_RX*%
%TO.N,UART_RX*%
X110490000Y-71487000D03*
%TO.P,J15,A9,NRST*%
%TO.N,NRST*%
X110490000Y-72487000D03*
%TO.P,J15,A10,SWDIO*%
%TO.N,SWDIO*%
X110490000Y-73487000D03*
%TO.P,J15,A11,HALL_A*%
%TO.N,HALL_A*%
X110490000Y-74487000D03*
%TO.P,J15,A12,+5V*%
%TO.N,+5V*%
X110490000Y-77487000D03*
%TO.P,J15,A13,CAN_H*%
%TO.N,CAN_H*%
X110490000Y-78487000D03*
%TO.P,J15,A14,CAN_H*%
X110490000Y-79487000D03*
%TO.P,J15,A15,ENC_B+*%
%TO.N,B+*%
X110490000Y-80487000D03*
%TO.P,J15,A16,ENC_B-*%
%TO.N,B-*%
X110490000Y-81487000D03*
%TO.P,J15,A17,A17*%
%TO.N,unconnected-(J15-PadA17)*%
X110490000Y-82487000D03*
%TO.P,J15,A18,PHASE_C*%
%TO.N,MOTOR_C*%
X110490000Y-83487000D03*
%TO.P,J15,A19,PHASE_C*%
X110490000Y-84487000D03*
%TO.P,J15,A20,PHASE_C*%
X110490000Y-85487000D03*
%TO.P,J15,A21,PHASE_C*%
X110490000Y-86487000D03*
%TO.P,J15,A22,PHASE_C*%
X110490000Y-87487000D03*
%TO.P,J15,A23,PHASE_B*%
%TO.N,MOTOR_B*%
X110490000Y-88487000D03*
%TO.P,J15,A24,PHASE_B*%
X110490000Y-89487000D03*
%TO.P,J15,A25,PHASE_B*%
X110490000Y-90487000D03*
%TO.P,J15,A26,PHASE_B*%
X110490000Y-91487000D03*
%TO.P,J15,A27,PHASE_B*%
X110490000Y-92487000D03*
%TO.P,J15,A28,PHASE_A*%
%TO.N,MOTOR_A*%
X110490000Y-93487000D03*
%TO.P,J15,A29,PHASE_A*%
X110490000Y-94487000D03*
%TO.P,J15,A30,PHASE_A*%
X110490000Y-95487000D03*
%TO.P,J15,A31,PHASE_A*%
X110490000Y-96487000D03*
%TO.P,J15,A32,PHASE_A*%
X110490000Y-97487000D03*
%TD*%
D17*
%TO.P,J10,1,Pin_1*%
%TO.N,MOTOR_A*%
X137312000Y-104690566D03*
%TO.P,J10,2,Pin_2*%
%TO.N,MOTOR_B*%
X131312000Y-104690566D03*
%TO.P,J10,3,Pin_3*%
%TO.N,MOTOR_C*%
X125312000Y-104690566D03*
%TD*%
D18*
%TO.P,J14,1,Pin_1*%
%TO.N,UART_GND*%
X120892000Y-75973000D03*
%TO.P,J14,2,Pin_2*%
%TO.N,CAN_L*%
X120892000Y-74098000D03*
%TO.P,J14,3,Pin_3*%
%TO.N,CAN_H*%
X120892000Y-72223000D03*
%TO.P,J14,4,Pin_4*%
%TO.N,+5V*%
X120892000Y-70348000D03*
%TD*%
D19*
%TO.P,J11,1,Pin_1*%
%TO.N,GNDPWR*%
X139067000Y-60015000D03*
%TO.P,J11,2,Pin_2*%
%TO.N,+24V*%
X124067000Y-60015000D03*
%TD*%
D20*
%TO.P,U1,1,VCC*%
%TO.N,+5V*%
X121146000Y-83588000D03*
%TO.P,U1,2,OUT*%
%TO.N,A*%
X119876000Y-83588000D03*
%TO.P,U1,3,OUT*%
%TO.N,B*%
X118606000Y-83588000D03*
%TO.P,U1,4,GND*%
%TO.N,UART_GND*%
X117336000Y-83588000D03*
%TO.P,U1,5,IN-*%
%TO.N,B-*%
X117336000Y-78638000D03*
%TO.P,U1,6,IN+*%
%TO.N,B+*%
X118606000Y-78638000D03*
%TO.P,U1,7,IN-*%
%TO.N,A-*%
X119876000Y-78638000D03*
%TO.P,U1,8,IN+*%
%TO.N,A+*%
X121146000Y-78638000D03*
%TD*%
D21*
%TO.N,+24V*%
X116967000Y-66040000D03*
X115697000Y-67691000D03*
X113792000Y-68707000D03*
D22*
X143129000Y-57150000D03*
D21*
X114300000Y-67691000D03*
X114935000Y-68834000D03*
X116967000Y-67564000D03*
%TO.N,GNDPWR*%
X128016000Y-54483000D03*
X116586000Y-63627000D03*
X114808000Y-65024000D03*
X133223000Y-56642000D03*
X113665000Y-64770000D03*
X135382000Y-56642000D03*
X113919000Y-66167000D03*
X134366000Y-56134000D03*
X136525000Y-56134000D03*
X132200516Y-56140484D03*
X137541000Y-56642000D03*
X141605000Y-54483000D03*
X116459000Y-61341000D03*
X116586000Y-62484000D03*
%TO.N,+5V*%
X120777000Y-81026000D03*
X130683000Y-57658000D03*
X141605000Y-77597000D03*
X141605000Y-64135000D03*
D22*
%TO.N,CAN_L*%
X113538000Y-78315500D03*
X114554000Y-78994000D03*
%TO.N,CAN_H*%
X115698166Y-78115656D03*
D21*
%TO.N,MOTOR_A*%
X114935000Y-97155000D03*
X114935000Y-94742000D03*
X134493000Y-106807000D03*
X114935000Y-95885000D03*
X136779000Y-107061000D03*
X113919000Y-94107000D03*
X113919000Y-95250000D03*
X137922000Y-107061000D03*
X135636000Y-107061000D03*
X113919000Y-96393000D03*
%TO.N,MOTOR_B*%
X113919000Y-92075000D03*
X114935000Y-91440000D03*
X113792000Y-89408000D03*
X113919000Y-90805000D03*
X131699000Y-106807000D03*
X114935000Y-88773000D03*
X130556000Y-106807000D03*
X128143000Y-106807000D03*
X129286000Y-106807000D03*
X114935000Y-89916000D03*
%TO.N,MOTOR_C*%
X120396000Y-102362000D03*
X113919000Y-86868000D03*
X113919000Y-85725000D03*
X115189000Y-86106000D03*
X120142000Y-101092000D03*
X113919000Y-84328000D03*
X115189000Y-84709000D03*
X115062000Y-83566000D03*
X121920000Y-104140000D03*
X121158000Y-103251000D03*
D22*
%TO.N,A-*%
X119380000Y-77486500D03*
%TO.N,A+*%
X120142000Y-77216000D03*
%TO.N,UART_GND*%
X115697000Y-73152000D03*
X114808000Y-57658000D03*
X113919000Y-82169000D03*
X143931000Y-91720000D03*
D21*
X116205000Y-52705000D03*
X117348000Y-81915000D03*
X116332000Y-108585000D03*
D22*
X118935500Y-86550500D03*
X143002000Y-72771000D03*
D21*
X121412000Y-65786000D03*
X143256000Y-108712000D03*
X142875000Y-55499000D03*
D22*
X124714000Y-54864000D03*
X118631604Y-68974604D03*
D21*
X120650000Y-68834000D03*
D22*
%TO.N,UART_TX*%
X115020167Y-70372444D03*
%TO.N,UART_RX*%
X114101944Y-70921944D03*
%TO.N,SWCLK*%
X115958556Y-71635556D03*
%TO.N,SWDIO*%
X114510500Y-72486500D03*
%TO.N,NRST*%
X113411000Y-72390000D03*
%TO.N,HALL_A*%
X116140000Y-74487000D03*
D21*
X119286060Y-81353878D03*
%TO.N,OK*%
X143002000Y-93980000D03*
%TD*%
D23*
%TO.N,NRST*%
X113245410Y-72487004D02*
G75*
G03*
X113362500Y-72438500I-10J165604D01*
G01*
D24*
X142979183Y-82346500D02*
G75*
G03*
X142977210Y-82345683I-1983J-2000D01*
G01*
D23*
%TO.N,SWDIO*%
X112946509Y-73487002D02*
G75*
G03*
X113908448Y-73088551I-9J1360402D01*
G01*
%TO.N,UART_RX*%
X113137333Y-71487026D02*
G75*
G03*
X113819416Y-71204472I-33J964626D01*
G01*
D25*
%TO.N,UART_GND*%
X117342004Y-83582004D02*
G75*
G03*
X117336000Y-83596485I14496J-14496D01*
G01*
X121157994Y-93900500D02*
G75*
G03*
X121034609Y-93602609I-421294J0D01*
G01*
X117335998Y-84387509D02*
G75*
G03*
X117734449Y-85349447I1360402J9D01*
G01*
X118998999Y-86658901D02*
G75*
G03*
X118967250Y-86582250I-108399J1D01*
G01*
X117341996Y-83581996D02*
G75*
G03*
X117348000Y-83567514I-14496J14496D01*
G01*
X118998998Y-91003509D02*
G75*
G03*
X119397449Y-91965447I1360402J9D01*
G01*
D26*
%TO.N,A+*%
X121145991Y-78429000D02*
G75*
G03*
X120998214Y-78072214I-504591J0D01*
G01*
%TO.N,A-*%
X119876019Y-77871452D02*
G75*
G03*
X119763250Y-77599250I-385019J-48D01*
G01*
X119746156Y-77582116D02*
G75*
G03*
X119515250Y-77486500I-230856J-230884D01*
G01*
%TO.N,B+*%
X118456009Y-77512990D02*
G75*
G03*
X118093866Y-77363000I-362109J-362110D01*
G01*
X116865722Y-77492722D02*
G75*
G03*
X116736000Y-77805905I313178J-313178D01*
G01*
X118605986Y-77875133D02*
G75*
G03*
X118455999Y-77513000I-512086J33D01*
G01*
X117178905Y-77363003D02*
G75*
G03*
X116865725Y-77492725I-5J-442897D01*
G01*
X116364826Y-79043507D02*
G75*
G03*
X116736000Y-78147381I-896126J896107D01*
G01*
X114357823Y-80487011D02*
G75*
G03*
X115319761Y-80088550I-23J1360411D01*
G01*
%TO.N,B-*%
X114511509Y-80899002D02*
G75*
G03*
X115473448Y-80500551I-9J1360402D01*
G01*
X112407221Y-81487008D02*
G75*
G03*
X113116999Y-81192999I-21J1003808D01*
G01*
X113826778Y-80898992D02*
G75*
G03*
X113117001Y-81193001I22J-1003808D01*
G01*
D25*
%TO.N,B*%
X121157979Y-87873324D02*
G75*
G03*
X121015392Y-87529042I-486879J24D01*
G01*
X118606035Y-84556157D02*
G75*
G03*
X119004449Y-85518095I1360365J-43D01*
G01*
%TO.N,A*%
X119875998Y-84229509D02*
G75*
G03*
X120274449Y-85191447I1360402J9D01*
G01*
D24*
%TO.N,CAN_H*%
X114117509Y-79756002D02*
G75*
G03*
X115079448Y-79357551I-9J1360402D01*
G01*
X114949487Y-78121980D02*
G75*
G03*
X114202899Y-78431247I13J-1055820D01*
G01*
D23*
X120161290Y-72222997D02*
G75*
G03*
X119199351Y-72621448I10J-1360403D01*
G01*
D24*
X115397657Y-78115631D02*
G75*
G03*
X115390000Y-78118828I43J-10869D01*
G01*
X113654424Y-78867027D02*
G75*
G03*
X113846854Y-78787292I-24J272127D01*
G01*
D23*
X117508346Y-76249051D02*
G75*
G03*
X117906800Y-75287117I-961946J961951D01*
G01*
X116409889Y-77346099D02*
G75*
G03*
X116412304Y-77345103I11J3399D01*
G01*
D24*
X112713000Y-78677000D02*
G75*
G03*
X113171700Y-78867000I458700J458700D01*
G01*
X116067742Y-78369287D02*
G75*
G03*
X116309000Y-77786789I-582542J582487D01*
G01*
X115382342Y-78122038D02*
G75*
G03*
X115390000Y-78118828I-42J10838D01*
G01*
X110624497Y-79621503D02*
G75*
G03*
X110949211Y-79756000I324703J324703D01*
G01*
D23*
X116409889Y-77346090D02*
G75*
G03*
X116407473Y-77347104I11J-3410D01*
G01*
X116358731Y-77395835D02*
G75*
G03*
X116309000Y-77515916I120069J-120065D01*
G01*
D24*
X112713000Y-78677000D02*
G75*
G03*
X112254299Y-78487000I-458700J-458700D01*
G01*
D23*
X118305250Y-73515553D02*
G75*
G03*
X117906800Y-74477490I961950J-961947D01*
G01*
D25*
%TO.N,+5V*%
X121146016Y-83016759D02*
G75*
G03*
X120860499Y-82327500I-974816J-41D01*
G01*
X120574982Y-81638241D02*
G75*
G03*
X120860499Y-82327500I974818J41D01*
G01*
X120675988Y-81126989D02*
G75*
G03*
X120574999Y-81370837I243812J-243811D01*
G01*
X117492450Y-72247553D02*
G75*
G03*
X117094000Y-73209490I961950J-961947D01*
G01*
X119955490Y-70347997D02*
G75*
G03*
X118993551Y-70746448I10J-1360403D01*
G01*
X141809722Y-64484531D02*
G75*
G03*
X141707374Y-64237376I-349522J31D01*
G01*
X116695565Y-75991632D02*
G75*
G03*
X117094000Y-75029679I-961965J961932D01*
G01*
X141707395Y-77494644D02*
G75*
G03*
X141809751Y-77247468I-247195J247144D01*
G01*
X114582679Y-77540980D02*
G75*
G03*
X115544617Y-77142550I21J1360380D01*
G01*
X117094000Y-73209490D02*
X117094000Y-75029679D01*
X141809751Y-64484531D02*
X141809751Y-77247468D01*
X141605000Y-64135000D02*
X141707375Y-64237375D01*
X119955490Y-70348000D02*
X120892000Y-70348000D01*
X120675999Y-81127000D02*
X120777000Y-81026000D01*
X120574999Y-81638241D02*
X120574999Y-81370837D01*
X116695551Y-75991618D02*
X115544618Y-77142551D01*
X121146000Y-83016759D02*
X121146000Y-83588000D01*
X141605000Y-77597000D02*
X141707375Y-77494624D01*
X114582679Y-77541000D02*
X110490000Y-77541000D01*
X117492448Y-72247551D02*
X118993551Y-70746448D01*
D24*
%TO.N,CAN_L*%
X119656578Y-74098000D02*
X120892000Y-74098000D01*
%TO.N,CAN_H*%
X115397657Y-78115656D02*
X115698166Y-78115656D01*
X114949487Y-78122000D02*
X115382342Y-78122000D01*
D23*
X116407473Y-77347104D02*
X116358737Y-77395841D01*
D24*
X114117509Y-79756000D02*
X110949211Y-79756000D01*
X116309000Y-77786789D02*
X116309000Y-77515916D01*
X113654424Y-78867000D02*
X113171700Y-78867000D01*
D23*
X119199351Y-72621448D02*
X118305248Y-73515551D01*
X117508351Y-76249056D02*
X116412304Y-77345103D01*
D24*
X114202898Y-78431246D02*
X113846854Y-78787292D01*
X115079448Y-79357551D02*
X116067727Y-78369272D01*
D23*
X117906800Y-75287117D02*
X117906800Y-74477490D01*
D24*
X110624500Y-79621500D02*
X110490000Y-79487000D01*
X112254299Y-78487000D02*
X110490000Y-78487000D01*
D23*
X120161290Y-72223000D02*
X120892000Y-72223000D01*
D25*
%TO.N,A*%
X120274448Y-85191448D02*
X121158000Y-86075000D01*
X119876000Y-84229509D02*
X119876000Y-83588000D01*
%TO.N,B*%
X121015393Y-87529041D02*
X119004448Y-85518096D01*
X118606000Y-84556157D02*
X118606000Y-83588000D01*
X121158000Y-87873324D02*
X121158000Y-88075000D01*
D26*
%TO.N,B-*%
X112407221Y-81487000D02*
X110490000Y-81487000D01*
X115473448Y-80500551D02*
X117336000Y-78638000D01*
X114511509Y-80899000D02*
X113826778Y-80899000D01*
%TO.N,B+*%
X118093866Y-77363000D02*
X117178905Y-77363000D01*
X118606000Y-77875133D02*
X118606000Y-78638000D01*
X114357823Y-80487000D02*
X110490000Y-80487000D01*
X116364816Y-79043497D02*
X115319762Y-80088551D01*
X116736000Y-77805905D02*
X116736000Y-78147381D01*
%TO.N,A-*%
X119763250Y-77599250D02*
X119746136Y-77582136D01*
X119876000Y-77871452D02*
X119876000Y-78638000D01*
X119380000Y-77486500D02*
X119515250Y-77486500D01*
%TO.N,A+*%
X120142000Y-77216000D02*
X120998214Y-78072214D01*
X121146000Y-78429000D02*
X121146000Y-78638000D01*
D25*
%TO.N,UART_GND*%
X117336000Y-83596485D02*
X117336000Y-84387509D01*
X121034609Y-93602609D02*
X119397448Y-91965448D01*
X117348000Y-81915000D02*
X117348000Y-83567514D01*
X118999000Y-86658901D02*
X118999000Y-91003509D01*
X121158000Y-93900500D02*
X121158000Y-94075000D01*
X118935500Y-86550500D02*
X117734448Y-85349448D01*
X118935500Y-86550500D02*
X118967250Y-86582250D01*
D23*
X142780000Y-66870683D02*
X142980000Y-66670683D01*
%TO.N,UART_RX*%
X113819416Y-71204472D02*
X114101944Y-70921944D01*
X113137333Y-71487000D02*
X110490000Y-71487000D01*
%TO.N,+3.3V*%
X142930000Y-68220683D02*
X142980000Y-68170683D01*
%TO.N,SWCLK*%
X142880000Y-69570683D02*
X142980000Y-69670683D01*
%TO.N,SWDIO*%
X112946509Y-73487000D02*
X110490000Y-73487000D01*
X114510500Y-72486500D02*
X113908448Y-73088551D01*
X142730000Y-70920683D02*
X142980000Y-71170683D01*
D24*
%TO.N,NRST*%
X142979183Y-82346500D02*
X142980000Y-82347317D01*
D23*
X113245410Y-72487000D02*
X110490000Y-72487000D01*
D24*
X142977210Y-82345683D02*
X141980000Y-82345683D01*
D23*
X113362500Y-72438500D02*
X113411000Y-72390000D01*
D24*
%TO.N,HALL_A*%
X116140000Y-74487000D02*
X110490000Y-74487000D01*
%TD*%
%TA.AperFunction,Conductor*%
%TO.N,UART_GND*%
G36*
X143202244Y-52150661D02*
G01*
X143284509Y-52156544D01*
X143425767Y-52166647D01*
X143443540Y-52169202D01*
X143655913Y-52215400D01*
X143673159Y-52220464D01*
X143876788Y-52296414D01*
X143893135Y-52303880D01*
X144022413Y-52374471D01*
X144083879Y-52408034D01*
X144099003Y-52417754D01*
X144272981Y-52547992D01*
X144286567Y-52559765D01*
X144440234Y-52713432D01*
X144452007Y-52727018D01*
X144582245Y-52900996D01*
X144591965Y-52916120D01*
X144696118Y-53106862D01*
X144703586Y-53123214D01*
X144779534Y-53326838D01*
X144784599Y-53344088D01*
X144830795Y-53556449D01*
X144833353Y-53574243D01*
X144849339Y-53797755D01*
X144849500Y-53802251D01*
X144849500Y-108197748D01*
X144849339Y-108202244D01*
X144833353Y-108425756D01*
X144830795Y-108443550D01*
X144784599Y-108655911D01*
X144779534Y-108673161D01*
X144703586Y-108876785D01*
X144696118Y-108893137D01*
X144591965Y-109083879D01*
X144582245Y-109099003D01*
X144452007Y-109272981D01*
X144440234Y-109286567D01*
X144286567Y-109440234D01*
X144272981Y-109452007D01*
X144099003Y-109582245D01*
X144083879Y-109591965D01*
X143893137Y-109696118D01*
X143876785Y-109703586D01*
X143673161Y-109779534D01*
X143655911Y-109784599D01*
X143443550Y-109830795D01*
X143425756Y-109833353D01*
X143202244Y-109849339D01*
X143197748Y-109849500D01*
X110552252Y-109849500D01*
X110547756Y-109849339D01*
X110324243Y-109833353D01*
X110306449Y-109830795D01*
X110094088Y-109784599D01*
X110076838Y-109779534D01*
X109873214Y-109703586D01*
X109856862Y-109696118D01*
X109666120Y-109591965D01*
X109650996Y-109582245D01*
X109477018Y-109452007D01*
X109463432Y-109440234D01*
X109309765Y-109286567D01*
X109297992Y-109272981D01*
X109289245Y-109261297D01*
X109167754Y-109099003D01*
X109158034Y-109083879D01*
X109124471Y-109022413D01*
X109053880Y-108893135D01*
X109046413Y-108876785D01*
X108970465Y-108673161D01*
X108965400Y-108655911D01*
X108958559Y-108624464D01*
X108919202Y-108443540D01*
X108916647Y-108425767D01*
X108903985Y-108248724D01*
X108900661Y-108202244D01*
X108900500Y-108197748D01*
X108900500Y-106769048D01*
X110186091Y-106769048D01*
X110215715Y-107038297D01*
X110284231Y-107300373D01*
X110390172Y-107549672D01*
X110390173Y-107549673D01*
X110531285Y-107780893D01*
X110704558Y-107989103D01*
X110906301Y-108169865D01*
X111132213Y-108319327D01*
X111377479Y-108434303D01*
X111636872Y-108512343D01*
X111636875Y-108512343D01*
X111636877Y-108512344D01*
X111904860Y-108551783D01*
X111904864Y-108551783D01*
X112107936Y-108551783D01*
X112142666Y-108549240D01*
X112310459Y-108536960D01*
X112310463Y-108536959D01*
X112310464Y-108536959D01*
X112420968Y-108512343D01*
X112574856Y-108478063D01*
X112827861Y-108381297D01*
X113064080Y-108248724D01*
X113278480Y-108083171D01*
X113466489Y-107888164D01*
X113624102Y-107667862D01*
X113747959Y-107426958D01*
X113835421Y-107170588D01*
X113860021Y-107037402D01*
X113884621Y-106904224D01*
X113884622Y-106904213D01*
X113885269Y-106886519D01*
X113894515Y-106633518D01*
X113876528Y-106470044D01*
X113864890Y-106364268D01*
X113796374Y-106102192D01*
X113690433Y-105852893D01*
X113549321Y-105621673D01*
X113376048Y-105413463D01*
X113376044Y-105413460D01*
X113376043Y-105413458D01*
X113174315Y-105232710D01*
X113174305Y-105232701D01*
X112948393Y-105083239D01*
X112703127Y-104968263D01*
X112545695Y-104920898D01*
X112443728Y-104890221D01*
X112175745Y-104850783D01*
X112175742Y-104850783D01*
X111972672Y-104850783D01*
X111972670Y-104850783D01*
X111770142Y-104865606D01*
X111770141Y-104865606D01*
X111505759Y-104924500D01*
X111505744Y-104924505D01*
X111252744Y-105021269D01*
X111016532Y-105153838D01*
X111016528Y-105153840D01*
X110802121Y-105319399D01*
X110614118Y-105514400D01*
X110614113Y-105514406D01*
X110456506Y-105734700D01*
X110456499Y-105734710D01*
X110332646Y-105975607D01*
X110332645Y-105975610D01*
X110245186Y-106231972D01*
X110245183Y-106231985D01*
X110195984Y-106498341D01*
X110195983Y-106498352D01*
X110186091Y-106769048D01*
X108900500Y-106769048D01*
X108900500Y-105202251D01*
X108900661Y-105197755D01*
X108913283Y-105021269D01*
X108916647Y-104974230D01*
X108919202Y-104956461D01*
X108965401Y-104744082D01*
X108970465Y-104726838D01*
X109046416Y-104523206D01*
X109053877Y-104506870D01*
X109158037Y-104316115D01*
X109167750Y-104301001D01*
X109297998Y-104127010D01*
X109309758Y-104113439D01*
X109463439Y-103959758D01*
X109477010Y-103947998D01*
X109651001Y-103817750D01*
X109666115Y-103808037D01*
X109856870Y-103703877D01*
X109873206Y-103696416D01*
X110076843Y-103620463D01*
X110094082Y-103615401D01*
X110306461Y-103569202D01*
X110324232Y-103566647D01*
X110465490Y-103556544D01*
X110547756Y-103550661D01*
X110552252Y-103550500D01*
X113692175Y-103550500D01*
X113692179Y-103550500D01*
X113974464Y-103516224D01*
X114250559Y-103448173D01*
X114516438Y-103347338D01*
X114625134Y-103290289D01*
X114694747Y-103276343D01*
X114760849Y-103302246D01*
X114802454Y-103359775D01*
X114808940Y-103388138D01*
X114819801Y-103487296D01*
X114824366Y-103514946D01*
X114836365Y-103569060D01*
X114836365Y-103569061D01*
X114843914Y-103596053D01*
X114843914Y-103596052D01*
X114843915Y-103596057D01*
X114843916Y-103596058D01*
X114884250Y-103714866D01*
X114886053Y-103720175D01*
X114886054Y-103720177D01*
X114896493Y-103746177D01*
X114905591Y-103765685D01*
X114919932Y-103796432D01*
X114919936Y-103796439D01*
X114919935Y-103796439D01*
X114933137Y-103821135D01*
X114933138Y-103821136D01*
X115002879Y-103936053D01*
X115010469Y-103947824D01*
X115022252Y-103965046D01*
X115030473Y-103976388D01*
X118921793Y-109046893D01*
X118931078Y-109058301D01*
X118945384Y-109074882D01*
X118955298Y-109085731D01*
X119053422Y-109187108D01*
X119053423Y-109187109D01*
X119075053Y-109207036D01*
X119075054Y-109207036D01*
X119075056Y-109207038D01*
X119120058Y-109243967D01*
X119120065Y-109243972D01*
X119120066Y-109243973D01*
X119143831Y-109261297D01*
X119259432Y-109335823D01*
X119259431Y-109335823D01*
X119259443Y-109335829D01*
X119259448Y-109335833D01*
X119285041Y-109350330D01*
X119285053Y-109350336D01*
X119285052Y-109350336D01*
X119337250Y-109376075D01*
X119337249Y-109376074D01*
X119349128Y-109381107D01*
X119364323Y-109387547D01*
X119493842Y-109433887D01*
X119493845Y-109433888D01*
X119493844Y-109433888D01*
X119513554Y-109439690D01*
X119522065Y-109442196D01*
X119572560Y-109453967D01*
X119578764Y-109455413D01*
X119578762Y-109455412D01*
X119607727Y-109460438D01*
X119607732Y-109460438D01*
X119607733Y-109460439D01*
X119747888Y-109476563D01*
X119762546Y-109477825D01*
X119773490Y-109478452D01*
X119784434Y-109479079D01*
X119791781Y-109479289D01*
X119799127Y-109479500D01*
X119799128Y-109479500D01*
X137193291Y-109479500D01*
X137193292Y-109479500D01*
X137210316Y-109478935D01*
X137235649Y-109477252D01*
X137252592Y-109475561D01*
X137414424Y-109453966D01*
X137447823Y-109447232D01*
X137447825Y-109447231D01*
X137447832Y-109447230D01*
X137496939Y-109433887D01*
X137512864Y-109429560D01*
X137545076Y-109418467D01*
X137545075Y-109418467D01*
X137545079Y-109418466D01*
X137545078Y-109418467D01*
X137691798Y-109356789D01*
X137722265Y-109341531D01*
X137722264Y-109341532D01*
X137744796Y-109328310D01*
X137780398Y-109307422D01*
X137808574Y-109288273D01*
X137933988Y-109190284D01*
X137933988Y-109190283D01*
X137933990Y-109190282D01*
X137959387Y-109167573D01*
X138006545Y-109119413D01*
X138028719Y-109093541D01*
X138028718Y-109093541D01*
X138028725Y-109093534D01*
X138028725Y-109093533D01*
X138126507Y-108962812D01*
X138136242Y-108948856D01*
X138140600Y-108942144D01*
X138150071Y-108927561D01*
X138158873Y-108912969D01*
X138179094Y-108876785D01*
X138421196Y-108443550D01*
X139291297Y-106886529D01*
X139329462Y-106800582D01*
X139344189Y-106757048D01*
X139366041Y-106665576D01*
X139366041Y-106538165D01*
X139386043Y-106470044D01*
X139439699Y-106423551D01*
X139465256Y-106415044D01*
X139533705Y-106400155D01*
X139732700Y-106314940D01*
X139911971Y-106193606D01*
X140065040Y-106040537D01*
X140186374Y-105861266D01*
X140271589Y-105662271D01*
X140317603Y-105450746D01*
X140320500Y-105402116D01*
X140320500Y-103979016D01*
X140317603Y-103930386D01*
X140271589Y-103718861D01*
X140271588Y-103718858D01*
X140270312Y-103714866D01*
X140268622Y-103643890D01*
X140305573Y-103583267D01*
X140369433Y-103552245D01*
X140390329Y-103550500D01*
X140644486Y-103550500D01*
X140700000Y-103550500D01*
X140785935Y-103550556D01*
X140954331Y-103516177D01*
X141112448Y-103448810D01*
X141253894Y-103351177D01*
X141372952Y-103227224D01*
X141464811Y-103081962D01*
X141525756Y-102921261D01*
X141553326Y-102751617D01*
X141546406Y-102579886D01*
X141505275Y-102413011D01*
X141431595Y-102257735D01*
X141328346Y-102120335D01*
X141199700Y-102006364D01*
X141166958Y-101987489D01*
X141134868Y-101968989D01*
X141116803Y-101956348D01*
X141102503Y-101944348D01*
X141074383Y-101910836D01*
X141070621Y-101904321D01*
X141055652Y-101863201D01*
X141052416Y-101844855D01*
X141050500Y-101822968D01*
X141050500Y-93980000D01*
X142088496Y-93980000D01*
X142108457Y-94169927D01*
X142118277Y-94200148D01*
X142167473Y-94351556D01*
X142167476Y-94351561D01*
X142262958Y-94516941D01*
X142262965Y-94516951D01*
X142390744Y-94658864D01*
X142390747Y-94658866D01*
X142545248Y-94771118D01*
X142719712Y-94848794D01*
X142906513Y-94888500D01*
X143097487Y-94888500D01*
X143284288Y-94848794D01*
X143458752Y-94771118D01*
X143613253Y-94658866D01*
X143741040Y-94516944D01*
X143836527Y-94351556D01*
X143895542Y-94169928D01*
X143915504Y-93980000D01*
X143895542Y-93790072D01*
X143836527Y-93608444D01*
X143741040Y-93443056D01*
X143741038Y-93443054D01*
X143741034Y-93443048D01*
X143613255Y-93301135D01*
X143458752Y-93188882D01*
X143284288Y-93111206D01*
X143097487Y-93071500D01*
X142906513Y-93071500D01*
X142719711Y-93111206D01*
X142545247Y-93188882D01*
X142390744Y-93301135D01*
X142262965Y-93443048D01*
X142262958Y-93443058D01*
X142167476Y-93608438D01*
X142167473Y-93608445D01*
X142108457Y-93790072D01*
X142088496Y-93980000D01*
X141050500Y-93980000D01*
X141050500Y-85359714D01*
X141070502Y-85291593D01*
X141106498Y-85254949D01*
X141108363Y-85253703D01*
X141247662Y-85160626D01*
X141366126Y-85042162D01*
X141459203Y-84902863D01*
X141523316Y-84748082D01*
X141556000Y-84583767D01*
X141556000Y-84500000D01*
X141556000Y-84444486D01*
X141556000Y-83330183D01*
X141576002Y-83262062D01*
X141629658Y-83215569D01*
X141681999Y-83204183D01*
X142311631Y-83204184D01*
X142378808Y-83195745D01*
X142448890Y-83207101D01*
X142453897Y-83209636D01*
X142592196Y-83283558D01*
X142782299Y-83341225D01*
X142782303Y-83341225D01*
X142782305Y-83341226D01*
X142979997Y-83360697D01*
X142980000Y-83360697D01*
X142980003Y-83360697D01*
X143177694Y-83341226D01*
X143177695Y-83341225D01*
X143177701Y-83341225D01*
X143367804Y-83283558D01*
X143543004Y-83189912D01*
X143696568Y-83063885D01*
X143822595Y-82910321D01*
X143916241Y-82735121D01*
X143973908Y-82545018D01*
X143992506Y-82356196D01*
X143993380Y-82347320D01*
X143993380Y-82347313D01*
X143973909Y-82149622D01*
X143973908Y-82149620D01*
X143973908Y-82149616D01*
X143916241Y-81959513D01*
X143822595Y-81784313D01*
X143696568Y-81630749D01*
X143543004Y-81504722D01*
X143367804Y-81411076D01*
X143177701Y-81353409D01*
X143177700Y-81353408D01*
X143177694Y-81353407D01*
X142980003Y-81333937D01*
X142979997Y-81333937D01*
X142782305Y-81353407D01*
X142592195Y-81411076D01*
X142458856Y-81482347D01*
X142389350Y-81496819D01*
X142383771Y-81496244D01*
X142311630Y-81487183D01*
X142311626Y-81487183D01*
X141682000Y-81487183D01*
X141613879Y-81467181D01*
X141567386Y-81413525D01*
X141556000Y-81361183D01*
X141556000Y-80616234D01*
X141555999Y-80616230D01*
X141554719Y-80609795D01*
X141523316Y-80451918D01*
X141459203Y-80297137D01*
X141366126Y-80157838D01*
X141366121Y-80157832D01*
X141247667Y-80039378D01*
X141247663Y-80039375D01*
X141247662Y-80039374D01*
X141169962Y-79987456D01*
X141106498Y-79945050D01*
X141060970Y-79890573D01*
X141050500Y-79840285D01*
X141050500Y-78538620D01*
X141070502Y-78470499D01*
X141124158Y-78424006D01*
X141194432Y-78413902D01*
X141227749Y-78423514D01*
X141322707Y-78465793D01*
X141322712Y-78465794D01*
X141509513Y-78505500D01*
X141700487Y-78505500D01*
X141887288Y-78465794D01*
X142061752Y-78388118D01*
X142216253Y-78275866D01*
X142344040Y-78133944D01*
X142439527Y-77968556D01*
X142498542Y-77786928D01*
X142518357Y-77598396D01*
X142523825Y-77572662D01*
X142544894Y-77507803D01*
X142571108Y-77342183D01*
X142572026Y-77337537D01*
X142572251Y-77336591D01*
X142572251Y-77336584D01*
X142572258Y-77336523D01*
X142572257Y-77334924D01*
X142572259Y-77334917D01*
X142572251Y-77247398D01*
X142572251Y-77245287D01*
X142572251Y-72270764D01*
X142592253Y-72202643D01*
X142645909Y-72156150D01*
X142716183Y-72146046D01*
X142734817Y-72150187D01*
X142782299Y-72164591D01*
X142782301Y-72164591D01*
X142782304Y-72164592D01*
X142979997Y-72184063D01*
X142980000Y-72184063D01*
X142980003Y-72184063D01*
X143177694Y-72164592D01*
X143177695Y-72164591D01*
X143177701Y-72164591D01*
X143367804Y-72106924D01*
X143543004Y-72013278D01*
X143696568Y-71887251D01*
X143822595Y-71733687D01*
X143916241Y-71558487D01*
X143973908Y-71368384D01*
X143979138Y-71315289D01*
X143993380Y-71170686D01*
X143993380Y-71170679D01*
X143973909Y-70972988D01*
X143973908Y-70972986D01*
X143973908Y-70972982D01*
X143916241Y-70782879D01*
X143822595Y-70607679D01*
X143734730Y-70500616D01*
X143706977Y-70435270D01*
X143718959Y-70365291D01*
X143734731Y-70340749D01*
X143822595Y-70233687D01*
X143916241Y-70058487D01*
X143973908Y-69868384D01*
X143975970Y-69847456D01*
X143993380Y-69670686D01*
X143993380Y-69670679D01*
X143973909Y-69472988D01*
X143973908Y-69472986D01*
X143973908Y-69472982D01*
X143916241Y-69282879D01*
X143822595Y-69107679D01*
X143734730Y-69000616D01*
X143706977Y-68935270D01*
X143718959Y-68865291D01*
X143734731Y-68840749D01*
X143822595Y-68733687D01*
X143916241Y-68558487D01*
X143973908Y-68368384D01*
X143993380Y-68170683D01*
X143973908Y-67972982D01*
X143916241Y-67782879D01*
X143822595Y-67607679D01*
X143696568Y-67454115D01*
X143543004Y-67328088D01*
X143387748Y-67245102D01*
X143367805Y-67234442D01*
X143304436Y-67215219D01*
X143177701Y-67176775D01*
X143171315Y-67176146D01*
X143166189Y-67175641D01*
X143100358Y-67149055D01*
X143089450Y-67139343D01*
X142803587Y-66853480D01*
X142882455Y-66906178D01*
X142955376Y-66920683D01*
X143004624Y-66920683D01*
X143077545Y-66906178D01*
X143160240Y-66850923D01*
X143215495Y-66768228D01*
X143234898Y-66670684D01*
X143339210Y-66670684D01*
X143849956Y-67181430D01*
X143915775Y-67058295D01*
X143915776Y-67058291D01*
X143973414Y-66868289D01*
X143973416Y-66868278D01*
X143992877Y-66670686D01*
X143992877Y-66670679D01*
X143973416Y-66473087D01*
X143973414Y-66473076D01*
X143915776Y-66283074D01*
X143849956Y-66159935D01*
X143339210Y-66670682D01*
X143339210Y-66670684D01*
X143234898Y-66670684D01*
X143234898Y-66670683D01*
X143215495Y-66573138D01*
X143160240Y-66490443D01*
X143077545Y-66435188D01*
X143004624Y-66420683D01*
X142955376Y-66420683D01*
X142882455Y-66435188D01*
X142803586Y-66487885D01*
X143490747Y-65800725D01*
X143367608Y-65734906D01*
X143177606Y-65677268D01*
X143177595Y-65677266D01*
X142980003Y-65657806D01*
X142979997Y-65657806D01*
X142782404Y-65677266D01*
X142782396Y-65677268D01*
X142734825Y-65691698D01*
X142663831Y-65692331D01*
X142603765Y-65654481D01*
X142573698Y-65590165D01*
X142572251Y-65571123D01*
X142572251Y-64438729D01*
X142572226Y-64437878D01*
X142572230Y-64397082D01*
X142544865Y-64224201D01*
X142523840Y-64159472D01*
X142518371Y-64133736D01*
X142498542Y-63945072D01*
X142439527Y-63763444D01*
X142344040Y-63598056D01*
X142344038Y-63598054D01*
X142344034Y-63598048D01*
X142216255Y-63456135D01*
X142061752Y-63343882D01*
X141887288Y-63266206D01*
X141700487Y-63226500D01*
X141509513Y-63226500D01*
X141322709Y-63266206D01*
X141227749Y-63308485D01*
X141157382Y-63317919D01*
X141093085Y-63287812D01*
X141055272Y-63227723D01*
X141050501Y-63193386D01*
X141050500Y-63177026D01*
X141052413Y-63155156D01*
X141055653Y-63136777D01*
X141070624Y-63095653D01*
X141074352Y-63089196D01*
X141102483Y-63055678D01*
X141116874Y-63043604D01*
X141134920Y-63030979D01*
X141199700Y-62993636D01*
X141328346Y-62879665D01*
X141431595Y-62742265D01*
X141505275Y-62586989D01*
X141546406Y-62420114D01*
X141553326Y-62248383D01*
X141525756Y-62078739D01*
X141464811Y-61918038D01*
X141372952Y-61772776D01*
X141253894Y-61648823D01*
X141169026Y-61590243D01*
X141112446Y-61551188D01*
X141112443Y-61551187D01*
X141004652Y-61505262D01*
X140949823Y-61460160D01*
X140928081Y-61392574D01*
X140939320Y-61337237D01*
X140969228Y-61271392D01*
X141009679Y-61182336D01*
X141065030Y-60962669D01*
X141075500Y-60829636D01*
X141075500Y-59200364D01*
X141065030Y-59067331D01*
X141009679Y-58847664D01*
X140915994Y-58641409D01*
X140915993Y-58641408D01*
X140915990Y-58641402D01*
X140786988Y-58455200D01*
X140786984Y-58455195D01*
X140626804Y-58295015D01*
X140626799Y-58295011D01*
X140440597Y-58166009D01*
X140440588Y-58166004D01*
X140234341Y-58072323D01*
X140234338Y-58072322D01*
X140234336Y-58072321D01*
X140014669Y-58016970D01*
X139913049Y-58008972D01*
X139881639Y-58006500D01*
X139881636Y-58006500D01*
X138252364Y-58006500D01*
X138252361Y-58006500D01*
X138218267Y-58009183D01*
X138119331Y-58016970D01*
X138119327Y-58016970D01*
X138119327Y-58016971D01*
X137899667Y-58072320D01*
X137899658Y-58072323D01*
X137693411Y-58166004D01*
X137693402Y-58166009D01*
X137507200Y-58295011D01*
X137507195Y-58295015D01*
X137347015Y-58455195D01*
X137347011Y-58455200D01*
X137218009Y-58641402D01*
X137218004Y-58641411D01*
X137124323Y-58847658D01*
X137124320Y-58847667D01*
X137123243Y-58851941D01*
X137068970Y-59067331D01*
X137058500Y-59200364D01*
X137058500Y-60829636D01*
X137068970Y-60962669D01*
X137068971Y-60962672D01*
X137124320Y-61182332D01*
X137124323Y-61182341D01*
X137164772Y-61271392D01*
X137174733Y-61341686D01*
X137145108Y-61406207D01*
X137085303Y-61444468D01*
X137050052Y-61449500D01*
X136638500Y-61449500D01*
X136570379Y-61429498D01*
X136523886Y-61375842D01*
X136512500Y-61323500D01*
X136512500Y-60191111D01*
X136512501Y-58851941D01*
X136501771Y-58766518D01*
X136445814Y-58631426D01*
X136392997Y-58563435D01*
X136034126Y-58204564D01*
X136034116Y-58204556D01*
X135966139Y-58151750D01*
X135831048Y-58095795D01*
X135745630Y-58085066D01*
X135745625Y-58085065D01*
X135745623Y-58085065D01*
X135262379Y-58085065D01*
X135262378Y-58085065D01*
X135262375Y-58085065D01*
X135194036Y-58093649D01*
X135176951Y-58095795D01*
X135041859Y-58151752D01*
X134973874Y-58204564D01*
X134655595Y-58522843D01*
X134593283Y-58556868D01*
X134522467Y-58551803D01*
X134477405Y-58522842D01*
X134159135Y-58204572D01*
X134159128Y-58204566D01*
X134159126Y-58204564D01*
X134159116Y-58204556D01*
X134091139Y-58151750D01*
X133956048Y-58095795D01*
X133870630Y-58085066D01*
X133870625Y-58085065D01*
X133870623Y-58085065D01*
X133387379Y-58085065D01*
X133387378Y-58085065D01*
X133387375Y-58085065D01*
X133319036Y-58093649D01*
X133301951Y-58095795D01*
X133166859Y-58151752D01*
X133098874Y-58204564D01*
X132780595Y-58522843D01*
X132718283Y-58556868D01*
X132647467Y-58551803D01*
X132602405Y-58522842D01*
X132284135Y-58204572D01*
X132284128Y-58204566D01*
X132284126Y-58204564D01*
X132284116Y-58204556D01*
X132216139Y-58151750D01*
X132081048Y-58095795D01*
X131995630Y-58085066D01*
X131995625Y-58085065D01*
X131995623Y-58085065D01*
X131672915Y-58085065D01*
X131604794Y-58065063D01*
X131558301Y-58011407D01*
X131548198Y-57941133D01*
X131553080Y-57920134D01*
X131576542Y-57847928D01*
X131596504Y-57658000D01*
X131576542Y-57468072D01*
X131517527Y-57286444D01*
X131422040Y-57121056D01*
X131422038Y-57121054D01*
X131422034Y-57121048D01*
X131294255Y-56979135D01*
X131139752Y-56866882D01*
X130965288Y-56789206D01*
X130778487Y-56749500D01*
X130587513Y-56749500D01*
X130400711Y-56789206D01*
X130226247Y-56866882D01*
X130071744Y-56979135D01*
X129943965Y-57121048D01*
X129943958Y-57121058D01*
X129848476Y-57286438D01*
X129848473Y-57286445D01*
X129789457Y-57468072D01*
X129769496Y-57658000D01*
X129789457Y-57847927D01*
X129797598Y-57872981D01*
X129812918Y-57920130D01*
X129814946Y-57991095D01*
X129778284Y-58051893D01*
X129714572Y-58083219D01*
X129693085Y-58085065D01*
X129637375Y-58085065D01*
X129566189Y-58094006D01*
X129551951Y-58095795D01*
X129416859Y-58151752D01*
X129348874Y-58204564D01*
X129348871Y-58204567D01*
X129030240Y-58523197D01*
X128967928Y-58557222D01*
X128897112Y-58552157D01*
X128852049Y-58523196D01*
X128533801Y-58204947D01*
X128533789Y-58204936D01*
X128465886Y-58152188D01*
X128465884Y-58152187D01*
X128330923Y-58096284D01*
X128330925Y-58096284D01*
X128258000Y-58087124D01*
X128258000Y-60089051D01*
X128239495Y-59996021D01*
X128184240Y-59913326D01*
X128101545Y-59858071D01*
X128028624Y-59843566D01*
X127979376Y-59843566D01*
X127906455Y-59858071D01*
X127823760Y-59913326D01*
X127768505Y-59996021D01*
X127750000Y-60089051D01*
X127750000Y-58087125D01*
X127677076Y-58096284D01*
X127542114Y-58152187D01*
X127542113Y-58152188D01*
X127474212Y-58204935D01*
X127474196Y-58204949D01*
X127466831Y-58212314D01*
X127404517Y-58246336D01*
X127333702Y-58241267D01*
X127276868Y-58198718D01*
X127252468Y-58136736D01*
X127251726Y-58129866D01*
X127249759Y-58119661D01*
X127243859Y-58089046D01*
X127243859Y-58089047D01*
X127220924Y-58007215D01*
X127150994Y-57878871D01*
X127108501Y-57822001D01*
X127108497Y-57821997D01*
X127005242Y-57718556D01*
X127005240Y-57718555D01*
X126674189Y-57470267D01*
X125048278Y-56250834D01*
X125033181Y-56240341D01*
X125017739Y-56230018D01*
X124979403Y-56212510D01*
X124884792Y-56169302D01*
X124816677Y-56149302D01*
X124816670Y-56149300D01*
X124787735Y-56145140D01*
X124755351Y-56140484D01*
X131287012Y-56140484D01*
X131306973Y-56330411D01*
X131322572Y-56378418D01*
X131365989Y-56512040D01*
X131365992Y-56512045D01*
X131461474Y-56677425D01*
X131461481Y-56677435D01*
X131589260Y-56819348D01*
X131603554Y-56829733D01*
X131743764Y-56931602D01*
X131918228Y-57009278D01*
X132105029Y-57048984D01*
X132296001Y-57048984D01*
X132296003Y-57048984D01*
X132307038Y-57046638D01*
X132377826Y-57052038D01*
X132434460Y-57094853D01*
X132442355Y-57106884D01*
X132483957Y-57178942D01*
X132483960Y-57178944D01*
X132611744Y-57320864D01*
X132611747Y-57320866D01*
X132766248Y-57433118D01*
X132940712Y-57510794D01*
X133127513Y-57550500D01*
X133318487Y-57550500D01*
X133505288Y-57510794D01*
X133679752Y-57433118D01*
X133834253Y-57320866D01*
X133834255Y-57320864D01*
X133962034Y-57178951D01*
X133962035Y-57178949D01*
X133962040Y-57178944D01*
X134020152Y-57078290D01*
X134071532Y-57029300D01*
X134141245Y-57015863D01*
X134155466Y-57018046D01*
X134270513Y-57042500D01*
X134461483Y-57042500D01*
X134461487Y-57042500D01*
X134463410Y-57042091D01*
X134464549Y-57042178D01*
X134468050Y-57041810D01*
X134468117Y-57042450D01*
X134534198Y-57047489D01*
X134590833Y-57090302D01*
X134598730Y-57102336D01*
X134642958Y-57178941D01*
X134642965Y-57178951D01*
X134770744Y-57320864D01*
X134770747Y-57320866D01*
X134925248Y-57433118D01*
X135099712Y-57510794D01*
X135286513Y-57550500D01*
X135477487Y-57550500D01*
X135664288Y-57510794D01*
X135838752Y-57433118D01*
X135993253Y-57320866D01*
X135993255Y-57320864D01*
X136121034Y-57178951D01*
X136121035Y-57178949D01*
X136121040Y-57178944D01*
X136179152Y-57078290D01*
X136230532Y-57029300D01*
X136300245Y-57015863D01*
X136314466Y-57018046D01*
X136429513Y-57042500D01*
X136620483Y-57042500D01*
X136620487Y-57042500D01*
X136622410Y-57042091D01*
X136623549Y-57042178D01*
X136627050Y-57041810D01*
X136627117Y-57042450D01*
X136693198Y-57047489D01*
X136749833Y-57090302D01*
X136757730Y-57102336D01*
X136801958Y-57178941D01*
X136801965Y-57178951D01*
X136929744Y-57320864D01*
X136929747Y-57320866D01*
X137084248Y-57433118D01*
X137258712Y-57510794D01*
X137445513Y-57550500D01*
X137636487Y-57550500D01*
X137823288Y-57510794D01*
X137997752Y-57433118D01*
X138152253Y-57320866D01*
X138152255Y-57320864D01*
X138280034Y-57178951D01*
X138280035Y-57178949D01*
X138280040Y-57178944D01*
X138296751Y-57150000D01*
X142390859Y-57150000D01*
X142409366Y-57314252D01*
X142450959Y-57433117D01*
X142463958Y-57470267D01*
X142463959Y-57470269D01*
X142551897Y-57610223D01*
X142668776Y-57727102D01*
X142731380Y-57766438D01*
X142808733Y-57815042D01*
X142964748Y-57869634D01*
X143129000Y-57888141D01*
X143293252Y-57869634D01*
X143449267Y-57815042D01*
X143589223Y-57727102D01*
X143706102Y-57610223D01*
X143794042Y-57470267D01*
X143848634Y-57314252D01*
X143867141Y-57150000D01*
X143848634Y-56985748D01*
X143794042Y-56829733D01*
X143754865Y-56767383D01*
X143706102Y-56689776D01*
X143589223Y-56572897D01*
X143449269Y-56484959D01*
X143449267Y-56484958D01*
X143355284Y-56452072D01*
X143293252Y-56430366D01*
X143129000Y-56411859D01*
X142964748Y-56430366D01*
X142964745Y-56430366D01*
X142964745Y-56430367D01*
X142808732Y-56484958D01*
X142808730Y-56484959D01*
X142668776Y-56572897D01*
X142551897Y-56689776D01*
X142463959Y-56829730D01*
X142463958Y-56829732D01*
X142424611Y-56942179D01*
X142409366Y-56985748D01*
X142390859Y-57150000D01*
X138296751Y-57150000D01*
X138375527Y-57013556D01*
X138434542Y-56831928D01*
X138454504Y-56642000D01*
X138434542Y-56452072D01*
X138375527Y-56270444D01*
X138280040Y-56105056D01*
X138280038Y-56105054D01*
X138280034Y-56105048D01*
X138152255Y-55963135D01*
X137997752Y-55850882D01*
X137823288Y-55773206D01*
X137636487Y-55733500D01*
X137445513Y-55733500D01*
X137445504Y-55733500D01*
X137443572Y-55733911D01*
X137442428Y-55733823D01*
X137438942Y-55734190D01*
X137438874Y-55733552D01*
X137372782Y-55728502D01*
X137316154Y-55685679D01*
X137308269Y-55673663D01*
X137264040Y-55597056D01*
X137264036Y-55597051D01*
X137264034Y-55597048D01*
X137136255Y-55455135D01*
X136981752Y-55342882D01*
X136807288Y-55265206D01*
X136620487Y-55225500D01*
X136429513Y-55225500D01*
X136242711Y-55265206D01*
X136068247Y-55342882D01*
X135913744Y-55455135D01*
X135785965Y-55597048D01*
X135785961Y-55597054D01*
X135785960Y-55597056D01*
X135763577Y-55635825D01*
X135727848Y-55697708D01*
X135676465Y-55746701D01*
X135606751Y-55760136D01*
X135592532Y-55757953D01*
X135477492Y-55733500D01*
X135477487Y-55733500D01*
X135286513Y-55733500D01*
X135286504Y-55733500D01*
X135284572Y-55733911D01*
X135283428Y-55733823D01*
X135279942Y-55734190D01*
X135279874Y-55733552D01*
X135213782Y-55728502D01*
X135157154Y-55685679D01*
X135149269Y-55673663D01*
X135105040Y-55597056D01*
X135105036Y-55597051D01*
X135105034Y-55597048D01*
X134977255Y-55455135D01*
X134822752Y-55342882D01*
X134648288Y-55265206D01*
X134461487Y-55225500D01*
X134270513Y-55225500D01*
X134083711Y-55265206D01*
X133909247Y-55342882D01*
X133754744Y-55455135D01*
X133626965Y-55597048D01*
X133626961Y-55597054D01*
X133626960Y-55597056D01*
X133604577Y-55635825D01*
X133568848Y-55697708D01*
X133517465Y-55746701D01*
X133447751Y-55760136D01*
X133433532Y-55757953D01*
X133318492Y-55733500D01*
X133318487Y-55733500D01*
X133127513Y-55733500D01*
X133127511Y-55733500D01*
X133116473Y-55735846D01*
X133045682Y-55730443D01*
X132989050Y-55687625D01*
X132981158Y-55675598D01*
X132958198Y-55635829D01*
X132939556Y-55603540D01*
X132939554Y-55603538D01*
X132939552Y-55603534D01*
X132811771Y-55461619D01*
X132657268Y-55349366D01*
X132482804Y-55271690D01*
X132296003Y-55231984D01*
X132105029Y-55231984D01*
X131918227Y-55271690D01*
X131743763Y-55349366D01*
X131589260Y-55461619D01*
X131461481Y-55603532D01*
X131461474Y-55603542D01*
X131365992Y-55768922D01*
X131365989Y-55768929D01*
X131306973Y-55950556D01*
X131287012Y-56140484D01*
X124755351Y-56140484D01*
X124672000Y-56128500D01*
X121831253Y-56128500D01*
X121831245Y-56128500D01*
X121817013Y-56129192D01*
X121806333Y-56129712D01*
X121769589Y-56133293D01*
X121763888Y-56134129D01*
X121720266Y-56140531D01*
X121720261Y-56140532D01*
X121582332Y-56188870D01*
X121519355Y-56221648D01*
X121519349Y-56221650D01*
X121400628Y-56306890D01*
X118596520Y-59001500D01*
X117279391Y-60267195D01*
X117216414Y-60299972D01*
X117145713Y-60293499D01*
X117108377Y-60270517D01*
X117019045Y-60191111D01*
X116840874Y-60032736D01*
X116340748Y-59588179D01*
X116276401Y-59539466D01*
X116243688Y-59518529D01*
X116243689Y-59518530D01*
X116172537Y-59480514D01*
X116172529Y-59480511D01*
X116031655Y-59441633D01*
X116028664Y-59441252D01*
X115962335Y-59432819D01*
X115962332Y-59432819D01*
X115962321Y-59432818D01*
X115816204Y-59435204D01*
X115816202Y-59435204D01*
X115816201Y-59435205D01*
X115795565Y-59441632D01*
X115676660Y-59478662D01*
X115636140Y-59497973D01*
X115566040Y-59509221D01*
X115500987Y-59480786D01*
X115478239Y-59455804D01*
X115403657Y-59347753D01*
X115403656Y-59347751D01*
X115215092Y-59134907D01*
X115002249Y-58946345D01*
X115002250Y-58946345D01*
X115002247Y-58946343D01*
X114897230Y-58873856D01*
X114768229Y-58784812D01*
X114768222Y-58784808D01*
X114516450Y-58652667D01*
X114516434Y-58652660D01*
X114250558Y-58551826D01*
X113974466Y-58483776D01*
X113974460Y-58483775D01*
X113692182Y-58449500D01*
X113692179Y-58449500D01*
X113608488Y-58449500D01*
X110552252Y-58449500D01*
X110547756Y-58449339D01*
X110324243Y-58433353D01*
X110306449Y-58430795D01*
X110094088Y-58384599D01*
X110076838Y-58379534D01*
X109873214Y-58303586D01*
X109856862Y-58296118D01*
X109666120Y-58191965D01*
X109650996Y-58182245D01*
X109477018Y-58052007D01*
X109463432Y-58040234D01*
X109309765Y-57886567D01*
X109297992Y-57872981D01*
X109295486Y-57869634D01*
X109218235Y-57766438D01*
X109167754Y-57699003D01*
X109158034Y-57683879D01*
X109085204Y-57550500D01*
X109053880Y-57493135D01*
X109046413Y-57476785D01*
X108970465Y-57273161D01*
X108965400Y-57255911D01*
X108958559Y-57224464D01*
X108919202Y-57043540D01*
X108916647Y-57025767D01*
X108905284Y-56866882D01*
X108900661Y-56802244D01*
X108900500Y-56797748D01*
X108900500Y-55366576D01*
X110196382Y-55366576D01*
X110226006Y-55635825D01*
X110294522Y-55897901D01*
X110400463Y-56147200D01*
X110400464Y-56147201D01*
X110541576Y-56378421D01*
X110714849Y-56586631D01*
X110714851Y-56586633D01*
X110714853Y-56586635D01*
X110819830Y-56680694D01*
X110916592Y-56767393D01*
X111142504Y-56916855D01*
X111387770Y-57031831D01*
X111647163Y-57109871D01*
X111647166Y-57109871D01*
X111647168Y-57109872D01*
X111915151Y-57149311D01*
X111915155Y-57149311D01*
X112118227Y-57149311D01*
X112152957Y-57146768D01*
X112320750Y-57134488D01*
X112320754Y-57134487D01*
X112320755Y-57134487D01*
X112519107Y-57090302D01*
X112585147Y-57075591D01*
X112838152Y-56978825D01*
X113074371Y-56846252D01*
X113288771Y-56680699D01*
X113476780Y-56485692D01*
X113634393Y-56265390D01*
X113641877Y-56250835D01*
X113758250Y-56024486D01*
X113758251Y-56024483D01*
X113779180Y-55963135D01*
X113845712Y-55768116D01*
X113876110Y-55603542D01*
X113894912Y-55501752D01*
X113894913Y-55501741D01*
X113896616Y-55455134D01*
X113904806Y-55231046D01*
X113889932Y-55095869D01*
X113875181Y-54961796D01*
X113806665Y-54699720D01*
X113714569Y-54483000D01*
X127102496Y-54483000D01*
X127122457Y-54672927D01*
X127131163Y-54699720D01*
X127181473Y-54854556D01*
X127181476Y-54854561D01*
X127276958Y-55019941D01*
X127276965Y-55019951D01*
X127404744Y-55161864D01*
X127404747Y-55161866D01*
X127559248Y-55274118D01*
X127733712Y-55351794D01*
X127920513Y-55391500D01*
X128111487Y-55391500D01*
X128298288Y-55351794D01*
X128472752Y-55274118D01*
X128627253Y-55161866D01*
X128755040Y-55019944D01*
X128850527Y-54854556D01*
X128909542Y-54672928D01*
X128929504Y-54483000D01*
X140691496Y-54483000D01*
X140711457Y-54672927D01*
X140720163Y-54699720D01*
X140770473Y-54854556D01*
X140770476Y-54854561D01*
X140865958Y-55019941D01*
X140865965Y-55019951D01*
X140993744Y-55161864D01*
X140993747Y-55161866D01*
X141148248Y-55274118D01*
X141322712Y-55351794D01*
X141509513Y-55391500D01*
X141700487Y-55391500D01*
X141887288Y-55351794D01*
X142061752Y-55274118D01*
X142216253Y-55161866D01*
X142344040Y-55019944D01*
X142439527Y-54854556D01*
X142498542Y-54672928D01*
X142518504Y-54483000D01*
X142498542Y-54293072D01*
X142439527Y-54111444D01*
X142344040Y-53946056D01*
X142344038Y-53946054D01*
X142344034Y-53946048D01*
X142216255Y-53804135D01*
X142061752Y-53691882D01*
X141887288Y-53614206D01*
X141700487Y-53574500D01*
X141509513Y-53574500D01*
X141322711Y-53614206D01*
X141148247Y-53691882D01*
X140993744Y-53804135D01*
X140865965Y-53946048D01*
X140865958Y-53946058D01*
X140770476Y-54111438D01*
X140770473Y-54111445D01*
X140711457Y-54293072D01*
X140691496Y-54483000D01*
X128929504Y-54483000D01*
X128909542Y-54293072D01*
X128850527Y-54111444D01*
X128755040Y-53946056D01*
X128755038Y-53946054D01*
X128755034Y-53946048D01*
X128627255Y-53804135D01*
X128472752Y-53691882D01*
X128298288Y-53614206D01*
X128111487Y-53574500D01*
X127920513Y-53574500D01*
X127733711Y-53614206D01*
X127559247Y-53691882D01*
X127404744Y-53804135D01*
X127276965Y-53946048D01*
X127276958Y-53946058D01*
X127181476Y-54111438D01*
X127181473Y-54111445D01*
X127122457Y-54293072D01*
X127102496Y-54483000D01*
X113714569Y-54483000D01*
X113700724Y-54450421D01*
X113559612Y-54219201D01*
X113386339Y-54010991D01*
X113386335Y-54010988D01*
X113386334Y-54010986D01*
X113184606Y-53830238D01*
X113184596Y-53830229D01*
X112958684Y-53680767D01*
X112713418Y-53565791D01*
X112555986Y-53518426D01*
X112454019Y-53487749D01*
X112186036Y-53448311D01*
X112186033Y-53448311D01*
X111982963Y-53448311D01*
X111982961Y-53448311D01*
X111780433Y-53463134D01*
X111780432Y-53463134D01*
X111516050Y-53522028D01*
X111516035Y-53522033D01*
X111263035Y-53618797D01*
X111026823Y-53751366D01*
X111026819Y-53751368D01*
X110812412Y-53916927D01*
X110624409Y-54111928D01*
X110624404Y-54111934D01*
X110466797Y-54332228D01*
X110466790Y-54332238D01*
X110342937Y-54573135D01*
X110342936Y-54573138D01*
X110255477Y-54829500D01*
X110255474Y-54829513D01*
X110206275Y-55095869D01*
X110206274Y-55095880D01*
X110196382Y-55366576D01*
X108900500Y-55366576D01*
X108900500Y-53802251D01*
X108900661Y-53797755D01*
X108913460Y-53618797D01*
X108916647Y-53574230D01*
X108919202Y-53556461D01*
X108965401Y-53344082D01*
X108970465Y-53326838D01*
X109046416Y-53123206D01*
X109053877Y-53106870D01*
X109158037Y-52916115D01*
X109167750Y-52901001D01*
X109297998Y-52727010D01*
X109309758Y-52713439D01*
X109463439Y-52559758D01*
X109477010Y-52547998D01*
X109651001Y-52417750D01*
X109666115Y-52408037D01*
X109856870Y-52303877D01*
X109873206Y-52296416D01*
X110076843Y-52220463D01*
X110094082Y-52215401D01*
X110306461Y-52169202D01*
X110324232Y-52166647D01*
X110465490Y-52156544D01*
X110547756Y-52150661D01*
X110552252Y-52150500D01*
X110605514Y-52150500D01*
X143144486Y-52150500D01*
X143197748Y-52150500D01*
X143202244Y-52150661D01*
G37*
%TD.AperFunction*%
%TA.AperFunction,Conductor*%
G36*
X120067071Y-92964122D02*
G01*
X120025413Y-92948784D01*
X120016788Y-92941773D01*
X119978252Y-92907519D01*
X118538790Y-91627995D01*
X118501165Y-91567788D01*
X118496500Y-91533821D01*
X118496500Y-91318761D01*
X120067071Y-92964122D01*
G37*
%TD.AperFunction*%
%TA.AperFunction,Conductor*%
G36*
X113285380Y-82544500D02*
G01*
X113274500Y-82544500D01*
X113206379Y-82524498D01*
X113159886Y-82470842D01*
X113148500Y-82418500D01*
X113148500Y-82088367D01*
X113148499Y-82088350D01*
X113141990Y-82027807D01*
X113141989Y-82027805D01*
X113141989Y-82027799D01*
X113141986Y-82027792D01*
X113141278Y-82024793D01*
X113141407Y-82022380D01*
X113141147Y-82019961D01*
X113141538Y-82019918D01*
X113145073Y-81953897D01*
X113186594Y-81896308D01*
X113200883Y-81886698D01*
X113292785Y-81833638D01*
X113285380Y-82544500D01*
G37*
%TD.AperFunction*%
%TA.AperFunction,Conductor*%
G36*
X142744505Y-66573138D02*
G01*
X142725102Y-66670683D01*
X142744505Y-66768228D01*
X142797202Y-66847095D01*
X142709885Y-66759778D01*
X142675859Y-66697466D01*
X142680924Y-66626651D01*
X142709885Y-66581588D01*
X142797202Y-66494270D01*
X142744505Y-66573138D01*
G37*
%TD.AperFunction*%
%TA.AperFunction,Conductor*%
G36*
X121466465Y-65393753D02*
G01*
X121521783Y-65405511D01*
X121546834Y-65413651D01*
X121598490Y-65436649D01*
X121621304Y-65449820D01*
X121697611Y-65505261D01*
X121697614Y-65505263D01*
X121765038Y-65542707D01*
X121806318Y-65565632D01*
X121862447Y-65588414D01*
X121982490Y-65620886D01*
X121982493Y-65620886D01*
X122073500Y-65620886D01*
X122141621Y-65640888D01*
X122188114Y-65694544D01*
X122199500Y-65746886D01*
X122199500Y-65822318D01*
X122179498Y-65890439D01*
X122125842Y-65936932D01*
X122062722Y-65947856D01*
X122036987Y-65945646D01*
X121893746Y-65974671D01*
X121826875Y-65998531D01*
X121697615Y-66066736D01*
X121697607Y-66066740D01*
X121621302Y-66122179D01*
X121598490Y-66135349D01*
X121546830Y-66158349D01*
X121521782Y-66166488D01*
X121496161Y-66171934D01*
X121466467Y-66178246D01*
X121440272Y-66181000D01*
X121383728Y-66181000D01*
X121357530Y-66178246D01*
X121325060Y-66171344D01*
X121302216Y-66166488D01*
X121277168Y-66158349D01*
X121251338Y-66146849D01*
X121225510Y-66135350D01*
X121202698Y-66122179D01*
X121156951Y-66088942D01*
X121137377Y-66071317D01*
X121099544Y-66029300D01*
X121084060Y-66007988D01*
X121055784Y-65959012D01*
X121045071Y-65934953D01*
X121027592Y-65881161D01*
X121022117Y-65855403D01*
X121016207Y-65799167D01*
X121016207Y-65772829D01*
X121020193Y-65734906D01*
X121022118Y-65716589D01*
X121027592Y-65690836D01*
X121045072Y-65637041D01*
X121055783Y-65612985D01*
X121084055Y-65564016D01*
X121099532Y-65542711D01*
X121137383Y-65500672D01*
X121156946Y-65483058D01*
X121202701Y-65449815D01*
X121225503Y-65436651D01*
X121277169Y-65413647D01*
X121302213Y-65405511D01*
X121336121Y-65398303D01*
X121357534Y-65393753D01*
X121383729Y-65391000D01*
X121440269Y-65391000D01*
X121466465Y-65393753D01*
G37*
%TD.AperFunction*%
%TA.AperFunction,Conductor*%
G36*
X128258000Y-60221566D02*
G01*
X128237998Y-60289687D01*
X128184342Y-60336180D01*
X128132000Y-60347566D01*
X127876000Y-60347566D01*
X127807879Y-60327564D01*
X127761386Y-60273908D01*
X127750000Y-60221566D01*
X127750000Y-60098080D01*
X127768505Y-60191111D01*
X127823760Y-60273806D01*
X127906455Y-60329061D01*
X127979376Y-60343566D01*
X128028624Y-60343566D01*
X128101545Y-60329061D01*
X128184240Y-60273806D01*
X128239495Y-60191111D01*
X128258000Y-60098080D01*
X128258000Y-60221566D01*
G37*
%TD.AperFunction*%
%TD*%
%TA.AperFunction,Conductor*%
%TO.N,MOTOR_C*%
G36*
X115687621Y-83078002D02*
G01*
X115734114Y-83131658D01*
X115745500Y-83184000D01*
X115745500Y-84047500D01*
X115745500Y-85125802D01*
X115752486Y-85166916D01*
X115757032Y-85193675D01*
X115757033Y-85193677D01*
X115777697Y-85226562D01*
X115805690Y-85271112D01*
X115914096Y-85379518D01*
X115948120Y-85441828D01*
X115951000Y-85468612D01*
X115951000Y-85852000D01*
X115189000Y-85090000D01*
X115189000Y-87122000D01*
X115951000Y-87788750D01*
X115951000Y-87885000D01*
X115930998Y-87953121D01*
X115877342Y-87999614D01*
X115825000Y-88011000D01*
X113274000Y-88011000D01*
X113205879Y-87990998D01*
X113159386Y-87937342D01*
X113148000Y-87885000D01*
X113148000Y-87741000D01*
X111506000Y-87741000D01*
X111506000Y-87233000D01*
X113148000Y-87233000D01*
X113148000Y-87088414D01*
X113147999Y-87088402D01*
X113141494Y-87027905D01*
X113139681Y-87020230D01*
X113141852Y-87019716D01*
X113137595Y-86960222D01*
X113140470Y-86950430D01*
X113141494Y-86946094D01*
X113147999Y-86885597D01*
X113148000Y-86885585D01*
X113148000Y-86741000D01*
X111506000Y-86741000D01*
X111506000Y-86233000D01*
X113148000Y-86233000D01*
X113148000Y-86088414D01*
X113147999Y-86088402D01*
X113141494Y-86027905D01*
X113139681Y-86020230D01*
X113141852Y-86019716D01*
X113137595Y-85960222D01*
X113140470Y-85950430D01*
X113141494Y-85946094D01*
X113147999Y-85885597D01*
X113148000Y-85885585D01*
X113148000Y-85741000D01*
X111506000Y-85741000D01*
X111506000Y-85233000D01*
X113148000Y-85233000D01*
X113148000Y-85088414D01*
X113147999Y-85088402D01*
X113141494Y-85027905D01*
X113139681Y-85020230D01*
X113141852Y-85019716D01*
X113137595Y-84960222D01*
X113140470Y-84950430D01*
X113141494Y-84946094D01*
X113147999Y-84885597D01*
X113148000Y-84885585D01*
X113148000Y-84741000D01*
X111506000Y-84741000D01*
X111506000Y-84233000D01*
X113148000Y-84233000D01*
X113148000Y-84088414D01*
X113147999Y-84088402D01*
X113141494Y-84027905D01*
X113139681Y-84020230D01*
X113141852Y-84019716D01*
X113137595Y-83960222D01*
X113140470Y-83950430D01*
X113141494Y-83946094D01*
X113147999Y-83885597D01*
X113148000Y-83885585D01*
X113148000Y-83741000D01*
X111506000Y-83741000D01*
X111506000Y-83233000D01*
X113148000Y-83233000D01*
X113148000Y-83184000D01*
X113168002Y-83115879D01*
X113221658Y-83069386D01*
X113274000Y-83058000D01*
X115619500Y-83058000D01*
X115687621Y-83078002D01*
G37*
%TD.AperFunction*%
%TD*%
%TA.AperFunction,Conductor*%
%TO.N,MOTOR_A*%
G36*
X114418333Y-93299921D02*
G01*
X114485833Y-93321917D01*
X114491981Y-93326408D01*
X115769856Y-94320310D01*
X115811348Y-94377920D01*
X115818500Y-94419768D01*
X115818500Y-96021748D01*
X115819051Y-96038558D01*
X115820691Y-96063560D01*
X115822337Y-96080271D01*
X115830989Y-96145989D01*
X114935000Y-95250000D01*
X115297357Y-97786500D01*
X113245691Y-97786500D01*
X113177570Y-97766498D01*
X113156596Y-97749595D01*
X113148001Y-97741000D01*
X111633000Y-97741000D01*
X111633000Y-97233000D01*
X113148000Y-97233000D01*
X113148000Y-97088414D01*
X113147999Y-97088402D01*
X113141494Y-97027905D01*
X113139681Y-97020230D01*
X113141852Y-97019716D01*
X113137595Y-96960222D01*
X113140470Y-96950430D01*
X113141494Y-96946094D01*
X113147999Y-96885597D01*
X113148000Y-96885585D01*
X113148000Y-96741000D01*
X111633000Y-96741000D01*
X111633000Y-96233000D01*
X113148000Y-96233000D01*
X113148000Y-96088414D01*
X113147999Y-96088402D01*
X113141494Y-96027905D01*
X113139681Y-96020230D01*
X113141852Y-96019716D01*
X113137595Y-95960222D01*
X113140470Y-95950430D01*
X113141494Y-95946094D01*
X113147999Y-95885597D01*
X113148000Y-95885585D01*
X113148000Y-95741000D01*
X111633000Y-95741000D01*
X111633000Y-95233000D01*
X113148000Y-95233000D01*
X113148000Y-95088414D01*
X113147999Y-95088402D01*
X113141494Y-95027905D01*
X113139681Y-95020230D01*
X113141852Y-95019716D01*
X113137595Y-94960222D01*
X113140470Y-94950430D01*
X113141494Y-94946094D01*
X113147999Y-94885597D01*
X113148000Y-94885585D01*
X113148000Y-94741000D01*
X111633000Y-94741000D01*
X111633000Y-94233000D01*
X113148000Y-94233000D01*
X113148000Y-94088414D01*
X113147999Y-94088402D01*
X113141494Y-94027905D01*
X113139681Y-94020230D01*
X113141852Y-94019716D01*
X113137595Y-93960222D01*
X113140470Y-93950430D01*
X113141494Y-93946094D01*
X113147999Y-93885597D01*
X113148000Y-93885585D01*
X113148000Y-93741000D01*
X111633000Y-93741000D01*
X111633000Y-93233000D01*
X112143000Y-93233000D01*
X114418333Y-93299921D01*
G37*
%TD.AperFunction*%
%TD*%
%TA.AperFunction,Conductor*%
%TO.N,UART_GND*%
G36*
X119527695Y-72857596D02*
G01*
X119558882Y-72875541D01*
X119559043Y-72875301D01*
X119562634Y-72877700D01*
X119563603Y-72878258D01*
X119564191Y-72878741D01*
X119604005Y-72905343D01*
X119613769Y-72911867D01*
X119672252Y-72923500D01*
X122073500Y-72923500D01*
X122141621Y-72943502D01*
X122188114Y-72997158D01*
X122199500Y-73049500D01*
X122199500Y-73271500D01*
X122179498Y-73339621D01*
X122125842Y-73386114D01*
X122073500Y-73397500D01*
X119672242Y-73397500D01*
X119613766Y-73409132D01*
X119613765Y-73409132D01*
X119564195Y-73442255D01*
X119564186Y-73442262D01*
X119236263Y-73770185D01*
X119236260Y-73770189D01*
X119203132Y-73819769D01*
X119191500Y-73878249D01*
X119191500Y-74317757D01*
X119203132Y-74376233D01*
X119203132Y-74376234D01*
X119236255Y-74425804D01*
X119236262Y-74425813D01*
X119564185Y-74753736D01*
X119564193Y-74753742D01*
X119573606Y-74760032D01*
X119619135Y-74814508D01*
X119627984Y-74884951D01*
X119597344Y-74948995D01*
X119551825Y-74981207D01*
X119430113Y-75031622D01*
X119362212Y-75084369D01*
X119362190Y-75084388D01*
X119003389Y-75443189D01*
X119003370Y-75443210D01*
X118950622Y-75511113D01*
X118950621Y-75511114D01*
X118894718Y-75646076D01*
X118885559Y-75719000D01*
X121020000Y-75719000D01*
X121088121Y-75739002D01*
X121134614Y-75792658D01*
X121146000Y-75845000D01*
X121146000Y-75968485D01*
X121127495Y-75875455D01*
X121072240Y-75792760D01*
X120989545Y-75737505D01*
X120916624Y-75723000D01*
X120867376Y-75723000D01*
X120794455Y-75737505D01*
X120711760Y-75792760D01*
X120656505Y-75875455D01*
X120637102Y-75973000D01*
X120656505Y-76070545D01*
X120711760Y-76153240D01*
X120794455Y-76208495D01*
X120867376Y-76223000D01*
X120916624Y-76223000D01*
X120989545Y-76208495D01*
X121072240Y-76153240D01*
X121127495Y-76070545D01*
X121146000Y-75977514D01*
X121146000Y-76981000D01*
X122073500Y-76981000D01*
X122141621Y-77001002D01*
X122188114Y-77054658D01*
X122199500Y-77107000D01*
X122199500Y-85657694D01*
X122179498Y-85725815D01*
X122125842Y-85772308D01*
X122055568Y-85782412D01*
X121990988Y-85752918D01*
X121964381Y-85720694D01*
X121870196Y-85557562D01*
X121870195Y-85557560D01*
X121747050Y-85420793D01*
X121727478Y-85406573D01*
X121598165Y-85312621D01*
X121585533Y-85306997D01*
X121430034Y-85237764D01*
X121250019Y-85199500D01*
X121065981Y-85199500D01*
X121047040Y-85203525D01*
X121016843Y-85209944D01*
X120946052Y-85204541D01*
X120901552Y-85175792D01*
X120762047Y-85036287D01*
X120597575Y-84871814D01*
X120594222Y-84868187D01*
X120562313Y-84830826D01*
X120533283Y-84766038D01*
X120534760Y-84756259D01*
X120483725Y-84725326D01*
X120469315Y-84706173D01*
X120434417Y-84649225D01*
X120425442Y-84631614D01*
X120382532Y-84528020D01*
X120374259Y-84461636D01*
X120376500Y-84446260D01*
X120376500Y-82805449D01*
X120396502Y-82737328D01*
X120450158Y-82690835D01*
X120520432Y-82680731D01*
X120585012Y-82710225D01*
X120613619Y-82746047D01*
X120630621Y-82777855D01*
X120645500Y-82837252D01*
X120645500Y-84446261D01*
X120655427Y-84514394D01*
X120689944Y-84585000D01*
X120698461Y-84634886D01*
X120727001Y-84643488D01*
X120747220Y-84659902D01*
X120789514Y-84702196D01*
X120789517Y-84702198D01*
X120894607Y-84753573D01*
X120962740Y-84763500D01*
X120962745Y-84763500D01*
X121329255Y-84763500D01*
X121329260Y-84763500D01*
X121397393Y-84753573D01*
X121502483Y-84702198D01*
X121585198Y-84619483D01*
X121636573Y-84514393D01*
X121646500Y-84446260D01*
X121646500Y-82729740D01*
X121636573Y-82661607D01*
X121585198Y-82556517D01*
X121585196Y-82556514D01*
X121504636Y-82475954D01*
X121477323Y-82435079D01*
X121476877Y-82434002D01*
X121455854Y-82383250D01*
X121455851Y-82383245D01*
X121455848Y-82383238D01*
X121362179Y-82221006D01*
X121362173Y-82220996D01*
X121248119Y-82072360D01*
X121224190Y-82048431D01*
X121184063Y-82008304D01*
X121179919Y-82003731D01*
X121125045Y-81936869D01*
X121111328Y-81916342D01*
X121074938Y-81848262D01*
X121065491Y-81825455D01*
X121043085Y-81751597D01*
X121038266Y-81727375D01*
X121031855Y-81662311D01*
X121045081Y-81592560D01*
X121080543Y-81549997D01*
X121205282Y-81454282D01*
X121301536Y-81328841D01*
X121362044Y-81182762D01*
X121382682Y-81026000D01*
X121362044Y-80869238D01*
X121301536Y-80723159D01*
X121205282Y-80597718D01*
X121079841Y-80501464D01*
X120976825Y-80458793D01*
X120933760Y-80440955D01*
X120777000Y-80420318D01*
X120620239Y-80440955D01*
X120474160Y-80501463D01*
X120474157Y-80501465D01*
X120348718Y-80597718D01*
X120252465Y-80723157D01*
X120252463Y-80723160D01*
X120191955Y-80869239D01*
X120171318Y-81025998D01*
X120171318Y-81025999D01*
X120173386Y-81041712D01*
X120168299Y-81097080D01*
X120140168Y-81183678D01*
X120140165Y-81183691D01*
X120128217Y-81259172D01*
X120097810Y-81323327D01*
X120037545Y-81360859D01*
X119966556Y-81359851D01*
X119907381Y-81320623D01*
X119878845Y-81255917D01*
X119871104Y-81197117D01*
X119866707Y-81186500D01*
X119810596Y-81051037D01*
X119714342Y-80925596D01*
X119588901Y-80829342D01*
X119493946Y-80790010D01*
X119442820Y-80768833D01*
X119286060Y-80748196D01*
X119129299Y-80768833D01*
X118983220Y-80829341D01*
X118983217Y-80829343D01*
X118857778Y-80925596D01*
X118761525Y-81051035D01*
X118761523Y-81051038D01*
X118701015Y-81197117D01*
X118680378Y-81353877D01*
X118680378Y-81353878D01*
X118701015Y-81510638D01*
X118753934Y-81638394D01*
X118761524Y-81656719D01*
X118857778Y-81782160D01*
X118983219Y-81878414D01*
X119129298Y-81938922D01*
X119286060Y-81959560D01*
X119442822Y-81938922D01*
X119588901Y-81878414D01*
X119714342Y-81782160D01*
X119810596Y-81656719D01*
X119871104Y-81510640D01*
X119871104Y-81510632D01*
X119872792Y-81504338D01*
X119909744Y-81443715D01*
X119973604Y-81412694D01*
X120044099Y-81421122D01*
X120098846Y-81466325D01*
X120120463Y-81533950D01*
X120120499Y-81536949D01*
X120120499Y-81574440D01*
X120120496Y-81574490D01*
X120120496Y-81586055D01*
X120120480Y-81586109D01*
X120120484Y-81731931D01*
X120120485Y-81731945D01*
X120144945Y-81917682D01*
X120193441Y-82098652D01*
X120193444Y-82098662D01*
X120255549Y-82248588D01*
X120263139Y-82319178D01*
X120231361Y-82382665D01*
X120170304Y-82418894D01*
X120120975Y-82421491D01*
X120095175Y-82417732D01*
X120059261Y-82412500D01*
X120059260Y-82412500D01*
X119692740Y-82412500D01*
X119692738Y-82412500D01*
X119624605Y-82422427D01*
X119519517Y-82473801D01*
X119519514Y-82473803D01*
X119436803Y-82556514D01*
X119436801Y-82556517D01*
X119385427Y-82661605D01*
X119375500Y-82729738D01*
X119375500Y-84446261D01*
X119385427Y-84514394D01*
X119436801Y-84619482D01*
X119436803Y-84619485D01*
X119447308Y-84629990D01*
X119479919Y-84686472D01*
X119500560Y-84763500D01*
X119514129Y-84814138D01*
X119605173Y-85033935D01*
X119605174Y-85033938D01*
X119605176Y-85033941D01*
X119605179Y-85033947D01*
X119724127Y-85239972D01*
X119724745Y-85240777D01*
X119724854Y-85241060D01*
X119726417Y-85243399D01*
X119725893Y-85243748D01*
X119750344Y-85306997D01*
X119736078Y-85376546D01*
X119686475Y-85427341D01*
X119617285Y-85443255D01*
X119550475Y-85419236D01*
X119535686Y-85406573D01*
X119436110Y-85306997D01*
X119327581Y-85198468D01*
X119324234Y-85194847D01*
X119239966Y-85096175D01*
X119228346Y-85080180D01*
X119164434Y-84975880D01*
X119155466Y-84958281D01*
X119108651Y-84845248D01*
X119102548Y-84826459D01*
X119101731Y-84823057D01*
X119073997Y-84707522D01*
X119070905Y-84688004D01*
X119065397Y-84617985D01*
X119077812Y-84552768D01*
X119096573Y-84514393D01*
X119106500Y-84446260D01*
X119106500Y-82729740D01*
X119096573Y-82661607D01*
X119045198Y-82556517D01*
X119045196Y-82556514D01*
X118962485Y-82473803D01*
X118962482Y-82473801D01*
X118857394Y-82422427D01*
X118789261Y-82412500D01*
X118789260Y-82412500D01*
X118422740Y-82412500D01*
X118422738Y-82412500D01*
X118354605Y-82422427D01*
X118249519Y-82473800D01*
X118241683Y-82479395D01*
X118174619Y-82502697D01*
X118105603Y-82486043D01*
X118060017Y-82440986D01*
X118010051Y-82356497D01*
X117892503Y-82238949D01*
X117892501Y-82238948D01*
X117749401Y-82154318D01*
X117590000Y-82108007D01*
X117590000Y-85067991D01*
X117749399Y-85021681D01*
X117892500Y-84937052D01*
X117972470Y-84857082D01*
X118034782Y-84823057D01*
X118105598Y-84828121D01*
X118162434Y-84870667D01*
X118183274Y-84913569D01*
X118244146Y-85140776D01*
X118335176Y-85360558D01*
X118335180Y-85360567D01*
X118448907Y-85557562D01*
X118454127Y-85566603D01*
X118524019Y-85657694D01*
X118598948Y-85755350D01*
X118598954Y-85755356D01*
X118631178Y-85787582D01*
X118631215Y-85787624D01*
X118683059Y-85839467D01*
X118728302Y-85884713D01*
X118728332Y-85884740D01*
X120361094Y-87517502D01*
X120395120Y-87579814D01*
X120390055Y-87650629D01*
X120381120Y-87669594D01*
X120353786Y-87716939D01*
X120353783Y-87716946D01*
X120296914Y-87891970D01*
X120277678Y-88075000D01*
X120296914Y-88258028D01*
X120325082Y-88344718D01*
X120353786Y-88433059D01*
X120353789Y-88433064D01*
X120445803Y-88592437D01*
X120445806Y-88592441D01*
X120568950Y-88729207D01*
X120717834Y-88837378D01*
X120717836Y-88837379D01*
X120717839Y-88837381D01*
X120885966Y-88912236D01*
X121065981Y-88950500D01*
X121065985Y-88950500D01*
X121071880Y-88951753D01*
X121134353Y-88985481D01*
X121156482Y-89025552D01*
X121194328Y-88974493D01*
X121244119Y-88951753D01*
X121250014Y-88950500D01*
X121250019Y-88950500D01*
X121430034Y-88912236D01*
X121598161Y-88837381D01*
X121747050Y-88729207D01*
X121870195Y-88592440D01*
X121962214Y-88433059D01*
X121962214Y-88433057D01*
X121964381Y-88429305D01*
X122015764Y-88380312D01*
X122085477Y-88366876D01*
X122151388Y-88393262D01*
X122192570Y-88451094D01*
X122199500Y-88492305D01*
X122199500Y-89657694D01*
X122179498Y-89725815D01*
X122125842Y-89772308D01*
X122055568Y-89782412D01*
X121990988Y-89752918D01*
X121964381Y-89720694D01*
X121870196Y-89557562D01*
X121870195Y-89557560D01*
X121747050Y-89420793D01*
X121729442Y-89408000D01*
X121598165Y-89312621D01*
X121430034Y-89237764D01*
X121250019Y-89199500D01*
X121250014Y-89199500D01*
X121244119Y-89198247D01*
X121181646Y-89164519D01*
X121159516Y-89124447D01*
X121121671Y-89175508D01*
X121071880Y-89198247D01*
X121065985Y-89199500D01*
X121065981Y-89199500D01*
X120921748Y-89230158D01*
X120885965Y-89237764D01*
X120717834Y-89312621D01*
X120568950Y-89420792D01*
X120445806Y-89557558D01*
X120445803Y-89557562D01*
X120353789Y-89716935D01*
X120353786Y-89716942D01*
X120296914Y-89891971D01*
X120277678Y-90075000D01*
X120296914Y-90258028D01*
X120324940Y-90344282D01*
X120353786Y-90433059D01*
X120353789Y-90433064D01*
X120445803Y-90592437D01*
X120445806Y-90592441D01*
X120568950Y-90729207D01*
X120717834Y-90837378D01*
X120717836Y-90837379D01*
X120717839Y-90837381D01*
X120885966Y-90912236D01*
X121065981Y-90950500D01*
X121065985Y-90950500D01*
X121071880Y-90951753D01*
X121134353Y-90985481D01*
X121156482Y-91025552D01*
X121194328Y-90974493D01*
X121244119Y-90951753D01*
X121250014Y-90950500D01*
X121250019Y-90950500D01*
X121430034Y-90912236D01*
X121598161Y-90837381D01*
X121747050Y-90729207D01*
X121870195Y-90592440D01*
X121962214Y-90433059D01*
X121962214Y-90433057D01*
X121964381Y-90429305D01*
X122015764Y-90380312D01*
X122085477Y-90366876D01*
X122151388Y-90393262D01*
X122192570Y-90451094D01*
X122199500Y-90492305D01*
X122199500Y-91657694D01*
X122179498Y-91725815D01*
X122125842Y-91772308D01*
X122055568Y-91782412D01*
X121990988Y-91752918D01*
X121964381Y-91720694D01*
X121903160Y-91614657D01*
X121870195Y-91557560D01*
X121747050Y-91420793D01*
X121747049Y-91420792D01*
X121598165Y-91312621D01*
X121430034Y-91237764D01*
X121408948Y-91233282D01*
X121250019Y-91199500D01*
X121250014Y-91199500D01*
X121244119Y-91198247D01*
X121181646Y-91164519D01*
X121159516Y-91124447D01*
X121121671Y-91175508D01*
X121071880Y-91198247D01*
X121065985Y-91199500D01*
X121065981Y-91199500D01*
X120921748Y-91230158D01*
X120885965Y-91237764D01*
X120717834Y-91312621D01*
X120568950Y-91420792D01*
X120445806Y-91557558D01*
X120445803Y-91557562D01*
X120353789Y-91716935D01*
X120353786Y-91716942D01*
X120296914Y-91891971D01*
X120277678Y-92075000D01*
X120296914Y-92258028D01*
X120325891Y-92347209D01*
X120353786Y-92433059D01*
X120353789Y-92433064D01*
X120445803Y-92592437D01*
X120445810Y-92592447D01*
X120526165Y-92681690D01*
X120556883Y-92745697D01*
X120548118Y-92816151D01*
X120502655Y-92870682D01*
X120437736Y-92891094D01*
X120437764Y-92891626D01*
X120437766Y-92891639D01*
X120437765Y-92891639D01*
X120437775Y-92891820D01*
X120434945Y-92891971D01*
X120434928Y-92891977D01*
X120434825Y-92891977D01*
X120434402Y-92892000D01*
X120373906Y-92898505D01*
X120237035Y-92949555D01*
X120237034Y-92949555D01*
X120204570Y-92973858D01*
X120138049Y-92998668D01*
X120090087Y-92988234D01*
X118496500Y-91318761D01*
X118496500Y-88128251D01*
X118495949Y-88111441D01*
X118494309Y-88086440D01*
X118492663Y-88069727D01*
X118471634Y-87909995D01*
X118465076Y-87877024D01*
X118447859Y-87812770D01*
X118437052Y-87780934D01*
X118433479Y-87772308D01*
X118376945Y-87635821D01*
X118376945Y-87635822D01*
X118376944Y-87635821D01*
X118362066Y-87605651D01*
X118334300Y-87557560D01*
X118328812Y-87548055D01*
X118310135Y-87520103D01*
X118310134Y-87520102D01*
X118310135Y-87520102D01*
X118233930Y-87420792D01*
X118212051Y-87392279D01*
X118201404Y-87379304D01*
X118184892Y-87360473D01*
X118173390Y-87348192D01*
X115951000Y-85125802D01*
X115951000Y-83842000D01*
X116528001Y-83842000D01*
X116528001Y-84479458D01*
X116530934Y-84516750D01*
X116577318Y-84676400D01*
X116661948Y-84819501D01*
X116661949Y-84819503D01*
X116779497Y-84937051D01*
X116922600Y-85021681D01*
X117082000Y-85067991D01*
X117082000Y-83842000D01*
X116528001Y-83842000D01*
X115951000Y-83842000D01*
X115951000Y-83334000D01*
X116528000Y-83334000D01*
X117082000Y-83334000D01*
X117082000Y-82108007D01*
X116922598Y-82154318D01*
X116779498Y-82238948D01*
X116779496Y-82238949D01*
X116661949Y-82356496D01*
X116661948Y-82356498D01*
X116577318Y-82499598D01*
X116530934Y-82659250D01*
X116528000Y-82696539D01*
X116528000Y-83334000D01*
X115951000Y-83334000D01*
X115951000Y-82677000D01*
X113284000Y-82677000D01*
X113296904Y-81438066D01*
X113327304Y-81407666D01*
X113331867Y-81403531D01*
X113426474Y-81325889D01*
X113446997Y-81312176D01*
X113522404Y-81271870D01*
X113546707Y-81258880D01*
X113569522Y-81249428D01*
X113677709Y-81216609D01*
X113701927Y-81211791D01*
X113764289Y-81205648D01*
X113823621Y-81199804D01*
X113829800Y-81199500D01*
X114459295Y-81199500D01*
X114459320Y-81199507D01*
X114459320Y-81199502D01*
X114620365Y-81199502D01*
X114620371Y-81199502D01*
X114836229Y-81171082D01*
X115046530Y-81114731D01*
X115247677Y-81031413D01*
X115436228Y-80922552D01*
X115608958Y-80790013D01*
X115685933Y-80713037D01*
X115719588Y-80679383D01*
X115719588Y-80679382D01*
X115737306Y-80661665D01*
X115737309Y-80661659D01*
X116724052Y-79674917D01*
X116786360Y-79640894D01*
X116857175Y-79645959D01*
X116902238Y-79674920D01*
X116979514Y-79752196D01*
X116979517Y-79752198D01*
X117084607Y-79803573D01*
X117152740Y-79813500D01*
X117152745Y-79813500D01*
X117519255Y-79813500D01*
X117519260Y-79813500D01*
X117587393Y-79803573D01*
X117692483Y-79752198D01*
X117775198Y-79669483D01*
X117826573Y-79564393D01*
X117836500Y-79496260D01*
X117836500Y-77789500D01*
X117856502Y-77721379D01*
X117910158Y-77674886D01*
X117962500Y-77663500D01*
X117979500Y-77663500D01*
X118047621Y-77683502D01*
X118094114Y-77737158D01*
X118105500Y-77789500D01*
X118105500Y-79496261D01*
X118115427Y-79564394D01*
X118166801Y-79669482D01*
X118166803Y-79669485D01*
X118249514Y-79752196D01*
X118249517Y-79752198D01*
X118354607Y-79803573D01*
X118422740Y-79813500D01*
X118422745Y-79813500D01*
X118789255Y-79813500D01*
X118789260Y-79813500D01*
X118857393Y-79803573D01*
X118962483Y-79752198D01*
X119045198Y-79669483D01*
X119096573Y-79564393D01*
X119106500Y-79496260D01*
X119106500Y-78021513D01*
X119126502Y-77953392D01*
X119180158Y-77906899D01*
X119250432Y-77896795D01*
X119252207Y-77897064D01*
X119264412Y-77898996D01*
X119269207Y-77899756D01*
X119333361Y-77930166D01*
X119370890Y-77990433D01*
X119375500Y-78024205D01*
X119375500Y-79496261D01*
X119385427Y-79564394D01*
X119436801Y-79669482D01*
X119436803Y-79669485D01*
X119519514Y-79752196D01*
X119519517Y-79752198D01*
X119624607Y-79803573D01*
X119692740Y-79813500D01*
X119692745Y-79813500D01*
X120059255Y-79813500D01*
X120059260Y-79813500D01*
X120127393Y-79803573D01*
X120232483Y-79752198D01*
X120315198Y-79669483D01*
X120366573Y-79564393D01*
X120376500Y-79496260D01*
X120376500Y-78179661D01*
X120396502Y-78111540D01*
X120450158Y-78065047D01*
X120520432Y-78054943D01*
X120585012Y-78084437D01*
X120591595Y-78090566D01*
X120608595Y-78107566D01*
X120642621Y-78169878D01*
X120645500Y-78196661D01*
X120645500Y-79496261D01*
X120655427Y-79564394D01*
X120706801Y-79669482D01*
X120706803Y-79669485D01*
X120789514Y-79752196D01*
X120789517Y-79752198D01*
X120894607Y-79803573D01*
X120962740Y-79813500D01*
X120962745Y-79813500D01*
X121329255Y-79813500D01*
X121329260Y-79813500D01*
X121397393Y-79803573D01*
X121502483Y-79752198D01*
X121585198Y-79669483D01*
X121636573Y-79564393D01*
X121646500Y-79496260D01*
X121646500Y-77779740D01*
X121636573Y-77711607D01*
X121585198Y-77606517D01*
X121585196Y-77606514D01*
X121502485Y-77523803D01*
X121502482Y-77523801D01*
X121397394Y-77472427D01*
X121329261Y-77462500D01*
X121329260Y-77462500D01*
X120962740Y-77462500D01*
X120962738Y-77462500D01*
X120895011Y-77472368D01*
X120824718Y-77462396D01*
X120787750Y-77436779D01*
X120602851Y-77251880D01*
X120568825Y-77189568D01*
X120567497Y-77182495D01*
X120558662Y-77126710D01*
X120567762Y-77056299D01*
X120613484Y-77001985D01*
X120618596Y-77000404D01*
X120638000Y-76981001D01*
X120638000Y-76227000D01*
X118885559Y-76227000D01*
X118894718Y-76299923D01*
X118950621Y-76434885D01*
X118950622Y-76434886D01*
X119003369Y-76502787D01*
X119003388Y-76502809D01*
X119357314Y-76856735D01*
X119391340Y-76919047D01*
X119386275Y-76989862D01*
X119343728Y-77046698D01*
X119287932Y-77070278D01*
X119246874Y-77076781D01*
X119246872Y-77076781D01*
X119246872Y-77076782D01*
X119126780Y-77137971D01*
X119031471Y-77233280D01*
X118970279Y-77353378D01*
X118969126Y-77356927D01*
X118966554Y-77360687D01*
X118965779Y-77362210D01*
X118965582Y-77362109D01*
X118929053Y-77415533D01*
X118863657Y-77443171D01*
X118793700Y-77431065D01*
X118747356Y-77392051D01*
X118713715Y-77345747D01*
X118713707Y-77345737D01*
X118709325Y-77341355D01*
X118709318Y-77341346D01*
X118705399Y-77337427D01*
X118705376Y-77337385D01*
X118623280Y-77255289D01*
X118623273Y-77255283D01*
X118623269Y-77255279D01*
X118623263Y-77255275D01*
X118623260Y-77255272D01*
X118519784Y-77180095D01*
X118519776Y-77180090D01*
X118405809Y-77122025D01*
X118405803Y-77122022D01*
X118284146Y-77082499D01*
X118157804Y-77062496D01*
X118093846Y-77062500D01*
X117459423Y-77062500D01*
X117391302Y-77042498D01*
X117344809Y-76988842D01*
X117334705Y-76918568D01*
X117364199Y-76853988D01*
X117370314Y-76847418D01*
X117702060Y-76515673D01*
X117738514Y-76479220D01*
X117738513Y-76479219D01*
X117775365Y-76442369D01*
X117775419Y-76442303D01*
X117792550Y-76425170D01*
X117816642Y-76401080D01*
X117951177Y-76225752D01*
X118061677Y-76034364D01*
X118146250Y-75830191D01*
X118203450Y-75616725D01*
X118232298Y-75397619D01*
X118232298Y-75330263D01*
X118232300Y-75330258D01*
X118232300Y-74479971D01*
X118232494Y-74475025D01*
X118236434Y-74424964D01*
X118244264Y-74325477D01*
X118247358Y-74305952D01*
X118280639Y-74167331D01*
X118286743Y-74148544D01*
X118341305Y-74016819D01*
X118350279Y-73999209D01*
X118424770Y-73877652D01*
X118436391Y-73861657D01*
X118514512Y-73770189D01*
X118533837Y-73747562D01*
X118537177Y-73743948D01*
X118554094Y-73727030D01*
X118571867Y-73709259D01*
X119170276Y-73110849D01*
X119394569Y-72886555D01*
X119456880Y-72852532D01*
X119527695Y-72857596D01*
G37*
%TD.AperFunction*%
%TA.AperFunction,Conductor*%
G36*
X122141621Y-67676502D02*
G01*
X122188114Y-67730158D01*
X122199500Y-67782500D01*
X122199500Y-69521500D01*
X122179498Y-69589621D01*
X122125842Y-69636114D01*
X122073500Y-69647500D01*
X119672242Y-69647500D01*
X119613766Y-69659132D01*
X119613765Y-69659132D01*
X119564195Y-69692255D01*
X119564186Y-69692262D01*
X119236264Y-70020184D01*
X119232333Y-70024975D01*
X119230954Y-70023843D01*
X119182938Y-70063946D01*
X119180911Y-70064807D01*
X119151069Y-70077169D01*
X119151061Y-70077173D01*
X118945024Y-70196128D01*
X118756294Y-70340946D01*
X118756281Y-70340958D01*
X118720611Y-70376628D01*
X118672172Y-70425066D01*
X118650606Y-70446633D01*
X117145588Y-71951649D01*
X117145512Y-71951731D01*
X117086956Y-72010287D01*
X116942126Y-72199034D01*
X116823178Y-72405058D01*
X116823175Y-72405064D01*
X116774272Y-72523126D01*
X116732128Y-72624869D01*
X116670556Y-72854655D01*
X116670553Y-72854668D01*
X116639501Y-73090529D01*
X116639500Y-73090540D01*
X116639500Y-73209487D01*
X116639499Y-73279471D01*
X116639500Y-73279484D01*
X116639500Y-74080562D01*
X116619498Y-74148683D01*
X116565842Y-74195176D01*
X116495568Y-74205280D01*
X116430988Y-74175786D01*
X116424405Y-74169657D01*
X116393219Y-74138471D01*
X116333173Y-74107876D01*
X116273126Y-74077281D01*
X116140000Y-74056196D01*
X116006874Y-74077281D01*
X115886780Y-74138472D01*
X115886779Y-74138472D01*
X115877945Y-74142974D01*
X115876696Y-74140524D01*
X115824095Y-74159294D01*
X115816898Y-74159500D01*
X113372724Y-74159500D01*
X113376919Y-73756643D01*
X113489583Y-73726455D01*
X113693758Y-73641882D01*
X113885147Y-73531383D01*
X114060476Y-73396849D01*
X114138611Y-73318715D01*
X114175065Y-73282260D01*
X114205487Y-73251837D01*
X114250313Y-73207011D01*
X114516630Y-72940694D01*
X114578941Y-72906671D01*
X114585997Y-72905346D01*
X114643626Y-72896219D01*
X114763720Y-72835028D01*
X114859028Y-72739720D01*
X114920219Y-72619626D01*
X114941304Y-72486500D01*
X114920219Y-72353374D01*
X114859028Y-72233280D01*
X114763720Y-72137972D01*
X114763719Y-72137971D01*
X114703673Y-72107376D01*
X114643626Y-72076781D01*
X114510500Y-72055696D01*
X114377374Y-72076781D01*
X114377372Y-72076781D01*
X114377372Y-72076782D01*
X114257280Y-72137971D01*
X114161971Y-72233280D01*
X114100781Y-72353373D01*
X114100780Y-72353376D01*
X114092252Y-72407217D01*
X114061839Y-72471369D01*
X114001570Y-72508895D01*
X113930581Y-72507880D01*
X113871410Y-72468647D01*
X113842843Y-72403651D01*
X113842074Y-72391712D01*
X113841803Y-72390003D01*
X113841804Y-72390000D01*
X113820719Y-72256874D01*
X113759528Y-72136780D01*
X113664220Y-72041472D01*
X113664219Y-72041471D01*
X113535290Y-71975779D01*
X113537092Y-71972241D01*
X113494330Y-71942523D01*
X113467191Y-71876918D01*
X113479828Y-71807055D01*
X113528230Y-71755115D01*
X113553533Y-71743675D01*
X113632576Y-71717990D01*
X113794348Y-71635556D01*
X115527752Y-71635556D01*
X115548837Y-71768682D01*
X115610028Y-71888776D01*
X115705336Y-71984084D01*
X115825430Y-72045275D01*
X115958556Y-72066360D01*
X116091682Y-72045275D01*
X116211776Y-71984084D01*
X116307084Y-71888776D01*
X116368275Y-71768682D01*
X116389360Y-71635556D01*
X116368275Y-71502430D01*
X116307084Y-71382336D01*
X116211776Y-71287028D01*
X116211775Y-71287027D01*
X116151729Y-71256432D01*
X116091682Y-71225837D01*
X115958556Y-71204752D01*
X115825430Y-71225837D01*
X115825428Y-71225837D01*
X115825428Y-71225838D01*
X115705336Y-71287027D01*
X115610027Y-71382336D01*
X115564582Y-71471528D01*
X115548837Y-71502430D01*
X115527752Y-71635556D01*
X113794348Y-71635556D01*
X113813509Y-71625792D01*
X113977792Y-71506425D01*
X114012680Y-71471534D01*
X114012690Y-71471528D01*
X114049587Y-71434628D01*
X114058700Y-71425514D01*
X114108073Y-71376140D01*
X114170381Y-71342116D01*
X114177444Y-71340789D01*
X114235070Y-71331663D01*
X114355164Y-71270472D01*
X114450472Y-71175164D01*
X114511663Y-71055070D01*
X114532748Y-70921944D01*
X114511663Y-70788818D01*
X114511661Y-70788815D01*
X114511515Y-70787890D01*
X114520614Y-70717479D01*
X114566336Y-70663165D01*
X114634164Y-70642192D01*
X114702564Y-70661219D01*
X114725059Y-70679084D01*
X114766947Y-70720972D01*
X114887041Y-70782163D01*
X115020167Y-70803248D01*
X115153293Y-70782163D01*
X115273387Y-70720972D01*
X115368695Y-70625664D01*
X115429886Y-70505570D01*
X115432026Y-70492057D01*
X115462436Y-70427906D01*
X115522703Y-70390378D01*
X115565459Y-70386089D01*
X115605752Y-70388971D01*
X115751534Y-70378544D01*
X115888476Y-70327467D01*
X115949799Y-70293982D01*
X116066803Y-70206393D01*
X118579792Y-67693405D01*
X118642104Y-67659379D01*
X118668887Y-67656500D01*
X122073500Y-67656500D01*
X122141621Y-67676502D01*
G37*
%TD.AperFunction*%
%TD*%
%TA.AperFunction,Conductor*%
%TO.N,MOTOR_A*%
G36*
X115830988Y-96145988D02*
G01*
X115843367Y-96240007D01*
X115849925Y-96272982D01*
X115849925Y-96272981D01*
X115867133Y-96337206D01*
X115867133Y-96337207D01*
X115867135Y-96337215D01*
X115867136Y-96337216D01*
X115877944Y-96369056D01*
X115889231Y-96396304D01*
X115938056Y-96514181D01*
X115938056Y-96514182D01*
X115952927Y-96544338D01*
X115952929Y-96544342D01*
X115986187Y-96601944D01*
X116004864Y-96629896D01*
X116102947Y-96757719D01*
X116109225Y-96765370D01*
X116113593Y-96770693D01*
X116130103Y-96789522D01*
X116141608Y-96801806D01*
X117172101Y-97832299D01*
X117206126Y-97894611D01*
X117208969Y-97924466D01*
X117120992Y-101531548D01*
X117094034Y-102636843D01*
X117094117Y-102652129D01*
X117094919Y-102674955D01*
X117095919Y-102690291D01*
X117109868Y-102836687D01*
X117114591Y-102866976D01*
X117127497Y-102926259D01*
X117133910Y-102949070D01*
X117135800Y-102955792D01*
X117135800Y-102955791D01*
X117146241Y-102985901D01*
X117182765Y-103091235D01*
X117194522Y-103119558D01*
X117210520Y-103152411D01*
X117221081Y-103174098D01*
X117221081Y-103174097D01*
X117221085Y-103174105D01*
X117236127Y-103200817D01*
X117315777Y-103324392D01*
X117324452Y-103337007D01*
X117337948Y-103355435D01*
X117347381Y-103367537D01*
X118334960Y-104559443D01*
X120709734Y-107425551D01*
X120722255Y-107439582D01*
X120748053Y-107466447D01*
X120761570Y-107479528D01*
X120878104Y-107584321D01*
X120937508Y-107630344D01*
X120937509Y-107630344D01*
X120968149Y-107650679D01*
X120968148Y-107650679D01*
X120971570Y-107652605D01*
X121033642Y-107687544D01*
X121158501Y-107746240D01*
X121158504Y-107746241D01*
X121226858Y-107772454D01*
X121228684Y-107773154D01*
X121228683Y-107773153D01*
X121263884Y-107783771D01*
X121263885Y-107783771D01*
X121300552Y-107791959D01*
X121337219Y-107800148D01*
X121492267Y-107823024D01*
X121510967Y-107825087D01*
X121548115Y-107827812D01*
X121566903Y-107828500D01*
X121566904Y-107828500D01*
X131749921Y-107828500D01*
X131766238Y-107827981D01*
X131768893Y-107827812D01*
X131790496Y-107826437D01*
X131806721Y-107824885D01*
X131961880Y-107805065D01*
X131961887Y-107805063D01*
X131961892Y-107805063D01*
X131980474Y-107801477D01*
X131993934Y-107798881D01*
X131993933Y-107798881D01*
X131993938Y-107798880D01*
X132056431Y-107782648D01*
X132087430Y-107772456D01*
X132087430Y-107772455D01*
X132087436Y-107772454D01*
X132228980Y-107715725D01*
X132228979Y-107715725D01*
X132228985Y-107715723D01*
X132239231Y-107710840D01*
X132258427Y-107701693D01*
X132258426Y-107701693D01*
X132258430Y-107701690D01*
X132258440Y-107701686D01*
X132314848Y-107670265D01*
X132314853Y-107670262D01*
X132342295Y-107652605D01*
X132422346Y-107593585D01*
X132489045Y-107569259D01*
X132497118Y-107569000D01*
X132971868Y-107569000D01*
X133350000Y-107569000D01*
X134115413Y-105968588D01*
X134124709Y-105952375D01*
X134186374Y-105861266D01*
X134196444Y-105837749D01*
X134241644Y-105783003D01*
X134309269Y-105761384D01*
X134377847Y-105779757D01*
X134425605Y-105832290D01*
X134428097Y-105837747D01*
X134438061Y-105861016D01*
X134438066Y-105861024D01*
X134559350Y-106040221D01*
X134712344Y-106193215D01*
X134891541Y-106314499D01*
X134891544Y-106314501D01*
X135090448Y-106399677D01*
X135301880Y-106445670D01*
X135350486Y-106448566D01*
X136562000Y-106448566D01*
X136562000Y-104756182D01*
X136588616Y-104907133D01*
X136658059Y-105068119D01*
X136762756Y-105208751D01*
X136897062Y-105321448D01*
X137053739Y-105400134D01*
X137224338Y-105440566D01*
X137355684Y-105440566D01*
X137486139Y-105425318D01*
X137650891Y-105365353D01*
X137797373Y-105269011D01*
X137917688Y-105141484D01*
X138005350Y-104989648D01*
X138055634Y-104821689D01*
X138062000Y-104712386D01*
X138062000Y-106448566D01*
X138733050Y-106448566D01*
X138801171Y-106468568D01*
X138847664Y-106522224D01*
X138857768Y-106592498D01*
X138843041Y-106636032D01*
X137714773Y-108655035D01*
X137710220Y-108662046D01*
X137627733Y-108772320D01*
X137604413Y-108796135D01*
X137505844Y-108873150D01*
X137477097Y-108890017D01*
X137361784Y-108938492D01*
X137329621Y-108947231D01*
X137229529Y-108960587D01*
X137193114Y-108965446D01*
X137184775Y-108966000D01*
X119806478Y-108966000D01*
X119799272Y-108965587D01*
X119681020Y-108951983D01*
X119652975Y-108945445D01*
X119607852Y-108929301D01*
X119551151Y-108909014D01*
X119525326Y-108896280D01*
X119434430Y-108837680D01*
X119412167Y-108819411D01*
X119366587Y-108772320D01*
X119329382Y-108733881D01*
X119324680Y-108728431D01*
X116326347Y-104821513D01*
X115442103Y-103669316D01*
X115438230Y-103663655D01*
X115379388Y-103566697D01*
X115367791Y-103541831D01*
X115334662Y-103444247D01*
X115328723Y-103417461D01*
X115316375Y-103304724D01*
X115316000Y-103297859D01*
X115316000Y-102798976D01*
X115336002Y-102730855D01*
X115347684Y-102715426D01*
X115403657Y-102652247D01*
X115565190Y-102418225D01*
X115697338Y-102166438D01*
X115798173Y-101900559D01*
X115866224Y-101624464D01*
X115900500Y-101342179D01*
X115900500Y-101264348D01*
X115901028Y-101256206D01*
X115902373Y-101245874D01*
X115900500Y-101193717D01*
X115900500Y-101144487D01*
X115898812Y-101133835D01*
X115898076Y-101126246D01*
X115791154Y-98148941D01*
X115791329Y-98141478D01*
X115794132Y-98107657D01*
X115794132Y-98107655D01*
X115782151Y-98060346D01*
X115781499Y-98057497D01*
X115771735Y-98009631D01*
X115771734Y-98009629D01*
X115771734Y-98009628D01*
X115768756Y-98001873D01*
X115765417Y-97994261D01*
X115738721Y-97953400D01*
X115737167Y-97950895D01*
X115712402Y-97908816D01*
X115707073Y-97902453D01*
X115701436Y-97896330D01*
X115662918Y-97866349D01*
X115660637Y-97864486D01*
X115623554Y-97832732D01*
X115616437Y-97828439D01*
X115609126Y-97824482D01*
X115562969Y-97808636D01*
X115560207Y-97807615D01*
X115514819Y-97789619D01*
X115506676Y-97787866D01*
X115498489Y-97786500D01*
X115498488Y-97786500D01*
X115449664Y-97786500D01*
X115446723Y-97786431D01*
X115397965Y-97784149D01*
X115397964Y-97784149D01*
X115387598Y-97785384D01*
X115387466Y-97784276D01*
X115371901Y-97786500D01*
X115297357Y-97786500D01*
X114935000Y-95250000D01*
X115830988Y-96145988D01*
G37*
%TD.AperFunction*%
%TA.AperFunction,Conductor*%
G36*
X136562000Y-104668745D02*
G01*
X136562000Y-104648000D01*
X136563208Y-104648000D01*
X136562000Y-104668745D01*
G37*
%TD.AperFunction*%
%TD*%
%TA.AperFunction,Conductor*%
%TO.N,MOTOR_C*%
G36*
X116126736Y-86027736D02*
G01*
X116126740Y-86027740D01*
X116126745Y-86027746D01*
X116965540Y-86866540D01*
X117804342Y-87705342D01*
X117809774Y-87711537D01*
X117892516Y-87819368D01*
X117908963Y-87847854D01*
X117956207Y-87961911D01*
X117964720Y-87993682D01*
X117982460Y-88128429D01*
X117983000Y-88136661D01*
X117983000Y-91821000D01*
X118184382Y-92000006D01*
X119306326Y-92997290D01*
X119706599Y-93353089D01*
X119709275Y-93355612D01*
X119849591Y-93495928D01*
X119937595Y-93583932D01*
X119971621Y-93646244D01*
X119974500Y-93673027D01*
X119974500Y-94798649D01*
X119981009Y-94859196D01*
X119981011Y-94859204D01*
X120032110Y-94996202D01*
X120032112Y-94996207D01*
X120119738Y-95113261D01*
X120236792Y-95200887D01*
X120236794Y-95200888D01*
X120236796Y-95200889D01*
X120295875Y-95222924D01*
X120373795Y-95251988D01*
X120373803Y-95251990D01*
X120434350Y-95258499D01*
X120434355Y-95258499D01*
X120434362Y-95258500D01*
X120434368Y-95258500D01*
X121881632Y-95258500D01*
X121881638Y-95258500D01*
X121881645Y-95258499D01*
X121881649Y-95258499D01*
X121942196Y-95251990D01*
X121942201Y-95251989D01*
X121942204Y-95251988D01*
X122003968Y-95228950D01*
X122074782Y-95223885D01*
X122137094Y-95257909D01*
X122171120Y-95320221D01*
X122174000Y-95347006D01*
X122174000Y-101862252D01*
X122153998Y-101930373D01*
X122110929Y-101971412D01*
X122050300Y-102006363D01*
X121921652Y-102120336D01*
X121818407Y-102257731D01*
X121818405Y-102257734D01*
X121818405Y-102257735D01*
X121787114Y-102323678D01*
X121744725Y-102413011D01*
X121703594Y-102579886D01*
X121696674Y-102751622D01*
X121724243Y-102921258D01*
X121724244Y-102921262D01*
X121775820Y-103057259D01*
X121785189Y-103081962D01*
X121860349Y-103200817D01*
X121877049Y-103227225D01*
X121992418Y-103347338D01*
X121996106Y-103351177D01*
X122137552Y-103448810D01*
X122295669Y-103516177D01*
X122295672Y-103516177D01*
X122301386Y-103518612D01*
X122356216Y-103563715D01*
X122377958Y-103631300D01*
X122367827Y-103684128D01*
X122352889Y-103719012D01*
X122306894Y-103930446D01*
X122306292Y-103940566D01*
X125268316Y-103940566D01*
X125137861Y-103955814D01*
X124973109Y-104015779D01*
X124826627Y-104112121D01*
X124706312Y-104239648D01*
X124618650Y-104391484D01*
X124568366Y-104559443D01*
X124558172Y-104734472D01*
X124588616Y-104907133D01*
X124658059Y-105068119D01*
X124762756Y-105208751D01*
X124897062Y-105321448D01*
X125053739Y-105400134D01*
X125224338Y-105440566D01*
X122307107Y-105440566D01*
X122238986Y-105420564D01*
X122210806Y-105395820D01*
X119415199Y-102082507D01*
X119386558Y-102017544D01*
X119385500Y-102001253D01*
X119385500Y-97145251D01*
X119384949Y-97128441D01*
X119383309Y-97103440D01*
X119381663Y-97086727D01*
X119360634Y-96926995D01*
X119354076Y-96894024D01*
X119336859Y-96829770D01*
X119326052Y-96797934D01*
X119322568Y-96789522D01*
X119265945Y-96652821D01*
X119265945Y-96652822D01*
X119265944Y-96652821D01*
X119251066Y-96622651D01*
X119217814Y-96565059D01*
X119217814Y-96565058D01*
X119199134Y-96537102D01*
X119199135Y-96537102D01*
X119101050Y-96409278D01*
X119090403Y-96396303D01*
X119073892Y-96377473D01*
X119062390Y-96365192D01*
X118152405Y-95455206D01*
X118118379Y-95392894D01*
X118115500Y-95366111D01*
X118115500Y-93843251D01*
X118114949Y-93826441D01*
X118113309Y-93801440D01*
X118111663Y-93784727D01*
X118090634Y-93624995D01*
X118084076Y-93592024D01*
X118066859Y-93527770D01*
X118056052Y-93495934D01*
X118056050Y-93495928D01*
X117995945Y-93350821D01*
X117995945Y-93350822D01*
X117995944Y-93350821D01*
X117981066Y-93320651D01*
X117947814Y-93263059D01*
X117947814Y-93263058D01*
X117929134Y-93235102D01*
X117929135Y-93235102D01*
X117831050Y-93107278D01*
X117820403Y-93094303D01*
X117803892Y-93075473D01*
X117792390Y-93063192D01*
X116241905Y-91512706D01*
X116207879Y-91450394D01*
X116205000Y-91423611D01*
X116205000Y-88179754D01*
X116205000Y-88011000D01*
X116077998Y-87899873D01*
X116034633Y-87861928D01*
X116034630Y-87861926D01*
X115189000Y-87122000D01*
X115189000Y-85090000D01*
X116126736Y-86027736D01*
G37*
%TD.AperFunction*%
%TD*%
%TA.AperFunction,Conductor*%
%TO.N,GNDPWR*%
G36*
X115233070Y-64207185D02*
G01*
X115278825Y-64259989D01*
X115288769Y-64329147D01*
X115272219Y-64375532D01*
X115238288Y-64431800D01*
X115238281Y-64431813D01*
X115181396Y-64566421D01*
X115181396Y-64566425D01*
X115164734Y-64711630D01*
X115164734Y-64711634D01*
X115164734Y-64711635D01*
X115164733Y-64711643D01*
X115166760Y-64782591D01*
X115166761Y-64782597D01*
X115166762Y-64782607D01*
X115166763Y-64782610D01*
X115166764Y-64782618D01*
X115191687Y-64926627D01*
X115192472Y-64929043D01*
X115197857Y-64954383D01*
X115203812Y-65011038D01*
X115203812Y-65036960D01*
X115197858Y-65093614D01*
X115192468Y-65118973D01*
X115174865Y-65173148D01*
X115164320Y-65196830D01*
X115135835Y-65246166D01*
X115120601Y-65267135D01*
X115082483Y-65309471D01*
X115063215Y-65326820D01*
X115017126Y-65360305D01*
X114994677Y-65373266D01*
X114942641Y-65396434D01*
X114917995Y-65404443D01*
X114909226Y-65406307D01*
X114902288Y-65407782D01*
X114875138Y-65415126D01*
X114835642Y-65428168D01*
X114835643Y-65428168D01*
X114783342Y-65448675D01*
X114783339Y-65448676D01*
X114660388Y-65527692D01*
X114607996Y-65573090D01*
X114606903Y-65573986D01*
X114511020Y-65684641D01*
X114511017Y-65684647D01*
X114450303Y-65817592D01*
X114430301Y-65885711D01*
X114430298Y-65885723D01*
X114409500Y-66030384D01*
X114409500Y-66418500D01*
X114389815Y-66485539D01*
X114337011Y-66531294D01*
X114285500Y-66542500D01*
X114105815Y-66542500D01*
X114078966Y-66543907D01*
X114026437Y-66549426D01*
X113999865Y-66553635D01*
X113983612Y-66557089D01*
X113973261Y-66559290D01*
X113947480Y-66562000D01*
X113890521Y-66562000D01*
X113864738Y-66559290D01*
X113838142Y-66553636D01*
X113838143Y-66553636D01*
X113826240Y-66551751D01*
X113811563Y-66549426D01*
X113759036Y-66543907D01*
X113732186Y-66542500D01*
X113264000Y-66542500D01*
X113263991Y-66542500D01*
X113263990Y-66542501D01*
X113154848Y-66554235D01*
X113154836Y-66554237D01*
X113103326Y-66565443D01*
X112999179Y-66600106D01*
X112999175Y-66600108D01*
X112925227Y-66647632D01*
X112858187Y-66667316D01*
X112814855Y-66659498D01*
X112749202Y-66635011D01*
X112688654Y-66628500D01*
X112688638Y-66628500D01*
X112141000Y-66628500D01*
X112141000Y-66237000D01*
X113140000Y-66237000D01*
X113140000Y-66089172D01*
X113139999Y-66089155D01*
X113133597Y-66029622D01*
X113131813Y-66022067D01*
X113133250Y-66021727D01*
X113128874Y-65960658D01*
X113133364Y-65945366D01*
X113133597Y-65944377D01*
X113139999Y-65884844D01*
X113140000Y-65884827D01*
X113140000Y-65737000D01*
X112141000Y-65737000D01*
X112141000Y-65237000D01*
X113140000Y-65237000D01*
X113140000Y-65089172D01*
X113139999Y-65089155D01*
X113133597Y-65029622D01*
X113131813Y-65022067D01*
X113133250Y-65021727D01*
X113128874Y-64960658D01*
X113133364Y-64945366D01*
X113133597Y-64944377D01*
X113139999Y-64884844D01*
X113140000Y-64884827D01*
X113140000Y-64737000D01*
X112141000Y-64737000D01*
X112141000Y-64237000D01*
X113140000Y-64237000D01*
X113153181Y-64223819D01*
X113214504Y-64190334D01*
X113240862Y-64187500D01*
X115166031Y-64187500D01*
X115233070Y-64207185D01*
G37*
%TD.AperFunction*%
%TA.AperFunction,Conductor*%
G36*
X115966877Y-59951031D02*
G01*
X115999592Y-59971970D01*
X116794962Y-60678966D01*
X116831990Y-60738217D01*
X116831107Y-60808081D01*
X116827076Y-60819257D01*
X116818357Y-60840223D01*
X116818356Y-60840225D01*
X116801696Y-60985434D01*
X116803724Y-61056392D01*
X116803725Y-61056399D01*
X116828646Y-61200405D01*
X116828648Y-61200414D01*
X116843468Y-61246025D01*
X116848858Y-61271382D01*
X116854812Y-61328039D01*
X116854812Y-61353960D01*
X116848858Y-61410613D01*
X116843468Y-61435972D01*
X116825415Y-61491531D01*
X116816607Y-61512103D01*
X116813781Y-61517338D01*
X116804011Y-61536740D01*
X116791577Y-61563293D01*
X116791575Y-61563299D01*
X116753077Y-61704278D01*
X116753076Y-61704286D01*
X116751323Y-61718377D01*
X116744311Y-61774741D01*
X116744310Y-61774754D01*
X116747094Y-61920885D01*
X116790936Y-62060312D01*
X116790938Y-62060317D01*
X116821652Y-62124316D01*
X116903000Y-62245746D01*
X116906354Y-62250052D01*
X116911138Y-62257157D01*
X116942320Y-62311166D01*
X116952864Y-62334847D01*
X116970468Y-62389025D01*
X116975858Y-62414384D01*
X116981812Y-62471039D01*
X116981812Y-62496959D01*
X116975858Y-62553616D01*
X116970468Y-62578974D01*
X116952866Y-62633147D01*
X116942323Y-62656828D01*
X116896758Y-62735749D01*
X116848758Y-62847841D01*
X116832025Y-62904830D01*
X116832024Y-62904837D01*
X116811806Y-63025066D01*
X116818881Y-63099171D01*
X116825697Y-63170561D01*
X116825697Y-63170565D01*
X116842433Y-63239553D01*
X116842439Y-63239572D01*
X116896757Y-63375249D01*
X116896759Y-63375252D01*
X116942320Y-63454167D01*
X116952863Y-63477847D01*
X116970467Y-63532024D01*
X116975858Y-63557384D01*
X116981812Y-63614039D01*
X116981812Y-63639959D01*
X116975858Y-63696614D01*
X116970468Y-63721973D01*
X116952864Y-63776151D01*
X116942321Y-63799831D01*
X116913839Y-63849164D01*
X116898601Y-63870137D01*
X116852803Y-63921001D01*
X116850123Y-63924232D01*
X116839528Y-63937002D01*
X116820862Y-63961450D01*
X116808940Y-63978448D01*
X116797018Y-63995446D01*
X116787169Y-64017013D01*
X116741413Y-64069817D01*
X116674375Y-64089500D01*
X115901776Y-64089500D01*
X115834737Y-64069815D01*
X115788982Y-64017011D01*
X115779038Y-63947853D01*
X115782872Y-63934429D01*
X115781950Y-63934196D01*
X115784471Y-63924234D01*
X115784473Y-63924232D01*
X115784473Y-63924229D01*
X115786495Y-63916243D01*
X115788150Y-63908142D01*
X115788153Y-63908136D01*
X115789923Y-63859233D01*
X115790095Y-63856371D01*
X115790693Y-63849164D01*
X115794132Y-63807656D01*
X115793283Y-63797414D01*
X115794373Y-63797323D01*
X115792727Y-63781842D01*
X115793889Y-63749768D01*
X115898054Y-60873834D01*
X115898778Y-60866378D01*
X115900498Y-60855517D01*
X115900500Y-60855514D01*
X115900500Y-60806333D01*
X115901321Y-60783666D01*
X115901017Y-60781325D01*
X115900500Y-60773331D01*
X115900500Y-60657818D01*
X115878874Y-60479720D01*
X115866224Y-60375536D01*
X115798173Y-60099441D01*
X115798172Y-60099438D01*
X115797276Y-60095803D01*
X115798722Y-60095446D01*
X115797682Y-60031663D01*
X115834492Y-59972276D01*
X115897565Y-59942218D01*
X115966877Y-59951031D01*
G37*
%TD.AperFunction*%
%TD*%
%TA.AperFunction,Conductor*%
%TO.N,+24V*%
G36*
X113744522Y-67058709D02*
G01*
X113823513Y-67075500D01*
X114014487Y-67075500D01*
X114093477Y-67058709D01*
X114119258Y-67056000D01*
X114923000Y-67056000D01*
X114923000Y-67143000D01*
X118403999Y-67143000D01*
X115703704Y-69843294D01*
X115642381Y-69876779D01*
X115572689Y-69871795D01*
X115528342Y-69843294D01*
X115480390Y-69795342D01*
X115340435Y-69707402D01*
X115184413Y-69652808D01*
X115020171Y-69634303D01*
X115020163Y-69634303D01*
X114855920Y-69652808D01*
X114699898Y-69707402D01*
X114559943Y-69795342D01*
X114443065Y-69912220D01*
X114443061Y-69912225D01*
X114438821Y-69918974D01*
X114386486Y-69965264D01*
X114333829Y-69977000D01*
X113264000Y-69977000D01*
X113196961Y-69957315D01*
X113151206Y-69904511D01*
X113140000Y-69853000D01*
X113140000Y-69737000D01*
X112995455Y-69737000D01*
X112928416Y-69717315D01*
X112921144Y-69712267D01*
X112886204Y-69686111D01*
X112749203Y-69635011D01*
X112688654Y-69628500D01*
X112688638Y-69628500D01*
X112141000Y-69628500D01*
X112141000Y-69237000D01*
X113140000Y-69237000D01*
X113140000Y-69089172D01*
X113139999Y-69089155D01*
X113133597Y-69029622D01*
X113131813Y-69022067D01*
X113133250Y-69021727D01*
X113128874Y-68960658D01*
X113133364Y-68945366D01*
X113133597Y-68944377D01*
X113139999Y-68884844D01*
X113140000Y-68884827D01*
X113140000Y-68737000D01*
X112141000Y-68737000D01*
X112141000Y-68237000D01*
X113140000Y-68237000D01*
X113140000Y-68089172D01*
X113139999Y-68089155D01*
X113133597Y-68029622D01*
X113131813Y-68022067D01*
X113133250Y-68021727D01*
X113128874Y-67960658D01*
X113133364Y-67945366D01*
X113133597Y-67944377D01*
X113139999Y-67884844D01*
X113140000Y-67884827D01*
X113140000Y-67737000D01*
X112141000Y-67737000D01*
X112141000Y-67345500D01*
X112688638Y-67345500D01*
X112688654Y-67345499D01*
X112715692Y-67342591D01*
X112749201Y-67338989D01*
X112886204Y-67287889D01*
X112921144Y-67261732D01*
X112986608Y-67237316D01*
X112995455Y-67237000D01*
X113140000Y-67237000D01*
X113140000Y-67180000D01*
X113159685Y-67112961D01*
X113212489Y-67067206D01*
X113264000Y-67056000D01*
X113718742Y-67056000D01*
X113744522Y-67058709D01*
G37*
%TD.AperFunction*%
%TD*%
%TA.AperFunction,Conductor*%
%TO.N,MOTOR_B*%
G36*
X116126736Y-92123736D02*
G01*
X116126740Y-92123740D01*
X116126745Y-92123746D01*
X116454797Y-92451797D01*
X117423342Y-93420342D01*
X117428774Y-93426537D01*
X117511516Y-93534368D01*
X117527963Y-93562854D01*
X117575207Y-93676911D01*
X117583720Y-93708682D01*
X117601460Y-93843429D01*
X117602000Y-93851661D01*
X117602000Y-95631000D01*
X117777736Y-95806736D01*
X118693342Y-96722342D01*
X118698774Y-96728537D01*
X118781516Y-96836368D01*
X118797963Y-96864854D01*
X118845207Y-96978911D01*
X118853720Y-97010682D01*
X118871460Y-97145429D01*
X118872000Y-97153661D01*
X118872000Y-102235000D01*
X122301000Y-106299000D01*
X122587060Y-106293278D01*
X122587062Y-106293279D01*
X122811477Y-106288790D01*
X122879982Y-106307426D01*
X122884621Y-106310420D01*
X122891295Y-106314937D01*
X122891297Y-106314938D01*
X122891300Y-106314940D01*
X123090295Y-106400155D01*
X123301820Y-106446169D01*
X123350450Y-106449066D01*
X123350457Y-106449066D01*
X127273543Y-106449066D01*
X127273550Y-106449066D01*
X127322180Y-106446169D01*
X127533705Y-106400155D01*
X127732700Y-106314940D01*
X127891510Y-106207453D01*
X127959132Y-106185838D01*
X127959351Y-106185832D01*
X128651000Y-106172000D01*
X128651000Y-106131871D01*
X128712344Y-106193215D01*
X128891541Y-106314499D01*
X128891544Y-106314501D01*
X129090448Y-106399677D01*
X129301880Y-106445670D01*
X129350486Y-106448566D01*
X130562000Y-106448566D01*
X130562000Y-104756182D01*
X130588616Y-104907133D01*
X130658059Y-105068119D01*
X130762756Y-105208751D01*
X130897062Y-105321448D01*
X131053739Y-105400134D01*
X131224338Y-105440566D01*
X131355684Y-105440566D01*
X131486139Y-105425318D01*
X131650891Y-105365353D01*
X131797373Y-105269011D01*
X131917688Y-105141484D01*
X132005350Y-104989648D01*
X132055634Y-104821689D01*
X132062000Y-104712386D01*
X132062000Y-106448566D01*
X132390175Y-106448566D01*
X132458296Y-106468568D01*
X132504789Y-106522224D01*
X132514893Y-106592498D01*
X132497308Y-106640887D01*
X132258038Y-107027398D01*
X132253399Y-107033925D01*
X132170285Y-107136419D01*
X132147191Y-107158473D01*
X132050708Y-107229608D01*
X132022810Y-107245148D01*
X131911543Y-107289742D01*
X131880636Y-107297770D01*
X131813634Y-107306330D01*
X131749736Y-107314492D01*
X131741757Y-107315000D01*
X121576304Y-107315000D01*
X121557913Y-107313651D01*
X121436452Y-107295731D01*
X121412172Y-107292148D01*
X121376963Y-107281528D01*
X121266517Y-107229608D01*
X121252101Y-107222831D01*
X121221456Y-107202493D01*
X121111916Y-107103991D01*
X121099143Y-107090690D01*
X119224881Y-104828650D01*
X117747682Y-103045823D01*
X117743242Y-103039761D01*
X117676043Y-102935504D01*
X117662904Y-102908523D01*
X117625983Y-102802043D01*
X117619599Y-102772719D01*
X117607832Y-102649231D01*
X117607568Y-102641723D01*
X117622837Y-102015700D01*
X117722730Y-97920066D01*
X117729000Y-97663000D01*
X117547172Y-97481172D01*
X117547163Y-97481162D01*
X116788334Y-96722334D01*
X116510656Y-96444656D01*
X116505225Y-96438462D01*
X116422483Y-96330631D01*
X116406036Y-96302145D01*
X116358790Y-96188082D01*
X116350280Y-96156320D01*
X116332540Y-96021570D01*
X116332000Y-96013338D01*
X116332000Y-94400454D01*
X116332000Y-94400450D01*
X116332000Y-94107000D01*
X114046000Y-92329000D01*
X114046000Y-91059000D01*
X115062000Y-91059000D01*
X116126736Y-92123736D01*
G37*
%TD.AperFunction*%
%TA.AperFunction,Conductor*%
G36*
X130562000Y-104668745D02*
G01*
X130562000Y-104648000D01*
X130563208Y-104648000D01*
X130562000Y-104668745D01*
G37*
%TD.AperFunction*%
%TD*%
%TA.AperFunction,Conductor*%
%TO.N,MOTOR_B*%
G36*
X115633621Y-88285002D02*
G01*
X115680114Y-88338658D01*
X115691500Y-88391000D01*
X115691500Y-91437361D01*
X115692972Y-91464822D01*
X115692973Y-91464831D01*
X115697319Y-91505269D01*
X115706114Y-91559546D01*
X115706117Y-91559557D01*
X115757190Y-91696486D01*
X115757194Y-91696496D01*
X115791221Y-91758809D01*
X115878802Y-91875800D01*
X115878806Y-91875805D01*
X115933277Y-91930276D01*
X115933280Y-91930280D01*
X115951000Y-91947999D01*
X115951000Y-91948000D01*
X115062000Y-91059000D01*
X114046000Y-91059000D01*
X114046000Y-92329000D01*
X114481889Y-92668025D01*
X114457984Y-92667342D01*
X113187999Y-92631056D01*
X113187998Y-92631056D01*
X111506000Y-92583000D01*
X111506000Y-92233000D01*
X113148000Y-92233000D01*
X113148000Y-92088414D01*
X113147999Y-92088402D01*
X113141494Y-92027905D01*
X113139681Y-92020230D01*
X113141852Y-92019716D01*
X113137595Y-91960222D01*
X113140470Y-91950430D01*
X113141494Y-91946094D01*
X113147999Y-91885597D01*
X113148000Y-91885585D01*
X113148000Y-91741000D01*
X111506000Y-91741000D01*
X111506000Y-91233000D01*
X113148000Y-91233000D01*
X113148000Y-91088414D01*
X113147999Y-91088402D01*
X113141494Y-91027905D01*
X113139681Y-91020230D01*
X113141852Y-91019716D01*
X113137595Y-90960222D01*
X113140470Y-90950430D01*
X113141494Y-90946094D01*
X113147999Y-90885597D01*
X113148000Y-90885585D01*
X113148000Y-90741000D01*
X111506000Y-90741000D01*
X111506000Y-90233000D01*
X113148000Y-90233000D01*
X113148000Y-90088414D01*
X113147999Y-90088402D01*
X113141494Y-90027905D01*
X113139681Y-90020230D01*
X113141852Y-90019716D01*
X113137595Y-89960222D01*
X113140470Y-89950430D01*
X113141494Y-89946094D01*
X113147999Y-89885597D01*
X113148000Y-89885585D01*
X113148000Y-89741000D01*
X111506000Y-89741000D01*
X111506000Y-89233000D01*
X113148000Y-89233000D01*
X113148000Y-89088414D01*
X113147999Y-89088402D01*
X113141494Y-89027905D01*
X113139681Y-89020230D01*
X113141852Y-89019716D01*
X113137595Y-88960222D01*
X113140470Y-88950430D01*
X113141494Y-88946094D01*
X113147999Y-88885597D01*
X113148000Y-88885585D01*
X113148000Y-88741000D01*
X111506000Y-88741000D01*
X111506000Y-88265000D01*
X113186818Y-88265000D01*
X115565500Y-88265000D01*
X115633621Y-88285002D01*
G37*
%TD.AperFunction*%
%TD*%
%TA.AperFunction,Conductor*%
%TO.N,GNDPWR*%
G36*
X134420466Y-55741753D02*
G01*
X134475783Y-55753511D01*
X134500830Y-55761649D01*
X134552498Y-55784653D01*
X134575295Y-55797815D01*
X134621049Y-55831057D01*
X134640620Y-55848678D01*
X134678459Y-55890703D01*
X134693939Y-55912010D01*
X134701500Y-55925105D01*
X134708235Y-55936769D01*
X134715927Y-55949255D01*
X134727835Y-55967402D01*
X134744583Y-55991403D01*
X134847427Y-56095254D01*
X134875741Y-56116665D01*
X134904056Y-56138078D01*
X134904063Y-56138082D01*
X134908410Y-56140483D01*
X135031996Y-56208748D01*
X135174660Y-56240510D01*
X135240752Y-56245560D01*
X135240752Y-56245559D01*
X135242216Y-56245671D01*
X135245727Y-56247000D01*
X135257196Y-56247000D01*
X135261998Y-56247183D01*
X135272006Y-56247947D01*
X135285724Y-56247000D01*
X135286504Y-56247000D01*
X135410276Y-56247000D01*
X135436470Y-56249752D01*
X135492942Y-56261756D01*
X135507363Y-56264394D01*
X135518095Y-56266041D01*
X135528827Y-56267689D01*
X135536034Y-56268585D01*
X135557931Y-56271310D01*
X135703923Y-56264358D01*
X135703931Y-56264356D01*
X135703935Y-56264356D01*
X135773637Y-56250923D01*
X135773642Y-56250922D01*
X135911762Y-56203119D01*
X136030818Y-56118341D01*
X136080385Y-56071080D01*
X136082202Y-56069348D01*
X136109817Y-56034230D01*
X136172551Y-55954460D01*
X136197060Y-55912006D01*
X136212535Y-55890707D01*
X136250381Y-55848674D01*
X136269938Y-55831064D01*
X136315706Y-55797812D01*
X136338497Y-55784653D01*
X136390169Y-55761647D01*
X136415213Y-55753511D01*
X136449121Y-55746303D01*
X136470534Y-55741753D01*
X136496729Y-55739000D01*
X136553269Y-55739000D01*
X136579466Y-55741753D01*
X136634783Y-55753511D01*
X136659830Y-55761649D01*
X136711498Y-55784653D01*
X136734295Y-55797815D01*
X136780049Y-55831057D01*
X136799620Y-55848678D01*
X136837459Y-55890703D01*
X136852939Y-55912010D01*
X136860500Y-55925105D01*
X136867235Y-55936769D01*
X136874927Y-55949255D01*
X136886835Y-55967402D01*
X136903583Y-55991403D01*
X137006427Y-56095254D01*
X137034741Y-56116665D01*
X137063056Y-56138078D01*
X137063063Y-56138082D01*
X137067410Y-56140483D01*
X137190996Y-56208748D01*
X137333660Y-56240510D01*
X137399752Y-56245560D01*
X137399752Y-56245559D01*
X137401216Y-56245671D01*
X137404727Y-56247000D01*
X137416196Y-56247000D01*
X137420998Y-56247183D01*
X137431006Y-56247947D01*
X137444724Y-56247000D01*
X137445504Y-56247000D01*
X137569269Y-56247000D01*
X137595466Y-56249753D01*
X137650783Y-56261511D01*
X137675830Y-56269649D01*
X137727498Y-56292653D01*
X137750295Y-56305815D01*
X137796049Y-56339057D01*
X137815619Y-56356677D01*
X137853458Y-56398702D01*
X137868939Y-56420010D01*
X137897216Y-56468987D01*
X137907930Y-56493050D01*
X137925403Y-56546825D01*
X137930880Y-56572593D01*
X137936790Y-56628830D01*
X137936790Y-56655167D01*
X137930880Y-56711406D01*
X137925403Y-56737174D01*
X137907930Y-56790950D01*
X137897216Y-56815013D01*
X137893447Y-56821543D01*
X137868944Y-56863983D01*
X137853462Y-56885292D01*
X137815623Y-56927317D01*
X137796046Y-56944944D01*
X137750300Y-56978180D01*
X137727488Y-56991350D01*
X137675830Y-57014349D01*
X137650782Y-57022488D01*
X137625161Y-57027934D01*
X137595467Y-57034246D01*
X137569272Y-57037000D01*
X137512728Y-57037000D01*
X137486530Y-57034246D01*
X137431220Y-57022489D01*
X137406168Y-57014349D01*
X137354510Y-56991349D01*
X137331700Y-56978180D01*
X137327852Y-56975384D01*
X137285943Y-56944935D01*
X137266376Y-56927318D01*
X137228541Y-56885298D01*
X137213058Y-56863987D01*
X137198764Y-56839228D01*
X137193872Y-56831289D01*
X137191070Y-56826740D01*
X137179149Y-56808575D01*
X137166849Y-56790950D01*
X137162356Y-56784512D01*
X137162351Y-56784506D01*
X137059488Y-56680672D01*
X137002854Y-56637860D01*
X136874911Y-56567215D01*
X136874909Y-56567214D01*
X136732240Y-56535474D01*
X136664793Y-56530331D01*
X136661275Y-56529000D01*
X136649730Y-56529000D01*
X136644938Y-56528818D01*
X136634895Y-56528051D01*
X136621186Y-56529000D01*
X136496731Y-56529000D01*
X136470536Y-56526247D01*
X136414056Y-56514242D01*
X136399628Y-56511604D01*
X136388892Y-56509956D01*
X136378157Y-56508308D01*
X136349050Y-56504688D01*
X136349047Y-56504688D01*
X136349046Y-56504688D01*
X136203063Y-56511643D01*
X136203062Y-56511643D01*
X136133346Y-56525080D01*
X136133341Y-56525082D01*
X135995236Y-56572880D01*
X135995234Y-56572881D01*
X135876183Y-56657656D01*
X135876175Y-56657663D01*
X135824799Y-56706650D01*
X135824795Y-56706654D01*
X135810700Y-56724578D01*
X135734447Y-56821541D01*
X135734446Y-56821543D01*
X135709941Y-56863986D01*
X135694460Y-56885294D01*
X135656623Y-56927317D01*
X135637046Y-56944944D01*
X135591300Y-56978180D01*
X135568488Y-56991350D01*
X135516830Y-57014349D01*
X135491782Y-57022488D01*
X135466161Y-57027934D01*
X135436467Y-57034246D01*
X135410272Y-57037000D01*
X135353728Y-57037000D01*
X135327530Y-57034246D01*
X135272220Y-57022489D01*
X135247168Y-57014349D01*
X135195510Y-56991349D01*
X135172700Y-56978180D01*
X135168852Y-56975384D01*
X135126943Y-56944935D01*
X135107376Y-56927318D01*
X135069541Y-56885298D01*
X135054058Y-56863987D01*
X135039764Y-56839228D01*
X135034872Y-56831289D01*
X135032070Y-56826740D01*
X135020149Y-56808575D01*
X135007849Y-56790950D01*
X135003356Y-56784512D01*
X135003351Y-56784506D01*
X134900488Y-56680672D01*
X134843854Y-56637860D01*
X134715911Y-56567215D01*
X134715909Y-56567214D01*
X134573240Y-56535474D01*
X134505793Y-56530331D01*
X134502275Y-56529000D01*
X134490730Y-56529000D01*
X134485938Y-56528818D01*
X134475895Y-56528051D01*
X134462186Y-56529000D01*
X134337731Y-56529000D01*
X134311536Y-56526247D01*
X134255056Y-56514242D01*
X134240628Y-56511604D01*
X134229892Y-56509956D01*
X134219157Y-56508308D01*
X134190050Y-56504688D01*
X134190047Y-56504688D01*
X134190046Y-56504688D01*
X134044063Y-56511643D01*
X134044062Y-56511643D01*
X133974346Y-56525080D01*
X133974341Y-56525082D01*
X133836236Y-56572880D01*
X133836234Y-56572881D01*
X133717183Y-56657656D01*
X133717175Y-56657663D01*
X133665799Y-56706650D01*
X133665795Y-56706654D01*
X133651700Y-56724578D01*
X133575447Y-56821541D01*
X133575446Y-56821543D01*
X133550941Y-56863986D01*
X133535460Y-56885294D01*
X133497623Y-56927317D01*
X133478046Y-56944944D01*
X133432300Y-56978180D01*
X133409488Y-56991350D01*
X133357830Y-57014349D01*
X133332782Y-57022488D01*
X133307161Y-57027934D01*
X133277467Y-57034246D01*
X133251272Y-57037000D01*
X133194728Y-57037000D01*
X133168530Y-57034246D01*
X133113220Y-57022489D01*
X133088168Y-57014349D01*
X133036510Y-56991349D01*
X133013700Y-56978179D01*
X132967950Y-56944940D01*
X132948374Y-56927315D01*
X132910537Y-56885293D01*
X132895053Y-56863980D01*
X132883389Y-56843777D01*
X132875695Y-56831289D01*
X132869299Y-56821543D01*
X132863776Y-56813126D01*
X132846988Y-56789071D01*
X132744129Y-56685235D01*
X132687495Y-56642420D01*
X132559553Y-56571770D01*
X132559551Y-56571769D01*
X132416884Y-56540025D01*
X132416886Y-56540025D01*
X132348174Y-56534784D01*
X132347048Y-56534660D01*
X132346090Y-56534624D01*
X132336099Y-56535291D01*
X132335318Y-56535344D01*
X132331123Y-56535484D01*
X132172244Y-56535484D01*
X132146046Y-56532730D01*
X132110057Y-56525080D01*
X132090732Y-56520972D01*
X132065684Y-56512833D01*
X132021249Y-56493050D01*
X132014026Y-56489834D01*
X131991214Y-56476663D01*
X131945467Y-56443426D01*
X131925893Y-56425801D01*
X131888060Y-56383784D01*
X131872576Y-56362472D01*
X131844300Y-56313496D01*
X131833587Y-56289437D01*
X131827697Y-56271310D01*
X131816108Y-56235645D01*
X131810633Y-56209887D01*
X131804723Y-56153651D01*
X131804723Y-56127313D01*
X131810634Y-56071073D01*
X131816108Y-56045320D01*
X131833588Y-55991525D01*
X131844299Y-55967469D01*
X131844339Y-55967401D01*
X131872571Y-55918499D01*
X131888048Y-55897195D01*
X131925899Y-55855156D01*
X131945462Y-55837542D01*
X131991217Y-55804299D01*
X132014019Y-55791135D01*
X132065685Y-55768131D01*
X132090729Y-55759995D01*
X132124637Y-55752787D01*
X132146050Y-55748237D01*
X132172245Y-55745484D01*
X132228785Y-55745484D01*
X132254982Y-55748237D01*
X132310299Y-55759995D01*
X132335346Y-55768133D01*
X132387014Y-55791137D01*
X132409811Y-55804299D01*
X132455565Y-55837541D01*
X132475136Y-55855162D01*
X132512974Y-55897186D01*
X132528456Y-55918496D01*
X132532965Y-55926306D01*
X132540120Y-55938698D01*
X132547813Y-55951184D01*
X132559727Y-55969341D01*
X132576499Y-55993377D01*
X132576504Y-55993384D01*
X132576506Y-55993386D01*
X132679360Y-56097228D01*
X132719151Y-56127313D01*
X132732512Y-56137415D01*
X132732629Y-56137517D01*
X132735990Y-56140045D01*
X132735992Y-56140046D01*
X132735993Y-56140047D01*
X132760627Y-56153651D01*
X132862447Y-56209882D01*
X132863936Y-56210704D01*
X133006604Y-56242454D01*
X133077395Y-56247857D01*
X133088141Y-56247140D01*
X133092337Y-56247000D01*
X133127511Y-56247000D01*
X133251276Y-56247000D01*
X133277470Y-56249752D01*
X133333942Y-56261756D01*
X133348363Y-56264394D01*
X133359095Y-56266041D01*
X133369827Y-56267689D01*
X133377034Y-56268585D01*
X133398931Y-56271310D01*
X133544923Y-56264358D01*
X133544931Y-56264356D01*
X133544935Y-56264356D01*
X133614637Y-56250923D01*
X133614642Y-56250922D01*
X133752762Y-56203119D01*
X133871818Y-56118341D01*
X133921385Y-56071080D01*
X133923202Y-56069348D01*
X133950817Y-56034230D01*
X134013551Y-55954460D01*
X134038060Y-55912006D01*
X134053535Y-55890707D01*
X134091381Y-55848674D01*
X134110938Y-55831064D01*
X134156706Y-55797812D01*
X134179497Y-55784653D01*
X134231169Y-55761647D01*
X134256213Y-55753511D01*
X134290121Y-55746303D01*
X134311534Y-55741753D01*
X134337729Y-55739000D01*
X134394269Y-55739000D01*
X134420466Y-55741753D01*
G37*
%TD.AperFunction*%
%TA.AperFunction,Conductor*%
G36*
X128070466Y-54090753D02*
G01*
X128125783Y-54102511D01*
X128150830Y-54110649D01*
X128202498Y-54133653D01*
X128225295Y-54146815D01*
X128271049Y-54180057D01*
X128290619Y-54197677D01*
X128328458Y-54239702D01*
X128343939Y-54261010D01*
X128372216Y-54309987D01*
X128382930Y-54334050D01*
X128400403Y-54387825D01*
X128405880Y-54413593D01*
X128411790Y-54469830D01*
X128411790Y-54496168D01*
X128405880Y-54552405D01*
X128400403Y-54578173D01*
X128382930Y-54631948D01*
X128372216Y-54656011D01*
X128343941Y-54704985D01*
X128328458Y-54726295D01*
X128290623Y-54768315D01*
X128271047Y-54785942D01*
X128225298Y-54819180D01*
X128202488Y-54832349D01*
X128150830Y-54855349D01*
X128125778Y-54863489D01*
X128070468Y-54875246D01*
X128044272Y-54878000D01*
X127987728Y-54878000D01*
X127961530Y-54875246D01*
X127906220Y-54863489D01*
X127881168Y-54855349D01*
X127829510Y-54832349D01*
X127806699Y-54819179D01*
X127760948Y-54785939D01*
X127741373Y-54768314D01*
X127703544Y-54726301D01*
X127688061Y-54704990D01*
X127659784Y-54656013D01*
X127649071Y-54631953D01*
X127631592Y-54578161D01*
X127626117Y-54552403D01*
X127620207Y-54496167D01*
X127620207Y-54469829D01*
X127623207Y-54441285D01*
X127626118Y-54413589D01*
X127631592Y-54387836D01*
X127649072Y-54334041D01*
X127659783Y-54309985D01*
X127688055Y-54261016D01*
X127703532Y-54239711D01*
X127741383Y-54197672D01*
X127760946Y-54180058D01*
X127806701Y-54146815D01*
X127829503Y-54133651D01*
X127881169Y-54110647D01*
X127906213Y-54102511D01*
X127940121Y-54095303D01*
X127961534Y-54090753D01*
X127987729Y-54088000D01*
X128044269Y-54088000D01*
X128070466Y-54090753D01*
G37*
%TD.AperFunction*%
%TA.AperFunction,Conductor*%
G36*
X141659466Y-54090753D02*
G01*
X141714783Y-54102511D01*
X141739830Y-54110649D01*
X141791498Y-54133653D01*
X141814295Y-54146815D01*
X141860049Y-54180057D01*
X141879619Y-54197677D01*
X141917458Y-54239702D01*
X141932939Y-54261010D01*
X141961216Y-54309987D01*
X141971930Y-54334050D01*
X141989403Y-54387825D01*
X141994880Y-54413593D01*
X142000790Y-54469830D01*
X142000790Y-54496168D01*
X141994880Y-54552405D01*
X141989403Y-54578173D01*
X141971930Y-54631948D01*
X141961216Y-54656011D01*
X141932941Y-54704985D01*
X141917458Y-54726295D01*
X141879623Y-54768315D01*
X141860047Y-54785942D01*
X141814298Y-54819180D01*
X141791488Y-54832349D01*
X141739830Y-54855349D01*
X141714778Y-54863489D01*
X141659468Y-54875246D01*
X141633272Y-54878000D01*
X141576728Y-54878000D01*
X141550530Y-54875246D01*
X141495220Y-54863489D01*
X141470168Y-54855349D01*
X141418510Y-54832349D01*
X141395699Y-54819179D01*
X141349948Y-54785939D01*
X141330373Y-54768314D01*
X141292544Y-54726301D01*
X141277061Y-54704990D01*
X141248784Y-54656013D01*
X141238071Y-54631953D01*
X141220592Y-54578161D01*
X141215117Y-54552403D01*
X141209207Y-54496167D01*
X141209207Y-54469829D01*
X141212207Y-54441285D01*
X141215118Y-54413589D01*
X141220592Y-54387836D01*
X141238072Y-54334041D01*
X141248783Y-54309985D01*
X141277055Y-54261016D01*
X141292532Y-54239711D01*
X141330383Y-54197672D01*
X141349946Y-54180058D01*
X141395701Y-54146815D01*
X141418503Y-54133651D01*
X141470169Y-54110647D01*
X141495213Y-54102511D01*
X141529121Y-54095303D01*
X141550534Y-54090753D01*
X141576729Y-54088000D01*
X141633269Y-54088000D01*
X141659466Y-54090753D01*
G37*
%TD.AperFunction*%
%TD*%
%TA.AperFunction,Conductor*%
%TO.N,+24V*%
G36*
X124740121Y-56662002D02*
G01*
X124747600Y-56667200D01*
X126697144Y-58129358D01*
X126739639Y-58186232D01*
X126747506Y-58227049D01*
X126823861Y-61320391D01*
X126805546Y-61388984D01*
X126753054Y-61436787D01*
X126697899Y-61449500D01*
X126083399Y-61449500D01*
X126015278Y-61429498D01*
X125968785Y-61375842D01*
X125958681Y-61305568D01*
X125968679Y-61271392D01*
X126009202Y-61182176D01*
X126009205Y-61182167D01*
X126064532Y-60962593D01*
X126075000Y-60829613D01*
X126075000Y-60515000D01*
X124626382Y-60515000D01*
X124672688Y-60465918D01*
X124760350Y-60314082D01*
X124810634Y-60146123D01*
X124820828Y-59971094D01*
X124790384Y-59798433D01*
X124720941Y-59637447D01*
X124629782Y-59515000D01*
X126075000Y-59515000D01*
X126075000Y-59200387D01*
X126064532Y-59067406D01*
X126009205Y-58847832D01*
X126009202Y-58847823D01*
X125915558Y-58641659D01*
X125915555Y-58641653D01*
X125786605Y-58455526D01*
X125786591Y-58455509D01*
X125626490Y-58295408D01*
X125626473Y-58295394D01*
X125440346Y-58166444D01*
X125440340Y-58166441D01*
X125234176Y-58072797D01*
X125234167Y-58072794D01*
X125014593Y-58017467D01*
X124881613Y-58007000D01*
X124567000Y-58007000D01*
X124567000Y-59455494D01*
X124481938Y-59384118D01*
X124325261Y-59305432D01*
X124154662Y-59265000D01*
X124023316Y-59265000D01*
X123892861Y-59280248D01*
X123728109Y-59340213D01*
X123581627Y-59436555D01*
X123567000Y-59452058D01*
X123567000Y-58007000D01*
X123252387Y-58007000D01*
X123119406Y-58017467D01*
X122899832Y-58072794D01*
X122899823Y-58072797D01*
X122693659Y-58166441D01*
X122693653Y-58166444D01*
X122507526Y-58295394D01*
X122507509Y-58295408D01*
X122347408Y-58455509D01*
X122347394Y-58455526D01*
X122218444Y-58641653D01*
X122218441Y-58641659D01*
X122124797Y-58847823D01*
X122124794Y-58847832D01*
X122069467Y-59067406D01*
X122059000Y-59200387D01*
X122059000Y-59515000D01*
X123507618Y-59515000D01*
X123461312Y-59564082D01*
X123373650Y-59715918D01*
X123323366Y-59883877D01*
X123313172Y-60058906D01*
X123343616Y-60231567D01*
X123413059Y-60392553D01*
X123504218Y-60515000D01*
X122059000Y-60515000D01*
X122059000Y-60829613D01*
X122069467Y-60962593D01*
X122124794Y-61182167D01*
X122124797Y-61182176D01*
X122213948Y-61378450D01*
X122223909Y-61448745D01*
X122194283Y-61513265D01*
X122148618Y-61546474D01*
X122137559Y-61551185D01*
X122137553Y-61551188D01*
X121996102Y-61648826D01*
X121877049Y-61772774D01*
X121785189Y-61918038D01*
X121785187Y-61918041D01*
X121724244Y-62078737D01*
X121724243Y-62078741D01*
X121696674Y-62248377D01*
X121696674Y-62248381D01*
X121696674Y-62248383D01*
X121703594Y-62420114D01*
X121744725Y-62586989D01*
X121818405Y-62742265D01*
X121818406Y-62742267D01*
X121818407Y-62742268D01*
X121903535Y-62855554D01*
X121921654Y-62879665D01*
X122050300Y-62993636D01*
X122115132Y-63031010D01*
X122133195Y-63043650D01*
X122147498Y-63055653D01*
X122175617Y-63089165D01*
X122179380Y-63095682D01*
X122194346Y-63136790D01*
X122197583Y-63155136D01*
X122199500Y-63177025D01*
X122199500Y-64987895D01*
X122179498Y-65056016D01*
X122125842Y-65102509D01*
X122055568Y-65112613D01*
X121999439Y-65089831D01*
X121868752Y-64994882D01*
X121694288Y-64917206D01*
X121507487Y-64877500D01*
X121316513Y-64877500D01*
X121129711Y-64917206D01*
X120955247Y-64994882D01*
X120800744Y-65107135D01*
X120672965Y-65249048D01*
X120672958Y-65249058D01*
X120577476Y-65414438D01*
X120577473Y-65414445D01*
X120518457Y-65596072D01*
X120498496Y-65786000D01*
X120518457Y-65975927D01*
X120536152Y-66030385D01*
X120577473Y-66157556D01*
X120577476Y-66157561D01*
X120672958Y-66322941D01*
X120672965Y-66322951D01*
X120800744Y-66464864D01*
X120824561Y-66482168D01*
X120955248Y-66577118D01*
X121129712Y-66654794D01*
X121316513Y-66694500D01*
X121507487Y-66694500D01*
X121694288Y-66654794D01*
X121868752Y-66577118D01*
X121999439Y-66482168D01*
X122066307Y-66458309D01*
X122135458Y-66474390D01*
X122184939Y-66525304D01*
X122199500Y-66584104D01*
X122199500Y-67017000D01*
X122179498Y-67085121D01*
X122125842Y-67131614D01*
X122073500Y-67143000D01*
X114923000Y-67143000D01*
X114923000Y-66030385D01*
X114943002Y-65962264D01*
X114996658Y-65915771D01*
X115022801Y-65907138D01*
X115090288Y-65892794D01*
X115264752Y-65815118D01*
X115419253Y-65702866D01*
X115547040Y-65560944D01*
X115642527Y-65395556D01*
X115701542Y-65213928D01*
X115721504Y-65024000D01*
X115701542Y-64834072D01*
X115680052Y-64767936D01*
X115678025Y-64696969D01*
X115714687Y-64636171D01*
X115778399Y-64604846D01*
X115799886Y-64603000D01*
X117209000Y-64603000D01*
X117209000Y-64341186D01*
X117229002Y-64273065D01*
X117241360Y-64256879D01*
X117325040Y-64163944D01*
X117420527Y-63998556D01*
X117479542Y-63816928D01*
X117499504Y-63627000D01*
X117479542Y-63437072D01*
X117420527Y-63255444D01*
X117341461Y-63118499D01*
X117324724Y-63049505D01*
X117341462Y-62992500D01*
X117420527Y-62855556D01*
X117479542Y-62673928D01*
X117499504Y-62484000D01*
X117479542Y-62294072D01*
X117420527Y-62112444D01*
X117325040Y-61947056D01*
X117325038Y-61947054D01*
X117325034Y-61947048D01*
X117284601Y-61902143D01*
X117253883Y-61838136D01*
X117262648Y-61767682D01*
X117269119Y-61754831D01*
X117293525Y-61712559D01*
X117293527Y-61712556D01*
X117352542Y-61530928D01*
X117372504Y-61341000D01*
X117352542Y-61151072D01*
X117317015Y-61041732D01*
X117314987Y-60970764D01*
X117349542Y-60911945D01*
X121756424Y-56677148D01*
X121819401Y-56644371D01*
X121843728Y-56642000D01*
X124672000Y-56642000D01*
X124740121Y-56662002D01*
G37*
%TD.AperFunction*%
%TD*%
M02*
