%TF.GenerationSoftware,KiCad,Pcbnew,7.0.9*%
%TF.CreationDate,2024-04-13T12:05:23+02:00*%
%TF.ProjectId,MotorDriverCarrier-rounded,4d6f746f-7244-4726-9976-657243617272,rev?*%
%TF.SameCoordinates,Original*%
%TF.FileFunction,Soldermask,Top*%
%TF.FilePolarity,Negative*%
%FSLAX46Y46*%
G04 Gerber Fmt 4.6, Leading zero omitted, Abs format (unit mm)*
G04 Created by KiCad (PCBNEW 7.0.9) date 2024-04-13 12:05:23*
%MOMM*%
%LPD*%
G01*
G04 APERTURE LIST*
G04 Aperture macros list*
%AMRoundRect*
0 Rectangle with rounded corners*
0 $1 Rounding radius*
0 $2 $3 $4 $5 $6 $7 $8 $9 X,Y pos of 4 corners*
0 Add a 4 corners polygon primitive as box body*
4,1,4,$2,$3,$4,$5,$6,$7,$8,$9,$2,$3,0*
0 Add four circle primitives for the rounded corners*
1,1,$1+$1,$2,$3*
1,1,$1+$1,$4,$5*
1,1,$1+$1,$6,$7*
1,1,$1+$1,$8,$9*
0 Add four rect primitives between the rounded corners*
20,1,$1+$1,$2,$3,$4,$5,0*
20,1,$1+$1,$4,$5,$6,$7,0*
20,1,$1+$1,$6,$7,$8,$9,0*
20,1,$1+$1,$8,$9,$2,$3,0*%
%AMOutline5P*
0 Free polygon, 5 corners , with rotation*
0 The origin of the aperture is its center*
0 number of corners: always 5*
0 $1 to $10 corner X, Y*
0 $11 Rotation angle, in degrees counterclockwise*
0 create outline with 5 corners*
4,1,5,$1,$2,$3,$4,$5,$6,$7,$8,$9,$10,$1,$2,$11*%
%AMOutline6P*
0 Free polygon, 6 corners , with rotation*
0 The origin of the aperture is its center*
0 number of corners: always 6*
0 $1 to $12 corner X, Y*
0 $13 Rotation angle, in degrees counterclockwise*
0 create outline with 6 corners*
4,1,6,$1,$2,$3,$4,$5,$6,$7,$8,$9,$10,$11,$12,$1,$2,$13*%
%AMOutline7P*
0 Free polygon, 7 corners , with rotation*
0 The origin of the aperture is its center*
0 number of corners: always 7*
0 $1 to $14 corner X, Y*
0 $15 Rotation angle, in degrees counterclockwise*
0 create outline with 7 corners*
4,1,7,$1,$2,$3,$4,$5,$6,$7,$8,$9,$10,$11,$12,$13,$14,$1,$2,$15*%
%AMOutline8P*
0 Free polygon, 8 corners , with rotation*
0 The origin of the aperture is its center*
0 number of corners: always 8*
0 $1 to $16 corner X, Y*
0 $17 Rotation angle, in degrees counterclockwise*
0 create outline with 8 corners*
4,1,8,$1,$2,$3,$4,$5,$6,$7,$8,$9,$10,$11,$12,$13,$14,$15,$16,$1,$2,$17*%
%AMFreePoly0*
4,1,19,0.000000,0.744911,0.071157,0.744911,0.207708,0.704816,0.327430,0.627875,0.420627,0.520320,0.479746,0.390866,0.500000,0.250000,0.500000,-0.250000,0.479746,-0.390866,0.420627,-0.520320,0.327430,-0.627875,0.207708,-0.704816,0.071157,-0.744911,0.000000,-0.744911,0.000000,-0.750000,-0.500000,-0.750000,-0.500000,0.750000,0.000000,0.750000,0.000000,0.744911,0.000000,0.744911,
$1*%
%AMFreePoly1*
4,1,19,0.500000,-0.750000,0.000000,-0.750000,0.000000,-0.744911,-0.071157,-0.744911,-0.207708,-0.704816,-0.327430,-0.627875,-0.420627,-0.520320,-0.479746,-0.390866,-0.500000,-0.250000,-0.500000,0.250000,-0.479746,0.390866,-0.420627,0.520320,-0.327430,0.627875,-0.207708,0.704816,-0.071157,0.744911,0.000000,0.744911,0.000000,0.750000,0.500000,0.750000,0.500000,-0.750000,0.500000,-0.750000,
$1*%
%AMFreePoly2*
4,1,6,1.000000,0.000000,0.500000,-0.750000,-0.500000,-0.750000,-0.500000,0.750000,0.500000,0.750000,1.000000,0.000000,1.000000,0.000000,$1*%
%AMFreePoly3*
4,1,6,0.500000,-0.750000,-0.650000,-0.750000,-0.150000,0.000000,-0.650000,0.750000,0.500000,0.750000,0.500000,-0.750000,0.500000,-0.750000,$1*%
G04 Aperture macros list end*
%ADD10RoundRect,0.237500X-0.237500X0.250000X-0.237500X-0.250000X0.237500X-0.250000X0.237500X0.250000X0*%
%ADD11O,1.350000X1.350000*%
%ADD12R,1.350000X1.350000*%
%ADD13RoundRect,0.237500X0.300000X0.237500X-0.300000X0.237500X-0.300000X-0.237500X0.300000X-0.237500X0*%
%ADD14RoundRect,0.237500X0.237500X-0.287500X0.237500X0.287500X-0.237500X0.287500X-0.237500X-0.287500X0*%
%ADD15FreePoly0,0.000000*%
%ADD16FreePoly1,0.000000*%
%ADD17Outline6P,-0.500000X1.200000X-0.200000X1.500000X0.200000X1.500000X0.500000X1.200000X0.500000X-1.500000X-0.500000X-1.500000X0.000000*%
%ADD18C,3.200000*%
%ADD19C,1.000000*%
%ADD20Outline6P,-0.350000X0.290000X-0.140000X0.500000X0.140000X0.500000X0.350000X0.290000X0.350000X-0.500000X-0.350000X-0.500000X270.000000*%
%ADD21R,4.300000X0.700000*%
%ADD22R,3.200000X0.700000*%
%ADD23FreePoly2,270.000000*%
%ADD24FreePoly3,270.000000*%
%ADD25RoundRect,0.625000X1.875000X0.625000X-1.875000X0.625000X-1.875000X-0.625000X1.875000X-0.625000X0*%
%ADD26Outline6P,-0.500000X1.200000X-0.200000X1.500000X0.200000X1.500000X0.500000X1.200000X0.500000X-1.500000X-0.500000X-1.500000X90.000000*%
%ADD27RoundRect,0.750000X0.750000X0.750000X-0.750000X0.750000X-0.750000X-0.750000X0.750000X-0.750000X0*%
G04 APERTURE END LIST*
D10*
%TO.C,R1*%
X143002000Y-85447500D03*
X143002000Y-87272500D03*
%TD*%
D11*
%TO.C,J2*%
X121158000Y-86075000D03*
X121158000Y-88075000D03*
X121158000Y-90075000D03*
X121158000Y-92075000D03*
D12*
X121158000Y-94075000D03*
%TD*%
D10*
%TO.C,R6*%
X143002000Y-73994000D03*
X143002000Y-75819000D03*
%TD*%
D13*
%TO.C,C1*%
X120865500Y-79335000D03*
X119140500Y-79335000D03*
%TD*%
D14*
%TO.C,D1*%
X143002000Y-90791000D03*
X143002000Y-89041000D03*
%TD*%
D15*
%TO.C,JP2*%
X121542000Y-83185000D03*
D16*
X120242000Y-83185000D03*
%TD*%
D17*
%TO.C,J13*%
X128004000Y-60093566D03*
X129879000Y-60093566D03*
X131754000Y-60093566D03*
X133629000Y-60093566D03*
X135504000Y-60093566D03*
%TD*%
D18*
%TO.C,H1*%
X112050594Y-55298811D03*
%TD*%
D19*
%TO.C,J1*%
X142980000Y-66670683D03*
D20*
X141980000Y-66870683D03*
D19*
X142980000Y-68170683D03*
D20*
X141980000Y-68220683D03*
D19*
X142980000Y-69670683D03*
D20*
X141980000Y-69570683D03*
D19*
X142980000Y-71170683D03*
D20*
X141980000Y-70920683D03*
D19*
X142980000Y-82347317D03*
%TD*%
D14*
%TO.C,D2*%
X143002000Y-100570000D03*
X143002000Y-98820000D03*
%TD*%
D10*
%TO.C,R2*%
X143002000Y-95226500D03*
X143002000Y-97051500D03*
%TD*%
D14*
%TO.C,D3*%
X143002000Y-79337500D03*
X143002000Y-77587500D03*
%TD*%
D18*
%TO.C,H2*%
X112040303Y-106701283D03*
%TD*%
D21*
%TO.C,J15*%
X110490000Y-64487000D03*
X110490000Y-65487000D03*
X110490000Y-66487000D03*
X110490000Y-67487000D03*
X110490000Y-68487000D03*
X110490000Y-69487000D03*
X110490000Y-70487000D03*
X110490000Y-71487000D03*
X110490000Y-72487000D03*
X110490000Y-73487000D03*
X110490000Y-74487000D03*
X110490000Y-77487000D03*
X110490000Y-78487000D03*
X110490000Y-79487000D03*
X110490000Y-80487000D03*
X110490000Y-81487000D03*
X110490000Y-82487000D03*
X110490000Y-83487000D03*
X110490000Y-84487000D03*
X110490000Y-85487000D03*
X110490000Y-86487000D03*
X110490000Y-87487000D03*
X110490000Y-88487000D03*
X110490000Y-89487000D03*
X110490000Y-90487000D03*
X110490000Y-91487000D03*
X110490000Y-92487000D03*
X110490000Y-93487000D03*
X110490000Y-94487000D03*
X110490000Y-95487000D03*
D22*
X111040000Y-96487000D03*
D21*
X110490000Y-97487000D03*
%TD*%
D19*
%TO.C,TP3*%
X117221000Y-69977000D03*
%TD*%
%TO.C,TP2*%
X117221000Y-72517000D03*
%TD*%
D23*
%TO.C,JP1*%
X119495000Y-64386000D03*
D24*
X119495000Y-65836000D03*
%TD*%
D25*
%TO.C,J10*%
X137312000Y-104690566D03*
X131312000Y-104690566D03*
X125312000Y-104690566D03*
%TD*%
D19*
%TO.C,TP1*%
X117221000Y-75057000D03*
%TD*%
D26*
%TO.C,J14*%
X120892000Y-75973000D03*
X120892000Y-74098000D03*
X120892000Y-72223000D03*
X120892000Y-70348000D03*
%TD*%
D27*
%TO.C,J11*%
X139067000Y-60015000D03*
X124067000Y-60015000D03*
%TD*%
M02*
