%TF.GenerationSoftware,KiCad,Pcbnew,7.0.9*%
%TF.CreationDate,2024-04-13T12:05:23+02:00*%
%TF.ProjectId,MotorDriverCarrier-rounded,4d6f746f-7244-4726-9976-657243617272,rev?*%
%TF.SameCoordinates,Original*%
%TF.FileFunction,Copper,L2,Inr*%
%TF.FilePolarity,Positive*%
%FSLAX46Y46*%
G04 Gerber Fmt 4.6, Leading zero omitted, Abs format (unit mm)*
G04 Created by KiCad (PCBNEW 7.0.9) date 2024-04-13 12:05:23*
%MOMM*%
%LPD*%
G01*
G04 APERTURE LIST*
G04 Aperture macros list*
%AMRoundRect*
0 Rectangle with rounded corners*
0 $1 Rounding radius*
0 $2 $3 $4 $5 $6 $7 $8 $9 X,Y pos of 4 corners*
0 Add a 4 corners polygon primitive as box body*
4,1,4,$2,$3,$4,$5,$6,$7,$8,$9,$2,$3,0*
0 Add four circle primitives for the rounded corners*
1,1,$1+$1,$2,$3*
1,1,$1+$1,$4,$5*
1,1,$1+$1,$6,$7*
1,1,$1+$1,$8,$9*
0 Add four rect primitives between the rounded corners*
20,1,$1+$1,$2,$3,$4,$5,0*
20,1,$1+$1,$4,$5,$6,$7,0*
20,1,$1+$1,$6,$7,$8,$9,0*
20,1,$1+$1,$8,$9,$2,$3,0*%
%AMOutline5P*
0 Free polygon, 5 corners , with rotation*
0 The origin of the aperture is its center*
0 number of corners: always 5*
0 $1 to $10 corner X, Y*
0 $11 Rotation angle, in degrees counterclockwise*
0 create outline with 5 corners*
4,1,5,$1,$2,$3,$4,$5,$6,$7,$8,$9,$10,$1,$2,$11*%
%AMOutline6P*
0 Free polygon, 6 corners , with rotation*
0 The origin of the aperture is its center*
0 number of corners: always 6*
0 $1 to $12 corner X, Y*
0 $13 Rotation angle, in degrees counterclockwise*
0 create outline with 6 corners*
4,1,6,$1,$2,$3,$4,$5,$6,$7,$8,$9,$10,$11,$12,$1,$2,$13*%
%AMOutline7P*
0 Free polygon, 7 corners , with rotation*
0 The origin of the aperture is its center*
0 number of corners: always 7*
0 $1 to $14 corner X, Y*
0 $15 Rotation angle, in degrees counterclockwise*
0 create outline with 7 corners*
4,1,7,$1,$2,$3,$4,$5,$6,$7,$8,$9,$10,$11,$12,$13,$14,$1,$2,$15*%
%AMOutline8P*
0 Free polygon, 8 corners , with rotation*
0 The origin of the aperture is its center*
0 number of corners: always 8*
0 $1 to $16 corner X, Y*
0 $17 Rotation angle, in degrees counterclockwise*
0 create outline with 8 corners*
4,1,8,$1,$2,$3,$4,$5,$6,$7,$8,$9,$10,$11,$12,$13,$14,$15,$16,$1,$2,$17*%
G04 Aperture macros list end*
%TA.AperFunction,ComponentPad*%
%ADD10O,1.350000X1.350000*%
%TD*%
%TA.AperFunction,ComponentPad*%
%ADD11R,1.350000X1.350000*%
%TD*%
%TA.AperFunction,ComponentPad*%
%ADD12Outline6P,-0.500000X1.200000X-0.200000X1.500000X0.200000X1.500000X0.500000X1.200000X0.500000X-1.500000X-0.500000X-1.500000X0.000000*%
%TD*%
%TA.AperFunction,ComponentPad*%
%ADD13C,1.000000*%
%TD*%
%TA.AperFunction,ComponentPad*%
%ADD14RoundRect,0.625000X1.875000X0.625000X-1.875000X0.625000X-1.875000X-0.625000X1.875000X-0.625000X0*%
%TD*%
%TA.AperFunction,ComponentPad*%
%ADD15Outline6P,-0.500000X1.200000X-0.200000X1.500000X0.200000X1.500000X0.500000X1.200000X0.500000X-1.500000X-0.500000X-1.500000X90.000000*%
%TD*%
%TA.AperFunction,ComponentPad*%
%ADD16RoundRect,0.750000X0.750000X0.750000X-0.750000X0.750000X-0.750000X-0.750000X0.750000X-0.750000X0*%
%TD*%
%TA.AperFunction,ViaPad*%
%ADD17C,0.800000*%
%TD*%
%TA.AperFunction,ViaPad*%
%ADD18C,0.450000*%
%TD*%
%TA.AperFunction,Conductor*%
%ADD19C,0.508000*%
%TD*%
%TA.AperFunction,Conductor*%
%ADD20C,0.250000*%
%TD*%
%TA.AperFunction,Conductor*%
%ADD21C,0.254000*%
%TD*%
G04 APERTURE END LIST*
D10*
%TO.N,A*%
%TO.C,J2*%
X121158000Y-86075000D03*
%TO.N,B*%
X121158000Y-88075000D03*
%TO.N,Z*%
X121158000Y-90075000D03*
%TO.N,+5V*%
X121158000Y-92075000D03*
D11*
%TO.N,UART_GND*%
X121158000Y-94075000D03*
%TD*%
D12*
%TO.N,UART_GND*%
%TO.C,J13*%
X128004000Y-60093566D03*
%TO.N,OK*%
X129879000Y-60093566D03*
%TO.N,UART_RX*%
X131754000Y-60093566D03*
%TO.N,UART_TX*%
X133629000Y-60093566D03*
%TO.N,UART_VCC*%
X135504000Y-60093566D03*
%TD*%
D13*
%TO.N,UART_GND*%
%TO.C,J1*%
X142980000Y-66670683D03*
%TO.N,+3.3V*%
X142980000Y-68170683D03*
%TO.N,SWCLK*%
X142980000Y-69670683D03*
%TO.N,SWDIO*%
X142980000Y-71170683D03*
%TO.N,NRST*%
X142980000Y-82347317D03*
%TD*%
D14*
%TO.N,MOTOR_A*%
%TO.C,J10*%
X137312000Y-104690566D03*
%TO.N,MOTOR_B*%
X131312000Y-104690566D03*
%TO.N,MOTOR_C*%
X125312000Y-104690566D03*
%TD*%
D15*
%TO.N,UART_GND*%
%TO.C,J14*%
X120892000Y-75973000D03*
%TO.N,CAN_L*%
X120892000Y-74098000D03*
%TO.N,CAN_H*%
X120892000Y-72223000D03*
%TO.N,+5V*%
X120892000Y-70348000D03*
%TD*%
D16*
%TO.N,GNDPWR*%
%TO.C,J11*%
X139067000Y-60015000D03*
%TO.N,+24V*%
X124067000Y-60015000D03*
%TD*%
D17*
%TO.N,+24V*%
X116967000Y-66040000D03*
X115697000Y-67691000D03*
X113792000Y-68707000D03*
D18*
X143129000Y-57150000D03*
D17*
X114300000Y-67691000D03*
X114935000Y-68834000D03*
X116967000Y-67564000D03*
%TO.N,GNDPWR*%
X128016000Y-54483000D03*
X116586000Y-63627000D03*
X114808000Y-65024000D03*
X133223000Y-56642000D03*
X113665000Y-64770000D03*
X135382000Y-56642000D03*
X113919000Y-66167000D03*
X134366000Y-56134000D03*
X136525000Y-56134000D03*
X132200516Y-56140484D03*
X137541000Y-56642000D03*
X141605000Y-54483000D03*
X116459000Y-61341000D03*
X116586000Y-62484000D03*
%TO.N,+5V*%
X120777000Y-81026000D03*
X130683000Y-57658000D03*
X141605000Y-77597000D03*
X141605000Y-64135000D03*
D18*
%TO.N,CAN_L*%
X113538000Y-78315500D03*
X114554000Y-78994000D03*
%TO.N,CAN_H*%
X115698166Y-78115656D03*
D17*
%TO.N,MOTOR_A*%
X114935000Y-97155000D03*
X114935000Y-94742000D03*
X134493000Y-106807000D03*
X114935000Y-95885000D03*
X136779000Y-107061000D03*
X113919000Y-94107000D03*
X113919000Y-95250000D03*
X137922000Y-107061000D03*
X135636000Y-107061000D03*
X113919000Y-96393000D03*
%TO.N,MOTOR_B*%
X113919000Y-92075000D03*
X114935000Y-91440000D03*
X113792000Y-89408000D03*
X113919000Y-90805000D03*
X131699000Y-106807000D03*
X114935000Y-88773000D03*
X130556000Y-106807000D03*
X128143000Y-106807000D03*
X129286000Y-106807000D03*
X114935000Y-89916000D03*
%TO.N,MOTOR_C*%
X120396000Y-102362000D03*
X113919000Y-86868000D03*
X113919000Y-85725000D03*
X115189000Y-86106000D03*
X120142000Y-101092000D03*
X113919000Y-84328000D03*
X115189000Y-84709000D03*
X115062000Y-83566000D03*
X121920000Y-104140000D03*
X121158000Y-103251000D03*
D18*
%TO.N,A-*%
X119380000Y-77486500D03*
%TO.N,A+*%
X120142000Y-77216000D03*
%TO.N,UART_GND*%
X115697000Y-73152000D03*
X114808000Y-57658000D03*
X113919000Y-82169000D03*
X143931000Y-91720000D03*
D17*
X116205000Y-52705000D03*
X117348000Y-81915000D03*
X116332000Y-108585000D03*
D18*
X118935500Y-86550500D03*
X143002000Y-72771000D03*
D17*
X121412000Y-65786000D03*
X143256000Y-108712000D03*
X142875000Y-55499000D03*
D18*
X124714000Y-54864000D03*
X118631604Y-68974604D03*
D17*
X120650000Y-68834000D03*
D18*
%TO.N,UART_TX*%
X115020167Y-70372444D03*
%TO.N,UART_RX*%
X114101944Y-70921944D03*
%TO.N,SWCLK*%
X115958556Y-71635556D03*
%TO.N,SWDIO*%
X114510500Y-72486500D03*
%TO.N,NRST*%
X113411000Y-72390000D03*
%TO.N,HALL_A*%
X116140000Y-74487000D03*
D17*
X119286060Y-81353878D03*
%TO.N,OK*%
X143002000Y-93980000D03*
%TD*%
D19*
%TO.N,HALL_A*%
X117856023Y-77399773D02*
G75*
G03*
X118254448Y-78361712I1360377J-27D01*
G01*
X117855979Y-75243248D02*
G75*
G03*
X117634499Y-74708501I-756179J48D01*
G01*
X119286057Y-79956814D02*
G75*
G03*
X118887611Y-78994875I-1360357J14D01*
G01*
X117634514Y-74708486D02*
G75*
G03*
X117099751Y-74487000I-534714J-534714D01*
G01*
D20*
%TO.N,UART_RX*%
X122483490Y-56641997D02*
G75*
G03*
X121521551Y-57040448I10J-1360403D01*
G01*
X117617565Y-70921930D02*
G75*
G03*
X118579503Y-70523495I35J1360330D01*
G01*
X119568690Y-69522993D02*
G75*
G03*
X119587997Y-69515002I10J27293D01*
G01*
X120286450Y-58275553D02*
G75*
G03*
X119888000Y-59237490I961950J-961947D01*
G01*
X119059007Y-70044002D02*
G75*
G03*
X119067000Y-70024690I-19307J19302D01*
G01*
X131754002Y-58022490D02*
G75*
G03*
X131355550Y-57060552I-1360402J-10D01*
G01*
X119568690Y-69522991D02*
G75*
G03*
X119549382Y-69530997I10J-27309D01*
G01*
X131335446Y-57040450D02*
G75*
G03*
X130373509Y-56642000I-961946J-961950D01*
G01*
X119733997Y-69368997D02*
G75*
G03*
X119888000Y-68997211I-371797J371797D01*
G01*
X119075003Y-70005388D02*
G75*
G03*
X119067000Y-70024690I19297J-19312D01*
G01*
%TO.N,UART_TX*%
X118625001Y-69818990D02*
G75*
G03*
X118617000Y-69838294I19299J-19310D01*
G01*
X119778450Y-58021553D02*
G75*
G03*
X119380000Y-58983490I961950J-961947D01*
G01*
X117749113Y-70358004D02*
G75*
G03*
X118362801Y-70103801I-13J867904D01*
G01*
X133629026Y-59157056D02*
G75*
G03*
X133230550Y-58195118I-1360426J-44D01*
G01*
X118609005Y-69857604D02*
G75*
G03*
X118617000Y-69838294I-19305J19304D01*
G01*
X119375492Y-69072999D02*
G75*
G03*
X119367796Y-69076187I8J-10901D01*
G01*
X119375492Y-69073000D02*
G75*
G03*
X119380000Y-69068492I8J4500D01*
G01*
X131625863Y-56590467D02*
G75*
G03*
X130663943Y-56192000I-961963J-961933D01*
G01*
X122171490Y-56191997D02*
G75*
G03*
X121209551Y-56590448I10J-1360403D01*
G01*
X115044824Y-70358001D02*
G75*
G03*
X115027389Y-70365222I-24J-24599D01*
G01*
D19*
%TO.N,UART_GND*%
X123222434Y-58061024D02*
G75*
G03*
X122532508Y-58346777I-34J-975676D01*
G01*
D21*
X118110003Y-63447394D02*
G75*
G03*
X118237001Y-63753999I433597J-6D01*
G01*
X118364010Y-68517775D02*
G75*
G03*
X118497803Y-68840801I456790J-25D01*
G01*
D19*
X126369863Y-58459467D02*
G75*
G03*
X125407943Y-58061000I-961963J-961933D01*
G01*
D21*
X118110002Y-61523490D02*
G75*
G03*
X117711550Y-60561552I-1360402J-10D01*
G01*
X118363997Y-64060605D02*
G75*
G03*
X118236999Y-63754001I-433597J5D01*
G01*
D19*
X121810457Y-59068846D02*
G75*
G03*
X121412000Y-60030776I961943J-961954D01*
G01*
%TO.N,+5V*%
X120466998Y-65674509D02*
G75*
G03*
X120865449Y-66636447I1360402J9D01*
G01*
X121666002Y-68000490D02*
G75*
G03*
X121267550Y-67038552I-1360402J-10D01*
G01*
X118700994Y-77673207D02*
G75*
G03*
X118795606Y-77901606I323006J7D01*
G01*
X120658473Y-70347985D02*
G75*
G03*
X120259817Y-70513128I27J-563815D01*
G01*
X118894275Y-71878686D02*
G75*
G03*
X118701000Y-72345266I466625J-466614D01*
G01*
X120777002Y-80446490D02*
G75*
G03*
X120378550Y-79484552I-1360402J-10D01*
G01*
X120865450Y-58585553D02*
G75*
G03*
X120467000Y-59547490I961950J-961947D01*
G01*
X122737490Y-57276997D02*
G75*
G03*
X121775551Y-57675448I10J-1360403D01*
G01*
X121279000Y-69961000D02*
G75*
G03*
X121666000Y-69026699I-934300J934300D01*
G01*
X130492502Y-57467498D02*
G75*
G03*
X130032592Y-57277000I-459902J-459902D01*
G01*
X120658473Y-70347975D02*
G75*
G03*
X121057128Y-70182871I27J563775D01*
G01*
X120865448Y-58585551D02*
X121775551Y-57675448D01*
X130683000Y-57658000D02*
X130492500Y-57467500D01*
X118795606Y-77901606D02*
X120378551Y-79484551D01*
X120865448Y-66636448D02*
X121267551Y-67038551D01*
X120467000Y-65674509D02*
X120467000Y-59547490D01*
X120259817Y-70513128D02*
X118894267Y-71878678D01*
X121278999Y-69960999D02*
X121057128Y-70182871D01*
X121666000Y-68000490D02*
X121666000Y-69026699D01*
X118701000Y-77673207D02*
X118701000Y-72345266D01*
X122737490Y-57277000D02*
X130032592Y-57277000D01*
X120777000Y-80446490D02*
X120777000Y-81026000D01*
%TO.N,UART_GND*%
X121412000Y-65786000D02*
X121412000Y-60030776D01*
X122532508Y-58346777D02*
X121810448Y-59068837D01*
D21*
X118631604Y-68974604D02*
X118497802Y-68840802D01*
D19*
X123222434Y-58061000D02*
X125407943Y-58061000D01*
D21*
X118364000Y-68517775D02*
X118364000Y-64060605D01*
D19*
X126369882Y-58459448D02*
X128004000Y-60093566D01*
D21*
X114808000Y-57658000D02*
X117711551Y-60561551D01*
X118110000Y-63447394D02*
X118110000Y-61523490D01*
D20*
%TO.N,UART_TX*%
X118624997Y-69818986D02*
X119367796Y-69076187D01*
X118362801Y-70103801D02*
X118609002Y-69857601D01*
X117749113Y-70358000D02*
X115044824Y-70358000D01*
X115020167Y-70372444D02*
X115027389Y-70365222D01*
X119778448Y-58021551D02*
X121209551Y-56590448D01*
X130663943Y-56192000D02*
X122171490Y-56192000D01*
X119380000Y-58983490D02*
X119380000Y-69068492D01*
X133629000Y-59157056D02*
X133629000Y-60093566D01*
X133230551Y-58195117D02*
X131625882Y-56590448D01*
%TO.N,UART_RX*%
X121521551Y-57040448D02*
X120286448Y-58275551D01*
X117617565Y-70921944D02*
X114101944Y-70921944D01*
X119888000Y-59237490D02*
X119888000Y-68997211D01*
X131754000Y-58022490D02*
X131754000Y-60093566D01*
X119549382Y-69530997D02*
X119074997Y-70005382D01*
X131355551Y-57060551D02*
X131335448Y-57040448D01*
X119587997Y-69515002D02*
X119734000Y-69369000D01*
X118579503Y-70523495D02*
X119059002Y-70043997D01*
X122483490Y-56642000D02*
X130373509Y-56642000D01*
D19*
%TO.N,HALL_A*%
X117856000Y-77399773D02*
X117856000Y-75243248D01*
X116140000Y-74487000D02*
X117099751Y-74487000D01*
X118254448Y-78361712D02*
X118887611Y-78994875D01*
X119286060Y-79956814D02*
X119286060Y-81353878D01*
%TD*%
%TA.AperFunction,Conductor*%
%TO.N,UART_GND*%
G36*
X143202244Y-52150661D02*
G01*
X143284509Y-52156544D01*
X143425767Y-52166647D01*
X143443540Y-52169202D01*
X143655913Y-52215400D01*
X143673159Y-52220464D01*
X143876788Y-52296414D01*
X143893135Y-52303880D01*
X144022413Y-52374471D01*
X144083879Y-52408034D01*
X144099003Y-52417754D01*
X144272981Y-52547992D01*
X144286567Y-52559765D01*
X144440234Y-52713432D01*
X144452007Y-52727018D01*
X144582245Y-52900996D01*
X144591965Y-52916120D01*
X144696118Y-53106862D01*
X144703586Y-53123214D01*
X144779534Y-53326838D01*
X144784599Y-53344088D01*
X144830795Y-53556449D01*
X144833353Y-53574243D01*
X144849339Y-53797755D01*
X144849500Y-53802251D01*
X144849500Y-108197748D01*
X144849339Y-108202244D01*
X144833353Y-108425756D01*
X144830795Y-108443550D01*
X144784599Y-108655911D01*
X144779534Y-108673161D01*
X144703586Y-108876785D01*
X144696118Y-108893137D01*
X144591965Y-109083879D01*
X144582245Y-109099003D01*
X144452007Y-109272981D01*
X144440234Y-109286567D01*
X144286567Y-109440234D01*
X144272981Y-109452007D01*
X144099003Y-109582245D01*
X144083879Y-109591965D01*
X143893137Y-109696118D01*
X143876785Y-109703586D01*
X143673161Y-109779534D01*
X143655911Y-109784599D01*
X143443550Y-109830795D01*
X143425756Y-109833353D01*
X143202244Y-109849339D01*
X143197748Y-109849500D01*
X110552252Y-109849500D01*
X110547756Y-109849339D01*
X110324243Y-109833353D01*
X110306449Y-109830795D01*
X110094088Y-109784599D01*
X110076838Y-109779534D01*
X109873214Y-109703586D01*
X109856862Y-109696118D01*
X109666120Y-109591965D01*
X109650996Y-109582245D01*
X109477018Y-109452007D01*
X109463432Y-109440234D01*
X109309765Y-109286567D01*
X109297992Y-109272981D01*
X109289245Y-109261297D01*
X109167754Y-109099003D01*
X109158034Y-109083879D01*
X109124471Y-109022413D01*
X109053880Y-108893135D01*
X109046413Y-108876785D01*
X108970465Y-108673161D01*
X108965400Y-108655911D01*
X108958559Y-108624464D01*
X108919202Y-108443540D01*
X108916647Y-108425767D01*
X108903985Y-108248724D01*
X108900661Y-108202244D01*
X108900500Y-108197748D01*
X108900500Y-106769048D01*
X110186091Y-106769048D01*
X110215715Y-107038297D01*
X110284231Y-107300373D01*
X110390172Y-107549672D01*
X110390173Y-107549673D01*
X110531285Y-107780893D01*
X110704558Y-107989103D01*
X110906301Y-108169865D01*
X111132213Y-108319327D01*
X111377479Y-108434303D01*
X111636872Y-108512343D01*
X111636875Y-108512343D01*
X111636877Y-108512344D01*
X111904860Y-108551783D01*
X111904864Y-108551783D01*
X112107936Y-108551783D01*
X112142666Y-108549240D01*
X112310459Y-108536960D01*
X112310463Y-108536959D01*
X112310464Y-108536959D01*
X112420968Y-108512343D01*
X112574856Y-108478063D01*
X112827861Y-108381297D01*
X113064080Y-108248724D01*
X113278480Y-108083171D01*
X113466489Y-107888164D01*
X113624102Y-107667862D01*
X113747959Y-107426958D01*
X113835421Y-107170588D01*
X113860021Y-107037402D01*
X113884621Y-106904224D01*
X113884622Y-106904213D01*
X113885269Y-106886519D01*
X113894515Y-106633518D01*
X113876528Y-106470044D01*
X113864890Y-106364268D01*
X113796374Y-106102192D01*
X113690433Y-105852893D01*
X113549321Y-105621673D01*
X113376048Y-105413463D01*
X113376044Y-105413460D01*
X113376043Y-105413458D01*
X113174315Y-105232710D01*
X113174305Y-105232701D01*
X112948393Y-105083239D01*
X112703127Y-104968263D01*
X112545695Y-104920898D01*
X112443728Y-104890221D01*
X112175745Y-104850783D01*
X112175742Y-104850783D01*
X111972672Y-104850783D01*
X111972670Y-104850783D01*
X111770142Y-104865606D01*
X111770141Y-104865606D01*
X111505759Y-104924500D01*
X111505744Y-104924505D01*
X111252744Y-105021269D01*
X111016532Y-105153838D01*
X111016528Y-105153840D01*
X110802121Y-105319399D01*
X110614118Y-105514400D01*
X110614113Y-105514406D01*
X110456506Y-105734700D01*
X110456499Y-105734710D01*
X110332646Y-105975607D01*
X110332645Y-105975610D01*
X110245186Y-106231972D01*
X110245183Y-106231985D01*
X110195984Y-106498341D01*
X110195983Y-106498352D01*
X110186091Y-106769048D01*
X108900500Y-106769048D01*
X108900500Y-105202251D01*
X108900661Y-105197755D01*
X108913283Y-105021269D01*
X108916647Y-104974230D01*
X108919202Y-104956461D01*
X108965401Y-104744082D01*
X108970465Y-104726838D01*
X109046416Y-104523206D01*
X109053877Y-104506870D01*
X109158037Y-104316115D01*
X109167750Y-104301001D01*
X109297998Y-104127010D01*
X109309758Y-104113439D01*
X109463439Y-103959758D01*
X109477010Y-103947998D01*
X109651001Y-103817750D01*
X109666115Y-103808037D01*
X109856870Y-103703877D01*
X109873206Y-103696416D01*
X110076843Y-103620463D01*
X110094082Y-103615401D01*
X110306461Y-103569202D01*
X110324232Y-103566647D01*
X110465490Y-103556544D01*
X110547756Y-103550661D01*
X110552252Y-103550500D01*
X113692175Y-103550500D01*
X113692179Y-103550500D01*
X113974464Y-103516224D01*
X114250559Y-103448173D01*
X114516438Y-103347338D01*
X114625134Y-103290289D01*
X114694747Y-103276343D01*
X114760849Y-103302246D01*
X114802454Y-103359775D01*
X114808940Y-103388138D01*
X114819801Y-103487296D01*
X114824366Y-103514946D01*
X114836365Y-103569060D01*
X114836365Y-103569061D01*
X114843914Y-103596053D01*
X114843914Y-103596052D01*
X114843915Y-103596057D01*
X114843916Y-103596058D01*
X114884250Y-103714866D01*
X114886053Y-103720175D01*
X114886054Y-103720177D01*
X114896493Y-103746177D01*
X114905591Y-103765685D01*
X114919932Y-103796432D01*
X114919936Y-103796439D01*
X114919935Y-103796439D01*
X114933137Y-103821135D01*
X114933138Y-103821136D01*
X115002879Y-103936053D01*
X115010469Y-103947824D01*
X115022252Y-103965046D01*
X115030473Y-103976388D01*
X118921793Y-109046893D01*
X118931078Y-109058301D01*
X118945384Y-109074882D01*
X118955298Y-109085731D01*
X119053422Y-109187108D01*
X119053423Y-109187109D01*
X119075053Y-109207036D01*
X119075054Y-109207036D01*
X119075056Y-109207038D01*
X119120058Y-109243967D01*
X119120065Y-109243972D01*
X119120066Y-109243973D01*
X119143831Y-109261297D01*
X119259432Y-109335823D01*
X119259431Y-109335823D01*
X119259443Y-109335829D01*
X119259448Y-109335833D01*
X119285041Y-109350330D01*
X119285053Y-109350336D01*
X119285052Y-109350336D01*
X119337250Y-109376075D01*
X119337249Y-109376074D01*
X119349128Y-109381107D01*
X119364323Y-109387547D01*
X119493842Y-109433887D01*
X119493845Y-109433888D01*
X119493844Y-109433888D01*
X119513554Y-109439690D01*
X119522065Y-109442196D01*
X119572560Y-109453967D01*
X119578764Y-109455413D01*
X119578762Y-109455412D01*
X119607727Y-109460438D01*
X119607732Y-109460438D01*
X119607733Y-109460439D01*
X119747888Y-109476563D01*
X119762546Y-109477825D01*
X119773490Y-109478452D01*
X119784434Y-109479079D01*
X119791781Y-109479289D01*
X119799127Y-109479500D01*
X119799128Y-109479500D01*
X137193291Y-109479500D01*
X137193292Y-109479500D01*
X137210316Y-109478935D01*
X137235649Y-109477252D01*
X137252592Y-109475561D01*
X137414424Y-109453966D01*
X137447823Y-109447232D01*
X137447825Y-109447231D01*
X137447832Y-109447230D01*
X137496939Y-109433887D01*
X137512864Y-109429560D01*
X137545076Y-109418467D01*
X137545075Y-109418467D01*
X137545079Y-109418466D01*
X137545078Y-109418467D01*
X137691798Y-109356789D01*
X137722265Y-109341531D01*
X137722264Y-109341532D01*
X137744796Y-109328310D01*
X137780398Y-109307422D01*
X137808574Y-109288273D01*
X137933988Y-109190284D01*
X137933988Y-109190283D01*
X137933990Y-109190282D01*
X137959387Y-109167573D01*
X138006545Y-109119413D01*
X138028719Y-109093541D01*
X138028718Y-109093541D01*
X138028725Y-109093534D01*
X138028725Y-109093533D01*
X138126507Y-108962812D01*
X138136242Y-108948856D01*
X138140600Y-108942144D01*
X138150071Y-108927561D01*
X138158873Y-108912969D01*
X138179094Y-108876785D01*
X138421196Y-108443550D01*
X139291297Y-106886529D01*
X139329462Y-106800582D01*
X139344189Y-106757048D01*
X139366041Y-106665576D01*
X139366041Y-106538165D01*
X139386043Y-106470044D01*
X139439699Y-106423551D01*
X139465256Y-106415044D01*
X139533705Y-106400155D01*
X139732700Y-106314940D01*
X139911971Y-106193606D01*
X140065040Y-106040537D01*
X140186374Y-105861266D01*
X140271589Y-105662271D01*
X140317603Y-105450746D01*
X140320500Y-105402116D01*
X140320500Y-103979016D01*
X140317603Y-103930386D01*
X140271589Y-103718861D01*
X140271588Y-103718858D01*
X140270312Y-103714866D01*
X140268622Y-103643890D01*
X140305573Y-103583267D01*
X140369433Y-103552245D01*
X140390329Y-103550500D01*
X140644486Y-103550500D01*
X140700000Y-103550500D01*
X140785935Y-103550556D01*
X140954331Y-103516177D01*
X141112448Y-103448810D01*
X141253894Y-103351177D01*
X141372952Y-103227224D01*
X141464811Y-103081962D01*
X141525756Y-102921261D01*
X141553326Y-102751617D01*
X141546406Y-102579886D01*
X141505275Y-102413011D01*
X141431595Y-102257735D01*
X141328346Y-102120335D01*
X141199700Y-102006364D01*
X141166958Y-101987489D01*
X141134868Y-101968989D01*
X141116803Y-101956348D01*
X141102503Y-101944348D01*
X141074383Y-101910836D01*
X141070621Y-101904321D01*
X141055652Y-101863201D01*
X141052416Y-101844855D01*
X141050500Y-101822968D01*
X141050500Y-93980000D01*
X142088496Y-93980000D01*
X142108457Y-94169927D01*
X142118277Y-94200148D01*
X142167473Y-94351556D01*
X142167476Y-94351561D01*
X142262958Y-94516941D01*
X142262965Y-94516951D01*
X142390744Y-94658864D01*
X142390747Y-94658866D01*
X142545248Y-94771118D01*
X142719712Y-94848794D01*
X142906513Y-94888500D01*
X143097487Y-94888500D01*
X143284288Y-94848794D01*
X143458752Y-94771118D01*
X143613253Y-94658866D01*
X143741040Y-94516944D01*
X143836527Y-94351556D01*
X143895542Y-94169928D01*
X143915504Y-93980000D01*
X143895542Y-93790072D01*
X143836527Y-93608444D01*
X143741040Y-93443056D01*
X143741038Y-93443054D01*
X143741034Y-93443048D01*
X143613255Y-93301135D01*
X143458752Y-93188882D01*
X143284288Y-93111206D01*
X143097487Y-93071500D01*
X142906513Y-93071500D01*
X142719711Y-93111206D01*
X142545247Y-93188882D01*
X142390744Y-93301135D01*
X142262965Y-93443048D01*
X142262958Y-93443058D01*
X142167476Y-93608438D01*
X142167473Y-93608445D01*
X142108457Y-93790072D01*
X142088496Y-93980000D01*
X141050500Y-93980000D01*
X141050500Y-85359714D01*
X141070502Y-85291593D01*
X141106498Y-85254949D01*
X141108363Y-85253703D01*
X141247662Y-85160626D01*
X141366126Y-85042162D01*
X141459203Y-84902863D01*
X141523316Y-84748082D01*
X141556000Y-84583767D01*
X141556000Y-84500000D01*
X141556000Y-84444486D01*
X141556000Y-82347320D01*
X141966620Y-82347320D01*
X141986090Y-82545011D01*
X141986091Y-82545017D01*
X141986092Y-82545018D01*
X142043759Y-82735121D01*
X142137405Y-82910321D01*
X142263432Y-83063885D01*
X142416996Y-83189912D01*
X142592196Y-83283558D01*
X142782299Y-83341225D01*
X142782303Y-83341225D01*
X142782305Y-83341226D01*
X142979997Y-83360697D01*
X142980000Y-83360697D01*
X142980003Y-83360697D01*
X143177694Y-83341226D01*
X143177695Y-83341225D01*
X143177701Y-83341225D01*
X143367804Y-83283558D01*
X143543004Y-83189912D01*
X143696568Y-83063885D01*
X143822595Y-82910321D01*
X143916241Y-82735121D01*
X143973908Y-82545018D01*
X143993380Y-82347317D01*
X143993380Y-82347313D01*
X143973909Y-82149622D01*
X143973908Y-82149620D01*
X143973908Y-82149616D01*
X143916241Y-81959513D01*
X143822595Y-81784313D01*
X143696568Y-81630749D01*
X143543004Y-81504722D01*
X143367804Y-81411076D01*
X143177701Y-81353409D01*
X143177700Y-81353408D01*
X143177694Y-81353407D01*
X142980003Y-81333937D01*
X142979997Y-81333937D01*
X142782305Y-81353407D01*
X142592195Y-81411076D01*
X142416995Y-81504722D01*
X142263432Y-81630749D01*
X142137405Y-81784312D01*
X142043759Y-81959512D01*
X141986090Y-82149622D01*
X141966620Y-82347313D01*
X141966620Y-82347320D01*
X141556000Y-82347320D01*
X141556000Y-80670960D01*
X141556000Y-80616233D01*
X141523316Y-80451918D01*
X141459203Y-80297137D01*
X141366126Y-80157838D01*
X141366121Y-80157832D01*
X141247667Y-80039378D01*
X141247663Y-80039375D01*
X141247662Y-80039374D01*
X141207355Y-80012441D01*
X141106498Y-79945050D01*
X141060970Y-79890573D01*
X141050500Y-79840285D01*
X141050500Y-78538620D01*
X141070502Y-78470499D01*
X141124158Y-78424006D01*
X141194432Y-78413902D01*
X141227749Y-78423514D01*
X141322707Y-78465793D01*
X141322712Y-78465794D01*
X141509513Y-78505500D01*
X141700487Y-78505500D01*
X141887288Y-78465794D01*
X142061752Y-78388118D01*
X142216253Y-78275866D01*
X142229491Y-78261164D01*
X142344034Y-78133951D01*
X142344035Y-78133949D01*
X142344040Y-78133944D01*
X142439527Y-77968556D01*
X142498542Y-77786928D01*
X142518504Y-77597000D01*
X142498542Y-77407072D01*
X142439527Y-77225444D01*
X142344040Y-77060056D01*
X142344038Y-77060054D01*
X142344034Y-77060048D01*
X142216255Y-76918135D01*
X142061752Y-76805882D01*
X141887288Y-76728206D01*
X141700487Y-76688500D01*
X141509513Y-76688500D01*
X141322711Y-76728206D01*
X141227749Y-76770486D01*
X141157382Y-76779920D01*
X141093085Y-76749813D01*
X141055271Y-76689724D01*
X141050500Y-76655379D01*
X141050500Y-72639714D01*
X141070502Y-72571593D01*
X141106498Y-72534949D01*
X141108363Y-72533703D01*
X141247662Y-72440626D01*
X141366126Y-72322162D01*
X141459203Y-72182863D01*
X141523316Y-72028082D01*
X141556000Y-71863767D01*
X141556000Y-71780000D01*
X141556000Y-71724486D01*
X141556000Y-71170686D01*
X141966620Y-71170686D01*
X141986090Y-71368377D01*
X141986091Y-71368383D01*
X141986092Y-71368384D01*
X142043759Y-71558487D01*
X142137405Y-71733687D01*
X142263432Y-71887251D01*
X142416996Y-72013278D01*
X142592196Y-72106924D01*
X142782299Y-72164591D01*
X142782303Y-72164591D01*
X142782305Y-72164592D01*
X142979997Y-72184063D01*
X142980000Y-72184063D01*
X142980003Y-72184063D01*
X143177694Y-72164592D01*
X143177695Y-72164591D01*
X143177701Y-72164591D01*
X143367804Y-72106924D01*
X143543004Y-72013278D01*
X143696568Y-71887251D01*
X143822595Y-71733687D01*
X143916241Y-71558487D01*
X143973908Y-71368384D01*
X143993380Y-71170683D01*
X143973908Y-70972982D01*
X143916241Y-70782879D01*
X143822595Y-70607679D01*
X143734730Y-70500616D01*
X143706977Y-70435270D01*
X143718959Y-70365291D01*
X143734731Y-70340749D01*
X143822595Y-70233687D01*
X143916241Y-70058487D01*
X143973908Y-69868384D01*
X143975424Y-69853000D01*
X143993380Y-69670686D01*
X143993380Y-69670679D01*
X143973909Y-69472988D01*
X143973908Y-69472986D01*
X143973908Y-69472982D01*
X143916241Y-69282879D01*
X143822595Y-69107679D01*
X143734730Y-69000616D01*
X143706977Y-68935270D01*
X143718959Y-68865291D01*
X143734731Y-68840749D01*
X143736591Y-68838483D01*
X143822595Y-68733687D01*
X143916241Y-68558487D01*
X143973908Y-68368384D01*
X143989686Y-68208195D01*
X143993380Y-68170686D01*
X143993380Y-68170679D01*
X143973909Y-67972988D01*
X143973908Y-67972986D01*
X143973908Y-67972982D01*
X143916241Y-67782879D01*
X143822595Y-67607679D01*
X143696568Y-67454115D01*
X143543004Y-67328088D01*
X143457395Y-67282329D01*
X143367805Y-67234442D01*
X143304436Y-67215219D01*
X143177701Y-67176775D01*
X143171315Y-67176146D01*
X143166189Y-67175641D01*
X143100358Y-67149055D01*
X143089449Y-67139343D01*
X142980000Y-67029893D01*
X142979999Y-67029893D01*
X142870547Y-67139344D01*
X142808234Y-67173369D01*
X142793810Y-67175640D01*
X142782306Y-67176773D01*
X142782303Y-67176774D01*
X142782300Y-67176774D01*
X142782299Y-67176775D01*
X142732836Y-67191779D01*
X142592194Y-67234442D01*
X142416995Y-67328088D01*
X142263432Y-67454115D01*
X142137405Y-67607678D01*
X142043759Y-67782878D01*
X141986090Y-67972988D01*
X141966620Y-68170679D01*
X141966620Y-68170686D01*
X141986090Y-68368377D01*
X142043759Y-68558487D01*
X142137405Y-68733687D01*
X142225269Y-68840750D01*
X142253022Y-68906097D01*
X142241040Y-68976075D01*
X142225269Y-69000616D01*
X142137405Y-69107678D01*
X142043759Y-69282878D01*
X141986090Y-69472988D01*
X141966620Y-69670679D01*
X141966620Y-69670686D01*
X141986090Y-69868377D01*
X142043759Y-70058487D01*
X142137405Y-70233687D01*
X142225269Y-70340750D01*
X142253022Y-70406097D01*
X142241040Y-70476075D01*
X142225269Y-70500616D01*
X142137405Y-70607678D01*
X142043759Y-70782878D01*
X141986090Y-70972988D01*
X141966620Y-71170679D01*
X141966620Y-71170686D01*
X141556000Y-71170686D01*
X141556000Y-68030960D01*
X141556000Y-67976233D01*
X141523316Y-67811918D01*
X141459203Y-67657137D01*
X141366126Y-67517838D01*
X141366121Y-67517832D01*
X141247667Y-67399378D01*
X141247663Y-67399375D01*
X141247662Y-67399374D01*
X141204954Y-67370837D01*
X141106498Y-67305050D01*
X141060970Y-67250573D01*
X141050500Y-67200285D01*
X141050500Y-66670686D01*
X141967123Y-66670686D01*
X141986583Y-66868278D01*
X141986585Y-66868289D01*
X142044223Y-67058291D01*
X142110042Y-67181429D01*
X142620789Y-66670683D01*
X142725102Y-66670683D01*
X142744505Y-66768228D01*
X142799760Y-66850923D01*
X142882455Y-66906178D01*
X142955376Y-66920683D01*
X143004624Y-66920683D01*
X143077545Y-66906178D01*
X143160240Y-66850923D01*
X143215495Y-66768228D01*
X143234898Y-66670684D01*
X143339210Y-66670684D01*
X143849956Y-67181430D01*
X143915775Y-67058295D01*
X143915776Y-67058291D01*
X143973414Y-66868289D01*
X143973416Y-66868278D01*
X143992877Y-66670686D01*
X143992877Y-66670679D01*
X143973416Y-66473087D01*
X143973414Y-66473076D01*
X143915776Y-66283074D01*
X143849956Y-66159935D01*
X143339210Y-66670682D01*
X143339210Y-66670684D01*
X143234898Y-66670684D01*
X143234898Y-66670683D01*
X143215495Y-66573138D01*
X143160240Y-66490443D01*
X143077545Y-66435188D01*
X143004624Y-66420683D01*
X142955376Y-66420683D01*
X142882455Y-66435188D01*
X142799760Y-66490443D01*
X142744505Y-66573138D01*
X142725102Y-66670683D01*
X142620789Y-66670683D01*
X142620790Y-66670682D01*
X142110042Y-66159934D01*
X142110041Y-66159935D01*
X142044225Y-66283068D01*
X142044219Y-66283083D01*
X141986585Y-66473076D01*
X141986583Y-66473087D01*
X141967123Y-66670679D01*
X141967123Y-66670686D01*
X141050500Y-66670686D01*
X141050500Y-65800725D01*
X142469251Y-65800725D01*
X142979999Y-66311473D01*
X142980000Y-66311473D01*
X143490746Y-65800725D01*
X143490747Y-65800725D01*
X143367608Y-65734906D01*
X143177606Y-65677268D01*
X143177595Y-65677266D01*
X142980003Y-65657806D01*
X142979997Y-65657806D01*
X142782404Y-65677266D01*
X142782393Y-65677268D01*
X142592400Y-65734902D01*
X142592385Y-65734908D01*
X142469252Y-65800724D01*
X142469251Y-65800725D01*
X141050500Y-65800725D01*
X141050500Y-65076620D01*
X141070502Y-65008499D01*
X141124158Y-64962006D01*
X141194432Y-64951902D01*
X141227749Y-64961514D01*
X141322707Y-65003793D01*
X141322712Y-65003794D01*
X141509513Y-65043500D01*
X141700487Y-65043500D01*
X141887288Y-65003794D01*
X142061752Y-64926118D01*
X142216253Y-64813866D01*
X142315872Y-64703228D01*
X142344034Y-64671951D01*
X142344035Y-64671949D01*
X142344040Y-64671944D01*
X142439527Y-64506556D01*
X142498542Y-64324928D01*
X142518504Y-64135000D01*
X142498542Y-63945072D01*
X142439527Y-63763444D01*
X142344040Y-63598056D01*
X142344038Y-63598054D01*
X142344034Y-63598048D01*
X142216255Y-63456135D01*
X142061752Y-63343882D01*
X141887288Y-63266206D01*
X141700487Y-63226500D01*
X141509513Y-63226500D01*
X141322709Y-63266206D01*
X141227749Y-63308485D01*
X141157382Y-63317919D01*
X141093085Y-63287812D01*
X141055272Y-63227723D01*
X141050501Y-63193386D01*
X141050501Y-63177025D01*
X141052413Y-63155156D01*
X141055653Y-63136777D01*
X141070624Y-63095653D01*
X141074352Y-63089196D01*
X141102483Y-63055678D01*
X141102513Y-63055653D01*
X141116874Y-63043604D01*
X141134920Y-63030979D01*
X141199700Y-62993636D01*
X141328346Y-62879665D01*
X141431595Y-62742265D01*
X141505275Y-62586989D01*
X141546406Y-62420114D01*
X141553326Y-62248383D01*
X141525756Y-62078739D01*
X141464811Y-61918038D01*
X141372952Y-61772776D01*
X141253894Y-61648823D01*
X141169026Y-61590243D01*
X141112446Y-61551188D01*
X141112443Y-61551187D01*
X141004652Y-61505262D01*
X140949823Y-61460160D01*
X140928081Y-61392574D01*
X140939320Y-61337237D01*
X140969228Y-61271392D01*
X141009679Y-61182336D01*
X141065030Y-60962669D01*
X141075500Y-60829636D01*
X141075500Y-59200364D01*
X141065030Y-59067331D01*
X141009679Y-58847664D01*
X140915994Y-58641409D01*
X140915993Y-58641408D01*
X140915990Y-58641402D01*
X140786988Y-58455200D01*
X140786984Y-58455195D01*
X140626804Y-58295015D01*
X140626799Y-58295011D01*
X140440597Y-58166009D01*
X140440588Y-58166004D01*
X140234341Y-58072323D01*
X140234338Y-58072322D01*
X140234336Y-58072321D01*
X140014669Y-58016970D01*
X139913049Y-58008972D01*
X139881639Y-58006500D01*
X139881636Y-58006500D01*
X138252364Y-58006500D01*
X138252361Y-58006500D01*
X138218267Y-58009183D01*
X138119331Y-58016970D01*
X138119327Y-58016970D01*
X138119327Y-58016971D01*
X137899667Y-58072320D01*
X137899658Y-58072323D01*
X137693411Y-58166004D01*
X137693402Y-58166009D01*
X137507200Y-58295011D01*
X137507195Y-58295015D01*
X137347015Y-58455195D01*
X137347011Y-58455200D01*
X137218009Y-58641402D01*
X137218004Y-58641411D01*
X137124323Y-58847658D01*
X137124320Y-58847667D01*
X137123243Y-58851941D01*
X137068970Y-59067331D01*
X137058500Y-59200364D01*
X137058500Y-60829636D01*
X137068970Y-60962669D01*
X137090811Y-61049347D01*
X137124320Y-61182332D01*
X137124323Y-61182341D01*
X137164772Y-61271392D01*
X137174733Y-61341686D01*
X137145108Y-61406207D01*
X137085303Y-61444468D01*
X137050052Y-61449500D01*
X136638500Y-61449500D01*
X136570379Y-61429498D01*
X136523886Y-61375842D01*
X136512500Y-61323500D01*
X136512500Y-60191111D01*
X136512501Y-58851941D01*
X136501771Y-58766518D01*
X136445814Y-58631426D01*
X136392997Y-58563435D01*
X136034126Y-58204564D01*
X136034116Y-58204556D01*
X135966139Y-58151750D01*
X135831048Y-58095795D01*
X135745630Y-58085066D01*
X135745625Y-58085065D01*
X135745623Y-58085065D01*
X135262379Y-58085065D01*
X135262378Y-58085065D01*
X135262375Y-58085065D01*
X135194036Y-58093649D01*
X135176951Y-58095795D01*
X135041859Y-58151752D01*
X134973874Y-58204564D01*
X134655595Y-58522843D01*
X134593283Y-58556868D01*
X134522467Y-58551803D01*
X134477405Y-58522842D01*
X134159135Y-58204572D01*
X134159128Y-58204566D01*
X134159126Y-58204564D01*
X134159116Y-58204556D01*
X134091142Y-58151753D01*
X133993906Y-58111475D01*
X133938626Y-58066926D01*
X133935441Y-58062106D01*
X133897313Y-58001429D01*
X133897303Y-58001415D01*
X133757681Y-57826341D01*
X133757670Y-57826329D01*
X133738029Y-57806689D01*
X133738027Y-57806686D01*
X133646211Y-57714873D01*
X133591223Y-57659884D01*
X133557197Y-57597572D01*
X133562262Y-57526757D01*
X133604809Y-57469921D01*
X133629060Y-57455687D01*
X133679752Y-57433118D01*
X133834253Y-57320866D01*
X133834255Y-57320864D01*
X133962034Y-57178951D01*
X133962035Y-57178949D01*
X133962040Y-57178944D01*
X134020152Y-57078290D01*
X134071532Y-57029300D01*
X134141245Y-57015863D01*
X134155466Y-57018046D01*
X134270513Y-57042500D01*
X134461483Y-57042500D01*
X134461487Y-57042500D01*
X134463410Y-57042091D01*
X134464549Y-57042178D01*
X134468050Y-57041810D01*
X134468117Y-57042450D01*
X134534198Y-57047489D01*
X134590833Y-57090302D01*
X134598730Y-57102336D01*
X134642958Y-57178941D01*
X134642965Y-57178951D01*
X134770744Y-57320864D01*
X134770747Y-57320866D01*
X134925248Y-57433118D01*
X135099712Y-57510794D01*
X135286513Y-57550500D01*
X135477487Y-57550500D01*
X135664288Y-57510794D01*
X135838752Y-57433118D01*
X135993253Y-57320866D01*
X135993255Y-57320864D01*
X136121034Y-57178951D01*
X136121035Y-57178949D01*
X136121040Y-57178944D01*
X136179152Y-57078290D01*
X136230532Y-57029300D01*
X136300245Y-57015863D01*
X136314466Y-57018046D01*
X136429513Y-57042500D01*
X136620483Y-57042500D01*
X136620487Y-57042500D01*
X136622410Y-57042091D01*
X136623549Y-57042178D01*
X136627050Y-57041810D01*
X136627117Y-57042450D01*
X136693198Y-57047489D01*
X136749833Y-57090302D01*
X136757730Y-57102336D01*
X136801958Y-57178941D01*
X136801965Y-57178951D01*
X136929744Y-57320864D01*
X136929747Y-57320866D01*
X137084248Y-57433118D01*
X137258712Y-57510794D01*
X137445513Y-57550500D01*
X137636487Y-57550500D01*
X137823288Y-57510794D01*
X137997752Y-57433118D01*
X138152253Y-57320866D01*
X138152255Y-57320864D01*
X138280034Y-57178951D01*
X138280035Y-57178949D01*
X138280040Y-57178944D01*
X138296751Y-57150000D01*
X142390859Y-57150000D01*
X142409366Y-57314252D01*
X142450958Y-57433116D01*
X142463958Y-57470267D01*
X142463959Y-57470269D01*
X142551897Y-57610223D01*
X142668776Y-57727102D01*
X142700694Y-57747157D01*
X142808733Y-57815042D01*
X142964748Y-57869634D01*
X143129000Y-57888141D01*
X143293252Y-57869634D01*
X143449267Y-57815042D01*
X143589223Y-57727102D01*
X143706102Y-57610223D01*
X143794042Y-57470267D01*
X143848634Y-57314252D01*
X143867141Y-57150000D01*
X143848634Y-56985748D01*
X143794042Y-56829733D01*
X143740478Y-56744486D01*
X143706102Y-56689776D01*
X143589223Y-56572897D01*
X143449269Y-56484959D01*
X143449267Y-56484958D01*
X143355284Y-56452072D01*
X143293252Y-56430366D01*
X143129000Y-56411859D01*
X142964748Y-56430366D01*
X142964745Y-56430366D01*
X142964745Y-56430367D01*
X142808732Y-56484958D01*
X142808730Y-56484959D01*
X142668776Y-56572897D01*
X142551897Y-56689776D01*
X142463959Y-56829730D01*
X142463958Y-56829732D01*
X142433473Y-56916854D01*
X142409366Y-56985748D01*
X142390859Y-57150000D01*
X138296751Y-57150000D01*
X138375527Y-57013556D01*
X138434542Y-56831928D01*
X138454504Y-56642000D01*
X138434542Y-56452072D01*
X138375527Y-56270444D01*
X138280040Y-56105056D01*
X138280038Y-56105054D01*
X138280034Y-56105048D01*
X138152255Y-55963135D01*
X137997752Y-55850882D01*
X137823288Y-55773206D01*
X137636487Y-55733500D01*
X137445513Y-55733500D01*
X137445504Y-55733500D01*
X137443572Y-55733911D01*
X137442428Y-55733823D01*
X137438942Y-55734190D01*
X137438874Y-55733552D01*
X137372782Y-55728502D01*
X137316154Y-55685679D01*
X137308269Y-55673663D01*
X137303352Y-55665147D01*
X137264040Y-55597056D01*
X137264036Y-55597051D01*
X137264034Y-55597048D01*
X137136255Y-55455135D01*
X136981752Y-55342882D01*
X136807288Y-55265206D01*
X136620487Y-55225500D01*
X136429513Y-55225500D01*
X136242711Y-55265206D01*
X136068247Y-55342882D01*
X135913744Y-55455135D01*
X135785965Y-55597048D01*
X135785961Y-55597054D01*
X135785960Y-55597056D01*
X135764963Y-55633424D01*
X135727848Y-55697708D01*
X135676465Y-55746701D01*
X135606751Y-55760136D01*
X135592532Y-55757953D01*
X135477492Y-55733500D01*
X135477487Y-55733500D01*
X135286513Y-55733500D01*
X135286504Y-55733500D01*
X135284572Y-55733911D01*
X135283428Y-55733823D01*
X135279942Y-55734190D01*
X135279874Y-55733552D01*
X135213782Y-55728502D01*
X135157154Y-55685679D01*
X135149269Y-55673663D01*
X135144352Y-55665147D01*
X135105040Y-55597056D01*
X135105036Y-55597051D01*
X135105034Y-55597048D01*
X134977255Y-55455135D01*
X134822752Y-55342882D01*
X134648288Y-55265206D01*
X134461487Y-55225500D01*
X134270513Y-55225500D01*
X134083711Y-55265206D01*
X133909247Y-55342882D01*
X133754744Y-55455135D01*
X133626965Y-55597048D01*
X133626961Y-55597054D01*
X133626960Y-55597056D01*
X133605963Y-55633424D01*
X133568848Y-55697708D01*
X133517465Y-55746701D01*
X133447751Y-55760136D01*
X133433532Y-55757953D01*
X133318492Y-55733500D01*
X133318487Y-55733500D01*
X133127513Y-55733500D01*
X133127511Y-55733500D01*
X133116473Y-55735846D01*
X133045682Y-55730443D01*
X132989050Y-55687625D01*
X132981158Y-55675598D01*
X132980041Y-55673663D01*
X132939556Y-55603540D01*
X132939554Y-55603538D01*
X132939552Y-55603534D01*
X132811771Y-55461619D01*
X132657268Y-55349366D01*
X132482804Y-55271690D01*
X132296003Y-55231984D01*
X132105029Y-55231984D01*
X131918227Y-55271690D01*
X131743763Y-55349366D01*
X131589260Y-55461619D01*
X131461481Y-55603532D01*
X131461477Y-55603538D01*
X131461476Y-55603540D01*
X131458194Y-55609223D01*
X131406812Y-55658214D01*
X131337098Y-55671648D01*
X131307460Y-55665147D01*
X131216808Y-55633424D01*
X131216805Y-55633423D01*
X131216804Y-55633422D01*
X131216802Y-55633422D01*
X131110787Y-55609222D01*
X130998474Y-55583584D01*
X130775933Y-55558502D01*
X130748227Y-55558502D01*
X130748191Y-55558500D01*
X130743973Y-55558500D01*
X130663963Y-55558500D01*
X130587042Y-55558497D01*
X130587041Y-55558497D01*
X130583258Y-55558497D01*
X130583213Y-55558500D01*
X128426803Y-55558500D01*
X128358682Y-55538498D01*
X128312189Y-55484842D01*
X128302085Y-55414568D01*
X128331579Y-55349988D01*
X128375554Y-55317393D01*
X128472752Y-55274118D01*
X128627253Y-55161866D01*
X128755040Y-55019944D01*
X128850527Y-54854556D01*
X128909542Y-54672928D01*
X128929504Y-54483000D01*
X140691496Y-54483000D01*
X140711457Y-54672927D01*
X140720163Y-54699720D01*
X140770473Y-54854556D01*
X140770476Y-54854561D01*
X140865958Y-55019941D01*
X140865965Y-55019951D01*
X140993744Y-55161864D01*
X140993747Y-55161866D01*
X141148248Y-55274118D01*
X141322712Y-55351794D01*
X141509513Y-55391500D01*
X141700487Y-55391500D01*
X141887288Y-55351794D01*
X142061752Y-55274118D01*
X142216253Y-55161866D01*
X142344040Y-55019944D01*
X142439527Y-54854556D01*
X142498542Y-54672928D01*
X142518504Y-54483000D01*
X142498542Y-54293072D01*
X142439527Y-54111444D01*
X142344040Y-53946056D01*
X142344038Y-53946054D01*
X142344034Y-53946048D01*
X142216255Y-53804135D01*
X142061752Y-53691882D01*
X141887288Y-53614206D01*
X141700487Y-53574500D01*
X141509513Y-53574500D01*
X141322711Y-53614206D01*
X141148247Y-53691882D01*
X140993744Y-53804135D01*
X140865965Y-53946048D01*
X140865958Y-53946058D01*
X140770476Y-54111438D01*
X140770473Y-54111445D01*
X140711457Y-54293072D01*
X140691496Y-54483000D01*
X128929504Y-54483000D01*
X128909542Y-54293072D01*
X128850527Y-54111444D01*
X128755040Y-53946056D01*
X128755038Y-53946054D01*
X128755034Y-53946048D01*
X128627255Y-53804135D01*
X128472752Y-53691882D01*
X128298288Y-53614206D01*
X128111487Y-53574500D01*
X127920513Y-53574500D01*
X127733711Y-53614206D01*
X127559247Y-53691882D01*
X127404744Y-53804135D01*
X127276965Y-53946048D01*
X127276958Y-53946058D01*
X127181476Y-54111438D01*
X127181473Y-54111445D01*
X127122457Y-54293072D01*
X127102496Y-54483000D01*
X127122457Y-54672927D01*
X127131163Y-54699720D01*
X127181473Y-54854556D01*
X127181476Y-54854561D01*
X127276958Y-55019941D01*
X127276965Y-55019951D01*
X127404744Y-55161864D01*
X127404747Y-55161866D01*
X127559248Y-55274118D01*
X127656446Y-55317393D01*
X127710542Y-55363373D01*
X127731191Y-55431301D01*
X127711839Y-55499609D01*
X127658628Y-55546610D01*
X127605197Y-55558500D01*
X122252221Y-55558500D01*
X122252205Y-55558499D01*
X122223678Y-55558499D01*
X122223671Y-55558497D01*
X122171485Y-55558497D01*
X122059511Y-55558497D01*
X121938519Y-55572130D01*
X121836975Y-55583572D01*
X121618634Y-55633408D01*
X121407260Y-55707372D01*
X121205486Y-55804542D01*
X121205484Y-55804543D01*
X121015869Y-55923686D01*
X120840769Y-56063324D01*
X120840768Y-56063325D01*
X120818188Y-56085906D01*
X119300962Y-57603130D01*
X119300837Y-57603262D01*
X119251322Y-57652776D01*
X119251316Y-57652782D01*
X119111696Y-57827861D01*
X119111693Y-57827865D01*
X118992546Y-58017485D01*
X118992545Y-58017487D01*
X118895375Y-58219261D01*
X118821411Y-58430635D01*
X118771575Y-58648974D01*
X118746500Y-58871511D01*
X118746500Y-58983485D01*
X118746499Y-59064205D01*
X118746500Y-59064221D01*
X118746500Y-66229515D01*
X118242000Y-66221507D01*
X118242000Y-64914364D01*
X118221317Y-64770096D01*
X118201742Y-64703228D01*
X118187500Y-64671941D01*
X118141365Y-64570588D01*
X118045834Y-64459972D01*
X118018455Y-64436169D01*
X117994753Y-64415562D01*
X117993940Y-64414804D01*
X117993100Y-64414126D01*
X117870282Y-64334911D01*
X117870278Y-64334909D01*
X117819374Y-64319871D01*
X117759711Y-64281389D01*
X117730325Y-64216759D01*
X117729072Y-64199309D01*
X117722578Y-61084062D01*
X117720151Y-61049356D01*
X117713175Y-60998955D01*
X117699014Y-60930932D01*
X117678560Y-60884604D01*
X117639984Y-60797224D01*
X117602952Y-60737968D01*
X117602000Y-60736771D01*
X117601265Y-60735972D01*
X117541481Y-60665189D01*
X117508651Y-60626317D01*
X116340748Y-59588179D01*
X116291096Y-59550591D01*
X116276409Y-59539472D01*
X116276408Y-59539471D01*
X116276401Y-59539466D01*
X116243688Y-59518529D01*
X116243689Y-59518530D01*
X116172537Y-59480514D01*
X116172529Y-59480511D01*
X116031655Y-59441633D01*
X116028664Y-59441252D01*
X115962335Y-59432819D01*
X115962332Y-59432819D01*
X115962321Y-59432818D01*
X115816204Y-59435204D01*
X115816202Y-59435204D01*
X115816201Y-59435205D01*
X115795565Y-59441632D01*
X115676660Y-59478662D01*
X115636140Y-59497973D01*
X115566040Y-59509221D01*
X115500987Y-59480786D01*
X115478239Y-59455804D01*
X115469540Y-59443201D01*
X115403657Y-59347753D01*
X115403656Y-59347751D01*
X115215092Y-59134907D01*
X115002249Y-58946345D01*
X115002250Y-58946345D01*
X115002247Y-58946343D01*
X114865534Y-58851977D01*
X114768229Y-58784812D01*
X114768222Y-58784808D01*
X114516450Y-58652667D01*
X114516434Y-58652660D01*
X114250558Y-58551826D01*
X113974466Y-58483776D01*
X113974460Y-58483775D01*
X113692182Y-58449500D01*
X113692179Y-58449500D01*
X113608488Y-58449500D01*
X110552252Y-58449500D01*
X110547756Y-58449339D01*
X110324243Y-58433353D01*
X110306449Y-58430795D01*
X110094088Y-58384599D01*
X110076838Y-58379534D01*
X109873214Y-58303586D01*
X109856862Y-58296118D01*
X109666120Y-58191965D01*
X109650996Y-58182245D01*
X109477018Y-58052007D01*
X109463432Y-58040234D01*
X109309765Y-57886567D01*
X109297992Y-57872981D01*
X109295486Y-57869634D01*
X109218235Y-57766438D01*
X109167754Y-57699003D01*
X109158034Y-57683879D01*
X109069568Y-57521865D01*
X109053880Y-57493135D01*
X109046413Y-57476785D01*
X109030125Y-57433116D01*
X108970464Y-57273159D01*
X108965400Y-57255911D01*
X108958559Y-57224464D01*
X108919202Y-57043540D01*
X108916647Y-57025767D01*
X108906544Y-56884509D01*
X108900661Y-56802244D01*
X108900500Y-56797748D01*
X108900500Y-55366576D01*
X110196382Y-55366576D01*
X110226006Y-55635825D01*
X110294522Y-55897901D01*
X110400463Y-56147200D01*
X110400464Y-56147201D01*
X110541576Y-56378421D01*
X110714849Y-56586631D01*
X110714851Y-56586633D01*
X110714853Y-56586635D01*
X110819830Y-56680694D01*
X110916592Y-56767393D01*
X111142504Y-56916855D01*
X111387770Y-57031831D01*
X111647163Y-57109871D01*
X111647166Y-57109871D01*
X111647168Y-57109872D01*
X111915151Y-57149311D01*
X111915155Y-57149311D01*
X112118227Y-57149311D01*
X112152957Y-57146768D01*
X112320750Y-57134488D01*
X112320754Y-57134487D01*
X112320755Y-57134487D01*
X112519107Y-57090302D01*
X112585147Y-57075591D01*
X112838152Y-56978825D01*
X113074371Y-56846252D01*
X113288771Y-56680699D01*
X113476780Y-56485692D01*
X113634393Y-56265390D01*
X113758250Y-56024486D01*
X113845712Y-55768116D01*
X113875061Y-55609222D01*
X113894912Y-55501752D01*
X113894913Y-55501741D01*
X113898099Y-55414568D01*
X113904806Y-55231046D01*
X113889932Y-55095869D01*
X113875181Y-54961796D01*
X113806665Y-54699720D01*
X113700724Y-54450421D01*
X113559612Y-54219201D01*
X113386339Y-54010991D01*
X113386335Y-54010988D01*
X113386334Y-54010986D01*
X113184606Y-53830238D01*
X113184596Y-53830229D01*
X112958684Y-53680767D01*
X112713418Y-53565791D01*
X112555986Y-53518426D01*
X112454019Y-53487749D01*
X112186036Y-53448311D01*
X112186033Y-53448311D01*
X111982963Y-53448311D01*
X111982961Y-53448311D01*
X111780433Y-53463134D01*
X111780432Y-53463134D01*
X111516050Y-53522028D01*
X111516035Y-53522033D01*
X111263035Y-53618797D01*
X111026823Y-53751366D01*
X111026819Y-53751368D01*
X110812412Y-53916927D01*
X110624409Y-54111928D01*
X110624404Y-54111934D01*
X110466797Y-54332228D01*
X110466790Y-54332238D01*
X110342937Y-54573135D01*
X110342936Y-54573138D01*
X110255477Y-54829500D01*
X110255474Y-54829513D01*
X110206275Y-55095869D01*
X110206274Y-55095880D01*
X110196382Y-55366576D01*
X108900500Y-55366576D01*
X108900500Y-53802251D01*
X108900661Y-53797755D01*
X108913460Y-53618797D01*
X108916647Y-53574230D01*
X108919202Y-53556461D01*
X108965401Y-53344082D01*
X108970465Y-53326838D01*
X109046416Y-53123206D01*
X109053877Y-53106870D01*
X109158037Y-52916115D01*
X109167750Y-52901001D01*
X109297998Y-52727010D01*
X109309758Y-52713439D01*
X109463439Y-52559758D01*
X109477010Y-52547998D01*
X109651001Y-52417750D01*
X109666115Y-52408037D01*
X109856870Y-52303877D01*
X109873206Y-52296416D01*
X110076843Y-52220463D01*
X110094082Y-52215401D01*
X110306461Y-52169202D01*
X110324232Y-52166647D01*
X110465490Y-52156544D01*
X110547756Y-52150661D01*
X110552252Y-52150500D01*
X110605514Y-52150500D01*
X143144486Y-52150500D01*
X143197748Y-52150500D01*
X143202244Y-52150661D01*
G37*
%TD.AperFunction*%
%TA.AperFunction,Conductor*%
G36*
X113336793Y-77608796D02*
G01*
X113217732Y-77650458D01*
X113217730Y-77650459D01*
X113077776Y-77738397D01*
X112960897Y-77855276D01*
X112872959Y-77995230D01*
X112872958Y-77995232D01*
X112872958Y-77995233D01*
X112818366Y-78151248D01*
X112799859Y-78315500D01*
X112818366Y-78479752D01*
X112818367Y-78479754D01*
X112872958Y-78635767D01*
X112872959Y-78635769D01*
X112960897Y-78775723D01*
X113077776Y-78892602D01*
X113196081Y-78966937D01*
X113217733Y-78980542D01*
X113322124Y-79017070D01*
X113285380Y-82544500D01*
X111632000Y-82544500D01*
X111631990Y-82544500D01*
X111543267Y-82554039D01*
X111522851Y-82556234D01*
X111522848Y-82556234D01*
X111522844Y-82556235D01*
X111522840Y-82556235D01*
X111470519Y-82567617D01*
X111470498Y-82567623D01*
X111366345Y-82602288D01*
X111243385Y-82681310D01*
X111191019Y-82726685D01*
X111189904Y-82727599D01*
X111094019Y-82838258D01*
X111094017Y-82838261D01*
X111033301Y-82971210D01*
X111013302Y-83039322D01*
X111013300Y-83039329D01*
X111013300Y-83039331D01*
X110992502Y-83183990D01*
X110992500Y-83184003D01*
X110992500Y-87885009D01*
X111004235Y-87994155D01*
X111004235Y-87994159D01*
X111015617Y-88046480D01*
X111015623Y-88046501D01*
X111033103Y-88099020D01*
X111035637Y-88169972D01*
X111034447Y-88174309D01*
X111013302Y-88246322D01*
X111013300Y-88246329D01*
X110992500Y-88391003D01*
X110992500Y-92460546D01*
X111002725Y-92562512D01*
X111012665Y-92611568D01*
X111012667Y-92611573D01*
X111042942Y-92709489D01*
X111118416Y-92834648D01*
X111118423Y-92834658D01*
X111163352Y-92889603D01*
X111163358Y-92889610D01*
X111163360Y-92889612D01*
X111172718Y-92898200D01*
X111209380Y-92958997D01*
X111207353Y-93029964D01*
X111202134Y-93043371D01*
X111160301Y-93134970D01*
X111140303Y-93203079D01*
X111140300Y-93203089D01*
X111140300Y-93203091D01*
X111120371Y-93341706D01*
X111119500Y-93347763D01*
X111119500Y-97660500D01*
X111099498Y-97728621D01*
X111045842Y-97775114D01*
X110993500Y-97786500D01*
X108455574Y-97786500D01*
X108387453Y-97766498D01*
X108340960Y-97712842D01*
X108329576Y-97660973D01*
X108254789Y-77543365D01*
X108255299Y-77535132D01*
X108272622Y-77399992D01*
X108281065Y-77368103D01*
X108282105Y-77365572D01*
X108326514Y-77310182D01*
X108393821Y-77287592D01*
X108398634Y-77287500D01*
X113340141Y-77287500D01*
X113336793Y-77608796D01*
G37*
%TD.AperFunction*%
%TA.AperFunction,Conductor*%
G36*
X120067067Y-92964118D02*
G01*
X120025411Y-92948780D01*
X120016785Y-92941769D01*
X119978249Y-92907515D01*
X118538790Y-91627995D01*
X118501165Y-91567788D01*
X118496500Y-91533821D01*
X118496500Y-91318761D01*
X120067067Y-92964118D01*
G37*
%TD.AperFunction*%
%TA.AperFunction,Conductor*%
G36*
X111569621Y-64207502D02*
G01*
X111616114Y-64261158D01*
X111627500Y-64313500D01*
X111627500Y-66418507D01*
X111639237Y-66527664D01*
X111650441Y-66579167D01*
X111685109Y-66683325D01*
X111685111Y-66683329D01*
X111713979Y-66728248D01*
X111733981Y-66796369D01*
X111722594Y-66848712D01*
X111667987Y-66968281D01*
X111648302Y-67035319D01*
X111648301Y-67035326D01*
X111648300Y-67035330D01*
X111628454Y-67173369D01*
X111627500Y-67180003D01*
X111627500Y-69853007D01*
X111639237Y-69962164D01*
X111650441Y-70013667D01*
X111685109Y-70117825D01*
X111764130Y-70240784D01*
X111764131Y-70240786D01*
X111809880Y-70293582D01*
X111809882Y-70293583D01*
X111809884Y-70293586D01*
X111920339Y-70389297D01*
X112053287Y-70450014D01*
X112120326Y-70469699D01*
X112120330Y-70469700D01*
X112265000Y-70490500D01*
X113298224Y-70490500D01*
X113366345Y-70510502D01*
X113410207Y-70561121D01*
X113408952Y-70681551D01*
X113382310Y-70757692D01*
X113363803Y-70921944D01*
X113382310Y-71086196D01*
X113382311Y-71086198D01*
X113404089Y-71148436D01*
X113398830Y-71653230D01*
X113246748Y-71670366D01*
X113246745Y-71670366D01*
X113246745Y-71670367D01*
X113090732Y-71724958D01*
X113090730Y-71724959D01*
X112950776Y-71812897D01*
X112833897Y-71929776D01*
X112745959Y-72069730D01*
X112745958Y-72069732D01*
X112724358Y-72131462D01*
X112691366Y-72225748D01*
X112672859Y-72390000D01*
X112691366Y-72554252D01*
X112725133Y-72650752D01*
X112745958Y-72710267D01*
X112745959Y-72710269D01*
X112833897Y-72850223D01*
X112950776Y-72967102D01*
X113069081Y-73041437D01*
X113090733Y-73055042D01*
X113246748Y-73109634D01*
X113383499Y-73125042D01*
X113367234Y-74686500D01*
X108386781Y-74686500D01*
X108318660Y-74666498D01*
X108272167Y-74612842D01*
X108261916Y-74577372D01*
X108243802Y-74443317D01*
X108243234Y-74435117D01*
X108234286Y-72027861D01*
X108205609Y-64313966D01*
X108225358Y-64245774D01*
X108278840Y-64199082D01*
X108331608Y-64187500D01*
X111501500Y-64187500D01*
X111569621Y-64207502D01*
G37*
%TD.AperFunction*%
%TA.AperFunction,Conductor*%
G36*
X122134884Y-58498619D02*
G01*
X122191719Y-58541166D01*
X122216530Y-58607686D01*
X122205572Y-58668782D01*
X122124321Y-58847663D01*
X122124320Y-58847667D01*
X122123243Y-58851941D01*
X122068970Y-59067331D01*
X122058500Y-59200364D01*
X122058500Y-60829636D01*
X122068970Y-60962669D01*
X122090811Y-61049347D01*
X122124320Y-61182332D01*
X122124323Y-61182341D01*
X122213488Y-61378646D01*
X122223449Y-61448941D01*
X122193823Y-61513461D01*
X122148158Y-61546670D01*
X122137559Y-61551185D01*
X122137553Y-61551188D01*
X121996102Y-61648826D01*
X121877049Y-61772774D01*
X121785189Y-61918038D01*
X121785187Y-61918041D01*
X121724244Y-62078737D01*
X121724243Y-62078741D01*
X121696674Y-62248377D01*
X121696674Y-62248381D01*
X121696674Y-62248383D01*
X121703594Y-62420114D01*
X121744725Y-62586989D01*
X121818405Y-62742265D01*
X121921654Y-62879665D01*
X122050300Y-62993636D01*
X122115132Y-63031010D01*
X122133195Y-63043650D01*
X122147498Y-63055653D01*
X122175617Y-63089165D01*
X122179380Y-63095682D01*
X122194346Y-63136790D01*
X122197583Y-63155136D01*
X122199500Y-63177025D01*
X122199500Y-66284325D01*
X121581859Y-66274521D01*
X121406807Y-66099469D01*
X121402663Y-66094897D01*
X121338135Y-66016268D01*
X121324412Y-65995730D01*
X121280860Y-65914249D01*
X121271408Y-65891431D01*
X121244587Y-65803015D01*
X121239771Y-65778802D01*
X121229804Y-65677607D01*
X121229500Y-65671428D01*
X121229500Y-59550591D01*
X121229804Y-59544412D01*
X121234378Y-59497973D01*
X121239773Y-59443194D01*
X121244588Y-59418985D01*
X121271411Y-59330562D01*
X121280861Y-59307751D01*
X121324417Y-59226264D01*
X121338131Y-59205738D01*
X121402686Y-59127078D01*
X121406827Y-59122509D01*
X121461287Y-59068050D01*
X121461287Y-59068048D01*
X121471656Y-59057680D01*
X121471659Y-59057675D01*
X122001758Y-58527577D01*
X122064068Y-58493554D01*
X122134884Y-58498619D01*
G37*
%TD.AperFunction*%
%TA.AperFunction,Conductor*%
G36*
X127403576Y-58059502D02*
G01*
X127450069Y-58113158D01*
X127460173Y-58183432D01*
X127430679Y-58248012D01*
X127424550Y-58254595D01*
X127115389Y-58563755D01*
X127115370Y-58563776D01*
X127062622Y-58631679D01*
X127062621Y-58631680D01*
X127006718Y-58766642D01*
X126996000Y-58851977D01*
X126996000Y-59839566D01*
X128132000Y-59839566D01*
X128200121Y-59859568D01*
X128246614Y-59913224D01*
X128258000Y-59965566D01*
X128258000Y-60089051D01*
X128239495Y-59996021D01*
X128184240Y-59913326D01*
X128101545Y-59858071D01*
X128028624Y-59843566D01*
X127979376Y-59843566D01*
X127906455Y-59858071D01*
X127823760Y-59913326D01*
X127768505Y-59996021D01*
X127749102Y-60093566D01*
X127768505Y-60191111D01*
X127823760Y-60273806D01*
X127906455Y-60329061D01*
X127979376Y-60343566D01*
X128028624Y-60343566D01*
X128101545Y-60329061D01*
X128184240Y-60273806D01*
X128239495Y-60191111D01*
X128258000Y-60098080D01*
X128258000Y-60221566D01*
X128237998Y-60289687D01*
X128184342Y-60336180D01*
X128132000Y-60347566D01*
X126996000Y-60347566D01*
X126996000Y-61323500D01*
X126975998Y-61391621D01*
X126922342Y-61438114D01*
X126870000Y-61449500D01*
X126083948Y-61449500D01*
X126015827Y-61429498D01*
X125969334Y-61375842D01*
X125959230Y-61305568D01*
X125969228Y-61271392D01*
X126009679Y-61182336D01*
X126065030Y-60962669D01*
X126075500Y-60829636D01*
X126075500Y-59200364D01*
X126065030Y-59067331D01*
X126009679Y-58847664D01*
X125915994Y-58641409D01*
X125915993Y-58641408D01*
X125915990Y-58641402D01*
X125786988Y-58455200D01*
X125786984Y-58455195D01*
X125626804Y-58295015D01*
X125626799Y-58295011D01*
X125589358Y-58269072D01*
X125544754Y-58213837D01*
X125537092Y-58143255D01*
X125568807Y-58079736D01*
X125629828Y-58043446D01*
X125661113Y-58039500D01*
X127335455Y-58039500D01*
X127403576Y-58059502D01*
G37*
%TD.AperFunction*%
%TD*%
%TA.AperFunction,Conductor*%
%TO.N,MOTOR_C*%
G36*
X115687621Y-83078002D02*
G01*
X115734114Y-83131658D01*
X115745500Y-83184000D01*
X115745500Y-85125800D01*
X115757032Y-85193675D01*
X115757033Y-85193677D01*
X115805688Y-85271109D01*
X115805690Y-85271112D01*
X115914096Y-85379518D01*
X115948120Y-85441828D01*
X115951000Y-85468612D01*
X115951000Y-85852000D01*
X115189000Y-85090000D01*
X115189000Y-87122000D01*
X115951000Y-87788750D01*
X115951000Y-87885000D01*
X115930998Y-87953121D01*
X115877342Y-87999614D01*
X115825000Y-88011000D01*
X111632000Y-88011000D01*
X111563879Y-87990998D01*
X111517386Y-87937342D01*
X111506000Y-87885000D01*
X111506000Y-83184000D01*
X111526002Y-83115879D01*
X111579658Y-83069386D01*
X111632000Y-83058000D01*
X115619500Y-83058000D01*
X115687621Y-83078002D01*
G37*
%TD.AperFunction*%
%TD*%
%TA.AperFunction,Conductor*%
%TO.N,MOTOR_A*%
G36*
X114418333Y-93299921D02*
G01*
X114485833Y-93321917D01*
X114491981Y-93326408D01*
X115769856Y-94320310D01*
X115811348Y-94377920D01*
X115818500Y-94419768D01*
X115818500Y-96021748D01*
X115819051Y-96038558D01*
X115820691Y-96063560D01*
X115822337Y-96080271D01*
X115830989Y-96145989D01*
X114935000Y-95250000D01*
X115297357Y-97786500D01*
X111759000Y-97786500D01*
X111690879Y-97766498D01*
X111644386Y-97712842D01*
X111633000Y-97660500D01*
X111633000Y-93347760D01*
X111653002Y-93279639D01*
X111706658Y-93233146D01*
X111762700Y-93221814D01*
X114418333Y-93299921D01*
G37*
%TD.AperFunction*%
%TD*%
%TA.AperFunction,Conductor*%
%TO.N,UART_GND*%
G36*
X113706733Y-70510502D02*
G01*
X113753226Y-70564158D01*
X113763330Y-70634432D01*
X113750879Y-70673703D01*
X113749804Y-70675813D01*
X113692225Y-70788818D01*
X113671140Y-70921944D01*
X113692225Y-71055070D01*
X113722820Y-71115117D01*
X113753077Y-71174500D01*
X113753416Y-71175164D01*
X113848724Y-71270472D01*
X113968818Y-71331663D01*
X114101944Y-71352748D01*
X114235070Y-71331663D01*
X114355164Y-71270472D01*
X114355164Y-71270471D01*
X114363999Y-71265970D01*
X114364808Y-71267558D01*
X114420606Y-71247649D01*
X114427799Y-71247444D01*
X115473146Y-71247444D01*
X115541267Y-71267446D01*
X115587760Y-71321102D01*
X115597864Y-71391376D01*
X115585414Y-71430643D01*
X115548837Y-71502430D01*
X115527752Y-71635556D01*
X115548837Y-71768682D01*
X115610028Y-71888776D01*
X115705336Y-71984084D01*
X115825430Y-72045275D01*
X115958556Y-72066360D01*
X116091682Y-72045275D01*
X116211776Y-71984084D01*
X116307084Y-71888776D01*
X116368275Y-71768682D01*
X116389360Y-71635556D01*
X116368275Y-71502430D01*
X116331698Y-71430644D01*
X116318595Y-71360871D01*
X116345295Y-71295086D01*
X116403322Y-71254179D01*
X116443966Y-71247444D01*
X117648720Y-71247444D01*
X117649021Y-71247430D01*
X117728056Y-71247432D01*
X117728064Y-71247431D01*
X117728067Y-71247431D01*
X117883200Y-71227010D01*
X117947165Y-71218591D01*
X117947171Y-71218589D01*
X117947173Y-71218589D01*
X118160634Y-71161395D01*
X118364801Y-71076829D01*
X118364799Y-71076829D01*
X118364811Y-71076825D01*
X118556202Y-70966327D01*
X118731532Y-70831792D01*
X118809667Y-70753657D01*
X118846121Y-70717203D01*
X118905648Y-70657675D01*
X118992308Y-70571014D01*
X119054619Y-70536991D01*
X119125435Y-70542057D01*
X119182271Y-70584604D01*
X119196141Y-70615697D01*
X119198384Y-70614769D01*
X119203132Y-70626234D01*
X119236255Y-70675804D01*
X119236262Y-70675813D01*
X119256221Y-70695772D01*
X119290247Y-70758084D01*
X119285182Y-70828899D01*
X119256221Y-70873962D01*
X118547285Y-71582898D01*
X118547055Y-71583143D01*
X118510879Y-71619321D01*
X118407785Y-71761218D01*
X118407780Y-71761226D01*
X118328154Y-71917495D01*
X118328152Y-71917499D01*
X118273951Y-72084300D01*
X118273949Y-72084310D01*
X118246503Y-72257542D01*
X118246503Y-72272106D01*
X118246500Y-72272156D01*
X118246500Y-72345243D01*
X118246497Y-72409183D01*
X118246500Y-72409225D01*
X118246500Y-74374343D01*
X118226498Y-74442464D01*
X118172842Y-74488957D01*
X118102568Y-74499061D01*
X118037988Y-74469567D01*
X118024692Y-74456177D01*
X118023258Y-74454498D01*
X118001644Y-74432885D01*
X118001612Y-74432850D01*
X117992799Y-74424037D01*
X117992766Y-74423977D01*
X117888523Y-74319734D01*
X117888516Y-74319728D01*
X117888512Y-74319724D01*
X117888506Y-74319720D01*
X117888503Y-74319717D01*
X117734328Y-74207706D01*
X117734326Y-74207705D01*
X117734325Y-74207704D01*
X117718317Y-74199548D01*
X117564516Y-74121187D01*
X117564513Y-74121186D01*
X117564511Y-74121185D01*
X117383253Y-74062298D01*
X117383251Y-74062297D01*
X117383246Y-74062296D01*
X117195014Y-74032494D01*
X117099722Y-74032500D01*
X116105938Y-74032500D01*
X116038326Y-74042690D01*
X116004519Y-74047786D01*
X115881079Y-74107232D01*
X115881076Y-74107235D01*
X115780646Y-74200421D01*
X115780642Y-74200426D01*
X115712138Y-74319077D01*
X115681651Y-74452650D01*
X115691890Y-74589279D01*
X115741943Y-74716815D01*
X115741945Y-74716817D01*
X115827366Y-74823933D01*
X115827367Y-74823933D01*
X115827369Y-74823936D01*
X115940572Y-74901116D01*
X116071495Y-74941500D01*
X117035815Y-74941500D01*
X117035886Y-74941504D01*
X117039942Y-74941503D01*
X117039944Y-74941504D01*
X117095647Y-74941500D01*
X117103874Y-74942038D01*
X117161430Y-74949613D01*
X117193195Y-74958123D01*
X117235318Y-74975569D01*
X117263801Y-74992013D01*
X117299908Y-75019718D01*
X117323169Y-75042979D01*
X117350967Y-75079207D01*
X117367414Y-75107695D01*
X117384854Y-75149802D01*
X117393367Y-75181577D01*
X117400960Y-75239277D01*
X117401499Y-75247510D01*
X117401495Y-75311793D01*
X117401500Y-75311864D01*
X117401500Y-77435958D01*
X117401521Y-77436551D01*
X117401521Y-77518728D01*
X117432568Y-77754585D01*
X117432569Y-77754593D01*
X117494136Y-77984383D01*
X117494139Y-77984390D01*
X117576141Y-78182374D01*
X117585179Y-78204193D01*
X117585185Y-78204205D01*
X117680254Y-78368875D01*
X117704126Y-78410224D01*
X117848951Y-78598971D01*
X117879162Y-78629184D01*
X117879184Y-78629209D01*
X117895447Y-78645471D01*
X117923469Y-78673493D01*
X117933061Y-78683085D01*
X117933063Y-78683087D01*
X117982548Y-78732574D01*
X117982561Y-78732585D01*
X118521542Y-79271566D01*
X118521562Y-79271588D01*
X118564477Y-79314501D01*
X118567836Y-79318135D01*
X118652110Y-79416806D01*
X118663733Y-79432803D01*
X118727643Y-79537096D01*
X118736619Y-79554712D01*
X118783427Y-79667716D01*
X118789537Y-79686521D01*
X118818089Y-79805455D01*
X118821182Y-79824983D01*
X118831365Y-79954381D01*
X118831559Y-79959326D01*
X118831559Y-80026793D01*
X118831560Y-80026806D01*
X118831560Y-80916992D01*
X118811558Y-80985113D01*
X118805523Y-80993695D01*
X118761528Y-81051030D01*
X118761523Y-81051038D01*
X118701015Y-81197117D01*
X118680378Y-81353877D01*
X118680378Y-81353878D01*
X118701015Y-81510638D01*
X118717541Y-81550534D01*
X118761524Y-81656719D01*
X118857778Y-81782160D01*
X118983219Y-81878414D01*
X119129298Y-81938922D01*
X119286060Y-81959560D01*
X119442822Y-81938922D01*
X119588901Y-81878414D01*
X119714342Y-81782160D01*
X119810596Y-81656719D01*
X119871104Y-81510640D01*
X119891742Y-81353878D01*
X119871104Y-81197116D01*
X119810596Y-81051037D01*
X119810591Y-81051030D01*
X119766597Y-80993695D01*
X119740997Y-80927475D01*
X119740560Y-80916992D01*
X119740560Y-79920336D01*
X119740557Y-79920260D01*
X119740557Y-79906483D01*
X119740558Y-79837864D01*
X119736163Y-79804481D01*
X119747102Y-79734334D01*
X119794229Y-79681235D01*
X119862582Y-79662044D01*
X119930461Y-79682854D01*
X119950180Y-79698940D01*
X120014860Y-79763620D01*
X120055420Y-79804180D01*
X120058767Y-79807801D01*
X120143053Y-79906487D01*
X120154671Y-79922479D01*
X120218580Y-80026768D01*
X120227557Y-80044385D01*
X120274367Y-80157394D01*
X120280477Y-80176198D01*
X120309032Y-80295138D01*
X120312124Y-80314664D01*
X120322306Y-80444003D01*
X120322500Y-80448949D01*
X120322500Y-80589114D01*
X120302498Y-80657235D01*
X120296463Y-80665817D01*
X120252468Y-80723152D01*
X120252463Y-80723160D01*
X120191955Y-80869239D01*
X120171318Y-81025999D01*
X120171318Y-81026000D01*
X120191955Y-81182760D01*
X120197902Y-81197116D01*
X120252464Y-81328841D01*
X120348718Y-81454282D01*
X120474159Y-81550536D01*
X120620238Y-81611044D01*
X120777000Y-81631682D01*
X120933762Y-81611044D01*
X121079841Y-81550536D01*
X121205282Y-81454282D01*
X121301536Y-81328841D01*
X121362044Y-81182762D01*
X121382682Y-81026000D01*
X121362044Y-80869238D01*
X121301536Y-80723159D01*
X121301531Y-80723152D01*
X121257537Y-80665817D01*
X121231937Y-80599597D01*
X121231500Y-80589114D01*
X121231500Y-80506326D01*
X121231501Y-80506323D01*
X121231500Y-80498681D01*
X121231502Y-80498678D01*
X121231501Y-80327539D01*
X121231501Y-80327533D01*
X121200446Y-80091661D01*
X121138870Y-79861861D01*
X121047827Y-79642063D01*
X120928873Y-79436029D01*
X120857127Y-79342528D01*
X120784051Y-79247293D01*
X120784040Y-79247281D01*
X120783978Y-79247219D01*
X120755554Y-79218795D01*
X120755545Y-79218784D01*
X119582661Y-78045900D01*
X119548635Y-77983588D01*
X119553700Y-77912773D01*
X119596247Y-77855937D01*
X119614549Y-77844541D01*
X119633220Y-77835028D01*
X119728528Y-77739720D01*
X119775222Y-77648077D01*
X119823967Y-77596464D01*
X119892882Y-77579398D01*
X119944687Y-77593014D01*
X120008874Y-77625719D01*
X120142000Y-77646804D01*
X120275126Y-77625719D01*
X120395220Y-77564528D01*
X120490528Y-77469220D01*
X120551719Y-77349126D01*
X120572804Y-77216000D01*
X120558661Y-77126707D01*
X120567760Y-77056300D01*
X120613482Y-77001986D01*
X120618596Y-77000404D01*
X120638000Y-76981001D01*
X120638000Y-75977514D01*
X120656505Y-76070545D01*
X120711760Y-76153240D01*
X120794455Y-76208495D01*
X120867376Y-76223000D01*
X120916624Y-76223000D01*
X120989545Y-76208495D01*
X121072240Y-76153240D01*
X121127495Y-76070545D01*
X121146000Y-75977514D01*
X121146000Y-76981000D01*
X122073500Y-76981000D01*
X122141621Y-77001002D01*
X122188114Y-77054658D01*
X122199500Y-77107000D01*
X122199500Y-85657694D01*
X122179498Y-85725815D01*
X122125842Y-85772308D01*
X122055568Y-85782412D01*
X121990988Y-85752918D01*
X121964381Y-85720694D01*
X121870196Y-85557562D01*
X121870195Y-85557560D01*
X121747050Y-85420793D01*
X121747049Y-85420792D01*
X121598165Y-85312621D01*
X121562446Y-85296718D01*
X121430034Y-85237764D01*
X121250019Y-85199500D01*
X121065981Y-85199500D01*
X120921969Y-85230111D01*
X120885965Y-85237764D01*
X120717834Y-85312621D01*
X120568950Y-85420792D01*
X120445806Y-85557558D01*
X120445803Y-85557562D01*
X120387992Y-85657694D01*
X120353786Y-85716941D01*
X120350903Y-85725815D01*
X120296914Y-85891971D01*
X120277678Y-86075000D01*
X120296914Y-86258028D01*
X120309415Y-86296500D01*
X120353786Y-86433059D01*
X120353789Y-86433064D01*
X120445803Y-86592437D01*
X120445806Y-86592441D01*
X120568950Y-86729207D01*
X120717834Y-86837378D01*
X120717836Y-86837379D01*
X120717839Y-86837381D01*
X120885966Y-86912236D01*
X121065981Y-86950500D01*
X121065985Y-86950500D01*
X121071880Y-86951753D01*
X121134353Y-86985481D01*
X121156482Y-87025552D01*
X121194328Y-86974493D01*
X121244119Y-86951753D01*
X121250014Y-86950500D01*
X121250019Y-86950500D01*
X121430034Y-86912236D01*
X121598161Y-86837381D01*
X121747050Y-86729207D01*
X121870195Y-86592440D01*
X121962214Y-86433059D01*
X121962214Y-86433057D01*
X121964381Y-86429305D01*
X122015764Y-86380312D01*
X122085477Y-86366876D01*
X122151388Y-86393262D01*
X122192570Y-86451094D01*
X122199500Y-86492305D01*
X122199500Y-87657694D01*
X122179498Y-87725815D01*
X122125842Y-87772308D01*
X122055568Y-87782412D01*
X121990988Y-87752918D01*
X121964381Y-87720694D01*
X121870196Y-87557562D01*
X121870195Y-87557560D01*
X121747050Y-87420793D01*
X121707804Y-87392279D01*
X121598165Y-87312621D01*
X121561467Y-87296282D01*
X121430034Y-87237764D01*
X121250019Y-87199500D01*
X121250014Y-87199500D01*
X121244119Y-87198247D01*
X121181646Y-87164519D01*
X121159516Y-87124447D01*
X121121671Y-87175508D01*
X121071880Y-87198247D01*
X121065985Y-87199500D01*
X121065981Y-87199500D01*
X120921748Y-87230158D01*
X120885965Y-87237764D01*
X120717834Y-87312621D01*
X120568950Y-87420792D01*
X120445806Y-87557558D01*
X120445803Y-87557562D01*
X120353789Y-87716935D01*
X120353786Y-87716942D01*
X120296914Y-87891971D01*
X120277678Y-88075000D01*
X120296914Y-88258028D01*
X120325082Y-88344718D01*
X120353786Y-88433059D01*
X120353789Y-88433064D01*
X120445803Y-88592437D01*
X120445806Y-88592441D01*
X120568950Y-88729207D01*
X120717834Y-88837378D01*
X120717836Y-88837379D01*
X120717839Y-88837381D01*
X120885966Y-88912236D01*
X121065981Y-88950500D01*
X121065985Y-88950500D01*
X121071880Y-88951753D01*
X121134353Y-88985481D01*
X121156482Y-89025552D01*
X121194328Y-88974493D01*
X121244119Y-88951753D01*
X121250014Y-88950500D01*
X121250019Y-88950500D01*
X121430034Y-88912236D01*
X121598161Y-88837381D01*
X121747050Y-88729207D01*
X121870195Y-88592440D01*
X121962214Y-88433059D01*
X121962214Y-88433057D01*
X121964381Y-88429305D01*
X122015764Y-88380312D01*
X122085477Y-88366876D01*
X122151388Y-88393262D01*
X122192570Y-88451094D01*
X122199500Y-88492305D01*
X122199500Y-89657694D01*
X122179498Y-89725815D01*
X122125842Y-89772308D01*
X122055568Y-89782412D01*
X121990988Y-89752918D01*
X121964381Y-89720694D01*
X121870196Y-89557562D01*
X121870195Y-89557560D01*
X121747050Y-89420793D01*
X121729442Y-89408000D01*
X121598165Y-89312621D01*
X121430034Y-89237764D01*
X121250019Y-89199500D01*
X121250014Y-89199500D01*
X121244119Y-89198247D01*
X121181646Y-89164519D01*
X121159516Y-89124447D01*
X121121671Y-89175508D01*
X121071880Y-89198247D01*
X121065985Y-89199500D01*
X121065981Y-89199500D01*
X120921748Y-89230158D01*
X120885965Y-89237764D01*
X120717834Y-89312621D01*
X120568950Y-89420792D01*
X120445806Y-89557558D01*
X120445803Y-89557562D01*
X120353789Y-89716935D01*
X120353786Y-89716942D01*
X120296914Y-89891971D01*
X120277678Y-90075000D01*
X120296914Y-90258028D01*
X120324940Y-90344282D01*
X120353786Y-90433059D01*
X120353789Y-90433064D01*
X120445803Y-90592437D01*
X120445806Y-90592441D01*
X120568950Y-90729207D01*
X120717834Y-90837378D01*
X120717836Y-90837379D01*
X120717839Y-90837381D01*
X120885966Y-90912236D01*
X121065981Y-90950500D01*
X121065985Y-90950500D01*
X121071880Y-90951753D01*
X121134353Y-90985481D01*
X121156482Y-91025552D01*
X121194328Y-90974493D01*
X121244119Y-90951753D01*
X121250014Y-90950500D01*
X121250019Y-90950500D01*
X121430034Y-90912236D01*
X121598161Y-90837381D01*
X121747050Y-90729207D01*
X121870195Y-90592440D01*
X121962214Y-90433059D01*
X121962214Y-90433057D01*
X121964381Y-90429305D01*
X122015764Y-90380312D01*
X122085477Y-90366876D01*
X122151388Y-90393262D01*
X122192570Y-90451094D01*
X122199500Y-90492305D01*
X122199500Y-91657694D01*
X122179498Y-91725815D01*
X122125842Y-91772308D01*
X122055568Y-91782412D01*
X121990988Y-91752918D01*
X121964381Y-91720694D01*
X121903160Y-91614657D01*
X121870195Y-91557560D01*
X121747050Y-91420793D01*
X121747049Y-91420792D01*
X121598165Y-91312621D01*
X121430034Y-91237764D01*
X121408948Y-91233282D01*
X121250019Y-91199500D01*
X121250014Y-91199500D01*
X121244119Y-91198247D01*
X121181646Y-91164519D01*
X121159516Y-91124447D01*
X121121671Y-91175508D01*
X121071880Y-91198247D01*
X121065985Y-91199500D01*
X121065981Y-91199500D01*
X120921748Y-91230158D01*
X120885965Y-91237764D01*
X120717834Y-91312621D01*
X120568950Y-91420792D01*
X120445806Y-91557558D01*
X120445803Y-91557562D01*
X120353789Y-91716935D01*
X120353786Y-91716942D01*
X120296914Y-91891971D01*
X120277678Y-92075000D01*
X120296914Y-92258028D01*
X120325891Y-92347209D01*
X120353786Y-92433059D01*
X120353789Y-92433064D01*
X120445803Y-92592437D01*
X120445810Y-92592447D01*
X120526165Y-92681690D01*
X120556883Y-92745697D01*
X120548118Y-92816151D01*
X120502655Y-92870682D01*
X120437736Y-92891094D01*
X120437764Y-92891626D01*
X120437766Y-92891639D01*
X120437765Y-92891639D01*
X120437775Y-92891820D01*
X120434945Y-92891971D01*
X120434928Y-92891977D01*
X120434825Y-92891977D01*
X120434402Y-92892000D01*
X120373906Y-92898505D01*
X120237035Y-92949555D01*
X120237034Y-92949555D01*
X120204572Y-92973857D01*
X120138052Y-92998668D01*
X120090086Y-92988233D01*
X118496500Y-91318761D01*
X118496500Y-88128251D01*
X118495949Y-88111441D01*
X118494309Y-88086440D01*
X118492663Y-88069727D01*
X118471634Y-87909995D01*
X118465076Y-87877024D01*
X118447859Y-87812770D01*
X118437052Y-87780934D01*
X118433479Y-87772308D01*
X118376945Y-87635821D01*
X118376945Y-87635822D01*
X118376944Y-87635821D01*
X118362066Y-87605651D01*
X118334300Y-87557560D01*
X118328812Y-87548055D01*
X118310135Y-87520103D01*
X118310134Y-87520102D01*
X118310135Y-87520102D01*
X118233930Y-87420792D01*
X118212051Y-87392279D01*
X118201404Y-87379304D01*
X118184892Y-87360473D01*
X118173390Y-87348192D01*
X115951000Y-85125802D01*
X115951000Y-82677000D01*
X113284000Y-82677000D01*
X113322364Y-78994000D01*
X114123196Y-78994000D01*
X114144281Y-79127126D01*
X114205472Y-79247220D01*
X114300780Y-79342528D01*
X114420874Y-79403719D01*
X114554000Y-79424804D01*
X114687126Y-79403719D01*
X114807220Y-79342528D01*
X114902528Y-79247220D01*
X114963719Y-79127126D01*
X114984804Y-78994000D01*
X114963719Y-78860874D01*
X114902528Y-78740780D01*
X114807220Y-78645472D01*
X114807219Y-78645471D01*
X114747173Y-78614876D01*
X114687126Y-78584281D01*
X114554000Y-78563196D01*
X114420874Y-78584281D01*
X114420872Y-78584281D01*
X114420872Y-78584282D01*
X114300780Y-78645471D01*
X114205471Y-78740780D01*
X114144282Y-78860872D01*
X114144281Y-78860874D01*
X114123196Y-78994000D01*
X113322364Y-78994000D01*
X113325585Y-78684819D01*
X113404874Y-78725219D01*
X113538000Y-78746304D01*
X113671126Y-78725219D01*
X113791220Y-78664028D01*
X113886528Y-78568720D01*
X113947719Y-78448626D01*
X113968804Y-78315500D01*
X113947719Y-78182374D01*
X113913724Y-78115656D01*
X115267362Y-78115656D01*
X115288447Y-78248782D01*
X115288448Y-78248783D01*
X115322441Y-78315500D01*
X115349638Y-78368876D01*
X115444946Y-78464184D01*
X115565040Y-78525375D01*
X115698166Y-78546460D01*
X115831292Y-78525375D01*
X115951386Y-78464184D01*
X116046694Y-78368876D01*
X116107885Y-78248782D01*
X116128970Y-78115656D01*
X116107885Y-77982530D01*
X116046694Y-77862436D01*
X115951386Y-77767128D01*
X115951385Y-77767127D01*
X115891339Y-77736532D01*
X115831292Y-77705937D01*
X115698166Y-77684852D01*
X115565040Y-77705937D01*
X115565038Y-77705937D01*
X115565038Y-77705938D01*
X115444946Y-77767127D01*
X115349637Y-77862436D01*
X115308976Y-77942239D01*
X115288447Y-77982530D01*
X115267362Y-78115656D01*
X113913724Y-78115656D01*
X113886528Y-78062280D01*
X113791220Y-77966972D01*
X113791219Y-77966971D01*
X113731173Y-77936376D01*
X113671126Y-77905781D01*
X113538000Y-77884696D01*
X113404874Y-77905781D01*
X113404872Y-77905781D01*
X113404872Y-77905782D01*
X113333320Y-77942239D01*
X113340141Y-77287500D01*
X114597758Y-77287500D01*
X114597762Y-77287500D01*
X114810348Y-77252026D01*
X115014195Y-77182045D01*
X115203744Y-77079466D01*
X115373823Y-76947088D01*
X115519794Y-76788521D01*
X115637675Y-76608091D01*
X115724251Y-76410719D01*
X115777159Y-76201789D01*
X115794957Y-75987000D01*
X115777159Y-75772211D01*
X115724251Y-75563281D01*
X115637675Y-75365909D01*
X115596620Y-75303069D01*
X115519794Y-75185478D01*
X115373829Y-75026917D01*
X115316013Y-74981917D01*
X115203744Y-74894534D01*
X115203743Y-74894533D01*
X115014194Y-74791954D01*
X115014192Y-74791953D01*
X114810352Y-74721975D01*
X114810343Y-74721973D01*
X114768073Y-74714919D01*
X114597762Y-74686500D01*
X114548488Y-74686500D01*
X113367234Y-74686500D01*
X113386707Y-72816956D01*
X113411000Y-72820804D01*
X113544126Y-72799719D01*
X113664220Y-72738528D01*
X113759528Y-72643220D01*
X113820719Y-72523126D01*
X113829247Y-72469275D01*
X113836644Y-72453672D01*
X114070231Y-72453672D01*
X114078657Y-72472840D01*
X114079426Y-72484793D01*
X114079696Y-72486498D01*
X114079696Y-72486500D01*
X114100781Y-72619626D01*
X114121163Y-72659627D01*
X114161364Y-72738528D01*
X114161972Y-72739720D01*
X114257280Y-72835028D01*
X114377374Y-72896219D01*
X114510500Y-72917304D01*
X114643626Y-72896219D01*
X114763720Y-72835028D01*
X114859028Y-72739720D01*
X114920219Y-72619626D01*
X114941304Y-72486500D01*
X114920219Y-72353374D01*
X114859028Y-72233280D01*
X114763720Y-72137972D01*
X114763719Y-72137971D01*
X114658402Y-72084310D01*
X114643626Y-72076781D01*
X114510500Y-72055696D01*
X114377374Y-72076781D01*
X114377372Y-72076781D01*
X114377372Y-72076782D01*
X114257280Y-72137971D01*
X114161971Y-72233280D01*
X114100781Y-72353372D01*
X114092253Y-72407221D01*
X114070231Y-72453672D01*
X113836644Y-72453672D01*
X113851268Y-72422826D01*
X113842843Y-72403658D01*
X113842074Y-72391707D01*
X113841804Y-72390000D01*
X113820719Y-72256874D01*
X113759528Y-72136780D01*
X113664220Y-72041472D01*
X113664219Y-72041471D01*
X113604173Y-72010876D01*
X113544126Y-71980281D01*
X113411000Y-71959196D01*
X113410999Y-71959196D01*
X113395618Y-71961632D01*
X113410943Y-70490500D01*
X113638612Y-70490500D01*
X113706733Y-70510502D01*
G37*
%TD.AperFunction*%
%TA.AperFunction,Conductor*%
G36*
X121088121Y-75739002D02*
G01*
X121134614Y-75792658D01*
X121146000Y-75845000D01*
X121146000Y-75968485D01*
X121127495Y-75875455D01*
X121072240Y-75792760D01*
X120989545Y-75737505D01*
X120916624Y-75723000D01*
X120867376Y-75723000D01*
X120794455Y-75737505D01*
X120711760Y-75792760D01*
X120656505Y-75875455D01*
X120638000Y-75968485D01*
X120638000Y-75845000D01*
X120658002Y-75776879D01*
X120711658Y-75730386D01*
X120764000Y-75719000D01*
X121020000Y-75719000D01*
X121088121Y-75739002D01*
G37*
%TD.AperFunction*%
%TA.AperFunction,Conductor*%
G36*
X119054500Y-66234404D02*
G01*
X119054500Y-68876965D01*
X119034498Y-68945086D01*
X119017596Y-68966060D01*
X118396802Y-69586855D01*
X118394899Y-69588757D01*
X118378466Y-69605189D01*
X118362051Y-69621595D01*
X118362048Y-69621598D01*
X118345508Y-69650230D01*
X118342562Y-69654853D01*
X118328190Y-69675378D01*
X118314072Y-69692203D01*
X118134822Y-69871451D01*
X118130238Y-69875605D01*
X118060038Y-69933217D01*
X118039502Y-69946939D01*
X117967615Y-69985364D01*
X117944796Y-69994816D01*
X117866798Y-70018478D01*
X117842572Y-70023297D01*
X117752234Y-70032196D01*
X117746054Y-70032500D01*
X116544888Y-70032500D01*
X116476767Y-70012498D01*
X116430274Y-69958842D01*
X116420170Y-69888568D01*
X116449664Y-69823988D01*
X116455777Y-69817420D01*
X118065005Y-68208194D01*
X118065005Y-68208195D01*
X118083393Y-68187722D01*
X118108649Y-68156381D01*
X118108648Y-68156382D01*
X118108651Y-68156378D01*
X118140797Y-68111799D01*
X118201514Y-67978851D01*
X118221199Y-67911812D01*
X118221200Y-67911808D01*
X118242000Y-67767138D01*
X118242000Y-66221507D01*
X119054500Y-66234404D01*
G37*
%TD.AperFunction*%
%TA.AperFunction,Conductor*%
G36*
X120422012Y-66828487D02*
G01*
X120439461Y-66847006D01*
X120459955Y-66873714D01*
X120493447Y-66907206D01*
X120493457Y-66907217D01*
X120495627Y-66909387D01*
X120495628Y-66909388D01*
X120903860Y-67317620D01*
X120944420Y-67358180D01*
X120947767Y-67361801D01*
X121032053Y-67460487D01*
X121043671Y-67476479D01*
X121107580Y-67580768D01*
X121116557Y-67598385D01*
X121163367Y-67711394D01*
X121169477Y-67730198D01*
X121198032Y-67849138D01*
X121201124Y-67868664D01*
X121211306Y-67998003D01*
X121211500Y-68002949D01*
X121211500Y-69024217D01*
X121211306Y-69029162D01*
X121201604Y-69152412D01*
X121198512Y-69171938D01*
X121171390Y-69284914D01*
X121165280Y-69303719D01*
X121120818Y-69411060D01*
X121111841Y-69428678D01*
X121051139Y-69527733D01*
X121039519Y-69543727D01*
X120988614Y-69603330D01*
X120929163Y-69642139D01*
X120892802Y-69647500D01*
X120189283Y-69647500D01*
X120121162Y-69627498D01*
X120074669Y-69573842D01*
X120064565Y-69503568D01*
X120087349Y-69447436D01*
X120090294Y-69443383D01*
X120151127Y-69323994D01*
X120192535Y-69196559D01*
X120213498Y-69064215D01*
X120213498Y-69033413D01*
X120213500Y-69033402D01*
X120213500Y-68966060D01*
X120213501Y-68945664D01*
X120213500Y-68945660D01*
X120213500Y-66923711D01*
X120233502Y-66855590D01*
X120287158Y-66809097D01*
X120357432Y-66798993D01*
X120422012Y-66828487D01*
G37*
%TD.AperFunction*%
%TA.AperFunction,Conductor*%
G36*
X122199500Y-66284324D02*
G01*
X122199500Y-67196767D01*
X122179498Y-67264888D01*
X122125842Y-67311381D01*
X122055568Y-67321485D01*
X121990988Y-67291991D01*
X121957092Y-67244987D01*
X121936827Y-67196063D01*
X121817873Y-66990029D01*
X121801190Y-66968287D01*
X121673051Y-66801293D01*
X121673040Y-66801281D01*
X121670752Y-66798993D01*
X121644555Y-66772796D01*
X121644550Y-66772790D01*
X121188575Y-66316814D01*
X121185222Y-66313187D01*
X121146293Y-66267607D01*
X122199500Y-66284324D01*
G37*
%TD.AperFunction*%
%TD*%
%TA.AperFunction,Conductor*%
%TO.N,MOTOR_A*%
G36*
X115830988Y-96145988D02*
G01*
X115843367Y-96240007D01*
X115849925Y-96272982D01*
X115849925Y-96272981D01*
X115867133Y-96337206D01*
X115867133Y-96337207D01*
X115867135Y-96337215D01*
X115867136Y-96337216D01*
X115877944Y-96369056D01*
X115889231Y-96396304D01*
X115938056Y-96514181D01*
X115938056Y-96514182D01*
X115952927Y-96544338D01*
X115952929Y-96544342D01*
X115986187Y-96601944D01*
X116004864Y-96629896D01*
X116102947Y-96757719D01*
X116109225Y-96765370D01*
X116113593Y-96770693D01*
X116130103Y-96789522D01*
X116141608Y-96801806D01*
X117172101Y-97832299D01*
X117206126Y-97894611D01*
X117208969Y-97924466D01*
X117120992Y-101531548D01*
X117094034Y-102636843D01*
X117094117Y-102652129D01*
X117094919Y-102674955D01*
X117095919Y-102690291D01*
X117109868Y-102836687D01*
X117114591Y-102866976D01*
X117127497Y-102926259D01*
X117133910Y-102949070D01*
X117135800Y-102955792D01*
X117135800Y-102955791D01*
X117146241Y-102985901D01*
X117182765Y-103091235D01*
X117194522Y-103119558D01*
X117210520Y-103152411D01*
X117221081Y-103174098D01*
X117221081Y-103174097D01*
X117221085Y-103174105D01*
X117236127Y-103200817D01*
X117315777Y-103324392D01*
X117324452Y-103337007D01*
X117337948Y-103355435D01*
X117347381Y-103367537D01*
X118334960Y-104559443D01*
X120709734Y-107425551D01*
X120722255Y-107439582D01*
X120748053Y-107466447D01*
X120761570Y-107479528D01*
X120878104Y-107584321D01*
X120937508Y-107630344D01*
X120937509Y-107630344D01*
X120968149Y-107650679D01*
X120968148Y-107650679D01*
X120971570Y-107652605D01*
X121033642Y-107687544D01*
X121158501Y-107746240D01*
X121158504Y-107746241D01*
X121226858Y-107772454D01*
X121228684Y-107773154D01*
X121228683Y-107773153D01*
X121263884Y-107783771D01*
X121263885Y-107783771D01*
X121300552Y-107791959D01*
X121337219Y-107800148D01*
X121492267Y-107823024D01*
X121510967Y-107825087D01*
X121548115Y-107827812D01*
X121566903Y-107828500D01*
X121566904Y-107828500D01*
X131749921Y-107828500D01*
X131766238Y-107827981D01*
X131768893Y-107827812D01*
X131790496Y-107826437D01*
X131806721Y-107824885D01*
X131961880Y-107805065D01*
X131961887Y-107805063D01*
X131961892Y-107805063D01*
X131980474Y-107801477D01*
X131993934Y-107798881D01*
X131993933Y-107798881D01*
X131993938Y-107798880D01*
X132056431Y-107782648D01*
X132087430Y-107772456D01*
X132087430Y-107772455D01*
X132087436Y-107772454D01*
X132228980Y-107715725D01*
X132228979Y-107715725D01*
X132228985Y-107715723D01*
X132239231Y-107710840D01*
X132258427Y-107701693D01*
X132258426Y-107701693D01*
X132258430Y-107701690D01*
X132258440Y-107701686D01*
X132314848Y-107670265D01*
X132314853Y-107670262D01*
X132342295Y-107652605D01*
X132422346Y-107593585D01*
X132489045Y-107569259D01*
X132497118Y-107569000D01*
X132971868Y-107569000D01*
X133350000Y-107569000D01*
X134115413Y-105968588D01*
X134124709Y-105952375D01*
X134186374Y-105861266D01*
X134196444Y-105837749D01*
X134241644Y-105783003D01*
X134309269Y-105761384D01*
X134377847Y-105779757D01*
X134425605Y-105832290D01*
X134428097Y-105837747D01*
X134438061Y-105861016D01*
X134438066Y-105861024D01*
X134559350Y-106040221D01*
X134712344Y-106193215D01*
X134891541Y-106314499D01*
X134891544Y-106314501D01*
X135090448Y-106399677D01*
X135301880Y-106445670D01*
X135350486Y-106448566D01*
X136562000Y-106448566D01*
X136562000Y-104756182D01*
X136588616Y-104907133D01*
X136658059Y-105068119D01*
X136762756Y-105208751D01*
X136897062Y-105321448D01*
X137053739Y-105400134D01*
X137224338Y-105440566D01*
X137355684Y-105440566D01*
X137486139Y-105425318D01*
X137650891Y-105365353D01*
X137797373Y-105269011D01*
X137917688Y-105141484D01*
X138005350Y-104989648D01*
X138055634Y-104821689D01*
X138062000Y-104712386D01*
X138062000Y-106448566D01*
X138733050Y-106448566D01*
X138801171Y-106468568D01*
X138847664Y-106522224D01*
X138857768Y-106592498D01*
X138843041Y-106636032D01*
X137714773Y-108655035D01*
X137710220Y-108662046D01*
X137627733Y-108772320D01*
X137604413Y-108796135D01*
X137505844Y-108873150D01*
X137477097Y-108890017D01*
X137361784Y-108938492D01*
X137329621Y-108947231D01*
X137229529Y-108960587D01*
X137193114Y-108965446D01*
X137184775Y-108966000D01*
X119806478Y-108966000D01*
X119799272Y-108965587D01*
X119681020Y-108951983D01*
X119652975Y-108945445D01*
X119607852Y-108929301D01*
X119551151Y-108909014D01*
X119525326Y-108896280D01*
X119434430Y-108837680D01*
X119412167Y-108819411D01*
X119366587Y-108772320D01*
X119329382Y-108733881D01*
X119324680Y-108728431D01*
X116326347Y-104821513D01*
X115442103Y-103669316D01*
X115438230Y-103663655D01*
X115379388Y-103566697D01*
X115367791Y-103541831D01*
X115334662Y-103444247D01*
X115328723Y-103417461D01*
X115316375Y-103304724D01*
X115316000Y-103297859D01*
X115316000Y-102798976D01*
X115336002Y-102730855D01*
X115347684Y-102715426D01*
X115403657Y-102652247D01*
X115565190Y-102418225D01*
X115697338Y-102166438D01*
X115798173Y-101900559D01*
X115866224Y-101624464D01*
X115900500Y-101342179D01*
X115900500Y-101264348D01*
X115901028Y-101256206D01*
X115902373Y-101245874D01*
X115900500Y-101193717D01*
X115900500Y-101144487D01*
X115898812Y-101133835D01*
X115898076Y-101126246D01*
X115791154Y-98148941D01*
X115791329Y-98141478D01*
X115794132Y-98107657D01*
X115794132Y-98107655D01*
X115782151Y-98060346D01*
X115781499Y-98057497D01*
X115771735Y-98009631D01*
X115771734Y-98009629D01*
X115771734Y-98009628D01*
X115768756Y-98001873D01*
X115765417Y-97994261D01*
X115738721Y-97953400D01*
X115737167Y-97950895D01*
X115712402Y-97908816D01*
X115707073Y-97902453D01*
X115701436Y-97896330D01*
X115662918Y-97866349D01*
X115660637Y-97864486D01*
X115623554Y-97832732D01*
X115616437Y-97828439D01*
X115609126Y-97824482D01*
X115562969Y-97808636D01*
X115560207Y-97807615D01*
X115514819Y-97789619D01*
X115506676Y-97787866D01*
X115498489Y-97786500D01*
X115498488Y-97786500D01*
X115449664Y-97786500D01*
X115446723Y-97786431D01*
X115397965Y-97784149D01*
X115397964Y-97784149D01*
X115387598Y-97785384D01*
X115387466Y-97784276D01*
X115371901Y-97786500D01*
X115297357Y-97786500D01*
X114935000Y-95250000D01*
X115830988Y-96145988D01*
G37*
%TD.AperFunction*%
%TA.AperFunction,Conductor*%
G36*
X136562000Y-104668745D02*
G01*
X136562000Y-104648000D01*
X136563208Y-104648000D01*
X136562000Y-104668745D01*
G37*
%TD.AperFunction*%
%TD*%
%TA.AperFunction,Conductor*%
%TO.N,MOTOR_C*%
G36*
X116126736Y-86027736D02*
G01*
X116126740Y-86027740D01*
X116126745Y-86027746D01*
X116965540Y-86866540D01*
X117804342Y-87705342D01*
X117809774Y-87711537D01*
X117892516Y-87819368D01*
X117908963Y-87847854D01*
X117956207Y-87961911D01*
X117964720Y-87993682D01*
X117982460Y-88128429D01*
X117983000Y-88136661D01*
X117983000Y-91821000D01*
X118184382Y-92000006D01*
X119932212Y-93553633D01*
X119969835Y-93613837D01*
X119974500Y-93647804D01*
X119974500Y-94798649D01*
X119981009Y-94859196D01*
X119981011Y-94859204D01*
X120032110Y-94996202D01*
X120032112Y-94996207D01*
X120119738Y-95113261D01*
X120236792Y-95200887D01*
X120236794Y-95200888D01*
X120236796Y-95200889D01*
X120295875Y-95222924D01*
X120373795Y-95251988D01*
X120373803Y-95251990D01*
X120434350Y-95258499D01*
X120434355Y-95258499D01*
X120434362Y-95258500D01*
X120434368Y-95258500D01*
X121881632Y-95258500D01*
X121881638Y-95258500D01*
X121881645Y-95258499D01*
X121881649Y-95258499D01*
X121942196Y-95251990D01*
X121942201Y-95251989D01*
X121942204Y-95251988D01*
X122003968Y-95228950D01*
X122074782Y-95223885D01*
X122137094Y-95257909D01*
X122171120Y-95320221D01*
X122174000Y-95347006D01*
X122174000Y-101862252D01*
X122153998Y-101930373D01*
X122110929Y-101971412D01*
X122050300Y-102006363D01*
X121921652Y-102120336D01*
X121818407Y-102257731D01*
X121818405Y-102257734D01*
X121818405Y-102257735D01*
X121787114Y-102323678D01*
X121744725Y-102413011D01*
X121703594Y-102579886D01*
X121696674Y-102751622D01*
X121724243Y-102921258D01*
X121724244Y-102921262D01*
X121775820Y-103057259D01*
X121785189Y-103081962D01*
X121860349Y-103200817D01*
X121877049Y-103227225D01*
X121992418Y-103347338D01*
X121996106Y-103351177D01*
X122137552Y-103448810D01*
X122295669Y-103516177D01*
X122295672Y-103516177D01*
X122301386Y-103518612D01*
X122356216Y-103563715D01*
X122377958Y-103631300D01*
X122367827Y-103684128D01*
X122352889Y-103719012D01*
X122306894Y-103930446D01*
X122306292Y-103940566D01*
X125268316Y-103940566D01*
X125137861Y-103955814D01*
X124973109Y-104015779D01*
X124826627Y-104112121D01*
X124706312Y-104239648D01*
X124618650Y-104391484D01*
X124568366Y-104559443D01*
X124558172Y-104734472D01*
X124588616Y-104907133D01*
X124658059Y-105068119D01*
X124762756Y-105208751D01*
X124897062Y-105321448D01*
X125053739Y-105400134D01*
X125224338Y-105440566D01*
X122307107Y-105440566D01*
X122238986Y-105420564D01*
X122210806Y-105395820D01*
X119415199Y-102082507D01*
X119386558Y-102017544D01*
X119385500Y-102001253D01*
X119385500Y-97145251D01*
X119384949Y-97128441D01*
X119383309Y-97103440D01*
X119381663Y-97086727D01*
X119360634Y-96926995D01*
X119354076Y-96894024D01*
X119336859Y-96829770D01*
X119326052Y-96797934D01*
X119322568Y-96789522D01*
X119265945Y-96652821D01*
X119265945Y-96652822D01*
X119265944Y-96652821D01*
X119251066Y-96622651D01*
X119217814Y-96565059D01*
X119217814Y-96565058D01*
X119199134Y-96537102D01*
X119199135Y-96537102D01*
X119101050Y-96409278D01*
X119090403Y-96396303D01*
X119073892Y-96377473D01*
X119062390Y-96365192D01*
X118152405Y-95455206D01*
X118118379Y-95392894D01*
X118115500Y-95366111D01*
X118115500Y-93843251D01*
X118114949Y-93826441D01*
X118113309Y-93801440D01*
X118111663Y-93784727D01*
X118090634Y-93624995D01*
X118084076Y-93592024D01*
X118066859Y-93527770D01*
X118056052Y-93495934D01*
X118056050Y-93495928D01*
X117995945Y-93350821D01*
X117995945Y-93350822D01*
X117995944Y-93350821D01*
X117981066Y-93320651D01*
X117947814Y-93263059D01*
X117947814Y-93263058D01*
X117929134Y-93235102D01*
X117929135Y-93235102D01*
X117831050Y-93107278D01*
X117820403Y-93094303D01*
X117803892Y-93075473D01*
X117792390Y-93063192D01*
X116241905Y-91512706D01*
X116207879Y-91450394D01*
X116205000Y-91423611D01*
X116205000Y-88179754D01*
X116205000Y-88011000D01*
X116077998Y-87899873D01*
X116034633Y-87861928D01*
X116034630Y-87861926D01*
X115189000Y-87122000D01*
X115189000Y-85090000D01*
X116126736Y-86027736D01*
G37*
%TD.AperFunction*%
%TD*%
%TA.AperFunction,Conductor*%
%TO.N,GNDPWR*%
G36*
X115966877Y-59951031D02*
G01*
X115999592Y-59971970D01*
X116297227Y-60236535D01*
X117167496Y-61010108D01*
X117204524Y-61069359D01*
X117209115Y-61102528D01*
X117215888Y-64350635D01*
X117196343Y-64417716D01*
X117172937Y-64444740D01*
X114778868Y-66512346D01*
X114715265Y-66541267D01*
X114697819Y-66542500D01*
X114105815Y-66542500D01*
X114078966Y-66543907D01*
X114026437Y-66549426D01*
X113999865Y-66553635D01*
X113983612Y-66557089D01*
X113973261Y-66559290D01*
X113947480Y-66562000D01*
X113890521Y-66562000D01*
X113864738Y-66559290D01*
X113838142Y-66553636D01*
X113838143Y-66553636D01*
X113826240Y-66551751D01*
X113811563Y-66549426D01*
X113759036Y-66543907D01*
X113732186Y-66542500D01*
X112265000Y-66542500D01*
X112197961Y-66522815D01*
X112152206Y-66470011D01*
X112141000Y-66418500D01*
X112141000Y-64311500D01*
X112160685Y-64244461D01*
X112213489Y-64198706D01*
X112265000Y-64187500D01*
X115415454Y-64187500D01*
X115422814Y-64187938D01*
X115456505Y-64191962D01*
X115456505Y-64191961D01*
X115456507Y-64191962D01*
X115504354Y-64181672D01*
X115507094Y-64181149D01*
X115555381Y-64173092D01*
X115555386Y-64173089D01*
X115563181Y-64170413D01*
X115570864Y-64167369D01*
X115570869Y-64167369D01*
X115612788Y-64142097D01*
X115615197Y-64140720D01*
X115658258Y-64117418D01*
X115658261Y-64117414D01*
X115664790Y-64112332D01*
X115671041Y-64106980D01*
X115671048Y-64106977D01*
X115702453Y-64069508D01*
X115704356Y-64067342D01*
X115737485Y-64031355D01*
X115741981Y-64024471D01*
X115746188Y-64017329D01*
X115746187Y-64017329D01*
X115746190Y-64017327D01*
X115763735Y-63971668D01*
X115764821Y-63969030D01*
X115784473Y-63924232D01*
X115784473Y-63924227D01*
X115786495Y-63916243D01*
X115788150Y-63908142D01*
X115788153Y-63908136D01*
X115789923Y-63859233D01*
X115790095Y-63856371D01*
X115794132Y-63807656D01*
X115793283Y-63797414D01*
X115794373Y-63797323D01*
X115792727Y-63781842D01*
X115800886Y-63556582D01*
X115898054Y-60873834D01*
X115898778Y-60866378D01*
X115900498Y-60855517D01*
X115900500Y-60855514D01*
X115900500Y-60806333D01*
X115901321Y-60783666D01*
X115901017Y-60781325D01*
X115900500Y-60773331D01*
X115900500Y-60657818D01*
X115889260Y-60565252D01*
X115866224Y-60375536D01*
X115798173Y-60099441D01*
X115798172Y-60099438D01*
X115797276Y-60095803D01*
X115798722Y-60095446D01*
X115797682Y-60031663D01*
X115834492Y-59972276D01*
X115897565Y-59942218D01*
X115966877Y-59951031D01*
G37*
%TD.AperFunction*%
%TD*%
%TA.AperFunction,Conductor*%
%TO.N,+24V*%
G36*
X117656196Y-64801654D02*
G01*
X117708925Y-64847496D01*
X117728500Y-64914364D01*
X117728500Y-67767138D01*
X117708815Y-67834177D01*
X117692181Y-67854819D01*
X115858819Y-69688181D01*
X115797496Y-69721666D01*
X115771138Y-69724500D01*
X115403368Y-69724500D01*
X115347650Y-69708446D01*
X115346700Y-69710420D01*
X115340432Y-69707401D01*
X115223251Y-69666398D01*
X115184419Y-69652810D01*
X115184418Y-69652809D01*
X115184413Y-69652808D01*
X115020171Y-69634303D01*
X115020163Y-69634303D01*
X114855920Y-69652808D01*
X114699898Y-69707402D01*
X114559943Y-69795342D01*
X114443065Y-69912220D01*
X114443061Y-69912225D01*
X114438821Y-69918974D01*
X114386486Y-69965264D01*
X114333829Y-69977000D01*
X112265000Y-69977000D01*
X112197961Y-69957315D01*
X112152206Y-69904511D01*
X112141000Y-69853000D01*
X112141000Y-67180000D01*
X112160685Y-67112961D01*
X112213489Y-67067206D01*
X112265000Y-67056000D01*
X113718742Y-67056000D01*
X113744522Y-67058709D01*
X113823513Y-67075500D01*
X114014487Y-67075500D01*
X114093477Y-67058709D01*
X114119258Y-67056000D01*
X114935000Y-67056000D01*
X117523454Y-64820516D01*
X117587054Y-64791597D01*
X117656196Y-64801654D01*
G37*
%TD.AperFunction*%
%TD*%
%TA.AperFunction,Conductor*%
%TO.N,MOTOR_B*%
G36*
X116126736Y-92123736D02*
G01*
X116126740Y-92123740D01*
X116126745Y-92123746D01*
X116454797Y-92451797D01*
X117423342Y-93420342D01*
X117428774Y-93426537D01*
X117511516Y-93534368D01*
X117527963Y-93562854D01*
X117575207Y-93676911D01*
X117583720Y-93708682D01*
X117601460Y-93843429D01*
X117602000Y-93851661D01*
X117602000Y-95631000D01*
X117777736Y-95806736D01*
X118693342Y-96722342D01*
X118698774Y-96728537D01*
X118781516Y-96836368D01*
X118797963Y-96864854D01*
X118845207Y-96978911D01*
X118853720Y-97010682D01*
X118871460Y-97145429D01*
X118872000Y-97153661D01*
X118872000Y-102235000D01*
X122301000Y-106299000D01*
X122587060Y-106293278D01*
X122587062Y-106293279D01*
X122811477Y-106288790D01*
X122879982Y-106307426D01*
X122884621Y-106310420D01*
X122891295Y-106314937D01*
X122891297Y-106314938D01*
X122891300Y-106314940D01*
X123090295Y-106400155D01*
X123301820Y-106446169D01*
X123350450Y-106449066D01*
X123350457Y-106449066D01*
X127273543Y-106449066D01*
X127273550Y-106449066D01*
X127322180Y-106446169D01*
X127533705Y-106400155D01*
X127732700Y-106314940D01*
X127891510Y-106207453D01*
X127959132Y-106185838D01*
X127959351Y-106185832D01*
X128651000Y-106172000D01*
X128651000Y-106131871D01*
X128712344Y-106193215D01*
X128891541Y-106314499D01*
X128891544Y-106314501D01*
X129090448Y-106399677D01*
X129301880Y-106445670D01*
X129350486Y-106448566D01*
X130562000Y-106448566D01*
X130562000Y-104756182D01*
X130588616Y-104907133D01*
X130658059Y-105068119D01*
X130762756Y-105208751D01*
X130897062Y-105321448D01*
X131053739Y-105400134D01*
X131224338Y-105440566D01*
X131355684Y-105440566D01*
X131486139Y-105425318D01*
X131650891Y-105365353D01*
X131797373Y-105269011D01*
X131917688Y-105141484D01*
X132005350Y-104989648D01*
X132055634Y-104821689D01*
X132062000Y-104712386D01*
X132062000Y-106448566D01*
X132390175Y-106448566D01*
X132458296Y-106468568D01*
X132504789Y-106522224D01*
X132514893Y-106592498D01*
X132497308Y-106640887D01*
X132258038Y-107027398D01*
X132253399Y-107033925D01*
X132170285Y-107136419D01*
X132147191Y-107158473D01*
X132050708Y-107229608D01*
X132022810Y-107245148D01*
X131911543Y-107289742D01*
X131880636Y-107297770D01*
X131813634Y-107306330D01*
X131749736Y-107314492D01*
X131741757Y-107315000D01*
X121576304Y-107315000D01*
X121557913Y-107313651D01*
X121436452Y-107295731D01*
X121412172Y-107292148D01*
X121376963Y-107281528D01*
X121266517Y-107229608D01*
X121252101Y-107222831D01*
X121221456Y-107202493D01*
X121111916Y-107103991D01*
X121099143Y-107090690D01*
X119224881Y-104828650D01*
X117747682Y-103045823D01*
X117743242Y-103039761D01*
X117676043Y-102935504D01*
X117662904Y-102908523D01*
X117625983Y-102802043D01*
X117619599Y-102772719D01*
X117607832Y-102649231D01*
X117607568Y-102641723D01*
X117622837Y-102015700D01*
X117722730Y-97920066D01*
X117729000Y-97663000D01*
X117547172Y-97481172D01*
X117547163Y-97481162D01*
X116788334Y-96722334D01*
X116510656Y-96444656D01*
X116505225Y-96438462D01*
X116422483Y-96330631D01*
X116406036Y-96302145D01*
X116358790Y-96188082D01*
X116350280Y-96156320D01*
X116332540Y-96021570D01*
X116332000Y-96013338D01*
X116332000Y-94400454D01*
X116332000Y-94400450D01*
X116332000Y-94107000D01*
X114046000Y-92329000D01*
X114046000Y-91059000D01*
X115062000Y-91059000D01*
X116126736Y-92123736D01*
G37*
%TD.AperFunction*%
%TA.AperFunction,Conductor*%
G36*
X130562000Y-104668745D02*
G01*
X130562000Y-104648000D01*
X130563208Y-104648000D01*
X130562000Y-104668745D01*
G37*
%TD.AperFunction*%
%TD*%
%TA.AperFunction,Conductor*%
%TO.N,MOTOR_B*%
G36*
X115633621Y-88285002D02*
G01*
X115680114Y-88338658D01*
X115691500Y-88391000D01*
X115691500Y-91437361D01*
X115692972Y-91464822D01*
X115692973Y-91464831D01*
X115697319Y-91505269D01*
X115706114Y-91559546D01*
X115706117Y-91559557D01*
X115757190Y-91696486D01*
X115757194Y-91696496D01*
X115791221Y-91758809D01*
X115878802Y-91875800D01*
X115878806Y-91875805D01*
X115933277Y-91930276D01*
X115933280Y-91930280D01*
X115951000Y-91947999D01*
X115951000Y-91948000D01*
X115062000Y-91059000D01*
X114046000Y-91059000D01*
X114046000Y-92329000D01*
X114481889Y-92668025D01*
X111628401Y-92586497D01*
X111560880Y-92564557D01*
X111515938Y-92509596D01*
X111506000Y-92460548D01*
X111506000Y-88391000D01*
X111526002Y-88322879D01*
X111579658Y-88276386D01*
X111632000Y-88265000D01*
X115565500Y-88265000D01*
X115633621Y-88285002D01*
G37*
%TD.AperFunction*%
%TD*%
M02*
