%TF.GenerationSoftware,KiCad,Pcbnew,7.0.9*%
%TF.CreationDate,2024-04-13T12:05:23+02:00*%
%TF.ProjectId,MotorDriverCarrier-rounded,4d6f746f-7244-4726-9976-657243617272,rev?*%
%TF.SameCoordinates,Original*%
%TF.FileFunction,Copper,L3,Inr*%
%TF.FilePolarity,Positive*%
%FSLAX46Y46*%
G04 Gerber Fmt 4.6, Leading zero omitted, Abs format (unit mm)*
G04 Created by KiCad (PCBNEW 7.0.9) date 2024-04-13 12:05:23*
%MOMM*%
%LPD*%
G01*
G04 APERTURE LIST*
G04 Aperture macros list*
%AMRoundRect*
0 Rectangle with rounded corners*
0 $1 Rounding radius*
0 $2 $3 $4 $5 $6 $7 $8 $9 X,Y pos of 4 corners*
0 Add a 4 corners polygon primitive as box body*
4,1,4,$2,$3,$4,$5,$6,$7,$8,$9,$2,$3,0*
0 Add four circle primitives for the rounded corners*
1,1,$1+$1,$2,$3*
1,1,$1+$1,$4,$5*
1,1,$1+$1,$6,$7*
1,1,$1+$1,$8,$9*
0 Add four rect primitives between the rounded corners*
20,1,$1+$1,$2,$3,$4,$5,0*
20,1,$1+$1,$4,$5,$6,$7,0*
20,1,$1+$1,$6,$7,$8,$9,0*
20,1,$1+$1,$8,$9,$2,$3,0*%
%AMOutline5P*
0 Free polygon, 5 corners , with rotation*
0 The origin of the aperture is its center*
0 number of corners: always 5*
0 $1 to $10 corner X, Y*
0 $11 Rotation angle, in degrees counterclockwise*
0 create outline with 5 corners*
4,1,5,$1,$2,$3,$4,$5,$6,$7,$8,$9,$10,$1,$2,$11*%
%AMOutline6P*
0 Free polygon, 6 corners , with rotation*
0 The origin of the aperture is its center*
0 number of corners: always 6*
0 $1 to $12 corner X, Y*
0 $13 Rotation angle, in degrees counterclockwise*
0 create outline with 6 corners*
4,1,6,$1,$2,$3,$4,$5,$6,$7,$8,$9,$10,$11,$12,$1,$2,$13*%
%AMOutline7P*
0 Free polygon, 7 corners , with rotation*
0 The origin of the aperture is its center*
0 number of corners: always 7*
0 $1 to $14 corner X, Y*
0 $15 Rotation angle, in degrees counterclockwise*
0 create outline with 7 corners*
4,1,7,$1,$2,$3,$4,$5,$6,$7,$8,$9,$10,$11,$12,$13,$14,$1,$2,$15*%
%AMOutline8P*
0 Free polygon, 8 corners , with rotation*
0 The origin of the aperture is its center*
0 number of corners: always 8*
0 $1 to $16 corner X, Y*
0 $17 Rotation angle, in degrees counterclockwise*
0 create outline with 8 corners*
4,1,8,$1,$2,$3,$4,$5,$6,$7,$8,$9,$10,$11,$12,$13,$14,$15,$16,$1,$2,$17*%
G04 Aperture macros list end*
%TA.AperFunction,ComponentPad*%
%ADD10O,1.350000X1.350000*%
%TD*%
%TA.AperFunction,ComponentPad*%
%ADD11R,1.350000X1.350000*%
%TD*%
%TA.AperFunction,ComponentPad*%
%ADD12Outline6P,-0.500000X1.200000X-0.200000X1.500000X0.200000X1.500000X0.500000X1.200000X0.500000X-1.500000X-0.500000X-1.500000X0.000000*%
%TD*%
%TA.AperFunction,ComponentPad*%
%ADD13C,1.000000*%
%TD*%
%TA.AperFunction,ComponentPad*%
%ADD14RoundRect,0.625000X1.875000X0.625000X-1.875000X0.625000X-1.875000X-0.625000X1.875000X-0.625000X0*%
%TD*%
%TA.AperFunction,ComponentPad*%
%ADD15Outline6P,-0.500000X1.200000X-0.200000X1.500000X0.200000X1.500000X0.500000X1.200000X0.500000X-1.500000X-0.500000X-1.500000X90.000000*%
%TD*%
%TA.AperFunction,ComponentPad*%
%ADD16RoundRect,0.750000X0.750000X0.750000X-0.750000X0.750000X-0.750000X-0.750000X0.750000X-0.750000X0*%
%TD*%
%TA.AperFunction,ViaPad*%
%ADD17C,0.800000*%
%TD*%
%TA.AperFunction,ViaPad*%
%ADD18C,0.450000*%
%TD*%
%TA.AperFunction,Conductor*%
%ADD19C,0.250000*%
%TD*%
%TA.AperFunction,Conductor*%
%ADD20C,0.508000*%
%TD*%
%TA.AperFunction,Conductor*%
%ADD21C,0.254000*%
%TD*%
G04 APERTURE END LIST*
D10*
%TO.N,A*%
%TO.C,J2*%
X121158000Y-86075000D03*
%TO.N,B*%
X121158000Y-88075000D03*
%TO.N,Z*%
X121158000Y-90075000D03*
%TO.N,+5V*%
X121158000Y-92075000D03*
D11*
%TO.N,UART_GND*%
X121158000Y-94075000D03*
%TD*%
D12*
%TO.N,UART_GND*%
%TO.C,J13*%
X128004000Y-60093566D03*
%TO.N,OK*%
X129879000Y-60093566D03*
%TO.N,UART_RX*%
X131754000Y-60093566D03*
%TO.N,UART_TX*%
X133629000Y-60093566D03*
%TO.N,UART_VCC*%
X135504000Y-60093566D03*
%TD*%
D13*
%TO.N,UART_GND*%
%TO.C,J1*%
X142980000Y-66670683D03*
%TO.N,+3.3V*%
X142980000Y-68170683D03*
%TO.N,SWCLK*%
X142980000Y-69670683D03*
%TO.N,SWDIO*%
X142980000Y-71170683D03*
%TO.N,NRST*%
X142980000Y-82347317D03*
%TD*%
D14*
%TO.N,MOTOR_A*%
%TO.C,J10*%
X137312000Y-104690566D03*
%TO.N,MOTOR_B*%
X131312000Y-104690566D03*
%TO.N,MOTOR_C*%
X125312000Y-104690566D03*
%TD*%
D15*
%TO.N,UART_GND*%
%TO.C,J14*%
X120892000Y-75973000D03*
%TO.N,CAN_L*%
X120892000Y-74098000D03*
%TO.N,CAN_H*%
X120892000Y-72223000D03*
%TO.N,+5V*%
X120892000Y-70348000D03*
%TD*%
D16*
%TO.N,GNDPWR*%
%TO.C,J11*%
X139067000Y-60015000D03*
%TO.N,+24V*%
X124067000Y-60015000D03*
%TD*%
D17*
%TO.N,+24V*%
X116967000Y-66040000D03*
X115697000Y-67691000D03*
X113792000Y-68707000D03*
D18*
X143129000Y-57150000D03*
D17*
X114300000Y-67691000D03*
X114935000Y-68834000D03*
X116967000Y-67564000D03*
%TO.N,GNDPWR*%
X128016000Y-54483000D03*
X116586000Y-63627000D03*
X114808000Y-65024000D03*
X133223000Y-56642000D03*
X113665000Y-64770000D03*
X135382000Y-56642000D03*
X113919000Y-66167000D03*
X134366000Y-56134000D03*
X136525000Y-56134000D03*
X132200516Y-56140484D03*
X137541000Y-56642000D03*
X141605000Y-54483000D03*
X116459000Y-61341000D03*
X116586000Y-62484000D03*
%TO.N,+5V*%
X120777000Y-81026000D03*
X130683000Y-57658000D03*
X141605000Y-77597000D03*
X141605000Y-64135000D03*
D18*
%TO.N,CAN_L*%
X113538000Y-78315500D03*
X114554000Y-78994000D03*
%TO.N,CAN_H*%
X115698166Y-78115656D03*
D17*
%TO.N,MOTOR_A*%
X114935000Y-97155000D03*
X114935000Y-94742000D03*
X134493000Y-106807000D03*
X114935000Y-95885000D03*
X136779000Y-107061000D03*
X113919000Y-94107000D03*
X113919000Y-95250000D03*
X137922000Y-107061000D03*
X135636000Y-107061000D03*
X113919000Y-96393000D03*
%TO.N,MOTOR_B*%
X113919000Y-92075000D03*
X114935000Y-91440000D03*
X113792000Y-89408000D03*
X113919000Y-90805000D03*
X131699000Y-106807000D03*
X114935000Y-88773000D03*
X130556000Y-106807000D03*
X128143000Y-106807000D03*
X129286000Y-106807000D03*
X114935000Y-89916000D03*
%TO.N,MOTOR_C*%
X120396000Y-102362000D03*
X113919000Y-86868000D03*
X113919000Y-85725000D03*
X115189000Y-86106000D03*
X120142000Y-101092000D03*
X113919000Y-84328000D03*
X115189000Y-84709000D03*
X115062000Y-83566000D03*
X121920000Y-104140000D03*
X121158000Y-103251000D03*
D18*
%TO.N,A-*%
X119380000Y-77486500D03*
%TO.N,A+*%
X120142000Y-77216000D03*
%TO.N,UART_GND*%
X115697000Y-73152000D03*
X114808000Y-57658000D03*
X113919000Y-82169000D03*
X143931000Y-91720000D03*
D17*
X116205000Y-52705000D03*
X117348000Y-81915000D03*
X116332000Y-108585000D03*
D18*
X118935500Y-86550500D03*
X143002000Y-72771000D03*
D17*
X121412000Y-65786000D03*
X143256000Y-108712000D03*
X142875000Y-55499000D03*
D18*
X124714000Y-54864000D03*
X118631604Y-68974604D03*
D17*
X120650000Y-68834000D03*
D18*
%TO.N,UART_TX*%
X115020167Y-70372444D03*
%TO.N,UART_RX*%
X114101944Y-70921944D03*
%TO.N,SWCLK*%
X115958556Y-71635556D03*
%TO.N,SWDIO*%
X114510500Y-72486500D03*
%TO.N,NRST*%
X113411000Y-72390000D03*
%TO.N,HALL_A*%
X116140000Y-74487000D03*
D17*
X119286060Y-81353878D03*
%TO.N,OK*%
X143002000Y-93980000D03*
%TD*%
D19*
%TO.N,CAN_L*%
X115634620Y-78689200D02*
X115735862Y-78689197D01*
%TO.N,NRST*%
X115570167Y-70225047D02*
X115570155Y-70467798D01*
%TO.N,OK*%
X129980431Y-57107014D02*
X129914353Y-57310378D01*
X130203195Y-56743498D02*
X130077508Y-56916490D01*
X130277448Y-56666551D02*
X130203195Y-56743498D01*
X131614015Y-55473434D02*
X131423492Y-55570511D01*
X131817379Y-55407356D02*
X131614015Y-55473434D01*
X132135490Y-55372000D02*
X132028575Y-55373905D01*
X129879000Y-57628490D02*
X129879000Y-60093566D01*
X138628509Y-55372000D02*
X132135490Y-55372000D01*
X138946621Y-55407354D02*
X138735424Y-55373903D01*
X139149985Y-55473432D02*
X138946621Y-55407354D01*
X139340509Y-55570509D02*
X139149985Y-55473432D01*
X131173551Y-55770448D02*
X130277448Y-56666551D01*
X142024551Y-58204551D02*
X139590448Y-55770448D01*
X142098803Y-58281500D02*
X142024551Y-58204551D01*
X142224489Y-58454491D02*
X142098803Y-58281500D01*
X142387644Y-58848378D02*
X142321566Y-58645015D01*
X142423000Y-59166490D02*
X142421095Y-59059575D01*
X142423000Y-65871451D02*
X142423000Y-59166490D01*
X142421608Y-65931498D02*
X142423000Y-65871451D01*
X131250500Y-55696197D02*
X131173551Y-55770448D01*
X142390514Y-66047496D02*
X142421608Y-65931498D01*
X142330457Y-66151494D02*
X142390514Y-66047496D01*
X142247567Y-66238436D02*
X142289000Y-66194956D01*
X142289000Y-66194956D02*
X142330457Y-66151494D01*
X142187517Y-66342428D02*
X142247567Y-66238436D01*
X138735424Y-55373903D02*
X138628509Y-55372000D01*
X142156428Y-66458418D02*
X142187517Y-66342428D01*
X142155000Y-66518460D02*
X142156428Y-66458418D01*
X142155000Y-72282503D02*
X142155000Y-66518460D01*
X142451500Y-72579003D02*
X142155000Y-72282503D01*
X142451500Y-81200823D02*
X142451500Y-72579003D01*
X142155000Y-81497323D02*
X142451500Y-81200823D01*
X132028575Y-55373905D02*
X131817379Y-55407356D01*
X142156903Y-92676424D02*
X142155000Y-92569509D01*
X139513501Y-55696195D02*
X139340509Y-55570509D01*
X142155000Y-92569509D02*
X142155000Y-81497323D01*
X129914353Y-57310378D02*
X129880902Y-57521575D01*
X142190354Y-92887621D02*
X142156903Y-92676424D01*
X142256432Y-93090985D02*
X142190354Y-92887621D01*
X142421095Y-59059575D02*
X142387644Y-58848378D01*
X130077508Y-56916490D02*
X129980431Y-57107014D01*
X142479195Y-93454501D02*
X142353509Y-93281509D01*
X142353509Y-93281509D02*
X142256432Y-93090985D01*
X142321566Y-58645015D02*
X142224489Y-58454491D01*
X131423492Y-55570511D02*
X131250500Y-55696197D01*
X143002000Y-93980000D02*
X142553448Y-93531448D01*
X142553448Y-93531448D02*
X142479195Y-93454501D01*
X139590448Y-55770448D02*
X139513501Y-55696195D01*
X129880902Y-57521575D02*
X129879000Y-57628490D01*
%TO.N,NRST*%
X117965548Y-67590749D02*
G75*
G03*
X118364000Y-66628814I-961948J961949D01*
G01*
X113595714Y-72390021D02*
G75*
G03*
X113911041Y-72259387I-14J445921D01*
G01*
X143273446Y-53103450D02*
G75*
G03*
X142311509Y-52705000I-961946J-961950D01*
G01*
X115476479Y-70693965D02*
G75*
G03*
X115570155Y-70467798I-226179J226165D01*
G01*
X115835463Y-69584496D02*
G75*
G03*
X115570167Y-70225047I640537J-640504D01*
G01*
X117199152Y-68289027D02*
G75*
G03*
X117082809Y-68337192I-52J-164473D01*
G01*
X144716502Y-55109990D02*
G75*
G03*
X144318050Y-54148052I-1360402J-10D01*
G01*
X144318041Y-81009255D02*
G75*
G03*
X144716500Y-80047326I-961941J961955D01*
G01*
X118762450Y-54973553D02*
G75*
G03*
X118364000Y-55935490I961950J-961947D01*
G01*
X121594490Y-52704997D02*
G75*
G03*
X120632551Y-53103448I10J-1360403D01*
G01*
X117199152Y-68288975D02*
G75*
G03*
X117315495Y-68240807I48J164475D01*
G01*
%TO.N,SWDIO*%
X117385548Y-68739024D02*
G75*
G03*
X117269204Y-68787191I-48J-164476D01*
G01*
X117385548Y-68739043D02*
G75*
G03*
X117501891Y-68690807I-48J164543D01*
G01*
X144255002Y-55410490D02*
G75*
G03*
X143856550Y-54448552I-1360402J-10D01*
G01*
X114577723Y-72229074D02*
G75*
G03*
X114510500Y-72391412I162377J-162326D01*
G01*
X115901184Y-70905608D02*
G75*
G03*
X116020157Y-70618454I-287184J287208D01*
G01*
X121722886Y-53212994D02*
G75*
G03*
X120760947Y-53611448I14J-1360406D01*
G01*
X143856558Y-70294138D02*
G75*
G03*
X144255000Y-69332192I-961958J961938D01*
G01*
X116431866Y-69624555D02*
G75*
G03*
X116020157Y-70618454I993934J-993945D01*
G01*
X119270452Y-55101951D02*
G75*
G03*
X118872000Y-56063886I961948J-961949D01*
G01*
X143019446Y-53611450D02*
G75*
G03*
X142057509Y-53213000I-961946J-961950D01*
G01*
X118473549Y-67719147D02*
G75*
G03*
X118872000Y-66757210I-961949J961947D01*
G01*
%TO.N,SWCLK*%
X120033848Y-54974951D02*
G75*
G03*
X119635396Y-55936886I961952J-961949D01*
G01*
X142833048Y-54061452D02*
G75*
G03*
X141871113Y-53663000I-961948J-961948D01*
G01*
X117369628Y-70224493D02*
G75*
G03*
X117640097Y-69571507I-653028J652993D01*
G01*
X119236944Y-67592146D02*
G75*
G03*
X119635396Y-66630210I-961944J961946D01*
G01*
X143406558Y-69244138D02*
G75*
G03*
X143805000Y-68282192I-961958J961938D01*
G01*
X143805005Y-55596886D02*
G75*
G03*
X143406551Y-54634947I-1360405J-14D01*
G01*
X121909282Y-53662991D02*
G75*
G03*
X120947343Y-54061448I18J-1360409D01*
G01*
X117910577Y-68918533D02*
G75*
G03*
X117640097Y-69571507I652923J-652967D01*
G01*
D20*
%TO.N,UART_GND*%
X131444490Y-54792997D02*
G75*
G03*
X130482551Y-55191448I10J-1360403D01*
G01*
X142990996Y-66659679D02*
G75*
G03*
X143002000Y-66633126I-26596J26579D01*
G01*
D19*
X119916490Y-75972997D02*
G75*
G03*
X118954551Y-76371448I10J-1360403D01*
G01*
X117746450Y-77579553D02*
G75*
G03*
X117348000Y-78541490I961950J-961947D01*
G01*
D20*
X143002002Y-58729490D02*
G75*
G03*
X142603550Y-57767552I-1360402J-10D01*
G01*
X128402450Y-57271553D02*
G75*
G03*
X128004000Y-58233490I961950J-961947D01*
G01*
X140027446Y-55191450D02*
G75*
G03*
X139065509Y-54793000I-961946J-961950D01*
G01*
D19*
%TO.N,CAN_H*%
X116061790Y-75962157D02*
G75*
G03*
X115912137Y-76323541I361410J-361343D01*
G01*
X115805135Y-76642189D02*
G75*
G03*
X115912137Y-76383919I-258235J258289D01*
G01*
X115805164Y-76642218D02*
G75*
G03*
X115698166Y-76900491I258236J-258282D01*
G01*
X120346500Y-72222984D02*
G75*
G03*
X119415273Y-72608726I0J-1316916D01*
G01*
%TO.N,CAN_L*%
X115514509Y-79197201D02*
G75*
G03*
X116476447Y-78798751I-9J1360401D01*
G01*
X120501200Y-74098007D02*
G75*
G03*
X119834062Y-74374337I0J-943493D01*
G01*
X116781250Y-76614353D02*
G75*
G03*
X116382800Y-77576290I961950J-961947D01*
G01*
X120599107Y-74098000D02*
X120599107Y-74098000D01*
D21*
X120599107Y-74098000D02*
X120599107Y-74098000D01*
D19*
X120599107Y-74098000D02*
X120599107Y-74098000D01*
X115179963Y-78502337D02*
G75*
G03*
X114728854Y-78315500I-451063J-451063D01*
G01*
X115735862Y-78689228D02*
G75*
G03*
X116020235Y-78571402I-62J402228D01*
G01*
X115179937Y-78502363D02*
G75*
G03*
X115631045Y-78689200I451063J451063D01*
G01*
X117267979Y-76940438D02*
G75*
G03*
X116890800Y-77851000I910521J-910562D01*
G01*
X116513621Y-78761562D02*
G75*
G03*
X116890800Y-77851000I-910521J910562D01*
G01*
X114655605Y-79095595D02*
G75*
G03*
X114900884Y-79197200I245295J245295D01*
G01*
X116140995Y-78450679D02*
G75*
G03*
X116382800Y-77866863I-583795J583779D01*
G01*
X119861090Y-74097997D02*
G75*
G03*
X118899151Y-74496448I10J-1360403D01*
G01*
D20*
%TO.N,+5V*%
X120402995Y-81399995D02*
G75*
G03*
X120029000Y-82302915I902905J-902905D01*
G01*
X141844002Y-59476490D02*
G75*
G03*
X141445550Y-58514552I-1360402J-10D01*
G01*
X140987446Y-58056450D02*
G75*
G03*
X140025509Y-57658000I-961946J-961950D01*
G01*
X141724500Y-64015500D02*
G75*
G03*
X141844000Y-63727001I-288500J288500D01*
G01*
X120028998Y-90382509D02*
G75*
G03*
X120427449Y-91344447I1360402J9D01*
G01*
D19*
%TO.N,+24V*%
X130431490Y-54213997D02*
G75*
G03*
X129469551Y-54612448I10J-1360403D01*
G01*
X140464446Y-54612450D02*
G75*
G03*
X139502509Y-54214000I-961946J-961950D01*
G01*
X142957099Y-57105097D02*
G75*
G03*
X143065500Y-57150000I108401J108397D01*
G01*
X130431490Y-54214000D02*
X139502509Y-54214000D01*
X140464448Y-54612448D02*
X142957098Y-57105098D01*
X143129000Y-57150000D02*
X143065500Y-57150000D01*
X129469551Y-54612448D02*
X124067000Y-60015000D01*
D20*
%TO.N,+5V*%
X141605000Y-64135000D02*
X141724500Y-64015500D01*
X120427448Y-91344448D02*
X121158000Y-92075000D01*
X120029000Y-82302915D02*
X120029000Y-90382509D01*
X140025509Y-57658000D02*
X130683000Y-57658000D01*
X120403000Y-81400000D02*
X120777000Y-81026000D01*
X141445551Y-58514551D02*
X140987448Y-58056448D01*
X141844000Y-59476490D02*
X141844000Y-63727001D01*
D19*
%TO.N,CAN_L*%
X119834062Y-74374337D02*
X117267970Y-76940429D01*
X116476447Y-78798751D02*
X116513629Y-78761570D01*
X120501200Y-74098000D02*
X120599107Y-74098000D01*
X114554000Y-78994000D02*
X114655600Y-79095600D01*
X115514509Y-79197200D02*
X114900884Y-79197200D01*
X114728854Y-78315500D02*
X113538000Y-78315500D01*
X116020235Y-78571402D02*
X116140978Y-78450662D01*
X116781248Y-76614351D02*
X118899151Y-74496448D01*
X116382800Y-77576290D02*
X116382800Y-77866863D01*
X115634620Y-78689200D02*
X115631045Y-78689200D01*
D21*
X120599107Y-74098000D02*
X119640500Y-74098000D01*
D19*
X120599107Y-74098000D02*
X119861090Y-74098000D01*
D21*
%TO.N,CAN_H*%
X115698166Y-78115656D02*
X115698166Y-78040334D01*
D19*
X120346500Y-72223000D02*
X120892000Y-72223000D01*
X115912137Y-76323541D02*
X115912137Y-76383919D01*
X116061816Y-75962183D02*
X119415273Y-72608726D01*
X115698166Y-76900491D02*
X115698166Y-78115656D01*
D20*
%TO.N,UART_GND*%
X142603551Y-57767551D02*
X140027448Y-55191448D01*
D19*
X117348000Y-81915000D02*
X117348000Y-78541490D01*
D20*
X130482551Y-55191448D02*
X128402448Y-57271551D01*
D19*
X118954551Y-76371448D02*
X117746448Y-77579551D01*
D20*
X128004000Y-58233490D02*
X128004000Y-60093566D01*
D19*
X119916490Y-75973000D02*
X120892000Y-75973000D01*
D20*
X131444490Y-54793000D02*
X139065509Y-54793000D01*
X143002000Y-66633126D02*
X143002000Y-58729490D01*
X142991000Y-66659683D02*
X142980000Y-66670683D01*
D19*
%TO.N,SWCLK*%
X143406551Y-69244131D02*
X142980000Y-69670683D01*
X117369623Y-70224488D02*
X115958556Y-71635556D01*
X142833052Y-54061448D02*
X143406551Y-54634947D01*
X119236947Y-67592149D02*
X117910570Y-68918526D01*
X120033844Y-54974947D02*
X120947343Y-54061448D01*
X141871113Y-53663000D02*
X121909282Y-53663000D01*
X143805000Y-68282192D02*
X143805000Y-55596886D01*
X119635396Y-55936886D02*
X119635396Y-66630210D01*
%TO.N,SWDIO*%
X114577736Y-72229087D02*
X115901200Y-70905624D01*
X117269204Y-68787191D02*
X116431853Y-69624542D01*
X117501892Y-68690808D02*
X118473551Y-67719149D01*
X143856551Y-54448551D02*
X143019448Y-53611448D01*
X121722886Y-53213000D02*
X142057509Y-53213000D01*
X120760947Y-53611448D02*
X119270448Y-55101947D01*
X118872000Y-56063886D02*
X118872000Y-66757210D01*
X114510500Y-72486500D02*
X114510500Y-72391412D01*
X143856551Y-70294131D02*
X142980000Y-71170683D01*
X144255000Y-55410490D02*
X144255000Y-69332192D01*
%TO.N,NRST*%
X113911041Y-72259387D02*
X115476471Y-70693957D01*
X118762448Y-54973551D02*
X120632551Y-53103448D01*
X113411000Y-72390000D02*
X113595714Y-72390000D01*
X144716500Y-55109990D02*
X144716500Y-80047326D01*
X118364000Y-66628814D02*
X118364000Y-55935490D01*
X115835483Y-69584516D02*
X117082808Y-68337191D01*
X144318051Y-81009265D02*
X142980000Y-82347317D01*
X143273448Y-53103448D02*
X144318051Y-54148051D01*
X117965551Y-67590752D02*
X117315496Y-68240808D01*
X142311509Y-52705000D02*
X121594490Y-52705000D01*
%TD*%
%TA.AperFunction,Conductor*%
%TO.N,UART_GND*%
G36*
X144767533Y-81559854D02*
G01*
X144824368Y-81602401D01*
X144849179Y-81668921D01*
X144849500Y-81677910D01*
X144849500Y-108197748D01*
X144849339Y-108202244D01*
X144833353Y-108425756D01*
X144830795Y-108443550D01*
X144784599Y-108655911D01*
X144779534Y-108673161D01*
X144703586Y-108876785D01*
X144696118Y-108893137D01*
X144591965Y-109083879D01*
X144582245Y-109099003D01*
X144452007Y-109272981D01*
X144440234Y-109286567D01*
X144286567Y-109440234D01*
X144272981Y-109452007D01*
X144099003Y-109582245D01*
X144083879Y-109591965D01*
X143893137Y-109696118D01*
X143876785Y-109703586D01*
X143673161Y-109779534D01*
X143655911Y-109784599D01*
X143443550Y-109830795D01*
X143425756Y-109833353D01*
X143202244Y-109849339D01*
X143197748Y-109849500D01*
X110552252Y-109849500D01*
X110547756Y-109849339D01*
X110324243Y-109833353D01*
X110306449Y-109830795D01*
X110094088Y-109784599D01*
X110076838Y-109779534D01*
X109873214Y-109703586D01*
X109856862Y-109696118D01*
X109666120Y-109591965D01*
X109650996Y-109582245D01*
X109477018Y-109452007D01*
X109463432Y-109440234D01*
X109309765Y-109286567D01*
X109297992Y-109272981D01*
X109289245Y-109261297D01*
X109167754Y-109099003D01*
X109158034Y-109083879D01*
X109124471Y-109022413D01*
X109053880Y-108893135D01*
X109046413Y-108876785D01*
X108970465Y-108673161D01*
X108965400Y-108655911D01*
X108958559Y-108624464D01*
X108919202Y-108443540D01*
X108916647Y-108425767D01*
X108903985Y-108248724D01*
X108900661Y-108202244D01*
X108900500Y-108197748D01*
X108900500Y-106769048D01*
X110186091Y-106769048D01*
X110215715Y-107038297D01*
X110284231Y-107300373D01*
X110390172Y-107549672D01*
X110390173Y-107549673D01*
X110531285Y-107780893D01*
X110704558Y-107989103D01*
X110906301Y-108169865D01*
X111132213Y-108319327D01*
X111377479Y-108434303D01*
X111636872Y-108512343D01*
X111636875Y-108512343D01*
X111636877Y-108512344D01*
X111904860Y-108551783D01*
X111904864Y-108551783D01*
X112107936Y-108551783D01*
X112142666Y-108549240D01*
X112310459Y-108536960D01*
X112310463Y-108536959D01*
X112310464Y-108536959D01*
X112420968Y-108512343D01*
X112574856Y-108478063D01*
X112827861Y-108381297D01*
X113064080Y-108248724D01*
X113278480Y-108083171D01*
X113466489Y-107888164D01*
X113624102Y-107667862D01*
X113747959Y-107426958D01*
X113835421Y-107170588D01*
X113860021Y-107037402D01*
X113884621Y-106904224D01*
X113884622Y-106904213D01*
X113885269Y-106886519D01*
X113894515Y-106633518D01*
X113876528Y-106470044D01*
X113864890Y-106364268D01*
X113796374Y-106102192D01*
X113690433Y-105852893D01*
X113549321Y-105621673D01*
X113376048Y-105413463D01*
X113376044Y-105413460D01*
X113376043Y-105413458D01*
X113174315Y-105232710D01*
X113174305Y-105232701D01*
X112948393Y-105083239D01*
X112703127Y-104968263D01*
X112545695Y-104920898D01*
X112443728Y-104890221D01*
X112175745Y-104850783D01*
X112175742Y-104850783D01*
X111972672Y-104850783D01*
X111972670Y-104850783D01*
X111770142Y-104865606D01*
X111770141Y-104865606D01*
X111505759Y-104924500D01*
X111505744Y-104924505D01*
X111252744Y-105021269D01*
X111016532Y-105153838D01*
X111016528Y-105153840D01*
X110802121Y-105319399D01*
X110614118Y-105514400D01*
X110614113Y-105514406D01*
X110456506Y-105734700D01*
X110456499Y-105734710D01*
X110332646Y-105975607D01*
X110332645Y-105975610D01*
X110245186Y-106231972D01*
X110245183Y-106231985D01*
X110195984Y-106498341D01*
X110195983Y-106498352D01*
X110186091Y-106769048D01*
X108900500Y-106769048D01*
X108900500Y-105202251D01*
X108900661Y-105197755D01*
X108913283Y-105021269D01*
X108916647Y-104974230D01*
X108919202Y-104956461D01*
X108965401Y-104744082D01*
X108970465Y-104726838D01*
X109046416Y-104523206D01*
X109053877Y-104506870D01*
X109158037Y-104316115D01*
X109167750Y-104301001D01*
X109297998Y-104127010D01*
X109309758Y-104113439D01*
X109463439Y-103959758D01*
X109477010Y-103947998D01*
X109651001Y-103817750D01*
X109666115Y-103808037D01*
X109856870Y-103703877D01*
X109873206Y-103696416D01*
X110076843Y-103620463D01*
X110094082Y-103615401D01*
X110306461Y-103569202D01*
X110324232Y-103566647D01*
X110465490Y-103556544D01*
X110547756Y-103550661D01*
X110552252Y-103550500D01*
X113692175Y-103550500D01*
X113692179Y-103550500D01*
X113974464Y-103516224D01*
X114250559Y-103448173D01*
X114516438Y-103347338D01*
X114625134Y-103290289D01*
X114694747Y-103276343D01*
X114760849Y-103302246D01*
X114802454Y-103359775D01*
X114808940Y-103388138D01*
X114819801Y-103487296D01*
X114824366Y-103514946D01*
X114836365Y-103569060D01*
X114836365Y-103569061D01*
X114843914Y-103596053D01*
X114843914Y-103596052D01*
X114843915Y-103596057D01*
X114843916Y-103596058D01*
X114884250Y-103714866D01*
X114886053Y-103720175D01*
X114886054Y-103720177D01*
X114896493Y-103746177D01*
X114905591Y-103765685D01*
X114919932Y-103796432D01*
X114919936Y-103796439D01*
X114919935Y-103796439D01*
X114933137Y-103821135D01*
X114933138Y-103821136D01*
X115002879Y-103936053D01*
X115010469Y-103947824D01*
X115022252Y-103965046D01*
X115030473Y-103976388D01*
X118921793Y-109046893D01*
X118931078Y-109058301D01*
X118945384Y-109074882D01*
X118955298Y-109085731D01*
X119053422Y-109187108D01*
X119053423Y-109187109D01*
X119075053Y-109207036D01*
X119075054Y-109207036D01*
X119075056Y-109207038D01*
X119120058Y-109243967D01*
X119120065Y-109243972D01*
X119120066Y-109243973D01*
X119143831Y-109261297D01*
X119259432Y-109335823D01*
X119259431Y-109335823D01*
X119259443Y-109335829D01*
X119259448Y-109335833D01*
X119285041Y-109350330D01*
X119285053Y-109350336D01*
X119285052Y-109350336D01*
X119337250Y-109376075D01*
X119337249Y-109376074D01*
X119349128Y-109381107D01*
X119364323Y-109387547D01*
X119493842Y-109433887D01*
X119493845Y-109433888D01*
X119493844Y-109433888D01*
X119513554Y-109439690D01*
X119522065Y-109442196D01*
X119572560Y-109453967D01*
X119578764Y-109455413D01*
X119578762Y-109455412D01*
X119607727Y-109460438D01*
X119607732Y-109460438D01*
X119607733Y-109460439D01*
X119747888Y-109476563D01*
X119762546Y-109477825D01*
X119773490Y-109478452D01*
X119784434Y-109479079D01*
X119791781Y-109479289D01*
X119799127Y-109479500D01*
X119799128Y-109479500D01*
X137193291Y-109479500D01*
X137193292Y-109479500D01*
X137210316Y-109478935D01*
X137235649Y-109477252D01*
X137252592Y-109475561D01*
X137414424Y-109453966D01*
X137447823Y-109447232D01*
X137447825Y-109447231D01*
X137447832Y-109447230D01*
X137496939Y-109433887D01*
X137512864Y-109429560D01*
X137545076Y-109418467D01*
X137545075Y-109418467D01*
X137545079Y-109418466D01*
X137545078Y-109418467D01*
X137691798Y-109356789D01*
X137722265Y-109341531D01*
X137722264Y-109341532D01*
X137744796Y-109328310D01*
X137780398Y-109307422D01*
X137808574Y-109288273D01*
X137933988Y-109190284D01*
X137933988Y-109190283D01*
X137933990Y-109190282D01*
X137959387Y-109167573D01*
X138006545Y-109119413D01*
X138028719Y-109093541D01*
X138028718Y-109093541D01*
X138028725Y-109093534D01*
X138028725Y-109093533D01*
X138126507Y-108962812D01*
X138136242Y-108948856D01*
X138140600Y-108942144D01*
X138150071Y-108927561D01*
X138158873Y-108912969D01*
X138179094Y-108876785D01*
X138421196Y-108443550D01*
X139291297Y-106886529D01*
X139329462Y-106800582D01*
X139344189Y-106757048D01*
X139366041Y-106665576D01*
X139366041Y-106538165D01*
X139386043Y-106470044D01*
X139439699Y-106423551D01*
X139465256Y-106415044D01*
X139533705Y-106400155D01*
X139732700Y-106314940D01*
X139911971Y-106193606D01*
X140065040Y-106040537D01*
X140186374Y-105861266D01*
X140271589Y-105662271D01*
X140317603Y-105450746D01*
X140320500Y-105402116D01*
X140320500Y-103979016D01*
X140317603Y-103930386D01*
X140271589Y-103718861D01*
X140271588Y-103718858D01*
X140270312Y-103714866D01*
X140268622Y-103643890D01*
X140305573Y-103583267D01*
X140369433Y-103552245D01*
X140390329Y-103550500D01*
X140644486Y-103550500D01*
X140700000Y-103550500D01*
X140785935Y-103550556D01*
X140954331Y-103516177D01*
X141112448Y-103448810D01*
X141253894Y-103351177D01*
X141372952Y-103227224D01*
X141464811Y-103081962D01*
X141525756Y-102921261D01*
X141553326Y-102751617D01*
X141546406Y-102579886D01*
X141505275Y-102413011D01*
X141431595Y-102257735D01*
X141328346Y-102120335D01*
X141199700Y-102006364D01*
X141166958Y-101987489D01*
X141134868Y-101968989D01*
X141116803Y-101956348D01*
X141102503Y-101944348D01*
X141074383Y-101910836D01*
X141070621Y-101904321D01*
X141055652Y-101863201D01*
X141052416Y-101844855D01*
X141050500Y-101822968D01*
X141050500Y-85359714D01*
X141070502Y-85291593D01*
X141106498Y-85254949D01*
X141108363Y-85253703D01*
X141247662Y-85160626D01*
X141274865Y-85133423D01*
X141306405Y-85101884D01*
X141368717Y-85067858D01*
X141439532Y-85072923D01*
X141496368Y-85115470D01*
X141521179Y-85181990D01*
X141521500Y-85190979D01*
X141521500Y-92485132D01*
X141521134Y-92491917D01*
X141520176Y-92500765D01*
X141521500Y-92575142D01*
X141521500Y-92609370D01*
X141521783Y-92611605D01*
X141522270Y-92618383D01*
X141522808Y-92648638D01*
X141522538Y-92655692D01*
X141518682Y-92696482D01*
X141530532Y-92771294D01*
X141541354Y-92846210D01*
X141542864Y-92851683D01*
X141544357Y-92858582D01*
X141559515Y-92954287D01*
X141560167Y-92960188D01*
X141563130Y-93007274D01*
X141563130Y-93007276D01*
X141584785Y-93073920D01*
X141604338Y-93141221D01*
X141607485Y-93148492D01*
X141607214Y-93148608D01*
X141613772Y-93163132D01*
X141643790Y-93255519D01*
X141645352Y-93261226D01*
X141648876Y-93276994D01*
X141655646Y-93307281D01*
X141687462Y-93369723D01*
X141717299Y-93433128D01*
X141721546Y-93439819D01*
X141721297Y-93439976D01*
X141730045Y-93453296D01*
X141774141Y-93539838D01*
X141776584Y-93545250D01*
X141793953Y-93589119D01*
X141793957Y-93589126D01*
X141835150Y-93645824D01*
X141874538Y-93703781D01*
X141879779Y-93709726D01*
X141879558Y-93709920D01*
X141890280Y-93721705D01*
X141917774Y-93759546D01*
X141943719Y-93795257D01*
X141947536Y-93801182D01*
X141967761Y-93836813D01*
X141967764Y-93836817D01*
X142020376Y-93891337D01*
X142042001Y-93914365D01*
X142045853Y-93918876D01*
X142048906Y-93922811D01*
X142054877Y-93928782D01*
X142088903Y-93991094D01*
X142091092Y-94004706D01*
X142108457Y-94169927D01*
X142118277Y-94200148D01*
X142167473Y-94351556D01*
X142167476Y-94351561D01*
X142262958Y-94516941D01*
X142262965Y-94516951D01*
X142390744Y-94658864D01*
X142390747Y-94658866D01*
X142545248Y-94771118D01*
X142719712Y-94848794D01*
X142906513Y-94888500D01*
X143097487Y-94888500D01*
X143284288Y-94848794D01*
X143458752Y-94771118D01*
X143613253Y-94658866D01*
X143741040Y-94516944D01*
X143836527Y-94351556D01*
X143895542Y-94169928D01*
X143915504Y-93980000D01*
X143895542Y-93790072D01*
X143836527Y-93608444D01*
X143741040Y-93443056D01*
X143741038Y-93443054D01*
X143741034Y-93443048D01*
X143613255Y-93301135D01*
X143458752Y-93188882D01*
X143284288Y-93111206D01*
X143097487Y-93071500D01*
X143048178Y-93071500D01*
X142980057Y-93051498D01*
X142946243Y-93019562D01*
X142909422Y-92968883D01*
X142901151Y-92957499D01*
X142890827Y-92940653D01*
X142848015Y-92856630D01*
X142840452Y-92838369D01*
X142840357Y-92838078D01*
X142811319Y-92748705D01*
X142806703Y-92729481D01*
X142801476Y-92696482D01*
X142790204Y-92625310D01*
X142789437Y-92616572D01*
X142788500Y-92563887D01*
X142788500Y-83480855D01*
X142808502Y-83412734D01*
X142862158Y-83366241D01*
X142926851Y-83355462D01*
X142979999Y-83360697D01*
X142980000Y-83360697D01*
X142980003Y-83360697D01*
X143177694Y-83341226D01*
X143177695Y-83341225D01*
X143177701Y-83341225D01*
X143367804Y-83283558D01*
X143543004Y-83189912D01*
X143696568Y-83063885D01*
X143822595Y-82910321D01*
X143916241Y-82735121D01*
X143973908Y-82545018D01*
X143989861Y-82383052D01*
X143993380Y-82347320D01*
X143993380Y-82347318D01*
X143993380Y-82347317D01*
X143988687Y-82299679D01*
X144001914Y-82229929D01*
X144024979Y-82198240D01*
X144634407Y-81588812D01*
X144696717Y-81554789D01*
X144767533Y-81559854D01*
G37*
%TD.AperFunction*%
%TA.AperFunction,Conductor*%
G36*
X113336793Y-77608796D02*
G01*
X113217732Y-77650458D01*
X113217730Y-77650459D01*
X113077776Y-77738397D01*
X112960897Y-77855276D01*
X112872959Y-77995230D01*
X112872958Y-77995232D01*
X112849034Y-78063603D01*
X112818366Y-78151248D01*
X112799859Y-78315500D01*
X112818366Y-78479752D01*
X112818367Y-78479754D01*
X112872958Y-78635767D01*
X112872959Y-78635769D01*
X112960897Y-78775723D01*
X113077776Y-78892602D01*
X113122461Y-78920679D01*
X113217733Y-78980542D01*
X113322124Y-79017070D01*
X113285380Y-82544500D01*
X111632000Y-82544500D01*
X111631990Y-82544500D01*
X111543267Y-82554039D01*
X111522851Y-82556234D01*
X111522848Y-82556234D01*
X111522844Y-82556235D01*
X111522840Y-82556235D01*
X111470519Y-82567617D01*
X111470498Y-82567623D01*
X111366345Y-82602288D01*
X111243385Y-82681310D01*
X111191019Y-82726685D01*
X111189904Y-82727599D01*
X111094019Y-82838258D01*
X111094017Y-82838261D01*
X111033301Y-82971210D01*
X111013302Y-83039322D01*
X111013300Y-83039329D01*
X111013300Y-83039331D01*
X110992502Y-83183990D01*
X110992500Y-83184003D01*
X110992500Y-87885009D01*
X111004235Y-87994155D01*
X111004235Y-87994159D01*
X111015617Y-88046480D01*
X111015623Y-88046501D01*
X111033103Y-88099020D01*
X111035637Y-88169972D01*
X111034447Y-88174309D01*
X111013302Y-88246322D01*
X111013300Y-88246329D01*
X110992500Y-88391003D01*
X110992500Y-92460546D01*
X111002725Y-92562512D01*
X111002727Y-92562520D01*
X111012665Y-92611568D01*
X111016914Y-92625310D01*
X111042942Y-92709489D01*
X111118416Y-92834648D01*
X111118423Y-92834658D01*
X111163352Y-92889603D01*
X111163358Y-92889610D01*
X111163360Y-92889612D01*
X111172718Y-92898200D01*
X111209380Y-92958997D01*
X111207353Y-93029964D01*
X111202134Y-93043371D01*
X111160301Y-93134970D01*
X111140303Y-93203079D01*
X111140300Y-93203089D01*
X111132357Y-93258336D01*
X111120371Y-93341706D01*
X111119500Y-93347763D01*
X111119500Y-97660500D01*
X111099498Y-97728621D01*
X111045842Y-97775114D01*
X110993500Y-97786500D01*
X108455574Y-97786500D01*
X108387453Y-97766498D01*
X108340960Y-97712842D01*
X108329576Y-97660973D01*
X108254789Y-77543365D01*
X108255299Y-77535132D01*
X108272622Y-77399992D01*
X108281065Y-77368103D01*
X108282105Y-77365572D01*
X108326514Y-77310182D01*
X108393821Y-77287592D01*
X108398634Y-77287500D01*
X113340141Y-77287500D01*
X113336793Y-77608796D01*
G37*
%TD.AperFunction*%
%TA.AperFunction,Conductor*%
G36*
X120067067Y-92964118D02*
G01*
X120025411Y-92948780D01*
X120016785Y-92941769D01*
X119978249Y-92907515D01*
X118538790Y-91627995D01*
X118501165Y-91567788D01*
X118496500Y-91533821D01*
X118496500Y-91318761D01*
X120067067Y-92964118D01*
G37*
%TD.AperFunction*%
%TA.AperFunction,Conductor*%
G36*
X144031605Y-71647985D02*
G01*
X144074658Y-71704438D01*
X144083000Y-71749523D01*
X144083000Y-80044218D01*
X144082696Y-80050398D01*
X144070247Y-80176770D01*
X144065428Y-80200995D01*
X144031266Y-80313605D01*
X144021814Y-80336424D01*
X143966340Y-80440207D01*
X143952617Y-80460744D01*
X143871965Y-80559016D01*
X143867811Y-80563600D01*
X143814449Y-80616961D01*
X143814431Y-80616980D01*
X143300093Y-81131317D01*
X143237783Y-81165341D01*
X143166968Y-81160277D01*
X143110132Y-81117730D01*
X143085321Y-81051210D01*
X143085000Y-81042221D01*
X143085000Y-72662852D01*
X143086749Y-72647015D01*
X143086455Y-72646988D01*
X143087201Y-72639095D01*
X143085000Y-72569062D01*
X143085000Y-72539154D01*
X143085000Y-72539147D01*
X143084120Y-72532188D01*
X143083655Y-72526283D01*
X143082173Y-72479113D01*
X143076522Y-72459666D01*
X143072512Y-72440303D01*
X143069974Y-72420206D01*
X143052599Y-72376323D01*
X143050679Y-72370714D01*
X143049339Y-72366103D01*
X143038317Y-72328160D01*
X143038522Y-72257165D01*
X143077077Y-72197550D01*
X143141742Y-72168242D01*
X143146922Y-72167622D01*
X143177701Y-72164591D01*
X143367804Y-72106924D01*
X143543004Y-72013278D01*
X143696568Y-71887251D01*
X143822595Y-71733687D01*
X143845878Y-71690126D01*
X143895630Y-71639479D01*
X143964866Y-71623769D01*
X144031605Y-71647985D01*
G37*
%TD.AperFunction*%
%TA.AperFunction,Conductor*%
G36*
X111569621Y-64207502D02*
G01*
X111616114Y-64261158D01*
X111627500Y-64313500D01*
X111627500Y-66418507D01*
X111639237Y-66527664D01*
X111650441Y-66579167D01*
X111685109Y-66683325D01*
X111685111Y-66683329D01*
X111713979Y-66728248D01*
X111733981Y-66796369D01*
X111722594Y-66848712D01*
X111667987Y-66968281D01*
X111648302Y-67035319D01*
X111648301Y-67035326D01*
X111648300Y-67035330D01*
X111630764Y-67157303D01*
X111627500Y-67180003D01*
X111627500Y-69853007D01*
X111639237Y-69962164D01*
X111650441Y-70013667D01*
X111685109Y-70117825D01*
X111764130Y-70240784D01*
X111764131Y-70240786D01*
X111809880Y-70293582D01*
X111809882Y-70293583D01*
X111809884Y-70293586D01*
X111920339Y-70389297D01*
X112053287Y-70450014D01*
X112120326Y-70469699D01*
X112120330Y-70469700D01*
X112265000Y-70490500D01*
X113298224Y-70490500D01*
X113366345Y-70510502D01*
X113410207Y-70561121D01*
X113408952Y-70681551D01*
X113382310Y-70757692D01*
X113363803Y-70921944D01*
X113382310Y-71086196D01*
X113404089Y-71148437D01*
X113398830Y-71653230D01*
X113246748Y-71670366D01*
X113246745Y-71670366D01*
X113246745Y-71670367D01*
X113090732Y-71724958D01*
X113090730Y-71724959D01*
X112950776Y-71812897D01*
X112833897Y-71929776D01*
X112745959Y-72069730D01*
X112745958Y-72069732D01*
X112702906Y-72192768D01*
X112691366Y-72225748D01*
X112672859Y-72390000D01*
X112691366Y-72554252D01*
X112738232Y-72688187D01*
X112745958Y-72710267D01*
X112745959Y-72710269D01*
X112833897Y-72850223D01*
X112950776Y-72967102D01*
X113069081Y-73041437D01*
X113090733Y-73055042D01*
X113246748Y-73109634D01*
X113383499Y-73125042D01*
X113367234Y-74686500D01*
X108386781Y-74686500D01*
X108318660Y-74666498D01*
X108272167Y-74612842D01*
X108261916Y-74577372D01*
X108243802Y-74443317D01*
X108243234Y-74435117D01*
X108234286Y-72027861D01*
X108205609Y-64313966D01*
X108225358Y-64245774D01*
X108278840Y-64199082D01*
X108331608Y-64187500D01*
X111501500Y-64187500D01*
X111569621Y-64207502D01*
G37*
%TD.AperFunction*%
%TA.AperFunction,Conductor*%
G36*
X127050282Y-54316502D02*
G01*
X127096775Y-54370158D01*
X127107470Y-54435669D01*
X127102496Y-54483000D01*
X127122457Y-54672927D01*
X127131163Y-54699720D01*
X127181473Y-54854556D01*
X127181476Y-54854561D01*
X127276958Y-55019941D01*
X127276965Y-55019951D01*
X127404744Y-55161864D01*
X127408427Y-55164540D01*
X127559248Y-55274118D01*
X127635830Y-55308214D01*
X127689926Y-55354194D01*
X127710576Y-55422121D01*
X127691224Y-55490429D01*
X127673677Y-55512416D01*
X125188592Y-57997501D01*
X125126280Y-58031527D01*
X125068711Y-58030587D01*
X125014674Y-58016971D01*
X125014672Y-58016970D01*
X125014669Y-58016970D01*
X124918917Y-58009434D01*
X124881639Y-58006500D01*
X124881636Y-58006500D01*
X123252364Y-58006500D01*
X123252361Y-58006500D01*
X123218267Y-58009183D01*
X123119331Y-58016970D01*
X123119327Y-58016970D01*
X123119327Y-58016971D01*
X122899667Y-58072320D01*
X122899658Y-58072323D01*
X122693411Y-58166004D01*
X122693402Y-58166009D01*
X122507200Y-58295011D01*
X122507195Y-58295015D01*
X122347015Y-58455195D01*
X122347011Y-58455200D01*
X122218009Y-58641402D01*
X122218004Y-58641411D01*
X122124323Y-58847658D01*
X122124320Y-58847667D01*
X122082587Y-59013289D01*
X122068970Y-59067331D01*
X122058500Y-59200364D01*
X122058500Y-60829636D01*
X122068970Y-60962669D01*
X122068971Y-60962672D01*
X122124320Y-61182332D01*
X122124323Y-61182341D01*
X122213488Y-61378646D01*
X122223449Y-61448941D01*
X122193823Y-61513461D01*
X122148158Y-61546670D01*
X122137559Y-61551185D01*
X122137553Y-61551188D01*
X121996102Y-61648826D01*
X121877049Y-61772774D01*
X121785189Y-61918038D01*
X121785187Y-61918041D01*
X121724244Y-62078737D01*
X121724243Y-62078741D01*
X121696674Y-62248377D01*
X121696674Y-62248381D01*
X121696674Y-62248383D01*
X121703594Y-62420114D01*
X121744725Y-62586989D01*
X121818405Y-62742265D01*
X121921654Y-62879665D01*
X122050300Y-62993636D01*
X122115132Y-63031010D01*
X122133195Y-63043650D01*
X122147498Y-63055653D01*
X122175617Y-63089165D01*
X122179380Y-63095682D01*
X122194346Y-63136790D01*
X122197583Y-63155136D01*
X122199500Y-63177025D01*
X122199500Y-66284325D01*
X120268896Y-66253680D01*
X120268896Y-65737544D01*
X120288898Y-65669423D01*
X120342554Y-65622930D01*
X120385905Y-65611865D01*
X120528407Y-65601673D01*
X120665349Y-65550596D01*
X120726672Y-65517111D01*
X120843676Y-65429522D01*
X121061889Y-65211310D01*
X121074157Y-65198135D01*
X121086429Y-65184474D01*
X121165447Y-65061518D01*
X121194472Y-64997962D01*
X121194474Y-64997959D01*
X121235650Y-64857721D01*
X121235649Y-64711564D01*
X121225705Y-64642406D01*
X121184528Y-64502173D01*
X121105509Y-64379218D01*
X121105508Y-64379217D01*
X121105507Y-64379215D01*
X121105506Y-64379213D01*
X121059757Y-64326417D01*
X121044850Y-64313500D01*
X120949299Y-64230703D01*
X120947858Y-64230045D01*
X120816352Y-64169986D01*
X120749318Y-64150302D01*
X120749312Y-64150301D01*
X120749308Y-64150300D01*
X120604638Y-64129500D01*
X120394896Y-64129500D01*
X120326775Y-64109498D01*
X120280282Y-64055842D01*
X120268896Y-64003500D01*
X120268896Y-55939988D01*
X120269200Y-55933809D01*
X120272737Y-55897899D01*
X120281648Y-55807425D01*
X120286463Y-55783216D01*
X120320627Y-55670593D01*
X120330077Y-55647782D01*
X120336468Y-55635825D01*
X120385555Y-55543990D01*
X120399269Y-55523466D01*
X120479883Y-55425237D01*
X120484007Y-55420687D01*
X120536188Y-55368507D01*
X121393122Y-54511572D01*
X121397669Y-54507450D01*
X121495860Y-54426867D01*
X121516387Y-54413151D01*
X121620181Y-54357672D01*
X121642988Y-54348225D01*
X121755610Y-54314060D01*
X121779825Y-54309243D01*
X121855683Y-54301771D01*
X121906116Y-54296804D01*
X121912296Y-54296500D01*
X126982161Y-54296500D01*
X127050282Y-54316502D01*
G37*
%TD.AperFunction*%
%TA.AperFunction,Conductor*%
G36*
X131018865Y-54867502D02*
G01*
X131065358Y-54921158D01*
X131075462Y-54991432D01*
X131045968Y-55056012D01*
X131021568Y-55077711D01*
X131001220Y-55091539D01*
X130995275Y-55096781D01*
X130995080Y-55096560D01*
X130983296Y-55107281D01*
X130909751Y-55160715D01*
X130903814Y-55164540D01*
X130868203Y-55184752D01*
X130868202Y-55184753D01*
X130813711Y-55237332D01*
X130796971Y-55253050D01*
X130790649Y-55258988D01*
X130786144Y-55262836D01*
X130782190Y-55265903D01*
X130765311Y-55282782D01*
X130758496Y-55289182D01*
X130758391Y-55289310D01*
X130754408Y-55293686D01*
X130729616Y-55318478D01*
X130704987Y-55342242D01*
X130704973Y-55342257D01*
X130703537Y-55344042D01*
X130699010Y-55349084D01*
X129889158Y-56158936D01*
X129884104Y-56163473D01*
X129877159Y-56169061D01*
X129825530Y-56222563D01*
X129801306Y-56246787D01*
X129799906Y-56248592D01*
X129795473Y-56253709D01*
X129774463Y-56275481D01*
X129769285Y-56280279D01*
X129737723Y-56306390D01*
X129709386Y-56345393D01*
X129693219Y-56367645D01*
X129685166Y-56378418D01*
X129647873Y-56428305D01*
X129645071Y-56433240D01*
X129641253Y-56439166D01*
X129584307Y-56517547D01*
X129580595Y-56522180D01*
X129549388Y-56557578D01*
X129549385Y-56557583D01*
X129517575Y-56620014D01*
X129483814Y-56681425D01*
X129480895Y-56688799D01*
X129480621Y-56688690D01*
X129474990Y-56703592D01*
X129430891Y-56790141D01*
X129427949Y-56795298D01*
X129402671Y-56835132D01*
X129402668Y-56835137D01*
X129381016Y-56901773D01*
X129357274Y-56967719D01*
X129355545Y-56975455D01*
X129355257Y-56975390D01*
X129352026Y-56990992D01*
X129322009Y-57083370D01*
X129319911Y-57088924D01*
X129301172Y-57132228D01*
X129290208Y-57201448D01*
X129277077Y-57270284D01*
X129276580Y-57278194D01*
X129276286Y-57278175D01*
X129275535Y-57294085D01*
X129261310Y-57383902D01*
X129259819Y-57390788D01*
X129254957Y-57408418D01*
X129248925Y-57430290D01*
X129247578Y-57506005D01*
X129246584Y-57537641D01*
X129246119Y-57543554D01*
X129245500Y-57548459D01*
X129245500Y-57572151D01*
X129245201Y-57581659D01*
X129245220Y-57581858D01*
X129245500Y-57587797D01*
X129245500Y-57622844D01*
X129244890Y-57657066D01*
X129245133Y-57659304D01*
X129245500Y-57666097D01*
X129245500Y-58255747D01*
X129225498Y-58323868D01*
X129208595Y-58344843D01*
X129030240Y-58523197D01*
X128967928Y-58557222D01*
X128897112Y-58552157D01*
X128852049Y-58523196D01*
X128533801Y-58204947D01*
X128533789Y-58204936D01*
X128465886Y-58152188D01*
X128465884Y-58152187D01*
X128330923Y-58096284D01*
X128330925Y-58096284D01*
X128258000Y-58087124D01*
X128258000Y-60089051D01*
X128239495Y-59996021D01*
X128184240Y-59913326D01*
X128101545Y-59858071D01*
X128028624Y-59843566D01*
X127979376Y-59843566D01*
X127906455Y-59858071D01*
X127823760Y-59913326D01*
X127768505Y-59996021D01*
X127749102Y-60093566D01*
X127768505Y-60191111D01*
X127823760Y-60273806D01*
X127906455Y-60329061D01*
X127979376Y-60343566D01*
X128028624Y-60343566D01*
X128101545Y-60329061D01*
X128184240Y-60273806D01*
X128239495Y-60191111D01*
X128258000Y-60098080D01*
X128258000Y-60221566D01*
X128237998Y-60289687D01*
X128184342Y-60336180D01*
X128132000Y-60347566D01*
X126996000Y-60347566D01*
X126996000Y-61323500D01*
X126975998Y-61391621D01*
X126922342Y-61438114D01*
X126870000Y-61449500D01*
X126083948Y-61449500D01*
X126015827Y-61429498D01*
X125969334Y-61375842D01*
X125959230Y-61305568D01*
X125969228Y-61271392D01*
X126009679Y-61182336D01*
X126065030Y-60962669D01*
X126075500Y-60829636D01*
X126075500Y-59839566D01*
X126996000Y-59839566D01*
X127750000Y-59839566D01*
X127750000Y-58087125D01*
X127677076Y-58096284D01*
X127542114Y-58152187D01*
X127542113Y-58152188D01*
X127474212Y-58204935D01*
X127474190Y-58204954D01*
X127115389Y-58563755D01*
X127115370Y-58563776D01*
X127062622Y-58631679D01*
X127062621Y-58631680D01*
X127006718Y-58766642D01*
X126996000Y-58851977D01*
X126996000Y-59839566D01*
X126075500Y-59839566D01*
X126075500Y-59200364D01*
X126065030Y-59067331D01*
X126051412Y-59013287D01*
X126054162Y-58942345D01*
X126084495Y-58893407D01*
X129915324Y-55062578D01*
X129919880Y-55058449D01*
X130018063Y-54977873D01*
X130038591Y-54964156D01*
X130142384Y-54908677D01*
X130165194Y-54899229D01*
X130277818Y-54865064D01*
X130302027Y-54860249D01*
X130403292Y-54850275D01*
X130428381Y-54847804D01*
X130434560Y-54847500D01*
X130508416Y-54847500D01*
X130950744Y-54847500D01*
X131018865Y-54867502D01*
G37*
%TD.AperFunction*%
%TA.AperFunction,Conductor*%
G36*
X120525099Y-52170502D02*
G01*
X120571592Y-52224158D01*
X120581696Y-52294432D01*
X120552202Y-52359012D01*
X120524014Y-52383187D01*
X120438865Y-52436689D01*
X120263780Y-52576314D01*
X120263773Y-52576320D01*
X120184600Y-52655495D01*
X120130208Y-52709886D01*
X120130206Y-52709888D01*
X118284962Y-54555130D01*
X118284837Y-54555262D01*
X118235322Y-54604776D01*
X118235316Y-54604782D01*
X118095696Y-54779861D01*
X118095693Y-54779865D01*
X117976546Y-54969485D01*
X117976545Y-54969487D01*
X117879375Y-55171261D01*
X117805411Y-55382635D01*
X117755575Y-55600974D01*
X117730500Y-55823511D01*
X117730500Y-55935485D01*
X117730499Y-56016205D01*
X117730500Y-56016221D01*
X117730500Y-60544528D01*
X117710498Y-60612649D01*
X117656842Y-60659142D01*
X117586568Y-60669246D01*
X117521988Y-60639752D01*
X117511851Y-60629487D01*
X117511796Y-60629542D01*
X117508653Y-60626319D01*
X117508649Y-60626315D01*
X117508647Y-60626313D01*
X116799569Y-59996021D01*
X116340748Y-59588179D01*
X116276401Y-59539466D01*
X116243688Y-59518529D01*
X116243689Y-59518530D01*
X116172537Y-59480514D01*
X116172529Y-59480511D01*
X116031655Y-59441633D01*
X116028664Y-59441252D01*
X115962335Y-59432819D01*
X115962332Y-59432819D01*
X115962321Y-59432818D01*
X115816204Y-59435204D01*
X115816202Y-59435204D01*
X115816201Y-59435205D01*
X115795565Y-59441632D01*
X115676660Y-59478662D01*
X115636140Y-59497973D01*
X115566040Y-59509221D01*
X115500987Y-59480786D01*
X115478239Y-59455804D01*
X115403657Y-59347753D01*
X115403656Y-59347751D01*
X115215092Y-59134907D01*
X115002249Y-58946345D01*
X115002250Y-58946345D01*
X115002247Y-58946343D01*
X114865534Y-58851977D01*
X114768229Y-58784812D01*
X114768222Y-58784808D01*
X114516450Y-58652667D01*
X114516434Y-58652660D01*
X114250558Y-58551826D01*
X113974466Y-58483776D01*
X113974460Y-58483775D01*
X113692182Y-58449500D01*
X113692179Y-58449500D01*
X113608488Y-58449500D01*
X110552252Y-58449500D01*
X110547756Y-58449339D01*
X110324243Y-58433353D01*
X110306449Y-58430795D01*
X110094088Y-58384599D01*
X110076838Y-58379534D01*
X109873214Y-58303586D01*
X109856862Y-58296118D01*
X109666120Y-58191965D01*
X109650996Y-58182245D01*
X109477018Y-58052007D01*
X109463432Y-58040234D01*
X109309765Y-57886567D01*
X109297992Y-57872981D01*
X109295486Y-57869634D01*
X109192775Y-57732427D01*
X109167754Y-57699003D01*
X109158034Y-57683879D01*
X109105569Y-57587797D01*
X109053880Y-57493135D01*
X109046413Y-57476785D01*
X109011769Y-57383902D01*
X108970464Y-57273159D01*
X108965400Y-57255911D01*
X108958559Y-57224464D01*
X108919202Y-57043540D01*
X108916647Y-57025767D01*
X108905284Y-56866882D01*
X108900661Y-56802244D01*
X108900500Y-56797748D01*
X108900500Y-55366576D01*
X110196382Y-55366576D01*
X110226006Y-55635825D01*
X110294522Y-55897901D01*
X110400463Y-56147200D01*
X110413805Y-56169061D01*
X110541576Y-56378421D01*
X110714849Y-56586631D01*
X110714851Y-56586633D01*
X110714853Y-56586635D01*
X110816185Y-56677428D01*
X110916592Y-56767393D01*
X111142504Y-56916855D01*
X111387770Y-57031831D01*
X111647163Y-57109871D01*
X111647166Y-57109871D01*
X111647168Y-57109872D01*
X111915151Y-57149311D01*
X111915155Y-57149311D01*
X112118227Y-57149311D01*
X112152957Y-57146768D01*
X112320750Y-57134488D01*
X112320754Y-57134487D01*
X112320755Y-57134487D01*
X112525293Y-57088924D01*
X112585147Y-57075591D01*
X112838152Y-56978825D01*
X113074371Y-56846252D01*
X113288771Y-56680699D01*
X113476780Y-56485692D01*
X113634393Y-56265390D01*
X113641659Y-56251259D01*
X113758250Y-56024486D01*
X113758251Y-56024483D01*
X113764381Y-56006516D01*
X113845712Y-55768116D01*
X113870312Y-55634930D01*
X113894912Y-55501752D01*
X113894913Y-55501741D01*
X113904806Y-55231046D01*
X113890033Y-55096781D01*
X113875181Y-54961796D01*
X113806665Y-54699720D01*
X113700724Y-54450421D01*
X113691722Y-54435671D01*
X113559612Y-54219201D01*
X113386339Y-54010991D01*
X113386335Y-54010988D01*
X113386334Y-54010986D01*
X113184606Y-53830238D01*
X113184596Y-53830229D01*
X112958684Y-53680767D01*
X112713418Y-53565791D01*
X112555986Y-53518426D01*
X112454019Y-53487749D01*
X112186036Y-53448311D01*
X112186033Y-53448311D01*
X111982963Y-53448311D01*
X111982961Y-53448311D01*
X111780433Y-53463134D01*
X111780432Y-53463134D01*
X111516050Y-53522028D01*
X111516035Y-53522033D01*
X111263035Y-53618797D01*
X111026823Y-53751366D01*
X111026819Y-53751368D01*
X110812412Y-53916927D01*
X110624409Y-54111928D01*
X110624404Y-54111934D01*
X110466797Y-54332228D01*
X110466790Y-54332238D01*
X110342937Y-54573135D01*
X110342936Y-54573138D01*
X110255477Y-54829500D01*
X110255474Y-54829513D01*
X110206275Y-55095869D01*
X110206274Y-55095880D01*
X110196382Y-55366576D01*
X108900500Y-55366576D01*
X108900500Y-53802251D01*
X108900661Y-53797755D01*
X108910669Y-53657821D01*
X108916647Y-53574230D01*
X108919202Y-53556461D01*
X108965401Y-53344082D01*
X108970465Y-53326838D01*
X109046416Y-53123206D01*
X109053877Y-53106870D01*
X109158037Y-52916115D01*
X109167750Y-52901001D01*
X109297998Y-52727010D01*
X109309758Y-52713439D01*
X109463439Y-52559758D01*
X109477010Y-52547998D01*
X109651001Y-52417750D01*
X109666115Y-52408037D01*
X109856870Y-52303877D01*
X109873206Y-52296416D01*
X110076843Y-52220463D01*
X110094082Y-52215401D01*
X110306461Y-52169202D01*
X110324232Y-52166647D01*
X110465490Y-52156544D01*
X110547756Y-52150661D01*
X110552252Y-52150500D01*
X110605514Y-52150500D01*
X120456978Y-52150500D01*
X120525099Y-52170502D01*
G37*
%TD.AperFunction*%
%TA.AperFunction,Conductor*%
G36*
X142834318Y-57823994D02*
G01*
X142964748Y-57869634D01*
X143059610Y-57880322D01*
X143125060Y-57907824D01*
X143165253Y-57966348D01*
X143171500Y-58005529D01*
X143171500Y-58402052D01*
X143151498Y-58470173D01*
X143097842Y-58516666D01*
X143027568Y-58526770D01*
X142962988Y-58497276D01*
X142924604Y-58437550D01*
X142922534Y-58429537D01*
X142922351Y-58428720D01*
X142922351Y-58428719D01*
X142890541Y-58366288D01*
X142860697Y-58302868D01*
X142860695Y-58302866D01*
X142856448Y-58296173D01*
X142856696Y-58296015D01*
X142847950Y-58282699D01*
X142803854Y-58196156D01*
X142801410Y-58190743D01*
X142784042Y-58146875D01*
X142742845Y-58090172D01*
X142703461Y-58032219D01*
X142698220Y-58026275D01*
X142700922Y-58023892D01*
X142671639Y-57977838D01*
X142671982Y-57906842D01*
X142710654Y-57847302D01*
X142775376Y-57818121D01*
X142834318Y-57823994D01*
G37*
%TD.AperFunction*%
%TA.AperFunction,Conductor*%
G36*
X142622711Y-54756537D02*
G01*
X142656213Y-54780514D01*
X142904207Y-55028508D01*
X142904208Y-55028509D01*
X142956414Y-55080715D01*
X142960556Y-55085285D01*
X142969810Y-55096560D01*
X143041125Y-55183458D01*
X143054848Y-55203996D01*
X143110321Y-55307778D01*
X143119773Y-55330597D01*
X143153934Y-55443206D01*
X143158753Y-55467432D01*
X143171196Y-55593757D01*
X143171500Y-55599937D01*
X143171500Y-56119405D01*
X143151498Y-56187526D01*
X143097842Y-56234019D01*
X143027568Y-56244123D01*
X142962988Y-56214629D01*
X142956405Y-56208500D01*
X142143058Y-55395153D01*
X142109032Y-55332841D01*
X142114097Y-55262026D01*
X142156644Y-55205190D01*
X142158014Y-55204179D01*
X142216253Y-55161866D01*
X142216256Y-55161863D01*
X142344034Y-55019951D01*
X142344035Y-55019949D01*
X142344040Y-55019944D01*
X142439527Y-54854556D01*
X142447287Y-54830672D01*
X142487358Y-54772069D01*
X142552754Y-54744432D01*
X142622711Y-54756537D01*
G37*
%TD.AperFunction*%
%TD*%
%TA.AperFunction,Conductor*%
%TO.N,MOTOR_C*%
G36*
X115687621Y-83078002D02*
G01*
X115734114Y-83131658D01*
X115745500Y-83184000D01*
X115745500Y-85125800D01*
X115757032Y-85193675D01*
X115757033Y-85193677D01*
X115783367Y-85235586D01*
X115805690Y-85271112D01*
X115914096Y-85379518D01*
X115948120Y-85441828D01*
X115951000Y-85468612D01*
X115951000Y-85852000D01*
X115189000Y-85090000D01*
X115189000Y-87122000D01*
X115951000Y-87788750D01*
X115951000Y-87885000D01*
X115930998Y-87953121D01*
X115877342Y-87999614D01*
X115825000Y-88011000D01*
X111632000Y-88011000D01*
X111563879Y-87990998D01*
X111517386Y-87937342D01*
X111506000Y-87885000D01*
X111506000Y-83184000D01*
X111526002Y-83115879D01*
X111579658Y-83069386D01*
X111632000Y-83058000D01*
X115619500Y-83058000D01*
X115687621Y-83078002D01*
G37*
%TD.AperFunction*%
%TD*%
%TA.AperFunction,Conductor*%
%TO.N,MOTOR_A*%
G36*
X114418333Y-93299921D02*
G01*
X114485833Y-93321917D01*
X114491981Y-93326408D01*
X115769856Y-94320310D01*
X115811348Y-94377920D01*
X115818500Y-94419768D01*
X115818500Y-96021748D01*
X115819051Y-96038558D01*
X115820691Y-96063560D01*
X115822337Y-96080271D01*
X115830989Y-96145989D01*
X114935000Y-95250000D01*
X115297357Y-97786500D01*
X111759000Y-97786500D01*
X111690879Y-97766498D01*
X111644386Y-97712842D01*
X111633000Y-97660500D01*
X111633000Y-93347760D01*
X111653002Y-93279639D01*
X111706658Y-93233146D01*
X111762700Y-93221814D01*
X114418333Y-93299921D01*
G37*
%TD.AperFunction*%
%TD*%
%TA.AperFunction,Conductor*%
%TO.N,UART_GND*%
G36*
X118802032Y-75970857D02*
G01*
X118858868Y-76013404D01*
X118883679Y-76079924D01*
X118884000Y-76088912D01*
X118884000Y-76214588D01*
X118884001Y-76214592D01*
X118894718Y-76299923D01*
X118950621Y-76434885D01*
X118950622Y-76434886D01*
X119003369Y-76502787D01*
X119003388Y-76502809D01*
X119357314Y-76856735D01*
X119391340Y-76919047D01*
X119386275Y-76989862D01*
X119343728Y-77046698D01*
X119287932Y-77070278D01*
X119246874Y-77076781D01*
X119246872Y-77076781D01*
X119246872Y-77076782D01*
X119126780Y-77137971D01*
X119031471Y-77233280D01*
X119000599Y-77293871D01*
X118970281Y-77353374D01*
X118949196Y-77486500D01*
X118970281Y-77619626D01*
X119031472Y-77739720D01*
X119126780Y-77835028D01*
X119246874Y-77896219D01*
X119380000Y-77917304D01*
X119513126Y-77896219D01*
X119633220Y-77835028D01*
X119728528Y-77739720D01*
X119775222Y-77648077D01*
X119823967Y-77596464D01*
X119892882Y-77579398D01*
X119944687Y-77593014D01*
X120008874Y-77625719D01*
X120142000Y-77646804D01*
X120275126Y-77625719D01*
X120395220Y-77564528D01*
X120490528Y-77469220D01*
X120551719Y-77349126D01*
X120572804Y-77216000D01*
X120558661Y-77126707D01*
X120567760Y-77056300D01*
X120613482Y-77001986D01*
X120618596Y-77000404D01*
X120638000Y-76981001D01*
X120638000Y-75977514D01*
X120656505Y-76070545D01*
X120711760Y-76153240D01*
X120794455Y-76208495D01*
X120867376Y-76223000D01*
X120916624Y-76223000D01*
X120989545Y-76208495D01*
X121072240Y-76153240D01*
X121127495Y-76070545D01*
X121146000Y-75977514D01*
X121146000Y-76981000D01*
X122073500Y-76981000D01*
X122141621Y-77001002D01*
X122188114Y-77054658D01*
X122199500Y-77107000D01*
X122199500Y-85657694D01*
X122179498Y-85725815D01*
X122125842Y-85772308D01*
X122055568Y-85782412D01*
X121990988Y-85752918D01*
X121964381Y-85720694D01*
X121870196Y-85557562D01*
X121870195Y-85557560D01*
X121747050Y-85420793D01*
X121747049Y-85420792D01*
X121598165Y-85312621D01*
X121562446Y-85296718D01*
X121430034Y-85237764D01*
X121250019Y-85199500D01*
X121065981Y-85199500D01*
X120921969Y-85230111D01*
X120885965Y-85237764D01*
X120717835Y-85312620D01*
X120683560Y-85337523D01*
X120616692Y-85361381D01*
X120547541Y-85345299D01*
X120498061Y-85294385D01*
X120483500Y-85235586D01*
X120483500Y-82362749D01*
X120483501Y-82362746D01*
X120483500Y-82305388D01*
X120483694Y-82300445D01*
X120492846Y-82184140D01*
X120495939Y-82164612D01*
X120521435Y-82058404D01*
X120527541Y-82039614D01*
X120569343Y-81938693D01*
X120578305Y-81921103D01*
X120635387Y-81827952D01*
X120647001Y-81811969D01*
X120722704Y-81723330D01*
X120726052Y-81719707D01*
X120766691Y-81679070D01*
X120766691Y-81679069D01*
X120777059Y-81668702D01*
X120777067Y-81668692D01*
X120789456Y-81656302D01*
X120851766Y-81622278D01*
X120862091Y-81620479D01*
X120933762Y-81611044D01*
X121079841Y-81550536D01*
X121205282Y-81454282D01*
X121301536Y-81328841D01*
X121362044Y-81182762D01*
X121382682Y-81026000D01*
X121362044Y-80869238D01*
X121301536Y-80723159D01*
X121205282Y-80597718D01*
X121079841Y-80501464D01*
X120933762Y-80440956D01*
X120933760Y-80440955D01*
X120777000Y-80420318D01*
X120620239Y-80440955D01*
X120474160Y-80501463D01*
X120474157Y-80501465D01*
X120348718Y-80597718D01*
X120252465Y-80723157D01*
X120252463Y-80723160D01*
X120191955Y-80869239D01*
X120182521Y-80940896D01*
X120153797Y-81005823D01*
X120146696Y-81013542D01*
X120118528Y-81041710D01*
X120118510Y-81041719D01*
X120031393Y-81128836D01*
X119969081Y-81162861D01*
X119898265Y-81157795D01*
X119841429Y-81115248D01*
X119825890Y-81087959D01*
X119810598Y-81051042D01*
X119810596Y-81051038D01*
X119810596Y-81051037D01*
X119714342Y-80925596D01*
X119588901Y-80829342D01*
X119442822Y-80768834D01*
X119442820Y-80768833D01*
X119286060Y-80748196D01*
X119129299Y-80768833D01*
X118983220Y-80829341D01*
X118983217Y-80829343D01*
X118857778Y-80925596D01*
X118761525Y-81051035D01*
X118761523Y-81051038D01*
X118701015Y-81197117D01*
X118680378Y-81353877D01*
X118680378Y-81353878D01*
X118701015Y-81510638D01*
X118748825Y-81626060D01*
X118761524Y-81656719D01*
X118857778Y-81782160D01*
X118983219Y-81878414D01*
X119129298Y-81938922D01*
X119286060Y-81959560D01*
X119442822Y-81938922D01*
X119442824Y-81938921D01*
X119447580Y-81938295D01*
X119517729Y-81949234D01*
X119570828Y-81996362D01*
X119590018Y-82064716D01*
X119588949Y-82079662D01*
X119574499Y-82189427D01*
X119574499Y-82189436D01*
X119574500Y-82268853D01*
X119574500Y-90318429D01*
X119574499Y-90318447D01*
X119574499Y-90330320D01*
X119574498Y-90330324D01*
X119574498Y-90501458D01*
X119574499Y-90501468D01*
X119605551Y-90737327D01*
X119605552Y-90737332D01*
X119605553Y-90737337D01*
X119667129Y-90967138D01*
X119758173Y-91186935D01*
X119758174Y-91186938D01*
X119758176Y-91186941D01*
X119758179Y-91186947D01*
X119877123Y-91392965D01*
X119877125Y-91392968D01*
X119877126Y-91392969D01*
X120021955Y-91581714D01*
X120055447Y-91615206D01*
X120055456Y-91615216D01*
X120057627Y-91617387D01*
X120057628Y-91617388D01*
X120257776Y-91817536D01*
X120291800Y-91879846D01*
X120293990Y-91919800D01*
X120277678Y-92075000D01*
X120296914Y-92258028D01*
X120325891Y-92347209D01*
X120353786Y-92433059D01*
X120353789Y-92433064D01*
X120445803Y-92592437D01*
X120445810Y-92592447D01*
X120526165Y-92681690D01*
X120556883Y-92745697D01*
X120548118Y-92816151D01*
X120502655Y-92870682D01*
X120437736Y-92891094D01*
X120437764Y-92891626D01*
X120437766Y-92891639D01*
X120437765Y-92891639D01*
X120437775Y-92891820D01*
X120434945Y-92891971D01*
X120434928Y-92891977D01*
X120434825Y-92891977D01*
X120434402Y-92892000D01*
X120373906Y-92898505D01*
X120237035Y-92949555D01*
X120237034Y-92949555D01*
X120204572Y-92973857D01*
X120138052Y-92998668D01*
X120090086Y-92988233D01*
X118496500Y-91318761D01*
X118496500Y-88128251D01*
X118495949Y-88111441D01*
X118494309Y-88086440D01*
X118492663Y-88069727D01*
X118471634Y-87909995D01*
X118465076Y-87877024D01*
X118447859Y-87812770D01*
X118437052Y-87780934D01*
X118433479Y-87772308D01*
X118376945Y-87635821D01*
X118376945Y-87635822D01*
X118376944Y-87635821D01*
X118362066Y-87605651D01*
X118334300Y-87557560D01*
X118328812Y-87548055D01*
X118310135Y-87520103D01*
X118310134Y-87520102D01*
X118310135Y-87520102D01*
X118233930Y-87420792D01*
X118212051Y-87392279D01*
X118201404Y-87379304D01*
X118184892Y-87360473D01*
X118173390Y-87348192D01*
X115951000Y-85125802D01*
X115951000Y-82677000D01*
X113284000Y-82677000D01*
X113325585Y-78684819D01*
X113404874Y-78725219D01*
X113538000Y-78746304D01*
X113671126Y-78725219D01*
X113791220Y-78664028D01*
X113791220Y-78664027D01*
X113800055Y-78659526D01*
X113800864Y-78661114D01*
X113856662Y-78641205D01*
X113863855Y-78641000D01*
X114050699Y-78641000D01*
X114118820Y-78661002D01*
X114165313Y-78714658D01*
X114175417Y-78784932D01*
X114162966Y-78824202D01*
X114144281Y-78860874D01*
X114123196Y-78994000D01*
X114144281Y-79127126D01*
X114144282Y-79127127D01*
X114202599Y-79241583D01*
X114205472Y-79247220D01*
X114300780Y-79342528D01*
X114420874Y-79403719D01*
X114521998Y-79419735D01*
X114572288Y-79439418D01*
X114577625Y-79442984D01*
X114582389Y-79446167D01*
X114704750Y-79496854D01*
X114834647Y-79522697D01*
X114864674Y-79522697D01*
X114864701Y-79522700D01*
X114900869Y-79522700D01*
X114952423Y-79522702D01*
X114952426Y-79522700D01*
X114962563Y-79522701D01*
X114962588Y-79522700D01*
X115462957Y-79522700D01*
X115514511Y-79522700D01*
X115514511Y-79522701D01*
X115625010Y-79522700D01*
X115828181Y-79495950D01*
X115844109Y-79493854D01*
X115844109Y-79493853D01*
X115844116Y-79493853D01*
X116057583Y-79436654D01*
X116261757Y-79352081D01*
X116453146Y-79241583D01*
X116453146Y-79241582D01*
X116453151Y-79241580D01*
X116628465Y-79107056D01*
X116628467Y-79107054D01*
X116628475Y-79107048D01*
X116706610Y-79028915D01*
X116720829Y-79014696D01*
X116763925Y-78971601D01*
X116763927Y-78971597D01*
X116765838Y-78969687D01*
X116766000Y-78969507D01*
X116818548Y-78916964D01*
X116947289Y-78749191D01*
X117053030Y-78566050D01*
X117133960Y-78370673D01*
X117188696Y-78166404D01*
X117216299Y-77956738D01*
X117216299Y-77853456D01*
X117216492Y-77848559D01*
X117227369Y-77710348D01*
X117230463Y-77690826D01*
X117241033Y-77646803D01*
X117261081Y-77563296D01*
X117267185Y-77544506D01*
X117317389Y-77423307D01*
X117326358Y-77405708D01*
X117394895Y-77293871D01*
X117406512Y-77277880D01*
X117496649Y-77172348D01*
X117499984Y-77168740D01*
X117534583Y-77134144D01*
X117534583Y-77134141D01*
X117543624Y-77125102D01*
X117543633Y-77125090D01*
X118668908Y-75999816D01*
X118731217Y-75965792D01*
X118802032Y-75970857D01*
G37*
%TD.AperFunction*%
%TA.AperFunction,Conductor*%
G36*
X115322553Y-77098921D02*
G01*
X115364886Y-77155916D01*
X115372666Y-77199505D01*
X115372666Y-77789801D01*
X115353959Y-77853509D01*
X115354140Y-77853601D01*
X115353650Y-77854560D01*
X115352664Y-77857922D01*
X115349817Y-77862085D01*
X115288445Y-77982532D01*
X115285384Y-77991957D01*
X115281593Y-77990725D01*
X115259247Y-78037420D01*
X115198841Y-78074724D01*
X115127856Y-78073449D01*
X115108324Y-78065480D01*
X115098685Y-78060569D01*
X115098684Y-78060568D01*
X115098683Y-78060568D01*
X114954448Y-78013710D01*
X114804659Y-77989995D01*
X114728831Y-77990000D01*
X113863855Y-77990000D01*
X113800146Y-77971293D01*
X113800055Y-77971474D01*
X113799095Y-77970984D01*
X113795734Y-77969998D01*
X113791570Y-77967151D01*
X113791221Y-77966973D01*
X113791220Y-77966972D01*
X113671126Y-77905781D01*
X113538000Y-77884696D01*
X113404874Y-77905781D01*
X113404872Y-77905781D01*
X113404872Y-77905782D01*
X113333320Y-77942239D01*
X113340141Y-77287500D01*
X114597758Y-77287500D01*
X114597762Y-77287500D01*
X114810348Y-77252026D01*
X115014195Y-77182045D01*
X115186698Y-77088690D01*
X115256127Y-77073861D01*
X115322553Y-77098921D01*
G37*
%TD.AperFunction*%
%TA.AperFunction,Conductor*%
G36*
X121088121Y-75739002D02*
G01*
X121134614Y-75792658D01*
X121146000Y-75845000D01*
X121146000Y-75968485D01*
X121127495Y-75875455D01*
X121072240Y-75792760D01*
X120989545Y-75737505D01*
X120916624Y-75723000D01*
X120867376Y-75723000D01*
X120794455Y-75737505D01*
X120711760Y-75792760D01*
X120656505Y-75875455D01*
X120638000Y-75968485D01*
X120638000Y-75845000D01*
X120658002Y-75776879D01*
X120711658Y-75730386D01*
X120764000Y-75719000D01*
X121020000Y-75719000D01*
X121088121Y-75739002D01*
G37*
%TD.AperFunction*%
%TA.AperFunction,Conductor*%
G36*
X122199500Y-66284324D02*
G01*
X122199500Y-69521500D01*
X122179498Y-69589621D01*
X122125842Y-69636114D01*
X122073500Y-69647500D01*
X119672242Y-69647500D01*
X119613766Y-69659132D01*
X119613765Y-69659132D01*
X119564195Y-69692255D01*
X119564186Y-69692262D01*
X119236263Y-70020185D01*
X119236260Y-70020189D01*
X119203132Y-70069769D01*
X119191500Y-70128249D01*
X119191500Y-70567757D01*
X119203132Y-70626233D01*
X119203132Y-70626234D01*
X119236255Y-70675804D01*
X119236262Y-70675813D01*
X119564185Y-71003736D01*
X119564189Y-71003739D01*
X119564190Y-71003740D01*
X119613769Y-71036867D01*
X119672252Y-71048500D01*
X122073500Y-71048500D01*
X122141621Y-71068502D01*
X122188114Y-71122158D01*
X122199500Y-71174500D01*
X122199500Y-71396500D01*
X122179498Y-71464621D01*
X122125842Y-71511114D01*
X122073500Y-71522500D01*
X119672242Y-71522500D01*
X119613766Y-71534132D01*
X119613765Y-71534132D01*
X119564195Y-71567255D01*
X119564186Y-71567262D01*
X119236263Y-71895185D01*
X119236260Y-71895189D01*
X119203132Y-71944769D01*
X119191500Y-72003249D01*
X119191500Y-72319982D01*
X119171498Y-72388103D01*
X119154595Y-72409077D01*
X116703120Y-74860551D01*
X116640808Y-74894577D01*
X116569992Y-74889512D01*
X116513157Y-74846965D01*
X116488346Y-74780445D01*
X116501759Y-74714253D01*
X116549717Y-74620130D01*
X116549717Y-74620129D01*
X116549719Y-74620126D01*
X116570804Y-74487000D01*
X116549719Y-74353874D01*
X116488528Y-74233780D01*
X116393220Y-74138472D01*
X116393219Y-74138471D01*
X116333173Y-74107876D01*
X116273126Y-74077281D01*
X116140000Y-74056196D01*
X116006874Y-74077281D01*
X116006872Y-74077281D01*
X116006872Y-74077282D01*
X115886780Y-74138471D01*
X115791471Y-74233780D01*
X115730282Y-74353872D01*
X115730281Y-74353874D01*
X115709196Y-74487000D01*
X115730281Y-74620126D01*
X115760876Y-74680173D01*
X115782175Y-74721975D01*
X115791472Y-74740220D01*
X115886780Y-74835528D01*
X116006874Y-74896719D01*
X116140000Y-74917804D01*
X116273126Y-74896719D01*
X116367253Y-74848759D01*
X116437029Y-74835654D01*
X116502814Y-74862354D01*
X116543721Y-74920381D01*
X116546762Y-74991312D01*
X116513551Y-75050120D01*
X115936851Y-75626820D01*
X115874539Y-75660846D01*
X115803724Y-75655781D01*
X115746888Y-75613234D01*
X115725611Y-75568654D01*
X115724251Y-75563281D01*
X115724249Y-75563278D01*
X115724249Y-75563275D01*
X115637675Y-75365909D01*
X115519794Y-75185478D01*
X115373829Y-75026917D01*
X115274708Y-74949768D01*
X115203744Y-74894534D01*
X115203743Y-74894533D01*
X115014194Y-74791954D01*
X115014192Y-74791953D01*
X114810352Y-74721975D01*
X114810343Y-74721973D01*
X114764078Y-74714253D01*
X114597762Y-74686500D01*
X114548488Y-74686500D01*
X113367234Y-74686500D01*
X113386707Y-72816956D01*
X113411000Y-72820804D01*
X113544126Y-72799719D01*
X113664220Y-72738528D01*
X113664223Y-72738524D01*
X113672240Y-72732701D01*
X113673031Y-72733790D01*
X113726363Y-72704664D01*
X113728543Y-72704210D01*
X113820754Y-72685864D01*
X113934323Y-72638815D01*
X113966870Y-72625332D01*
X113967363Y-72626522D01*
X114030300Y-72613416D01*
X114096597Y-72638815D01*
X114132463Y-72681806D01*
X114161972Y-72739720D01*
X114257280Y-72835028D01*
X114377374Y-72896219D01*
X114510500Y-72917304D01*
X114643626Y-72896219D01*
X114763720Y-72835028D01*
X114859028Y-72739720D01*
X114920219Y-72619626D01*
X114941304Y-72486500D01*
X114929380Y-72411216D01*
X114938479Y-72340809D01*
X114964731Y-72302416D01*
X115409207Y-71857941D01*
X115471518Y-71823917D01*
X115542334Y-71828982D01*
X115599169Y-71871529D01*
X115609185Y-71887615D01*
X115610027Y-71888774D01*
X115610028Y-71888776D01*
X115705336Y-71984084D01*
X115825430Y-72045275D01*
X115958556Y-72066360D01*
X116091682Y-72045275D01*
X116211776Y-71984084D01*
X116307084Y-71888776D01*
X116368275Y-71768682D01*
X116377400Y-71711068D01*
X116407812Y-71646914D01*
X116412736Y-71641700D01*
X117556155Y-70498281D01*
X117556163Y-70498275D01*
X117562877Y-70491561D01*
X117562905Y-70491545D01*
X117599797Y-70454650D01*
X117599798Y-70454651D01*
X117669300Y-70385145D01*
X117784849Y-70226099D01*
X117874095Y-70050937D01*
X117934843Y-69863971D01*
X117965596Y-69669803D01*
X117965596Y-69648124D01*
X117965597Y-69648119D01*
X117965597Y-69574598D01*
X117965901Y-69568420D01*
X117970522Y-69521500D01*
X117975869Y-69467200D01*
X117980686Y-69442983D01*
X118007511Y-69354558D01*
X118016963Y-69331740D01*
X118045132Y-69279042D01*
X118060522Y-69250249D01*
X118074240Y-69229721D01*
X118138842Y-69151008D01*
X118142977Y-69146446D01*
X118177181Y-69112244D01*
X118177181Y-69112242D01*
X118185667Y-69103758D01*
X118185686Y-69103734D01*
X119487245Y-67802178D01*
X119487247Y-67802174D01*
X119489385Y-67800037D01*
X119489451Y-67799965D01*
X119545241Y-67744175D01*
X119679776Y-67568847D01*
X119790275Y-67377458D01*
X119874848Y-67173284D01*
X119932048Y-66959817D01*
X119960895Y-66740711D01*
X119960896Y-66630212D01*
X119960896Y-66578658D01*
X119960896Y-66248791D01*
X122199500Y-66284324D01*
G37*
%TD.AperFunction*%
%TA.AperFunction,Conductor*%
G36*
X113706733Y-70510502D02*
G01*
X113753226Y-70564158D01*
X113763330Y-70634432D01*
X113750879Y-70673703D01*
X113749804Y-70675813D01*
X113692225Y-70788818D01*
X113671140Y-70921944D01*
X113692225Y-71055070D01*
X113692226Y-71055071D01*
X113753077Y-71174500D01*
X113753416Y-71175164D01*
X113848724Y-71270472D01*
X113968818Y-71331663D01*
X114078189Y-71348985D01*
X114142339Y-71379396D01*
X114179867Y-71439664D01*
X114178853Y-71510653D01*
X114147572Y-71562528D01*
X113731873Y-71978228D01*
X113669560Y-72012253D01*
X113598745Y-72007189D01*
X113585574Y-72001400D01*
X113568668Y-71992786D01*
X113544126Y-71980281D01*
X113411000Y-71959196D01*
X113410999Y-71959196D01*
X113395618Y-71961632D01*
X113410943Y-70490500D01*
X113638612Y-70490500D01*
X113706733Y-70510502D01*
G37*
%TD.AperFunction*%
%TD*%
%TA.AperFunction,Conductor*%
%TO.N,MOTOR_A*%
G36*
X115830988Y-96145988D02*
G01*
X115843367Y-96240007D01*
X115849925Y-96272982D01*
X115849925Y-96272981D01*
X115867133Y-96337206D01*
X115867133Y-96337207D01*
X115867135Y-96337215D01*
X115867136Y-96337216D01*
X115877944Y-96369056D01*
X115889231Y-96396304D01*
X115938056Y-96514181D01*
X115938056Y-96514182D01*
X115952927Y-96544338D01*
X115952929Y-96544342D01*
X115986187Y-96601944D01*
X116004864Y-96629896D01*
X116102947Y-96757719D01*
X116109225Y-96765370D01*
X116113593Y-96770693D01*
X116130103Y-96789522D01*
X116141608Y-96801806D01*
X117172101Y-97832299D01*
X117206126Y-97894611D01*
X117208969Y-97924466D01*
X117120992Y-101531548D01*
X117094034Y-102636843D01*
X117094117Y-102652129D01*
X117094919Y-102674955D01*
X117095919Y-102690291D01*
X117109868Y-102836687D01*
X117114591Y-102866976D01*
X117127497Y-102926259D01*
X117133910Y-102949070D01*
X117135800Y-102955792D01*
X117135800Y-102955791D01*
X117146241Y-102985901D01*
X117182765Y-103091235D01*
X117194522Y-103119558D01*
X117210520Y-103152411D01*
X117221081Y-103174098D01*
X117221081Y-103174097D01*
X117221085Y-103174105D01*
X117236127Y-103200817D01*
X117315777Y-103324392D01*
X117324452Y-103337007D01*
X117337948Y-103355435D01*
X117347381Y-103367537D01*
X118334960Y-104559443D01*
X120709734Y-107425551D01*
X120722255Y-107439582D01*
X120748053Y-107466447D01*
X120761570Y-107479528D01*
X120878104Y-107584321D01*
X120937508Y-107630344D01*
X120937509Y-107630344D01*
X120968149Y-107650679D01*
X120968148Y-107650679D01*
X120971570Y-107652605D01*
X121033642Y-107687544D01*
X121158501Y-107746240D01*
X121158504Y-107746241D01*
X121226858Y-107772454D01*
X121228684Y-107773154D01*
X121228683Y-107773153D01*
X121263884Y-107783771D01*
X121263885Y-107783771D01*
X121300552Y-107791959D01*
X121337219Y-107800148D01*
X121492267Y-107823024D01*
X121510967Y-107825087D01*
X121548115Y-107827812D01*
X121566903Y-107828500D01*
X121566904Y-107828500D01*
X131749921Y-107828500D01*
X131766238Y-107827981D01*
X131768893Y-107827812D01*
X131790496Y-107826437D01*
X131806721Y-107824885D01*
X131961880Y-107805065D01*
X131961887Y-107805063D01*
X131961892Y-107805063D01*
X131980474Y-107801477D01*
X131993934Y-107798881D01*
X131993933Y-107798881D01*
X131993938Y-107798880D01*
X132056431Y-107782648D01*
X132087430Y-107772456D01*
X132087430Y-107772455D01*
X132087436Y-107772454D01*
X132228980Y-107715725D01*
X132228979Y-107715725D01*
X132228985Y-107715723D01*
X132239231Y-107710840D01*
X132258427Y-107701693D01*
X132258426Y-107701693D01*
X132258430Y-107701690D01*
X132258440Y-107701686D01*
X132314848Y-107670265D01*
X132314853Y-107670262D01*
X132342295Y-107652605D01*
X132422346Y-107593585D01*
X132489045Y-107569259D01*
X132497118Y-107569000D01*
X132971868Y-107569000D01*
X133350000Y-107569000D01*
X134115413Y-105968588D01*
X134124709Y-105952375D01*
X134186374Y-105861266D01*
X134196444Y-105837749D01*
X134241644Y-105783003D01*
X134309269Y-105761384D01*
X134377847Y-105779757D01*
X134425605Y-105832290D01*
X134428097Y-105837747D01*
X134438061Y-105861016D01*
X134438066Y-105861024D01*
X134559350Y-106040221D01*
X134712344Y-106193215D01*
X134891541Y-106314499D01*
X134891544Y-106314501D01*
X135090448Y-106399677D01*
X135301880Y-106445670D01*
X135350486Y-106448566D01*
X136562000Y-106448566D01*
X136562000Y-104756182D01*
X136588616Y-104907133D01*
X136658059Y-105068119D01*
X136762756Y-105208751D01*
X136897062Y-105321448D01*
X137053739Y-105400134D01*
X137224338Y-105440566D01*
X137355684Y-105440566D01*
X137486139Y-105425318D01*
X137650891Y-105365353D01*
X137797373Y-105269011D01*
X137917688Y-105141484D01*
X138005350Y-104989648D01*
X138055634Y-104821689D01*
X138062000Y-104712386D01*
X138062000Y-106448566D01*
X138733050Y-106448566D01*
X138801171Y-106468568D01*
X138847664Y-106522224D01*
X138857768Y-106592498D01*
X138843041Y-106636032D01*
X137714773Y-108655035D01*
X137710220Y-108662046D01*
X137627733Y-108772320D01*
X137604413Y-108796135D01*
X137505844Y-108873150D01*
X137477097Y-108890017D01*
X137361784Y-108938492D01*
X137329621Y-108947231D01*
X137229529Y-108960587D01*
X137193114Y-108965446D01*
X137184775Y-108966000D01*
X119806478Y-108966000D01*
X119799272Y-108965587D01*
X119681020Y-108951983D01*
X119652975Y-108945445D01*
X119607852Y-108929301D01*
X119551151Y-108909014D01*
X119525326Y-108896280D01*
X119434430Y-108837680D01*
X119412167Y-108819411D01*
X119366587Y-108772320D01*
X119329382Y-108733881D01*
X119324680Y-108728431D01*
X116326347Y-104821513D01*
X115442103Y-103669316D01*
X115438230Y-103663655D01*
X115379388Y-103566697D01*
X115367791Y-103541831D01*
X115334662Y-103444247D01*
X115328723Y-103417461D01*
X115316375Y-103304724D01*
X115316000Y-103297859D01*
X115316000Y-102798976D01*
X115336002Y-102730855D01*
X115347684Y-102715426D01*
X115403657Y-102652247D01*
X115565190Y-102418225D01*
X115697338Y-102166438D01*
X115798173Y-101900559D01*
X115866224Y-101624464D01*
X115900500Y-101342179D01*
X115900500Y-101264348D01*
X115901028Y-101256206D01*
X115902373Y-101245874D01*
X115900500Y-101193717D01*
X115900500Y-101144487D01*
X115898812Y-101133835D01*
X115898076Y-101126246D01*
X115791154Y-98148941D01*
X115791329Y-98141478D01*
X115794132Y-98107657D01*
X115794132Y-98107655D01*
X115782151Y-98060346D01*
X115781499Y-98057497D01*
X115771735Y-98009631D01*
X115771734Y-98009629D01*
X115771734Y-98009628D01*
X115768756Y-98001873D01*
X115765417Y-97994261D01*
X115738721Y-97953400D01*
X115737167Y-97950895D01*
X115712402Y-97908816D01*
X115707073Y-97902453D01*
X115701436Y-97896330D01*
X115662918Y-97866349D01*
X115660637Y-97864486D01*
X115623554Y-97832732D01*
X115616437Y-97828439D01*
X115609126Y-97824482D01*
X115562969Y-97808636D01*
X115560207Y-97807615D01*
X115514819Y-97789619D01*
X115506676Y-97787866D01*
X115498489Y-97786500D01*
X115498488Y-97786500D01*
X115449664Y-97786500D01*
X115446723Y-97786431D01*
X115397965Y-97784149D01*
X115397964Y-97784149D01*
X115387598Y-97785384D01*
X115387466Y-97784276D01*
X115371901Y-97786500D01*
X115297357Y-97786500D01*
X114935000Y-95250000D01*
X115830988Y-96145988D01*
G37*
%TD.AperFunction*%
%TA.AperFunction,Conductor*%
G36*
X136562000Y-104668745D02*
G01*
X136562000Y-104648000D01*
X136563208Y-104648000D01*
X136562000Y-104668745D01*
G37*
%TD.AperFunction*%
%TD*%
%TA.AperFunction,Conductor*%
%TO.N,MOTOR_C*%
G36*
X116126736Y-86027736D02*
G01*
X116126740Y-86027740D01*
X116126745Y-86027746D01*
X116965540Y-86866540D01*
X117804342Y-87705342D01*
X117809774Y-87711537D01*
X117892516Y-87819368D01*
X117908963Y-87847854D01*
X117956207Y-87961911D01*
X117964720Y-87993682D01*
X117982460Y-88128429D01*
X117983000Y-88136661D01*
X117983000Y-91821000D01*
X118184382Y-92000006D01*
X119932212Y-93553633D01*
X119969835Y-93613837D01*
X119974500Y-93647804D01*
X119974500Y-94798649D01*
X119981009Y-94859196D01*
X119981011Y-94859204D01*
X120032110Y-94996202D01*
X120032112Y-94996207D01*
X120119738Y-95113261D01*
X120236792Y-95200887D01*
X120236794Y-95200888D01*
X120236796Y-95200889D01*
X120295875Y-95222924D01*
X120373795Y-95251988D01*
X120373803Y-95251990D01*
X120434350Y-95258499D01*
X120434355Y-95258499D01*
X120434362Y-95258500D01*
X120434368Y-95258500D01*
X121881632Y-95258500D01*
X121881638Y-95258500D01*
X121881645Y-95258499D01*
X121881649Y-95258499D01*
X121942196Y-95251990D01*
X121942201Y-95251989D01*
X121942204Y-95251988D01*
X122003968Y-95228950D01*
X122074782Y-95223885D01*
X122137094Y-95257909D01*
X122171120Y-95320221D01*
X122174000Y-95347006D01*
X122174000Y-101862252D01*
X122153998Y-101930373D01*
X122110929Y-101971412D01*
X122050300Y-102006363D01*
X121921652Y-102120336D01*
X121818407Y-102257731D01*
X121818405Y-102257734D01*
X121818405Y-102257735D01*
X121787114Y-102323678D01*
X121744725Y-102413011D01*
X121703594Y-102579886D01*
X121696674Y-102751622D01*
X121724243Y-102921258D01*
X121724244Y-102921262D01*
X121775820Y-103057259D01*
X121785189Y-103081962D01*
X121860349Y-103200817D01*
X121877049Y-103227225D01*
X121992418Y-103347338D01*
X121996106Y-103351177D01*
X122137552Y-103448810D01*
X122295669Y-103516177D01*
X122295672Y-103516177D01*
X122301386Y-103518612D01*
X122356216Y-103563715D01*
X122377958Y-103631300D01*
X122367827Y-103684128D01*
X122352889Y-103719012D01*
X122306894Y-103930446D01*
X122306292Y-103940566D01*
X125268316Y-103940566D01*
X125137861Y-103955814D01*
X124973109Y-104015779D01*
X124826627Y-104112121D01*
X124706312Y-104239648D01*
X124618650Y-104391484D01*
X124568366Y-104559443D01*
X124558172Y-104734472D01*
X124588616Y-104907133D01*
X124658059Y-105068119D01*
X124762756Y-105208751D01*
X124897062Y-105321448D01*
X125053739Y-105400134D01*
X125224338Y-105440566D01*
X122307107Y-105440566D01*
X122238986Y-105420564D01*
X122210806Y-105395820D01*
X119415199Y-102082507D01*
X119386558Y-102017544D01*
X119385500Y-102001253D01*
X119385500Y-97145251D01*
X119384949Y-97128441D01*
X119383309Y-97103440D01*
X119381663Y-97086727D01*
X119360634Y-96926995D01*
X119354076Y-96894024D01*
X119336859Y-96829770D01*
X119326052Y-96797934D01*
X119322568Y-96789522D01*
X119265945Y-96652821D01*
X119265945Y-96652822D01*
X119265944Y-96652821D01*
X119251066Y-96622651D01*
X119217814Y-96565059D01*
X119217814Y-96565058D01*
X119199134Y-96537102D01*
X119199135Y-96537102D01*
X119101050Y-96409278D01*
X119090403Y-96396303D01*
X119073892Y-96377473D01*
X119062390Y-96365192D01*
X118152405Y-95455206D01*
X118118379Y-95392894D01*
X118115500Y-95366111D01*
X118115500Y-93843251D01*
X118114949Y-93826441D01*
X118113309Y-93801440D01*
X118111663Y-93784727D01*
X118090634Y-93624995D01*
X118084076Y-93592024D01*
X118066859Y-93527770D01*
X118056052Y-93495934D01*
X118056050Y-93495928D01*
X117995945Y-93350821D01*
X117995945Y-93350822D01*
X117995944Y-93350821D01*
X117981066Y-93320651D01*
X117947814Y-93263059D01*
X117947814Y-93263058D01*
X117929134Y-93235102D01*
X117929135Y-93235102D01*
X117831050Y-93107278D01*
X117820403Y-93094303D01*
X117803892Y-93075473D01*
X117792390Y-93063192D01*
X116241905Y-91512706D01*
X116207879Y-91450394D01*
X116205000Y-91423611D01*
X116205000Y-88179754D01*
X116205000Y-88011000D01*
X116077998Y-87899873D01*
X116034633Y-87861928D01*
X116034630Y-87861926D01*
X115189000Y-87122000D01*
X115189000Y-85090000D01*
X116126736Y-86027736D01*
G37*
%TD.AperFunction*%
%TD*%
%TA.AperFunction,Conductor*%
%TO.N,GNDPWR*%
G36*
X115966877Y-59951031D02*
G01*
X115999592Y-59971970D01*
X116297227Y-60236535D01*
X117167496Y-61010108D01*
X117204524Y-61069359D01*
X117209115Y-61102528D01*
X117215888Y-64350635D01*
X117196343Y-64417716D01*
X117172937Y-64444740D01*
X114778868Y-66512346D01*
X114715265Y-66541267D01*
X114697819Y-66542500D01*
X114105815Y-66542500D01*
X114078966Y-66543907D01*
X114026437Y-66549426D01*
X113999865Y-66553635D01*
X113983612Y-66557089D01*
X113973261Y-66559290D01*
X113947480Y-66562000D01*
X113890521Y-66562000D01*
X113864738Y-66559290D01*
X113838142Y-66553636D01*
X113838143Y-66553636D01*
X113826240Y-66551751D01*
X113811563Y-66549426D01*
X113759036Y-66543907D01*
X113732186Y-66542500D01*
X112265000Y-66542500D01*
X112197961Y-66522815D01*
X112152206Y-66470011D01*
X112141000Y-66418500D01*
X112141000Y-64311500D01*
X112160685Y-64244461D01*
X112213489Y-64198706D01*
X112265000Y-64187500D01*
X115415454Y-64187500D01*
X115422814Y-64187938D01*
X115456505Y-64191962D01*
X115456505Y-64191961D01*
X115456507Y-64191962D01*
X115504354Y-64181672D01*
X115507094Y-64181149D01*
X115555381Y-64173092D01*
X115555386Y-64173089D01*
X115563181Y-64170413D01*
X115570864Y-64167369D01*
X115570869Y-64167369D01*
X115612788Y-64142097D01*
X115615197Y-64140720D01*
X115658258Y-64117418D01*
X115658261Y-64117414D01*
X115664790Y-64112332D01*
X115671041Y-64106980D01*
X115671048Y-64106977D01*
X115702453Y-64069508D01*
X115704356Y-64067342D01*
X115737485Y-64031355D01*
X115741981Y-64024471D01*
X115746188Y-64017329D01*
X115746187Y-64017329D01*
X115746190Y-64017327D01*
X115763735Y-63971668D01*
X115764821Y-63969030D01*
X115784473Y-63924232D01*
X115784473Y-63924227D01*
X115786495Y-63916243D01*
X115788150Y-63908142D01*
X115788153Y-63908136D01*
X115789923Y-63859233D01*
X115790095Y-63856371D01*
X115794132Y-63807656D01*
X115793283Y-63797414D01*
X115794373Y-63797323D01*
X115792727Y-63781842D01*
X115800886Y-63556582D01*
X115898054Y-60873834D01*
X115898778Y-60866378D01*
X115900498Y-60855517D01*
X115900500Y-60855514D01*
X115900500Y-60806333D01*
X115901321Y-60783666D01*
X115901017Y-60781325D01*
X115900500Y-60773331D01*
X115900500Y-60657818D01*
X115889260Y-60565252D01*
X115866224Y-60375536D01*
X115798173Y-60099441D01*
X115798172Y-60099438D01*
X115797276Y-60095803D01*
X115798722Y-60095446D01*
X115797682Y-60031663D01*
X115834492Y-59972276D01*
X115897565Y-59942218D01*
X115966877Y-59951031D01*
G37*
%TD.AperFunction*%
%TD*%
%TA.AperFunction,Conductor*%
%TO.N,+24V*%
G36*
X117658196Y-64799928D02*
G01*
X117710925Y-64845770D01*
X117730500Y-64912638D01*
X117730500Y-66625757D01*
X117730201Y-66631839D01*
X117717728Y-66758466D01*
X117712986Y-66782305D01*
X117678714Y-66895285D01*
X117669411Y-66917744D01*
X117613750Y-67021876D01*
X117600245Y-67042087D01*
X117519495Y-67140481D01*
X117515407Y-67144992D01*
X116993270Y-67667128D01*
X116943883Y-67697386D01*
X116892928Y-67713930D01*
X116892919Y-67713934D01*
X116780975Y-67770948D01*
X116718479Y-67816342D01*
X116713602Y-67819545D01*
X116691449Y-67832646D01*
X116634889Y-67889206D01*
X116577860Y-67946226D01*
X116577795Y-67946298D01*
X115444343Y-69079749D01*
X115444333Y-69079759D01*
X115423853Y-69100238D01*
X115423769Y-69100283D01*
X115316152Y-69207906D01*
X115316150Y-69207907D01*
X115193315Y-69368000D01*
X115193314Y-69368002D01*
X115092432Y-69542749D01*
X115092428Y-69542756D01*
X115084182Y-69562666D01*
X115040341Y-69617069D01*
X114983505Y-69638433D01*
X114855920Y-69652808D01*
X114699898Y-69707402D01*
X114559943Y-69795342D01*
X114443065Y-69912220D01*
X114443061Y-69912225D01*
X114438821Y-69918974D01*
X114386486Y-69965264D01*
X114333829Y-69977000D01*
X112265000Y-69977000D01*
X112197961Y-69957315D01*
X112152206Y-69904511D01*
X112141000Y-69853000D01*
X112141000Y-67180000D01*
X112160685Y-67112961D01*
X112213489Y-67067206D01*
X112265000Y-67056000D01*
X113718742Y-67056000D01*
X113744522Y-67058709D01*
X113823513Y-67075500D01*
X114014487Y-67075500D01*
X114093477Y-67058709D01*
X114119258Y-67056000D01*
X114935000Y-67056000D01*
X117525451Y-64818791D01*
X117589054Y-64789871D01*
X117658196Y-64799928D01*
G37*
%TD.AperFunction*%
%TD*%
%TA.AperFunction,Conductor*%
%TO.N,MOTOR_B*%
G36*
X116126736Y-92123736D02*
G01*
X116126740Y-92123740D01*
X116126745Y-92123746D01*
X116454797Y-92451797D01*
X117423342Y-93420342D01*
X117428774Y-93426537D01*
X117511516Y-93534368D01*
X117527963Y-93562854D01*
X117575207Y-93676911D01*
X117583720Y-93708682D01*
X117601460Y-93843429D01*
X117602000Y-93851661D01*
X117602000Y-95631000D01*
X117777736Y-95806736D01*
X118693342Y-96722342D01*
X118698774Y-96728537D01*
X118781516Y-96836368D01*
X118797963Y-96864854D01*
X118845207Y-96978911D01*
X118853720Y-97010682D01*
X118871460Y-97145429D01*
X118872000Y-97153661D01*
X118872000Y-102235000D01*
X122301000Y-106299000D01*
X122587060Y-106293278D01*
X122587062Y-106293279D01*
X122811477Y-106288790D01*
X122879982Y-106307426D01*
X122884621Y-106310420D01*
X122891295Y-106314937D01*
X122891297Y-106314938D01*
X122891300Y-106314940D01*
X123090295Y-106400155D01*
X123301820Y-106446169D01*
X123350450Y-106449066D01*
X123350457Y-106449066D01*
X127273543Y-106449066D01*
X127273550Y-106449066D01*
X127322180Y-106446169D01*
X127533705Y-106400155D01*
X127732700Y-106314940D01*
X127891510Y-106207453D01*
X127959132Y-106185838D01*
X127959351Y-106185832D01*
X128651000Y-106172000D01*
X128651000Y-106131871D01*
X128712344Y-106193215D01*
X128891541Y-106314499D01*
X128891544Y-106314501D01*
X129090448Y-106399677D01*
X129301880Y-106445670D01*
X129350486Y-106448566D01*
X130562000Y-106448566D01*
X130562000Y-104756182D01*
X130588616Y-104907133D01*
X130658059Y-105068119D01*
X130762756Y-105208751D01*
X130897062Y-105321448D01*
X131053739Y-105400134D01*
X131224338Y-105440566D01*
X131355684Y-105440566D01*
X131486139Y-105425318D01*
X131650891Y-105365353D01*
X131797373Y-105269011D01*
X131917688Y-105141484D01*
X132005350Y-104989648D01*
X132055634Y-104821689D01*
X132062000Y-104712386D01*
X132062000Y-106448566D01*
X132390175Y-106448566D01*
X132458296Y-106468568D01*
X132504789Y-106522224D01*
X132514893Y-106592498D01*
X132497308Y-106640887D01*
X132258038Y-107027398D01*
X132253399Y-107033925D01*
X132170285Y-107136419D01*
X132147191Y-107158473D01*
X132050708Y-107229608D01*
X132022810Y-107245148D01*
X131911543Y-107289742D01*
X131880636Y-107297770D01*
X131813634Y-107306330D01*
X131749736Y-107314492D01*
X131741757Y-107315000D01*
X121576304Y-107315000D01*
X121557913Y-107313651D01*
X121436452Y-107295731D01*
X121412172Y-107292148D01*
X121376963Y-107281528D01*
X121266517Y-107229608D01*
X121252101Y-107222831D01*
X121221456Y-107202493D01*
X121111916Y-107103991D01*
X121099143Y-107090690D01*
X119224881Y-104828650D01*
X117747682Y-103045823D01*
X117743242Y-103039761D01*
X117676043Y-102935504D01*
X117662904Y-102908523D01*
X117625983Y-102802043D01*
X117619599Y-102772719D01*
X117607832Y-102649231D01*
X117607568Y-102641723D01*
X117622837Y-102015700D01*
X117722730Y-97920066D01*
X117729000Y-97663000D01*
X117547172Y-97481172D01*
X117547163Y-97481162D01*
X116788334Y-96722334D01*
X116510656Y-96444656D01*
X116505225Y-96438462D01*
X116422483Y-96330631D01*
X116406036Y-96302145D01*
X116358790Y-96188082D01*
X116350280Y-96156320D01*
X116332540Y-96021570D01*
X116332000Y-96013338D01*
X116332000Y-94400454D01*
X116332000Y-94400450D01*
X116332000Y-94107000D01*
X114046000Y-92329000D01*
X114046000Y-91059000D01*
X115062000Y-91059000D01*
X116126736Y-92123736D01*
G37*
%TD.AperFunction*%
%TA.AperFunction,Conductor*%
G36*
X130562000Y-104668745D02*
G01*
X130562000Y-104648000D01*
X130563208Y-104648000D01*
X130562000Y-104668745D01*
G37*
%TD.AperFunction*%
%TD*%
%TA.AperFunction,Conductor*%
%TO.N,MOTOR_B*%
G36*
X115633621Y-88285002D02*
G01*
X115680114Y-88338658D01*
X115691500Y-88391000D01*
X115691500Y-91437361D01*
X115692972Y-91464822D01*
X115692973Y-91464831D01*
X115697319Y-91505269D01*
X115706114Y-91559546D01*
X115706117Y-91559557D01*
X115757190Y-91696486D01*
X115757194Y-91696496D01*
X115791221Y-91758809D01*
X115878802Y-91875800D01*
X115878806Y-91875805D01*
X115933277Y-91930276D01*
X115933280Y-91930280D01*
X115951000Y-91947999D01*
X115951000Y-91948000D01*
X115062000Y-91059000D01*
X114046000Y-91059000D01*
X114046000Y-92329000D01*
X114481889Y-92668025D01*
X111628401Y-92586497D01*
X111560880Y-92564557D01*
X111515938Y-92509596D01*
X111506000Y-92460548D01*
X111506000Y-88391000D01*
X111526002Y-88322879D01*
X111579658Y-88276386D01*
X111632000Y-88265000D01*
X115565500Y-88265000D01*
X115633621Y-88285002D01*
G37*
%TD.AperFunction*%
%TD*%
M02*
