%TF.GenerationSoftware,KiCad,Pcbnew,7.0.9*%
%TF.CreationDate,2024-04-13T12:05:23+02:00*%
%TF.ProjectId,MotorDriverCarrier-rounded,4d6f746f-7244-4726-9976-657243617272,rev?*%
%TF.SameCoordinates,Original*%
%TF.FileFunction,Legend,Top*%
%TF.FilePolarity,Positive*%
%FSLAX46Y46*%
G04 Gerber Fmt 4.6, Leading zero omitted, Abs format (unit mm)*
G04 Created by KiCad (PCBNEW 7.0.9) date 2024-04-13 12:05:23*
%MOMM*%
%LPD*%
G01*
G04 APERTURE LIST*
%ADD10C,0.203200*%
%ADD11C,0.150000*%
%ADD12C,0.300000*%
%ADD13C,0.120000*%
G04 APERTURE END LIST*
D10*
X117236707Y-104787095D02*
X116390040Y-105089476D01*
X116390040Y-105089476D02*
X117236707Y-105391857D01*
X117660040Y-106117571D02*
X117660040Y-106238524D01*
X117660040Y-106238524D02*
X117599564Y-106359476D01*
X117599564Y-106359476D02*
X117539088Y-106419952D01*
X117539088Y-106419952D02*
X117418136Y-106480428D01*
X117418136Y-106480428D02*
X117176231Y-106540905D01*
X117176231Y-106540905D02*
X116873850Y-106540905D01*
X116873850Y-106540905D02*
X116631945Y-106480428D01*
X116631945Y-106480428D02*
X116510993Y-106419952D01*
X116510993Y-106419952D02*
X116450517Y-106359476D01*
X116450517Y-106359476D02*
X116390040Y-106238524D01*
X116390040Y-106238524D02*
X116390040Y-106117571D01*
X116390040Y-106117571D02*
X116450517Y-105996619D01*
X116450517Y-105996619D02*
X116510993Y-105936143D01*
X116510993Y-105936143D02*
X116631945Y-105875666D01*
X116631945Y-105875666D02*
X116873850Y-105815190D01*
X116873850Y-105815190D02*
X117176231Y-105815190D01*
X117176231Y-105815190D02*
X117418136Y-105875666D01*
X117418136Y-105875666D02*
X117539088Y-105936143D01*
X117539088Y-105936143D02*
X117599564Y-105996619D01*
X117599564Y-105996619D02*
X117660040Y-106117571D01*
X117660040Y-107689952D02*
X117660040Y-107085190D01*
X117660040Y-107085190D02*
X117055278Y-107024714D01*
X117055278Y-107024714D02*
X117115755Y-107085190D01*
X117115755Y-107085190D02*
X117176231Y-107206143D01*
X117176231Y-107206143D02*
X117176231Y-107508524D01*
X117176231Y-107508524D02*
X117115755Y-107629476D01*
X117115755Y-107629476D02*
X117055278Y-107689952D01*
X117055278Y-107689952D02*
X116934326Y-107750429D01*
X116934326Y-107750429D02*
X116631945Y-107750429D01*
X116631945Y-107750429D02*
X116510993Y-107689952D01*
X116510993Y-107689952D02*
X116450517Y-107629476D01*
X116450517Y-107629476D02*
X116390040Y-107508524D01*
X116390040Y-107508524D02*
X116390040Y-107206143D01*
X116390040Y-107206143D02*
X116450517Y-107085190D01*
X116450517Y-107085190D02*
X116510993Y-107024714D01*
D11*
X144633514Y-77787618D02*
X144671609Y-77825714D01*
X144671609Y-77825714D02*
X144709704Y-77901904D01*
X144709704Y-77901904D02*
X144709704Y-78092380D01*
X144709704Y-78092380D02*
X144671609Y-78168571D01*
X144671609Y-78168571D02*
X144633514Y-78206666D01*
X144633514Y-78206666D02*
X144557323Y-78244761D01*
X144557323Y-78244761D02*
X144481133Y-78244761D01*
X144481133Y-78244761D02*
X144366847Y-78206666D01*
X144366847Y-78206666D02*
X143909704Y-77749523D01*
X143909704Y-77749523D02*
X143909704Y-78244761D01*
X144443038Y-78930476D02*
X143909704Y-78930476D01*
X144747800Y-78740000D02*
X144176371Y-78549523D01*
X144176371Y-78549523D02*
X144176371Y-79044762D01*
X144709704Y-79235238D02*
X143909704Y-79501905D01*
X143909704Y-79501905D02*
X144709704Y-79768571D01*
D12*
X141502742Y-107664142D02*
X144502742Y-107664142D01*
X143074171Y-107664142D02*
X143074171Y-105949856D01*
X141502742Y-105949856D02*
X144502742Y-105949856D01*
D11*
X144709704Y-99472810D02*
X144709704Y-99625191D01*
X144709704Y-99625191D02*
X144671609Y-99701381D01*
X144671609Y-99701381D02*
X144595419Y-99777572D01*
X144595419Y-99777572D02*
X144443038Y-99815667D01*
X144443038Y-99815667D02*
X144176371Y-99815667D01*
X144176371Y-99815667D02*
X144023990Y-99777572D01*
X144023990Y-99777572D02*
X143947800Y-99701381D01*
X143947800Y-99701381D02*
X143909704Y-99625191D01*
X143909704Y-99625191D02*
X143909704Y-99472810D01*
X143909704Y-99472810D02*
X143947800Y-99396619D01*
X143947800Y-99396619D02*
X144023990Y-99320429D01*
X144023990Y-99320429D02*
X144176371Y-99282333D01*
X144176371Y-99282333D02*
X144443038Y-99282333D01*
X144443038Y-99282333D02*
X144595419Y-99320429D01*
X144595419Y-99320429D02*
X144671609Y-99396619D01*
X144671609Y-99396619D02*
X144709704Y-99472810D01*
X143909704Y-100158524D02*
X144709704Y-100158524D01*
X143909704Y-100615667D02*
X144366847Y-100272809D01*
X144709704Y-100615667D02*
X144252561Y-100158524D01*
D12*
X144502742Y-106013142D02*
X144502742Y-104298857D01*
X141502742Y-105155999D02*
X144502742Y-105155999D01*
D11*
X144709704Y-90017619D02*
X144709704Y-89636667D01*
X144709704Y-89636667D02*
X144328752Y-89598571D01*
X144328752Y-89598571D02*
X144366847Y-89636667D01*
X144366847Y-89636667D02*
X144404942Y-89712857D01*
X144404942Y-89712857D02*
X144404942Y-89903333D01*
X144404942Y-89903333D02*
X144366847Y-89979524D01*
X144366847Y-89979524D02*
X144328752Y-90017619D01*
X144328752Y-90017619D02*
X144252561Y-90055714D01*
X144252561Y-90055714D02*
X144062085Y-90055714D01*
X144062085Y-90055714D02*
X143985895Y-90017619D01*
X143985895Y-90017619D02*
X143947800Y-89979524D01*
X143947800Y-89979524D02*
X143909704Y-89903333D01*
X143909704Y-89903333D02*
X143909704Y-89712857D01*
X143909704Y-89712857D02*
X143947800Y-89636667D01*
X143947800Y-89636667D02*
X143985895Y-89598571D01*
X144709704Y-90284286D02*
X143909704Y-90550953D01*
X143909704Y-90550953D02*
X144709704Y-90817619D01*
D13*
X118887144Y-70132137D02*
X118887144Y-70589280D01*
X118087144Y-70360708D02*
X118887144Y-70360708D01*
X118087144Y-70855947D02*
X118887144Y-70855947D01*
X118887144Y-70855947D02*
X118887144Y-71160709D01*
X118887144Y-71160709D02*
X118849049Y-71236899D01*
X118849049Y-71236899D02*
X118810954Y-71274994D01*
X118810954Y-71274994D02*
X118734763Y-71313090D01*
X118734763Y-71313090D02*
X118620478Y-71313090D01*
X118620478Y-71313090D02*
X118544287Y-71274994D01*
X118544287Y-71274994D02*
X118506192Y-71236899D01*
X118506192Y-71236899D02*
X118468097Y-71160709D01*
X118468097Y-71160709D02*
X118468097Y-70855947D01*
X118391906Y-71655947D02*
X118391906Y-72265471D01*
X118087144Y-72646423D02*
X118887144Y-72646423D01*
X118506192Y-72646423D02*
X118506192Y-73103566D01*
X118087144Y-73103566D02*
X118887144Y-73103566D01*
X118087144Y-73827375D02*
X118506192Y-73827375D01*
X118506192Y-73827375D02*
X118582382Y-73789280D01*
X118582382Y-73789280D02*
X118620478Y-73713089D01*
X118620478Y-73713089D02*
X118620478Y-73560708D01*
X118620478Y-73560708D02*
X118582382Y-73484518D01*
X118125240Y-73827375D02*
X118087144Y-73751184D01*
X118087144Y-73751184D02*
X118087144Y-73560708D01*
X118087144Y-73560708D02*
X118125240Y-73484518D01*
X118125240Y-73484518D02*
X118201430Y-73446422D01*
X118201430Y-73446422D02*
X118277620Y-73446422D01*
X118277620Y-73446422D02*
X118353811Y-73484518D01*
X118353811Y-73484518D02*
X118391906Y-73560708D01*
X118391906Y-73560708D02*
X118391906Y-73751184D01*
X118391906Y-73751184D02*
X118430001Y-73827375D01*
X118087144Y-74322613D02*
X118125240Y-74246423D01*
X118125240Y-74246423D02*
X118201430Y-74208328D01*
X118201430Y-74208328D02*
X118887144Y-74208328D01*
X118087144Y-74741661D02*
X118125240Y-74665471D01*
X118125240Y-74665471D02*
X118201430Y-74627376D01*
X118201430Y-74627376D02*
X118887144Y-74627376D01*
X120237333Y-80883855D02*
X120237333Y-81455283D01*
X120237333Y-81455283D02*
X120199238Y-81569569D01*
X120199238Y-81569569D02*
X120123047Y-81645760D01*
X120123047Y-81645760D02*
X120008762Y-81683855D01*
X120008762Y-81683855D02*
X119932571Y-81683855D01*
X120618286Y-81683855D02*
X120618286Y-80883855D01*
X120618286Y-80883855D02*
X120923048Y-80883855D01*
X120923048Y-80883855D02*
X120999238Y-80921950D01*
X120999238Y-80921950D02*
X121037333Y-80960045D01*
X121037333Y-80960045D02*
X121075429Y-81036236D01*
X121075429Y-81036236D02*
X121075429Y-81150521D01*
X121075429Y-81150521D02*
X121037333Y-81226712D01*
X121037333Y-81226712D02*
X120999238Y-81264807D01*
X120999238Y-81264807D02*
X120923048Y-81302902D01*
X120923048Y-81302902D02*
X120618286Y-81302902D01*
X121380190Y-80960045D02*
X121418286Y-80921950D01*
X121418286Y-80921950D02*
X121494476Y-80883855D01*
X121494476Y-80883855D02*
X121684952Y-80883855D01*
X121684952Y-80883855D02*
X121761143Y-80921950D01*
X121761143Y-80921950D02*
X121799238Y-80960045D01*
X121799238Y-80960045D02*
X121837333Y-81036236D01*
X121837333Y-81036236D02*
X121837333Y-81112426D01*
X121837333Y-81112426D02*
X121799238Y-81226712D01*
X121799238Y-81226712D02*
X121342095Y-81683855D01*
X121342095Y-81683855D02*
X121837333Y-81683855D01*
X118840333Y-62428855D02*
X118840333Y-63000283D01*
X118840333Y-63000283D02*
X118802238Y-63114569D01*
X118802238Y-63114569D02*
X118726047Y-63190760D01*
X118726047Y-63190760D02*
X118611762Y-63228855D01*
X118611762Y-63228855D02*
X118535571Y-63228855D01*
X119221286Y-63228855D02*
X119221286Y-62428855D01*
X119221286Y-62428855D02*
X119526048Y-62428855D01*
X119526048Y-62428855D02*
X119602238Y-62466950D01*
X119602238Y-62466950D02*
X119640333Y-62505045D01*
X119640333Y-62505045D02*
X119678429Y-62581236D01*
X119678429Y-62581236D02*
X119678429Y-62695521D01*
X119678429Y-62695521D02*
X119640333Y-62771712D01*
X119640333Y-62771712D02*
X119602238Y-62809807D01*
X119602238Y-62809807D02*
X119526048Y-62847902D01*
X119526048Y-62847902D02*
X119221286Y-62847902D01*
X120440333Y-63228855D02*
X119983190Y-63228855D01*
X120211762Y-63228855D02*
X120211762Y-62428855D01*
X120211762Y-62428855D02*
X120135571Y-62543140D01*
X120135571Y-62543140D02*
X120059381Y-62619331D01*
X120059381Y-62619331D02*
X119983190Y-62657426D01*
%TO.C,R1*%
X143524500Y-86105276D02*
X143524500Y-86614724D01*
X142479500Y-86105276D02*
X142479500Y-86614724D01*
%TO.C,J2*%
X120098000Y-93075000D02*
X120098000Y-85015000D01*
X122218000Y-85015000D02*
X120098000Y-85015000D01*
X122218000Y-93075000D02*
X120098000Y-93075000D01*
X122218000Y-93075000D02*
X122218000Y-85015000D01*
X122218000Y-94075000D02*
X122218000Y-95135000D01*
X122218000Y-95135000D02*
X121158000Y-95135000D01*
%TO.C,G\u002A\u002A\u002A*%
G36*
X118373000Y-57607000D02*
G01*
X118377542Y-57779000D01*
X117505000Y-57779000D01*
X117505000Y-57602862D01*
X118373000Y-57607000D01*
G37*
G36*
X119225000Y-53962781D02*
G01*
X118963000Y-53964890D01*
X118701000Y-53967000D01*
X118698812Y-54105000D01*
X118696623Y-54243000D01*
X118577000Y-54243000D01*
X118577000Y-53835000D01*
X119225000Y-53835000D01*
X119225000Y-53962781D01*
G37*
G36*
X119225000Y-55283000D02*
G01*
X119105000Y-55283000D01*
X119105000Y-55115000D01*
X118577000Y-55115000D01*
X118577000Y-54979000D01*
X119105000Y-54979000D01*
X119105000Y-54811000D01*
X119225000Y-54811000D01*
X119225000Y-55283000D01*
G37*
G36*
X119225000Y-54763000D02*
G01*
X119105000Y-54763000D01*
X119105000Y-54467000D01*
X118969000Y-54467000D01*
X118969000Y-54707000D01*
X118841000Y-54707000D01*
X118841000Y-54467000D01*
X118577000Y-54467000D01*
X118577000Y-54339000D01*
X119225000Y-54339000D01*
X119225000Y-54763000D01*
G37*
G36*
X119225000Y-53723000D02*
G01*
X119105000Y-53723000D01*
X119105000Y-53427000D01*
X118969000Y-53427000D01*
X118969000Y-53667000D01*
X118849000Y-53667000D01*
X118849000Y-53427000D01*
X118697000Y-53427000D01*
X118697000Y-53723000D01*
X118577000Y-53723000D01*
X118577000Y-53291000D01*
X119225000Y-53291000D01*
X119225000Y-53723000D01*
G37*
G36*
X118367247Y-58868805D02*
G01*
X118365000Y-58966610D01*
X118075547Y-59122805D01*
X117786093Y-59279000D01*
X118077547Y-59281098D01*
X118369000Y-59283197D01*
X118369000Y-59443000D01*
X117505000Y-59443000D01*
X117505000Y-59254888D01*
X117793729Y-59098944D01*
X118082457Y-58943000D01*
X117793729Y-58940900D01*
X117505000Y-58938800D01*
X117505000Y-58771000D01*
X118369493Y-58771000D01*
X118367247Y-58868805D01*
G37*
G36*
X118375103Y-54061000D02*
G01*
X118373000Y-54343000D01*
X118291000Y-54345279D01*
X118209000Y-54347559D01*
X118209000Y-53955000D01*
X118033339Y-53955000D01*
X118031170Y-54113000D01*
X118029000Y-54271000D01*
X117947000Y-54273279D01*
X117865000Y-54275559D01*
X117865000Y-53955000D01*
X117665000Y-53955000D01*
X117665000Y-54347000D01*
X117505000Y-54347000D01*
X117505000Y-53779000D01*
X118377205Y-53779000D01*
X118375103Y-54061000D01*
G37*
G36*
X118367247Y-52852925D02*
G01*
X118365000Y-52950851D01*
X118119020Y-53058925D01*
X118060619Y-53084700D01*
X118007175Y-53108509D01*
X117960384Y-53129579D01*
X117921941Y-53147139D01*
X117893541Y-53160415D01*
X117876878Y-53168636D01*
X117873099Y-53171000D01*
X117880164Y-53175050D01*
X117900199Y-53184722D01*
X117931508Y-53199245D01*
X117972396Y-53217845D01*
X118021167Y-53239748D01*
X118076125Y-53264182D01*
X118119079Y-53283130D01*
X118365000Y-53391260D01*
X118367247Y-53489130D01*
X118369493Y-53587000D01*
X117505000Y-53587000D01*
X117505000Y-53419000D01*
X118069000Y-53418460D01*
X117645000Y-53236176D01*
X117645000Y-53105823D01*
X118069000Y-52923539D01*
X117787000Y-52923269D01*
X117505000Y-52923000D01*
X117505000Y-52755000D01*
X118369493Y-52755000D01*
X118367247Y-52852925D01*
G37*
G36*
X118369000Y-56202831D02*
G01*
X118019000Y-56204915D01*
X117669000Y-56207000D01*
X117666781Y-56325916D01*
X117666368Y-56381106D01*
X117667500Y-56420923D01*
X117670209Y-56445920D01*
X117673761Y-56455916D01*
X117678460Y-56458675D01*
X117688441Y-56460954D01*
X117705027Y-56462797D01*
X117729544Y-56464243D01*
X117763316Y-56465336D01*
X117807667Y-56466116D01*
X117863922Y-56466625D01*
X117933404Y-56466906D01*
X118017440Y-56466999D01*
X118025980Y-56467000D01*
X118369000Y-56467000D01*
X118369000Y-56643000D01*
X117619517Y-56643000D01*
X117584259Y-56624385D01*
X117557678Y-56605867D01*
X117532545Y-56581318D01*
X117525000Y-56571719D01*
X117501000Y-56537667D01*
X117499084Y-56348333D01*
X117498657Y-56283038D01*
X117498906Y-56231793D01*
X117499913Y-56192656D01*
X117501761Y-56163689D01*
X117504532Y-56142952D01*
X117508307Y-56128504D01*
X117508403Y-56128241D01*
X117530484Y-56087658D01*
X117564925Y-56055058D01*
X117589000Y-56040221D01*
X117596875Y-56036208D01*
X117605246Y-56032860D01*
X117615582Y-56030105D01*
X117629354Y-56027871D01*
X117648030Y-56026087D01*
X117673083Y-56024682D01*
X117705980Y-56023583D01*
X117748193Y-56022721D01*
X117801191Y-56022023D01*
X117866444Y-56021419D01*
X117945422Y-56020835D01*
X117995000Y-56020500D01*
X118369000Y-56018000D01*
X118369000Y-56202831D01*
G37*
G36*
X118697000Y-52699000D02*
G01*
X119225000Y-52699000D01*
X119224971Y-52889000D01*
X119224873Y-52949544D01*
X119224496Y-52996260D01*
X119223680Y-53031318D01*
X119222263Y-53056889D01*
X119220087Y-53075144D01*
X119216990Y-53088254D01*
X119212814Y-53098389D01*
X119209044Y-53105073D01*
X119190622Y-53127690D01*
X119167957Y-53146495D01*
X119167074Y-53147043D01*
X119158784Y-53151584D01*
X119149252Y-53155170D01*
X119136599Y-53157912D01*
X119118946Y-53159924D01*
X119094416Y-53161316D01*
X119061131Y-53162201D01*
X119017213Y-53162692D01*
X118960783Y-53162901D01*
X118901000Y-53162940D01*
X118832346Y-53162884D01*
X118777813Y-53162642D01*
X118735524Y-53162102D01*
X118703600Y-53161151D01*
X118680165Y-53159678D01*
X118663339Y-53157569D01*
X118651244Y-53154713D01*
X118642004Y-53150998D01*
X118634927Y-53147043D01*
X118612310Y-53128621D01*
X118593505Y-53105956D01*
X118592957Y-53105073D01*
X118587903Y-53095735D01*
X118584045Y-53084988D01*
X118581221Y-53070661D01*
X118579273Y-53050583D01*
X118578040Y-53022583D01*
X118577362Y-52984491D01*
X118577079Y-52934135D01*
X118577030Y-52889000D01*
X118577020Y-52827000D01*
X118697000Y-52827000D01*
X118697000Y-52915525D01*
X118697726Y-52953005D01*
X118699688Y-52985683D01*
X118702569Y-53009547D01*
X118705282Y-53019525D01*
X118708740Y-53024459D01*
X118714480Y-53028217D01*
X118724498Y-53030960D01*
X118740794Y-53032846D01*
X118765363Y-53034033D01*
X118800204Y-53034682D01*
X118847313Y-53034951D01*
X118899682Y-53035000D01*
X118965590Y-53034720D01*
X119016674Y-53033842D01*
X119054098Y-53032310D01*
X119079030Y-53030065D01*
X119092634Y-53027051D01*
X119095401Y-53025399D01*
X119100356Y-53011625D01*
X119103536Y-52982048D01*
X119104931Y-52936769D01*
X119105000Y-52921399D01*
X119105000Y-52827000D01*
X118697000Y-52827000D01*
X118577020Y-52827000D01*
X118577000Y-52699000D01*
X118697000Y-52699000D01*
G37*
G36*
X117985000Y-56819000D02*
G01*
X118369630Y-56819000D01*
X118365000Y-57337540D01*
X118340240Y-57368270D01*
X118321888Y-57389745D01*
X118304296Y-57406045D01*
X118284921Y-57417877D01*
X118261223Y-57425952D01*
X118230658Y-57430978D01*
X118190684Y-57433665D01*
X118138759Y-57434722D01*
X118101526Y-57434868D01*
X118047771Y-57434777D01*
X118007342Y-57434238D01*
X117977565Y-57433008D01*
X117955767Y-57430843D01*
X117939274Y-57427503D01*
X117925414Y-57422744D01*
X117914807Y-57417938D01*
X117889665Y-57401271D01*
X117863956Y-57377233D01*
X117842650Y-57351067D01*
X117831254Y-57329760D01*
X117823490Y-57330410D01*
X117803319Y-57336859D01*
X117772898Y-57348283D01*
X117734386Y-57363857D01*
X117689941Y-57382759D01*
X117672768Y-57390279D01*
X117626355Y-57410632D01*
X117584861Y-57428592D01*
X117550521Y-57443211D01*
X117525570Y-57453539D01*
X117512241Y-57458630D01*
X117510754Y-57459000D01*
X117508486Y-57451528D01*
X117506977Y-57431202D01*
X117506362Y-57401154D01*
X117506747Y-57365737D01*
X117509000Y-57272474D01*
X117825000Y-57135382D01*
X117825000Y-56995000D01*
X117985000Y-56995000D01*
X117985000Y-57111525D01*
X117985556Y-57155096D01*
X117987088Y-57193307D01*
X117989396Y-57222954D01*
X117992279Y-57240829D01*
X117993282Y-57243525D01*
X117998236Y-57250132D01*
X118006627Y-57254549D01*
X118021349Y-57257208D01*
X118045293Y-57258541D01*
X118081351Y-57258978D01*
X118097000Y-57259000D01*
X118137871Y-57258770D01*
X118165638Y-57257792D01*
X118183191Y-57255636D01*
X118193425Y-57251869D01*
X118199230Y-57246061D01*
X118200719Y-57243525D01*
X118203742Y-57230062D01*
X118206254Y-57203807D01*
X118208055Y-57167969D01*
X118208942Y-57125754D01*
X118209000Y-57111525D01*
X118209000Y-56995000D01*
X117985000Y-56995000D01*
X117825000Y-56995000D01*
X117505000Y-56995000D01*
X117505000Y-56819000D01*
X117985000Y-56819000D01*
G37*
G36*
X117519000Y-57900891D02*
G01*
X117529067Y-57903994D01*
X117552922Y-57911552D01*
X117589129Y-57923102D01*
X117636251Y-57938185D01*
X117692850Y-57956340D01*
X117757490Y-57977105D01*
X117828732Y-58000021D01*
X117871000Y-58013632D01*
X117905140Y-58024625D01*
X117951221Y-58039476D01*
X118369442Y-58174304D01*
X118367221Y-58278445D01*
X118365000Y-58382585D01*
X117937000Y-58520725D01*
X117857784Y-58546282D01*
X117783252Y-58570310D01*
X117714770Y-58592367D01*
X117653707Y-58612014D01*
X117601431Y-58628813D01*
X117559309Y-58642323D01*
X117528709Y-58652104D01*
X117510999Y-58657718D01*
X117507000Y-58658932D01*
X117506223Y-58651478D01*
X117505587Y-58631136D01*
X117505157Y-58601017D01*
X117505000Y-58564373D01*
X117505000Y-58469746D01*
X117696982Y-58415000D01*
X117696991Y-58275000D01*
X117865000Y-58275000D01*
X117865509Y-58310362D01*
X117866889Y-58338941D01*
X117868918Y-58357508D01*
X117871000Y-58363006D01*
X117881912Y-58360886D01*
X117904422Y-58355080D01*
X117935702Y-58346429D01*
X117972925Y-58335774D01*
X118013262Y-58323956D01*
X118053885Y-58311817D01*
X118091968Y-58300198D01*
X118124681Y-58289940D01*
X118149198Y-58281885D01*
X118162690Y-58276873D01*
X118164390Y-58275722D01*
X118156036Y-58272467D01*
X118135252Y-58265617D01*
X118104969Y-58256054D01*
X118068114Y-58244665D01*
X118027619Y-58232334D01*
X117986413Y-58219944D01*
X117947426Y-58208380D01*
X117913588Y-58198527D01*
X117887828Y-58191270D01*
X117873077Y-58187492D01*
X117871000Y-58187153D01*
X117868590Y-58194550D01*
X117866642Y-58214723D01*
X117865376Y-58244452D01*
X117865000Y-58275000D01*
X117696991Y-58275000D01*
X117697000Y-58133746D01*
X117601010Y-58106373D01*
X117505019Y-58079000D01*
X117505010Y-57988066D01*
X117505210Y-57948799D01*
X117506094Y-57922966D01*
X117508073Y-57908003D01*
X117511560Y-57901347D01*
X117516964Y-57900434D01*
X117519000Y-57900891D01*
G37*
G36*
X117983874Y-54499000D02*
G01*
X118369000Y-54499000D01*
X118368869Y-54749000D01*
X118368798Y-54818914D01*
X118368587Y-54874698D01*
X118368117Y-54918220D01*
X118367267Y-54951348D01*
X118365918Y-54975951D01*
X118363949Y-54993899D01*
X118361241Y-55007060D01*
X118357674Y-55017304D01*
X118353128Y-55026498D01*
X118350801Y-55030667D01*
X118332958Y-55054697D01*
X118308819Y-55078461D01*
X118298268Y-55086667D01*
X118263672Y-55111000D01*
X118115195Y-55113651D01*
X118059472Y-55114393D01*
X118017137Y-55114264D01*
X117985596Y-55113118D01*
X117962253Y-55110812D01*
X117944514Y-55107201D01*
X117933241Y-55103517D01*
X117896495Y-55083511D01*
X117864673Y-55055273D01*
X117842972Y-55023530D01*
X117841395Y-55019951D01*
X117831848Y-54996903D01*
X117671291Y-55067951D01*
X117624397Y-55088647D01*
X117582641Y-55106970D01*
X117548163Y-55121990D01*
X117523101Y-55132776D01*
X117509594Y-55138400D01*
X117507867Y-55139000D01*
X117506751Y-55131520D01*
X117505839Y-55111166D01*
X117505228Y-55081061D01*
X117505012Y-55045000D01*
X117505023Y-54951000D01*
X117663012Y-54882645D01*
X117821000Y-54814291D01*
X117823312Y-54744645D01*
X117825623Y-54675000D01*
X117983874Y-54675000D01*
X117986437Y-54799306D01*
X117987740Y-54848588D01*
X117989464Y-54884090D01*
X117991854Y-54908034D01*
X117995157Y-54922639D01*
X117999616Y-54930126D01*
X118001000Y-54931184D01*
X118013644Y-54934324D01*
X118038365Y-54936853D01*
X118071245Y-54938461D01*
X118098429Y-54938877D01*
X118139307Y-54938406D01*
X118167125Y-54936607D01*
X118184794Y-54933111D01*
X118195224Y-54927548D01*
X118196429Y-54926428D01*
X118201464Y-54918697D01*
X118205001Y-54905575D01*
X118207275Y-54884581D01*
X118208523Y-54853235D01*
X118208981Y-54809055D01*
X118209000Y-54794428D01*
X118209000Y-54675000D01*
X117983874Y-54675000D01*
X117825623Y-54675000D01*
X117505000Y-54675000D01*
X117505000Y-54499000D01*
X117983874Y-54499000D01*
G37*
G36*
X118016499Y-55263024D02*
G01*
X118081621Y-55263152D01*
X118133990Y-55263463D01*
X118175230Y-55264037D01*
X118206963Y-55264956D01*
X118230813Y-55266299D01*
X118248404Y-55268146D01*
X118261359Y-55270579D01*
X118271301Y-55273677D01*
X118279854Y-55277520D01*
X118285000Y-55280221D01*
X118325560Y-55308196D01*
X118353763Y-55342970D01*
X118364619Y-55364852D01*
X118368898Y-55378224D01*
X118372119Y-55396550D01*
X118374409Y-55421985D01*
X118375900Y-55456683D01*
X118376719Y-55502799D01*
X118376997Y-55562486D01*
X118377000Y-55571000D01*
X118376751Y-55635433D01*
X118375729Y-55686150D01*
X118373527Y-55725431D01*
X118369736Y-55755555D01*
X118363947Y-55778802D01*
X118355752Y-55797452D01*
X118344742Y-55813785D01*
X118330576Y-55830008D01*
X118306514Y-55851779D01*
X118279754Y-55866941D01*
X118246958Y-55876500D01*
X118204788Y-55881460D01*
X118155000Y-55882824D01*
X118065000Y-55883000D01*
X118065000Y-55707000D01*
X118128021Y-55707000D01*
X118165937Y-55705756D01*
X118189677Y-55701856D01*
X118200240Y-55695916D01*
X118204308Y-55683048D01*
X118206774Y-55655830D01*
X118207669Y-55613707D01*
X118207220Y-55565916D01*
X118205000Y-55447000D01*
X117669000Y-55447000D01*
X117666781Y-55565916D01*
X117666368Y-55621106D01*
X117667500Y-55660923D01*
X117670209Y-55685920D01*
X117673761Y-55695916D01*
X117686217Y-55702403D01*
X117711381Y-55706009D01*
X117745980Y-55707000D01*
X117809000Y-55707000D01*
X117809000Y-55883000D01*
X117717914Y-55883000D01*
X117677266Y-55882697D01*
X117648376Y-55881318D01*
X117627007Y-55878157D01*
X117608920Y-55872508D01*
X117589879Y-55863665D01*
X117584189Y-55860725D01*
X117555469Y-55843126D01*
X117535602Y-55822847D01*
X117519275Y-55795811D01*
X117497000Y-55753172D01*
X117497352Y-55576086D01*
X117497825Y-55509615D01*
X117499009Y-55457509D01*
X117500993Y-55418147D01*
X117503865Y-55389907D01*
X117507713Y-55371166D01*
X117508670Y-55368241D01*
X117530311Y-55327920D01*
X117564437Y-55295401D01*
X117589000Y-55280221D01*
X117597500Y-55275891D01*
X117606413Y-55272355D01*
X117617363Y-55269532D01*
X117631974Y-55267343D01*
X117651869Y-55265707D01*
X117678672Y-55264543D01*
X117714006Y-55263771D01*
X117759494Y-55263312D01*
X117816760Y-55263083D01*
X117887428Y-55263006D01*
X117937000Y-55263000D01*
X118016499Y-55263024D01*
G37*
G36*
X117785000Y-59779000D02*
G01*
X117740475Y-59779000D01*
X117712999Y-59779273D01*
X117693160Y-59781588D01*
X117679714Y-59788183D01*
X117671418Y-59801299D01*
X117667029Y-59823174D01*
X117665304Y-59856050D01*
X117665000Y-59902167D01*
X117665000Y-59915000D01*
X117665151Y-59961343D01*
X117665809Y-59994237D01*
X117667283Y-60016230D01*
X117669881Y-60029870D01*
X117673913Y-60037705D01*
X117679688Y-60042286D01*
X117680475Y-60042718D01*
X117698811Y-60047939D01*
X117726019Y-60050642D01*
X117756924Y-60050930D01*
X117786350Y-60048909D01*
X117809121Y-60044683D01*
X117818940Y-60039917D01*
X117824187Y-60028764D01*
X117831866Y-60004701D01*
X117841214Y-59970498D01*
X117851467Y-59928922D01*
X117860247Y-59890200D01*
X117871318Y-59842190D01*
X117882849Y-59796970D01*
X117893880Y-59757990D01*
X117903447Y-59728697D01*
X117909021Y-59715283D01*
X117932471Y-59678791D01*
X117961633Y-59647158D01*
X117992189Y-59624764D01*
X118003521Y-59619490D01*
X118022792Y-59615603D01*
X118054042Y-59612946D01*
X118093296Y-59611499D01*
X118136583Y-59611242D01*
X118179929Y-59612157D01*
X118219361Y-59614223D01*
X118250907Y-59617421D01*
X118267818Y-59620789D01*
X118301908Y-59637903D01*
X118333668Y-59665759D01*
X118358106Y-59699324D01*
X118367587Y-59721436D01*
X118371618Y-59743737D01*
X118374605Y-59778082D01*
X118376573Y-59821306D01*
X118377546Y-59870245D01*
X118377549Y-59921736D01*
X118376607Y-59972614D01*
X118374745Y-60019716D01*
X118371987Y-60059877D01*
X118368359Y-60089935D01*
X118364576Y-60105256D01*
X118340409Y-60147838D01*
X118307633Y-60178883D01*
X118264942Y-60199118D01*
X118211030Y-60209270D01*
X118175000Y-60210824D01*
X118105000Y-60211000D01*
X118105000Y-60043000D01*
X118141526Y-60043000D01*
X118166841Y-60042534D01*
X118184871Y-60039589D01*
X118196851Y-60031845D01*
X118204017Y-60016979D01*
X118207607Y-59992672D01*
X118208856Y-59956601D01*
X118209000Y-59916318D01*
X118208329Y-59863727D01*
X118206281Y-59826484D01*
X118202810Y-59803994D01*
X118199400Y-59796599D01*
X118186794Y-59791659D01*
X118163787Y-59788464D01*
X118135181Y-59787033D01*
X118105775Y-59787384D01*
X118080372Y-59789537D01*
X118063771Y-59793510D01*
X118060350Y-59796052D01*
X118056899Y-59806488D01*
X118050768Y-59829878D01*
X118042612Y-59863527D01*
X118033087Y-59904739D01*
X118024108Y-59945051D01*
X118009502Y-60008937D01*
X117996330Y-60059398D01*
X117983653Y-60098835D01*
X117970533Y-60129646D01*
X117956032Y-60154231D01*
X117939211Y-60174988D01*
X117930832Y-60183529D01*
X117911563Y-60199907D01*
X117890695Y-60211690D01*
X117865228Y-60219578D01*
X117832160Y-60224273D01*
X117788490Y-60226474D01*
X117745000Y-60226910D01*
X117690025Y-60226086D01*
X117647919Y-60223157D01*
X117615617Y-60217440D01*
X117590051Y-60208249D01*
X117568154Y-60194900D01*
X117555526Y-60184632D01*
X117537893Y-60168131D01*
X117524219Y-60151852D01*
X117514015Y-60133538D01*
X117506792Y-60110935D01*
X117502063Y-60081787D01*
X117499339Y-60043840D01*
X117498131Y-59994837D01*
X117497951Y-59932525D01*
X117497993Y-59919000D01*
X117498620Y-59859471D01*
X117499978Y-59807158D01*
X117501965Y-59764253D01*
X117504480Y-59732947D01*
X117507422Y-59715434D01*
X117507440Y-59715377D01*
X117524226Y-59683733D01*
X117551496Y-59653722D01*
X117584082Y-59630295D01*
X117606121Y-59620807D01*
X117629322Y-59616310D01*
X117662513Y-59612898D01*
X117699695Y-59611128D01*
X117711929Y-59611000D01*
X117785000Y-59611000D01*
X117785000Y-59779000D01*
G37*
G36*
X124940322Y-52755905D02*
G01*
X124962076Y-52765313D01*
X124963464Y-52766606D01*
X124976619Y-52785982D01*
X124975726Y-52804938D01*
X124960253Y-52824725D01*
X124929669Y-52846593D01*
X124929366Y-52846778D01*
X124891602Y-52873222D01*
X124856621Y-52905790D01*
X124822027Y-52947144D01*
X124785424Y-52999948D01*
X124770882Y-53022937D01*
X124702491Y-53145646D01*
X124640664Y-53282503D01*
X124585618Y-53432968D01*
X124537572Y-53596500D01*
X124533185Y-53613459D01*
X124517505Y-53677766D01*
X124503203Y-53743167D01*
X124490066Y-53811255D01*
X124477882Y-53883621D01*
X124466440Y-53961858D01*
X124455527Y-54047558D01*
X124444931Y-54142314D01*
X124434442Y-54247717D01*
X124423846Y-54365361D01*
X124412931Y-54496837D01*
X124408951Y-54547000D01*
X124399556Y-54665305D01*
X124391027Y-54769363D01*
X124383168Y-54860890D01*
X124375781Y-54941604D01*
X124368671Y-55013221D01*
X124361641Y-55077459D01*
X124354494Y-55136035D01*
X124347034Y-55190666D01*
X124339064Y-55243068D01*
X124330388Y-55294960D01*
X124320810Y-55348057D01*
X124311893Y-55395000D01*
X124270231Y-55587658D01*
X124220460Y-55777986D01*
X124163274Y-55964222D01*
X124099370Y-56144603D01*
X124029443Y-56317367D01*
X123954188Y-56480752D01*
X123874300Y-56632997D01*
X123790477Y-56772338D01*
X123737174Y-56851000D01*
X123630292Y-56992461D01*
X123521166Y-57119012D01*
X123408611Y-57231706D01*
X123291443Y-57331596D01*
X123168479Y-57419737D01*
X123038533Y-57497182D01*
X122973000Y-57531029D01*
X122859831Y-57582380D01*
X122746206Y-57624680D01*
X122628175Y-57659120D01*
X122501786Y-57686887D01*
X122397000Y-57704363D01*
X122344554Y-57710197D01*
X122279289Y-57714432D01*
X122204307Y-57717052D01*
X122122711Y-57718043D01*
X122037604Y-57717387D01*
X121952088Y-57715069D01*
X121869265Y-57711075D01*
X121815061Y-57707312D01*
X121689121Y-57697300D01*
X121615061Y-57725996D01*
X121582142Y-57739550D01*
X121539296Y-57758357D01*
X121490868Y-57780447D01*
X121441209Y-57803851D01*
X121412148Y-57817941D01*
X121248731Y-57902636D01*
X121093986Y-57992410D01*
X120945298Y-58089101D01*
X120800052Y-58194548D01*
X120655635Y-58310589D01*
X120509432Y-58439065D01*
X120447905Y-58496195D01*
X120376598Y-58564051D01*
X120316012Y-58623739D01*
X120264729Y-58677512D01*
X120221332Y-58727625D01*
X120184402Y-58776332D01*
X120152521Y-58825887D01*
X120124272Y-58878544D01*
X120098236Y-58936557D01*
X120072995Y-59002181D01*
X120047131Y-59077670D01*
X120019227Y-59165278D01*
X120011651Y-59189710D01*
X119985361Y-59273931D01*
X119962470Y-59345069D01*
X119942105Y-59405462D01*
X119923390Y-59457446D01*
X119905450Y-59503357D01*
X119887411Y-59545532D01*
X119868399Y-59586308D01*
X119847580Y-59627938D01*
X119818085Y-59681061D01*
X119783369Y-59736677D01*
X119745795Y-59791510D01*
X119707725Y-59842286D01*
X119671523Y-59885729D01*
X119639551Y-59918562D01*
X119635030Y-59922574D01*
X119606513Y-59944280D01*
X119571950Y-59966539D01*
X119546483Y-59980575D01*
X119486539Y-60001953D01*
X119420688Y-60010705D01*
X119352753Y-60006905D01*
X119286556Y-59990631D01*
X119248706Y-59974634D01*
X119226634Y-59964443D01*
X119209768Y-59960604D01*
X119190789Y-59962482D01*
X119168963Y-59967729D01*
X119104911Y-59978780D01*
X119048071Y-59977166D01*
X118999415Y-59963138D01*
X118959914Y-59936944D01*
X118935841Y-59907847D01*
X118925908Y-59893292D01*
X118915121Y-59881262D01*
X118900854Y-59870046D01*
X118880481Y-59857933D01*
X118851374Y-59843213D01*
X118810909Y-59824176D01*
X118798749Y-59818559D01*
X118685000Y-59766119D01*
X118682802Y-59646391D01*
X118680604Y-59526664D01*
X118873000Y-59431532D01*
X118873000Y-59118467D01*
X118793091Y-59078956D01*
X119177860Y-59078956D01*
X119177914Y-59141176D01*
X119178209Y-59206649D01*
X119178731Y-59273252D01*
X119179470Y-59338862D01*
X119180412Y-59401353D01*
X119181546Y-59458603D01*
X119182859Y-59508487D01*
X119184340Y-59548882D01*
X119185509Y-59571000D01*
X119190699Y-59639712D01*
X119196754Y-59694649D01*
X119204115Y-59738027D01*
X119213224Y-59772065D01*
X119224522Y-59798982D01*
X119234082Y-59814938D01*
X119266402Y-59848979D01*
X119309428Y-59875253D01*
X119359071Y-59892086D01*
X119411243Y-59897810D01*
X119433453Y-59896437D01*
X119474490Y-59887756D01*
X119512710Y-59870900D01*
X119550173Y-59844323D01*
X119588935Y-59806481D01*
X119631055Y-59755829D01*
X119644676Y-59737874D01*
X119679788Y-59688469D01*
X119711869Y-59637957D01*
X119741755Y-59584435D01*
X119770279Y-59526002D01*
X119798276Y-59460756D01*
X119826580Y-59386794D01*
X119856025Y-59302215D01*
X119887446Y-59205118D01*
X119909118Y-59135068D01*
X119938936Y-59040571D01*
X119967717Y-58957636D01*
X119996878Y-58884082D01*
X120027834Y-58817726D01*
X120061999Y-58756384D01*
X120100788Y-58697875D01*
X120145616Y-58640015D01*
X120197898Y-58580622D01*
X120259050Y-58517513D01*
X120330486Y-58448505D01*
X120390265Y-58392852D01*
X120526790Y-58270732D01*
X120658297Y-58160799D01*
X120787432Y-58061197D01*
X120916840Y-57970067D01*
X121049165Y-57885550D01*
X121187053Y-57805789D01*
X121333148Y-57728926D01*
X121341000Y-57724983D01*
X121461000Y-57664857D01*
X121457005Y-57663833D01*
X121803167Y-57663833D01*
X121813874Y-57665743D01*
X121818500Y-57664464D01*
X121821531Y-57660912D01*
X121813667Y-57659631D01*
X121803291Y-57661102D01*
X121803167Y-57663833D01*
X121457005Y-57663833D01*
X121419497Y-57654220D01*
X121314213Y-57619796D01*
X121216778Y-57572212D01*
X121125836Y-57510679D01*
X121040030Y-57434405D01*
X121037000Y-57431355D01*
X120973940Y-57361876D01*
X120923316Y-57292505D01*
X120882227Y-57218790D01*
X120851813Y-57147220D01*
X120829326Y-57082024D01*
X120813797Y-57022642D01*
X120804152Y-56963137D01*
X120799318Y-56897569D01*
X120798263Y-56851000D01*
X121020243Y-56851000D01*
X121025890Y-56909000D01*
X121030299Y-56945175D01*
X121036152Y-56981567D01*
X121041429Y-57007000D01*
X121069212Y-57087963D01*
X121111319Y-57166745D01*
X121166087Y-57240611D01*
X121214411Y-57291086D01*
X121289474Y-57351344D01*
X121370914Y-57397968D01*
X121457123Y-57430230D01*
X121546493Y-57447402D01*
X121563000Y-57448849D01*
X121625000Y-57453286D01*
X121625000Y-57363000D01*
X121591000Y-57362881D01*
X121541060Y-57357912D01*
X121484004Y-57344273D01*
X121425119Y-57323407D01*
X121393000Y-57308947D01*
X121339484Y-57276481D01*
X121285648Y-57232726D01*
X121235583Y-57181772D01*
X121193380Y-57127710D01*
X121167053Y-57083000D01*
X121142735Y-57025420D01*
X121124831Y-56966680D01*
X121114780Y-56912065D01*
X121113119Y-56885000D01*
X121113000Y-56851000D01*
X121020243Y-56851000D01*
X120798263Y-56851000D01*
X120798095Y-56820003D01*
X120798389Y-56792654D01*
X120799507Y-56767175D01*
X120801808Y-56741789D01*
X120805651Y-56714720D01*
X120811396Y-56684189D01*
X120819402Y-56648421D01*
X120830030Y-56605637D01*
X120843639Y-56554061D01*
X120860588Y-56491916D01*
X120881238Y-56417425D01*
X120898640Y-56355000D01*
X120924676Y-56266177D01*
X120927288Y-56258018D01*
X121041190Y-56258018D01*
X121046373Y-56254757D01*
X121053516Y-56248713D01*
X121625000Y-56248713D01*
X121625000Y-56336702D01*
X121679507Y-56341768D01*
X121758997Y-56356849D01*
X121813667Y-56377451D01*
X121836662Y-56386117D01*
X121909845Y-56427783D01*
X121975887Y-56480055D01*
X122032131Y-56541143D01*
X122075577Y-56608596D01*
X122095559Y-56652755D01*
X122113151Y-56702051D01*
X122126856Y-56751330D01*
X122135178Y-56795436D01*
X122137000Y-56820279D01*
X122137000Y-56851000D01*
X122227372Y-56851000D01*
X122222336Y-56789000D01*
X122207105Y-56697619D01*
X122177329Y-56610603D01*
X122134202Y-56529442D01*
X122078919Y-56455624D01*
X122012674Y-56390639D01*
X121936661Y-56335976D01*
X121852075Y-56293125D01*
X121813000Y-56278580D01*
X121769935Y-56266623D01*
X121722990Y-56257319D01*
X121687000Y-56252974D01*
X121625000Y-56248713D01*
X121053516Y-56248713D01*
X121060011Y-56243218D01*
X121075093Y-56229612D01*
X121156991Y-56164692D01*
X121248638Y-56110985D01*
X121347644Y-56069281D01*
X121451620Y-56040367D01*
X121558178Y-56025034D01*
X121625000Y-56024429D01*
X121664928Y-56024068D01*
X121691357Y-56026164D01*
X121776370Y-56037678D01*
X121852439Y-56055480D01*
X121925955Y-56081298D01*
X121973981Y-56102524D01*
X122076170Y-56158802D01*
X122166276Y-56225474D01*
X122244736Y-56302976D01*
X122311990Y-56391742D01*
X122368476Y-56492208D01*
X122369814Y-56495000D01*
X122412797Y-56602617D01*
X122440391Y-56712055D01*
X122452799Y-56822071D01*
X122450227Y-56931418D01*
X122432878Y-57038851D01*
X122400957Y-57143125D01*
X122354667Y-57242995D01*
X122294212Y-57337216D01*
X122219797Y-57424542D01*
X122217000Y-57427398D01*
X122146214Y-57493735D01*
X122075699Y-57547445D01*
X122001217Y-57591252D01*
X121918532Y-57627882D01*
X121887469Y-57639301D01*
X121859085Y-57649411D01*
X121844810Y-57655120D01*
X121843614Y-57657215D01*
X121854473Y-57656483D01*
X121867076Y-57654921D01*
X121925418Y-57643648D01*
X121992520Y-57624477D01*
X122064244Y-57598977D01*
X122136453Y-57568716D01*
X122205007Y-57535263D01*
X122250878Y-57509420D01*
X122331363Y-57456731D01*
X122414306Y-57394968D01*
X122496483Y-57326979D01*
X122574671Y-57255614D01*
X122645647Y-57183722D01*
X122706187Y-57114150D01*
X122724055Y-57091220D01*
X122752911Y-57051958D01*
X122781411Y-57011047D01*
X122810328Y-56967146D01*
X122840436Y-56918914D01*
X122872508Y-56865011D01*
X122907318Y-56804095D01*
X122945639Y-56734825D01*
X122988245Y-56655861D01*
X123035909Y-56565861D01*
X123089404Y-56463484D01*
X123118703Y-56407000D01*
X123168307Y-56311843D01*
X123212245Y-56229335D01*
X123251731Y-56157678D01*
X123287979Y-56095073D01*
X123322200Y-56039722D01*
X123355610Y-55989829D01*
X123389420Y-55943595D01*
X123424846Y-55899223D01*
X123463099Y-55854915D01*
X123505393Y-55808874D01*
X123552942Y-55759300D01*
X123562419Y-55749591D01*
X123607596Y-55702854D01*
X123641944Y-55665838D01*
X123666297Y-55637312D01*
X123681491Y-55616045D01*
X123688360Y-55600806D01*
X123687741Y-55590366D01*
X123680468Y-55583493D01*
X123676400Y-55581662D01*
X123658099Y-55581170D01*
X123628662Y-55588155D01*
X123590493Y-55601578D01*
X123546002Y-55620398D01*
X123497593Y-55643576D01*
X123447676Y-55670071D01*
X123398656Y-55698844D01*
X123384333Y-55707861D01*
X123353854Y-55727948D01*
X123324394Y-55748735D01*
X123294349Y-55771596D01*
X123262114Y-55797908D01*
X123226087Y-55829046D01*
X123184664Y-55866387D01*
X123136240Y-55911304D01*
X123079212Y-55965176D01*
X123033193Y-56009065D01*
X122959407Y-56078780D01*
X122894988Y-56137595D01*
X122838563Y-56186472D01*
X122788760Y-56226371D01*
X122744207Y-56258255D01*
X122703530Y-56283082D01*
X122665356Y-56301815D01*
X122628314Y-56315413D01*
X122591031Y-56324839D01*
X122578783Y-56327137D01*
X122504689Y-56332977D01*
X122432032Y-56325461D01*
X122363008Y-56305628D01*
X122299812Y-56274519D01*
X122244641Y-56233173D01*
X122199690Y-56182630D01*
X122171673Y-56134347D01*
X122150639Y-56070114D01*
X122141889Y-55998233D01*
X122144820Y-55920542D01*
X122158831Y-55838877D01*
X122183321Y-55755078D01*
X122217688Y-55670982D01*
X122261330Y-55588427D01*
X122313646Y-55509250D01*
X122374034Y-55435289D01*
X122413977Y-55394098D01*
X122446445Y-55362822D01*
X122479702Y-55330848D01*
X122509283Y-55302468D01*
X122526431Y-55286061D01*
X122552015Y-55259230D01*
X122563952Y-55239988D01*
X122562170Y-55227458D01*
X122546600Y-55220762D01*
X122521040Y-55219000D01*
X122486220Y-55222675D01*
X122439553Y-55233111D01*
X122383247Y-55249422D01*
X122319509Y-55270725D01*
X122250547Y-55296135D01*
X122178570Y-55324767D01*
X122105784Y-55355736D01*
X122034399Y-55388158D01*
X121966621Y-55421149D01*
X121904659Y-55453822D01*
X121850721Y-55485295D01*
X121840796Y-55491556D01*
X121774647Y-55537191D01*
X121700743Y-55594016D01*
X121620911Y-55660409D01*
X121536979Y-55734746D01*
X121450775Y-55815404D01*
X121364125Y-55900762D01*
X121278858Y-55989195D01*
X121271196Y-55997376D01*
X121234400Y-56037088D01*
X121196802Y-56078244D01*
X121159970Y-56119065D01*
X121125474Y-56157775D01*
X121094882Y-56192595D01*
X121069763Y-56221748D01*
X121051686Y-56243455D01*
X121042221Y-56255938D01*
X121041190Y-56258018D01*
X120927288Y-56258018D01*
X120954666Y-56172513D01*
X120989220Y-56072323D01*
X121020243Y-55987676D01*
X121028949Y-55963922D01*
X121074461Y-55845625D01*
X121126367Y-55715747D01*
X121158590Y-55637000D01*
X121156212Y-55629108D01*
X121141351Y-55627440D01*
X121116139Y-55631714D01*
X121082709Y-55641646D01*
X121059824Y-55650113D01*
X121002164Y-55676789D01*
X120944241Y-55711813D01*
X120884643Y-55756340D01*
X120821957Y-55811528D01*
X120754772Y-55878533D01*
X120681675Y-55958509D01*
X120677726Y-55963000D01*
X120615890Y-56034776D01*
X120556632Y-56106173D01*
X120501135Y-56175608D01*
X120450583Y-56241500D01*
X120406156Y-56302267D01*
X120369039Y-56356328D01*
X120340414Y-56402101D01*
X120321464Y-56438005D01*
X120319997Y-56441342D01*
X120310357Y-56466995D01*
X120306255Y-56489516D01*
X120307870Y-56513673D01*
X120315381Y-56544231D01*
X120325000Y-56574242D01*
X120341189Y-56639779D01*
X120343581Y-56701130D01*
X120332281Y-56762031D01*
X120330388Y-56768287D01*
X120325178Y-56781936D01*
X120316014Y-56801848D01*
X120302513Y-56828707D01*
X120284293Y-56863197D01*
X120260968Y-56906004D01*
X120232156Y-56957811D01*
X120197474Y-57019304D01*
X120156537Y-57091166D01*
X120108963Y-57174082D01*
X120054367Y-57268736D01*
X119992367Y-57375814D01*
X119925485Y-57491000D01*
X119882350Y-57564007D01*
X119844990Y-57624032D01*
X119812057Y-57672417D01*
X119782202Y-57710506D01*
X119754075Y-57739642D01*
X119726328Y-57761168D01*
X119697613Y-57776428D01*
X119666579Y-57786766D01*
X119631880Y-57793524D01*
X119620158Y-57795104D01*
X119589047Y-57800190D01*
X119563481Y-57808149D01*
X119541767Y-57820850D01*
X119522212Y-57840163D01*
X119503124Y-57867956D01*
X119482810Y-57906098D01*
X119459578Y-57956460D01*
X119446130Y-57987291D01*
X119425771Y-58033152D01*
X119400999Y-58086921D01*
X119374764Y-58142297D01*
X119350016Y-58192982D01*
X119346999Y-58199022D01*
X119293552Y-58315148D01*
X119252419Y-58426827D01*
X119222441Y-58538240D01*
X119202458Y-58653566D01*
X119192648Y-58755000D01*
X119189616Y-58798635D01*
X119186712Y-58837150D01*
X119184186Y-58867470D01*
X119182285Y-58886523D01*
X119181618Y-58891000D01*
X119180288Y-58905092D01*
X119179260Y-58933058D01*
X119178521Y-58972774D01*
X119178058Y-59022114D01*
X119177860Y-59078956D01*
X118793091Y-59078956D01*
X118777000Y-59071000D01*
X118681000Y-59023532D01*
X118681000Y-58764134D01*
X118870564Y-58651960D01*
X118875536Y-58545480D01*
X118879526Y-58479746D01*
X118885440Y-58425527D01*
X118894422Y-58378357D01*
X118907616Y-58333767D01*
X118926166Y-58287293D01*
X118951214Y-58234468D01*
X118959243Y-58218530D01*
X119014368Y-58110061D01*
X118935684Y-58015820D01*
X118908461Y-57982756D01*
X118885320Y-57953772D01*
X118868041Y-57931169D01*
X118858402Y-57917245D01*
X118857000Y-57914175D01*
X118860444Y-57903678D01*
X118869733Y-57882733D01*
X118883303Y-57854382D01*
X118899590Y-57821670D01*
X118917032Y-57787640D01*
X118934064Y-57755335D01*
X118949124Y-57727799D01*
X118960647Y-57708076D01*
X118967070Y-57699208D01*
X118967545Y-57699000D01*
X118977375Y-57700051D01*
X119000061Y-57702943D01*
X119032616Y-57707280D01*
X119072052Y-57712670D01*
X119089488Y-57715088D01*
X119134568Y-57721258D01*
X119166432Y-57725154D01*
X119187696Y-57726817D01*
X119200975Y-57726290D01*
X119208884Y-57723613D01*
X119214040Y-57718829D01*
X119215369Y-57717088D01*
X119222265Y-57705701D01*
X119235123Y-57682629D01*
X119252569Y-57650406D01*
X119273231Y-57611567D01*
X119294508Y-57571000D01*
X119327085Y-57509112D01*
X119516041Y-57509112D01*
X119517169Y-57540057D01*
X119525825Y-57568130D01*
X119533290Y-57579319D01*
X119558749Y-57597759D01*
X119589850Y-57606842D01*
X119619868Y-57604825D01*
X119624893Y-57603044D01*
X119645581Y-57591767D01*
X119659667Y-57580268D01*
X119665718Y-57571089D01*
X119679005Y-57549295D01*
X119698792Y-57516144D01*
X119724339Y-57472893D01*
X119754910Y-57420800D01*
X119789766Y-57361120D01*
X119828170Y-57295111D01*
X119869384Y-57224029D01*
X119909284Y-57155000D01*
X119961253Y-57064934D01*
X120005714Y-56987645D01*
X120043136Y-56922038D01*
X120073988Y-56867019D01*
X120098738Y-56821496D01*
X120117856Y-56784375D01*
X120131811Y-56754562D01*
X120141073Y-56730963D01*
X120146109Y-56712486D01*
X120147390Y-56698036D01*
X120145384Y-56686521D01*
X120140561Y-56676846D01*
X120133389Y-56667918D01*
X120124339Y-56658643D01*
X120122847Y-56657153D01*
X120093187Y-56637116D01*
X120060945Y-56631492D01*
X120029533Y-56640320D01*
X120009087Y-56655909D01*
X120002189Y-56665732D01*
X119988164Y-56687939D01*
X119967878Y-56721053D01*
X119942201Y-56763599D01*
X119911998Y-56814099D01*
X119878137Y-56871077D01*
X119841485Y-56933058D01*
X119802910Y-56998564D01*
X119763277Y-57066121D01*
X119723456Y-57134250D01*
X119684312Y-57201477D01*
X119646713Y-57266324D01*
X119611526Y-57327316D01*
X119579619Y-57382976D01*
X119551858Y-57431828D01*
X119529111Y-57472396D01*
X119523245Y-57483000D01*
X119516041Y-57509112D01*
X119327085Y-57509112D01*
X119382348Y-57404128D01*
X119475934Y-57229521D01*
X119572907Y-57051473D01*
X119670905Y-56874278D01*
X119767569Y-56702230D01*
X119860539Y-56539623D01*
X119878710Y-56508219D01*
X119977741Y-56337438D01*
X119945480Y-56296219D01*
X119921520Y-56265678D01*
X119895111Y-56232122D01*
X119880583Y-56213713D01*
X119847948Y-56172427D01*
X119937269Y-56029713D01*
X119963943Y-55987157D01*
X119987678Y-55949407D01*
X120007194Y-55918493D01*
X120021206Y-55896445D01*
X120028433Y-55885294D01*
X120029101Y-55884360D01*
X120037431Y-55884851D01*
X120058366Y-55888097D01*
X120060945Y-55888560D01*
X120088851Y-55893574D01*
X120125832Y-55900760D01*
X120130228Y-55901645D01*
X120167985Y-55908986D01*
X120199832Y-55914637D01*
X120222628Y-55918078D01*
X120233230Y-55918791D01*
X120233502Y-55918689D01*
X120239452Y-55911077D01*
X120251737Y-55892882D01*
X120268333Y-55867159D01*
X120280514Y-55847781D01*
X120305427Y-55809978D01*
X120334300Y-55769489D01*
X120361936Y-55733526D01*
X120369116Y-55724807D01*
X120415366Y-55669862D01*
X120378910Y-55540244D01*
X120365585Y-55492299D01*
X120356418Y-55457396D01*
X120351017Y-55433235D01*
X120348989Y-55417519D01*
X120349944Y-55407949D01*
X120353489Y-55402228D01*
X120355134Y-55400813D01*
X120365542Y-55392514D01*
X120385868Y-55376112D01*
X120413630Y-55353617D01*
X120446345Y-55327038D01*
X120464699Y-55312099D01*
X120561585Y-55233199D01*
X120674344Y-55300745D01*
X120787102Y-55368291D01*
X120832051Y-55350295D01*
X120889073Y-55332040D01*
X120942231Y-55325638D01*
X120997592Y-55330395D01*
X121000886Y-55330979D01*
X121056663Y-55345519D01*
X121103924Y-55368729D01*
X121141351Y-55397810D01*
X121149074Y-55403811D01*
X121152137Y-55406624D01*
X121181059Y-55431511D01*
X121205421Y-55448824D01*
X121222922Y-55457100D01*
X121230347Y-55456320D01*
X121234841Y-55448003D01*
X121244619Y-55427679D01*
X121258460Y-55397959D01*
X121275142Y-55361452D01*
X121284988Y-55339641D01*
X121352076Y-55197073D01*
X121420776Y-55065181D01*
X121492834Y-54941474D01*
X121569996Y-54823463D01*
X121654008Y-54708657D01*
X121746617Y-54594565D01*
X121849567Y-54478697D01*
X121964605Y-54358563D01*
X121992417Y-54330607D01*
X122120117Y-54207136D01*
X122243995Y-54096091D01*
X122366859Y-53995340D01*
X122491517Y-53902746D01*
X122521040Y-53882974D01*
X122620777Y-53816178D01*
X122757448Y-53733499D01*
X122837000Y-53688798D01*
X122894593Y-53658616D01*
X122940735Y-53637687D01*
X122976715Y-53625581D01*
X123003821Y-53621870D01*
X123023341Y-53626125D01*
X123024151Y-53626545D01*
X123035467Y-53635973D01*
X123039850Y-53649781D01*
X123036804Y-53669723D01*
X123025836Y-53697553D01*
X123006451Y-53735026D01*
X122981341Y-53778547D01*
X122916491Y-53896183D01*
X122864891Y-54008914D01*
X122825561Y-54119150D01*
X122797523Y-54229307D01*
X122796502Y-54234348D01*
X122788060Y-54297489D01*
X122785451Y-54368878D01*
X122788429Y-54442715D01*
X122796749Y-54513200D01*
X122810168Y-54574531D01*
X122810989Y-54577323D01*
X122840122Y-54650068D01*
X122880583Y-54711979D01*
X122931778Y-54762434D01*
X122993111Y-54800811D01*
X123043966Y-54820850D01*
X123094762Y-54832106D01*
X123154079Y-54838125D01*
X123216049Y-54838843D01*
X123274803Y-54834193D01*
X123324471Y-54824112D01*
X123325000Y-54823954D01*
X123394448Y-54797662D01*
X123461715Y-54760735D01*
X123527501Y-54712449D01*
X123592507Y-54652077D01*
X123657435Y-54578896D01*
X123722985Y-54492179D01*
X123789858Y-54391203D01*
X123858755Y-54275241D01*
X123863415Y-54267000D01*
X123878314Y-54239411D01*
X123899074Y-54199260D01*
X123924748Y-54148459D01*
X123954387Y-54088925D01*
X123987045Y-54022572D01*
X124021774Y-53951315D01*
X124057625Y-53877070D01*
X124093057Y-53803000D01*
X124142433Y-53699412D01*
X124185715Y-53608999D01*
X124223587Y-53530440D01*
X124256735Y-53462417D01*
X124285841Y-53403610D01*
X124311592Y-53352700D01*
X124334673Y-53308369D01*
X124355766Y-53269296D01*
X124375559Y-53234163D01*
X124394734Y-53201651D01*
X124413977Y-53170440D01*
X124433973Y-53139212D01*
X124451288Y-53112853D01*
X124503096Y-53037661D01*
X124550972Y-52975172D01*
X124597061Y-52923287D01*
X124643508Y-52879909D01*
X124692458Y-52842939D01*
X124746055Y-52810279D01*
X124777401Y-52793839D01*
X124823778Y-52773860D01*
X124868303Y-52760598D01*
X124908108Y-52754473D01*
X124940322Y-52755905D01*
G37*
%TO.C,R6*%
X143524500Y-74651776D02*
X143524500Y-75161224D01*
X142479500Y-74651776D02*
X142479500Y-75161224D01*
%TO.C,C1*%
X120149267Y-79845000D02*
X119856733Y-79845000D01*
X120149267Y-78825000D02*
X119856733Y-78825000D01*
%TO.C,D1*%
X142267000Y-91576000D02*
X143737000Y-91576000D01*
X143737000Y-91576000D02*
X143737000Y-89116000D01*
X142267000Y-89116000D02*
X142267000Y-91576000D01*
%TO.C,JP2*%
X121592000Y-84185000D02*
G75*
G03*
X122292000Y-83485000I0J700000D01*
G01*
X122292000Y-82885000D02*
G75*
G03*
X121592000Y-82185000I-700000J0D01*
G01*
X119492000Y-83485000D02*
G75*
G03*
X120192000Y-84185000I699999J-1D01*
G01*
X120192000Y-82185000D02*
G75*
G03*
X119492000Y-82885000I-1J-699999D01*
G01*
X122292000Y-82885000D02*
X122292000Y-83485000D01*
X121592000Y-84185000D02*
X120192000Y-84185000D01*
X120192000Y-82185000D02*
X121592000Y-82185000D01*
X119492000Y-83485000D02*
X119492000Y-82885000D01*
%TO.C,D2*%
X142267000Y-101355000D02*
X143737000Y-101355000D01*
X143737000Y-101355000D02*
X143737000Y-98895000D01*
X142267000Y-98895000D02*
X142267000Y-101355000D01*
%TO.C,R2*%
X143524500Y-95884276D02*
X143524500Y-96393724D01*
X142479500Y-95884276D02*
X142479500Y-96393724D01*
%TO.C,D3*%
X142267000Y-80122500D02*
X143737000Y-80122500D01*
X143737000Y-80122500D02*
X143737000Y-77662500D01*
X142267000Y-77662500D02*
X142267000Y-80122500D01*
%TO.C,TP3*%
X117921000Y-69977000D02*
G75*
G03*
X117921000Y-69977000I-700000J0D01*
G01*
%TO.C,TP2*%
X117921000Y-72517000D02*
G75*
G03*
X117921000Y-72517000I-700000J0D01*
G01*
%TO.C,JP1*%
X120495000Y-63711000D02*
X120495000Y-66511000D01*
X118495000Y-63711000D02*
X120495000Y-63711000D01*
X120495000Y-66511000D02*
X118495000Y-66511000D01*
X118495000Y-66511000D02*
X118495000Y-63711000D01*
%TO.C,TP1*%
X117921000Y-75057000D02*
G75*
G03*
X117921000Y-75057000I-700000J0D01*
G01*
%TD*%
M02*
