%TF.GenerationSoftware,KiCad,Pcbnew,7.0.9*%
%TF.CreationDate,2024-04-13T12:05:33+02:00*%
%TF.ProjectId,MotorDriverCarrier-rounded,4d6f746f-7244-4726-9976-657243617272,rev?*%
%TF.SameCoordinates,Original*%
%TF.FileFunction,Drillmap*%
%TF.FilePolarity,Positive*%
%FSLAX45Y45*%
G04 Gerber Fmt 4.5, Leading zero omitted, Abs format (unit mm)*
G04 Created by KiCad (PCBNEW 7.0.9) date 2024-04-13 12:05:33*
%MOMM*%
%LPD*%
G01*
G04 APERTURE LIST*
%ADD10C,0.250000*%
%ADD11C,0.100000*%
%ADD12C,0.200000*%
%ADD13C,0.320000*%
G04 APERTURE END LIST*
D10*
X14070000Y-10320000D02*
G75*
G03*
X14095000Y-10226699I0J50000D01*
G01*
X14095001Y-6273304D02*
G75*
G03*
X14070000Y-6316602I24989J-43296D01*
G01*
D11*
X11555000Y-10120000D02*
X11544000Y-9813700D01*
D10*
X14120550Y-6806000D02*
G75*
G03*
X14070550Y-6756000I-50000J0D01*
G01*
X11355000Y-10320000D02*
X11055000Y-10320000D01*
X14070550Y-8500000D02*
G75*
G03*
X14120550Y-8450000I0J50000D01*
G01*
X14069999Y-10183398D02*
G75*
G03*
X14095000Y-10226699I50011J8D01*
G01*
X12255001Y-6316602D02*
G75*
G03*
X12230000Y-6273301I-50011J-8D01*
G01*
X14070000Y-8020000D02*
X14070000Y-7228000D01*
X14520000Y-5380000D02*
G75*
G03*
X14320000Y-5180000I-200000J0D01*
G01*
X14120550Y-8070000D02*
G75*
G03*
X14070550Y-8020000I-50000J0D01*
G01*
X12255000Y-10320000D02*
X12753305Y-10320000D01*
X14120550Y-6806000D02*
X14120550Y-7178000D01*
X11555000Y-6080000D02*
G75*
G03*
X11355000Y-5880000I-200000J0D01*
G01*
X14070000Y-6756000D02*
X14070550Y-6756000D01*
X12255000Y-6180000D02*
G75*
G03*
X12230000Y-6273301I0J-50000D01*
G01*
X12255000Y-6180000D02*
X14070000Y-6180000D01*
X13494504Y-10285181D02*
X13457800Y-10170000D01*
X14070550Y-8020000D02*
X14070000Y-8020000D01*
X12255000Y-10183398D02*
X12255000Y-6316602D01*
X12229999Y-10226696D02*
G75*
G03*
X12255000Y-10183398I-24989J43296D01*
G01*
X11055000Y-5180000D02*
G75*
G03*
X10855000Y-5380000I0J-200000D01*
G01*
X12230000Y-10226699D02*
G75*
G03*
X12255000Y-10320000I25000J-43301D01*
G01*
X14095000Y-6273301D02*
G75*
G03*
X14070000Y-6180000I-25000J43301D01*
G01*
X14320000Y-5180000D02*
X11055000Y-5180000D01*
X10855000Y-10820000D02*
X10855000Y-10520000D01*
X11355000Y-5880000D02*
X11055000Y-5880000D01*
X14070000Y-8500000D02*
X14070550Y-8500000D01*
X13494507Y-10285180D02*
G75*
G03*
X13542144Y-10320000I47633J15170D01*
G01*
X14070550Y-7228000D02*
G75*
G03*
X14120550Y-7178000I0J50000D01*
G01*
X14320000Y-11020000D02*
G75*
G03*
X14520000Y-10820000I0J200000D01*
G01*
X12920995Y-10320000D02*
X13373456Y-10320000D01*
X14070000Y-10183398D02*
X14070000Y-8500000D01*
X13457800Y-10170000D02*
X13421096Y-10285181D01*
X10855000Y-10820000D02*
G75*
G03*
X11055000Y-11020000I200000J0D01*
G01*
X11355000Y-10320000D02*
G75*
G03*
X11555000Y-10120000I0J200000D01*
G01*
X14320000Y-11020000D02*
X11055000Y-11020000D01*
X14520000Y-5380000D02*
X14520000Y-10820000D01*
X14070000Y-6756000D02*
X14070000Y-6316602D01*
X12873296Y-10284993D02*
X12837150Y-10170000D01*
X12837150Y-10170000D02*
X12801004Y-10284993D01*
X12873294Y-10284994D02*
G75*
G03*
X12920995Y-10320000I47706J15004D01*
G01*
X13542144Y-10320000D02*
X14070000Y-10320000D01*
X14070550Y-7228000D02*
X14070000Y-7228000D01*
X12753305Y-10320002D02*
G75*
G03*
X12801004Y-10284993I5J49992D01*
G01*
X10855000Y-5380000D02*
X10855000Y-5680000D01*
X11055000Y-10320000D02*
G75*
G03*
X10855000Y-10520000I0J-200000D01*
G01*
D11*
X11544000Y-6383700D02*
X11555000Y-6080000D01*
D10*
X10855000Y-5680000D02*
G75*
G03*
X11055000Y-5880000I200000J0D01*
G01*
X13373456Y-10319999D02*
G75*
G03*
X13421095Y-10285181I-6J50009D01*
G01*
X14120550Y-8450000D02*
X14120550Y-8070000D01*
D12*
D13*
X11044030Y-10510128D02*
X11364030Y-10830128D01*
X11364030Y-10510128D02*
X11044030Y-10830128D01*
X11045059Y-5369881D02*
X11365059Y-5689881D01*
X11365059Y-5369881D02*
X11045059Y-5689881D01*
D12*
X10959777Y-11343984D02*
X10959777Y-11143984D01*
X10959777Y-11143984D02*
X11007396Y-11143984D01*
X11007396Y-11143984D02*
X11035967Y-11153508D01*
X11035967Y-11153508D02*
X11055015Y-11172555D01*
X11055015Y-11172555D02*
X11064539Y-11191603D01*
X11064539Y-11191603D02*
X11074063Y-11229698D01*
X11074063Y-11229698D02*
X11074063Y-11258269D01*
X11074063Y-11258269D02*
X11064539Y-11296365D01*
X11064539Y-11296365D02*
X11055015Y-11315412D01*
X11055015Y-11315412D02*
X11035967Y-11334460D01*
X11035967Y-11334460D02*
X11007396Y-11343984D01*
X11007396Y-11343984D02*
X10959777Y-11343984D01*
X11159777Y-11343984D02*
X11159777Y-11210650D01*
X11159777Y-11248746D02*
X11169301Y-11229698D01*
X11169301Y-11229698D02*
X11178824Y-11220174D01*
X11178824Y-11220174D02*
X11197872Y-11210650D01*
X11197872Y-11210650D02*
X11216920Y-11210650D01*
X11283586Y-11343984D02*
X11283586Y-11210650D01*
X11283586Y-11143984D02*
X11274062Y-11153508D01*
X11274062Y-11153508D02*
X11283586Y-11163031D01*
X11283586Y-11163031D02*
X11293110Y-11153508D01*
X11293110Y-11153508D02*
X11283586Y-11143984D01*
X11283586Y-11143984D02*
X11283586Y-11163031D01*
X11407396Y-11343984D02*
X11388348Y-11334460D01*
X11388348Y-11334460D02*
X11378824Y-11315412D01*
X11378824Y-11315412D02*
X11378824Y-11143984D01*
X11512158Y-11343984D02*
X11493110Y-11334460D01*
X11493110Y-11334460D02*
X11483586Y-11315412D01*
X11483586Y-11315412D02*
X11483586Y-11143984D01*
X11740729Y-11343984D02*
X11740729Y-11143984D01*
X11740729Y-11143984D02*
X11807396Y-11286841D01*
X11807396Y-11286841D02*
X11874062Y-11143984D01*
X11874062Y-11143984D02*
X11874062Y-11343984D01*
X12055015Y-11343984D02*
X12055015Y-11239222D01*
X12055015Y-11239222D02*
X12045491Y-11220174D01*
X12045491Y-11220174D02*
X12026443Y-11210650D01*
X12026443Y-11210650D02*
X11988348Y-11210650D01*
X11988348Y-11210650D02*
X11969301Y-11220174D01*
X12055015Y-11334460D02*
X12035967Y-11343984D01*
X12035967Y-11343984D02*
X11988348Y-11343984D01*
X11988348Y-11343984D02*
X11969301Y-11334460D01*
X11969301Y-11334460D02*
X11959777Y-11315412D01*
X11959777Y-11315412D02*
X11959777Y-11296365D01*
X11959777Y-11296365D02*
X11969301Y-11277317D01*
X11969301Y-11277317D02*
X11988348Y-11267793D01*
X11988348Y-11267793D02*
X12035967Y-11267793D01*
X12035967Y-11267793D02*
X12055015Y-11258269D01*
X12150253Y-11210650D02*
X12150253Y-11410650D01*
X12150253Y-11220174D02*
X12169301Y-11210650D01*
X12169301Y-11210650D02*
X12207396Y-11210650D01*
X12207396Y-11210650D02*
X12226443Y-11220174D01*
X12226443Y-11220174D02*
X12235967Y-11229698D01*
X12235967Y-11229698D02*
X12245491Y-11248746D01*
X12245491Y-11248746D02*
X12245491Y-11305888D01*
X12245491Y-11305888D02*
X12235967Y-11324936D01*
X12235967Y-11324936D02*
X12226443Y-11334460D01*
X12226443Y-11334460D02*
X12207396Y-11343984D01*
X12207396Y-11343984D02*
X12169301Y-11343984D01*
X12169301Y-11343984D02*
X12150253Y-11334460D01*
X12331205Y-11324936D02*
X12340729Y-11334460D01*
X12340729Y-11334460D02*
X12331205Y-11343984D01*
X12331205Y-11343984D02*
X12321682Y-11334460D01*
X12321682Y-11334460D02*
X12331205Y-11324936D01*
X12331205Y-11324936D02*
X12331205Y-11343984D01*
X12331205Y-11220174D02*
X12340729Y-11229698D01*
X12340729Y-11229698D02*
X12331205Y-11239222D01*
X12331205Y-11239222D02*
X12321682Y-11229698D01*
X12321682Y-11229698D02*
X12331205Y-11220174D01*
X12331205Y-11220174D02*
X12331205Y-11239222D01*
X10499000Y-11572500D02*
X10699000Y-11772500D01*
X10699000Y-11572500D02*
X10499000Y-11772500D01*
X10940729Y-11563984D02*
X11064539Y-11563984D01*
X11064539Y-11563984D02*
X10997872Y-11640174D01*
X10997872Y-11640174D02*
X11026444Y-11640174D01*
X11026444Y-11640174D02*
X11045491Y-11649698D01*
X11045491Y-11649698D02*
X11055015Y-11659222D01*
X11055015Y-11659222D02*
X11064539Y-11678269D01*
X11064539Y-11678269D02*
X11064539Y-11725888D01*
X11064539Y-11725888D02*
X11055015Y-11744936D01*
X11055015Y-11744936D02*
X11045491Y-11754460D01*
X11045491Y-11754460D02*
X11026444Y-11763984D01*
X11026444Y-11763984D02*
X10969301Y-11763984D01*
X10969301Y-11763984D02*
X10950253Y-11754460D01*
X10950253Y-11754460D02*
X10940729Y-11744936D01*
X11150253Y-11744936D02*
X11159777Y-11754460D01*
X11159777Y-11754460D02*
X11150253Y-11763984D01*
X11150253Y-11763984D02*
X11140729Y-11754460D01*
X11140729Y-11754460D02*
X11150253Y-11744936D01*
X11150253Y-11744936D02*
X11150253Y-11763984D01*
X11235967Y-11583031D02*
X11245491Y-11573508D01*
X11245491Y-11573508D02*
X11264539Y-11563984D01*
X11264539Y-11563984D02*
X11312158Y-11563984D01*
X11312158Y-11563984D02*
X11331205Y-11573508D01*
X11331205Y-11573508D02*
X11340729Y-11583031D01*
X11340729Y-11583031D02*
X11350253Y-11602079D01*
X11350253Y-11602079D02*
X11350253Y-11621127D01*
X11350253Y-11621127D02*
X11340729Y-11649698D01*
X11340729Y-11649698D02*
X11226443Y-11763984D01*
X11226443Y-11763984D02*
X11350253Y-11763984D01*
X11474062Y-11563984D02*
X11493110Y-11563984D01*
X11493110Y-11563984D02*
X11512158Y-11573508D01*
X11512158Y-11573508D02*
X11521682Y-11583031D01*
X11521682Y-11583031D02*
X11531205Y-11602079D01*
X11531205Y-11602079D02*
X11540729Y-11640174D01*
X11540729Y-11640174D02*
X11540729Y-11687793D01*
X11540729Y-11687793D02*
X11531205Y-11725888D01*
X11531205Y-11725888D02*
X11521682Y-11744936D01*
X11521682Y-11744936D02*
X11512158Y-11754460D01*
X11512158Y-11754460D02*
X11493110Y-11763984D01*
X11493110Y-11763984D02*
X11474062Y-11763984D01*
X11474062Y-11763984D02*
X11455015Y-11754460D01*
X11455015Y-11754460D02*
X11445491Y-11744936D01*
X11445491Y-11744936D02*
X11435967Y-11725888D01*
X11435967Y-11725888D02*
X11426443Y-11687793D01*
X11426443Y-11687793D02*
X11426443Y-11640174D01*
X11426443Y-11640174D02*
X11435967Y-11602079D01*
X11435967Y-11602079D02*
X11445491Y-11583031D01*
X11445491Y-11583031D02*
X11455015Y-11573508D01*
X11455015Y-11573508D02*
X11474062Y-11563984D01*
X11664539Y-11563984D02*
X11683586Y-11563984D01*
X11683586Y-11563984D02*
X11702634Y-11573508D01*
X11702634Y-11573508D02*
X11712158Y-11583031D01*
X11712158Y-11583031D02*
X11721682Y-11602079D01*
X11721682Y-11602079D02*
X11731205Y-11640174D01*
X11731205Y-11640174D02*
X11731205Y-11687793D01*
X11731205Y-11687793D02*
X11721682Y-11725888D01*
X11721682Y-11725888D02*
X11712158Y-11744936D01*
X11712158Y-11744936D02*
X11702634Y-11754460D01*
X11702634Y-11754460D02*
X11683586Y-11763984D01*
X11683586Y-11763984D02*
X11664539Y-11763984D01*
X11664539Y-11763984D02*
X11645491Y-11754460D01*
X11645491Y-11754460D02*
X11635967Y-11744936D01*
X11635967Y-11744936D02*
X11626443Y-11725888D01*
X11626443Y-11725888D02*
X11616920Y-11687793D01*
X11616920Y-11687793D02*
X11616920Y-11640174D01*
X11616920Y-11640174D02*
X11626443Y-11602079D01*
X11626443Y-11602079D02*
X11635967Y-11583031D01*
X11635967Y-11583031D02*
X11645491Y-11573508D01*
X11645491Y-11573508D02*
X11664539Y-11563984D01*
X11816920Y-11763984D02*
X11816920Y-11630650D01*
X11816920Y-11649698D02*
X11826443Y-11640174D01*
X11826443Y-11640174D02*
X11845491Y-11630650D01*
X11845491Y-11630650D02*
X11874063Y-11630650D01*
X11874063Y-11630650D02*
X11893110Y-11640174D01*
X11893110Y-11640174D02*
X11902634Y-11659222D01*
X11902634Y-11659222D02*
X11902634Y-11763984D01*
X11902634Y-11659222D02*
X11912158Y-11640174D01*
X11912158Y-11640174D02*
X11931205Y-11630650D01*
X11931205Y-11630650D02*
X11959777Y-11630650D01*
X11959777Y-11630650D02*
X11978824Y-11640174D01*
X11978824Y-11640174D02*
X11988348Y-11659222D01*
X11988348Y-11659222D02*
X11988348Y-11763984D01*
X12083586Y-11763984D02*
X12083586Y-11630650D01*
X12083586Y-11649698D02*
X12093110Y-11640174D01*
X12093110Y-11640174D02*
X12112158Y-11630650D01*
X12112158Y-11630650D02*
X12140729Y-11630650D01*
X12140729Y-11630650D02*
X12159777Y-11640174D01*
X12159777Y-11640174D02*
X12169301Y-11659222D01*
X12169301Y-11659222D02*
X12169301Y-11763984D01*
X12169301Y-11659222D02*
X12178824Y-11640174D01*
X12178824Y-11640174D02*
X12197872Y-11630650D01*
X12197872Y-11630650D02*
X12226443Y-11630650D01*
X12226443Y-11630650D02*
X12245491Y-11640174D01*
X12245491Y-11640174D02*
X12255015Y-11659222D01*
X12255015Y-11659222D02*
X12255015Y-11763984D01*
X12645491Y-11554460D02*
X12474063Y-11811603D01*
X12902634Y-11563984D02*
X12921682Y-11563984D01*
X12921682Y-11563984D02*
X12940729Y-11573508D01*
X12940729Y-11573508D02*
X12950253Y-11583031D01*
X12950253Y-11583031D02*
X12959777Y-11602079D01*
X12959777Y-11602079D02*
X12969301Y-11640174D01*
X12969301Y-11640174D02*
X12969301Y-11687793D01*
X12969301Y-11687793D02*
X12959777Y-11725888D01*
X12959777Y-11725888D02*
X12950253Y-11744936D01*
X12950253Y-11744936D02*
X12940729Y-11754460D01*
X12940729Y-11754460D02*
X12921682Y-11763984D01*
X12921682Y-11763984D02*
X12902634Y-11763984D01*
X12902634Y-11763984D02*
X12883586Y-11754460D01*
X12883586Y-11754460D02*
X12874063Y-11744936D01*
X12874063Y-11744936D02*
X12864539Y-11725888D01*
X12864539Y-11725888D02*
X12855015Y-11687793D01*
X12855015Y-11687793D02*
X12855015Y-11640174D01*
X12855015Y-11640174D02*
X12864539Y-11602079D01*
X12864539Y-11602079D02*
X12874063Y-11583031D01*
X12874063Y-11583031D02*
X12883586Y-11573508D01*
X12883586Y-11573508D02*
X12902634Y-11563984D01*
X13055015Y-11744936D02*
X13064539Y-11754460D01*
X13064539Y-11754460D02*
X13055015Y-11763984D01*
X13055015Y-11763984D02*
X13045491Y-11754460D01*
X13045491Y-11754460D02*
X13055015Y-11744936D01*
X13055015Y-11744936D02*
X13055015Y-11763984D01*
X13255015Y-11763984D02*
X13140729Y-11763984D01*
X13197872Y-11763984D02*
X13197872Y-11563984D01*
X13197872Y-11563984D02*
X13178825Y-11592555D01*
X13178825Y-11592555D02*
X13159777Y-11611603D01*
X13159777Y-11611603D02*
X13140729Y-11621127D01*
X13331206Y-11583031D02*
X13340729Y-11573508D01*
X13340729Y-11573508D02*
X13359777Y-11563984D01*
X13359777Y-11563984D02*
X13407396Y-11563984D01*
X13407396Y-11563984D02*
X13426444Y-11573508D01*
X13426444Y-11573508D02*
X13435967Y-11583031D01*
X13435967Y-11583031D02*
X13445491Y-11602079D01*
X13445491Y-11602079D02*
X13445491Y-11621127D01*
X13445491Y-11621127D02*
X13435967Y-11649698D01*
X13435967Y-11649698D02*
X13321682Y-11763984D01*
X13321682Y-11763984D02*
X13445491Y-11763984D01*
X13616920Y-11563984D02*
X13578825Y-11563984D01*
X13578825Y-11563984D02*
X13559777Y-11573508D01*
X13559777Y-11573508D02*
X13550253Y-11583031D01*
X13550253Y-11583031D02*
X13531206Y-11611603D01*
X13531206Y-11611603D02*
X13521682Y-11649698D01*
X13521682Y-11649698D02*
X13521682Y-11725888D01*
X13521682Y-11725888D02*
X13531206Y-11744936D01*
X13531206Y-11744936D02*
X13540729Y-11754460D01*
X13540729Y-11754460D02*
X13559777Y-11763984D01*
X13559777Y-11763984D02*
X13597872Y-11763984D01*
X13597872Y-11763984D02*
X13616920Y-11754460D01*
X13616920Y-11754460D02*
X13626444Y-11744936D01*
X13626444Y-11744936D02*
X13635967Y-11725888D01*
X13635967Y-11725888D02*
X13635967Y-11678269D01*
X13635967Y-11678269D02*
X13626444Y-11659222D01*
X13626444Y-11659222D02*
X13616920Y-11649698D01*
X13616920Y-11649698D02*
X13597872Y-11640174D01*
X13597872Y-11640174D02*
X13559777Y-11640174D01*
X13559777Y-11640174D02*
X13540729Y-11649698D01*
X13540729Y-11649698D02*
X13531206Y-11659222D01*
X13531206Y-11659222D02*
X13521682Y-11678269D01*
X13759777Y-11563984D02*
X13778825Y-11563984D01*
X13778825Y-11563984D02*
X13797872Y-11573508D01*
X13797872Y-11573508D02*
X13807396Y-11583031D01*
X13807396Y-11583031D02*
X13816920Y-11602079D01*
X13816920Y-11602079D02*
X13826444Y-11640174D01*
X13826444Y-11640174D02*
X13826444Y-11687793D01*
X13826444Y-11687793D02*
X13816920Y-11725888D01*
X13816920Y-11725888D02*
X13807396Y-11744936D01*
X13807396Y-11744936D02*
X13797872Y-11754460D01*
X13797872Y-11754460D02*
X13778825Y-11763984D01*
X13778825Y-11763984D02*
X13759777Y-11763984D01*
X13759777Y-11763984D02*
X13740729Y-11754460D01*
X13740729Y-11754460D02*
X13731206Y-11744936D01*
X13731206Y-11744936D02*
X13721682Y-11725888D01*
X13721682Y-11725888D02*
X13712158Y-11687793D01*
X13712158Y-11687793D02*
X13712158Y-11640174D01*
X13712158Y-11640174D02*
X13721682Y-11602079D01*
X13721682Y-11602079D02*
X13731206Y-11583031D01*
X13731206Y-11583031D02*
X13740729Y-11573508D01*
X13740729Y-11573508D02*
X13759777Y-11563984D01*
X13902634Y-11563984D02*
X13902634Y-11602079D01*
X13978825Y-11563984D02*
X13978825Y-11602079D01*
X14274063Y-11840174D02*
X14264539Y-11830650D01*
X14264539Y-11830650D02*
X14245491Y-11802079D01*
X14245491Y-11802079D02*
X14235968Y-11783031D01*
X14235968Y-11783031D02*
X14226444Y-11754460D01*
X14226444Y-11754460D02*
X14216920Y-11706841D01*
X14216920Y-11706841D02*
X14216920Y-11668746D01*
X14216920Y-11668746D02*
X14226444Y-11621127D01*
X14226444Y-11621127D02*
X14235968Y-11592555D01*
X14235968Y-11592555D02*
X14245491Y-11573508D01*
X14245491Y-11573508D02*
X14264539Y-11544936D01*
X14264539Y-11544936D02*
X14274063Y-11535412D01*
X14340729Y-11583031D02*
X14350253Y-11573508D01*
X14350253Y-11573508D02*
X14369301Y-11563984D01*
X14369301Y-11563984D02*
X14416920Y-11563984D01*
X14416920Y-11563984D02*
X14435968Y-11573508D01*
X14435968Y-11573508D02*
X14445491Y-11583031D01*
X14445491Y-11583031D02*
X14455015Y-11602079D01*
X14455015Y-11602079D02*
X14455015Y-11621127D01*
X14455015Y-11621127D02*
X14445491Y-11649698D01*
X14445491Y-11649698D02*
X14331206Y-11763984D01*
X14331206Y-11763984D02*
X14455015Y-11763984D01*
X14693110Y-11763984D02*
X14693110Y-11563984D01*
X14778825Y-11763984D02*
X14778825Y-11659222D01*
X14778825Y-11659222D02*
X14769301Y-11640174D01*
X14769301Y-11640174D02*
X14750253Y-11630650D01*
X14750253Y-11630650D02*
X14721682Y-11630650D01*
X14721682Y-11630650D02*
X14702634Y-11640174D01*
X14702634Y-11640174D02*
X14693110Y-11649698D01*
X14902634Y-11763984D02*
X14883587Y-11754460D01*
X14883587Y-11754460D02*
X14874063Y-11744936D01*
X14874063Y-11744936D02*
X14864539Y-11725888D01*
X14864539Y-11725888D02*
X14864539Y-11668746D01*
X14864539Y-11668746D02*
X14874063Y-11649698D01*
X14874063Y-11649698D02*
X14883587Y-11640174D01*
X14883587Y-11640174D02*
X14902634Y-11630650D01*
X14902634Y-11630650D02*
X14931206Y-11630650D01*
X14931206Y-11630650D02*
X14950253Y-11640174D01*
X14950253Y-11640174D02*
X14959777Y-11649698D01*
X14959777Y-11649698D02*
X14969301Y-11668746D01*
X14969301Y-11668746D02*
X14969301Y-11725888D01*
X14969301Y-11725888D02*
X14959777Y-11744936D01*
X14959777Y-11744936D02*
X14950253Y-11754460D01*
X14950253Y-11754460D02*
X14931206Y-11763984D01*
X14931206Y-11763984D02*
X14902634Y-11763984D01*
X15083587Y-11763984D02*
X15064539Y-11754460D01*
X15064539Y-11754460D02*
X15055015Y-11735412D01*
X15055015Y-11735412D02*
X15055015Y-11563984D01*
X15235968Y-11754460D02*
X15216920Y-11763984D01*
X15216920Y-11763984D02*
X15178825Y-11763984D01*
X15178825Y-11763984D02*
X15159777Y-11754460D01*
X15159777Y-11754460D02*
X15150253Y-11735412D01*
X15150253Y-11735412D02*
X15150253Y-11659222D01*
X15150253Y-11659222D02*
X15159777Y-11640174D01*
X15159777Y-11640174D02*
X15178825Y-11630650D01*
X15178825Y-11630650D02*
X15216920Y-11630650D01*
X15216920Y-11630650D02*
X15235968Y-11640174D01*
X15235968Y-11640174D02*
X15245491Y-11659222D01*
X15245491Y-11659222D02*
X15245491Y-11678269D01*
X15245491Y-11678269D02*
X15150253Y-11697317D01*
X15321682Y-11754460D02*
X15340730Y-11763984D01*
X15340730Y-11763984D02*
X15378825Y-11763984D01*
X15378825Y-11763984D02*
X15397872Y-11754460D01*
X15397872Y-11754460D02*
X15407396Y-11735412D01*
X15407396Y-11735412D02*
X15407396Y-11725888D01*
X15407396Y-11725888D02*
X15397872Y-11706841D01*
X15397872Y-11706841D02*
X15378825Y-11697317D01*
X15378825Y-11697317D02*
X15350253Y-11697317D01*
X15350253Y-11697317D02*
X15331206Y-11687793D01*
X15331206Y-11687793D02*
X15321682Y-11668746D01*
X15321682Y-11668746D02*
X15321682Y-11659222D01*
X15321682Y-11659222D02*
X15331206Y-11640174D01*
X15331206Y-11640174D02*
X15350253Y-11630650D01*
X15350253Y-11630650D02*
X15378825Y-11630650D01*
X15378825Y-11630650D02*
X15397872Y-11640174D01*
X15474063Y-11840174D02*
X15483587Y-11830650D01*
X15483587Y-11830650D02*
X15502634Y-11802079D01*
X15502634Y-11802079D02*
X15512158Y-11783031D01*
X15512158Y-11783031D02*
X15521682Y-11754460D01*
X15521682Y-11754460D02*
X15531206Y-11706841D01*
X15531206Y-11706841D02*
X15531206Y-11668746D01*
X15531206Y-11668746D02*
X15521682Y-11621127D01*
X15521682Y-11621127D02*
X15512158Y-11592555D01*
X15512158Y-11592555D02*
X15502634Y-11573508D01*
X15502634Y-11573508D02*
X15483587Y-11544936D01*
X15483587Y-11544936D02*
X15474063Y-11535412D01*
X15835968Y-11840174D02*
X15826444Y-11830650D01*
X15826444Y-11830650D02*
X15807396Y-11802079D01*
X15807396Y-11802079D02*
X15797872Y-11783031D01*
X15797872Y-11783031D02*
X15788349Y-11754460D01*
X15788349Y-11754460D02*
X15778825Y-11706841D01*
X15778825Y-11706841D02*
X15778825Y-11668746D01*
X15778825Y-11668746D02*
X15788349Y-11621127D01*
X15788349Y-11621127D02*
X15797872Y-11592555D01*
X15797872Y-11592555D02*
X15807396Y-11573508D01*
X15807396Y-11573508D02*
X15826444Y-11544936D01*
X15826444Y-11544936D02*
X15835968Y-11535412D01*
X15912158Y-11630650D02*
X15912158Y-11763984D01*
X15912158Y-11649698D02*
X15921682Y-11640174D01*
X15921682Y-11640174D02*
X15940730Y-11630650D01*
X15940730Y-11630650D02*
X15969301Y-11630650D01*
X15969301Y-11630650D02*
X15988349Y-11640174D01*
X15988349Y-11640174D02*
X15997872Y-11659222D01*
X15997872Y-11659222D02*
X15997872Y-11763984D01*
X16121682Y-11763984D02*
X16102634Y-11754460D01*
X16102634Y-11754460D02*
X16093111Y-11744936D01*
X16093111Y-11744936D02*
X16083587Y-11725888D01*
X16083587Y-11725888D02*
X16083587Y-11668746D01*
X16083587Y-11668746D02*
X16093111Y-11649698D01*
X16093111Y-11649698D02*
X16102634Y-11640174D01*
X16102634Y-11640174D02*
X16121682Y-11630650D01*
X16121682Y-11630650D02*
X16150253Y-11630650D01*
X16150253Y-11630650D02*
X16169301Y-11640174D01*
X16169301Y-11640174D02*
X16178825Y-11649698D01*
X16178825Y-11649698D02*
X16188349Y-11668746D01*
X16188349Y-11668746D02*
X16188349Y-11725888D01*
X16188349Y-11725888D02*
X16178825Y-11744936D01*
X16178825Y-11744936D02*
X16169301Y-11754460D01*
X16169301Y-11754460D02*
X16150253Y-11763984D01*
X16150253Y-11763984D02*
X16121682Y-11763984D01*
X16245492Y-11630650D02*
X16321682Y-11630650D01*
X16274063Y-11563984D02*
X16274063Y-11735412D01*
X16274063Y-11735412D02*
X16283587Y-11754460D01*
X16283587Y-11754460D02*
X16302634Y-11763984D01*
X16302634Y-11763984D02*
X16321682Y-11763984D01*
X16540730Y-11630650D02*
X16540730Y-11830650D01*
X16540730Y-11640174D02*
X16559777Y-11630650D01*
X16559777Y-11630650D02*
X16597873Y-11630650D01*
X16597873Y-11630650D02*
X16616920Y-11640174D01*
X16616920Y-11640174D02*
X16626444Y-11649698D01*
X16626444Y-11649698D02*
X16635968Y-11668746D01*
X16635968Y-11668746D02*
X16635968Y-11725888D01*
X16635968Y-11725888D02*
X16626444Y-11744936D01*
X16626444Y-11744936D02*
X16616920Y-11754460D01*
X16616920Y-11754460D02*
X16597873Y-11763984D01*
X16597873Y-11763984D02*
X16559777Y-11763984D01*
X16559777Y-11763984D02*
X16540730Y-11754460D01*
X16750253Y-11763984D02*
X16731206Y-11754460D01*
X16731206Y-11754460D02*
X16721682Y-11735412D01*
X16721682Y-11735412D02*
X16721682Y-11563984D01*
X16912158Y-11763984D02*
X16912158Y-11659222D01*
X16912158Y-11659222D02*
X16902635Y-11640174D01*
X16902635Y-11640174D02*
X16883587Y-11630650D01*
X16883587Y-11630650D02*
X16845492Y-11630650D01*
X16845492Y-11630650D02*
X16826444Y-11640174D01*
X16912158Y-11754460D02*
X16893111Y-11763984D01*
X16893111Y-11763984D02*
X16845492Y-11763984D01*
X16845492Y-11763984D02*
X16826444Y-11754460D01*
X16826444Y-11754460D02*
X16816920Y-11735412D01*
X16816920Y-11735412D02*
X16816920Y-11716365D01*
X16816920Y-11716365D02*
X16826444Y-11697317D01*
X16826444Y-11697317D02*
X16845492Y-11687793D01*
X16845492Y-11687793D02*
X16893111Y-11687793D01*
X16893111Y-11687793D02*
X16912158Y-11678269D01*
X16978825Y-11630650D02*
X17055015Y-11630650D01*
X17007396Y-11563984D02*
X17007396Y-11735412D01*
X17007396Y-11735412D02*
X17016920Y-11754460D01*
X17016920Y-11754460D02*
X17035968Y-11763984D01*
X17035968Y-11763984D02*
X17055015Y-11763984D01*
X17197873Y-11754460D02*
X17178825Y-11763984D01*
X17178825Y-11763984D02*
X17140730Y-11763984D01*
X17140730Y-11763984D02*
X17121682Y-11754460D01*
X17121682Y-11754460D02*
X17112158Y-11735412D01*
X17112158Y-11735412D02*
X17112158Y-11659222D01*
X17112158Y-11659222D02*
X17121682Y-11640174D01*
X17121682Y-11640174D02*
X17140730Y-11630650D01*
X17140730Y-11630650D02*
X17178825Y-11630650D01*
X17178825Y-11630650D02*
X17197873Y-11640174D01*
X17197873Y-11640174D02*
X17207396Y-11659222D01*
X17207396Y-11659222D02*
X17207396Y-11678269D01*
X17207396Y-11678269D02*
X17112158Y-11697317D01*
X17378825Y-11763984D02*
X17378825Y-11563984D01*
X17378825Y-11754460D02*
X17359777Y-11763984D01*
X17359777Y-11763984D02*
X17321682Y-11763984D01*
X17321682Y-11763984D02*
X17302635Y-11754460D01*
X17302635Y-11754460D02*
X17293111Y-11744936D01*
X17293111Y-11744936D02*
X17283587Y-11725888D01*
X17283587Y-11725888D02*
X17283587Y-11668746D01*
X17283587Y-11668746D02*
X17293111Y-11649698D01*
X17293111Y-11649698D02*
X17302635Y-11640174D01*
X17302635Y-11640174D02*
X17321682Y-11630650D01*
X17321682Y-11630650D02*
X17359777Y-11630650D01*
X17359777Y-11630650D02*
X17378825Y-11640174D01*
X17455016Y-11840174D02*
X17464539Y-11830650D01*
X17464539Y-11830650D02*
X17483587Y-11802079D01*
X17483587Y-11802079D02*
X17493111Y-11783031D01*
X17493111Y-11783031D02*
X17502635Y-11754460D01*
X17502635Y-11754460D02*
X17512158Y-11706841D01*
X17512158Y-11706841D02*
X17512158Y-11668746D01*
X17512158Y-11668746D02*
X17502635Y-11621127D01*
X17502635Y-11621127D02*
X17493111Y-11592555D01*
X17493111Y-11592555D02*
X17483587Y-11573508D01*
X17483587Y-11573508D02*
X17464539Y-11544936D01*
X17464539Y-11544936D02*
X17455016Y-11535412D01*
M02*
