%TF.GenerationSoftware,KiCad,Pcbnew,8.0.6*%
%TF.CreationDate,2024-11-11T21:44:25+01:00*%
%TF.ProjectId,Motor_Driver_carrier_board,4d6f746f-725f-4447-9269-7665725f6361,rev?*%
%TF.SameCoordinates,Original*%
%TF.FileFunction,Copper,L1,Top*%
%TF.FilePolarity,Positive*%
%FSLAX46Y46*%
G04 Gerber Fmt 4.6, Leading zero omitted, Abs format (unit mm)*
G04 Created by KiCad (PCBNEW 8.0.6) date 2024-11-11 21:44:25*
%MOMM*%
%LPD*%
G01*
G04 APERTURE LIST*
G04 Aperture macros list*
%AMRoundRect*
0 Rectangle with rounded corners*
0 $1 Rounding radius*
0 $2 $3 $4 $5 $6 $7 $8 $9 X,Y pos of 4 corners*
0 Add a 4 corners polygon primitive as box body*
4,1,4,$2,$3,$4,$5,$6,$7,$8,$9,$2,$3,0*
0 Add four circle primitives for the rounded corners*
1,1,$1+$1,$2,$3*
1,1,$1+$1,$4,$5*
1,1,$1+$1,$6,$7*
1,1,$1+$1,$8,$9*
0 Add four rect primitives between the rounded corners*
20,1,$1+$1,$2,$3,$4,$5,0*
20,1,$1+$1,$4,$5,$6,$7,0*
20,1,$1+$1,$6,$7,$8,$9,0*
20,1,$1+$1,$8,$9,$2,$3,0*%
G04 Aperture macros list end*
%TA.AperFunction,SMDPad,CuDef*%
%ADD10R,5.000000X3.000000*%
%TD*%
%TA.AperFunction,ComponentPad*%
%ADD11C,1.650000*%
%TD*%
%TA.AperFunction,SMDPad,CuDef*%
%ADD12R,1.400000X1.400000*%
%TD*%
%TA.AperFunction,ComponentPad*%
%ADD13RoundRect,0.412500X0.412500X-0.412500X0.412500X0.412500X-0.412500X0.412500X-0.412500X-0.412500X0*%
%TD*%
%TA.AperFunction,ViaPad*%
%ADD14C,1.200000*%
%TD*%
%TA.AperFunction,ViaPad*%
%ADD15C,0.600000*%
%TD*%
%TA.AperFunction,Conductor*%
%ADD16C,2.000000*%
%TD*%
%TA.AperFunction,Conductor*%
%ADD17C,0.300000*%
%TD*%
%TA.AperFunction,Conductor*%
%ADD18C,3.000000*%
%TD*%
%TA.AperFunction,Conductor*%
%ADD19C,0.800000*%
%TD*%
%TA.AperFunction,Conductor*%
%ADD20C,0.600000*%
%TD*%
%ADD21C,0.350000*%
%ADD22C,0.300000*%
G04 APERTURE END LIST*
D10*
%TO.P,OUT1,1*%
%TO.N,OUT1*%
X127675000Y-46950000D03*
%TD*%
D11*
%TO.P,J3,1,1*%
%TO.N,SWDIO*%
X121800000Y-62120000D03*
%TO.P,J3,2,2*%
%TO.N,SWCLK*%
X121800000Y-64660000D03*
%TO.P,J3,3,3*%
%TO.N,3.3V*%
X121800000Y-67200000D03*
%TO.P,J3,4,4*%
%TO.N,GND*%
X121800000Y-69740000D03*
%TO.P,J3,5,5*%
X121800000Y-72280000D03*
%TD*%
D12*
%TO.P,5V,1*%
%TO.N,5V*%
X129875000Y-91875000D03*
%TD*%
%TO.P,GND,1*%
%TO.N,UART_GND*%
X137475000Y-91875000D03*
%TD*%
D10*
%TO.P,+24V,1*%
%TO.N,24V*%
X142300000Y-92700000D03*
%TD*%
%TO.P,-24V,1*%
%TO.N,GND*%
X125800000Y-92700000D03*
%TD*%
%TO.P,OUT3,1*%
%TO.N,OUT3*%
X140675000Y-46950000D03*
%TD*%
%TO.P,OUT2,1*%
%TO.N,OUT2*%
X134175000Y-46950000D03*
%TD*%
D12*
%TO.P,PWM,1*%
%TO.N,PWM*%
X135575000Y-91875000D03*
%TD*%
D13*
%TO.P,P2,1,1*%
%TO.N,OUT1*%
X153375000Y-46350000D03*
D11*
%TO.P,P2,2,2*%
X150835000Y-46350000D03*
%TO.P,P2,3,3*%
X153375000Y-48890000D03*
%TO.P,P2,4,4*%
X150835000Y-48890000D03*
%TO.P,P2,5,5*%
%TO.N,OUT2*%
X153375000Y-51430000D03*
%TO.P,P2,6,6*%
X150835000Y-51430000D03*
%TO.P,P2,7,7*%
X153375000Y-53970000D03*
%TO.P,P2,8,8*%
X150835000Y-53970000D03*
%TO.P,P2,9,9*%
%TO.N,OUT3*%
X153375000Y-56510000D03*
%TO.P,P2,10,10*%
X150835000Y-56510000D03*
%TO.P,P2,11,11*%
X153375000Y-59050000D03*
%TO.P,P2,12,12*%
X150835000Y-59050000D03*
%TO.P,P2,13,13*%
%TO.N,24V*%
X153375000Y-61590000D03*
%TO.P,P2,14,14*%
X150835000Y-61590000D03*
%TO.P,P2,15,15*%
X153375000Y-64130000D03*
%TO.P,P2,16,16*%
X150835000Y-64130000D03*
%TO.P,P2,17,17*%
%TO.N,GND*%
X153375000Y-66670000D03*
%TO.P,P2,18,18*%
X150835000Y-66670000D03*
%TO.P,P2,19,19*%
X153375000Y-69210000D03*
%TO.P,P2,20,20*%
X150835000Y-69210000D03*
D13*
%TO.P,P2,21,21*%
%TO.N,H2*%
X153375000Y-82450000D03*
D11*
%TO.P,P2,22,22*%
%TO.N,H3*%
X150835000Y-82450000D03*
%TO.P,P2,23,23*%
%TO.N,H1*%
X153375000Y-84990000D03*
%TO.P,P2,24,24*%
%TO.N,5V*%
X150835000Y-84990000D03*
%TO.P,P2,25,25*%
%TO.N,RX*%
X153375000Y-87530000D03*
%TO.P,P2,26,26*%
%TO.N,GND*%
X150835000Y-87530000D03*
%TO.P,P2,27,27*%
%TO.N,5V*%
X153375000Y-90070000D03*
%TO.P,P2,28,28*%
%TO.N,GND*%
X150835000Y-90070000D03*
%TO.P,P2,29,29*%
%TO.N,TX*%
X153375000Y-92610000D03*
%TO.P,P2,30,30*%
%TO.N,PWM*%
X150835000Y-92610000D03*
%TD*%
D12*
%TO.P,SWDIO,1*%
%TO.N,SWDIO*%
X122900000Y-81300000D03*
%TD*%
%TO.P,TX,1*%
%TO.N,TX*%
X131775000Y-91875000D03*
%TD*%
%TO.P,GND,1*%
%TO.N,GND*%
X122900000Y-87000000D03*
%TD*%
%TO.P,SWCLK,1*%
%TO.N,SWCLK*%
X122900000Y-83200000D03*
%TD*%
%TO.P,+3.3V,1*%
%TO.N,3.3V*%
X122900000Y-85100000D03*
%TD*%
%TO.P,RX,1*%
%TO.N,RX*%
X133675000Y-91875000D03*
%TD*%
D14*
%TO.N,GND*%
X124110000Y-91920000D03*
X125790000Y-91910000D03*
X127440000Y-91950000D03*
X127440000Y-93370000D03*
X124110000Y-93360000D03*
D15*
X122900000Y-87000000D03*
D14*
X125800000Y-93300000D03*
D15*
%TO.N,3.3V*%
X122900000Y-85100000D03*
%TO.N,SWCLK*%
X122900000Y-83200000D03*
%TO.N,5V*%
X150900000Y-77150000D03*
%TD*%
D16*
%TO.N,24V*%
X155140000Y-61590000D02*
X155180000Y-61550000D01*
X153375000Y-61590000D02*
X155140000Y-61590000D01*
X155180000Y-61550000D02*
X155180000Y-62325000D01*
X155180000Y-62325000D02*
X153375000Y-64130000D01*
X148830000Y-61590000D02*
X148670000Y-61750000D01*
X150835000Y-61590000D02*
X148830000Y-61590000D01*
X148670000Y-61750000D02*
X148670000Y-61965000D01*
X148670000Y-61965000D02*
X150835000Y-64130000D01*
X153375000Y-64130000D02*
X150835000Y-61590000D01*
X150835000Y-64130000D02*
X153375000Y-61590000D01*
X153375000Y-64130000D02*
X150835000Y-64130000D01*
X150835000Y-61590000D02*
X153375000Y-61590000D01*
%TO.N,GND*%
X125800000Y-92700000D02*
X124900000Y-92700000D01*
D17*
%TO.N,SWDIO*%
X123900000Y-72019584D02*
X123844500Y-71964084D01*
X123844500Y-71964084D02*
X123844500Y-64164500D01*
X123844500Y-64164500D02*
X121800000Y-62120000D01*
X123900000Y-80200416D02*
X123900000Y-72019584D01*
X122900000Y-81300000D02*
X123863550Y-80336450D01*
X123863550Y-80336450D02*
X123900000Y-80200416D01*
%TO.N,UART_GND*%
X137475000Y-91875000D02*
X137650000Y-92050000D01*
X137475000Y-91875000D02*
X137475000Y-91825000D01*
X137475000Y-91825000D02*
X137500000Y-91800000D01*
D16*
%TO.N,OUT3*%
X145173026Y-57573026D02*
X145750000Y-58150000D01*
X143307361Y-46950000D02*
X140675000Y-46950000D01*
X150660000Y-59050000D02*
X153200000Y-56510000D01*
X145173026Y-48815665D02*
X143307361Y-46950000D01*
X153200000Y-56510000D02*
X153200000Y-59050000D01*
X145750000Y-58150000D02*
X148950000Y-58150000D01*
X145173026Y-55200000D02*
X145173026Y-48815665D01*
X146650000Y-59050000D02*
X145173026Y-57573026D01*
X150660000Y-57810000D02*
X150660000Y-56510000D01*
X150660000Y-59050000D02*
X146650000Y-59050000D01*
X145173026Y-57573026D02*
X145173026Y-55200000D01*
X146483026Y-56510000D02*
X145173026Y-55200000D01*
X150660000Y-56510000D02*
X146483026Y-56510000D01*
X151280000Y-58430000D02*
X150660000Y-57810000D01*
X153200000Y-59050000D02*
X150660000Y-59050000D01*
X150660000Y-56510000D02*
X153200000Y-56510000D01*
D18*
%TO.N,OUT1*%
X153200000Y-43550000D02*
X148250000Y-38600000D01*
X148250000Y-38600000D02*
X145900000Y-38600000D01*
D16*
X153200000Y-48890000D02*
X153200000Y-46350000D01*
D18*
X150660000Y-43360000D02*
X145900000Y-38600000D01*
D16*
X153200000Y-43550000D02*
X152100000Y-44650000D01*
X153200000Y-43550000D02*
X153200000Y-46350000D01*
X150660000Y-48890000D02*
X153200000Y-48890000D01*
D18*
X127675000Y-44725000D02*
X127675000Y-45225000D01*
D16*
X127675000Y-46950000D02*
X127675000Y-45225000D01*
X150660000Y-46350000D02*
X150660000Y-43360000D01*
D18*
X145900000Y-38600000D02*
X133800000Y-38600000D01*
D16*
X152100000Y-44650000D02*
X151800000Y-44650000D01*
D18*
X133800000Y-38600000D02*
X127675000Y-44725000D01*
D16*
X150660000Y-46350000D02*
X150660000Y-48890000D01*
X153200000Y-46350000D02*
X150660000Y-48890000D01*
X153200000Y-46350000D02*
X150660000Y-46350000D01*
%TO.N,OUT2*%
X148050000Y-53300000D02*
X148050000Y-46250000D01*
D18*
X135300000Y-42300000D02*
X144100000Y-42300000D01*
D16*
X150660000Y-51430000D02*
X150660000Y-53970000D01*
X150660000Y-51430000D02*
X153200000Y-51430000D01*
X149400000Y-51400000D02*
X149400000Y-52550000D01*
X150660000Y-53970000D02*
X148720000Y-53970000D01*
D18*
X134175000Y-43425000D02*
X135300000Y-42300000D01*
D16*
X149100000Y-51100000D02*
X149400000Y-51400000D01*
X134175000Y-46950000D02*
X134175000Y-44975000D01*
D18*
X134175000Y-44975000D02*
X134175000Y-43425000D01*
D16*
X150660000Y-51430000D02*
X149430000Y-51430000D01*
X153200000Y-51430000D02*
X153200000Y-53970000D01*
X148720000Y-53970000D02*
X148050000Y-53300000D01*
X149430000Y-51430000D02*
X149100000Y-51100000D01*
D18*
X144100000Y-42300000D02*
X147300000Y-45500000D01*
D16*
X150660000Y-53970000D02*
X153200000Y-51430000D01*
D17*
%TO.N,TX*%
X149879420Y-96850000D02*
X150132102Y-96767898D01*
X150132102Y-96767898D02*
X153375000Y-93525000D01*
X131775000Y-91875000D02*
X131775000Y-96225000D01*
X132400000Y-96850000D02*
X149879420Y-96850000D01*
X131775000Y-96225000D02*
X132400000Y-96850000D01*
X153375000Y-93525000D02*
X153375000Y-92610000D01*
D16*
%TO.N,24V*%
X142300000Y-92700000D02*
X143357362Y-92700000D01*
D17*
%TO.N,PWM*%
X135575000Y-95125000D02*
X136150000Y-95700000D01*
X135575000Y-91875000D02*
X135575000Y-95125000D01*
X150835000Y-93415000D02*
X150835000Y-92610000D01*
X148550000Y-95700000D02*
X150835000Y-93415000D01*
X136150000Y-95700000D02*
X148550000Y-95700000D01*
D19*
%TO.N,5V*%
X155150000Y-81400000D02*
X154325000Y-80575000D01*
D20*
X150346652Y-97553348D02*
X155100000Y-92800000D01*
X129875000Y-96375000D02*
X131053348Y-97553348D01*
X129875000Y-91875000D02*
X129875000Y-96375000D01*
X131053348Y-97553348D02*
X150346652Y-97553348D01*
D19*
X155150000Y-81400000D02*
X155150000Y-82200000D01*
D20*
X154570000Y-90070000D02*
X153375000Y-90070000D01*
X155100000Y-92800000D02*
X155100000Y-90600000D01*
D19*
X155150000Y-88295000D02*
X155150000Y-81400000D01*
X150900000Y-77150000D02*
X155150000Y-81400000D01*
D20*
X155100000Y-90600000D02*
X154570000Y-90070000D01*
D19*
X153375000Y-90070000D02*
X155150000Y-88295000D01*
D17*
%TO.N,RX*%
X153375000Y-88375000D02*
X153375000Y-87530000D01*
X148988123Y-96250000D02*
X152200000Y-93038123D01*
X134300000Y-96250000D02*
X148988123Y-96250000D01*
X133675000Y-91875000D02*
X133675000Y-95625000D01*
X133675000Y-95625000D02*
X134300000Y-96250000D01*
X152200000Y-89550000D02*
X153375000Y-88375000D01*
X152200000Y-93038123D02*
X152200000Y-89550000D01*
%TO.N,H2*%
X153150000Y-82225000D02*
X153375000Y-82450000D01*
%TD*%
%TA.AperFunction,Conductor*%
%TO.N,24V*%
G36*
X149733331Y-37066241D02*
G01*
X150283404Y-37228488D01*
X150290758Y-37230910D01*
X150845350Y-37433010D01*
X150852532Y-37435885D01*
X151393414Y-37672312D01*
X151400416Y-37675639D01*
X151925419Y-37945449D01*
X151932167Y-37949188D01*
X152403219Y-38229859D01*
X152439259Y-38251333D01*
X152445801Y-38255514D01*
X152932953Y-38588785D01*
X152939213Y-38593361D01*
X153404582Y-38956494D01*
X153410551Y-38961460D01*
X153852255Y-39352989D01*
X153857880Y-39358298D01*
X154058712Y-39560131D01*
X154274226Y-39776720D01*
X154279523Y-39782388D01*
X154535352Y-40073910D01*
X154668853Y-40226038D01*
X154673790Y-40232033D01*
X155034590Y-40699187D01*
X155039142Y-40705478D01*
X155369985Y-41194283D01*
X155374134Y-41200846D01*
X155673743Y-41709418D01*
X155677473Y-41716229D01*
X155944659Y-42242552D01*
X155947955Y-42249583D01*
X156181667Y-42791583D01*
X156184517Y-42798806D01*
X156383854Y-43354391D01*
X156386246Y-43361779D01*
X156550412Y-43928737D01*
X156552337Y-43936260D01*
X156680694Y-44512381D01*
X156682145Y-44520009D01*
X156774192Y-45103051D01*
X156775162Y-45110755D01*
X156830534Y-45698404D01*
X156831020Y-45706155D01*
X156849561Y-46298045D01*
X156849622Y-46301927D01*
X156849500Y-88834106D01*
X156849500Y-88898046D01*
X156849439Y-88901941D01*
X156830877Y-89492582D01*
X156830388Y-89500356D01*
X156774959Y-90086732D01*
X156773982Y-90094461D01*
X156681849Y-90676169D01*
X156680390Y-90683821D01*
X156551903Y-91258638D01*
X156549965Y-91266183D01*
X156385648Y-91831765D01*
X156383241Y-91839174D01*
X156183735Y-92393323D01*
X156180868Y-92400565D01*
X156038302Y-92730017D01*
X155993612Y-92783725D01*
X155926979Y-92804746D01*
X155859559Y-92786406D01*
X155812758Y-92734527D01*
X155800500Y-92680771D01*
X155800500Y-90531004D01*
X155773581Y-90395677D01*
X155773580Y-90395676D01*
X155773580Y-90395672D01*
X155753523Y-90347251D01*
X155720775Y-90268189D01*
X155644114Y-90153457D01*
X155644112Y-90153454D01*
X155644111Y-90153453D01*
X155121548Y-89630891D01*
X155088063Y-89569568D01*
X155093047Y-89499877D01*
X155121548Y-89455529D01*
X155408179Y-89168899D01*
X155771789Y-88805289D01*
X155859394Y-88674179D01*
X155919737Y-88528497D01*
X155950500Y-88373842D01*
X155950500Y-88216158D01*
X155950500Y-81321158D01*
X155948832Y-81312774D01*
X155946367Y-81300375D01*
X155946367Y-81300374D01*
X155928533Y-81210721D01*
X155919738Y-81166503D01*
X155859394Y-81020821D01*
X155859392Y-81020818D01*
X155859390Y-81020814D01*
X155771789Y-80889711D01*
X155771786Y-80889707D01*
X151410292Y-76528213D01*
X151410288Y-76528210D01*
X151279185Y-76440609D01*
X151279172Y-76440602D01*
X151133501Y-76380264D01*
X151133489Y-76380261D01*
X150978845Y-76349500D01*
X150978842Y-76349500D01*
X150821158Y-76349500D01*
X150821155Y-76349500D01*
X150666510Y-76380261D01*
X150666498Y-76380264D01*
X150520827Y-76440602D01*
X150520814Y-76440609D01*
X150389711Y-76528210D01*
X150389707Y-76528213D01*
X150278213Y-76639707D01*
X150278210Y-76639711D01*
X150190609Y-76770814D01*
X150190602Y-76770827D01*
X150130264Y-76916498D01*
X150130261Y-76916510D01*
X150099500Y-77071153D01*
X150099500Y-77228846D01*
X150130261Y-77383489D01*
X150130264Y-77383501D01*
X150190602Y-77529172D01*
X150190609Y-77529185D01*
X150278210Y-77660288D01*
X150278213Y-77660292D01*
X153630741Y-81012819D01*
X153664226Y-81074142D01*
X153659242Y-81143834D01*
X153617370Y-81199767D01*
X153551906Y-81224184D01*
X153543060Y-81224500D01*
X152916845Y-81224500D01*
X152916841Y-81224501D01*
X152780450Y-81239867D01*
X152607520Y-81300378D01*
X152452395Y-81397849D01*
X152322849Y-81527395D01*
X152225377Y-81682522D01*
X152189599Y-81784769D01*
X152172054Y-81834914D01*
X152164867Y-81855453D01*
X152164602Y-81857804D01*
X152164007Y-81859219D01*
X152163317Y-81862242D01*
X152162787Y-81862121D01*
X152137529Y-81922215D01*
X152079931Y-81961765D01*
X152010094Y-81963896D01*
X151950191Y-81927933D01*
X151929001Y-81896313D01*
X151900370Y-81834914D01*
X151900367Y-81834908D01*
X151777376Y-81659259D01*
X151777371Y-81659253D01*
X151625745Y-81507627D01*
X151450090Y-81384631D01*
X151313964Y-81321155D01*
X151255747Y-81294008D01*
X151255743Y-81294007D01*
X151255739Y-81294005D01*
X151048624Y-81238509D01*
X151048620Y-81238508D01*
X151048619Y-81238508D01*
X151048618Y-81238507D01*
X151048613Y-81238507D01*
X150835002Y-81219819D01*
X150834998Y-81219819D01*
X150621386Y-81238507D01*
X150621375Y-81238509D01*
X150414260Y-81294005D01*
X150414251Y-81294009D01*
X150219910Y-81384631D01*
X150219908Y-81384632D01*
X150044259Y-81507623D01*
X150044253Y-81507628D01*
X149892628Y-81659253D01*
X149892623Y-81659259D01*
X149769632Y-81834908D01*
X149769631Y-81834910D01*
X149679009Y-82029251D01*
X149679005Y-82029260D01*
X149623509Y-82236375D01*
X149623507Y-82236386D01*
X149604819Y-82449998D01*
X149604819Y-82450001D01*
X149623507Y-82663613D01*
X149623509Y-82663624D01*
X149679005Y-82870739D01*
X149679007Y-82870743D01*
X149679008Y-82870747D01*
X149724320Y-82967919D01*
X149769631Y-83065090D01*
X149769632Y-83065091D01*
X149892627Y-83240745D01*
X150044255Y-83392373D01*
X150219909Y-83515368D01*
X150400592Y-83599622D01*
X150417740Y-83607618D01*
X150470179Y-83653790D01*
X150489331Y-83720984D01*
X150469115Y-83787865D01*
X150417740Y-83832382D01*
X150219910Y-83924631D01*
X150219908Y-83924632D01*
X150044259Y-84047623D01*
X150044253Y-84047628D01*
X149892628Y-84199253D01*
X149892623Y-84199259D01*
X149769632Y-84374908D01*
X149769631Y-84374910D01*
X149679009Y-84569251D01*
X149679005Y-84569260D01*
X149623509Y-84776375D01*
X149623507Y-84776386D01*
X149604819Y-84989998D01*
X149604819Y-84990001D01*
X149623507Y-85203613D01*
X149623509Y-85203624D01*
X149679005Y-85410739D01*
X149679007Y-85410743D01*
X149679008Y-85410747D01*
X149724320Y-85507919D01*
X149769631Y-85605090D01*
X149769632Y-85605091D01*
X149892627Y-85780745D01*
X150044255Y-85932373D01*
X150200686Y-86041908D01*
X150219909Y-86055368D01*
X150417740Y-86147618D01*
X150470179Y-86193790D01*
X150489331Y-86260984D01*
X150469115Y-86327865D01*
X150417740Y-86372382D01*
X150219910Y-86464631D01*
X150219908Y-86464632D01*
X150044259Y-86587623D01*
X150044253Y-86587628D01*
X149892628Y-86739253D01*
X149892623Y-86739259D01*
X149769632Y-86914908D01*
X149769631Y-86914910D01*
X149679009Y-87109251D01*
X149679005Y-87109260D01*
X149623509Y-87316375D01*
X149623507Y-87316386D01*
X149604819Y-87529998D01*
X149604819Y-87530001D01*
X149623507Y-87743613D01*
X149623509Y-87743624D01*
X149679005Y-87950739D01*
X149679007Y-87950743D01*
X149679008Y-87950747D01*
X149715053Y-88028045D01*
X149769631Y-88145090D01*
X149769632Y-88145091D01*
X149892627Y-88320745D01*
X150044255Y-88472373D01*
X150124408Y-88528497D01*
X150219909Y-88595368D01*
X150417740Y-88687618D01*
X150470179Y-88733790D01*
X150489331Y-88800984D01*
X150469115Y-88867865D01*
X150417740Y-88912382D01*
X150219910Y-89004631D01*
X150219908Y-89004632D01*
X150044259Y-89127623D01*
X150044253Y-89127628D01*
X149892628Y-89279253D01*
X149892623Y-89279259D01*
X149769632Y-89454908D01*
X149769631Y-89454910D01*
X149679009Y-89649251D01*
X149679005Y-89649260D01*
X149623509Y-89856375D01*
X149623507Y-89856386D01*
X149604819Y-90069998D01*
X149604819Y-90070001D01*
X149623507Y-90283613D01*
X149623509Y-90283624D01*
X149679005Y-90490739D01*
X149679007Y-90490743D01*
X149679008Y-90490747D01*
X149693674Y-90522198D01*
X149769631Y-90685090D01*
X149784555Y-90706403D01*
X149892627Y-90860745D01*
X150044255Y-91012373D01*
X150125318Y-91069134D01*
X150219909Y-91135368D01*
X150417740Y-91227618D01*
X150470179Y-91273790D01*
X150489331Y-91340984D01*
X150469115Y-91407865D01*
X150417740Y-91452382D01*
X150219910Y-91544631D01*
X150219908Y-91544632D01*
X150044259Y-91667623D01*
X150044253Y-91667628D01*
X149892628Y-91819253D01*
X149892623Y-91819259D01*
X149769632Y-91994908D01*
X149769631Y-91994910D01*
X149679009Y-92189251D01*
X149679005Y-92189260D01*
X149623509Y-92396375D01*
X149623507Y-92396386D01*
X149604819Y-92609998D01*
X149604819Y-92610001D01*
X149623507Y-92823613D01*
X149623509Y-92823624D01*
X149679005Y-93030739D01*
X149679007Y-93030743D01*
X149679008Y-93030747D01*
X149704921Y-93086318D01*
X149769631Y-93225090D01*
X149892627Y-93400745D01*
X149893997Y-93402115D01*
X149894406Y-93402864D01*
X149896105Y-93404889D01*
X149895698Y-93405230D01*
X149927482Y-93463438D01*
X149922498Y-93533130D01*
X149893997Y-93577477D01*
X148358294Y-95113181D01*
X148296971Y-95146666D01*
X148270613Y-95149500D01*
X136429387Y-95149500D01*
X136362348Y-95129815D01*
X136341706Y-95113181D01*
X136161819Y-94933294D01*
X136128334Y-94871971D01*
X136125500Y-94845613D01*
X136125500Y-94247844D01*
X139300000Y-94247844D01*
X139306401Y-94307372D01*
X139306403Y-94307379D01*
X139356645Y-94442086D01*
X139356649Y-94442093D01*
X139442809Y-94557187D01*
X139442812Y-94557190D01*
X139557906Y-94643350D01*
X139557913Y-94643354D01*
X139692620Y-94693596D01*
X139692627Y-94693598D01*
X139752155Y-94699999D01*
X139752172Y-94700000D01*
X142050000Y-94700000D01*
X142550000Y-94700000D01*
X144847828Y-94700000D01*
X144847844Y-94699999D01*
X144907372Y-94693598D01*
X144907379Y-94693596D01*
X145042086Y-94643354D01*
X145042093Y-94643350D01*
X145157187Y-94557190D01*
X145157190Y-94557187D01*
X145243350Y-94442093D01*
X145243354Y-94442086D01*
X145293596Y-94307379D01*
X145293598Y-94307372D01*
X145299999Y-94247844D01*
X145300000Y-94247827D01*
X145300000Y-92950000D01*
X142550000Y-92950000D01*
X142550000Y-94700000D01*
X142050000Y-94700000D01*
X142050000Y-92950000D01*
X139300000Y-92950000D01*
X139300000Y-94247844D01*
X136125500Y-94247844D01*
X136125500Y-93099499D01*
X136145185Y-93032460D01*
X136197989Y-92986705D01*
X136249500Y-92975499D01*
X136306517Y-92975499D01*
X136306518Y-92975499D01*
X136400304Y-92960646D01*
X136468705Y-92925793D01*
X136537373Y-92912897D01*
X136581292Y-92925792D01*
X136611361Y-92941113D01*
X136649698Y-92960647D01*
X136743475Y-92975499D01*
X136743481Y-92975500D01*
X138206518Y-92975499D01*
X138300304Y-92960646D01*
X138413342Y-92903050D01*
X138503050Y-92813342D01*
X138560646Y-92700304D01*
X138560646Y-92700302D01*
X138560647Y-92700301D01*
X138571282Y-92633147D01*
X138575500Y-92606519D01*
X138575499Y-91174499D01*
X138595184Y-91107461D01*
X138647987Y-91061706D01*
X138699499Y-91050500D01*
X139176000Y-91050500D01*
X139243039Y-91070185D01*
X139288794Y-91122989D01*
X139300000Y-91174500D01*
X139300000Y-92450000D01*
X145300000Y-92450000D01*
X145300000Y-91152172D01*
X145299999Y-91152155D01*
X145293598Y-91092627D01*
X145293596Y-91092620D01*
X145243354Y-90957913D01*
X145243350Y-90957906D01*
X145157190Y-90842812D01*
X145157187Y-90842809D01*
X145042093Y-90756649D01*
X145042086Y-90756645D01*
X144907379Y-90706403D01*
X144907372Y-90706401D01*
X144847844Y-90700000D01*
X144144678Y-90700000D01*
X144077639Y-90680315D01*
X144031884Y-90627511D01*
X144021940Y-90558353D01*
X144032956Y-90522201D01*
X144092030Y-90399536D01*
X144140589Y-90218308D01*
X144154610Y-90031211D01*
X144133603Y-89844770D01*
X144078301Y-89665485D01*
X143990632Y-89499606D01*
X143873652Y-89352918D01*
X143873650Y-89352916D01*
X143873646Y-89352912D01*
X143788051Y-89279253D01*
X143731441Y-89230536D01*
X143714729Y-89220863D01*
X143713717Y-89220185D01*
X143712485Y-89219474D01*
X143712188Y-89219162D01*
X143701355Y-89211914D01*
X143700869Y-89211541D01*
X143702677Y-89209184D01*
X143664277Y-89168899D01*
X143653648Y-89125010D01*
X143651386Y-89125282D01*
X143651383Y-89125257D01*
X143650621Y-89112511D01*
X143650502Y-89112019D01*
X143650502Y-89110532D01*
X143650500Y-89110483D01*
X143650500Y-58186266D01*
X143670185Y-58119227D01*
X143722989Y-58073472D01*
X143792147Y-58063528D01*
X143855703Y-58092553D01*
X143884985Y-58129971D01*
X143975213Y-58307051D01*
X144104777Y-58485383D01*
X144104781Y-58485387D01*
X144104784Y-58485391D01*
X144260661Y-58641268D01*
X144264991Y-58645598D01*
X144265002Y-58645608D01*
X144678632Y-59059238D01*
X144678661Y-59059269D01*
X144841954Y-59222562D01*
X144841976Y-59222582D01*
X145578632Y-59959238D01*
X145578646Y-59959253D01*
X145581756Y-59962363D01*
X145581758Y-59962365D01*
X145737635Y-60118242D01*
X145737638Y-60118244D01*
X145737642Y-60118248D01*
X145863780Y-60209891D01*
X145915978Y-60247815D01*
X146036501Y-60309225D01*
X146112393Y-60347895D01*
X146112396Y-60347896D01*
X146200180Y-60376418D01*
X146322049Y-60416015D01*
X146539779Y-60450501D01*
X146539780Y-60450501D01*
X146765333Y-60450501D01*
X146765357Y-60450500D01*
X149801304Y-60450500D01*
X149868343Y-60470185D01*
X149914098Y-60522989D01*
X149924042Y-60592147D01*
X149895017Y-60655703D01*
X149888985Y-60662181D01*
X149816114Y-60735051D01*
X149683133Y-60924968D01*
X149683132Y-60924970D01*
X149585152Y-61135090D01*
X149585148Y-61135099D01*
X149530247Y-61340000D01*
X150344252Y-61340000D01*
X150322482Y-61377708D01*
X150285000Y-61517591D01*
X150285000Y-61662409D01*
X150322482Y-61802292D01*
X150344252Y-61840000D01*
X149530247Y-61840000D01*
X149585148Y-62044900D01*
X149585152Y-62044909D01*
X149683132Y-62255030D01*
X149816118Y-62444951D01*
X149980048Y-62608881D01*
X150169970Y-62741867D01*
X150169974Y-62741869D01*
X150182303Y-62747619D01*
X150234742Y-62793792D01*
X150253893Y-62860986D01*
X150233676Y-62927867D01*
X150182303Y-62972381D01*
X150169975Y-62978129D01*
X150169968Y-62978133D01*
X149980051Y-63111114D01*
X149816114Y-63275051D01*
X149683133Y-63464968D01*
X149683132Y-63464970D01*
X149585152Y-63675090D01*
X149585148Y-63675099D01*
X149530247Y-63880000D01*
X150344252Y-63880000D01*
X150322482Y-63917708D01*
X150285000Y-64057591D01*
X150285000Y-64202409D01*
X150322482Y-64342292D01*
X150344252Y-64380000D01*
X149530247Y-64380000D01*
X149585148Y-64584900D01*
X149585152Y-64584909D01*
X149683132Y-64795030D01*
X149816118Y-64984951D01*
X149980048Y-65148881D01*
X150169969Y-65281867D01*
X150300021Y-65342511D01*
X150352460Y-65388683D01*
X150371612Y-65455877D01*
X150351396Y-65522758D01*
X150300021Y-65567275D01*
X150219910Y-65604631D01*
X150219908Y-65604632D01*
X150044259Y-65727623D01*
X150044253Y-65727628D01*
X149892628Y-65879253D01*
X149892623Y-65879259D01*
X149769632Y-66054908D01*
X149769631Y-66054910D01*
X149679009Y-66249251D01*
X149679005Y-66249260D01*
X149623509Y-66456375D01*
X149623507Y-66456386D01*
X149604819Y-66669998D01*
X149604819Y-66670001D01*
X149623507Y-66883613D01*
X149623509Y-66883624D01*
X149679005Y-67090739D01*
X149679007Y-67090743D01*
X149679008Y-67090747D01*
X149724320Y-67187919D01*
X149769631Y-67285090D01*
X149769632Y-67285091D01*
X149892627Y-67460745D01*
X150044255Y-67612373D01*
X150056216Y-67620748D01*
X150219909Y-67735368D01*
X150417740Y-67827618D01*
X150470179Y-67873790D01*
X150489331Y-67940984D01*
X150469115Y-68007865D01*
X150417740Y-68052382D01*
X150219910Y-68144631D01*
X150219908Y-68144632D01*
X150044259Y-68267623D01*
X150044253Y-68267628D01*
X149892628Y-68419253D01*
X149892623Y-68419259D01*
X149769632Y-68594908D01*
X149769631Y-68594910D01*
X149679009Y-68789251D01*
X149679005Y-68789260D01*
X149623509Y-68996375D01*
X149623507Y-68996386D01*
X149604819Y-69209998D01*
X149604819Y-69210001D01*
X149623507Y-69423613D01*
X149623509Y-69423624D01*
X149679005Y-69630739D01*
X149679007Y-69630743D01*
X149679008Y-69630747D01*
X149724320Y-69727919D01*
X149769631Y-69825090D01*
X149769632Y-69825091D01*
X149892627Y-70000745D01*
X150044255Y-70152373D01*
X150219909Y-70275368D01*
X150414253Y-70365992D01*
X150621381Y-70421492D01*
X150773966Y-70434841D01*
X150834998Y-70440181D01*
X150835000Y-70440181D01*
X150835002Y-70440181D01*
X150888404Y-70435508D01*
X151048619Y-70421492D01*
X151255747Y-70365992D01*
X151450091Y-70275368D01*
X151625745Y-70152373D01*
X151777373Y-70000745D01*
X151900368Y-69825091D01*
X151990992Y-69630747D01*
X151990992Y-69630744D01*
X151992618Y-69627259D01*
X152038790Y-69574820D01*
X152105984Y-69555668D01*
X152172865Y-69575884D01*
X152217382Y-69627259D01*
X152219007Y-69630744D01*
X152219008Y-69630747D01*
X152309632Y-69825091D01*
X152432627Y-70000745D01*
X152584255Y-70152373D01*
X152759909Y-70275368D01*
X152954253Y-70365992D01*
X153161381Y-70421492D01*
X153313966Y-70434841D01*
X153374998Y-70440181D01*
X153375000Y-70440181D01*
X153375002Y-70440181D01*
X153428404Y-70435508D01*
X153588619Y-70421492D01*
X153795747Y-70365992D01*
X153990091Y-70275368D01*
X154165745Y-70152373D01*
X154317373Y-70000745D01*
X154440368Y-69825091D01*
X154530992Y-69630747D01*
X154586492Y-69423619D01*
X154605181Y-69210000D01*
X154586492Y-68996381D01*
X154530992Y-68789253D01*
X154440368Y-68594910D01*
X154432734Y-68584008D01*
X154317376Y-68419259D01*
X154317371Y-68419253D01*
X154165745Y-68267627D01*
X154162517Y-68265367D01*
X153990091Y-68144632D01*
X153795747Y-68054008D01*
X153795744Y-68054007D01*
X153792259Y-68052382D01*
X153739820Y-68006210D01*
X153720668Y-67939016D01*
X153740884Y-67872135D01*
X153792259Y-67827618D01*
X153795744Y-67825992D01*
X153795747Y-67825992D01*
X153990091Y-67735368D01*
X154165745Y-67612373D01*
X154317373Y-67460745D01*
X154440368Y-67285091D01*
X154530992Y-67090747D01*
X154586492Y-66883619D01*
X154605181Y-66670000D01*
X154586492Y-66456381D01*
X154530992Y-66249253D01*
X154440368Y-66054910D01*
X154432734Y-66044008D01*
X154317376Y-65879259D01*
X154317371Y-65879253D01*
X154165745Y-65727627D01*
X154162517Y-65725367D01*
X153990091Y-65604632D01*
X153909977Y-65567274D01*
X153857539Y-65521103D01*
X153838387Y-65453909D01*
X153858603Y-65387028D01*
X153909979Y-65342511D01*
X154040027Y-65281868D01*
X154040029Y-65281867D01*
X154229951Y-65148881D01*
X154393881Y-64984951D01*
X154526867Y-64795030D01*
X154624847Y-64584909D01*
X154624851Y-64584900D01*
X154679753Y-64380000D01*
X153865748Y-64380000D01*
X153887518Y-64342292D01*
X153925000Y-64202409D01*
X153925000Y-64057591D01*
X153887518Y-63917708D01*
X153865748Y-63880000D01*
X154679752Y-63880000D01*
X154624851Y-63675099D01*
X154624847Y-63675090D01*
X154526867Y-63464970D01*
X154526866Y-63464968D01*
X154393885Y-63275051D01*
X154229951Y-63111118D01*
X154040032Y-62978134D01*
X154027698Y-62972383D01*
X153975258Y-62926211D01*
X153956106Y-62859017D01*
X153976321Y-62792136D01*
X154027698Y-62747617D01*
X154040032Y-62741865D01*
X154229951Y-62608881D01*
X154393881Y-62444951D01*
X154526867Y-62255030D01*
X154624847Y-62044909D01*
X154624851Y-62044900D01*
X154679753Y-61840000D01*
X153865748Y-61840000D01*
X153887518Y-61802292D01*
X153925000Y-61662409D01*
X153925000Y-61517591D01*
X153887518Y-61377708D01*
X153865748Y-61340000D01*
X154679752Y-61340000D01*
X154624851Y-61135099D01*
X154624847Y-61135090D01*
X154526867Y-60924970D01*
X154526866Y-60924968D01*
X154393885Y-60735051D01*
X154229951Y-60571118D01*
X154040030Y-60438132D01*
X154006701Y-60422591D01*
X153954262Y-60376418D01*
X153935110Y-60309225D01*
X153955326Y-60242344D01*
X153986221Y-60209891D01*
X154112359Y-60118247D01*
X154112361Y-60118244D01*
X154112365Y-60118242D01*
X154268242Y-59962365D01*
X154397815Y-59784022D01*
X154497895Y-59587606D01*
X154566015Y-59377951D01*
X154579684Y-59291638D01*
X154582381Y-59278959D01*
X154586492Y-59263619D01*
X154589038Y-59234505D01*
X154590088Y-59225950D01*
X154600500Y-59160222D01*
X154600500Y-59108916D01*
X154600972Y-59098108D01*
X154605181Y-59050000D01*
X154605181Y-59049998D01*
X154600972Y-59001889D01*
X154600500Y-58991082D01*
X154600500Y-56568916D01*
X154600972Y-56558108D01*
X154605181Y-56510000D01*
X154605181Y-56509998D01*
X154600972Y-56461889D01*
X154600500Y-56451082D01*
X154600500Y-56399779D01*
X154590091Y-56334065D01*
X154589038Y-56325493D01*
X154586492Y-56296381D01*
X154582378Y-56281031D01*
X154579685Y-56268364D01*
X154566015Y-56182049D01*
X154497895Y-55972394D01*
X154497895Y-55972393D01*
X154463237Y-55904375D01*
X154397815Y-55775978D01*
X154381260Y-55753192D01*
X154268247Y-55597641D01*
X154268243Y-55597636D01*
X154112363Y-55441756D01*
X154112358Y-55441752D01*
X153972745Y-55340318D01*
X153930079Y-55284989D01*
X153924100Y-55215375D01*
X153956705Y-55153580D01*
X153972745Y-55139682D01*
X154112358Y-55038247D01*
X154112356Y-55038247D01*
X154112365Y-55038242D01*
X154268242Y-54882365D01*
X154397815Y-54704022D01*
X154497895Y-54507606D01*
X154566015Y-54297951D01*
X154579684Y-54211638D01*
X154582381Y-54198959D01*
X154586492Y-54183619D01*
X154589038Y-54154505D01*
X154590088Y-54145950D01*
X154600500Y-54080222D01*
X154600500Y-54028916D01*
X154600972Y-54018108D01*
X154602240Y-54003621D01*
X154605181Y-53970000D01*
X154600972Y-53921889D01*
X154600500Y-53911082D01*
X154600500Y-51488916D01*
X154600972Y-51478108D01*
X154605181Y-51430000D01*
X154605181Y-51429998D01*
X154600972Y-51381889D01*
X154600500Y-51371082D01*
X154600500Y-51319779D01*
X154590091Y-51254065D01*
X154589038Y-51245493D01*
X154586492Y-51216381D01*
X154582378Y-51201031D01*
X154579685Y-51188364D01*
X154566015Y-51102049D01*
X154553415Y-51063269D01*
X154497896Y-50892396D01*
X154497895Y-50892393D01*
X154462574Y-50823074D01*
X154397815Y-50695978D01*
X154318678Y-50587054D01*
X154268247Y-50517641D01*
X154268243Y-50517636D01*
X154112363Y-50361756D01*
X154112358Y-50361752D01*
X153972745Y-50260318D01*
X153930079Y-50204989D01*
X153924100Y-50135375D01*
X153956705Y-50073580D01*
X153972745Y-50059682D01*
X154112358Y-49958247D01*
X154112356Y-49958247D01*
X154112365Y-49958242D01*
X154268242Y-49802365D01*
X154397815Y-49624022D01*
X154497895Y-49427606D01*
X154566015Y-49217951D01*
X154579684Y-49131638D01*
X154582381Y-49118959D01*
X154586492Y-49103619D01*
X154589038Y-49074505D01*
X154590088Y-49065950D01*
X154600500Y-49000222D01*
X154600500Y-48948916D01*
X154600972Y-48938108D01*
X154605181Y-48890000D01*
X154605181Y-48889998D01*
X154600972Y-48841889D01*
X154600500Y-48831082D01*
X154600500Y-44888293D01*
X154620185Y-44821254D01*
X154631281Y-44806524D01*
X154631925Y-44805787D01*
X154631937Y-44805776D01*
X154783599Y-44608127D01*
X154908164Y-44392373D01*
X155003502Y-44162207D01*
X155067982Y-43921565D01*
X155100501Y-43674565D01*
X155100501Y-43425435D01*
X155067982Y-43178435D01*
X155003502Y-42937793D01*
X154908164Y-42707627D01*
X154783599Y-42491873D01*
X154631937Y-42294224D01*
X154631932Y-42294218D01*
X149685063Y-37347350D01*
X149685035Y-37347320D01*
X149610572Y-37272857D01*
X149577087Y-37211534D01*
X149582071Y-37141842D01*
X149623943Y-37085909D01*
X149689407Y-37061492D01*
X149733331Y-37066241D01*
G37*
%TD.AperFunction*%
%TA.AperFunction,Conductor*%
G36*
X152172864Y-64731321D02*
G01*
X152217383Y-64782698D01*
X152223134Y-64795032D01*
X152356118Y-64984951D01*
X152520048Y-65148881D01*
X152709969Y-65281867D01*
X152840021Y-65342511D01*
X152892460Y-65388683D01*
X152911612Y-65455877D01*
X152891396Y-65522758D01*
X152840021Y-65567275D01*
X152759910Y-65604631D01*
X152759908Y-65604632D01*
X152584259Y-65727623D01*
X152584253Y-65727628D01*
X152432628Y-65879253D01*
X152432623Y-65879259D01*
X152309632Y-66054908D01*
X152309631Y-66054910D01*
X152217382Y-66252740D01*
X152171210Y-66305179D01*
X152104016Y-66324331D01*
X152037135Y-66304115D01*
X151992618Y-66252740D01*
X151900368Y-66054910D01*
X151900367Y-66054908D01*
X151777376Y-65879259D01*
X151777371Y-65879253D01*
X151625745Y-65727627D01*
X151622517Y-65725367D01*
X151450091Y-65604632D01*
X151369977Y-65567274D01*
X151317539Y-65521103D01*
X151298387Y-65453909D01*
X151318603Y-65387028D01*
X151369979Y-65342511D01*
X151500027Y-65281868D01*
X151500029Y-65281867D01*
X151689951Y-65148881D01*
X151853881Y-64984951D01*
X151986865Y-64795032D01*
X151992617Y-64782698D01*
X152038789Y-64730258D01*
X152105983Y-64711106D01*
X152172864Y-64731321D01*
G37*
%TD.AperFunction*%
%TA.AperFunction,Conductor*%
G36*
X152862482Y-63917708D02*
G01*
X152825000Y-64057591D01*
X152825000Y-64202409D01*
X152862482Y-64342292D01*
X152884252Y-64380000D01*
X151325748Y-64380000D01*
X151347518Y-64342292D01*
X151385000Y-64202409D01*
X151385000Y-64057591D01*
X151347518Y-63917708D01*
X151325748Y-63880000D01*
X152884252Y-63880000D01*
X152862482Y-63917708D01*
G37*
%TD.AperFunction*%
%TA.AperFunction,Conductor*%
G36*
X151085000Y-63639252D02*
G01*
X151047292Y-63617482D01*
X150907409Y-63580000D01*
X150762591Y-63580000D01*
X150622708Y-63617482D01*
X150585000Y-63639252D01*
X150585000Y-62080747D01*
X150622708Y-62102518D01*
X150762591Y-62140000D01*
X150907409Y-62140000D01*
X151047292Y-62102518D01*
X151085000Y-62080747D01*
X151085000Y-63639252D01*
G37*
%TD.AperFunction*%
%TA.AperFunction,Conductor*%
G36*
X153625000Y-63639252D02*
G01*
X153587292Y-63617482D01*
X153447409Y-63580000D01*
X153302591Y-63580000D01*
X153162708Y-63617482D01*
X153125000Y-63639252D01*
X153125000Y-62080747D01*
X153162708Y-62102518D01*
X153302591Y-62140000D01*
X153447409Y-62140000D01*
X153587292Y-62102518D01*
X153625000Y-62080747D01*
X153625000Y-63639252D01*
G37*
%TD.AperFunction*%
%TA.AperFunction,Conductor*%
G36*
X152172864Y-62191321D02*
G01*
X152217383Y-62242698D01*
X152223134Y-62255032D01*
X152356118Y-62444951D01*
X152520048Y-62608881D01*
X152709970Y-62741867D01*
X152709974Y-62741869D01*
X152722303Y-62747619D01*
X152774742Y-62793792D01*
X152793893Y-62860986D01*
X152773676Y-62927867D01*
X152722303Y-62972381D01*
X152709975Y-62978129D01*
X152709968Y-62978133D01*
X152520051Y-63111114D01*
X152356114Y-63275051D01*
X152223133Y-63464968D01*
X152223129Y-63464975D01*
X152217381Y-63477303D01*
X152171208Y-63529742D01*
X152104014Y-63548893D01*
X152037133Y-63528676D01*
X151992619Y-63477303D01*
X151986870Y-63464975D01*
X151986866Y-63464968D01*
X151853885Y-63275051D01*
X151689951Y-63111118D01*
X151500032Y-62978134D01*
X151487698Y-62972383D01*
X151435258Y-62926211D01*
X151416106Y-62859017D01*
X151436321Y-62792136D01*
X151487698Y-62747617D01*
X151500032Y-62741865D01*
X151689951Y-62608881D01*
X151853881Y-62444951D01*
X151986865Y-62255032D01*
X151992617Y-62242698D01*
X152038789Y-62190258D01*
X152105983Y-62171106D01*
X152172864Y-62191321D01*
G37*
%TD.AperFunction*%
%TA.AperFunction,Conductor*%
G36*
X152862482Y-61377708D02*
G01*
X152825000Y-61517591D01*
X152825000Y-61662409D01*
X152862482Y-61802292D01*
X152884252Y-61840000D01*
X151325748Y-61840000D01*
X151347518Y-61802292D01*
X151385000Y-61662409D01*
X151385000Y-61517591D01*
X151347518Y-61377708D01*
X151325748Y-61340000D01*
X152884252Y-61340000D01*
X152862482Y-61377708D01*
G37*
%TD.AperFunction*%
%TA.AperFunction,Conductor*%
G36*
X152408343Y-60470185D02*
G01*
X152454098Y-60522989D01*
X152464042Y-60592147D01*
X152435017Y-60655703D01*
X152428985Y-60662181D01*
X152356114Y-60735051D01*
X152223133Y-60924968D01*
X152223129Y-60924975D01*
X152217381Y-60937303D01*
X152171208Y-60989742D01*
X152104014Y-61008893D01*
X152037133Y-60988676D01*
X151992619Y-60937303D01*
X151986870Y-60924975D01*
X151986866Y-60924968D01*
X151853885Y-60735051D01*
X151781015Y-60662181D01*
X151747530Y-60600858D01*
X151752514Y-60531166D01*
X151794386Y-60475233D01*
X151859850Y-60450816D01*
X151868696Y-60450500D01*
X152341304Y-60450500D01*
X152408343Y-60470185D01*
G37*
%TD.AperFunction*%
%TD*%
D21*
X124110000Y-91920000D03*
X125790000Y-91910000D03*
X127440000Y-91950000D03*
X127440000Y-93370000D03*
X124110000Y-93360000D03*
D22*
X122900000Y-87000000D03*
D21*
X125800000Y-93300000D03*
D22*
X122900000Y-85100000D03*
X122900000Y-83200000D03*
X150900000Y-77150000D03*
D21*
X121800000Y-62120000D03*
X121800000Y-64660000D03*
X121800000Y-67200000D03*
X121800000Y-69740000D03*
X121800000Y-72280000D03*
X153375000Y-46350000D03*
X150835000Y-46350000D03*
X153375000Y-48890000D03*
X150835000Y-48890000D03*
X153375000Y-51430000D03*
X150835000Y-51430000D03*
X153375000Y-53970000D03*
X150835000Y-53970000D03*
X153375000Y-56510000D03*
X150835000Y-56510000D03*
X153375000Y-59050000D03*
X150835000Y-59050000D03*
X153375000Y-61590000D03*
X150835000Y-61590000D03*
X153375000Y-64130000D03*
X150835000Y-64130000D03*
X153375000Y-66670000D03*
X150835000Y-66670000D03*
X153375000Y-69210000D03*
X150835000Y-69210000D03*
X153375000Y-82450000D03*
X150835000Y-82450000D03*
X153375000Y-84990000D03*
X150835000Y-84990000D03*
X153375000Y-87530000D03*
X150835000Y-87530000D03*
X153375000Y-90070000D03*
X150835000Y-90070000D03*
X153375000Y-92610000D03*
X150835000Y-92610000D03*
M02*
