G04 EAGLE Gerber X2 export*
%TF.Part,Single*%
%TF.FileFunction,Copper,L2,Inr,Mixed*%
%TF.FilePolarity,Positive*%
%TF.GenerationSoftware,Autodesk,EAGLE,9.4.2*%
%TF.CreationDate,2019-11-19T20:24:05Z*%
G75*
%MOMM*%
%FSLAX36Y36*%
%LPD*%
%INEAGLE Copper Layer 2*%
%AMOC8*
5,1,8,0,0,1.08239X$1,22.5*%
G01*
%ADD10C,1.300000*%
%ADD11C,1.416000*%
%ADD12C,2.100000*%
%ADD13C,2.000000*%
%ADD14C,1.900000*%
%ADD15C,0.604800*%

G36*
X15689341Y301516D02*
X15689341Y301516D01*
X15700194Y302319D01*
X15703391Y303503D01*
X15706753Y303978D01*
X15716663Y308419D01*
X15726866Y312197D01*
X15729603Y314216D01*
X15732706Y315606D01*
X15741003Y322625D01*
X15749753Y329078D01*
X15751822Y331775D01*
X15754419Y333972D01*
X15760447Y343019D01*
X15767063Y351641D01*
X15768303Y354806D01*
X15770191Y357638D01*
X15773478Y368003D01*
X15777444Y378119D01*
X15777759Y381503D01*
X15778788Y384747D01*
X15779072Y395619D01*
X15780078Y406434D01*
X15779444Y409775D01*
X15779531Y413178D01*
X15776794Y423700D01*
X15774763Y434372D01*
X15773228Y437403D01*
X15772369Y440700D01*
X15766816Y450063D01*
X15761909Y459744D01*
X15759784Y461909D01*
X15757856Y465159D01*
X15741641Y480403D01*
X15738309Y483797D01*
X15668234Y534703D01*
X15534700Y668238D01*
X15423663Y821072D01*
X15337922Y989344D01*
X15279550Y1168997D01*
X15267225Y1246800D01*
X16348384Y1246800D01*
X16354147Y1247616D01*
X16359966Y1247463D01*
X16368169Y1249597D01*
X16376544Y1250781D01*
X16381847Y1253156D01*
X16387488Y1254625D01*
X16394781Y1258953D01*
X16402497Y1262409D01*
X16406938Y1266166D01*
X16411947Y1269138D01*
X16417750Y1275313D01*
X16424209Y1280775D01*
X16427434Y1285613D01*
X16431425Y1289859D01*
X16435294Y1297406D01*
X16439981Y1304441D01*
X16441738Y1309981D01*
X16444397Y1315169D01*
X16445541Y1321972D01*
X16448578Y1331550D01*
X16448841Y1341600D01*
X16449984Y1348400D01*
X16449984Y1450013D01*
X16450013Y1450013D01*
X16450013Y1348400D01*
X16450828Y1342638D01*
X16450675Y1336819D01*
X16452809Y1328616D01*
X16453994Y1320241D01*
X16456369Y1314938D01*
X16457838Y1309297D01*
X16462166Y1302003D01*
X16465622Y1294288D01*
X16469378Y1289847D01*
X16472350Y1284838D01*
X16478525Y1279034D01*
X16483988Y1272575D01*
X16488825Y1269350D01*
X16493072Y1265359D01*
X16500619Y1261491D01*
X16507653Y1256803D01*
X16513194Y1255047D01*
X16518381Y1252388D01*
X16525184Y1251244D01*
X16534763Y1248206D01*
X16544813Y1247944D01*
X16551613Y1246800D01*
X17632772Y1246800D01*
X17620447Y1168997D01*
X17562075Y989344D01*
X17476334Y821072D01*
X17365297Y668238D01*
X17231763Y534703D01*
X17161688Y483797D01*
X17153875Y476238D01*
X17145578Y469222D01*
X17143688Y466388D01*
X17141247Y464025D01*
X17135841Y454613D01*
X17129806Y445556D01*
X17128778Y442309D01*
X17127084Y439363D01*
X17124497Y428816D01*
X17121209Y418447D01*
X17121122Y415047D01*
X17120309Y411741D01*
X17120750Y400866D01*
X17120466Y390016D01*
X17121322Y386725D01*
X17121459Y383325D01*
X17124891Y373009D01*
X17127628Y362494D01*
X17129363Y359569D01*
X17130438Y356341D01*
X17136591Y347391D01*
X17142141Y338034D01*
X17144625Y335700D01*
X17146547Y332903D01*
X17154919Y326022D01*
X17162863Y318556D01*
X17165897Y317000D01*
X17168519Y314847D01*
X17178475Y310553D01*
X17188172Y305584D01*
X17191172Y305081D01*
X17194634Y303588D01*
X17216728Y300784D01*
X17221403Y299997D01*
X20778591Y299997D01*
X20789338Y301516D01*
X20800191Y302319D01*
X20803388Y303503D01*
X20806750Y303978D01*
X20816644Y308413D01*
X20826859Y312194D01*
X20829603Y314216D01*
X20832703Y315606D01*
X20840994Y322619D01*
X20849747Y329075D01*
X20851819Y331775D01*
X20854416Y333972D01*
X20860438Y343006D01*
X20867059Y351638D01*
X20868303Y354809D01*
X20870188Y357638D01*
X20873469Y367988D01*
X20877441Y378116D01*
X20877756Y381503D01*
X20878784Y384747D01*
X20879069Y395619D01*
X20880075Y406434D01*
X20879441Y409775D01*
X20879528Y413178D01*
X20876791Y423700D01*
X20874759Y434372D01*
X20873222Y437403D01*
X20872366Y440700D01*
X20866819Y450050D01*
X20861909Y459741D01*
X20859781Y461909D01*
X20857853Y465159D01*
X20841603Y480434D01*
X20838306Y483794D01*
X20768244Y534694D01*
X20634700Y668238D01*
X20523663Y821072D01*
X20437922Y989344D01*
X20379550Y1168997D01*
X20367225Y1246800D01*
X21448384Y1246800D01*
X21454147Y1247616D01*
X21459966Y1247463D01*
X21468169Y1249597D01*
X21476544Y1250781D01*
X21481847Y1253156D01*
X21487488Y1254625D01*
X21494781Y1258953D01*
X21502497Y1262409D01*
X21506938Y1266166D01*
X21511947Y1269138D01*
X21517750Y1275313D01*
X21524209Y1280775D01*
X21527434Y1285613D01*
X21531425Y1289859D01*
X21535294Y1297406D01*
X21539981Y1304441D01*
X21541738Y1309981D01*
X21544397Y1315169D01*
X21545541Y1321972D01*
X21548578Y1331550D01*
X21548841Y1341600D01*
X21549984Y1348400D01*
X21549984Y1450013D01*
X21550013Y1450013D01*
X21550013Y1348400D01*
X21550828Y1342638D01*
X21550675Y1336819D01*
X21552809Y1328616D01*
X21553994Y1320241D01*
X21556369Y1314938D01*
X21557838Y1309297D01*
X21562166Y1302003D01*
X21565622Y1294288D01*
X21569378Y1289847D01*
X21572350Y1284838D01*
X21578525Y1279034D01*
X21583988Y1272575D01*
X21588825Y1269350D01*
X21593072Y1265359D01*
X21600619Y1261491D01*
X21607653Y1256803D01*
X21613194Y1255047D01*
X21618381Y1252388D01*
X21625184Y1251244D01*
X21634763Y1248206D01*
X21644813Y1247944D01*
X21651613Y1246800D01*
X22732772Y1246800D01*
X22720447Y1168997D01*
X22662075Y989344D01*
X22576334Y821072D01*
X22465297Y668238D01*
X22331753Y534694D01*
X22261691Y483794D01*
X22253884Y476244D01*
X22245581Y469222D01*
X22243697Y466394D01*
X22241247Y464025D01*
X22235822Y454578D01*
X22229809Y445556D01*
X22228784Y442322D01*
X22227084Y439363D01*
X22224491Y428788D01*
X22221213Y418447D01*
X22221125Y415050D01*
X22220313Y411741D01*
X22220753Y400866D01*
X22220469Y390016D01*
X22221325Y386725D01*
X22221463Y383325D01*
X22224891Y373028D01*
X22227631Y362494D01*
X22229372Y359559D01*
X22230444Y356341D01*
X22236588Y347400D01*
X22242144Y338034D01*
X22244625Y335703D01*
X22246550Y332900D01*
X22254947Y325997D01*
X22262866Y318556D01*
X22265891Y317006D01*
X22268522Y314844D01*
X22278500Y310544D01*
X22288175Y305584D01*
X22291175Y305081D01*
X22294638Y303588D01*
X22316722Y300784D01*
X22321406Y299997D01*
X33678591Y299997D01*
X33689338Y301516D01*
X33700191Y302319D01*
X33703388Y303503D01*
X33706750Y303978D01*
X33716644Y308413D01*
X33726859Y312194D01*
X33729603Y314216D01*
X33732703Y315606D01*
X33740994Y322619D01*
X33749747Y329075D01*
X33751819Y331775D01*
X33754416Y333972D01*
X33760438Y343006D01*
X33767059Y351638D01*
X33768303Y354809D01*
X33770188Y357638D01*
X33773469Y367988D01*
X33777441Y378116D01*
X33777756Y381503D01*
X33778784Y384747D01*
X33779069Y395619D01*
X33780075Y406434D01*
X33779441Y409775D01*
X33779528Y413178D01*
X33776791Y423700D01*
X33774759Y434372D01*
X33773222Y437403D01*
X33772366Y440700D01*
X33766819Y450050D01*
X33761909Y459741D01*
X33759781Y461909D01*
X33757853Y465159D01*
X33741603Y480434D01*
X33738306Y483794D01*
X33668244Y534694D01*
X33534700Y668238D01*
X33423663Y821072D01*
X33337922Y989344D01*
X33279550Y1168997D01*
X33267225Y1246800D01*
X34348384Y1246800D01*
X34354147Y1247616D01*
X34359966Y1247463D01*
X34368169Y1249597D01*
X34376544Y1250781D01*
X34381847Y1253156D01*
X34387488Y1254625D01*
X34394781Y1258953D01*
X34402497Y1262409D01*
X34406938Y1266166D01*
X34411947Y1269138D01*
X34417750Y1275313D01*
X34424209Y1280775D01*
X34427434Y1285613D01*
X34431425Y1289859D01*
X34435294Y1297406D01*
X34439981Y1304441D01*
X34441738Y1309981D01*
X34444397Y1315169D01*
X34445541Y1321972D01*
X34448578Y1331550D01*
X34448841Y1341600D01*
X34449984Y1348400D01*
X34449984Y1450013D01*
X34450013Y1450013D01*
X34450013Y1348400D01*
X34450828Y1342638D01*
X34450675Y1336819D01*
X34452809Y1328616D01*
X34453994Y1320241D01*
X34456369Y1314938D01*
X34457838Y1309297D01*
X34462166Y1302003D01*
X34465622Y1294288D01*
X34469378Y1289847D01*
X34472350Y1284838D01*
X34478525Y1279034D01*
X34483988Y1272575D01*
X34488825Y1269350D01*
X34493072Y1265359D01*
X34500619Y1261491D01*
X34507653Y1256803D01*
X34513194Y1255047D01*
X34518381Y1252388D01*
X34525184Y1251244D01*
X34534763Y1248206D01*
X34544813Y1247944D01*
X34551613Y1246800D01*
X35632772Y1246800D01*
X35620447Y1168997D01*
X35562075Y989344D01*
X35476334Y821072D01*
X35365297Y668238D01*
X35231753Y534694D01*
X35161691Y483794D01*
X35153884Y476244D01*
X35145581Y469222D01*
X35143697Y466394D01*
X35141247Y464025D01*
X35135822Y454578D01*
X35129809Y445556D01*
X35128784Y442322D01*
X35127084Y439363D01*
X35124491Y428788D01*
X35121213Y418447D01*
X35121125Y415050D01*
X35120313Y411741D01*
X35120753Y400866D01*
X35120469Y390016D01*
X35121325Y386725D01*
X35121463Y383325D01*
X35124891Y373028D01*
X35127631Y362494D01*
X35129372Y359559D01*
X35130444Y356341D01*
X35136588Y347400D01*
X35142144Y338034D01*
X35144625Y335703D01*
X35146550Y332900D01*
X35154947Y325997D01*
X35162866Y318556D01*
X35165891Y317006D01*
X35168522Y314844D01*
X35178500Y310544D01*
X35188175Y305584D01*
X35191175Y305081D01*
X35194638Y303588D01*
X35216722Y300784D01*
X35221406Y299997D01*
X38778591Y299997D01*
X38789338Y301516D01*
X38800191Y302319D01*
X38803388Y303503D01*
X38806750Y303978D01*
X38816644Y308413D01*
X38826859Y312194D01*
X38829603Y314216D01*
X38832703Y315606D01*
X38840994Y322619D01*
X38849747Y329075D01*
X38851819Y331775D01*
X38854416Y333972D01*
X38860438Y343006D01*
X38867059Y351638D01*
X38868303Y354809D01*
X38870188Y357638D01*
X38873469Y367988D01*
X38877441Y378116D01*
X38877756Y381503D01*
X38878784Y384747D01*
X38879069Y395619D01*
X38880075Y406434D01*
X38879441Y409775D01*
X38879528Y413178D01*
X38876791Y423700D01*
X38874759Y434372D01*
X38873222Y437403D01*
X38872366Y440700D01*
X38866819Y450050D01*
X38861909Y459741D01*
X38859781Y461909D01*
X38857853Y465159D01*
X38841603Y480434D01*
X38838306Y483794D01*
X38768244Y534694D01*
X38634700Y668238D01*
X38523663Y821072D01*
X38437922Y989344D01*
X38379550Y1168997D01*
X38367225Y1246800D01*
X39448384Y1246800D01*
X39454147Y1247616D01*
X39459966Y1247463D01*
X39468169Y1249597D01*
X39476544Y1250781D01*
X39481847Y1253156D01*
X39487488Y1254625D01*
X39494781Y1258953D01*
X39502497Y1262409D01*
X39506938Y1266166D01*
X39511947Y1269138D01*
X39517750Y1275313D01*
X39524209Y1280775D01*
X39527434Y1285613D01*
X39531425Y1289859D01*
X39535294Y1297406D01*
X39539981Y1304441D01*
X39541738Y1309981D01*
X39544397Y1315169D01*
X39545541Y1321972D01*
X39548578Y1331550D01*
X39548841Y1341600D01*
X39549984Y1348400D01*
X39549984Y1450013D01*
X39550013Y1450013D01*
X39550013Y1348400D01*
X39550828Y1342638D01*
X39550675Y1336819D01*
X39552809Y1328616D01*
X39553994Y1320241D01*
X39556369Y1314938D01*
X39557838Y1309297D01*
X39562166Y1302003D01*
X39565622Y1294288D01*
X39569378Y1289847D01*
X39572350Y1284838D01*
X39578525Y1279034D01*
X39583988Y1272575D01*
X39588825Y1269350D01*
X39593072Y1265359D01*
X39600619Y1261491D01*
X39607653Y1256803D01*
X39613194Y1255047D01*
X39618381Y1252388D01*
X39625184Y1251244D01*
X39634763Y1248206D01*
X39644813Y1247944D01*
X39651613Y1246800D01*
X40732772Y1246800D01*
X40720447Y1168997D01*
X40662075Y989344D01*
X40576334Y821072D01*
X40465297Y668238D01*
X40331753Y534694D01*
X40261691Y483794D01*
X40253884Y476244D01*
X40245581Y469222D01*
X40243697Y466394D01*
X40241247Y464025D01*
X40235822Y454578D01*
X40229809Y445556D01*
X40228784Y442322D01*
X40227084Y439363D01*
X40224491Y428788D01*
X40221213Y418447D01*
X40221125Y415050D01*
X40220313Y411741D01*
X40220753Y400866D01*
X40220469Y390016D01*
X40221325Y386725D01*
X40221463Y383325D01*
X40224891Y373028D01*
X40227631Y362494D01*
X40229372Y359559D01*
X40230444Y356341D01*
X40236588Y347400D01*
X40242144Y338034D01*
X40244625Y335703D01*
X40246550Y332900D01*
X40254947Y325997D01*
X40262866Y318556D01*
X40265891Y317006D01*
X40268522Y314844D01*
X40278500Y310544D01*
X40288175Y305584D01*
X40291175Y305081D01*
X40294638Y303588D01*
X40316722Y300784D01*
X40321406Y299997D01*
X56999997Y299997D01*
X57005584Y300788D01*
X57009953Y300488D01*
X57126697Y311984D01*
X57154331Y318703D01*
X57155000Y319084D01*
X57155622Y319228D01*
X57371334Y408581D01*
X57373956Y410128D01*
X57376844Y411059D01*
X57382353Y414984D01*
X57387316Y417206D01*
X57390463Y419869D01*
X57395828Y423034D01*
X57400278Y427747D01*
X57404294Y430606D01*
X57569391Y595703D01*
X57571216Y598131D01*
X57573534Y600100D01*
X57577669Y606706D01*
X57586491Y618428D01*
X57588797Y624478D01*
X57591416Y628663D01*
X57680769Y844375D01*
X57687869Y871913D01*
X57687847Y872688D01*
X57688013Y873300D01*
X57699509Y990041D01*
X57699272Y995666D01*
X57700000Y999997D01*
X57700000Y55544631D01*
X57699591Y55547522D01*
X57699834Y55550434D01*
X57697603Y55561575D01*
X57696019Y55572791D01*
X57694828Y55575450D01*
X57694253Y55578319D01*
X57689028Y55588394D01*
X57684391Y55598744D01*
X57682503Y55600975D01*
X57681159Y55603566D01*
X57673353Y55611794D01*
X57666025Y55620456D01*
X57663600Y55622072D01*
X57661584Y55624197D01*
X57651772Y55629953D01*
X57642359Y55636228D01*
X57639581Y55637109D01*
X57637056Y55638591D01*
X57626069Y55641394D01*
X57615250Y55644825D01*
X57612322Y55644903D01*
X57609500Y55645622D01*
X57598169Y55645272D01*
X57586819Y55645569D01*
X57583997Y55644834D01*
X57581075Y55644744D01*
X57570284Y55641266D01*
X57559297Y55638406D01*
X57556778Y55636913D01*
X57554006Y55636019D01*
X57547678Y55631513D01*
X57534838Y55623894D01*
X57530503Y55619281D01*
X57526556Y55616472D01*
X57496388Y55586300D01*
X57121606Y55586300D01*
X56856600Y55851306D01*
X56856600Y56226091D01*
X57121606Y56491097D01*
X57496388Y56491097D01*
X57526556Y56460925D01*
X57528891Y56459169D01*
X57530775Y56456941D01*
X57540209Y56450653D01*
X57549281Y56443828D01*
X57552013Y56442788D01*
X57554441Y56441169D01*
X57565241Y56437744D01*
X57575856Y56433697D01*
X57578769Y56433453D01*
X57581550Y56432572D01*
X57592888Y56432275D01*
X57604197Y56431331D01*
X57607063Y56431903D01*
X57609981Y56431828D01*
X57620975Y56434688D01*
X57632084Y56436913D01*
X57634672Y56438253D01*
X57637503Y56438991D01*
X57647278Y56444791D01*
X57657331Y56450003D01*
X57659447Y56452009D01*
X57661963Y56453503D01*
X57669750Y56461788D01*
X57677959Y56469578D01*
X57679434Y56472091D01*
X57681441Y56474225D01*
X57686631Y56484353D01*
X57692356Y56494106D01*
X57693078Y56496928D01*
X57694413Y56499534D01*
X57695706Y56507225D01*
X57699391Y56521659D01*
X57699197Y56527981D01*
X57700000Y56532766D01*
X57700000Y56973331D01*
X57699591Y56976222D01*
X57699834Y56979134D01*
X57697603Y56990275D01*
X57696019Y57001491D01*
X57694828Y57004150D01*
X57694253Y57007019D01*
X57689028Y57017094D01*
X57684391Y57027444D01*
X57682503Y57029675D01*
X57681159Y57032266D01*
X57673350Y57040497D01*
X57666025Y57049156D01*
X57663600Y57050772D01*
X57661584Y57052897D01*
X57651772Y57058653D01*
X57642359Y57064928D01*
X57639581Y57065809D01*
X57637056Y57067291D01*
X57626069Y57070094D01*
X57615250Y57073525D01*
X57612322Y57073603D01*
X57609500Y57074322D01*
X57598169Y57073972D01*
X57586819Y57074269D01*
X57583997Y57073534D01*
X57581075Y57073444D01*
X57570284Y57069966D01*
X57559297Y57067106D01*
X57556778Y57065613D01*
X57554006Y57064719D01*
X57547678Y57060213D01*
X57534838Y57052594D01*
X57530503Y57047981D01*
X57526556Y57045172D01*
X57496388Y57015000D01*
X57121606Y57015000D01*
X56856600Y57280006D01*
X56856600Y57654791D01*
X57121606Y57919797D01*
X57496388Y57919797D01*
X57526556Y57889625D01*
X57528891Y57887869D01*
X57530775Y57885641D01*
X57540209Y57879353D01*
X57549281Y57872528D01*
X57552013Y57871488D01*
X57554441Y57869869D01*
X57565241Y57866444D01*
X57575856Y57862397D01*
X57578769Y57862153D01*
X57581550Y57861272D01*
X57592888Y57860975D01*
X57604197Y57860031D01*
X57607063Y57860603D01*
X57609981Y57860528D01*
X57620975Y57863388D01*
X57632084Y57865613D01*
X57634672Y57866953D01*
X57637503Y57867691D01*
X57647278Y57873491D01*
X57657331Y57878703D01*
X57659447Y57880709D01*
X57661963Y57882203D01*
X57669750Y57890488D01*
X57677959Y57898278D01*
X57679434Y57900791D01*
X57681441Y57902925D01*
X57686631Y57913053D01*
X57692356Y57922806D01*
X57693078Y57925628D01*
X57694413Y57928234D01*
X57695706Y57935925D01*
X57699391Y57950359D01*
X57699197Y57956681D01*
X57700000Y57961466D01*
X57700000Y71999656D01*
X57698478Y72010425D01*
X57697675Y72021263D01*
X57696494Y72024450D01*
X57696019Y72027816D01*
X57691581Y72037722D01*
X57687800Y72047931D01*
X57685778Y72050672D01*
X57684391Y72053769D01*
X57677375Y72062063D01*
X57670916Y72070819D01*
X57668219Y72072888D01*
X57666025Y72075481D01*
X57656984Y72081506D01*
X57648353Y72088128D01*
X57645184Y72089369D01*
X57642359Y72091253D01*
X57631994Y72094541D01*
X57621875Y72098506D01*
X57618497Y72098822D01*
X57615250Y72099850D01*
X57604372Y72100134D01*
X57593556Y72101141D01*
X57590216Y72100506D01*
X57586819Y72100594D01*
X57576288Y72097853D01*
X57565619Y72095822D01*
X57562594Y72094291D01*
X57559297Y72093431D01*
X57549925Y72087872D01*
X57540250Y72082969D01*
X57538088Y72080847D01*
X57534838Y72078919D01*
X57519594Y72062703D01*
X57516197Y72059369D01*
X57500425Y72037656D01*
X57361331Y71898563D01*
X57202131Y71782897D01*
X57026847Y71693584D01*
X56839709Y71632781D01*
X56750194Y71618603D01*
X56750194Y72750384D01*
X56749378Y72756147D01*
X56749531Y72761966D01*
X56747397Y72770169D01*
X56746213Y72778544D01*
X56743838Y72783847D01*
X56742369Y72789488D01*
X56738041Y72796781D01*
X56734584Y72804497D01*
X56730828Y72808938D01*
X56727856Y72813947D01*
X56721681Y72819750D01*
X56716219Y72826209D01*
X56711381Y72829434D01*
X56707134Y72833425D01*
X56699588Y72837294D01*
X56692553Y72841981D01*
X56687013Y72843738D01*
X56681825Y72846397D01*
X56675022Y72847541D01*
X56665444Y72850578D01*
X56655394Y72850841D01*
X56648594Y72851984D01*
X56546984Y72851984D01*
X56546984Y72852013D01*
X56648594Y72852013D01*
X56654356Y72852828D01*
X56660175Y72852675D01*
X56668378Y72854809D01*
X56676753Y72855994D01*
X56682056Y72858369D01*
X56687697Y72859838D01*
X56694991Y72864166D01*
X56702706Y72867622D01*
X56707147Y72871378D01*
X56712156Y72874350D01*
X56717959Y72880525D01*
X56724419Y72885988D01*
X56727644Y72890825D01*
X56731634Y72895072D01*
X56735503Y72902619D01*
X56740191Y72909653D01*
X56741947Y72915194D01*
X56744606Y72920381D01*
X56745750Y72927184D01*
X56748788Y72936763D01*
X56749050Y72946813D01*
X56750194Y72953613D01*
X56750194Y74085394D01*
X56839709Y74071216D01*
X57026847Y74010413D01*
X57202131Y73921100D01*
X57361331Y73805434D01*
X57500425Y73666341D01*
X57516197Y73644628D01*
X57523766Y73636800D01*
X57530775Y73628516D01*
X57533603Y73626631D01*
X57535969Y73624184D01*
X57545413Y73618763D01*
X57554441Y73612744D01*
X57557675Y73611719D01*
X57560628Y73610022D01*
X57571188Y73607434D01*
X57581550Y73604147D01*
X57584956Y73604056D01*
X57588250Y73603250D01*
X57599097Y73603688D01*
X57609981Y73603403D01*
X57613275Y73604259D01*
X57616666Y73604397D01*
X57626963Y73607822D01*
X57637503Y73610566D01*
X57640431Y73612303D01*
X57643653Y73613375D01*
X57652597Y73619522D01*
X57661963Y73625078D01*
X57664297Y73627563D01*
X57667091Y73629481D01*
X57673978Y73637863D01*
X57681441Y73645800D01*
X57682994Y73648828D01*
X57685150Y73651453D01*
X57689453Y73661434D01*
X57694413Y73671109D01*
X57694916Y73674100D01*
X57696409Y73677566D01*
X57699216Y73699678D01*
X57700000Y73704341D01*
X57700000Y83999997D01*
X57699209Y84005584D01*
X57699509Y84009953D01*
X57688013Y84126697D01*
X57681294Y84154331D01*
X57680913Y84155000D01*
X57680769Y84155622D01*
X57591416Y84371334D01*
X57589869Y84373956D01*
X57588938Y84376844D01*
X57584428Y84383178D01*
X57576963Y84395828D01*
X57572250Y84400278D01*
X57569391Y84404294D01*
X57404294Y84569391D01*
X57401866Y84571216D01*
X57399897Y84573534D01*
X57393291Y84577669D01*
X57381569Y84586491D01*
X57375519Y84588797D01*
X57371334Y84591416D01*
X57155622Y84680769D01*
X57128084Y84687869D01*
X57127309Y84687847D01*
X57126697Y84688013D01*
X57009956Y84699509D01*
X57004331Y84699272D01*
X57000000Y84700000D01*
X8000000Y84700000D01*
X7994413Y84699209D01*
X7990044Y84699509D01*
X7873300Y84688013D01*
X7845666Y84681294D01*
X7844997Y84680913D01*
X7844375Y84680769D01*
X7628659Y84591416D01*
X7626038Y84589869D01*
X7623150Y84588938D01*
X7616816Y84584428D01*
X7604166Y84576963D01*
X7599716Y84572250D01*
X7595700Y84569391D01*
X7430606Y84404297D01*
X7428781Y84401869D01*
X7426463Y84399900D01*
X7422328Y84393294D01*
X7413506Y84381572D01*
X7411200Y84375522D01*
X7408581Y84371338D01*
X7319228Y84155625D01*
X7314994Y84139203D01*
X7314247Y84136847D01*
X7314231Y84136244D01*
X7312128Y84128088D01*
X7312150Y84127316D01*
X7311984Y84126703D01*
X7300488Y84009969D01*
X7300725Y84004341D01*
X7299997Y84000009D01*
X7299997Y78741413D01*
X7102078Y78263600D01*
X6736397Y77897919D01*
X6258584Y77700000D01*
X999991Y77700000D01*
X994403Y77699209D01*
X990031Y77699509D01*
X873297Y77688013D01*
X845666Y77681294D01*
X844997Y77680913D01*
X844375Y77680769D01*
X628663Y77591416D01*
X626041Y77589869D01*
X623153Y77588938D01*
X616819Y77584428D01*
X604169Y77576963D01*
X599719Y77572250D01*
X595703Y77569391D01*
X430606Y77404294D01*
X428781Y77401866D01*
X426463Y77399897D01*
X422328Y77393291D01*
X413506Y77381569D01*
X411200Y77375519D01*
X408581Y77371334D01*
X319228Y77155622D01*
X312128Y77128084D01*
X312150Y77127309D01*
X311984Y77126697D01*
X300488Y77009956D01*
X300725Y77004331D01*
X299997Y77000000D01*
X299997Y38015066D01*
X300409Y38012153D01*
X300166Y38009225D01*
X302394Y37998109D01*
X303978Y37986906D01*
X305178Y37984231D01*
X305756Y37981341D01*
X310981Y37971275D01*
X315606Y37960953D01*
X317506Y37958706D01*
X318859Y37956100D01*
X326650Y37947897D01*
X333972Y37939241D01*
X336419Y37937609D01*
X338444Y37935478D01*
X348213Y37929750D01*
X357638Y37923469D01*
X360441Y37922581D01*
X362975Y37921094D01*
X373944Y37918297D01*
X384747Y37914872D01*
X387684Y37914794D01*
X390534Y37914069D01*
X401872Y37914425D01*
X413178Y37914128D01*
X416019Y37914869D01*
X418959Y37914959D01*
X426513Y37917397D01*
X822391Y37917397D01*
X1087397Y37652391D01*
X1087397Y37277606D01*
X822391Y37012600D01*
X427822Y37012600D01*
X424178Y37013991D01*
X421250Y37014238D01*
X418447Y37015125D01*
X407131Y37015422D01*
X395838Y37016369D01*
X392950Y37015791D01*
X390016Y37015869D01*
X379044Y37013013D01*
X367950Y37010797D01*
X365347Y37009450D01*
X362494Y37008706D01*
X352725Y37002909D01*
X342697Y36997716D01*
X340569Y36995697D01*
X338034Y36994194D01*
X330259Y36985922D01*
X322059Y36978147D01*
X320569Y36975613D01*
X318556Y36973472D01*
X313391Y36963391D01*
X307653Y36953628D01*
X306925Y36950775D01*
X305584Y36948163D01*
X304294Y36940488D01*
X300609Y36926075D01*
X300803Y36919728D01*
X299997Y36914931D01*
X299997Y8000000D01*
X300788Y7994413D01*
X300488Y7990044D01*
X311984Y7873300D01*
X318703Y7845666D01*
X319084Y7844997D01*
X319228Y7844375D01*
X408581Y7628663D01*
X410128Y7626041D01*
X411059Y7623153D01*
X415569Y7616819D01*
X423034Y7604169D01*
X427747Y7599719D01*
X430606Y7595703D01*
X595703Y7430606D01*
X598131Y7428781D01*
X600100Y7426463D01*
X606706Y7422328D01*
X618428Y7413506D01*
X624478Y7411200D01*
X628663Y7408581D01*
X844375Y7319228D01*
X871913Y7312128D01*
X872688Y7312150D01*
X873300Y7311984D01*
X990041Y7300488D01*
X995666Y7300725D01*
X999997Y7299997D01*
X6258584Y7299997D01*
X6736397Y7102078D01*
X7102078Y6736397D01*
X7299997Y6258584D01*
X7299997Y1000000D01*
X7300788Y994413D01*
X7300488Y990044D01*
X7311984Y873300D01*
X7318703Y845666D01*
X7319084Y844997D01*
X7319228Y844375D01*
X7408581Y628663D01*
X7410128Y626041D01*
X7411059Y623153D01*
X7415569Y616819D01*
X7423034Y604169D01*
X7427747Y599719D01*
X7430606Y595703D01*
X7595703Y430606D01*
X7598131Y428781D01*
X7600100Y426463D01*
X7604425Y423756D01*
X7608253Y420156D01*
X7612447Y418006D01*
X7618428Y413506D01*
X7624478Y411200D01*
X7628663Y408581D01*
X7844375Y319228D01*
X7871913Y312128D01*
X7872688Y312150D01*
X7873300Y311984D01*
X7990041Y300488D01*
X7995666Y300725D01*
X7999997Y299997D01*
X15678594Y299997D01*
X15689341Y301516D01*
G37*
%LPC*%
G36*
X42697119Y73950000D02*
X42697119Y73950000D01*
X41980406Y74246872D01*
X41431872Y74795406D01*
X41135000Y75512119D01*
X41135000Y76287878D01*
X41431872Y77004591D01*
X41980406Y77553125D01*
X42697119Y77849997D01*
X43472878Y77849997D01*
X44189591Y77553125D01*
X44738125Y77004591D01*
X45034997Y76287878D01*
X45034997Y75512119D01*
X44738125Y74795406D01*
X44189591Y74246872D01*
X43472878Y73950000D01*
X42697119Y73950000D01*
G37*
%LPD*%
%LPC*%
G36*
X54127119Y73950000D02*
X54127119Y73950000D01*
X53410406Y74246872D01*
X52861872Y74795406D01*
X52565000Y75512119D01*
X52565000Y76287878D01*
X52861872Y77004591D01*
X53410406Y77553125D01*
X54127119Y77849997D01*
X54902878Y77849997D01*
X55619591Y77553125D01*
X56168125Y77004591D01*
X56464997Y76287878D01*
X56464997Y75512119D01*
X56168125Y74795406D01*
X55619591Y74246872D01*
X54902878Y73950000D01*
X54127119Y73950000D01*
G37*
%LPD*%
%LPC*%
G36*
X54622063Y40600000D02*
X54622063Y40600000D01*
X53923731Y40889259D01*
X53389259Y41423731D01*
X53100000Y42122063D01*
X53100000Y42877934D01*
X53389259Y43576266D01*
X53923731Y44110738D01*
X54622063Y44399997D01*
X55377934Y44399997D01*
X56076266Y44110738D01*
X56610738Y43576266D01*
X56899997Y42877934D01*
X56899997Y42122063D01*
X56610738Y41423731D01*
X56076266Y40889259D01*
X55377934Y40600000D01*
X54622063Y40600000D01*
G37*
%LPD*%
%LPC*%
G36*
X2622063Y9100000D02*
X2622063Y9100000D01*
X1923731Y9389259D01*
X1389259Y9923731D01*
X1100000Y10622063D01*
X1100000Y11377934D01*
X1389259Y12076266D01*
X1923731Y12610738D01*
X2622063Y12899997D01*
X3377934Y12899997D01*
X4076266Y12610738D01*
X4610738Y12076266D01*
X4899997Y11377934D01*
X4899997Y10622063D01*
X4610738Y9923731D01*
X4076266Y9389259D01*
X3377934Y9100000D01*
X2622063Y9100000D01*
G37*
%LPD*%
%LPC*%
G36*
X2622063Y72100000D02*
X2622063Y72100000D01*
X1923731Y72389259D01*
X1389259Y72923731D01*
X1100000Y73622063D01*
X1100000Y74377934D01*
X1389259Y75076266D01*
X1923731Y75610738D01*
X2622063Y75899997D01*
X3377934Y75899997D01*
X4076266Y75610738D01*
X4610738Y75076266D01*
X4899997Y74377934D01*
X4899997Y73622063D01*
X4610738Y72923731D01*
X4076266Y72389259D01*
X3377934Y72100000D01*
X2622063Y72100000D01*
G37*
%LPD*%
%LPC*%
G36*
X22672606Y54157600D02*
X22672606Y54157600D01*
X22407600Y54422606D01*
X22407600Y54691000D01*
X22406784Y54696763D01*
X22406938Y54702581D01*
X22404803Y54710784D01*
X22403619Y54719159D01*
X22401244Y54724463D01*
X22399775Y54730103D01*
X22395447Y54737397D01*
X22391991Y54745113D01*
X22388234Y54749553D01*
X22385263Y54754563D01*
X22379088Y54760366D01*
X22373625Y54766825D01*
X22368788Y54770050D01*
X22364541Y54774041D01*
X22356994Y54777909D01*
X22349959Y54782597D01*
X22344419Y54784353D01*
X22339231Y54787013D01*
X22332428Y54788156D01*
X22322850Y54791194D01*
X22312800Y54791456D01*
X22306000Y54792600D01*
X22037606Y54792600D01*
X21772600Y55057606D01*
X21772600Y55326000D01*
X21771784Y55331763D01*
X21771938Y55337581D01*
X21769803Y55345784D01*
X21768619Y55354159D01*
X21766244Y55359463D01*
X21764775Y55365103D01*
X21760447Y55372397D01*
X21756991Y55380113D01*
X21753234Y55384553D01*
X21750263Y55389563D01*
X21744088Y55395366D01*
X21738625Y55401825D01*
X21733788Y55405050D01*
X21729541Y55409041D01*
X21721994Y55412909D01*
X21714959Y55417597D01*
X21709419Y55419353D01*
X21704231Y55422013D01*
X21697428Y55423156D01*
X21687850Y55426194D01*
X21677800Y55426456D01*
X21671000Y55427600D01*
X21402606Y55427600D01*
X21137600Y55692606D01*
X21137600Y55961000D01*
X21136784Y55966763D01*
X21136938Y55972581D01*
X21134803Y55980778D01*
X21133619Y55989159D01*
X21131244Y55994463D01*
X21129775Y56000103D01*
X21125447Y56007397D01*
X21121991Y56015113D01*
X21118234Y56019553D01*
X21115263Y56024563D01*
X21109088Y56030366D01*
X21103625Y56036825D01*
X21098788Y56040050D01*
X21094541Y56044041D01*
X21086994Y56047909D01*
X21079959Y56052597D01*
X21074419Y56054353D01*
X21069231Y56057013D01*
X21062428Y56058156D01*
X21052850Y56061194D01*
X21042800Y56061456D01*
X21036000Y56062600D01*
X20767606Y56062600D01*
X20502600Y56327606D01*
X20502600Y56596000D01*
X20501784Y56601763D01*
X20501938Y56607581D01*
X20499803Y56615784D01*
X20498619Y56624159D01*
X20496244Y56629463D01*
X20494775Y56635103D01*
X20490447Y56642397D01*
X20486991Y56650113D01*
X20483234Y56654553D01*
X20480263Y56659563D01*
X20474088Y56665366D01*
X20468625Y56671825D01*
X20463788Y56675050D01*
X20459541Y56679041D01*
X20451994Y56682909D01*
X20444959Y56687597D01*
X20439419Y56689353D01*
X20434231Y56692013D01*
X20427428Y56693156D01*
X20417850Y56696194D01*
X20407800Y56696456D01*
X20401000Y56697600D01*
X20132606Y56697600D01*
X19867600Y56962606D01*
X19867600Y57231000D01*
X19866784Y57236763D01*
X19866938Y57242581D01*
X19864803Y57250784D01*
X19863619Y57259159D01*
X19861244Y57264463D01*
X19859775Y57270103D01*
X19855447Y57277397D01*
X19851991Y57285113D01*
X19848234Y57289553D01*
X19845263Y57294563D01*
X19839088Y57300366D01*
X19833625Y57306825D01*
X19828788Y57310050D01*
X19824541Y57314041D01*
X19816994Y57317909D01*
X19809959Y57322597D01*
X19804419Y57324353D01*
X19799231Y57327013D01*
X19792428Y57328156D01*
X19782850Y57331194D01*
X19772800Y57331456D01*
X19766000Y57332600D01*
X19497606Y57332600D01*
X19232600Y57597606D01*
X19232600Y57866000D01*
X19231784Y57871763D01*
X19231938Y57877581D01*
X19229803Y57885784D01*
X19228619Y57894159D01*
X19226244Y57899463D01*
X19224775Y57905103D01*
X19220447Y57912397D01*
X19216991Y57920113D01*
X19213234Y57924553D01*
X19210263Y57929563D01*
X19204088Y57935366D01*
X19198625Y57941825D01*
X19193788Y57945050D01*
X19189541Y57949041D01*
X19181994Y57952909D01*
X19174959Y57957597D01*
X19169419Y57959353D01*
X19164231Y57962013D01*
X19157428Y57963156D01*
X19147850Y57966194D01*
X19137800Y57966456D01*
X19131000Y57967600D01*
X18862606Y57967600D01*
X18597600Y58232606D01*
X18597600Y58501000D01*
X18596784Y58506763D01*
X18596938Y58512581D01*
X18594803Y58520778D01*
X18593619Y58529159D01*
X18591244Y58534463D01*
X18589775Y58540103D01*
X18585447Y58547397D01*
X18581991Y58555113D01*
X18578234Y58559553D01*
X18575263Y58564563D01*
X18569088Y58570366D01*
X18563625Y58576825D01*
X18558788Y58580050D01*
X18554541Y58584041D01*
X18546994Y58587909D01*
X18539959Y58592597D01*
X18534419Y58594353D01*
X18529231Y58597013D01*
X18522428Y58598156D01*
X18512850Y58601194D01*
X18502800Y58601456D01*
X18496000Y58602600D01*
X18227606Y58602600D01*
X17962600Y58867606D01*
X17962600Y59136000D01*
X17961784Y59141763D01*
X17961938Y59147581D01*
X17959803Y59155784D01*
X17958619Y59164159D01*
X17956244Y59169463D01*
X17954775Y59175103D01*
X17950447Y59182397D01*
X17946991Y59190113D01*
X17943234Y59194553D01*
X17940263Y59199563D01*
X17934088Y59205366D01*
X17928625Y59211825D01*
X17923788Y59215050D01*
X17919541Y59219041D01*
X17911994Y59222909D01*
X17904959Y59227597D01*
X17899419Y59229353D01*
X17894231Y59232013D01*
X17887428Y59233156D01*
X17877850Y59236194D01*
X17867800Y59236456D01*
X17861000Y59237600D01*
X17592606Y59237600D01*
X17327600Y59502606D01*
X17327600Y59877391D01*
X17592606Y60142397D01*
X17967391Y60142397D01*
X18232397Y59877391D01*
X18232397Y59608997D01*
X18233213Y59603234D01*
X18233059Y59597416D01*
X18235194Y59589213D01*
X18236378Y59580838D01*
X18238753Y59575534D01*
X18240222Y59569894D01*
X18244550Y59562600D01*
X18248006Y59554884D01*
X18251763Y59550444D01*
X18254734Y59545434D01*
X18260909Y59539631D01*
X18266372Y59533172D01*
X18271209Y59529947D01*
X18275456Y59525956D01*
X18283003Y59522088D01*
X18290038Y59517400D01*
X18295578Y59515644D01*
X18300766Y59512984D01*
X18307569Y59511841D01*
X18317147Y59508803D01*
X18327197Y59508541D01*
X18333997Y59507397D01*
X18602391Y59507397D01*
X18867397Y59242391D01*
X18867397Y58973997D01*
X18868213Y58968234D01*
X18868059Y58962416D01*
X18870194Y58954213D01*
X18871378Y58945838D01*
X18873753Y58940534D01*
X18875222Y58934894D01*
X18879550Y58927600D01*
X18883006Y58919884D01*
X18886763Y58915444D01*
X18889734Y58910434D01*
X18895909Y58904631D01*
X18901372Y58898172D01*
X18906209Y58894947D01*
X18910456Y58890956D01*
X18918003Y58887088D01*
X18925038Y58882400D01*
X18930578Y58880644D01*
X18935766Y58877984D01*
X18942569Y58876841D01*
X18952147Y58873803D01*
X18962197Y58873541D01*
X18968997Y58872397D01*
X19237391Y58872397D01*
X19502397Y58607391D01*
X19502397Y58338997D01*
X19503213Y58333234D01*
X19503059Y58327416D01*
X19505194Y58319213D01*
X19506378Y58310838D01*
X19508753Y58305534D01*
X19510222Y58299894D01*
X19514550Y58292600D01*
X19518006Y58284884D01*
X19521763Y58280444D01*
X19524734Y58275434D01*
X19530909Y58269631D01*
X19536372Y58263172D01*
X19541209Y58259947D01*
X19545456Y58255956D01*
X19553003Y58252088D01*
X19560038Y58247400D01*
X19565578Y58245644D01*
X19570766Y58242984D01*
X19577569Y58241841D01*
X19587147Y58238803D01*
X19597197Y58238541D01*
X19603997Y58237397D01*
X19872391Y58237397D01*
X20137397Y57972391D01*
X20137397Y57703997D01*
X20138213Y57698234D01*
X20138059Y57692416D01*
X20140194Y57684213D01*
X20141378Y57675838D01*
X20143753Y57670534D01*
X20145222Y57664894D01*
X20149550Y57657600D01*
X20153006Y57649884D01*
X20156763Y57645444D01*
X20159734Y57640434D01*
X20165909Y57634631D01*
X20171372Y57628172D01*
X20176209Y57624947D01*
X20180456Y57620956D01*
X20188003Y57617088D01*
X20195038Y57612400D01*
X20200578Y57610644D01*
X20205766Y57607984D01*
X20212569Y57606841D01*
X20222147Y57603803D01*
X20232197Y57603541D01*
X20238997Y57602397D01*
X20507391Y57602397D01*
X20772397Y57337391D01*
X20772397Y57068997D01*
X20773213Y57063234D01*
X20773059Y57057416D01*
X20775194Y57049213D01*
X20776378Y57040838D01*
X20778753Y57035534D01*
X20780222Y57029894D01*
X20784550Y57022600D01*
X20788006Y57014884D01*
X20791763Y57010444D01*
X20794734Y57005434D01*
X20800909Y56999631D01*
X20806372Y56993172D01*
X20811209Y56989947D01*
X20815456Y56985956D01*
X20823003Y56982088D01*
X20830038Y56977400D01*
X20835578Y56975644D01*
X20840766Y56972984D01*
X20847569Y56971841D01*
X20857147Y56968803D01*
X20867197Y56968541D01*
X20873997Y56967397D01*
X21142391Y56967397D01*
X21407397Y56702391D01*
X21407397Y56433997D01*
X21408213Y56428234D01*
X21408059Y56422416D01*
X21410194Y56414213D01*
X21411378Y56405838D01*
X21413753Y56400534D01*
X21415222Y56394894D01*
X21419550Y56387600D01*
X21423006Y56379884D01*
X21426763Y56375444D01*
X21429734Y56370434D01*
X21435909Y56364631D01*
X21441372Y56358172D01*
X21446209Y56354947D01*
X21450456Y56350956D01*
X21458003Y56347088D01*
X21465038Y56342400D01*
X21470578Y56340644D01*
X21475766Y56337984D01*
X21482569Y56336841D01*
X21492147Y56333803D01*
X21502197Y56333541D01*
X21508997Y56332397D01*
X21777391Y56332397D01*
X22042397Y56067391D01*
X22042397Y55798997D01*
X22043213Y55793234D01*
X22043059Y55787416D01*
X22045194Y55779213D01*
X22046378Y55770838D01*
X22048753Y55765534D01*
X22050222Y55759894D01*
X22054550Y55752600D01*
X22058006Y55744884D01*
X22061763Y55740444D01*
X22064734Y55735434D01*
X22070909Y55729631D01*
X22076372Y55723172D01*
X22081209Y55719947D01*
X22085456Y55715956D01*
X22093003Y55712088D01*
X22100038Y55707400D01*
X22105578Y55705644D01*
X22110766Y55702984D01*
X22117569Y55701841D01*
X22127147Y55698803D01*
X22137197Y55698541D01*
X22143997Y55697397D01*
X22412391Y55697397D01*
X22677397Y55432391D01*
X22677397Y55163997D01*
X22678213Y55158234D01*
X22678059Y55152416D01*
X22680194Y55144213D01*
X22681378Y55135838D01*
X22683753Y55130534D01*
X22685222Y55124894D01*
X22689550Y55117600D01*
X22693006Y55109884D01*
X22696763Y55105444D01*
X22699734Y55100434D01*
X22705909Y55094631D01*
X22711372Y55088172D01*
X22716209Y55084947D01*
X22720456Y55080956D01*
X22728003Y55077088D01*
X22735038Y55072400D01*
X22740578Y55070644D01*
X22745766Y55067984D01*
X22752569Y55066841D01*
X22762147Y55063803D01*
X22772197Y55063541D01*
X22778997Y55062397D01*
X23047391Y55062397D01*
X23312397Y54797391D01*
X23312397Y54422606D01*
X23047391Y54157600D01*
X22672606Y54157600D01*
G37*
%LPD*%
%LPC*%
G36*
X18741413Y2700000D02*
X18741413Y2700000D01*
X18263603Y2897916D01*
X17897916Y3263603D01*
X17700000Y3741413D01*
X17700000Y4258584D01*
X17897916Y4736394D01*
X18263603Y5102081D01*
X18741413Y5299997D01*
X19258584Y5299997D01*
X19736394Y5102081D01*
X20102081Y4736394D01*
X20299997Y4258584D01*
X20299997Y3741413D01*
X20102081Y3263603D01*
X19736394Y2897916D01*
X19258584Y2700000D01*
X18741413Y2700000D01*
G37*
%LPD*%
%LPC*%
G36*
X36741413Y2700000D02*
X36741413Y2700000D01*
X36263603Y2897916D01*
X35897916Y3263603D01*
X35700000Y3741413D01*
X35700000Y4258584D01*
X35897916Y4736394D01*
X36263603Y5102081D01*
X36741413Y5299997D01*
X37258584Y5299997D01*
X37736394Y5102081D01*
X38102081Y4736394D01*
X38299997Y4258584D01*
X38299997Y3741413D01*
X38102081Y3263603D01*
X37736394Y2897916D01*
X37258584Y2700000D01*
X36741413Y2700000D01*
G37*
%LPD*%
%LPC*%
G36*
X5845106Y52887600D02*
X5845106Y52887600D01*
X5580100Y53152606D01*
X5580100Y53363450D01*
X5579691Y53366341D01*
X5579934Y53369250D01*
X5577706Y53380388D01*
X5576119Y53391609D01*
X5574928Y53394269D01*
X5574353Y53397138D01*
X5569119Y53407231D01*
X5564491Y53417563D01*
X5562609Y53419788D01*
X5561263Y53422384D01*
X5553444Y53430622D01*
X5546125Y53439275D01*
X5543694Y53440894D01*
X5541684Y53443013D01*
X5531897Y53448756D01*
X5522459Y53455047D01*
X5519678Y53455928D01*
X5517156Y53457409D01*
X5506163Y53460216D01*
X5495350Y53463644D01*
X5492425Y53463719D01*
X5489603Y53464441D01*
X5478269Y53464091D01*
X5466919Y53464388D01*
X5464094Y53463653D01*
X5461175Y53463563D01*
X5450384Y53460084D01*
X5439397Y53457225D01*
X5436878Y53455731D01*
X5434106Y53454838D01*
X5427778Y53450331D01*
X5414938Y53442713D01*
X5410603Y53438100D01*
X5406656Y53435291D01*
X5223159Y53251791D01*
X4929128Y53130000D01*
X4610869Y53130000D01*
X4316831Y53251794D01*
X4091794Y53476831D01*
X3970000Y53770869D01*
X3970000Y54089128D01*
X4091794Y54383166D01*
X4316831Y54608203D01*
X4610869Y54729997D01*
X4929128Y54729997D01*
X5223166Y54608203D01*
X5448203Y54383166D01*
X5569997Y54089128D01*
X5569997Y53762566D01*
X5570406Y53759675D01*
X5570163Y53756766D01*
X5572400Y53745578D01*
X5573978Y53734406D01*
X5575169Y53731747D01*
X5575744Y53728878D01*
X5580969Y53718803D01*
X5585606Y53708453D01*
X5587494Y53706222D01*
X5588838Y53703631D01*
X5596638Y53695413D01*
X5603972Y53686741D01*
X5606403Y53685119D01*
X5608413Y53683003D01*
X5618200Y53677259D01*
X5627638Y53670969D01*
X5630419Y53670088D01*
X5632941Y53668606D01*
X5643928Y53665803D01*
X5654747Y53662372D01*
X5657675Y53662294D01*
X5660497Y53661575D01*
X5671828Y53661925D01*
X5683178Y53661628D01*
X5686000Y53662363D01*
X5688922Y53662453D01*
X5699713Y53665931D01*
X5710700Y53668791D01*
X5713219Y53670284D01*
X5715991Y53671178D01*
X5722319Y53675684D01*
X5735159Y53683303D01*
X5739494Y53687916D01*
X5743441Y53690725D01*
X5845109Y53792397D01*
X6113500Y53792397D01*
X6119263Y53793213D01*
X6125081Y53793059D01*
X6133284Y53795194D01*
X6141659Y53796378D01*
X6146963Y53798753D01*
X6152603Y53800222D01*
X6159897Y53804550D01*
X6167613Y53808006D01*
X6172053Y53811763D01*
X6177063Y53814734D01*
X6182866Y53820909D01*
X6189325Y53826372D01*
X6192550Y53831209D01*
X6196541Y53835456D01*
X6200409Y53843003D01*
X6205097Y53850038D01*
X6206853Y53855578D01*
X6209513Y53860766D01*
X6210656Y53867569D01*
X6213694Y53877147D01*
X6213956Y53887197D01*
X6215100Y53893997D01*
X6215100Y54162391D01*
X6480106Y54427397D01*
X6854891Y54427397D01*
X7119897Y54162391D01*
X7119897Y53787606D01*
X6854891Y53522600D01*
X6586497Y53522600D01*
X6580734Y53521784D01*
X6574916Y53521938D01*
X6566713Y53519803D01*
X6558338Y53518619D01*
X6553034Y53516244D01*
X6547394Y53514775D01*
X6540100Y53510447D01*
X6532384Y53506991D01*
X6527944Y53503234D01*
X6522934Y53500263D01*
X6517131Y53494088D01*
X6510672Y53488625D01*
X6507447Y53483788D01*
X6503456Y53479541D01*
X6499588Y53471994D01*
X6494900Y53464959D01*
X6493144Y53459419D01*
X6490484Y53454231D01*
X6489341Y53447428D01*
X6486303Y53437850D01*
X6486041Y53427800D01*
X6484897Y53421000D01*
X6484897Y53152606D01*
X6219891Y52887600D01*
X5845106Y52887600D01*
G37*
%LPD*%
%LPC*%
G36*
X32197606Y30186400D02*
X32197606Y30186400D01*
X31932600Y30451406D01*
X31932600Y30826191D01*
X32197606Y31091197D01*
X32466000Y31091197D01*
X32471763Y31092013D01*
X32477581Y31091859D01*
X32485784Y31093994D01*
X32494159Y31095178D01*
X32499463Y31097553D01*
X32505103Y31099022D01*
X32512397Y31103350D01*
X32520113Y31106806D01*
X32524553Y31110563D01*
X32529563Y31113534D01*
X32535366Y31119709D01*
X32541825Y31125172D01*
X32545050Y31130009D01*
X32549041Y31134256D01*
X32552909Y31141803D01*
X32557597Y31148838D01*
X32559353Y31154378D01*
X32562013Y31159566D01*
X32563156Y31166369D01*
X32566194Y31175947D01*
X32566456Y31185997D01*
X32567600Y31192797D01*
X32567600Y31461091D01*
X32832606Y31726097D01*
X33101000Y31726097D01*
X33106763Y31726913D01*
X33112581Y31726759D01*
X33120784Y31728894D01*
X33129159Y31730078D01*
X33134463Y31732453D01*
X33140103Y31733922D01*
X33147397Y31738250D01*
X33155113Y31741706D01*
X33159553Y31745463D01*
X33164563Y31748434D01*
X33170366Y31754609D01*
X33176825Y31760072D01*
X33180050Y31764909D01*
X33184041Y31769156D01*
X33187909Y31776703D01*
X33192597Y31783738D01*
X33194353Y31789278D01*
X33197013Y31794466D01*
X33198156Y31801269D01*
X33201194Y31810847D01*
X33201456Y31820897D01*
X33202600Y31827697D01*
X33202600Y32096091D01*
X33467606Y32361097D01*
X33842391Y32361097D01*
X34107397Y32096091D01*
X34107397Y31827697D01*
X34108213Y31821934D01*
X34108059Y31816116D01*
X34110194Y31807913D01*
X34111378Y31799538D01*
X34113753Y31794234D01*
X34115222Y31788594D01*
X34119550Y31781300D01*
X34123006Y31773584D01*
X34126763Y31769144D01*
X34129734Y31764134D01*
X34135909Y31758331D01*
X34141372Y31751872D01*
X34146209Y31748647D01*
X34150456Y31744656D01*
X34158003Y31740788D01*
X34165038Y31736100D01*
X34170578Y31734344D01*
X34175766Y31731684D01*
X34182569Y31730541D01*
X34192147Y31727503D01*
X34202197Y31727241D01*
X34208997Y31726097D01*
X34477391Y31726097D01*
X34742397Y31461091D01*
X34742397Y31341066D01*
X34742806Y31338172D01*
X34742563Y31335250D01*
X34744794Y31324122D01*
X34746378Y31312906D01*
X34747575Y31310234D01*
X34748150Y31307366D01*
X34753372Y31297300D01*
X34758006Y31286953D01*
X34759894Y31284722D01*
X34761244Y31282119D01*
X34769053Y31273894D01*
X34776372Y31265241D01*
X34778813Y31263616D01*
X34780825Y31261494D01*
X34790594Y31255763D01*
X34800038Y31249469D01*
X34802831Y31248584D01*
X34805353Y31247103D01*
X34816328Y31244303D01*
X34827147Y31240872D01*
X34830075Y31240794D01*
X34832909Y31240072D01*
X34844247Y31240425D01*
X34855578Y31240128D01*
X34858409Y31240866D01*
X34861334Y31240956D01*
X34872106Y31244428D01*
X34883100Y31247291D01*
X34885625Y31248788D01*
X34888403Y31249684D01*
X34888563Y31249797D01*
X35271191Y31249797D01*
X35536197Y30984791D01*
X35536197Y30610006D01*
X35271191Y30345000D01*
X34896406Y30345000D01*
X34631400Y30610006D01*
X34631400Y30730031D01*
X34630991Y30732925D01*
X34631234Y30735847D01*
X34629003Y30746975D01*
X34627419Y30758191D01*
X34626222Y30760863D01*
X34625647Y30763731D01*
X34620425Y30773797D01*
X34615791Y30784144D01*
X34613903Y30786375D01*
X34612553Y30788978D01*
X34604744Y30797203D01*
X34597425Y30805856D01*
X34594984Y30807481D01*
X34592972Y30809603D01*
X34583203Y30815334D01*
X34573759Y30821628D01*
X34570966Y30822513D01*
X34568444Y30823994D01*
X34557469Y30826794D01*
X34546650Y30830225D01*
X34543722Y30830303D01*
X34540888Y30831025D01*
X34529550Y30830672D01*
X34518219Y30830969D01*
X34515388Y30830231D01*
X34512463Y30830141D01*
X34501691Y30826669D01*
X34490697Y30823806D01*
X34488172Y30822309D01*
X34485394Y30821413D01*
X34485234Y30821300D01*
X34102606Y30821300D01*
X33837600Y31086306D01*
X33837600Y31354700D01*
X33836784Y31360463D01*
X33836938Y31366281D01*
X33834803Y31374484D01*
X33833619Y31382859D01*
X33831244Y31388163D01*
X33829775Y31393803D01*
X33825447Y31401097D01*
X33821991Y31408813D01*
X33818234Y31413253D01*
X33815263Y31418263D01*
X33809088Y31424066D01*
X33803625Y31430525D01*
X33798788Y31433750D01*
X33794541Y31437741D01*
X33786994Y31441609D01*
X33779959Y31446297D01*
X33774419Y31448053D01*
X33769231Y31450713D01*
X33762428Y31451856D01*
X33752850Y31454894D01*
X33742800Y31455156D01*
X33736000Y31456300D01*
X33573997Y31456300D01*
X33568234Y31455484D01*
X33562416Y31455638D01*
X33554213Y31453503D01*
X33545838Y31452319D01*
X33540534Y31449944D01*
X33534894Y31448475D01*
X33527600Y31444147D01*
X33519884Y31440691D01*
X33515444Y31436934D01*
X33510434Y31433963D01*
X33504631Y31427788D01*
X33498172Y31422325D01*
X33494947Y31417488D01*
X33490956Y31413241D01*
X33487088Y31405694D01*
X33482400Y31398659D01*
X33480644Y31393119D01*
X33477984Y31387931D01*
X33476841Y31381128D01*
X33473803Y31371550D01*
X33473541Y31361500D01*
X33472397Y31354700D01*
X33472397Y31086306D01*
X33207391Y30821300D01*
X32938997Y30821300D01*
X32933234Y30820484D01*
X32927416Y30820638D01*
X32919213Y30818503D01*
X32910838Y30817319D01*
X32905534Y30814944D01*
X32899894Y30813475D01*
X32892600Y30809147D01*
X32884884Y30805691D01*
X32880444Y30801934D01*
X32875434Y30798963D01*
X32869631Y30792788D01*
X32863172Y30787325D01*
X32859947Y30782488D01*
X32855956Y30778241D01*
X32852088Y30770694D01*
X32847400Y30763659D01*
X32845644Y30758119D01*
X32842984Y30752931D01*
X32841841Y30746128D01*
X32838803Y30736550D01*
X32838541Y30726500D01*
X32837397Y30719700D01*
X32837397Y30451406D01*
X32572391Y30186400D01*
X32197606Y30186400D01*
G37*
%LPD*%
%LPC*%
G36*
X29975106Y46855100D02*
X29975106Y46855100D01*
X29710100Y47120106D01*
X29710100Y47494891D01*
X29975106Y47759897D01*
X30243500Y47759897D01*
X30249263Y47760713D01*
X30255081Y47760559D01*
X30263284Y47762694D01*
X30271659Y47763878D01*
X30276963Y47766253D01*
X30282603Y47767722D01*
X30289897Y47772050D01*
X30297613Y47775506D01*
X30302053Y47779263D01*
X30307063Y47782234D01*
X30312866Y47788409D01*
X30319325Y47793872D01*
X30322550Y47798709D01*
X30326541Y47802956D01*
X30330409Y47810503D01*
X30335097Y47817538D01*
X30336853Y47823078D01*
X30339513Y47828266D01*
X30340656Y47835069D01*
X30343694Y47844647D01*
X30343956Y47854697D01*
X30345100Y47861497D01*
X30345100Y48129891D01*
X30610106Y48394897D01*
X30984891Y48394897D01*
X31249897Y48129891D01*
X31249897Y47861497D01*
X31250713Y47855734D01*
X31250559Y47849916D01*
X31252694Y47841713D01*
X31253878Y47833338D01*
X31256253Y47828034D01*
X31257722Y47822394D01*
X31262050Y47815100D01*
X31265506Y47807384D01*
X31269263Y47802944D01*
X31272234Y47797934D01*
X31278409Y47792131D01*
X31283872Y47785672D01*
X31288709Y47782447D01*
X31292956Y47778456D01*
X31300503Y47774588D01*
X31307538Y47769900D01*
X31313078Y47768144D01*
X31318266Y47765484D01*
X31325069Y47764341D01*
X31334647Y47761303D01*
X31344697Y47761041D01*
X31351497Y47759897D01*
X31513500Y47759897D01*
X31519263Y47760713D01*
X31525081Y47760559D01*
X31533284Y47762694D01*
X31541659Y47763878D01*
X31546963Y47766253D01*
X31552603Y47767722D01*
X31559897Y47772050D01*
X31567613Y47775506D01*
X31572053Y47779263D01*
X31577063Y47782234D01*
X31582866Y47788409D01*
X31589325Y47793872D01*
X31592550Y47798709D01*
X31596541Y47802956D01*
X31600409Y47810503D01*
X31605097Y47817538D01*
X31606853Y47823078D01*
X31609513Y47828266D01*
X31610656Y47835069D01*
X31613694Y47844647D01*
X31613956Y47854697D01*
X31615100Y47861497D01*
X31615100Y48129891D01*
X31880106Y48394897D01*
X32148500Y48394897D01*
X32154263Y48395713D01*
X32160081Y48395559D01*
X32168284Y48397694D01*
X32176659Y48398878D01*
X32181963Y48401253D01*
X32187603Y48402722D01*
X32194897Y48407050D01*
X32202613Y48410506D01*
X32207053Y48414263D01*
X32212063Y48417234D01*
X32217866Y48423409D01*
X32224325Y48428872D01*
X32227550Y48433709D01*
X32231541Y48437956D01*
X32235409Y48445503D01*
X32240097Y48452538D01*
X32241853Y48458078D01*
X32244513Y48463266D01*
X32245656Y48470069D01*
X32248694Y48479647D01*
X32248956Y48489697D01*
X32250100Y48496497D01*
X32250100Y48764891D01*
X32515106Y49029897D01*
X32889891Y49029897D01*
X33154897Y48764891D01*
X33154897Y48390106D01*
X32889891Y48125100D01*
X32621497Y48125100D01*
X32615734Y48124284D01*
X32609916Y48124438D01*
X32601713Y48122303D01*
X32593338Y48121119D01*
X32588034Y48118744D01*
X32582394Y48117275D01*
X32575100Y48112947D01*
X32567384Y48109491D01*
X32562944Y48105734D01*
X32557934Y48102763D01*
X32552131Y48096588D01*
X32545672Y48091125D01*
X32542447Y48086288D01*
X32538456Y48082041D01*
X32534588Y48074494D01*
X32529900Y48067459D01*
X32528144Y48061919D01*
X32525484Y48056731D01*
X32524341Y48049928D01*
X32521303Y48040350D01*
X32521041Y48030300D01*
X32519897Y48023500D01*
X32519897Y47755106D01*
X32254891Y47490100D01*
X31986497Y47490100D01*
X31980734Y47489284D01*
X31974916Y47489438D01*
X31966713Y47487303D01*
X31958338Y47486119D01*
X31953034Y47483744D01*
X31947394Y47482275D01*
X31940100Y47477947D01*
X31932384Y47474491D01*
X31927944Y47470734D01*
X31922934Y47467763D01*
X31917131Y47461588D01*
X31910672Y47456125D01*
X31907447Y47451288D01*
X31903456Y47447041D01*
X31899588Y47439494D01*
X31894900Y47432459D01*
X31893144Y47426919D01*
X31890484Y47421731D01*
X31889341Y47414928D01*
X31886303Y47405350D01*
X31886041Y47395300D01*
X31884897Y47388500D01*
X31884897Y47120106D01*
X31619891Y46855100D01*
X31245106Y46855100D01*
X30980100Y47120106D01*
X30980100Y47388500D01*
X30979284Y47394263D01*
X30979438Y47400081D01*
X30977303Y47408284D01*
X30976119Y47416659D01*
X30973744Y47421963D01*
X30972275Y47427603D01*
X30967947Y47434897D01*
X30964491Y47442613D01*
X30960734Y47447053D01*
X30957763Y47452063D01*
X30951588Y47457866D01*
X30946125Y47464325D01*
X30941288Y47467550D01*
X30937041Y47471541D01*
X30929494Y47475409D01*
X30922459Y47480097D01*
X30916919Y47481853D01*
X30911731Y47484513D01*
X30904928Y47485656D01*
X30895350Y47488694D01*
X30885300Y47488956D01*
X30878500Y47490100D01*
X30716497Y47490100D01*
X30710734Y47489284D01*
X30704916Y47489438D01*
X30696713Y47487303D01*
X30688338Y47486119D01*
X30683034Y47483744D01*
X30677394Y47482275D01*
X30670100Y47477947D01*
X30662384Y47474491D01*
X30657944Y47470734D01*
X30652934Y47467763D01*
X30647131Y47461588D01*
X30640672Y47456125D01*
X30637447Y47451288D01*
X30633456Y47447041D01*
X30629588Y47439494D01*
X30624900Y47432459D01*
X30623144Y47426919D01*
X30620484Y47421731D01*
X30619341Y47414928D01*
X30616303Y47405350D01*
X30616041Y47395300D01*
X30614897Y47388500D01*
X30614897Y47120106D01*
X30349891Y46855100D01*
X29975106Y46855100D01*
G37*
%LPD*%
%LPC*%
G36*
X15370106Y69715100D02*
X15370106Y69715100D01*
X15105100Y69980106D01*
X15105100Y70354891D01*
X15322119Y70571909D01*
X15325613Y70576553D01*
X15329841Y70580566D01*
X15334125Y70587866D01*
X15339219Y70594634D01*
X15341294Y70600078D01*
X15344238Y70605094D01*
X15346331Y70613294D01*
X15349347Y70621209D01*
X15349831Y70627016D01*
X15351269Y70632647D01*
X15351006Y70641103D01*
X15351713Y70649550D01*
X15350572Y70655256D01*
X15350391Y70661075D01*
X15347794Y70669134D01*
X15346131Y70677438D01*
X15343450Y70682609D01*
X15341666Y70688144D01*
X15337672Y70693753D01*
X15333041Y70702684D01*
X15326116Y70709981D01*
X15322119Y70715594D01*
X15105100Y70932609D01*
X15105100Y71307391D01*
X15322119Y71524409D01*
X15325613Y71529053D01*
X15329841Y71533066D01*
X15334125Y71540366D01*
X15339219Y71547134D01*
X15341294Y71552578D01*
X15344238Y71557594D01*
X15346331Y71565794D01*
X15349347Y71573709D01*
X15349831Y71579516D01*
X15351269Y71585147D01*
X15351006Y71593603D01*
X15351713Y71602050D01*
X15350572Y71607756D01*
X15350391Y71613575D01*
X15347794Y71621634D01*
X15346131Y71629938D01*
X15343450Y71635109D01*
X15341666Y71640644D01*
X15337672Y71646253D01*
X15333041Y71655184D01*
X15326116Y71662481D01*
X15322119Y71668094D01*
X15105100Y71885109D01*
X15105100Y72259888D01*
X15322119Y72476903D01*
X15325619Y72481553D01*
X15329841Y72485563D01*
X15334134Y72492875D01*
X15339216Y72499631D01*
X15341284Y72505056D01*
X15344238Y72510088D01*
X15346334Y72518303D01*
X15349347Y72526206D01*
X15349831Y72532009D01*
X15351269Y72537644D01*
X15351006Y72546100D01*
X15351713Y72554547D01*
X15350569Y72560253D01*
X15350391Y72566069D01*
X15347794Y72574125D01*
X15346131Y72582431D01*
X15343450Y72587603D01*
X15341666Y72593138D01*
X15337672Y72598747D01*
X15333041Y72607678D01*
X15326113Y72614978D01*
X15322119Y72620588D01*
X15105100Y72837606D01*
X15105100Y73212391D01*
X15370106Y73477397D01*
X15744891Y73477397D01*
X16009897Y73212391D01*
X16009897Y72837606D01*
X15792878Y72620588D01*
X15789384Y72615944D01*
X15785156Y72611931D01*
X15780872Y72604631D01*
X15775778Y72597863D01*
X15773703Y72592419D01*
X15770759Y72587403D01*
X15768666Y72579203D01*
X15765650Y72571288D01*
X15765166Y72565481D01*
X15763728Y72559850D01*
X15763991Y72551391D01*
X15763284Y72542947D01*
X15764425Y72537241D01*
X15764606Y72531422D01*
X15767203Y72523363D01*
X15768866Y72515059D01*
X15771547Y72509888D01*
X15773331Y72504353D01*
X15777325Y72498744D01*
X15781956Y72489813D01*
X15788881Y72482516D01*
X15792878Y72476903D01*
X16009897Y72259888D01*
X16009897Y71885109D01*
X15792878Y71668094D01*
X15789378Y71663444D01*
X15785156Y71659434D01*
X15780863Y71652122D01*
X15775781Y71645366D01*
X15773713Y71639941D01*
X15770759Y71634909D01*
X15768663Y71626694D01*
X15765650Y71618791D01*
X15765166Y71612988D01*
X15763728Y71607353D01*
X15763991Y71598897D01*
X15763284Y71590450D01*
X15764428Y71584744D01*
X15764606Y71578928D01*
X15767203Y71570872D01*
X15768866Y71562566D01*
X15771547Y71557394D01*
X15773331Y71551859D01*
X15777325Y71546250D01*
X15781956Y71537319D01*
X15788884Y71530019D01*
X15792878Y71524409D01*
X16009897Y71307391D01*
X16009897Y70932609D01*
X15792878Y70715594D01*
X15789378Y70710944D01*
X15785156Y70706934D01*
X15780863Y70699622D01*
X15775781Y70692866D01*
X15773713Y70687441D01*
X15770759Y70682409D01*
X15768663Y70674194D01*
X15765650Y70666291D01*
X15765166Y70660488D01*
X15763728Y70654853D01*
X15763991Y70646397D01*
X15763284Y70637950D01*
X15764428Y70632244D01*
X15764606Y70626428D01*
X15767203Y70618372D01*
X15768866Y70610066D01*
X15771547Y70604894D01*
X15773331Y70599359D01*
X15777325Y70593750D01*
X15781956Y70584819D01*
X15788884Y70577519D01*
X15792878Y70571909D01*
X16009897Y70354891D01*
X16009897Y69980106D01*
X15744891Y69715100D01*
X15370106Y69715100D01*
G37*
%LPD*%
%LPC*%
G36*
X32197606Y37012500D02*
X32197606Y37012500D01*
X31932600Y37277506D01*
X31932600Y37652291D01*
X32197606Y37917297D01*
X32572391Y37917297D01*
X32789409Y37700278D01*
X32794053Y37696784D01*
X32798066Y37692556D01*
X32805366Y37688272D01*
X32812134Y37683178D01*
X32817578Y37681103D01*
X32822594Y37678159D01*
X32830794Y37676066D01*
X32838709Y37673050D01*
X32844516Y37672566D01*
X32850147Y37671128D01*
X32858603Y37671391D01*
X32867050Y37670684D01*
X32872756Y37671825D01*
X32878575Y37672006D01*
X32886634Y37674603D01*
X32894938Y37676266D01*
X32900109Y37678947D01*
X32905644Y37680731D01*
X32911253Y37684725D01*
X32920184Y37689356D01*
X32927481Y37696281D01*
X32933094Y37700278D01*
X33150109Y37917297D01*
X33524888Y37917297D01*
X33741903Y37700278D01*
X33746553Y37696778D01*
X33750563Y37692556D01*
X33757875Y37688263D01*
X33764631Y37683181D01*
X33770056Y37681113D01*
X33775088Y37678159D01*
X33783303Y37676063D01*
X33791206Y37673050D01*
X33797009Y37672566D01*
X33802644Y37671128D01*
X33811100Y37671391D01*
X33819547Y37670684D01*
X33825253Y37671828D01*
X33831069Y37672006D01*
X33839125Y37674603D01*
X33847431Y37676266D01*
X33852603Y37678947D01*
X33858138Y37680731D01*
X33863747Y37684725D01*
X33872678Y37689356D01*
X33879978Y37696284D01*
X33885588Y37700278D01*
X34102606Y37917297D01*
X34477391Y37917297D01*
X34694409Y37700278D01*
X34699053Y37696784D01*
X34703066Y37692556D01*
X34710366Y37688272D01*
X34717134Y37683178D01*
X34722578Y37681103D01*
X34727594Y37678159D01*
X34735794Y37676066D01*
X34743709Y37673050D01*
X34749516Y37672566D01*
X34755147Y37671128D01*
X34763603Y37671391D01*
X34772050Y37670684D01*
X34777756Y37671825D01*
X34783575Y37672006D01*
X34791634Y37674603D01*
X34799938Y37676266D01*
X34805109Y37678947D01*
X34810644Y37680731D01*
X34816253Y37684725D01*
X34825184Y37689356D01*
X34832481Y37696281D01*
X34838094Y37700278D01*
X35055109Y37917297D01*
X35429891Y37917297D01*
X35694897Y37652291D01*
X35694897Y37277506D01*
X35429891Y37012500D01*
X35055109Y37012500D01*
X34838094Y37229519D01*
X34833444Y37233019D01*
X34829434Y37237241D01*
X34822122Y37241534D01*
X34815366Y37246616D01*
X34809941Y37248684D01*
X34804909Y37251638D01*
X34796694Y37253734D01*
X34788791Y37256747D01*
X34782988Y37257231D01*
X34777353Y37258669D01*
X34768897Y37258406D01*
X34760450Y37259113D01*
X34754744Y37257969D01*
X34748928Y37257791D01*
X34740872Y37255194D01*
X34732566Y37253531D01*
X34727394Y37250850D01*
X34721859Y37249066D01*
X34716250Y37245072D01*
X34707319Y37240441D01*
X34700019Y37233513D01*
X34694409Y37229519D01*
X34477391Y37012500D01*
X34102606Y37012500D01*
X33885588Y37229519D01*
X33880944Y37233013D01*
X33876931Y37237241D01*
X33869631Y37241525D01*
X33862863Y37246619D01*
X33857419Y37248694D01*
X33852403Y37251638D01*
X33844203Y37253731D01*
X33836288Y37256747D01*
X33830481Y37257231D01*
X33824850Y37258669D01*
X33816394Y37258406D01*
X33807947Y37259113D01*
X33802241Y37257972D01*
X33796422Y37257791D01*
X33788363Y37255194D01*
X33780059Y37253531D01*
X33774888Y37250850D01*
X33769353Y37249066D01*
X33763744Y37245072D01*
X33754813Y37240441D01*
X33747516Y37233516D01*
X33741903Y37229519D01*
X33524888Y37012500D01*
X33150109Y37012500D01*
X32933094Y37229519D01*
X32928444Y37233019D01*
X32924434Y37237241D01*
X32917122Y37241534D01*
X32910366Y37246616D01*
X32904941Y37248684D01*
X32899909Y37251638D01*
X32891694Y37253734D01*
X32883791Y37256747D01*
X32877988Y37257231D01*
X32872353Y37258669D01*
X32863897Y37258406D01*
X32855450Y37259113D01*
X32849744Y37257969D01*
X32843928Y37257791D01*
X32835872Y37255194D01*
X32827566Y37253531D01*
X32822394Y37250850D01*
X32816859Y37249066D01*
X32811250Y37245072D01*
X32802319Y37240441D01*
X32795019Y37233513D01*
X32789409Y37229519D01*
X32572391Y37012500D01*
X32197606Y37012500D01*
G37*
%LPD*%
%LPC*%
G36*
X15211306Y36377600D02*
X15211306Y36377600D01*
X14946300Y36642606D01*
X14946300Y37017391D01*
X15211306Y37282397D01*
X15586088Y37282397D01*
X15803103Y37065378D01*
X15807753Y37061878D01*
X15811763Y37057656D01*
X15819075Y37053363D01*
X15825831Y37048281D01*
X15831256Y37046213D01*
X15836288Y37043259D01*
X15844503Y37041163D01*
X15852406Y37038150D01*
X15858209Y37037666D01*
X15863844Y37036228D01*
X15872300Y37036491D01*
X15880747Y37035784D01*
X15886453Y37036928D01*
X15892269Y37037106D01*
X15900325Y37039703D01*
X15908631Y37041366D01*
X15913803Y37044047D01*
X15919338Y37045831D01*
X15924947Y37049825D01*
X15933878Y37054456D01*
X15941178Y37061384D01*
X15946788Y37065378D01*
X16163806Y37282397D01*
X16538591Y37282397D01*
X16755609Y37065378D01*
X16760253Y37061884D01*
X16764266Y37057656D01*
X16771566Y37053372D01*
X16778334Y37048278D01*
X16783778Y37046203D01*
X16788794Y37043259D01*
X16796994Y37041166D01*
X16804909Y37038150D01*
X16810716Y37037666D01*
X16816347Y37036228D01*
X16824803Y37036491D01*
X16833250Y37035784D01*
X16838956Y37036925D01*
X16844775Y37037106D01*
X16852834Y37039703D01*
X16861138Y37041366D01*
X16866309Y37044047D01*
X16871844Y37045831D01*
X16877453Y37049825D01*
X16886384Y37054456D01*
X16893681Y37061381D01*
X16899294Y37065378D01*
X17116309Y37282397D01*
X17491091Y37282397D01*
X17708109Y37065378D01*
X17712753Y37061884D01*
X17716766Y37057656D01*
X17724066Y37053372D01*
X17730834Y37048278D01*
X17736278Y37046203D01*
X17741294Y37043259D01*
X17749494Y37041166D01*
X17757409Y37038150D01*
X17763216Y37037666D01*
X17768847Y37036228D01*
X17777303Y37036491D01*
X17785750Y37035784D01*
X17791456Y37036925D01*
X17797275Y37037106D01*
X17805334Y37039703D01*
X17813638Y37041366D01*
X17818809Y37044047D01*
X17824344Y37045831D01*
X17829953Y37049825D01*
X17838884Y37054456D01*
X17846181Y37061381D01*
X17851794Y37065378D01*
X18068809Y37282397D01*
X18443591Y37282397D01*
X18708597Y37017391D01*
X18708597Y36642606D01*
X18443591Y36377600D01*
X18068809Y36377600D01*
X17851794Y36594619D01*
X17847144Y36598119D01*
X17843134Y36602341D01*
X17835822Y36606634D01*
X17829066Y36611716D01*
X17823641Y36613784D01*
X17818609Y36616738D01*
X17810394Y36618834D01*
X17802491Y36621847D01*
X17796688Y36622331D01*
X17791053Y36623769D01*
X17782597Y36623506D01*
X17774150Y36624213D01*
X17768444Y36623069D01*
X17762628Y36622891D01*
X17754572Y36620294D01*
X17746266Y36618631D01*
X17741094Y36615950D01*
X17735559Y36614166D01*
X17729950Y36610172D01*
X17721019Y36605541D01*
X17713719Y36598613D01*
X17708109Y36594619D01*
X17491091Y36377600D01*
X17116309Y36377600D01*
X16899294Y36594619D01*
X16894644Y36598119D01*
X16890634Y36602341D01*
X16883322Y36606634D01*
X16876566Y36611716D01*
X16871141Y36613784D01*
X16866109Y36616738D01*
X16857894Y36618834D01*
X16849991Y36621847D01*
X16844188Y36622331D01*
X16838553Y36623769D01*
X16830097Y36623506D01*
X16821650Y36624213D01*
X16815944Y36623069D01*
X16810128Y36622891D01*
X16802072Y36620294D01*
X16793766Y36618631D01*
X16788594Y36615950D01*
X16783059Y36614166D01*
X16777450Y36610172D01*
X16768519Y36605541D01*
X16761219Y36598613D01*
X16755609Y36594619D01*
X16538591Y36377600D01*
X16163806Y36377600D01*
X15946788Y36594619D01*
X15942144Y36598113D01*
X15938131Y36602341D01*
X15930831Y36606625D01*
X15924063Y36611719D01*
X15918619Y36613794D01*
X15913603Y36616738D01*
X15905403Y36618831D01*
X15897488Y36621847D01*
X15891681Y36622331D01*
X15886050Y36623769D01*
X15877594Y36623506D01*
X15869147Y36624213D01*
X15863441Y36623072D01*
X15857622Y36622891D01*
X15849563Y36620294D01*
X15841259Y36618631D01*
X15836088Y36615950D01*
X15830553Y36614166D01*
X15824944Y36610172D01*
X15816013Y36605541D01*
X15808716Y36598616D01*
X15803103Y36594619D01*
X15586088Y36377600D01*
X15211306Y36377600D01*
G37*
%LPD*%
%LPC*%
G36*
X49977606Y54475100D02*
X49977606Y54475100D01*
X49712600Y54740106D01*
X49712600Y55114891D01*
X49929619Y55331909D01*
X49933113Y55336553D01*
X49937341Y55340566D01*
X49941625Y55347866D01*
X49946719Y55354634D01*
X49948794Y55360078D01*
X49951738Y55365094D01*
X49953831Y55373294D01*
X49956847Y55381209D01*
X49957331Y55387016D01*
X49958769Y55392647D01*
X49958506Y55401103D01*
X49959213Y55409550D01*
X49958072Y55415256D01*
X49957891Y55421075D01*
X49955294Y55429134D01*
X49953631Y55437438D01*
X49950950Y55442609D01*
X49949166Y55448144D01*
X49945172Y55453753D01*
X49940541Y55462684D01*
X49933616Y55469981D01*
X49929619Y55475594D01*
X49712600Y55692609D01*
X49712600Y56067391D01*
X49929619Y56284409D01*
X49933113Y56289053D01*
X49937341Y56293066D01*
X49941625Y56300366D01*
X49946719Y56307134D01*
X49948794Y56312578D01*
X49951738Y56317594D01*
X49953831Y56325794D01*
X49956847Y56333709D01*
X49957331Y56339516D01*
X49958769Y56345147D01*
X49958506Y56353603D01*
X49959213Y56362050D01*
X49958072Y56367756D01*
X49957891Y56373575D01*
X49955294Y56381634D01*
X49953631Y56389938D01*
X49950950Y56395109D01*
X49949166Y56400644D01*
X49945172Y56406253D01*
X49940541Y56415184D01*
X49933616Y56422481D01*
X49929619Y56428094D01*
X49712600Y56645109D01*
X49712600Y57019891D01*
X49929619Y57236909D01*
X49933113Y57241553D01*
X49937341Y57245566D01*
X49941625Y57252866D01*
X49946719Y57259634D01*
X49948794Y57265078D01*
X49951738Y57270094D01*
X49953831Y57278294D01*
X49956847Y57286209D01*
X49957331Y57292009D01*
X49958769Y57297647D01*
X49958506Y57306103D01*
X49959213Y57314550D01*
X49958072Y57320256D01*
X49957891Y57326075D01*
X49955294Y57334134D01*
X49953631Y57342438D01*
X49950950Y57347609D01*
X49949166Y57353144D01*
X49945172Y57358753D01*
X49940541Y57367684D01*
X49933616Y57374981D01*
X49929619Y57380594D01*
X49712600Y57597609D01*
X49712600Y57972391D01*
X49977606Y58237397D01*
X50352391Y58237397D01*
X50617397Y57972391D01*
X50617397Y57597609D01*
X50400378Y57380594D01*
X50396878Y57375944D01*
X50392656Y57371934D01*
X50388363Y57364622D01*
X50383281Y57357866D01*
X50381213Y57352441D01*
X50378259Y57347409D01*
X50376163Y57339194D01*
X50373150Y57331291D01*
X50372666Y57325488D01*
X50371228Y57319853D01*
X50371491Y57311397D01*
X50370784Y57302950D01*
X50371928Y57297244D01*
X50372106Y57291428D01*
X50374703Y57283372D01*
X50376366Y57275066D01*
X50379047Y57269894D01*
X50380831Y57264359D01*
X50384825Y57258750D01*
X50389456Y57249819D01*
X50396384Y57242519D01*
X50400378Y57236909D01*
X50617397Y57019891D01*
X50617397Y56645109D01*
X50400378Y56428094D01*
X50396878Y56423444D01*
X50392656Y56419434D01*
X50388363Y56412122D01*
X50383281Y56405366D01*
X50381213Y56399941D01*
X50378259Y56394909D01*
X50376163Y56386694D01*
X50373150Y56378791D01*
X50372666Y56372988D01*
X50371228Y56367353D01*
X50371491Y56358897D01*
X50370784Y56350450D01*
X50371928Y56344744D01*
X50372106Y56338928D01*
X50374703Y56330872D01*
X50376366Y56322566D01*
X50379047Y56317394D01*
X50380831Y56311859D01*
X50384825Y56306250D01*
X50389456Y56297319D01*
X50396384Y56290019D01*
X50400378Y56284409D01*
X50617397Y56067391D01*
X50617397Y55692609D01*
X50400378Y55475594D01*
X50396878Y55470944D01*
X50392656Y55466934D01*
X50388363Y55459622D01*
X50383281Y55452866D01*
X50381213Y55447441D01*
X50378259Y55442409D01*
X50376163Y55434194D01*
X50373150Y55426291D01*
X50372666Y55420488D01*
X50371228Y55414853D01*
X50371491Y55406397D01*
X50370784Y55397950D01*
X50371928Y55392244D01*
X50372106Y55386428D01*
X50374703Y55378372D01*
X50376366Y55370066D01*
X50379047Y55364894D01*
X50380831Y55359359D01*
X50384825Y55353750D01*
X50389456Y55344819D01*
X50396384Y55337519D01*
X50400378Y55331909D01*
X50617397Y55114891D01*
X50617397Y54740106D01*
X50352391Y54475100D01*
X49977606Y54475100D01*
G37*
%LPD*%
%LPC*%
G36*
X17592606Y50347600D02*
X17592606Y50347600D01*
X17327600Y50612606D01*
X17327600Y50987391D01*
X17592606Y51252397D01*
X17861000Y51252397D01*
X17866763Y51253213D01*
X17872581Y51253059D01*
X17880784Y51255194D01*
X17889159Y51256378D01*
X17894463Y51258753D01*
X17900103Y51260222D01*
X17907397Y51264550D01*
X17915113Y51268006D01*
X17919553Y51271763D01*
X17924563Y51274734D01*
X17930366Y51280909D01*
X17936825Y51286372D01*
X17940050Y51291209D01*
X17944041Y51295456D01*
X17947909Y51303003D01*
X17952597Y51310038D01*
X17954353Y51315578D01*
X17957013Y51320766D01*
X17958156Y51327569D01*
X17961194Y51337147D01*
X17961456Y51347197D01*
X17962600Y51353997D01*
X17962600Y51622391D01*
X18227606Y51887397D01*
X18496000Y51887397D01*
X18501763Y51888213D01*
X18507581Y51888059D01*
X18515784Y51890194D01*
X18524159Y51891378D01*
X18529463Y51893753D01*
X18535103Y51895222D01*
X18542397Y51899550D01*
X18550113Y51903006D01*
X18554553Y51906763D01*
X18559563Y51909734D01*
X18565366Y51915909D01*
X18571825Y51921372D01*
X18575050Y51926209D01*
X18579041Y51930456D01*
X18582909Y51938003D01*
X18587597Y51945038D01*
X18589353Y51950578D01*
X18592013Y51955766D01*
X18593156Y51962569D01*
X18596194Y51972147D01*
X18596456Y51982197D01*
X18597600Y51988997D01*
X18597600Y52257391D01*
X18862606Y52522397D01*
X19237391Y52522397D01*
X19502397Y52257391D01*
X19502397Y51988997D01*
X19503213Y51983234D01*
X19503059Y51977416D01*
X19505194Y51969213D01*
X19506378Y51960838D01*
X19508753Y51955534D01*
X19510222Y51949894D01*
X19514550Y51942600D01*
X19518006Y51934884D01*
X19521763Y51930444D01*
X19524734Y51925434D01*
X19530909Y51919631D01*
X19536372Y51913172D01*
X19541209Y51909947D01*
X19545456Y51905956D01*
X19553003Y51902088D01*
X19560038Y51897400D01*
X19565578Y51895644D01*
X19570766Y51892984D01*
X19577569Y51891841D01*
X19587147Y51888803D01*
X19597197Y51888541D01*
X19603997Y51887397D01*
X19872391Y51887397D01*
X20137397Y51622391D01*
X20137397Y51247606D01*
X19872391Y50982600D01*
X19497606Y50982600D01*
X19232600Y51247606D01*
X19232600Y51516000D01*
X19231784Y51521763D01*
X19231938Y51527581D01*
X19229803Y51535784D01*
X19228619Y51544159D01*
X19226244Y51549463D01*
X19224775Y51555103D01*
X19220447Y51562397D01*
X19216991Y51570113D01*
X19213234Y51574553D01*
X19210263Y51579563D01*
X19204088Y51585366D01*
X19198625Y51591825D01*
X19193788Y51595050D01*
X19189541Y51599041D01*
X19181994Y51602909D01*
X19174959Y51607597D01*
X19169419Y51609353D01*
X19164231Y51612013D01*
X19157428Y51613156D01*
X19147850Y51616194D01*
X19137800Y51616456D01*
X19131000Y51617600D01*
X18968997Y51617600D01*
X18963234Y51616784D01*
X18957416Y51616938D01*
X18949213Y51614803D01*
X18940838Y51613619D01*
X18935534Y51611244D01*
X18929894Y51609775D01*
X18922600Y51605447D01*
X18914884Y51601991D01*
X18910444Y51598234D01*
X18905434Y51595263D01*
X18899631Y51589088D01*
X18893172Y51583625D01*
X18889947Y51578788D01*
X18885956Y51574541D01*
X18882088Y51566994D01*
X18877400Y51559959D01*
X18875644Y51554419D01*
X18872984Y51549231D01*
X18871841Y51542428D01*
X18868803Y51532850D01*
X18868541Y51522800D01*
X18867397Y51516000D01*
X18867397Y51247606D01*
X18602391Y50982600D01*
X18333997Y50982600D01*
X18328234Y50981784D01*
X18322416Y50981938D01*
X18314213Y50979803D01*
X18305838Y50978619D01*
X18300534Y50976244D01*
X18294894Y50974775D01*
X18287600Y50970447D01*
X18279884Y50966991D01*
X18275444Y50963234D01*
X18270434Y50960263D01*
X18264631Y50954088D01*
X18258172Y50948625D01*
X18254947Y50943788D01*
X18250956Y50939541D01*
X18247088Y50931994D01*
X18242400Y50924959D01*
X18240644Y50919419D01*
X18237984Y50914231D01*
X18236841Y50907428D01*
X18233803Y50897850D01*
X18233541Y50887800D01*
X18232397Y50881000D01*
X18232397Y50612606D01*
X17967391Y50347600D01*
X17592606Y50347600D01*
G37*
%LPD*%
%LPC*%
G36*
X27435106Y56062600D02*
X27435106Y56062600D01*
X27170100Y56327606D01*
X27170100Y56702391D01*
X27435106Y56967397D01*
X27703500Y56967397D01*
X27709263Y56968213D01*
X27715081Y56968059D01*
X27723284Y56970194D01*
X27731659Y56971378D01*
X27736963Y56973753D01*
X27742603Y56975222D01*
X27749897Y56979550D01*
X27757613Y56983006D01*
X27762053Y56986763D01*
X27767063Y56989734D01*
X27772866Y56995909D01*
X27779325Y57001372D01*
X27782550Y57006209D01*
X27786541Y57010456D01*
X27790409Y57018003D01*
X27795097Y57025038D01*
X27796853Y57030578D01*
X27799513Y57035766D01*
X27800656Y57042569D01*
X27803694Y57052147D01*
X27803956Y57062197D01*
X27805100Y57068997D01*
X27805100Y57231000D01*
X27804284Y57236763D01*
X27804438Y57242581D01*
X27802303Y57250784D01*
X27801119Y57259159D01*
X27798744Y57264463D01*
X27797275Y57270103D01*
X27792947Y57277397D01*
X27789491Y57285113D01*
X27785734Y57289553D01*
X27782763Y57294563D01*
X27776588Y57300366D01*
X27771125Y57306825D01*
X27766288Y57310050D01*
X27762041Y57314041D01*
X27754494Y57317909D01*
X27747459Y57322597D01*
X27741919Y57324353D01*
X27736731Y57327013D01*
X27729928Y57328156D01*
X27720350Y57331194D01*
X27710300Y57331456D01*
X27703500Y57332600D01*
X27435106Y57332600D01*
X27170100Y57597606D01*
X27170100Y57972391D01*
X27435106Y58237397D01*
X27703500Y58237397D01*
X27709263Y58238213D01*
X27715081Y58238059D01*
X27723284Y58240194D01*
X27731659Y58241378D01*
X27736963Y58243753D01*
X27742603Y58245222D01*
X27749897Y58249550D01*
X27757613Y58253006D01*
X27762053Y58256763D01*
X27767063Y58259734D01*
X27772866Y58265909D01*
X27779325Y58271372D01*
X27782550Y58276209D01*
X27786541Y58280456D01*
X27790409Y58288003D01*
X27795097Y58295038D01*
X27796853Y58300578D01*
X27799513Y58305766D01*
X27800656Y58312569D01*
X27803694Y58322147D01*
X27803956Y58332197D01*
X27805100Y58338997D01*
X27805100Y58607391D01*
X28070106Y58872397D01*
X28444891Y58872397D01*
X28709897Y58607391D01*
X28709897Y58232606D01*
X28444891Y57967600D01*
X28176497Y57967600D01*
X28170734Y57966784D01*
X28164916Y57966938D01*
X28156713Y57964803D01*
X28148338Y57963619D01*
X28143034Y57961244D01*
X28137394Y57959775D01*
X28130100Y57955447D01*
X28122384Y57951991D01*
X28117944Y57948234D01*
X28112934Y57945263D01*
X28107131Y57939088D01*
X28100672Y57933625D01*
X28097447Y57928788D01*
X28093456Y57924541D01*
X28089588Y57916994D01*
X28084900Y57909959D01*
X28083144Y57904419D01*
X28080484Y57899231D01*
X28079341Y57892428D01*
X28076303Y57882850D01*
X28076041Y57872800D01*
X28074897Y57866000D01*
X28074897Y57703997D01*
X28075713Y57698234D01*
X28075559Y57692416D01*
X28077694Y57684213D01*
X28078878Y57675838D01*
X28081253Y57670534D01*
X28082722Y57664894D01*
X28087050Y57657600D01*
X28090506Y57649884D01*
X28094263Y57645444D01*
X28097234Y57640434D01*
X28103409Y57634631D01*
X28108872Y57628172D01*
X28113709Y57624947D01*
X28117956Y57620956D01*
X28125503Y57617088D01*
X28132538Y57612400D01*
X28138078Y57610644D01*
X28143266Y57607984D01*
X28150069Y57606841D01*
X28159647Y57603803D01*
X28169697Y57603541D01*
X28176497Y57602397D01*
X28444891Y57602397D01*
X28709897Y57337391D01*
X28709897Y56962606D01*
X28444891Y56697600D01*
X28176497Y56697600D01*
X28170734Y56696784D01*
X28164916Y56696938D01*
X28156713Y56694803D01*
X28148338Y56693619D01*
X28143034Y56691244D01*
X28137394Y56689775D01*
X28130100Y56685447D01*
X28122384Y56681991D01*
X28117944Y56678234D01*
X28112934Y56675263D01*
X28107131Y56669088D01*
X28100672Y56663625D01*
X28097447Y56658788D01*
X28093456Y56654541D01*
X28089588Y56646994D01*
X28084900Y56639959D01*
X28083144Y56634419D01*
X28080484Y56629231D01*
X28079341Y56622428D01*
X28076303Y56612850D01*
X28076041Y56602800D01*
X28074897Y56596000D01*
X28074897Y56327606D01*
X27809891Y56062600D01*
X27435106Y56062600D01*
G37*
%LPD*%
%LPC*%
G36*
X16957606Y20343800D02*
X16957606Y20343800D01*
X16692600Y20608806D01*
X16692600Y20983591D01*
X16957606Y21248597D01*
X17332391Y21248597D01*
X17390609Y21190378D01*
X17395253Y21186884D01*
X17399266Y21182656D01*
X17406566Y21178372D01*
X17413334Y21173278D01*
X17418778Y21171203D01*
X17423794Y21168259D01*
X17431994Y21166166D01*
X17439909Y21163150D01*
X17445716Y21162666D01*
X17451347Y21161228D01*
X17459803Y21161491D01*
X17468250Y21160784D01*
X17473956Y21161925D01*
X17479775Y21162106D01*
X17487834Y21164703D01*
X17496138Y21166366D01*
X17501309Y21169047D01*
X17506844Y21170831D01*
X17512453Y21174825D01*
X17521384Y21179456D01*
X17528681Y21186381D01*
X17534294Y21190378D01*
X17751309Y21407397D01*
X18019700Y21407397D01*
X18025463Y21408213D01*
X18031281Y21408059D01*
X18039484Y21410194D01*
X18047859Y21411378D01*
X18053163Y21413753D01*
X18058803Y21415222D01*
X18066097Y21419550D01*
X18073813Y21423006D01*
X18078253Y21426763D01*
X18083263Y21429734D01*
X18089066Y21435909D01*
X18095525Y21441372D01*
X18098750Y21446209D01*
X18102741Y21450456D01*
X18106609Y21458003D01*
X18111297Y21465038D01*
X18113053Y21470578D01*
X18115713Y21475766D01*
X18116856Y21482569D01*
X18119894Y21492147D01*
X18120156Y21502197D01*
X18121300Y21508997D01*
X18121300Y21777391D01*
X18386306Y22042397D01*
X18761088Y22042397D01*
X18898753Y21904728D01*
X18903403Y21901228D01*
X18907413Y21897006D01*
X18914725Y21892713D01*
X18921481Y21887631D01*
X18926906Y21885563D01*
X18931938Y21882609D01*
X18940153Y21880513D01*
X18948056Y21877500D01*
X18953859Y21877016D01*
X18959494Y21875578D01*
X18967950Y21875841D01*
X18976397Y21875134D01*
X18982103Y21876278D01*
X18987919Y21876456D01*
X18995975Y21879053D01*
X19004281Y21880716D01*
X19009453Y21883397D01*
X19014988Y21885181D01*
X19020597Y21889175D01*
X19029528Y21893806D01*
X19036834Y21900738D01*
X19042438Y21904728D01*
X19180106Y22042397D01*
X19554891Y22042397D01*
X19819897Y21777391D01*
X19819897Y21402606D01*
X19554891Y21137600D01*
X19180106Y21137600D01*
X19042438Y21275269D01*
X19037791Y21278766D01*
X19033781Y21282991D01*
X19026481Y21287275D01*
X19019713Y21292369D01*
X19014269Y21294444D01*
X19009253Y21297388D01*
X19001056Y21299478D01*
X18993138Y21302497D01*
X18987328Y21302981D01*
X18981697Y21304419D01*
X18973241Y21304156D01*
X18964797Y21304863D01*
X18959091Y21303722D01*
X18953272Y21303541D01*
X18945213Y21300944D01*
X18936909Y21299281D01*
X18931738Y21296600D01*
X18926203Y21294816D01*
X18920594Y21290822D01*
X18911663Y21286191D01*
X18904366Y21279266D01*
X18898753Y21275269D01*
X18761088Y21137600D01*
X18492697Y21137600D01*
X18486934Y21136784D01*
X18481116Y21136938D01*
X18472913Y21134803D01*
X18464538Y21133619D01*
X18459234Y21131244D01*
X18453594Y21129775D01*
X18446300Y21125447D01*
X18438584Y21121991D01*
X18434144Y21118234D01*
X18429134Y21115263D01*
X18423331Y21109088D01*
X18416872Y21103625D01*
X18413647Y21098788D01*
X18409656Y21094541D01*
X18405788Y21086994D01*
X18401100Y21079959D01*
X18399344Y21074419D01*
X18396684Y21069231D01*
X18395541Y21062428D01*
X18392503Y21052850D01*
X18392241Y21042800D01*
X18391097Y21036000D01*
X18391097Y20767606D01*
X18126091Y20502600D01*
X17751309Y20502600D01*
X17693094Y20560819D01*
X17688441Y20564319D01*
X17684434Y20568541D01*
X17677131Y20572828D01*
X17670369Y20577916D01*
X17664934Y20579988D01*
X17659909Y20582938D01*
X17651703Y20585031D01*
X17643794Y20588047D01*
X17637984Y20588531D01*
X17632353Y20589969D01*
X17623897Y20589706D01*
X17615453Y20590413D01*
X17609747Y20589272D01*
X17603928Y20589091D01*
X17595869Y20586494D01*
X17587566Y20584831D01*
X17582394Y20582150D01*
X17576859Y20580366D01*
X17571250Y20576372D01*
X17562319Y20571741D01*
X17555013Y20564809D01*
X17549409Y20560819D01*
X17332391Y20343800D01*
X16957606Y20343800D01*
G37*
%LPD*%
%LPC*%
G36*
X41999931Y79106000D02*
X41999931Y79106000D01*
X41684575Y79236625D01*
X41443225Y79477975D01*
X41312600Y79793331D01*
X41312600Y80134666D01*
X41443225Y80450022D01*
X41684575Y80691372D01*
X41999931Y80821997D01*
X42341266Y80821997D01*
X42656622Y80691372D01*
X42897972Y80450022D01*
X43028597Y80134666D01*
X43028597Y79793331D01*
X42897972Y79477975D01*
X42656622Y79236625D01*
X42341266Y79106000D01*
X41999931Y79106000D01*
G37*
%LPD*%
%LPC*%
G36*
X55258731Y79106000D02*
X55258731Y79106000D01*
X54943375Y79236625D01*
X54702025Y79477975D01*
X54571400Y79793331D01*
X54571400Y80134666D01*
X54702025Y80450022D01*
X54943375Y80691372D01*
X55258731Y80821997D01*
X55600066Y80821997D01*
X55915422Y80691372D01*
X56156772Y80450022D01*
X56287397Y80134666D01*
X56287397Y79793331D01*
X56156772Y79477975D01*
X55915422Y79236625D01*
X55600066Y79106000D01*
X55258731Y79106000D01*
G37*
%LPD*%
%LPC*%
G36*
X52718731Y79106000D02*
X52718731Y79106000D01*
X52403375Y79236625D01*
X52162025Y79477975D01*
X52031400Y79793331D01*
X52031400Y80134666D01*
X52162025Y80450022D01*
X52403375Y80691372D01*
X52718731Y80821997D01*
X53060066Y80821997D01*
X53375422Y80691372D01*
X53616772Y80450022D01*
X53747397Y80134666D01*
X53747397Y79793331D01*
X53616772Y79477975D01*
X53375422Y79236625D01*
X53060066Y79106000D01*
X52718731Y79106000D01*
G37*
%LPD*%
%LPC*%
G36*
X50534331Y68692000D02*
X50534331Y68692000D01*
X50218975Y68822625D01*
X49977625Y69063975D01*
X49847000Y69379331D01*
X49847000Y69720666D01*
X49977625Y70036022D01*
X50218975Y70277372D01*
X50534331Y70407997D01*
X50875666Y70407997D01*
X51191022Y70277372D01*
X51432372Y70036022D01*
X51562997Y69720666D01*
X51562997Y69379331D01*
X51432372Y69063975D01*
X51191022Y68822625D01*
X50875666Y68692000D01*
X50534331Y68692000D01*
G37*
%LPD*%
%LPC*%
G36*
X44539931Y79106000D02*
X44539931Y79106000D01*
X44224575Y79236625D01*
X43983225Y79477975D01*
X43852600Y79793331D01*
X43852600Y80134666D01*
X43983225Y80450022D01*
X44224575Y80691372D01*
X44539931Y80821997D01*
X44881266Y80821997D01*
X45196622Y80691372D01*
X45437972Y80450022D01*
X45568597Y80134666D01*
X45568597Y79793331D01*
X45437972Y79477975D01*
X45196622Y79236625D01*
X44881266Y79106000D01*
X44539931Y79106000D01*
G37*
%LPD*%
%LPC*%
G36*
X47994331Y68692000D02*
X47994331Y68692000D01*
X47678975Y68822625D01*
X47437625Y69063975D01*
X47307000Y69379331D01*
X47307000Y69720666D01*
X47437625Y70036022D01*
X47678975Y70277372D01*
X47994331Y70407997D01*
X48335666Y70407997D01*
X48651022Y70277372D01*
X48892372Y70036022D01*
X49022997Y69720666D01*
X49022997Y69379331D01*
X48892372Y69063975D01*
X48651022Y68822625D01*
X48335666Y68692000D01*
X47994331Y68692000D01*
G37*
%LPD*%
%LPC*%
G36*
X45454331Y68692000D02*
X45454331Y68692000D01*
X45138975Y68822625D01*
X44897625Y69063975D01*
X44767000Y69379331D01*
X44767000Y69720666D01*
X44897625Y70036022D01*
X45138975Y70277372D01*
X45454331Y70407997D01*
X45795666Y70407997D01*
X46111022Y70277372D01*
X46352372Y70036022D01*
X46482997Y69720666D01*
X46482997Y69379331D01*
X46352372Y69063975D01*
X46111022Y68822625D01*
X45795666Y68692000D01*
X45454331Y68692000D01*
G37*
%LPD*%
%LPC*%
G36*
X46724331Y66152000D02*
X46724331Y66152000D01*
X46408975Y66282625D01*
X46167625Y66523975D01*
X46037000Y66839331D01*
X46037000Y67180666D01*
X46167625Y67496022D01*
X46408975Y67737372D01*
X46724331Y67867997D01*
X47065666Y67867997D01*
X47381022Y67737372D01*
X47622372Y67496022D01*
X47752997Y67180666D01*
X47752997Y66839331D01*
X47622372Y66523975D01*
X47381022Y66282625D01*
X47065666Y66152000D01*
X46724331Y66152000D01*
G37*
%LPD*%
%LPC*%
G36*
X53074331Y68692000D02*
X53074331Y68692000D01*
X52758975Y68822625D01*
X52517625Y69063975D01*
X52387000Y69379331D01*
X52387000Y69720666D01*
X52517625Y70036022D01*
X52758975Y70277372D01*
X53074331Y70407997D01*
X53415666Y70407997D01*
X53731022Y70277372D01*
X53972372Y70036022D01*
X54102997Y69720666D01*
X54102997Y69379331D01*
X53972372Y69063975D01*
X53731022Y68822625D01*
X53415666Y68692000D01*
X53074331Y68692000D01*
G37*
%LPD*%
%LPC*%
G36*
X51804331Y66152000D02*
X51804331Y66152000D01*
X51488975Y66282625D01*
X51247625Y66523975D01*
X51117000Y66839331D01*
X51117000Y67180666D01*
X51247625Y67496022D01*
X51488975Y67737372D01*
X51804331Y67867997D01*
X52145666Y67867997D01*
X52461022Y67737372D01*
X52702372Y67496022D01*
X52832997Y67180666D01*
X52832997Y66839331D01*
X52702372Y66523975D01*
X52461022Y66282625D01*
X52145666Y66152000D01*
X51804331Y66152000D01*
G37*
%LPD*%
%LPC*%
G36*
X49264331Y66152000D02*
X49264331Y66152000D01*
X48948975Y66282625D01*
X48707625Y66523975D01*
X48577000Y66839331D01*
X48577000Y67180666D01*
X48707625Y67496022D01*
X48948975Y67737372D01*
X49264331Y67867997D01*
X49605666Y67867997D01*
X49921022Y67737372D01*
X50162372Y67496022D01*
X50292997Y67180666D01*
X50292997Y66839331D01*
X50162372Y66523975D01*
X49921022Y66282625D01*
X49605666Y66152000D01*
X49264331Y66152000D01*
G37*
%LPD*%
%LPC*%
G36*
X18227606Y42410100D02*
X18227606Y42410100D01*
X17962600Y42675106D01*
X17962600Y43049888D01*
X18179619Y43266903D01*
X18183119Y43271553D01*
X18187341Y43275563D01*
X18191634Y43282875D01*
X18196716Y43289631D01*
X18198784Y43295056D01*
X18201738Y43300088D01*
X18203834Y43308303D01*
X18206847Y43316206D01*
X18207331Y43322009D01*
X18208769Y43327644D01*
X18208506Y43336100D01*
X18209213Y43344547D01*
X18208069Y43350253D01*
X18207891Y43356069D01*
X18205294Y43364125D01*
X18203631Y43372431D01*
X18200950Y43377603D01*
X18199166Y43383138D01*
X18195172Y43388747D01*
X18190541Y43397678D01*
X18183613Y43404978D01*
X18179619Y43410588D01*
X18010588Y43579619D01*
X18005944Y43583113D01*
X18001931Y43587341D01*
X17994631Y43591625D01*
X17987863Y43596719D01*
X17982419Y43598794D01*
X17977403Y43601738D01*
X17969203Y43603831D01*
X17961288Y43606847D01*
X17955481Y43607331D01*
X17949850Y43608769D01*
X17941394Y43608506D01*
X17932947Y43609213D01*
X17927241Y43608072D01*
X17921422Y43607891D01*
X17913363Y43605294D01*
X17905059Y43603631D01*
X17899888Y43600950D01*
X17894353Y43599166D01*
X17888744Y43595172D01*
X17879813Y43590541D01*
X17872516Y43583616D01*
X17866903Y43579619D01*
X17649888Y43362600D01*
X17275106Y43362600D01*
X17010100Y43627606D01*
X17010100Y44002391D01*
X17275106Y44267397D01*
X17649888Y44267397D01*
X17866903Y44050378D01*
X17871553Y44046878D01*
X17875563Y44042656D01*
X17882875Y44038363D01*
X17889631Y44033281D01*
X17895056Y44031213D01*
X17900088Y44028259D01*
X17908303Y44026163D01*
X17916206Y44023150D01*
X17922009Y44022666D01*
X17927644Y44021228D01*
X17936100Y44021491D01*
X17944547Y44020784D01*
X17950253Y44021928D01*
X17956069Y44022106D01*
X17964125Y44024703D01*
X17972431Y44026366D01*
X17977603Y44029047D01*
X17983138Y44030831D01*
X17988747Y44034825D01*
X17997678Y44039456D01*
X18004978Y44046384D01*
X18010588Y44050378D01*
X18227606Y44267397D01*
X18602391Y44267397D01*
X18867397Y44002391D01*
X18867397Y43627606D01*
X18650378Y43410588D01*
X18646884Y43405944D01*
X18642656Y43401931D01*
X18638372Y43394631D01*
X18633278Y43387863D01*
X18631203Y43382419D01*
X18628259Y43377403D01*
X18626166Y43369203D01*
X18623150Y43361288D01*
X18622666Y43355481D01*
X18621228Y43349850D01*
X18621491Y43341394D01*
X18620784Y43332947D01*
X18621925Y43327241D01*
X18622106Y43321422D01*
X18624703Y43313363D01*
X18626366Y43305059D01*
X18629047Y43299888D01*
X18630831Y43294353D01*
X18634825Y43288744D01*
X18639456Y43279813D01*
X18646381Y43272516D01*
X18650378Y43266903D01*
X18867397Y43049888D01*
X18867397Y42675106D01*
X18602391Y42410100D01*
X18227606Y42410100D01*
G37*
%LPD*%
%LPC*%
G36*
X36960106Y54316400D02*
X36960106Y54316400D01*
X36695100Y54581406D01*
X36695100Y54956191D01*
X36912119Y55173209D01*
X36915613Y55177853D01*
X36919841Y55181866D01*
X36924125Y55189166D01*
X36929219Y55195934D01*
X36931294Y55201378D01*
X36934238Y55206394D01*
X36936331Y55214594D01*
X36939347Y55222509D01*
X36939831Y55228316D01*
X36941269Y55233947D01*
X36941006Y55242403D01*
X36941713Y55250850D01*
X36940572Y55256556D01*
X36940391Y55262375D01*
X36937794Y55270434D01*
X36936131Y55278738D01*
X36933450Y55283909D01*
X36931666Y55289444D01*
X36927672Y55295053D01*
X36923041Y55303984D01*
X36916116Y55311281D01*
X36912119Y55316894D01*
X36695100Y55533909D01*
X36695100Y55802300D01*
X36694284Y55808063D01*
X36694438Y55813881D01*
X36692303Y55822084D01*
X36691119Y55830459D01*
X36688744Y55835763D01*
X36687275Y55841403D01*
X36682947Y55848697D01*
X36679491Y55856413D01*
X36675734Y55860853D01*
X36672763Y55865863D01*
X36666588Y55871666D01*
X36661125Y55878125D01*
X36656288Y55881350D01*
X36652041Y55885341D01*
X36644494Y55889209D01*
X36637459Y55893897D01*
X36631919Y55895653D01*
X36626731Y55898313D01*
X36619928Y55899456D01*
X36610350Y55902494D01*
X36600300Y55902756D01*
X36593500Y55903900D01*
X36325106Y55903900D01*
X36060100Y56168906D01*
X36060100Y56543691D01*
X36325106Y56808697D01*
X36699891Y56808697D01*
X36964897Y56543691D01*
X36964897Y56275297D01*
X36965572Y56270519D01*
X36965559Y56270016D01*
X36965709Y56269441D01*
X36965559Y56263716D01*
X36967694Y56255513D01*
X36968878Y56247138D01*
X36971253Y56241834D01*
X36972722Y56236194D01*
X36977050Y56228900D01*
X36980506Y56221184D01*
X36984263Y56216744D01*
X36987234Y56211734D01*
X36993409Y56205931D01*
X36998872Y56199472D01*
X37003709Y56196247D01*
X37007956Y56192256D01*
X37015503Y56188388D01*
X37022538Y56183700D01*
X37028078Y56181944D01*
X37033266Y56179284D01*
X37040069Y56178141D01*
X37049647Y56175103D01*
X37059697Y56174841D01*
X37066497Y56173697D01*
X37334891Y56173697D01*
X37599897Y55908691D01*
X37599897Y55533909D01*
X37382878Y55316894D01*
X37379378Y55312244D01*
X37375156Y55308234D01*
X37370863Y55300922D01*
X37365781Y55294166D01*
X37363713Y55288741D01*
X37360759Y55283709D01*
X37358663Y55275494D01*
X37355650Y55267591D01*
X37355166Y55261788D01*
X37353728Y55256153D01*
X37353991Y55247697D01*
X37353284Y55239250D01*
X37354428Y55233544D01*
X37354606Y55227728D01*
X37357203Y55219672D01*
X37358866Y55211366D01*
X37361547Y55206194D01*
X37363331Y55200659D01*
X37367325Y55195050D01*
X37371956Y55186119D01*
X37378884Y55178819D01*
X37382878Y55173209D01*
X37599897Y54956191D01*
X37599897Y54581406D01*
X37334891Y54316400D01*
X36960106Y54316400D01*
G37*
%LPD*%
%LPC*%
G36*
X9655106Y57967600D02*
X9655106Y57967600D01*
X9390100Y58232606D01*
X9390100Y58607391D01*
X9655106Y58872397D01*
X9923500Y58872397D01*
X9929263Y58873213D01*
X9935081Y58873059D01*
X9943284Y58875194D01*
X9951659Y58876378D01*
X9956963Y58878753D01*
X9962603Y58880222D01*
X9969897Y58884550D01*
X9977613Y58888006D01*
X9982053Y58891763D01*
X9987063Y58894734D01*
X9992866Y58900909D01*
X9999325Y58906372D01*
X10002550Y58911209D01*
X10006541Y58915456D01*
X10010409Y58923003D01*
X10015097Y58930038D01*
X10016853Y58935578D01*
X10019513Y58940766D01*
X10020656Y58947569D01*
X10023694Y58957147D01*
X10023956Y58967197D01*
X10025100Y58973997D01*
X10025100Y59242391D01*
X10290106Y59507397D01*
X10558500Y59507397D01*
X10564263Y59508213D01*
X10570081Y59508059D01*
X10578284Y59510194D01*
X10586659Y59511378D01*
X10591963Y59513753D01*
X10597603Y59515222D01*
X10604897Y59519550D01*
X10612613Y59523006D01*
X10617053Y59526763D01*
X10622063Y59529734D01*
X10627866Y59535909D01*
X10634325Y59541372D01*
X10637550Y59546209D01*
X10641541Y59550456D01*
X10645409Y59558003D01*
X10650097Y59565038D01*
X10651853Y59570578D01*
X10654513Y59575766D01*
X10655656Y59582569D01*
X10658694Y59592147D01*
X10658956Y59602197D01*
X10660100Y59608997D01*
X10660100Y59877391D01*
X10925106Y60142397D01*
X11299891Y60142397D01*
X11564897Y59877391D01*
X11564897Y59502606D01*
X11299891Y59237600D01*
X11031497Y59237600D01*
X11025734Y59236784D01*
X11019916Y59236938D01*
X11011713Y59234803D01*
X11003338Y59233619D01*
X10998034Y59231244D01*
X10992394Y59229775D01*
X10985100Y59225447D01*
X10977384Y59221991D01*
X10972944Y59218234D01*
X10967934Y59215263D01*
X10962131Y59209088D01*
X10955672Y59203625D01*
X10952447Y59198788D01*
X10948456Y59194541D01*
X10944588Y59186994D01*
X10939900Y59179959D01*
X10938144Y59174419D01*
X10935484Y59169231D01*
X10934341Y59162428D01*
X10931303Y59152850D01*
X10931041Y59142800D01*
X10929897Y59136000D01*
X10929897Y58867606D01*
X10664891Y58602600D01*
X10396497Y58602600D01*
X10390734Y58601784D01*
X10384916Y58601938D01*
X10376713Y58599803D01*
X10368338Y58598619D01*
X10363034Y58596244D01*
X10357394Y58594775D01*
X10350100Y58590447D01*
X10342384Y58586991D01*
X10337944Y58583234D01*
X10332934Y58580263D01*
X10327131Y58574088D01*
X10320672Y58568625D01*
X10317447Y58563788D01*
X10313456Y58559541D01*
X10309588Y58551994D01*
X10304900Y58544959D01*
X10303144Y58539419D01*
X10300484Y58534231D01*
X10299341Y58527428D01*
X10296303Y58517850D01*
X10296041Y58507800D01*
X10294897Y58501000D01*
X10294897Y58232606D01*
X10029891Y57967600D01*
X9655106Y57967600D01*
G37*
%LPD*%
%LPC*%
G36*
X19497606Y30345100D02*
X19497606Y30345100D01*
X19232600Y30610106D01*
X19232600Y30984891D01*
X19497606Y31249897D01*
X19766000Y31249897D01*
X19771763Y31250713D01*
X19777581Y31250559D01*
X19785784Y31252694D01*
X19794159Y31253878D01*
X19799463Y31256253D01*
X19805103Y31257722D01*
X19812397Y31262050D01*
X19820113Y31265506D01*
X19824553Y31269263D01*
X19829563Y31272234D01*
X19835366Y31278409D01*
X19841825Y31283872D01*
X19845050Y31288709D01*
X19849041Y31292956D01*
X19852909Y31300503D01*
X19857597Y31307538D01*
X19859353Y31313078D01*
X19862013Y31318266D01*
X19863156Y31325069D01*
X19866194Y31334647D01*
X19866456Y31344697D01*
X19867600Y31351497D01*
X19867600Y31619891D01*
X20132606Y31884897D01*
X20507391Y31884897D01*
X20772397Y31619891D01*
X20772397Y31351497D01*
X20773213Y31345734D01*
X20773059Y31339916D01*
X20775194Y31331713D01*
X20776378Y31323338D01*
X20778753Y31318034D01*
X20780222Y31312394D01*
X20784550Y31305100D01*
X20788006Y31297384D01*
X20791763Y31292944D01*
X20794734Y31287934D01*
X20800909Y31282131D01*
X20806372Y31275672D01*
X20811209Y31272447D01*
X20815456Y31268456D01*
X20823003Y31264588D01*
X20830038Y31259900D01*
X20835578Y31258144D01*
X20840766Y31255484D01*
X20847569Y31254341D01*
X20857147Y31251303D01*
X20867197Y31251041D01*
X20873997Y31249897D01*
X21142391Y31249897D01*
X21407397Y30984891D01*
X21407397Y30610106D01*
X21142391Y30345100D01*
X20767606Y30345100D01*
X20502600Y30610106D01*
X20502600Y30878500D01*
X20501784Y30884263D01*
X20501938Y30890081D01*
X20499803Y30898284D01*
X20498619Y30906659D01*
X20496244Y30911963D01*
X20494775Y30917603D01*
X20490447Y30924897D01*
X20486991Y30932613D01*
X20483234Y30937053D01*
X20480263Y30942063D01*
X20474088Y30947866D01*
X20468625Y30954325D01*
X20463788Y30957550D01*
X20459541Y30961541D01*
X20451994Y30965409D01*
X20444959Y30970097D01*
X20439419Y30971853D01*
X20434231Y30974513D01*
X20427428Y30975656D01*
X20417850Y30978694D01*
X20407800Y30978956D01*
X20401000Y30980100D01*
X20238997Y30980100D01*
X20233234Y30979284D01*
X20227416Y30979438D01*
X20219213Y30977303D01*
X20210838Y30976119D01*
X20205534Y30973744D01*
X20199894Y30972275D01*
X20192600Y30967947D01*
X20184884Y30964491D01*
X20180444Y30960734D01*
X20175434Y30957763D01*
X20169631Y30951588D01*
X20163172Y30946125D01*
X20159947Y30941288D01*
X20155956Y30937041D01*
X20152088Y30929494D01*
X20147400Y30922459D01*
X20145644Y30916919D01*
X20142984Y30911731D01*
X20141841Y30904928D01*
X20138803Y30895350D01*
X20138541Y30885300D01*
X20137397Y30878500D01*
X20137397Y30610106D01*
X19872391Y30345100D01*
X19497606Y30345100D01*
G37*
%LPD*%
%LPC*%
G36*
X2070869Y42970000D02*
X2070869Y42970000D01*
X1776831Y43091794D01*
X1551794Y43316831D01*
X1430000Y43610869D01*
X1430000Y43929128D01*
X1551794Y44223166D01*
X1776831Y44448203D01*
X2070869Y44569997D01*
X2389128Y44569997D01*
X2683166Y44448203D01*
X2908203Y44223166D01*
X3029997Y43929128D01*
X3029997Y43610869D01*
X2908203Y43316831D01*
X2683166Y43091794D01*
X2389128Y42970000D01*
X2070869Y42970000D01*
G37*
%LPD*%
%LPC*%
G36*
X2070869Y45510000D02*
X2070869Y45510000D01*
X1776831Y45631794D01*
X1551794Y45856831D01*
X1430000Y46150869D01*
X1430000Y46469128D01*
X1551794Y46763166D01*
X1776831Y46988203D01*
X2070869Y47109997D01*
X2389128Y47109997D01*
X2683166Y46988203D01*
X2908203Y46763166D01*
X3029997Y46469128D01*
X3029997Y46150869D01*
X2908203Y45856831D01*
X2683166Y45631794D01*
X2389128Y45510000D01*
X2070869Y45510000D01*
G37*
%LPD*%
%LPC*%
G36*
X4610869Y55670000D02*
X4610869Y55670000D01*
X4316831Y55791794D01*
X4091794Y56016831D01*
X3970000Y56310869D01*
X3970000Y56629128D01*
X4091794Y56923166D01*
X4316831Y57148203D01*
X4610869Y57269997D01*
X4929128Y57269997D01*
X5223166Y57148203D01*
X5448203Y56923166D01*
X5569997Y56629128D01*
X5569997Y56310869D01*
X5448203Y56016831D01*
X5223166Y55791794D01*
X4929128Y55670000D01*
X4610869Y55670000D01*
G37*
%LPD*%
%LPC*%
G36*
X2070869Y55670000D02*
X2070869Y55670000D01*
X1776831Y55791794D01*
X1551794Y56016831D01*
X1430000Y56310869D01*
X1430000Y56629128D01*
X1551794Y56923166D01*
X1776831Y57148203D01*
X2070869Y57269997D01*
X2389128Y57269997D01*
X2683166Y57148203D01*
X2908203Y56923166D01*
X3029997Y56629128D01*
X3029997Y56310869D01*
X2908203Y56016831D01*
X2683166Y55791794D01*
X2389128Y55670000D01*
X2070869Y55670000D01*
G37*
%LPD*%
%LPC*%
G36*
X4610869Y48050000D02*
X4610869Y48050000D01*
X4316831Y48171794D01*
X4091794Y48396831D01*
X3970000Y48690869D01*
X3970000Y49009128D01*
X4091794Y49303166D01*
X4316831Y49528203D01*
X4610869Y49649997D01*
X4929128Y49649997D01*
X5223166Y49528203D01*
X5448203Y49303166D01*
X5569997Y49009128D01*
X5569997Y48690869D01*
X5448203Y48396831D01*
X5223166Y48171794D01*
X4929128Y48050000D01*
X4610869Y48050000D01*
G37*
%LPD*%
%LPC*%
G36*
X2070869Y48050000D02*
X2070869Y48050000D01*
X1776831Y48171794D01*
X1551794Y48396831D01*
X1430000Y48690869D01*
X1430000Y49009128D01*
X1551794Y49303166D01*
X1776831Y49528203D01*
X2070869Y49649997D01*
X2389128Y49649997D01*
X2683166Y49528203D01*
X2908203Y49303166D01*
X3029997Y49009128D01*
X3029997Y48690869D01*
X2908203Y48396831D01*
X2683166Y48171794D01*
X2389128Y48050000D01*
X2070869Y48050000D01*
G37*
%LPD*%
%LPC*%
G36*
X2070869Y50590000D02*
X2070869Y50590000D01*
X1776831Y50711794D01*
X1551794Y50936831D01*
X1430000Y51230869D01*
X1430000Y51549128D01*
X1551794Y51843166D01*
X1776831Y52068203D01*
X2070869Y52189997D01*
X2389128Y52189997D01*
X2683166Y52068203D01*
X2908203Y51843166D01*
X3029997Y51549128D01*
X3029997Y51230869D01*
X2908203Y50936831D01*
X2683166Y50711794D01*
X2389128Y50590000D01*
X2070869Y50590000D01*
G37*
%LPD*%
%LPC*%
G36*
X4610869Y50590000D02*
X4610869Y50590000D01*
X4316831Y50711794D01*
X4091794Y50936831D01*
X3970000Y51230869D01*
X3970000Y51549128D01*
X4091794Y51843166D01*
X4316831Y52068203D01*
X4610869Y52189997D01*
X4929128Y52189997D01*
X5223166Y52068203D01*
X5448203Y51843166D01*
X5569997Y51549128D01*
X5569997Y51230869D01*
X5448203Y50936831D01*
X5223166Y50711794D01*
X4929128Y50590000D01*
X4610869Y50590000D01*
G37*
%LPD*%
%LPC*%
G36*
X2070869Y53130000D02*
X2070869Y53130000D01*
X1776831Y53251794D01*
X1551794Y53476831D01*
X1430000Y53770869D01*
X1430000Y54089128D01*
X1551794Y54383166D01*
X1776831Y54608203D01*
X2070869Y54729997D01*
X2389128Y54729997D01*
X2683166Y54608203D01*
X2908203Y54383166D01*
X3029997Y54089128D01*
X3029997Y53770869D01*
X2908203Y53476831D01*
X2683166Y53251794D01*
X2389128Y53130000D01*
X2070869Y53130000D01*
G37*
%LPD*%
%LPC*%
G36*
X4610869Y20110000D02*
X4610869Y20110000D01*
X4316831Y20231794D01*
X4091794Y20456831D01*
X3970000Y20750869D01*
X3970000Y21069128D01*
X4091794Y21363166D01*
X4316831Y21588203D01*
X4610869Y21709997D01*
X4929128Y21709997D01*
X5223166Y21588203D01*
X5448203Y21363166D01*
X5569997Y21069128D01*
X5569997Y20750869D01*
X5448203Y20456831D01*
X5223166Y20231794D01*
X4929128Y20110000D01*
X4610869Y20110000D01*
G37*
%LPD*%
%LPC*%
G36*
X2070869Y17570000D02*
X2070869Y17570000D01*
X1776831Y17691794D01*
X1551794Y17916831D01*
X1430000Y18210869D01*
X1430000Y18529128D01*
X1551794Y18823166D01*
X1776831Y19048203D01*
X2070869Y19169997D01*
X2389128Y19169997D01*
X2683166Y19048203D01*
X2908203Y18823166D01*
X3029997Y18529128D01*
X3029997Y18210869D01*
X2908203Y17916831D01*
X2683166Y17691794D01*
X2389128Y17570000D01*
X2070869Y17570000D01*
G37*
%LPD*%
%LPC*%
G36*
X4610869Y17570000D02*
X4610869Y17570000D01*
X4316831Y17691794D01*
X4091794Y17916831D01*
X3970000Y18210869D01*
X3970000Y18529128D01*
X4091794Y18823166D01*
X4316831Y19048203D01*
X4610869Y19169997D01*
X4929128Y19169997D01*
X5223166Y19048203D01*
X5448203Y18823166D01*
X5569997Y18529128D01*
X5569997Y18210869D01*
X5448203Y17916831D01*
X5223166Y17691794D01*
X4929128Y17570000D01*
X4610869Y17570000D01*
G37*
%LPD*%
%LPC*%
G36*
X2070869Y20110000D02*
X2070869Y20110000D01*
X1776831Y20231794D01*
X1551794Y20456831D01*
X1430000Y20750869D01*
X1430000Y21069128D01*
X1551794Y21363166D01*
X1776831Y21588203D01*
X2070869Y21709997D01*
X2389128Y21709997D01*
X2683166Y21588203D01*
X2908203Y21363166D01*
X3029997Y21069128D01*
X3029997Y20750869D01*
X2908203Y20456831D01*
X2683166Y20231794D01*
X2389128Y20110000D01*
X2070869Y20110000D01*
G37*
%LPD*%
%LPC*%
G36*
X4610869Y45510000D02*
X4610869Y45510000D01*
X4316831Y45631794D01*
X4091794Y45856831D01*
X3970000Y46150869D01*
X3970000Y46469128D01*
X4091794Y46763166D01*
X4316831Y46988203D01*
X4610869Y47109997D01*
X4929128Y47109997D01*
X5223166Y46988203D01*
X5448203Y46763166D01*
X5569997Y46469128D01*
X5569997Y46150869D01*
X5448203Y45856831D01*
X5223166Y45631794D01*
X4929128Y45510000D01*
X4610869Y45510000D01*
G37*
%LPD*%
%LPC*%
G36*
X2070869Y22650000D02*
X2070869Y22650000D01*
X1776831Y22771794D01*
X1551794Y22996831D01*
X1430000Y23290869D01*
X1430000Y23609128D01*
X1551794Y23903166D01*
X1776831Y24128203D01*
X2070869Y24249997D01*
X2389128Y24249997D01*
X2683166Y24128203D01*
X2908203Y23903166D01*
X3029997Y23609128D01*
X3029997Y23290869D01*
X2908203Y22996831D01*
X2683166Y22771794D01*
X2389128Y22650000D01*
X2070869Y22650000D01*
G37*
%LPD*%
%LPC*%
G36*
X4610869Y22650000D02*
X4610869Y22650000D01*
X4316831Y22771794D01*
X4091794Y22996831D01*
X3970000Y23290869D01*
X3970000Y23609128D01*
X4091794Y23903166D01*
X4316831Y24128203D01*
X4610869Y24249997D01*
X4929128Y24249997D01*
X5223166Y24128203D01*
X5448203Y23903166D01*
X5569997Y23609128D01*
X5569997Y23290869D01*
X5448203Y22996831D01*
X5223166Y22771794D01*
X4929128Y22650000D01*
X4610869Y22650000D01*
G37*
%LPD*%
%LPC*%
G36*
X4610869Y65830000D02*
X4610869Y65830000D01*
X4316831Y65951794D01*
X4091794Y66176831D01*
X3970000Y66470869D01*
X3970000Y66789128D01*
X4091794Y67083166D01*
X4316831Y67308203D01*
X4610869Y67429997D01*
X4929128Y67429997D01*
X5223166Y67308203D01*
X5448203Y67083166D01*
X5569997Y66789128D01*
X5569997Y66470869D01*
X5448203Y66176831D01*
X5223166Y65951794D01*
X4929128Y65830000D01*
X4610869Y65830000D01*
G37*
%LPD*%
%LPC*%
G36*
X2070869Y25190000D02*
X2070869Y25190000D01*
X1776831Y25311794D01*
X1551794Y25536831D01*
X1430000Y25830869D01*
X1430000Y26149128D01*
X1551794Y26443166D01*
X1776831Y26668203D01*
X2070869Y26789997D01*
X2389128Y26789997D01*
X2683166Y26668203D01*
X2908203Y26443166D01*
X3029997Y26149128D01*
X3029997Y25830869D01*
X2908203Y25536831D01*
X2683166Y25311794D01*
X2389128Y25190000D01*
X2070869Y25190000D01*
G37*
%LPD*%
%LPC*%
G36*
X4610869Y25190000D02*
X4610869Y25190000D01*
X4316831Y25311794D01*
X4091794Y25536831D01*
X3970000Y25830869D01*
X3970000Y26149128D01*
X4091794Y26443166D01*
X4316831Y26668203D01*
X4610869Y26789997D01*
X4929128Y26789997D01*
X5223166Y26668203D01*
X5448203Y26443166D01*
X5569997Y26149128D01*
X5569997Y25830869D01*
X5448203Y25536831D01*
X5223166Y25311794D01*
X4929128Y25190000D01*
X4610869Y25190000D01*
G37*
%LPD*%
%LPC*%
G36*
X2070869Y27730000D02*
X2070869Y27730000D01*
X1776831Y27851794D01*
X1551794Y28076831D01*
X1430000Y28370869D01*
X1430000Y28689128D01*
X1551794Y28983166D01*
X1776831Y29208203D01*
X2070869Y29329997D01*
X2389128Y29329997D01*
X2683166Y29208203D01*
X2908203Y28983166D01*
X3029997Y28689128D01*
X3029997Y28370869D01*
X2908203Y28076831D01*
X2683166Y27851794D01*
X2389128Y27730000D01*
X2070869Y27730000D01*
G37*
%LPD*%
%LPC*%
G36*
X4610869Y27730000D02*
X4610869Y27730000D01*
X4316831Y27851794D01*
X4091794Y28076831D01*
X3970000Y28370869D01*
X3970000Y28689128D01*
X4091794Y28983166D01*
X4316831Y29208203D01*
X4610869Y29329997D01*
X4929128Y29329997D01*
X5223166Y29208203D01*
X5448203Y28983166D01*
X5569997Y28689128D01*
X5569997Y28370869D01*
X5448203Y28076831D01*
X5223166Y27851794D01*
X4929128Y27730000D01*
X4610869Y27730000D01*
G37*
%LPD*%
%LPC*%
G36*
X2070869Y30270000D02*
X2070869Y30270000D01*
X1776831Y30391794D01*
X1551794Y30616831D01*
X1430000Y30910869D01*
X1430000Y31229128D01*
X1551794Y31523166D01*
X1776831Y31748203D01*
X2070869Y31869997D01*
X2389128Y31869997D01*
X2683166Y31748203D01*
X2908203Y31523166D01*
X3029997Y31229128D01*
X3029997Y30910869D01*
X2908203Y30616831D01*
X2683166Y30391794D01*
X2389128Y30270000D01*
X2070869Y30270000D01*
G37*
%LPD*%
%LPC*%
G36*
X4610869Y30270000D02*
X4610869Y30270000D01*
X4316831Y30391794D01*
X4091794Y30616831D01*
X3970000Y30910869D01*
X3970000Y31229128D01*
X4091794Y31523166D01*
X4316831Y31748203D01*
X4610869Y31869997D01*
X4929128Y31869997D01*
X5223166Y31748203D01*
X5448203Y31523166D01*
X5569997Y31229128D01*
X5569997Y30910869D01*
X5448203Y30616831D01*
X5223166Y30391794D01*
X4929128Y30270000D01*
X4610869Y30270000D01*
G37*
%LPD*%
%LPC*%
G36*
X2070869Y32810000D02*
X2070869Y32810000D01*
X1776831Y32931794D01*
X1551794Y33156831D01*
X1430000Y33450869D01*
X1430000Y33769128D01*
X1551794Y34063166D01*
X1776831Y34288203D01*
X2070869Y34409997D01*
X2389128Y34409997D01*
X2683166Y34288203D01*
X2908203Y34063166D01*
X3029997Y33769128D01*
X3029997Y33450869D01*
X2908203Y33156831D01*
X2683166Y32931794D01*
X2389128Y32810000D01*
X2070869Y32810000D01*
G37*
%LPD*%
%LPC*%
G36*
X4610869Y32810000D02*
X4610869Y32810000D01*
X4316831Y32931794D01*
X4091794Y33156831D01*
X3970000Y33450869D01*
X3970000Y33769128D01*
X4091794Y34063166D01*
X4316831Y34288203D01*
X4610869Y34409997D01*
X4929128Y34409997D01*
X5223166Y34288203D01*
X5448203Y34063166D01*
X5569997Y33769128D01*
X5569997Y33450869D01*
X5448203Y33156831D01*
X5223166Y32931794D01*
X4929128Y32810000D01*
X4610869Y32810000D01*
G37*
%LPD*%
%LPC*%
G36*
X2070869Y35350000D02*
X2070869Y35350000D01*
X1776831Y35471794D01*
X1551794Y35696831D01*
X1430000Y35990869D01*
X1430000Y36309128D01*
X1551794Y36603166D01*
X1776831Y36828203D01*
X2070869Y36949997D01*
X2389128Y36949997D01*
X2683166Y36828203D01*
X2908203Y36603166D01*
X3029997Y36309128D01*
X3029997Y35990869D01*
X2908203Y35696831D01*
X2683166Y35471794D01*
X2389128Y35350000D01*
X2070869Y35350000D01*
G37*
%LPD*%
%LPC*%
G36*
X2070869Y63290000D02*
X2070869Y63290000D01*
X1776831Y63411794D01*
X1551794Y63636831D01*
X1430000Y63930869D01*
X1430000Y64249128D01*
X1551794Y64543166D01*
X1776831Y64768203D01*
X2070869Y64889997D01*
X2389128Y64889997D01*
X2683166Y64768203D01*
X2908203Y64543166D01*
X3029997Y64249128D01*
X3029997Y63930869D01*
X2908203Y63636831D01*
X2683166Y63411794D01*
X2389128Y63290000D01*
X2070869Y63290000D01*
G37*
%LPD*%
%LPC*%
G36*
X4610869Y63290000D02*
X4610869Y63290000D01*
X4316831Y63411794D01*
X4091794Y63636831D01*
X3970000Y63930869D01*
X3970000Y64249128D01*
X4091794Y64543166D01*
X4316831Y64768203D01*
X4610869Y64889997D01*
X4929128Y64889997D01*
X5223166Y64768203D01*
X5448203Y64543166D01*
X5569997Y64249128D01*
X5569997Y63930869D01*
X5448203Y63636831D01*
X5223166Y63411794D01*
X4929128Y63290000D01*
X4610869Y63290000D01*
G37*
%LPD*%
%LPC*%
G36*
X4610869Y35350000D02*
X4610869Y35350000D01*
X4316831Y35471794D01*
X4091794Y35696831D01*
X3970000Y35990869D01*
X3970000Y36309128D01*
X4091794Y36603166D01*
X4316831Y36828203D01*
X4610869Y36949997D01*
X4929128Y36949997D01*
X5223166Y36828203D01*
X5448203Y36603166D01*
X5569997Y36309128D01*
X5569997Y35990869D01*
X5448203Y35696831D01*
X5223166Y35471794D01*
X4929128Y35350000D01*
X4610869Y35350000D01*
G37*
%LPD*%
%LPC*%
G36*
X2070869Y37890000D02*
X2070869Y37890000D01*
X1776831Y38011794D01*
X1551794Y38236831D01*
X1430000Y38530869D01*
X1430000Y38849128D01*
X1551794Y39143166D01*
X1776831Y39368203D01*
X2070869Y39489997D01*
X2389128Y39489997D01*
X2683166Y39368203D01*
X2908203Y39143166D01*
X3029997Y38849128D01*
X3029997Y38530869D01*
X2908203Y38236831D01*
X2683166Y38011794D01*
X2389128Y37890000D01*
X2070869Y37890000D01*
G37*
%LPD*%
%LPC*%
G36*
X4610869Y37890000D02*
X4610869Y37890000D01*
X4316831Y38011794D01*
X4091794Y38236831D01*
X3970000Y38530869D01*
X3970000Y38849128D01*
X4091794Y39143166D01*
X4316831Y39368203D01*
X4610869Y39489997D01*
X4929128Y39489997D01*
X5223166Y39368203D01*
X5448203Y39143166D01*
X5569997Y38849128D01*
X5569997Y38530869D01*
X5448203Y38236831D01*
X5223166Y38011794D01*
X4929128Y37890000D01*
X4610869Y37890000D01*
G37*
%LPD*%
%LPC*%
G36*
X4610869Y60750000D02*
X4610869Y60750000D01*
X4316831Y60871794D01*
X4091794Y61096831D01*
X3970000Y61390869D01*
X3970000Y61709128D01*
X4091794Y62003166D01*
X4316831Y62228203D01*
X4610869Y62349997D01*
X4929128Y62349997D01*
X5223166Y62228203D01*
X5448203Y62003166D01*
X5569997Y61709128D01*
X5569997Y61390869D01*
X5448203Y61096831D01*
X5223166Y60871794D01*
X4929128Y60750000D01*
X4610869Y60750000D01*
G37*
%LPD*%
%LPC*%
G36*
X2070869Y60750000D02*
X2070869Y60750000D01*
X1776831Y60871794D01*
X1551794Y61096831D01*
X1430000Y61390869D01*
X1430000Y61709128D01*
X1551794Y62003166D01*
X1776831Y62228203D01*
X2070869Y62349997D01*
X2389128Y62349997D01*
X2683166Y62228203D01*
X2908203Y62003166D01*
X3029997Y61709128D01*
X3029997Y61390869D01*
X2908203Y61096831D01*
X2683166Y60871794D01*
X2389128Y60750000D01*
X2070869Y60750000D01*
G37*
%LPD*%
%LPC*%
G36*
X2070869Y40430000D02*
X2070869Y40430000D01*
X1776831Y40551794D01*
X1551794Y40776831D01*
X1430000Y41070869D01*
X1430000Y41389128D01*
X1551794Y41683166D01*
X1776831Y41908203D01*
X2070869Y42029997D01*
X2389128Y42029997D01*
X2683166Y41908203D01*
X2908203Y41683166D01*
X3029997Y41389128D01*
X3029997Y41070869D01*
X2908203Y40776831D01*
X2683166Y40551794D01*
X2389128Y40430000D01*
X2070869Y40430000D01*
G37*
%LPD*%
%LPC*%
G36*
X4610869Y40430000D02*
X4610869Y40430000D01*
X4316831Y40551794D01*
X4091794Y40776831D01*
X3970000Y41070869D01*
X3970000Y41389128D01*
X4091794Y41683166D01*
X4316831Y41908203D01*
X4610869Y42029997D01*
X4929128Y42029997D01*
X5223166Y41908203D01*
X5448203Y41683166D01*
X5569997Y41389128D01*
X5569997Y41070869D01*
X5448203Y40776831D01*
X5223166Y40551794D01*
X4929128Y40430000D01*
X4610869Y40430000D01*
G37*
%LPD*%
%LPC*%
G36*
X4610869Y58210000D02*
X4610869Y58210000D01*
X4316831Y58331794D01*
X4091794Y58556831D01*
X3970000Y58850869D01*
X3970000Y59169128D01*
X4091794Y59463166D01*
X4316831Y59688203D01*
X4610869Y59809997D01*
X4929128Y59809997D01*
X5223166Y59688203D01*
X5448203Y59463166D01*
X5569997Y59169128D01*
X5569997Y58850869D01*
X5448203Y58556831D01*
X5223166Y58331794D01*
X4929128Y58210000D01*
X4610869Y58210000D01*
G37*
%LPD*%
%LPC*%
G36*
X2070869Y58210000D02*
X2070869Y58210000D01*
X1776831Y58331794D01*
X1551794Y58556831D01*
X1430000Y58850869D01*
X1430000Y59169128D01*
X1551794Y59463166D01*
X1776831Y59688203D01*
X2070869Y59809997D01*
X2389128Y59809997D01*
X2683166Y59688203D01*
X2908203Y59463166D01*
X3029997Y59169128D01*
X3029997Y58850869D01*
X2908203Y58556831D01*
X2683166Y58331794D01*
X2389128Y58210000D01*
X2070869Y58210000D01*
G37*
%LPD*%
%LPC*%
G36*
X4610869Y42970000D02*
X4610869Y42970000D01*
X4316831Y43091794D01*
X4091794Y43316831D01*
X3970000Y43610869D01*
X3970000Y43929128D01*
X4091794Y44223166D01*
X4316831Y44448203D01*
X4610869Y44569997D01*
X4929128Y44569997D01*
X5223166Y44448203D01*
X5448203Y44223166D01*
X5569997Y43929128D01*
X5569997Y43610869D01*
X5448203Y43316831D01*
X5223166Y43091794D01*
X4929128Y42970000D01*
X4610869Y42970000D01*
G37*
%LPD*%
%LPC*%
G36*
X31562606Y20978900D02*
X31562606Y20978900D01*
X31297600Y21243906D01*
X31297600Y21626697D01*
X31297828Y21627041D01*
X31301253Y21637844D01*
X31305297Y21648444D01*
X31305541Y21651363D01*
X31306425Y21654150D01*
X31306722Y21665491D01*
X31307666Y21676784D01*
X31307091Y21679653D01*
X31307169Y21682581D01*
X31304316Y21693541D01*
X31302091Y21704672D01*
X31300744Y21707272D01*
X31300006Y21710103D01*
X31294225Y21719844D01*
X31289003Y21729922D01*
X31286984Y21732050D01*
X31285494Y21734563D01*
X31277231Y21742331D01*
X31269428Y21750553D01*
X31266906Y21752034D01*
X31264772Y21754041D01*
X31262509Y21755200D01*
X31107444Y21910269D01*
X31102794Y21913769D01*
X31098784Y21917991D01*
X31091472Y21922284D01*
X31084716Y21927366D01*
X31079291Y21929434D01*
X31074259Y21932388D01*
X31066044Y21934484D01*
X31058141Y21937497D01*
X31052338Y21937981D01*
X31046703Y21939419D01*
X31038247Y21939156D01*
X31029800Y21939863D01*
X31024094Y21938719D01*
X31018278Y21938541D01*
X31010222Y21935944D01*
X31001916Y21934281D01*
X30996744Y21931600D01*
X30991209Y21929816D01*
X30985600Y21925822D01*
X30976669Y21921191D01*
X30969363Y21914259D01*
X30963759Y21910269D01*
X30826091Y21772600D01*
X30451306Y21772600D01*
X30186300Y22037606D01*
X30186300Y22412391D01*
X30451306Y22677397D01*
X30826091Y22677397D01*
X30963759Y22539728D01*
X30968406Y22536231D01*
X30972416Y22532006D01*
X30979716Y22527722D01*
X30986484Y22522628D01*
X30991928Y22520553D01*
X30996944Y22517609D01*
X31005141Y22515519D01*
X31013059Y22512500D01*
X31018869Y22512016D01*
X31024500Y22510578D01*
X31032956Y22510841D01*
X31041400Y22510134D01*
X31047106Y22511275D01*
X31052925Y22511456D01*
X31060984Y22514053D01*
X31069288Y22515716D01*
X31074459Y22518397D01*
X31079994Y22520181D01*
X31085603Y22524175D01*
X31094534Y22528806D01*
X31101831Y22535731D01*
X31107444Y22539728D01*
X31245109Y22677397D01*
X31619891Y22677397D01*
X31884897Y22412391D01*
X31884897Y22029600D01*
X31884669Y22029256D01*
X31881244Y22018453D01*
X31877200Y22007853D01*
X31876956Y22004934D01*
X31876072Y22002147D01*
X31875775Y21990806D01*
X31874831Y21979513D01*
X31875406Y21976644D01*
X31875328Y21973716D01*
X31878184Y21962744D01*
X31880406Y21951625D01*
X31881753Y21949025D01*
X31882491Y21946194D01*
X31888272Y21936453D01*
X31893494Y21926375D01*
X31895513Y21924247D01*
X31897003Y21921734D01*
X31905266Y21913966D01*
X31913069Y21905744D01*
X31915591Y21904263D01*
X31917725Y21902256D01*
X31919994Y21901094D01*
X32202397Y21618691D01*
X32202397Y21243906D01*
X31937391Y20978900D01*
X31562606Y20978900D01*
G37*
%LPD*%
%LPC*%
G36*
X20450106Y81779900D02*
X20450106Y81779900D01*
X20185100Y82044906D01*
X20185100Y82419691D01*
X20450106Y82684697D01*
X20824888Y82684697D01*
X20964156Y82545425D01*
X20966491Y82543669D01*
X20968375Y82541441D01*
X20977828Y82535141D01*
X20986884Y82528328D01*
X20989609Y82527291D01*
X20992041Y82525669D01*
X21002859Y82522238D01*
X21013459Y82518197D01*
X21016369Y82517953D01*
X21019150Y82517072D01*
X21030491Y82516775D01*
X21041800Y82515831D01*
X21044663Y82516403D01*
X21047581Y82516328D01*
X21058569Y82519188D01*
X21069684Y82521413D01*
X21072272Y82522753D01*
X21075103Y82523491D01*
X21084878Y82529291D01*
X21094931Y82534503D01*
X21097047Y82536509D01*
X21099563Y82538003D01*
X21107334Y82546272D01*
X21115563Y82554078D01*
X21117041Y82556597D01*
X21119041Y82558725D01*
X21124222Y82568838D01*
X21129956Y82578606D01*
X21130675Y82581428D01*
X21132013Y82584034D01*
X21133306Y82591731D01*
X21136991Y82606163D01*
X21136797Y82612481D01*
X21137600Y82617266D01*
X21137600Y82737191D01*
X21402606Y83002197D01*
X21777391Y83002197D01*
X22042397Y82737191D01*
X22042397Y82362406D01*
X21777391Y82097400D01*
X21402609Y82097400D01*
X21263341Y82236672D01*
X21261006Y82238428D01*
X21259122Y82240656D01*
X21249669Y82246956D01*
X21240613Y82253769D01*
X21237888Y82254806D01*
X21235456Y82256428D01*
X21224638Y82259859D01*
X21214038Y82263900D01*
X21211128Y82264144D01*
X21208347Y82265025D01*
X21197006Y82265322D01*
X21185697Y82266266D01*
X21182834Y82265694D01*
X21179916Y82265769D01*
X21168928Y82262909D01*
X21157813Y82260684D01*
X21155225Y82259344D01*
X21152394Y82258606D01*
X21142619Y82252806D01*
X21132566Y82247594D01*
X21130450Y82245588D01*
X21127934Y82244094D01*
X21120163Y82235825D01*
X21111934Y82228019D01*
X21110456Y82225500D01*
X21108456Y82223372D01*
X21103275Y82213259D01*
X21097541Y82203491D01*
X21096822Y82200669D01*
X21095484Y82198063D01*
X21094191Y82190366D01*
X21090506Y82175934D01*
X21090700Y82169616D01*
X21089897Y82164831D01*
X21089897Y82044906D01*
X20824891Y81779900D01*
X20450106Y81779900D01*
G37*
%LPD*%
%LPC*%
G36*
X28705106Y80510100D02*
X28705106Y80510100D01*
X28440100Y80775106D01*
X28440100Y81149891D01*
X28705106Y81414897D01*
X29079888Y81414897D01*
X29296903Y81197878D01*
X29301553Y81194378D01*
X29305563Y81190156D01*
X29312875Y81185863D01*
X29319631Y81180781D01*
X29325056Y81178713D01*
X29330088Y81175759D01*
X29338303Y81173663D01*
X29346206Y81170650D01*
X29352009Y81170166D01*
X29357644Y81168728D01*
X29366100Y81168991D01*
X29374547Y81168284D01*
X29380253Y81169428D01*
X29386069Y81169606D01*
X29394125Y81172203D01*
X29402431Y81173866D01*
X29407603Y81176547D01*
X29413138Y81178331D01*
X29418747Y81182325D01*
X29427678Y81186956D01*
X29434978Y81193884D01*
X29440588Y81197878D01*
X29657606Y81414897D01*
X30032391Y81414897D01*
X30297397Y81149891D01*
X30297397Y80775106D01*
X30032391Y80510100D01*
X29657606Y80510100D01*
X29440588Y80727119D01*
X29435944Y80730613D01*
X29431931Y80734841D01*
X29424631Y80739125D01*
X29417863Y80744219D01*
X29412419Y80746294D01*
X29407403Y80749238D01*
X29399203Y80751331D01*
X29391288Y80754347D01*
X29385481Y80754831D01*
X29379850Y80756269D01*
X29371394Y80756006D01*
X29362947Y80756713D01*
X29357241Y80755572D01*
X29351422Y80755391D01*
X29343363Y80752794D01*
X29335059Y80751131D01*
X29329888Y80748450D01*
X29324353Y80746666D01*
X29318744Y80742672D01*
X29309813Y80738041D01*
X29302516Y80731116D01*
X29296903Y80727119D01*
X29079888Y80510100D01*
X28705106Y80510100D01*
G37*
%LPD*%
%LPC*%
G36*
X35848806Y52570100D02*
X35848806Y52570100D01*
X35583800Y52835106D01*
X35583800Y53209891D01*
X35800819Y53426909D01*
X35804313Y53431553D01*
X35808541Y53435566D01*
X35812825Y53442866D01*
X35817919Y53449634D01*
X35819994Y53455078D01*
X35822938Y53460094D01*
X35825031Y53468294D01*
X35828047Y53476209D01*
X35828531Y53482016D01*
X35829969Y53487647D01*
X35829706Y53496103D01*
X35830413Y53504550D01*
X35829272Y53510256D01*
X35829091Y53516075D01*
X35826494Y53524134D01*
X35824831Y53532438D01*
X35822150Y53537609D01*
X35820366Y53543144D01*
X35816372Y53548753D01*
X35811741Y53557684D01*
X35804816Y53564981D01*
X35800819Y53570594D01*
X35583800Y53787609D01*
X35583800Y54162391D01*
X35848806Y54427397D01*
X36223591Y54427397D01*
X36488597Y54162391D01*
X36488597Y53787609D01*
X36271578Y53570594D01*
X36268078Y53565944D01*
X36263856Y53561934D01*
X36259563Y53554622D01*
X36254481Y53547866D01*
X36252413Y53542441D01*
X36249459Y53537409D01*
X36247363Y53529194D01*
X36244350Y53521291D01*
X36243866Y53515488D01*
X36242428Y53509853D01*
X36242691Y53501397D01*
X36241984Y53492950D01*
X36243128Y53487244D01*
X36243306Y53481428D01*
X36245903Y53473372D01*
X36247566Y53465066D01*
X36250247Y53459894D01*
X36252031Y53454359D01*
X36256025Y53448750D01*
X36260656Y53439819D01*
X36267584Y53432519D01*
X36271578Y53426909D01*
X36488597Y53209891D01*
X36488597Y52835106D01*
X36223591Y52570100D01*
X35848806Y52570100D01*
G37*
%LPD*%
%LPC*%
G36*
X23942606Y48125100D02*
X23942606Y48125100D01*
X23677600Y48390106D01*
X23677600Y48764891D01*
X23942606Y49029897D01*
X24317388Y49029897D01*
X24534403Y48812878D01*
X24539053Y48809378D01*
X24543063Y48805156D01*
X24550375Y48800863D01*
X24557131Y48795781D01*
X24562556Y48793713D01*
X24567588Y48790759D01*
X24575803Y48788663D01*
X24583706Y48785650D01*
X24589509Y48785166D01*
X24595144Y48783728D01*
X24603600Y48783991D01*
X24612047Y48783284D01*
X24617753Y48784428D01*
X24623569Y48784606D01*
X24631625Y48787203D01*
X24639931Y48788866D01*
X24645103Y48791547D01*
X24650638Y48793331D01*
X24656247Y48797325D01*
X24665178Y48801956D01*
X24672478Y48808884D01*
X24678088Y48812878D01*
X24895106Y49029897D01*
X25269891Y49029897D01*
X25534897Y48764891D01*
X25534897Y48390106D01*
X25269891Y48125100D01*
X24895106Y48125100D01*
X24678088Y48342119D01*
X24673444Y48345613D01*
X24669431Y48349841D01*
X24662131Y48354125D01*
X24655363Y48359219D01*
X24649919Y48361294D01*
X24644903Y48364238D01*
X24636703Y48366331D01*
X24628788Y48369347D01*
X24622981Y48369831D01*
X24617350Y48371269D01*
X24608894Y48371006D01*
X24600447Y48371713D01*
X24594741Y48370572D01*
X24588922Y48370391D01*
X24580863Y48367794D01*
X24572559Y48366131D01*
X24567388Y48363450D01*
X24561853Y48361666D01*
X24556244Y48357672D01*
X24547313Y48353041D01*
X24540016Y48346116D01*
X24534403Y48342119D01*
X24317388Y48125100D01*
X23942606Y48125100D01*
G37*
%LPD*%
%LPC*%
G36*
X17751306Y47172600D02*
X17751306Y47172600D01*
X17486300Y47437606D01*
X17486300Y47812391D01*
X17751306Y48077397D01*
X18019800Y48077397D01*
X18025563Y48078213D01*
X18031381Y48078059D01*
X18039584Y48080194D01*
X18047959Y48081378D01*
X18053263Y48083753D01*
X18058903Y48085222D01*
X18066197Y48089550D01*
X18073913Y48093006D01*
X18078353Y48096763D01*
X18083363Y48099734D01*
X18089166Y48105909D01*
X18095625Y48111372D01*
X18098850Y48116209D01*
X18102841Y48120456D01*
X18106709Y48128003D01*
X18111397Y48135038D01*
X18113153Y48140578D01*
X18115813Y48145766D01*
X18116956Y48152569D01*
X18119994Y48162147D01*
X18120256Y48172197D01*
X18121400Y48178997D01*
X18121400Y48447391D01*
X18386406Y48712397D01*
X18761191Y48712397D01*
X19026197Y48447391D01*
X19026197Y48072606D01*
X18761191Y47807600D01*
X18492697Y47807600D01*
X18486934Y47806784D01*
X18481116Y47806938D01*
X18472913Y47804803D01*
X18464538Y47803619D01*
X18459234Y47801244D01*
X18453594Y47799775D01*
X18446300Y47795447D01*
X18438584Y47791991D01*
X18434144Y47788234D01*
X18429134Y47785263D01*
X18423331Y47779088D01*
X18416872Y47773625D01*
X18413647Y47768788D01*
X18409656Y47764541D01*
X18405788Y47756994D01*
X18401100Y47749959D01*
X18399344Y47744419D01*
X18396684Y47739231D01*
X18395541Y47732428D01*
X18392503Y47722850D01*
X18392241Y47712800D01*
X18391097Y47706000D01*
X18391097Y47437606D01*
X18126091Y47172600D01*
X17751306Y47172600D01*
G37*
%LPD*%
%LPC*%
G36*
X27276306Y53681400D02*
X27276306Y53681400D01*
X27011300Y53946406D01*
X27011300Y54321191D01*
X27276306Y54586197D01*
X27544800Y54586197D01*
X27550563Y54587013D01*
X27556381Y54586859D01*
X27564584Y54588994D01*
X27572959Y54590178D01*
X27578263Y54592553D01*
X27583903Y54594022D01*
X27591197Y54598350D01*
X27598913Y54601806D01*
X27603353Y54605563D01*
X27608363Y54608534D01*
X27614166Y54614709D01*
X27620625Y54620172D01*
X27623850Y54625009D01*
X27627841Y54629256D01*
X27631709Y54636803D01*
X27636397Y54643838D01*
X27638153Y54649378D01*
X27640813Y54654566D01*
X27641956Y54661369D01*
X27644994Y54670947D01*
X27645256Y54680997D01*
X27646400Y54687797D01*
X27646400Y54956191D01*
X27911406Y55221197D01*
X28286191Y55221197D01*
X28551197Y54956191D01*
X28551197Y54581406D01*
X28286191Y54316400D01*
X28017697Y54316400D01*
X28011934Y54315584D01*
X28006116Y54315738D01*
X27997913Y54313603D01*
X27989538Y54312419D01*
X27984234Y54310044D01*
X27978594Y54308575D01*
X27971300Y54304247D01*
X27963584Y54300791D01*
X27959144Y54297034D01*
X27954134Y54294063D01*
X27948331Y54287888D01*
X27941872Y54282425D01*
X27938647Y54277588D01*
X27934656Y54273341D01*
X27930788Y54265794D01*
X27926100Y54258759D01*
X27924344Y54253219D01*
X27921684Y54248031D01*
X27920541Y54241228D01*
X27917503Y54231650D01*
X27917241Y54221600D01*
X27916097Y54214800D01*
X27916097Y53946406D01*
X27651091Y53681400D01*
X27276306Y53681400D01*
G37*
%LPD*%
%LPC*%
G36*
X26641306Y51617500D02*
X26641306Y51617500D01*
X26376300Y51882506D01*
X26376300Y52151000D01*
X26375484Y52156763D01*
X26375638Y52162581D01*
X26373503Y52170784D01*
X26372319Y52179159D01*
X26369944Y52184463D01*
X26368475Y52190103D01*
X26364147Y52197397D01*
X26360691Y52205113D01*
X26356934Y52209553D01*
X26353963Y52214563D01*
X26347788Y52220366D01*
X26342325Y52226825D01*
X26337488Y52230050D01*
X26333241Y52234041D01*
X26325694Y52237909D01*
X26318659Y52242597D01*
X26313119Y52244353D01*
X26307931Y52247013D01*
X26301128Y52248156D01*
X26291550Y52251194D01*
X26281500Y52251456D01*
X26274700Y52252600D01*
X26006306Y52252600D01*
X25741300Y52517606D01*
X25741300Y52892391D01*
X26006306Y53157397D01*
X26381091Y53157397D01*
X26646097Y52892391D01*
X26646097Y52623897D01*
X26646909Y52618150D01*
X26646759Y52612416D01*
X26646763Y52612406D01*
X26646759Y52612316D01*
X26648894Y52604113D01*
X26650078Y52595738D01*
X26652453Y52590434D01*
X26653922Y52584794D01*
X26658250Y52577500D01*
X26661706Y52569784D01*
X26665463Y52565344D01*
X26668434Y52560334D01*
X26674609Y52554531D01*
X26680072Y52548072D01*
X26684909Y52544847D01*
X26689156Y52540856D01*
X26696703Y52536988D01*
X26703738Y52532300D01*
X26709278Y52530544D01*
X26714466Y52527884D01*
X26721269Y52526741D01*
X26730847Y52523703D01*
X26740897Y52523441D01*
X26747697Y52522297D01*
X27016091Y52522297D01*
X27281097Y52257291D01*
X27281097Y51882506D01*
X27016091Y51617500D01*
X26641306Y51617500D01*
G37*
%LPD*%
%LPC*%
G36*
X14417606Y61142600D02*
X14417606Y61142600D01*
X14152600Y61407606D01*
X14152600Y61676000D01*
X14151784Y61681763D01*
X14151938Y61687581D01*
X14149803Y61695784D01*
X14148619Y61704159D01*
X14146244Y61709463D01*
X14144775Y61715103D01*
X14140447Y61722397D01*
X14136991Y61730113D01*
X14133234Y61734553D01*
X14130263Y61739563D01*
X14124088Y61745366D01*
X14118625Y61751825D01*
X14113788Y61755050D01*
X14109541Y61759041D01*
X14101994Y61762909D01*
X14094959Y61767597D01*
X14089419Y61769353D01*
X14084231Y61772013D01*
X14077428Y61773156D01*
X14067850Y61776194D01*
X14057800Y61776456D01*
X14051000Y61777600D01*
X13782606Y61777600D01*
X13517600Y62042606D01*
X13517600Y62417391D01*
X13782606Y62682397D01*
X14157391Y62682397D01*
X14422397Y62417391D01*
X14422397Y62148997D01*
X14423213Y62143234D01*
X14423059Y62137416D01*
X14425194Y62129213D01*
X14426378Y62120838D01*
X14428753Y62115534D01*
X14430222Y62109894D01*
X14434550Y62102600D01*
X14438006Y62094884D01*
X14441763Y62090444D01*
X14444734Y62085434D01*
X14450909Y62079631D01*
X14456372Y62073172D01*
X14461209Y62069947D01*
X14465456Y62065956D01*
X14473003Y62062088D01*
X14480038Y62057400D01*
X14485578Y62055644D01*
X14490766Y62052984D01*
X14497569Y62051841D01*
X14507147Y62048803D01*
X14517197Y62048541D01*
X14523997Y62047397D01*
X14792391Y62047397D01*
X15057397Y61782391D01*
X15057397Y61407606D01*
X14792391Y61142600D01*
X14417606Y61142600D01*
G37*
%LPD*%
%LPC*%
G36*
X21402606Y63682600D02*
X21402606Y63682600D01*
X21137600Y63947606D01*
X21137600Y64322391D01*
X21402606Y64587397D01*
X21671000Y64587397D01*
X21676763Y64588213D01*
X21682581Y64588059D01*
X21690784Y64590194D01*
X21699159Y64591378D01*
X21704463Y64593753D01*
X21710103Y64595222D01*
X21717397Y64599550D01*
X21725113Y64603006D01*
X21729553Y64606763D01*
X21734563Y64609734D01*
X21740366Y64615909D01*
X21746825Y64621372D01*
X21750050Y64626209D01*
X21754041Y64630456D01*
X21757909Y64638003D01*
X21762597Y64645038D01*
X21764353Y64650578D01*
X21767013Y64655766D01*
X21768156Y64662569D01*
X21771194Y64672147D01*
X21771456Y64682197D01*
X21772600Y64688997D01*
X21772600Y64957391D01*
X22037606Y65222397D01*
X22412391Y65222397D01*
X22677397Y64957391D01*
X22677397Y64582606D01*
X22412391Y64317600D01*
X22143997Y64317600D01*
X22138234Y64316784D01*
X22132416Y64316938D01*
X22124213Y64314803D01*
X22115838Y64313619D01*
X22110534Y64311244D01*
X22104894Y64309775D01*
X22097600Y64305447D01*
X22089884Y64301991D01*
X22085444Y64298234D01*
X22080434Y64295263D01*
X22074631Y64289088D01*
X22068172Y64283625D01*
X22064947Y64278788D01*
X22060956Y64274541D01*
X22057088Y64266994D01*
X22052400Y64259959D01*
X22050644Y64254419D01*
X22047984Y64249231D01*
X22046841Y64242428D01*
X22043803Y64232850D01*
X22043541Y64222800D01*
X22042397Y64216000D01*
X22042397Y63947606D01*
X21777391Y63682600D01*
X21402606Y63682600D01*
G37*
%LPD*%
%LPC*%
G36*
X23942606Y65270100D02*
X23942606Y65270100D01*
X23677600Y65535106D01*
X23677600Y65803500D01*
X23676784Y65809263D01*
X23676938Y65815081D01*
X23674803Y65823284D01*
X23673619Y65831659D01*
X23671244Y65836963D01*
X23669775Y65842603D01*
X23665447Y65849897D01*
X23661991Y65857613D01*
X23658234Y65862053D01*
X23655263Y65867063D01*
X23649088Y65872866D01*
X23643625Y65879325D01*
X23638788Y65882550D01*
X23634541Y65886541D01*
X23626994Y65890409D01*
X23619959Y65895097D01*
X23614419Y65896853D01*
X23609231Y65899513D01*
X23602428Y65900656D01*
X23592850Y65903694D01*
X23582800Y65903956D01*
X23576000Y65905100D01*
X23307606Y65905100D01*
X23042600Y66170106D01*
X23042600Y66544891D01*
X23307606Y66809897D01*
X23682391Y66809897D01*
X23947397Y66544891D01*
X23947397Y66276497D01*
X23948213Y66270734D01*
X23948059Y66264916D01*
X23950194Y66256713D01*
X23951378Y66248338D01*
X23953753Y66243034D01*
X23955222Y66237394D01*
X23959550Y66230100D01*
X23963006Y66222384D01*
X23966763Y66217944D01*
X23969734Y66212934D01*
X23975909Y66207131D01*
X23981372Y66200672D01*
X23986209Y66197447D01*
X23990456Y66193456D01*
X23998003Y66189588D01*
X24005038Y66184900D01*
X24010578Y66183144D01*
X24015766Y66180484D01*
X24022569Y66179341D01*
X24032147Y66176303D01*
X24042197Y66176041D01*
X24048997Y66174897D01*
X24317391Y66174897D01*
X24582397Y65909891D01*
X24582397Y65535106D01*
X24317391Y65270100D01*
X23942606Y65270100D01*
G37*
%LPD*%
%LPC*%
G36*
X22037606Y52252600D02*
X22037606Y52252600D01*
X21772600Y52517606D01*
X21772600Y52786000D01*
X21771784Y52791763D01*
X21771938Y52797581D01*
X21769803Y52805784D01*
X21768619Y52814159D01*
X21766244Y52819463D01*
X21764775Y52825103D01*
X21760447Y52832397D01*
X21756991Y52840113D01*
X21753234Y52844553D01*
X21750263Y52849563D01*
X21744088Y52855366D01*
X21738625Y52861825D01*
X21733788Y52865050D01*
X21729541Y52869041D01*
X21721994Y52872909D01*
X21714959Y52877597D01*
X21709419Y52879353D01*
X21704231Y52882013D01*
X21697428Y52883156D01*
X21687850Y52886194D01*
X21677800Y52886456D01*
X21671000Y52887600D01*
X21402606Y52887600D01*
X21137600Y53152606D01*
X21137600Y53527391D01*
X21402606Y53792397D01*
X21777391Y53792397D01*
X22042397Y53527391D01*
X22042397Y53258997D01*
X22043213Y53253234D01*
X22043059Y53247416D01*
X22045194Y53239213D01*
X22046378Y53230838D01*
X22048753Y53225534D01*
X22050222Y53219894D01*
X22054550Y53212600D01*
X22058006Y53204884D01*
X22061763Y53200444D01*
X22064734Y53195434D01*
X22070909Y53189631D01*
X22076372Y53183172D01*
X22081209Y53179947D01*
X22085456Y53175956D01*
X22093003Y53172088D01*
X22100038Y53167400D01*
X22105578Y53165644D01*
X22110766Y53162984D01*
X22117569Y53161841D01*
X22127147Y53158803D01*
X22137197Y53158541D01*
X22143997Y53157397D01*
X22412391Y53157397D01*
X22677397Y52892391D01*
X22677397Y52517606D01*
X22412391Y52252600D01*
X22037606Y52252600D01*
G37*
%LPD*%
%LPC*%
G36*
X35372606Y60507600D02*
X35372606Y60507600D01*
X35107600Y60772606D01*
X35107600Y61147391D01*
X35372606Y61412397D01*
X35641000Y61412397D01*
X35646763Y61413213D01*
X35652581Y61413059D01*
X35660784Y61415194D01*
X35669159Y61416378D01*
X35674463Y61418753D01*
X35680103Y61420222D01*
X35687397Y61424550D01*
X35695113Y61428006D01*
X35699553Y61431763D01*
X35704563Y61434734D01*
X35710366Y61440909D01*
X35716825Y61446372D01*
X35720050Y61451209D01*
X35724041Y61455456D01*
X35727909Y61463003D01*
X35732597Y61470038D01*
X35734353Y61475578D01*
X35737013Y61480766D01*
X35738156Y61487569D01*
X35741194Y61497147D01*
X35741456Y61507197D01*
X35742600Y61513997D01*
X35742600Y61782391D01*
X36007606Y62047397D01*
X36382391Y62047397D01*
X36647397Y61782391D01*
X36647397Y61407606D01*
X36382391Y61142600D01*
X36113997Y61142600D01*
X36108234Y61141784D01*
X36102416Y61141938D01*
X36094213Y61139803D01*
X36085838Y61138619D01*
X36080534Y61136244D01*
X36074894Y61134775D01*
X36067600Y61130447D01*
X36059884Y61126991D01*
X36055444Y61123234D01*
X36050434Y61120263D01*
X36044631Y61114088D01*
X36038172Y61108625D01*
X36034947Y61103788D01*
X36030956Y61099541D01*
X36027088Y61091994D01*
X36022400Y61084959D01*
X36020644Y61079419D01*
X36017984Y61074231D01*
X36016841Y61067428D01*
X36013803Y61057850D01*
X36013541Y61047800D01*
X36012397Y61041000D01*
X36012397Y60772606D01*
X35747391Y60507600D01*
X35372606Y60507600D01*
G37*
%LPD*%
%LPC*%
G36*
X16957606Y48442600D02*
X16957606Y48442600D01*
X16692600Y48707606D01*
X16692600Y49082391D01*
X16957606Y49347397D01*
X17226000Y49347397D01*
X17231763Y49348213D01*
X17237581Y49348059D01*
X17245784Y49350194D01*
X17254159Y49351378D01*
X17259463Y49353753D01*
X17265103Y49355222D01*
X17272397Y49359550D01*
X17280113Y49363006D01*
X17284553Y49366763D01*
X17289563Y49369734D01*
X17295366Y49375909D01*
X17301825Y49381372D01*
X17305050Y49386209D01*
X17309041Y49390456D01*
X17312909Y49398003D01*
X17317597Y49405038D01*
X17319353Y49410578D01*
X17322013Y49415766D01*
X17323156Y49422569D01*
X17326194Y49432147D01*
X17326456Y49442197D01*
X17327600Y49448997D01*
X17327600Y49717391D01*
X17592606Y49982397D01*
X17967391Y49982397D01*
X18232397Y49717391D01*
X18232397Y49342606D01*
X17967391Y49077600D01*
X17698997Y49077600D01*
X17693234Y49076784D01*
X17687416Y49076938D01*
X17679213Y49074803D01*
X17670838Y49073619D01*
X17665534Y49071244D01*
X17659894Y49069775D01*
X17652600Y49065447D01*
X17644884Y49061991D01*
X17640444Y49058234D01*
X17635434Y49055263D01*
X17629631Y49049088D01*
X17623172Y49043625D01*
X17619947Y49038788D01*
X17615956Y49034541D01*
X17612088Y49026994D01*
X17607400Y49019959D01*
X17605644Y49014419D01*
X17602984Y49009231D01*
X17601841Y49002428D01*
X17598803Y48992850D01*
X17598541Y48982800D01*
X17597397Y48976000D01*
X17597397Y48707606D01*
X17332391Y48442600D01*
X16957606Y48442600D01*
G37*
%LPD*%
%LPC*%
G36*
X30610106Y41457600D02*
X30610106Y41457600D01*
X30345100Y41722606D01*
X30345100Y41991000D01*
X30344284Y41996763D01*
X30344438Y42002581D01*
X30342303Y42010784D01*
X30341119Y42019159D01*
X30338744Y42024463D01*
X30337275Y42030103D01*
X30332947Y42037397D01*
X30329491Y42045113D01*
X30325734Y42049553D01*
X30322763Y42054563D01*
X30316588Y42060366D01*
X30311125Y42066825D01*
X30306288Y42070050D01*
X30302041Y42074041D01*
X30294494Y42077909D01*
X30287459Y42082597D01*
X30281919Y42084353D01*
X30276731Y42087013D01*
X30269928Y42088156D01*
X30260350Y42091194D01*
X30250300Y42091456D01*
X30243500Y42092600D01*
X29975106Y42092600D01*
X29710100Y42357606D01*
X29710100Y42732391D01*
X29975106Y42997397D01*
X30349891Y42997397D01*
X30614897Y42732391D01*
X30614897Y42463997D01*
X30615713Y42458234D01*
X30615559Y42452416D01*
X30617694Y42444213D01*
X30618878Y42435838D01*
X30621253Y42430534D01*
X30622722Y42424894D01*
X30627050Y42417600D01*
X30630506Y42409884D01*
X30634263Y42405444D01*
X30637234Y42400434D01*
X30643409Y42394631D01*
X30648872Y42388172D01*
X30653709Y42384947D01*
X30657956Y42380956D01*
X30665503Y42377088D01*
X30672538Y42372400D01*
X30678078Y42370644D01*
X30683266Y42367984D01*
X30690069Y42366841D01*
X30699647Y42363803D01*
X30709697Y42363541D01*
X30716497Y42362397D01*
X30984891Y42362397D01*
X31249897Y42097391D01*
X31249897Y41722606D01*
X30984891Y41457600D01*
X30610106Y41457600D01*
G37*
%LPD*%
%LPC*%
G36*
X27276306Y49077600D02*
X27276306Y49077600D01*
X27011300Y49342606D01*
X27011300Y49717391D01*
X27276306Y49982397D01*
X27651091Y49982397D01*
X27788759Y49844728D01*
X27793406Y49841231D01*
X27797416Y49837006D01*
X27804716Y49832722D01*
X27811484Y49827628D01*
X27816928Y49825553D01*
X27821944Y49822609D01*
X27830141Y49820519D01*
X27838059Y49817500D01*
X27843869Y49817016D01*
X27849500Y49815578D01*
X27857956Y49815841D01*
X27866400Y49815134D01*
X27872106Y49816275D01*
X27877925Y49816456D01*
X27885984Y49819053D01*
X27894288Y49820716D01*
X27899459Y49823397D01*
X27904994Y49825181D01*
X27910603Y49829175D01*
X27919534Y49833806D01*
X27926831Y49840731D01*
X27932444Y49844728D01*
X28070109Y49982397D01*
X28444891Y49982397D01*
X28709897Y49717391D01*
X28709897Y49342606D01*
X28444891Y49077600D01*
X28070109Y49077600D01*
X27932444Y49215269D01*
X27927794Y49218769D01*
X27923784Y49222991D01*
X27916472Y49227284D01*
X27909716Y49232366D01*
X27904291Y49234434D01*
X27899259Y49237388D01*
X27891044Y49239484D01*
X27883141Y49242497D01*
X27877338Y49242981D01*
X27871703Y49244419D01*
X27863247Y49244156D01*
X27854800Y49244863D01*
X27849094Y49243719D01*
X27843278Y49243541D01*
X27835222Y49240944D01*
X27826916Y49239281D01*
X27821744Y49236600D01*
X27816209Y49234816D01*
X27810600Y49230822D01*
X27801669Y49226191D01*
X27794363Y49219259D01*
X27788759Y49215269D01*
X27651091Y49077600D01*
X27276306Y49077600D01*
G37*
%LPD*%
%LPC*%
G36*
X41256194Y73055194D02*
X41256194Y73055194D01*
X41256194Y74085394D01*
X41345709Y74071216D01*
X41532847Y74010413D01*
X41708131Y73921100D01*
X41867331Y73805434D01*
X42006434Y73666331D01*
X42122100Y73507131D01*
X42211413Y73331847D01*
X42272216Y73144709D01*
X42286394Y73055194D01*
X41256194Y73055194D01*
G37*
%LPD*%
%LPC*%
G36*
X41256194Y72648800D02*
X41256194Y72648800D01*
X42286394Y72648800D01*
X42272216Y72559288D01*
X42211413Y72372150D01*
X42122100Y72196866D01*
X42006434Y72037666D01*
X41867331Y71898563D01*
X41708131Y71782897D01*
X41532847Y71693584D01*
X41345709Y71632781D01*
X41256194Y71618603D01*
X41256194Y72648800D01*
G37*
%LPD*%
%LPC*%
G36*
X55313603Y73055194D02*
X55313603Y73055194D01*
X55327781Y73144709D01*
X55388584Y73331847D01*
X55477897Y73507131D01*
X55593563Y73666331D01*
X55732666Y73805434D01*
X55891866Y73921100D01*
X56067150Y74010413D01*
X56254288Y74071216D01*
X56343800Y74085394D01*
X56343800Y73055194D01*
X55313603Y73055194D01*
G37*
%LPD*%
%LPC*%
G36*
X39819603Y73055194D02*
X39819603Y73055194D01*
X39833781Y73144709D01*
X39894584Y73331847D01*
X39983897Y73507131D01*
X40099563Y73666331D01*
X40238666Y73805434D01*
X40397866Y73921100D01*
X40573150Y74010413D01*
X40760288Y74071216D01*
X40849800Y74085394D01*
X40849800Y73055194D01*
X39819603Y73055194D01*
G37*
%LPD*%
%LPC*%
G36*
X56254288Y71632781D02*
X56254288Y71632781D01*
X56067150Y71693584D01*
X55891866Y71782897D01*
X55732666Y71898563D01*
X55593563Y72037666D01*
X55477897Y72196866D01*
X55388584Y72372150D01*
X55327781Y72559288D01*
X55313603Y72648800D01*
X56343800Y72648800D01*
X56343800Y71618603D01*
X56254288Y71632781D01*
G37*
%LPD*%
%LPC*%
G36*
X40760288Y71632781D02*
X40760288Y71632781D01*
X40573150Y71693584D01*
X40397866Y71782897D01*
X40238666Y71898563D01*
X40099563Y72037666D01*
X39983897Y72196866D01*
X39894584Y72372150D01*
X39833781Y72559288D01*
X39819603Y72648800D01*
X40849800Y72648800D01*
X40849800Y71618603D01*
X40760288Y71632781D01*
G37*
%LPD*%
%LPC*%
G36*
X16653194Y1653194D02*
X16653194Y1653194D01*
X16653194Y2632772D01*
X16731000Y2620447D01*
X16910653Y2562075D01*
X17078925Y2476334D01*
X17231759Y2365297D01*
X17365297Y2231759D01*
X17476334Y2078925D01*
X17562075Y1910653D01*
X17620447Y1731000D01*
X17632772Y1653194D01*
X16653194Y1653194D01*
G37*
%LPD*%
%LPC*%
G36*
X21753194Y1653194D02*
X21753194Y1653194D01*
X21753194Y2632772D01*
X21831000Y2620447D01*
X22010653Y2562075D01*
X22178925Y2476334D01*
X22331759Y2365297D01*
X22465297Y2231759D01*
X22576334Y2078925D01*
X22662075Y1910653D01*
X22720447Y1731000D01*
X22732772Y1653194D01*
X21753194Y1653194D01*
G37*
%LPD*%
%LPC*%
G36*
X34653194Y1653194D02*
X34653194Y1653194D01*
X34653194Y2632772D01*
X34731000Y2620447D01*
X34910653Y2562075D01*
X35078925Y2476334D01*
X35231759Y2365297D01*
X35365297Y2231759D01*
X35476334Y2078925D01*
X35562075Y1910653D01*
X35620447Y1731000D01*
X35632772Y1653194D01*
X34653194Y1653194D01*
G37*
%LPD*%
%LPC*%
G36*
X39753194Y1653194D02*
X39753194Y1653194D01*
X39753194Y2632772D01*
X39831000Y2620447D01*
X40010653Y2562075D01*
X40178925Y2476334D01*
X40331759Y2365297D01*
X40465297Y2231759D01*
X40576334Y2078925D01*
X40662075Y1910653D01*
X40720447Y1731000D01*
X40732772Y1653194D01*
X39753194Y1653194D01*
G37*
%LPD*%
%LPC*%
G36*
X34653194Y6753194D02*
X34653194Y6753194D01*
X34653194Y7732772D01*
X34731000Y7720447D01*
X34910653Y7662075D01*
X35078925Y7576334D01*
X35231759Y7465297D01*
X35365297Y7331759D01*
X35476334Y7178925D01*
X35562075Y7010653D01*
X35620447Y6831000D01*
X35632772Y6753194D01*
X34653194Y6753194D01*
G37*
%LPD*%
%LPC*%
G36*
X21753194Y6753194D02*
X21753194Y6753194D01*
X21753194Y7732772D01*
X21831000Y7720447D01*
X22010653Y7662075D01*
X22178925Y7576334D01*
X22331759Y7465297D01*
X22465297Y7331759D01*
X22576334Y7178925D01*
X22662075Y7010653D01*
X22720447Y6831000D01*
X22732772Y6753194D01*
X21753194Y6753194D01*
G37*
%LPD*%
%LPC*%
G36*
X16653194Y6753194D02*
X16653194Y6753194D01*
X16653194Y7732772D01*
X16731000Y7720447D01*
X16910653Y7662075D01*
X17078925Y7576334D01*
X17231759Y7465297D01*
X17365297Y7331759D01*
X17476334Y7178925D01*
X17562075Y7010653D01*
X17620447Y6831000D01*
X17632772Y6753194D01*
X16653194Y6753194D01*
G37*
%LPD*%
%LPC*%
G36*
X39753194Y6753194D02*
X39753194Y6753194D01*
X39753194Y7732772D01*
X39831000Y7720447D01*
X40010653Y7662075D01*
X40178925Y7576334D01*
X40331759Y7465297D01*
X40465297Y7331759D01*
X40576334Y7178925D01*
X40662075Y7010653D01*
X40720447Y6831000D01*
X40732772Y6753194D01*
X39753194Y6753194D01*
G37*
%LPD*%
%LPC*%
G36*
X34653194Y6346800D02*
X34653194Y6346800D01*
X35632772Y6346800D01*
X35620447Y6268997D01*
X35562075Y6089344D01*
X35476334Y5921072D01*
X35365297Y5768238D01*
X35231759Y5634700D01*
X35078925Y5523663D01*
X34910653Y5437922D01*
X34731000Y5379550D01*
X34653194Y5367225D01*
X34653194Y6346800D01*
G37*
%LPD*%
%LPC*%
G36*
X15267225Y6753194D02*
X15267225Y6753194D01*
X15279550Y6831000D01*
X15337922Y7010653D01*
X15423663Y7178925D01*
X15534700Y7331759D01*
X15668238Y7465297D01*
X15821072Y7576334D01*
X15989344Y7662075D01*
X16168997Y7720447D01*
X16246800Y7732772D01*
X16246800Y6753194D01*
X15267225Y6753194D01*
G37*
%LPD*%
%LPC*%
G36*
X20367225Y6753194D02*
X20367225Y6753194D01*
X20379550Y6831000D01*
X20437922Y7010653D01*
X20523663Y7178925D01*
X20634700Y7331759D01*
X20768238Y7465297D01*
X20921072Y7576334D01*
X21089344Y7662075D01*
X21268997Y7720447D01*
X21346800Y7732772D01*
X21346800Y6753194D01*
X20367225Y6753194D01*
G37*
%LPD*%
%LPC*%
G36*
X33267225Y6753194D02*
X33267225Y6753194D01*
X33279550Y6831000D01*
X33337922Y7010653D01*
X33423663Y7178925D01*
X33534700Y7331759D01*
X33668238Y7465297D01*
X33821072Y7576334D01*
X33989344Y7662075D01*
X34168997Y7720447D01*
X34246800Y7732772D01*
X34246800Y6753194D01*
X33267225Y6753194D01*
G37*
%LPD*%
%LPC*%
G36*
X38367225Y6753194D02*
X38367225Y6753194D01*
X38379550Y6831000D01*
X38437922Y7010653D01*
X38523663Y7178925D01*
X38634700Y7331759D01*
X38768238Y7465297D01*
X38921072Y7576334D01*
X39089344Y7662075D01*
X39268997Y7720447D01*
X39346800Y7732772D01*
X39346800Y6753194D01*
X38367225Y6753194D01*
G37*
%LPD*%
%LPC*%
G36*
X39753194Y6346800D02*
X39753194Y6346800D01*
X40732772Y6346800D01*
X40720447Y6268997D01*
X40662075Y6089344D01*
X40576334Y5921072D01*
X40465297Y5768238D01*
X40331759Y5634700D01*
X40178925Y5523663D01*
X40010653Y5437922D01*
X39831000Y5379550D01*
X39753194Y5367225D01*
X39753194Y6346800D01*
G37*
%LPD*%
%LPC*%
G36*
X21753194Y6346800D02*
X21753194Y6346800D01*
X22732772Y6346800D01*
X22720447Y6268997D01*
X22662075Y6089344D01*
X22576334Y5921072D01*
X22465297Y5768238D01*
X22331759Y5634700D01*
X22178925Y5523663D01*
X22010653Y5437922D01*
X21831000Y5379550D01*
X21753194Y5367225D01*
X21753194Y6346800D01*
G37*
%LPD*%
%LPC*%
G36*
X16653194Y6346800D02*
X16653194Y6346800D01*
X17632772Y6346800D01*
X17620447Y6268997D01*
X17562075Y6089344D01*
X17476334Y5921072D01*
X17365297Y5768238D01*
X17231759Y5634700D01*
X17078925Y5523663D01*
X16910653Y5437922D01*
X16731000Y5379550D01*
X16653194Y5367225D01*
X16653194Y6346800D01*
G37*
%LPD*%
%LPC*%
G36*
X15267225Y1653194D02*
X15267225Y1653194D01*
X15279550Y1731000D01*
X15337922Y1910653D01*
X15423663Y2078925D01*
X15534700Y2231759D01*
X15668238Y2365297D01*
X15821072Y2476334D01*
X15989344Y2562075D01*
X16168997Y2620447D01*
X16246800Y2632772D01*
X16246800Y1653194D01*
X15267225Y1653194D01*
G37*
%LPD*%
%LPC*%
G36*
X20367225Y1653194D02*
X20367225Y1653194D01*
X20379550Y1731000D01*
X20437922Y1910653D01*
X20523663Y2078925D01*
X20634700Y2231759D01*
X20768238Y2365297D01*
X20921072Y2476334D01*
X21089344Y2562075D01*
X21268997Y2620447D01*
X21346800Y2632772D01*
X21346800Y1653194D01*
X20367225Y1653194D01*
G37*
%LPD*%
%LPC*%
G36*
X33267225Y1653194D02*
X33267225Y1653194D01*
X33279550Y1731000D01*
X33337922Y1910653D01*
X33423663Y2078925D01*
X33534700Y2231759D01*
X33668238Y2365297D01*
X33821072Y2476334D01*
X33989344Y2562075D01*
X34168997Y2620447D01*
X34246800Y2632772D01*
X34246800Y1653194D01*
X33267225Y1653194D01*
G37*
%LPD*%
%LPC*%
G36*
X38367225Y1653194D02*
X38367225Y1653194D01*
X38379550Y1731000D01*
X38437922Y1910653D01*
X38523663Y2078925D01*
X38634700Y2231759D01*
X38768238Y2365297D01*
X38921072Y2476334D01*
X39089344Y2562075D01*
X39268997Y2620447D01*
X39346800Y2632772D01*
X39346800Y1653194D01*
X38367225Y1653194D01*
G37*
%LPD*%
%LPC*%
G36*
X39268997Y5379550D02*
X39268997Y5379550D01*
X39089344Y5437922D01*
X38921072Y5523663D01*
X38768238Y5634700D01*
X38634700Y5768238D01*
X38523663Y5921072D01*
X38437922Y6089344D01*
X38379550Y6268997D01*
X38367225Y6346800D01*
X39346800Y6346800D01*
X39346800Y5367225D01*
X39268997Y5379550D01*
G37*
%LPD*%
%LPC*%
G36*
X34168997Y5379550D02*
X34168997Y5379550D01*
X33989344Y5437922D01*
X33821072Y5523663D01*
X33668238Y5634700D01*
X33534700Y5768238D01*
X33423663Y5921072D01*
X33337922Y6089344D01*
X33279550Y6268997D01*
X33267225Y6346800D01*
X34246800Y6346800D01*
X34246800Y5367225D01*
X34168997Y5379550D01*
G37*
%LPD*%
%LPC*%
G36*
X21268997Y5379550D02*
X21268997Y5379550D01*
X21089344Y5437922D01*
X20921072Y5523663D01*
X20768238Y5634700D01*
X20634700Y5768238D01*
X20523663Y5921072D01*
X20437922Y6089344D01*
X20379550Y6268997D01*
X20367225Y6346800D01*
X21346800Y6346800D01*
X21346800Y5367225D01*
X21268997Y5379550D01*
G37*
%LPD*%
%LPC*%
G36*
X16168997Y5379550D02*
X16168997Y5379550D01*
X15989344Y5437922D01*
X15821072Y5523663D01*
X15668238Y5634700D01*
X15534700Y5768238D01*
X15423663Y5921072D01*
X15337922Y6089344D01*
X15279550Y6268997D01*
X15267225Y6346800D01*
X16246800Y6346800D01*
X16246800Y5367225D01*
X16168997Y5379550D01*
G37*
%LPD*%
%LPC*%
G36*
X17275106Y70350100D02*
X17275106Y70350100D01*
X17010100Y70615106D01*
X17010100Y70989891D01*
X17275106Y71254897D01*
X17649891Y71254897D01*
X17914897Y70989891D01*
X17914897Y70615106D01*
X17649891Y70350100D01*
X17275106Y70350100D01*
G37*
%LPD*%
%LPC*%
G36*
X25053706Y70349900D02*
X25053706Y70349900D01*
X24788700Y70614906D01*
X24788700Y70989691D01*
X25053706Y71254697D01*
X25428491Y71254697D01*
X25693497Y70989691D01*
X25693497Y70614906D01*
X25428491Y70349900D01*
X25053706Y70349900D01*
G37*
%LPD*%
%LPC*%
G36*
X19180106Y69715100D02*
X19180106Y69715100D01*
X18915100Y69980106D01*
X18915100Y70354891D01*
X19180106Y70619897D01*
X19554891Y70619897D01*
X19819897Y70354891D01*
X19819897Y69980106D01*
X19554891Y69715100D01*
X19180106Y69715100D01*
G37*
%LPD*%
%LPC*%
G36*
X13623706Y69556200D02*
X13623706Y69556200D01*
X13358700Y69821206D01*
X13358700Y70195991D01*
X13623706Y70460997D01*
X13998491Y70460997D01*
X14263497Y70195991D01*
X14263497Y69821206D01*
X13998491Y69556200D01*
X13623706Y69556200D01*
G37*
%LPD*%
%LPC*%
G36*
X22672606Y49712600D02*
X22672606Y49712600D01*
X22407600Y49977606D01*
X22407600Y50352391D01*
X22672606Y50617397D01*
X23047391Y50617397D01*
X23312397Y50352391D01*
X23312397Y49977606D01*
X23047391Y49712600D01*
X22672606Y49712600D01*
G37*
%LPD*%
%LPC*%
G36*
X12830106Y49712600D02*
X12830106Y49712600D01*
X12565100Y49977606D01*
X12565100Y50352391D01*
X12830106Y50617397D01*
X13204891Y50617397D01*
X13469897Y50352391D01*
X13469897Y49977606D01*
X13204891Y49712600D01*
X12830106Y49712600D01*
G37*
%LPD*%
%LPC*%
G36*
X35690106Y49553900D02*
X35690106Y49553900D01*
X35425100Y49818906D01*
X35425100Y50193691D01*
X35690106Y50458697D01*
X36064891Y50458697D01*
X36329897Y50193691D01*
X36329897Y49818906D01*
X36064891Y49553900D01*
X35690106Y49553900D01*
G37*
%LPD*%
%LPC*%
G36*
X7750106Y54792600D02*
X7750106Y54792600D01*
X7485100Y55057606D01*
X7485100Y55432391D01*
X7750106Y55697397D01*
X8124891Y55697397D01*
X8389897Y55432391D01*
X8389897Y55057606D01*
X8124891Y54792600D01*
X7750106Y54792600D01*
G37*
%LPD*%
%LPC*%
G36*
X38230106Y54951400D02*
X38230106Y54951400D01*
X37965100Y55216406D01*
X37965100Y55591191D01*
X38230106Y55856197D01*
X38604891Y55856197D01*
X38869897Y55591191D01*
X38869897Y55216406D01*
X38604891Y54951400D01*
X38230106Y54951400D01*
G37*
%LPD*%
%LPC*%
G36*
X8385106Y48760100D02*
X8385106Y48760100D01*
X8120100Y49025106D01*
X8120100Y49399891D01*
X8385106Y49664897D01*
X8759891Y49664897D01*
X9024897Y49399891D01*
X9024897Y49025106D01*
X8759891Y48760100D01*
X8385106Y48760100D01*
G37*
%LPD*%
%LPC*%
G36*
X9020106Y55427600D02*
X9020106Y55427600D01*
X8755100Y55692606D01*
X8755100Y56067391D01*
X9020106Y56332397D01*
X9394891Y56332397D01*
X9659897Y56067391D01*
X9659897Y55692606D01*
X9394891Y55427600D01*
X9020106Y55427600D01*
G37*
%LPD*%
%LPC*%
G36*
X12830106Y56062600D02*
X12830106Y56062600D01*
X12565100Y56327606D01*
X12565100Y56702391D01*
X12830106Y56967397D01*
X13204891Y56967397D01*
X13469897Y56702391D01*
X13469897Y56327606D01*
X13204891Y56062600D01*
X12830106Y56062600D01*
G37*
%LPD*%
%LPC*%
G36*
X56010106Y48601400D02*
X56010106Y48601400D01*
X55745100Y48866406D01*
X55745100Y49241191D01*
X56010106Y49506197D01*
X56384891Y49506197D01*
X56649897Y49241191D01*
X56649897Y48866406D01*
X56384891Y48601400D01*
X56010106Y48601400D01*
G37*
%LPD*%
%LPC*%
G36*
X7115106Y56697600D02*
X7115106Y56697600D01*
X6850100Y56962606D01*
X6850100Y57337391D01*
X7115106Y57602397D01*
X7489891Y57602397D01*
X7754897Y57337391D01*
X7754897Y56962606D01*
X7489891Y56697600D01*
X7115106Y56697600D01*
G37*
%LPD*%
%LPC*%
G36*
X8385106Y57332600D02*
X8385106Y57332600D01*
X8120100Y57597606D01*
X8120100Y57972391D01*
X8385106Y58237397D01*
X8759891Y58237397D01*
X9024897Y57972391D01*
X9024897Y57597606D01*
X8759891Y57332600D01*
X8385106Y57332600D01*
G37*
%LPD*%
%LPC*%
G36*
X36801406Y48125100D02*
X36801406Y48125100D01*
X36536400Y48390106D01*
X36536400Y48764891D01*
X36801406Y49029897D01*
X37176191Y49029897D01*
X37441197Y48764891D01*
X37441197Y48390106D01*
X37176191Y48125100D01*
X36801406Y48125100D01*
G37*
%LPD*%
%LPC*%
G36*
X46485106Y57332600D02*
X46485106Y57332600D01*
X46220100Y57597606D01*
X46220100Y57972391D01*
X46485106Y58237397D01*
X46859891Y58237397D01*
X47124897Y57972391D01*
X47124897Y57597606D01*
X46859891Y57332600D01*
X46485106Y57332600D01*
G37*
%LPD*%
%LPC*%
G36*
X36642606Y57650100D02*
X36642606Y57650100D01*
X36377600Y57915106D01*
X36377600Y58289891D01*
X36642606Y58554897D01*
X37017391Y58554897D01*
X37282397Y58289891D01*
X37282397Y57915106D01*
X37017391Y57650100D01*
X36642606Y57650100D01*
G37*
%LPD*%
%LPC*%
G36*
X44897606Y57967600D02*
X44897606Y57967600D01*
X44632600Y58232606D01*
X44632600Y58607391D01*
X44897606Y58872397D01*
X45272391Y58872397D01*
X45537397Y58607391D01*
X45537397Y58232606D01*
X45272391Y57967600D01*
X44897606Y57967600D01*
G37*
%LPD*%
%LPC*%
G36*
X11560606Y45585200D02*
X11560606Y45585200D01*
X11295600Y45850206D01*
X11295600Y46224991D01*
X11560606Y46489997D01*
X11935391Y46489997D01*
X12200397Y46224991D01*
X12200397Y45850206D01*
X11935391Y45585200D01*
X11560606Y45585200D01*
G37*
%LPD*%
%LPC*%
G36*
X31245106Y44315100D02*
X31245106Y44315100D01*
X30980100Y44580106D01*
X30980100Y44954891D01*
X31245106Y45219897D01*
X31619891Y45219897D01*
X31884897Y44954891D01*
X31884897Y44580106D01*
X31619891Y44315100D01*
X31245106Y44315100D01*
G37*
%LPD*%
%LPC*%
G36*
X29181306Y44315100D02*
X29181306Y44315100D01*
X28916300Y44580106D01*
X28916300Y44954891D01*
X29181306Y45219897D01*
X29556091Y45219897D01*
X29821097Y44954891D01*
X29821097Y44580106D01*
X29556091Y44315100D01*
X29181306Y44315100D01*
G37*
%LPD*%
%LPC*%
G36*
X47437606Y57967600D02*
X47437606Y57967600D01*
X47172600Y58232606D01*
X47172600Y58607391D01*
X47437606Y58872397D01*
X47812391Y58872397D01*
X48077397Y58607391D01*
X48077397Y58232606D01*
X47812391Y57967600D01*
X47437606Y57967600D01*
G37*
%LPD*%
%LPC*%
G36*
X31721706Y58761400D02*
X31721706Y58761400D01*
X31456700Y59026406D01*
X31456700Y59401191D01*
X31721706Y59666197D01*
X32096491Y59666197D01*
X32361497Y59401191D01*
X32361497Y59026406D01*
X32096491Y58761400D01*
X31721706Y58761400D01*
G37*
%LPD*%
%LPC*%
G36*
X11242606Y51617600D02*
X11242606Y51617600D01*
X10977600Y51882606D01*
X10977600Y52257391D01*
X11242606Y52522397D01*
X11617391Y52522397D01*
X11882397Y52257391D01*
X11882397Y51882606D01*
X11617391Y51617600D01*
X11242606Y51617600D01*
G37*
%LPD*%
%LPC*%
G36*
X42992606Y60190100D02*
X42992606Y60190100D01*
X42727600Y60455106D01*
X42727600Y60829891D01*
X42992606Y61094897D01*
X43367391Y61094897D01*
X43632397Y60829891D01*
X43632397Y60455106D01*
X43367391Y60190100D01*
X42992606Y60190100D01*
G37*
%LPD*%
%LPC*%
G36*
X38865406Y60983900D02*
X38865406Y60983900D01*
X38600400Y61248906D01*
X38600400Y61623691D01*
X38865406Y61888697D01*
X39240191Y61888697D01*
X39505197Y61623691D01*
X39505197Y61248906D01*
X39240191Y60983900D01*
X38865406Y60983900D01*
G37*
%LPD*%
%LPC*%
G36*
X14100106Y41775100D02*
X14100106Y41775100D01*
X13835100Y42040106D01*
X13835100Y42414891D01*
X14100106Y42679897D01*
X14474891Y42679897D01*
X14739897Y42414891D01*
X14739897Y42040106D01*
X14474891Y41775100D01*
X14100106Y41775100D01*
G37*
%LPD*%
%LPC*%
G36*
X31880106Y41457600D02*
X31880106Y41457600D01*
X31615100Y41722606D01*
X31615100Y42097391D01*
X31880106Y42362397D01*
X32254891Y42362397D01*
X32519897Y42097391D01*
X32519897Y41722606D01*
X32254891Y41457600D01*
X31880106Y41457600D01*
G37*
%LPD*%
%LPC*%
G36*
X21085106Y41457600D02*
X21085106Y41457600D01*
X20820100Y41722606D01*
X20820100Y42097391D01*
X21085106Y42362397D01*
X21459891Y42362397D01*
X21724897Y42097391D01*
X21724897Y41722606D01*
X21459891Y41457600D01*
X21085106Y41457600D01*
G37*
%LPD*%
%LPC*%
G36*
X22672606Y41457600D02*
X22672606Y41457600D01*
X22407600Y41722606D01*
X22407600Y42097391D01*
X22672606Y42362397D01*
X23047391Y42362397D01*
X23312397Y42097391D01*
X23312397Y41722606D01*
X23047391Y41457600D01*
X22672606Y41457600D01*
G37*
%LPD*%
%LPC*%
G36*
X28387606Y41457600D02*
X28387606Y41457600D01*
X28122600Y41722606D01*
X28122600Y42097391D01*
X28387606Y42362397D01*
X28762391Y42362397D01*
X29027397Y42097391D01*
X29027397Y41722606D01*
X28762391Y41457600D01*
X28387606Y41457600D01*
G37*
%LPD*%
%LPC*%
G36*
X12830106Y41140100D02*
X12830106Y41140100D01*
X12565100Y41405106D01*
X12565100Y41779891D01*
X12830106Y42044897D01*
X13204891Y42044897D01*
X13469897Y41779891D01*
X13469897Y41405106D01*
X13204891Y41140100D01*
X12830106Y41140100D01*
G37*
%LPD*%
%LPC*%
G36*
X37277606Y61142600D02*
X37277606Y61142600D01*
X37012600Y61407606D01*
X37012600Y61782391D01*
X37277606Y62047397D01*
X37652391Y62047397D01*
X37917397Y61782391D01*
X37917397Y61407606D01*
X37652391Y61142600D01*
X37277606Y61142600D01*
G37*
%LPD*%
%LPC*%
G36*
X47120306Y61301400D02*
X47120306Y61301400D01*
X46855300Y61566406D01*
X46855300Y61941191D01*
X47120306Y62206197D01*
X47495091Y62206197D01*
X47760097Y61941191D01*
X47760097Y61566406D01*
X47495091Y61301400D01*
X47120306Y61301400D01*
G37*
%LPD*%
%LPC*%
G36*
X53628906Y61460100D02*
X53628906Y61460100D01*
X53363900Y61725106D01*
X53363900Y62099891D01*
X53628906Y62364897D01*
X54003691Y62364897D01*
X54268697Y62099891D01*
X54268697Y61725106D01*
X54003691Y61460100D01*
X53628906Y61460100D01*
G37*
%LPD*%
%LPC*%
G36*
X25212606Y62412600D02*
X25212606Y62412600D01*
X24947600Y62677606D01*
X24947600Y63052391D01*
X25212606Y63317397D01*
X25587391Y63317397D01*
X25852397Y63052391D01*
X25852397Y62677606D01*
X25587391Y62412600D01*
X25212606Y62412600D01*
G37*
%LPD*%
%LPC*%
G36*
X26482606Y38282600D02*
X26482606Y38282600D01*
X26217600Y38547606D01*
X26217600Y38922391D01*
X26482606Y39187397D01*
X26857391Y39187397D01*
X27122397Y38922391D01*
X27122397Y38547606D01*
X26857391Y38282600D01*
X26482606Y38282600D01*
G37*
%LPD*%
%LPC*%
G36*
X22672606Y37171300D02*
X22672606Y37171300D01*
X22407600Y37436306D01*
X22407600Y37811091D01*
X22672606Y38076097D01*
X23047391Y38076097D01*
X23312397Y37811091D01*
X23312397Y37436306D01*
X23047391Y37171300D01*
X22672606Y37171300D01*
G37*
%LPD*%
%LPC*%
G36*
X42357606Y37012600D02*
X42357606Y37012600D01*
X42092600Y37277606D01*
X42092600Y37652391D01*
X42357606Y37917397D01*
X42732391Y37917397D01*
X42997397Y37652391D01*
X42997397Y37277606D01*
X42732391Y37012600D01*
X42357606Y37012600D01*
G37*
%LPD*%
%LPC*%
G36*
X22672606Y63047600D02*
X22672606Y63047600D01*
X22407600Y63312606D01*
X22407600Y63687391D01*
X22672606Y63952397D01*
X23047391Y63952397D01*
X23312397Y63687391D01*
X23312397Y63312606D01*
X23047391Y63047600D01*
X22672606Y63047600D01*
G37*
%LPD*%
%LPC*%
G36*
X47120106Y63047600D02*
X47120106Y63047600D01*
X46855100Y63312606D01*
X46855100Y63687391D01*
X47120106Y63952397D01*
X47494891Y63952397D01*
X47759897Y63687391D01*
X47759897Y63312606D01*
X47494891Y63047600D01*
X47120106Y63047600D01*
G37*
%LPD*%
%LPC*%
G36*
X13941306Y36218800D02*
X13941306Y36218800D01*
X13676300Y36483806D01*
X13676300Y36858591D01*
X13941306Y37123597D01*
X14316091Y37123597D01*
X14581097Y36858591D01*
X14581097Y36483806D01*
X14316091Y36218800D01*
X13941306Y36218800D01*
G37*
%LPD*%
%LPC*%
G36*
X12195106Y36218800D02*
X12195106Y36218800D01*
X11930100Y36483806D01*
X11930100Y36858591D01*
X12195106Y37123597D01*
X12569891Y37123597D01*
X12834897Y36858591D01*
X12834897Y36483806D01*
X12569891Y36218800D01*
X12195106Y36218800D01*
G37*
%LPD*%
%LPC*%
G36*
X13941806Y63682700D02*
X13941806Y63682700D01*
X13676800Y63947706D01*
X13676800Y64322491D01*
X13941806Y64587497D01*
X14316591Y64587497D01*
X14581597Y64322491D01*
X14581597Y63947706D01*
X14316591Y63682700D01*
X13941806Y63682700D01*
G37*
%LPD*%
%LPC*%
G36*
X44421606Y64000100D02*
X44421606Y64000100D01*
X44156600Y64265106D01*
X44156600Y64639891D01*
X44421606Y64904897D01*
X44796391Y64904897D01*
X45061397Y64639891D01*
X45061397Y64265106D01*
X44796391Y64000100D01*
X44421606Y64000100D01*
G37*
%LPD*%
%LPC*%
G36*
X27435506Y64000200D02*
X27435506Y64000200D01*
X27170500Y64265206D01*
X27170500Y64639991D01*
X27435506Y64904997D01*
X27810291Y64904997D01*
X28075297Y64639991D01*
X28075297Y64265206D01*
X27810291Y64000200D01*
X27435506Y64000200D01*
G37*
%LPD*%
%LPC*%
G36*
X37436106Y64317600D02*
X37436106Y64317600D01*
X37171100Y64582606D01*
X37171100Y64957391D01*
X37436106Y65222397D01*
X37810891Y65222397D01*
X38075897Y64957391D01*
X38075897Y64582606D01*
X37810891Y64317600D01*
X37436106Y64317600D01*
G37*
%LPD*%
%LPC*%
G36*
X28387606Y31615100D02*
X28387606Y31615100D01*
X28122600Y31880106D01*
X28122600Y32254891D01*
X28387606Y32519897D01*
X28762391Y32519897D01*
X29027397Y32254891D01*
X29027397Y31880106D01*
X28762391Y31615100D01*
X28387606Y31615100D01*
G37*
%LPD*%
%LPC*%
G36*
X22037606Y31615100D02*
X22037606Y31615100D01*
X21772600Y31880106D01*
X21772600Y32254891D01*
X22037606Y32519897D01*
X22412391Y32519897D01*
X22677397Y32254891D01*
X22677397Y31880106D01*
X22412391Y31615100D01*
X22037606Y31615100D01*
G37*
%LPD*%
%LPC*%
G36*
X35213906Y64952600D02*
X35213906Y64952600D01*
X34948900Y65217606D01*
X34948900Y65592391D01*
X35213906Y65857397D01*
X35588691Y65857397D01*
X35853697Y65592391D01*
X35853697Y65217606D01*
X35588691Y64952600D01*
X35213906Y64952600D01*
G37*
%LPD*%
%LPC*%
G36*
X17592606Y30980100D02*
X17592606Y30980100D01*
X17327600Y31245106D01*
X17327600Y31619891D01*
X17592606Y31884897D01*
X17967391Y31884897D01*
X18232397Y31619891D01*
X18232397Y31245106D01*
X17967391Y30980100D01*
X17592606Y30980100D01*
G37*
%LPD*%
%LPC*%
G36*
X30610106Y30186400D02*
X30610106Y30186400D01*
X30345100Y30451406D01*
X30345100Y30826191D01*
X30610106Y31091197D01*
X30984891Y31091197D01*
X31249897Y30826191D01*
X31249897Y30451406D01*
X30984891Y30186400D01*
X30610106Y30186400D01*
G37*
%LPD*%
%LPC*%
G36*
X16640106Y29233900D02*
X16640106Y29233900D01*
X16375100Y29498906D01*
X16375100Y29873691D01*
X16640106Y30138697D01*
X17014891Y30138697D01*
X17279897Y29873691D01*
X17279897Y29498906D01*
X17014891Y29233900D01*
X16640106Y29233900D01*
G37*
%LPD*%
%LPC*%
G36*
X30768806Y26852600D02*
X30768806Y26852600D01*
X30503800Y27117606D01*
X30503800Y27492391D01*
X30768806Y27757397D01*
X31143591Y27757397D01*
X31408597Y27492391D01*
X31408597Y27117606D01*
X31143591Y26852600D01*
X30768806Y26852600D01*
G37*
%LPD*%
%LPC*%
G36*
X32038806Y26852500D02*
X32038806Y26852500D01*
X31773800Y27117506D01*
X31773800Y27492291D01*
X32038806Y27757297D01*
X32413591Y27757297D01*
X32678597Y27492291D01*
X32678597Y27117506D01*
X32413591Y26852500D01*
X32038806Y26852500D01*
G37*
%LPD*%
%LPC*%
G36*
X17433806Y26376300D02*
X17433806Y26376300D01*
X17168800Y26641306D01*
X17168800Y27016091D01*
X17433806Y27281097D01*
X17808591Y27281097D01*
X18073597Y27016091D01*
X18073597Y26641306D01*
X17808591Y26376300D01*
X17433806Y26376300D01*
G37*
%LPD*%
%LPC*%
G36*
X12195106Y66222600D02*
X12195106Y66222600D01*
X11930100Y66487606D01*
X11930100Y66862391D01*
X12195106Y67127397D01*
X12569891Y67127397D01*
X12834897Y66862391D01*
X12834897Y66487606D01*
X12569891Y66222600D01*
X12195106Y66222600D01*
G37*
%LPD*%
%LPC*%
G36*
X38071406Y25582600D02*
X38071406Y25582600D01*
X37806400Y25847606D01*
X37806400Y26222391D01*
X38071406Y26487397D01*
X38446191Y26487397D01*
X38711197Y26222391D01*
X38711197Y25847606D01*
X38446191Y25582600D01*
X38071406Y25582600D01*
G37*
%LPD*%
%LPC*%
G36*
X29181406Y25265100D02*
X29181406Y25265100D01*
X28916400Y25530106D01*
X28916400Y25904891D01*
X29181406Y26169897D01*
X29556191Y26169897D01*
X29821197Y25904891D01*
X29821197Y25530106D01*
X29556191Y25265100D01*
X29181406Y25265100D01*
G37*
%LPD*%
%LPC*%
G36*
X12353906Y24788900D02*
X12353906Y24788900D01*
X12088900Y25053906D01*
X12088900Y25428691D01*
X12353906Y25693697D01*
X12728691Y25693697D01*
X12993697Y25428691D01*
X12993697Y25053906D01*
X12728691Y24788900D01*
X12353906Y24788900D01*
G37*
%LPD*%
%LPC*%
G36*
X39182606Y66540100D02*
X39182606Y66540100D01*
X38917600Y66805106D01*
X38917600Y67179891D01*
X39182606Y67444897D01*
X39557391Y67444897D01*
X39822397Y67179891D01*
X39822397Y66805106D01*
X39557391Y66540100D01*
X39182606Y66540100D01*
G37*
%LPD*%
%LPC*%
G36*
X13782506Y21772600D02*
X13782506Y21772600D01*
X13517500Y22037606D01*
X13517500Y22412391D01*
X13782506Y22677397D01*
X14157291Y22677397D01*
X14422297Y22412391D01*
X14422297Y22037606D01*
X14157291Y21772600D01*
X13782506Y21772600D01*
G37*
%LPD*%
%LPC*%
G36*
X35213906Y66857600D02*
X35213906Y66857600D01*
X34948900Y67122606D01*
X34948900Y67497391D01*
X35213906Y67762397D01*
X35588691Y67762397D01*
X35853697Y67497391D01*
X35853697Y67122606D01*
X35588691Y66857600D01*
X35213906Y66857600D01*
G37*
%LPD*%
%LPC*%
G36*
X13465106Y19867600D02*
X13465106Y19867600D01*
X13200100Y20132606D01*
X13200100Y20507391D01*
X13465106Y20772397D01*
X13839891Y20772397D01*
X14104897Y20507391D01*
X14104897Y20132606D01*
X13839891Y19867600D01*
X13465106Y19867600D01*
G37*
%LPD*%
%LPC*%
G36*
X16957606Y67175100D02*
X16957606Y67175100D01*
X16692600Y67440106D01*
X16692600Y67814891D01*
X16957606Y68079897D01*
X17332391Y68079897D01*
X17597397Y67814891D01*
X17597397Y67440106D01*
X17332391Y67175100D01*
X16957606Y67175100D01*
G37*
%LPD*%
%LPC*%
G36*
X36325106Y67969000D02*
X36325106Y67969000D01*
X36060100Y68234006D01*
X36060100Y68608791D01*
X36325106Y68873797D01*
X36699891Y68873797D01*
X36964897Y68608791D01*
X36964897Y68234006D01*
X36699891Y67969000D01*
X36325106Y67969000D01*
G37*
%LPD*%
%LPC*%
G36*
X12988806Y68127600D02*
X12988806Y68127600D01*
X12723800Y68392606D01*
X12723800Y68767391D01*
X12988806Y69032397D01*
X13363591Y69032397D01*
X13628597Y68767391D01*
X13628597Y68392606D01*
X13363591Y68127600D01*
X12988806Y68127600D01*
G37*
%LPD*%
%LPC*%
G36*
X45850106Y7167600D02*
X45850106Y7167600D01*
X45585100Y7432606D01*
X45585100Y7807391D01*
X45850106Y8072397D01*
X46224891Y8072397D01*
X46489897Y7807391D01*
X46489897Y7432606D01*
X46224891Y7167600D01*
X45850106Y7167600D01*
G37*
%LPD*%
%LPC*%
G36*
X53628906Y54157600D02*
X53628906Y54157600D01*
X53363900Y54422606D01*
X53363900Y54797391D01*
X53628906Y55062397D01*
X54003691Y55062397D01*
X54268697Y54797391D01*
X54268697Y54422606D01*
X54003691Y54157600D01*
X53628906Y54157600D01*
G37*
%LPD*%
%LPC*%
G36*
X27752606Y59237600D02*
X27752606Y59237600D01*
X27487600Y59502606D01*
X27487600Y59877391D01*
X27752606Y60142397D01*
X28127391Y60142397D01*
X28392397Y59877391D01*
X28392397Y59502606D01*
X28127391Y59237600D01*
X27752606Y59237600D01*
G37*
%LPD*%
%LPC*%
G36*
X32197906Y54316500D02*
X32197906Y54316500D01*
X31932900Y54581506D01*
X31932900Y54956291D01*
X32197906Y55221297D01*
X32572691Y55221297D01*
X32837697Y54956291D01*
X32837697Y54581506D01*
X32572691Y54316500D01*
X32197906Y54316500D01*
G37*
%LPD*%
%LPC*%
G36*
X28228806Y82097500D02*
X28228806Y82097500D01*
X27963800Y82362506D01*
X27963800Y82737291D01*
X28228806Y83002297D01*
X28603591Y83002297D01*
X28868597Y82737291D01*
X28868597Y82362506D01*
X28603591Y82097500D01*
X28228806Y82097500D01*
G37*
%LPD*%
%LPC*%
G36*
X38547606Y81780300D02*
X38547606Y81780300D01*
X38282600Y82045306D01*
X38282600Y82420091D01*
X38547606Y82685097D01*
X38922391Y82685097D01*
X39187397Y82420091D01*
X39187397Y82045306D01*
X38922391Y81780300D01*
X38547606Y81780300D01*
G37*
%LPD*%
%LPC*%
G36*
X32197606Y81780100D02*
X32197606Y81780100D01*
X31932600Y82045106D01*
X31932600Y82419891D01*
X32197606Y82684897D01*
X32572391Y82684897D01*
X32837397Y82419891D01*
X32837397Y82045106D01*
X32572391Y81780100D01*
X32197606Y81780100D01*
G37*
%LPD*%
%LPC*%
G36*
X36007606Y80510100D02*
X36007606Y80510100D01*
X35742600Y80775106D01*
X35742600Y81149891D01*
X36007606Y81414897D01*
X36382391Y81414897D01*
X36647397Y81149891D01*
X36647397Y80775106D01*
X36382391Y80510100D01*
X36007606Y80510100D01*
G37*
%LPD*%
%LPC*%
G36*
X56645106Y5897600D02*
X56645106Y5897600D01*
X56380100Y6162606D01*
X56380100Y6537391D01*
X56645106Y6802397D01*
X57019891Y6802397D01*
X57284897Y6537391D01*
X57284897Y6162606D01*
X57019891Y5897600D01*
X56645106Y5897600D01*
G37*
%LPD*%
%LPC*%
G36*
X27435106Y80192600D02*
X27435106Y80192600D01*
X27170100Y80457606D01*
X27170100Y80832391D01*
X27435106Y81097397D01*
X27809891Y81097397D01*
X28074897Y80832391D01*
X28074897Y80457606D01*
X27809891Y80192600D01*
X27435106Y80192600D01*
G37*
%LPD*%
%LPC*%
G36*
X18227506Y79081100D02*
X18227506Y79081100D01*
X17962500Y79346106D01*
X17962500Y79720891D01*
X18227506Y79985897D01*
X18602291Y79985897D01*
X18867297Y79720891D01*
X18867297Y79346106D01*
X18602291Y79081100D01*
X18227506Y79081100D01*
G37*
%LPD*%
%LPC*%
G36*
X28228906Y53046400D02*
X28228906Y53046400D01*
X27963900Y53311406D01*
X27963900Y53686191D01*
X28228906Y53951197D01*
X28603691Y53951197D01*
X28868697Y53686191D01*
X28868697Y53311406D01*
X28603691Y53046400D01*
X28228906Y53046400D01*
G37*
%LPD*%
%LPC*%
G36*
X36007606Y77970100D02*
X36007606Y77970100D01*
X35742600Y78235106D01*
X35742600Y78609891D01*
X36007606Y78874897D01*
X36382391Y78874897D01*
X36647397Y78609891D01*
X36647397Y78235106D01*
X36382391Y77970100D01*
X36007606Y77970100D01*
G37*
%LPD*%
%LPC*%
G36*
X16005106Y77017600D02*
X16005106Y77017600D01*
X15740100Y77282606D01*
X15740100Y77657391D01*
X16005106Y77922397D01*
X16379891Y77922397D01*
X16644897Y77657391D01*
X16644897Y77282606D01*
X16379891Y77017600D01*
X16005106Y77017600D01*
G37*
%LPD*%
%LPC*%
G36*
X11242606Y76382600D02*
X11242606Y76382600D01*
X10977600Y76647606D01*
X10977600Y77022391D01*
X11242606Y77287397D01*
X11617391Y77287397D01*
X11882397Y77022391D01*
X11882397Y76647606D01*
X11617391Y76382600D01*
X11242606Y76382600D01*
G37*
%LPD*%
%LPC*%
G36*
X36007606Y76065100D02*
X36007606Y76065100D01*
X35742600Y76330106D01*
X35742600Y76704891D01*
X36007606Y76969897D01*
X36382391Y76969897D01*
X36647397Y76704891D01*
X36647397Y76330106D01*
X36382391Y76065100D01*
X36007606Y76065100D01*
G37*
%LPD*%
%LPC*%
G36*
X32197606Y74160100D02*
X32197606Y74160100D01*
X31932600Y74425106D01*
X31932600Y74799891D01*
X32197606Y75064897D01*
X32572391Y75064897D01*
X32837397Y74799891D01*
X32837397Y74425106D01*
X32572391Y74160100D01*
X32197606Y74160100D01*
G37*
%LPD*%
%LPC*%
G36*
X6956206Y68762400D02*
X6956206Y68762400D01*
X6691200Y69027406D01*
X6691200Y69402191D01*
X6956206Y69667197D01*
X7330991Y69667197D01*
X7595997Y69402191D01*
X7595997Y69027406D01*
X7330991Y68762400D01*
X6956206Y68762400D01*
G37*
%LPD*%
%LPC*%
G36*
X22672406Y69079900D02*
X22672406Y69079900D01*
X22407400Y69344906D01*
X22407400Y69719691D01*
X22672406Y69984697D01*
X23047191Y69984697D01*
X23312197Y69719691D01*
X23312197Y69344906D01*
X23047191Y69079900D01*
X22672406Y69079900D01*
G37*
%LPD*%
%LPC*%
G36*
X38547606Y71937600D02*
X38547606Y71937600D01*
X38282600Y72202606D01*
X38282600Y72577391D01*
X38547606Y72842397D01*
X38922391Y72842397D01*
X39187397Y72577391D01*
X39187397Y72202606D01*
X38922391Y71937600D01*
X38547606Y71937600D01*
G37*
%LPD*%
%LPC*%
G36*
X43469006Y51141400D02*
X43469006Y51141400D01*
X43204000Y51406406D01*
X43204000Y51781191D01*
X43469006Y52046197D01*
X43843791Y52046197D01*
X44108797Y51781191D01*
X44108797Y51406406D01*
X43843791Y51141400D01*
X43469006Y51141400D01*
G37*
%LPD*%
%LPC*%
G36*
X22672406Y71778600D02*
X22672406Y71778600D01*
X22407400Y72043606D01*
X22407400Y72418391D01*
X22672406Y72683397D01*
X23047191Y72683397D01*
X23312197Y72418391D01*
X23312197Y72043606D01*
X23047191Y71778600D01*
X22672406Y71778600D01*
G37*
%LPD*%
%LPC*%
G36*
X36642606Y50823900D02*
X36642606Y50823900D01*
X36377600Y51088906D01*
X36377600Y51463691D01*
X36642606Y51728697D01*
X37017391Y51728697D01*
X37282397Y51463691D01*
X37282397Y51088906D01*
X37017391Y50823900D01*
X36642606Y50823900D01*
G37*
%LPD*%
%LPC*%
G36*
X16640106Y71620100D02*
X16640106Y71620100D01*
X16375100Y71885106D01*
X16375100Y72259891D01*
X16640106Y72524897D01*
X17014891Y72524897D01*
X17279897Y72259891D01*
X17279897Y71885106D01*
X17014891Y71620100D01*
X16640106Y71620100D01*
G37*
%LPD*%
%LPC*%
G36*
X27435106Y50823900D02*
X27435106Y50823900D01*
X27170100Y51088906D01*
X27170100Y51463691D01*
X27435106Y51728697D01*
X27809891Y51728697D01*
X28074897Y51463691D01*
X28074897Y51088906D01*
X27809891Y50823900D01*
X27435106Y50823900D01*
G37*
%LPD*%
%LPC*%
G36*
X38865106Y70350100D02*
X38865106Y70350100D01*
X38600100Y70615106D01*
X38600100Y70989891D01*
X38865106Y71254897D01*
X39239891Y71254897D01*
X39504897Y70989891D01*
X39504897Y70615106D01*
X39239891Y70350100D01*
X38865106Y70350100D01*
G37*
%LPD*%
%LPC*%
G36*
X15211406Y50347700D02*
X15211406Y50347700D01*
X14946400Y50612706D01*
X14946400Y50987491D01*
X15211406Y51252497D01*
X15586191Y51252497D01*
X15851197Y50987491D01*
X15851197Y50612706D01*
X15586191Y50347700D01*
X15211406Y50347700D01*
G37*
%LPD*%
%LPC*%
G36*
X44558194Y67213194D02*
X44558194Y67213194D01*
X44558194Y67895369D01*
X44619847Y67883106D01*
X44785094Y67814659D01*
X44933828Y67715278D01*
X45060278Y67588828D01*
X45159659Y67440094D01*
X45228106Y67274847D01*
X45240369Y67213194D01*
X44558194Y67213194D01*
G37*
%LPD*%
%LPC*%
G36*
X43469628Y67213194D02*
X43469628Y67213194D01*
X43481891Y67274850D01*
X43550338Y67440094D01*
X43649719Y67588828D01*
X43776169Y67715278D01*
X43924903Y67814659D01*
X44090150Y67883106D01*
X44151800Y67895369D01*
X44151800Y67213194D01*
X43469628Y67213194D01*
G37*
%LPD*%
%LPC*%
G36*
X44558194Y66806800D02*
X44558194Y66806800D01*
X45240369Y66806800D01*
X45228106Y66745150D01*
X45159659Y66579903D01*
X45060278Y66431169D01*
X44933828Y66304719D01*
X44785094Y66205338D01*
X44619850Y66136891D01*
X44558194Y66124628D01*
X44558194Y66806800D01*
G37*
%LPD*%
%LPC*%
G36*
X44090147Y66136891D02*
X44090147Y66136891D01*
X43924903Y66205338D01*
X43776169Y66304719D01*
X43649719Y66431169D01*
X43550338Y66579903D01*
X43481891Y66745147D01*
X43469628Y66806800D01*
X44151800Y66806800D01*
X44151800Y66124628D01*
X44090147Y66136891D01*
G37*
%LPD*%
%LPC*%
G36*
X2433194Y66833194D02*
X2433194Y66833194D01*
X2433194Y67456231D01*
X2477931Y67447334D01*
X2632616Y67383259D01*
X2771853Y67290225D01*
X2890225Y67171853D01*
X2983259Y67032616D01*
X3047334Y66877931D01*
X3056231Y66833194D01*
X2433194Y66833194D01*
G37*
%LPD*%
%LPC*%
G36*
X2433194Y66426800D02*
X2433194Y66426800D01*
X3056231Y66426800D01*
X3047334Y66382066D01*
X2983259Y66227381D01*
X2890225Y66088144D01*
X2771853Y65969772D01*
X2632616Y65876738D01*
X2477934Y65812663D01*
X2433194Y65803763D01*
X2433194Y66426800D01*
G37*
%LPD*%
%LPC*%
G36*
X1403763Y66833194D02*
X1403763Y66833194D01*
X1412663Y66877934D01*
X1476738Y67032616D01*
X1569772Y67171853D01*
X1688144Y67290225D01*
X1827381Y67383259D01*
X1982066Y67447334D01*
X2026800Y67456231D01*
X2026800Y66833194D01*
X1403763Y66833194D01*
G37*
%LPD*%
%LPC*%
G36*
X1982063Y65812663D02*
X1982063Y65812663D01*
X1827381Y65876738D01*
X1688144Y65969772D01*
X1569772Y66088144D01*
X1476738Y66227381D01*
X1412663Y66382063D01*
X1403766Y66426800D01*
X2026800Y66426800D01*
X2026800Y65803766D01*
X1982063Y65812663D01*
G37*
%LPD*%
%LPC*%
G36*
X44354984Y67009984D02*
X44354984Y67009984D01*
X44354984Y67010013D01*
X44355013Y67010013D01*
X44355013Y67009984D01*
X44354984Y67009984D01*
G37*
%LPD*%
%LPC*%
G36*
X2229984Y66629984D02*
X2229984Y66629984D01*
X2229984Y66630013D01*
X2230013Y66630013D01*
X2230013Y66629984D01*
X2229984Y66629984D01*
G37*
%LPD*%
%LPC*%
G36*
X39549984Y6549984D02*
X39549984Y6549984D01*
X39549984Y6550013D01*
X39550013Y6550013D01*
X39550013Y6549984D01*
X39549984Y6549984D01*
G37*
%LPD*%
%LPC*%
G36*
X34449984Y6549984D02*
X34449984Y6549984D01*
X34449984Y6550013D01*
X34450013Y6550013D01*
X34450013Y6549984D01*
X34449984Y6549984D01*
G37*
%LPD*%
%LPC*%
G36*
X21549984Y6549984D02*
X21549984Y6549984D01*
X21549984Y6550013D01*
X21550013Y6550013D01*
X21550013Y6549984D01*
X21549984Y6549984D01*
G37*
%LPD*%
%LPC*%
G36*
X16449984Y6549984D02*
X16449984Y6549984D01*
X16449984Y6550013D01*
X16450013Y6550013D01*
X16450013Y6549984D01*
X16449984Y6549984D01*
G37*
%LPD*%
%LPC*%
G36*
X41052984Y72851984D02*
X41052984Y72851984D01*
X41052984Y72852013D01*
X41053013Y72852013D01*
X41053013Y72851984D01*
X41052984Y72851984D01*
G37*
%LPD*%
D10*
X4770000Y41230000D03*
X2230000Y41230000D03*
X4770000Y43770000D03*
X2230000Y43770000D03*
X4770000Y46310000D03*
X2230000Y46310000D03*
X4770000Y48850000D03*
X2230000Y48850000D03*
X4770000Y51390000D03*
X2230000Y51390000D03*
X4770000Y53930000D03*
X2230000Y53930000D03*
X4770000Y56470000D03*
X2230000Y56470000D03*
X4770000Y59010000D03*
X2230000Y59010000D03*
X4770000Y61550000D03*
X2230000Y61550000D03*
X4770000Y64090000D03*
X2230000Y64090000D03*
X4770000Y66630000D03*
X2230000Y66630000D03*
X4770000Y38690000D03*
X2230000Y38690000D03*
X2230000Y36150000D03*
X4770000Y36150000D03*
X4770000Y33610000D03*
X2230000Y33610000D03*
X2230000Y31070000D03*
X4770000Y31070000D03*
X4770000Y28530000D03*
X2230000Y28530000D03*
X2230000Y25990000D03*
X4770000Y25990000D03*
X4770000Y23450000D03*
X2230000Y23450000D03*
X2230000Y20910000D03*
X4770000Y20910000D03*
X4770000Y18370000D03*
X2230000Y18370000D03*
D11*
X55429400Y79964000D03*
X42170600Y79964000D03*
X44710600Y79964000D03*
X52889400Y79964000D03*
D12*
X56547000Y72852000D03*
X41053000Y72852000D03*
D11*
X53245000Y69550000D03*
X50705000Y69550000D03*
X48165000Y69550000D03*
X45625000Y69550000D03*
X51975000Y67010000D03*
X49435000Y67010000D03*
X46895000Y67010000D03*
X44355000Y67010000D03*
D13*
X34450000Y6550000D03*
X39550000Y6550000D03*
X39550000Y1450000D03*
X34450000Y1450000D03*
D14*
X37000000Y4000000D03*
D13*
X16450000Y6550000D03*
X21550000Y6550000D03*
X21550000Y1450000D03*
X16450000Y1450000D03*
D14*
X19000000Y4000000D03*
D15*
X43656400Y51593800D03*
X36512500Y68421400D03*
X47307700Y61753800D03*
X44609000Y64452500D03*
X39052800Y61436300D03*
X37623500Y64770000D03*
X56197500Y49053800D03*
X21590000Y82549800D03*
X18414900Y79533500D03*
X22859800Y72231000D03*
X25241100Y70802300D03*
X57309000Y57467400D03*
X57309000Y56038700D03*
X35401300Y67310000D03*
X35401300Y65405000D03*
X7143600Y69214800D03*
X13811100Y70008600D03*
X22859800Y69532300D03*
X31909100Y59213800D03*
X32385300Y54768900D03*
X27622900Y64452600D03*
X14129200Y64135100D03*
X11748000Y46037600D03*
X29368700Y44767500D03*
X38735000Y82232700D03*
X20637500Y82232300D03*
X50165000Y53657600D03*
X15875000Y26828700D03*
X14605000Y26034900D03*
X14922500Y21907400D03*
X29686200Y31908700D03*
X37941200Y31908700D03*
X37306200Y33337400D03*
X30321200Y33337400D03*
X18415000Y30797500D03*
X53181300Y55721300D03*
X40163800Y51593800D03*
X40481300Y59690000D03*
X37941200Y68421300D03*
X43815000Y61436200D03*
X56197500Y52546200D03*
X10477500Y79375000D03*
X19367400Y76993700D03*
X7937500Y76200000D03*
X11430000Y74771300D03*
X7302500Y72866300D03*
X35242400Y77469900D03*
X32226100Y80168700D03*
X28257300Y79533600D03*
X32226100Y73342400D03*
X27146100Y70802400D03*
X21748800Y72707500D03*
X30797500Y83661200D03*
X35877500Y16827400D03*
X13493700Y34131100D03*
X13493700Y33019800D03*
X33813700Y34289900D03*
X57308800Y54609900D03*
X57308800Y59054900D03*
X57308800Y60483600D03*
X57308800Y61912400D03*
X57308800Y63341100D03*
X56832700Y1905100D03*
X44767700Y1905100D03*
X50800000Y44767500D03*
X35877500Y15557400D03*
X35877500Y13017400D03*
X35877500Y11747400D03*
X34607500Y16827400D03*
X34607500Y15557400D03*
X34607500Y14287400D03*
X34607500Y13017400D03*
X34607500Y11747400D03*
X34607500Y10477400D03*
X38417500Y16827400D03*
X38417500Y15557400D03*
X38417500Y14287400D03*
X38417500Y13017400D03*
X38417500Y11747400D03*
X38417500Y10477400D03*
X39687500Y10477400D03*
X39687500Y11747400D03*
X39687500Y13017400D03*
X40640000Y13017400D03*
X39687500Y14287400D03*
X39687500Y15557400D03*
X39687500Y16827400D03*
X20478700Y16827400D03*
X20478700Y15557400D03*
X20478700Y14287400D03*
X20478700Y13017400D03*
X20478700Y11747400D03*
X20478700Y10477400D03*
X21748700Y10477400D03*
X21748700Y11747400D03*
X21748700Y13017400D03*
X21748700Y14287400D03*
X21748700Y15557400D03*
X21748700Y16827400D03*
X17938700Y16827400D03*
X17938700Y15557400D03*
X17938700Y13017400D03*
X17938700Y11747400D03*
X16668700Y16827400D03*
X16668700Y15557400D03*
X16668700Y14287400D03*
X16668700Y13017400D03*
X16668700Y11747400D03*
X16668700Y10477400D03*
X39687500Y18097400D03*
X39687500Y19367400D03*
X39687500Y20637400D03*
X39370000Y21907400D03*
X39370000Y23177400D03*
X39370000Y24447400D03*
X38100000Y24447400D03*
X39370000Y25717400D03*
X38417500Y17780000D03*
X38417500Y18732500D03*
X38417500Y19685000D03*
X38417500Y20637500D03*
X38417500Y21590000D03*
X35877500Y17780000D03*
X35877500Y18732500D03*
X35877500Y19685000D03*
X35877500Y20637500D03*
X35877500Y21590000D03*
X35401200Y22383700D03*
X34607500Y22860000D03*
X38258700Y22383800D03*
X37941200Y23177500D03*
X37306300Y23971200D03*
X36671300Y24606200D03*
X35877500Y24765000D03*
X26987500Y18097500D03*
X27940000Y18097500D03*
X28892500Y18097500D03*
X29845000Y18097500D03*
X30797500Y18097500D03*
X31591300Y18256300D03*
X32385000Y18573800D03*
X33178700Y19208700D03*
X33813700Y20002400D03*
X34131200Y21113800D03*
X34131200Y22066300D03*
X26193700Y20637500D03*
X27146200Y20637500D03*
X28098700Y20637500D03*
X29051200Y20637500D03*
X30003700Y20637500D03*
X30956200Y20796300D03*
X26035000Y18097500D03*
X25082500Y18097500D03*
X24130000Y18097500D03*
X23177500Y18097500D03*
X22225000Y18097500D03*
X20955000Y17938700D03*
X25241200Y20637500D03*
X24288700Y20637500D03*
X23336200Y20637500D03*
X22383700Y20637500D03*
X21431200Y20637500D03*
X20637400Y20478700D03*
X19843700Y20161200D03*
X19050000Y19526300D03*
X18415000Y18732600D03*
X18097500Y17621200D03*
X27940000Y13652500D03*
X25400000Y13652500D03*
X33020000Y11112500D03*
X30480000Y11112500D03*
X30480000Y8572500D03*
X30480000Y6032500D03*
X27940000Y6032500D03*
X25400000Y8572500D03*
X25400000Y6032500D03*
X27940000Y11112500D03*
X25400000Y11112500D03*
X12700000Y11112500D03*
X12700000Y8572500D03*
X12700000Y6032500D03*
X10160000Y6032500D03*
X12700000Y13652500D03*
X10160000Y11112500D03*
X22860000Y11112500D03*
X22860000Y13652500D03*
X22860000Y16192500D03*
X25400000Y16192500D03*
X30480000Y13652500D03*
X33020000Y13652500D03*
X33020000Y16192500D03*
X30480000Y16192500D03*
X27940000Y16192500D03*
X15240000Y11112500D03*
X15240000Y13652500D03*
X10160000Y13652500D03*
X10160000Y16192500D03*
X12700000Y16192500D03*
X15240000Y16192500D03*
X16033700Y18097500D03*
X14605000Y18097500D03*
X12700000Y18732500D03*
X10160000Y18732500D03*
X25717400Y23018700D03*
X24447400Y23018700D03*
X22224900Y23018700D03*
X20954900Y23018700D03*
X27939900Y23018700D03*
X26828700Y25400000D03*
X27939900Y25400000D03*
X23336100Y25400000D03*
X22066100Y25400000D03*
X20796100Y25400000D03*
X19843600Y25400000D03*
X23336100Y26828800D03*
X26828600Y26828700D03*
X24447400Y26828800D03*
X25717400Y26828800D03*
X27939800Y26828700D03*
X29527300Y26828700D03*
X22066100Y26828800D03*
X27939900Y21748700D03*
X29051200Y21748700D03*
X25717400Y21748700D03*
X24447400Y21748700D03*
X22224900Y21748700D03*
X20954900Y21748700D03*
X23336100Y21748700D03*
X26828600Y21748700D03*
X10160000Y26352500D03*
X10160000Y28892500D03*
X10160000Y31432500D03*
X10160000Y33972500D03*
X10160000Y36195000D03*
X39370000Y26987400D03*
X25399900Y28733800D03*
X22859900Y28733800D03*
X25399900Y30003800D03*
X27939900Y28733800D03*
X35877300Y28575100D03*
X39369900Y28733800D03*
X39369900Y31273800D03*
X39369900Y33813800D03*
X39369900Y36353800D03*
X39369900Y38893800D03*
X36829900Y38893800D03*
X34607400Y38893800D03*
X36829900Y36353800D03*
X36829900Y34448700D03*
X29209900Y33813800D03*
X29209900Y36353800D03*
X29209900Y38893800D03*
X26669900Y33813800D03*
X21589900Y34131300D03*
X19049900Y34131300D03*
X21589900Y36353800D03*
X19049900Y36353800D03*
X19049900Y38893800D03*
X14922500Y31750000D03*
X13493700Y30638700D03*
X15239900Y34131200D03*
X10159900Y21431300D03*
X10160000Y22860000D03*
X10160000Y24288700D03*
X53022500Y28892500D03*
X13176300Y71596300D03*
X29527500Y64452500D03*
X53022500Y3492500D03*
X47942500Y3492500D03*
X36988500Y28575100D03*
X20478700Y83820000D03*
X33972500Y57308800D03*
X34925000Y47148800D03*
X32385000Y53022500D03*
X31908800Y55562600D03*
X14446100Y64928700D03*
X18415100Y72707500D03*
X20955100Y67945000D03*
X25876300Y44767600D03*
X25400000Y47625000D03*
X10795000Y46196200D03*
X40004900Y74294900D03*
X16351200Y80010000D03*
X22860100Y71278800D03*
X49847500Y25717500D03*
X53022500Y22542500D03*
X56197500Y25717500D03*
X19367500Y49688700D03*
X45720000Y44767500D03*
X55880000Y45720000D03*
X50800000Y40640000D03*
X45720000Y40640000D03*
X40640000Y44767500D03*
X25558800Y68580000D03*
X33178800Y70326300D03*
X10160000Y66040000D03*
X5080000Y71120000D03*
X10160000Y60960000D03*
X5080000Y15240000D03*
X45720000Y10160000D03*
X50800000Y10160000D03*
X55880000Y10160000D03*
X15239900Y38893800D03*
X11112400Y38893800D03*
X56832500Y6350000D03*
X15557500Y73025000D03*
X27463700Y54133800D03*
X46037500Y7620000D03*
X17145000Y67627500D03*
X13970000Y62230000D03*
X14605000Y61595000D03*
X21590000Y53340000D03*
X6032500Y53340000D03*
X22225000Y52705000D03*
X22860000Y50165000D03*
X18415000Y51435000D03*
X8572500Y49212500D03*
X17780000Y50800000D03*
X17780000Y49530000D03*
X22860000Y54610000D03*
X6667500Y53975000D03*
X22225000Y55245000D03*
X21590000Y55880000D03*
X7937500Y55245000D03*
X20955000Y56515000D03*
X9207500Y55880000D03*
X20320000Y57150000D03*
X7302500Y57150000D03*
X19685000Y57785000D03*
X8572500Y57785000D03*
X19050000Y58420000D03*
X9842500Y58420000D03*
X18415000Y59055000D03*
X10477500Y59055000D03*
X17780000Y59690000D03*
X11112500Y59690000D03*
X17145000Y48895000D03*
X13017500Y56515000D03*
X15398800Y50800100D03*
X28416300Y53498800D03*
X46672500Y57785000D03*
X28416200Y82549900D03*
X32385000Y82232500D03*
X26670000Y38735000D03*
X16192500Y77470000D03*
X32385000Y74612500D03*
X11430000Y76835000D03*
X635000Y37465000D03*
X24130000Y65722500D03*
X26828700Y52069900D03*
X23495000Y66357500D03*
X26193700Y52705000D03*
X28257500Y49530000D03*
X36988800Y48577500D03*
X36830000Y51276300D03*
X27622500Y51276300D03*
X35877500Y50006300D03*
X22860000Y63500000D03*
X36036200Y53975000D03*
X28257500Y57150000D03*
X36036200Y53022500D03*
X27622500Y56515000D03*
X37147500Y55721300D03*
X28257500Y58420000D03*
X37147500Y54768800D03*
X27622500Y57785000D03*
X38417500Y55403800D03*
X35560000Y60960000D03*
X25400000Y62865000D03*
X36512500Y56356300D03*
X27940000Y59690000D03*
X36830000Y58102500D03*
X28098800Y54768800D03*
X45085000Y58420000D03*
X36195000Y61595000D03*
X47307500Y63500000D03*
X47625000Y58420000D03*
X37465000Y61595000D03*
X31432500Y47307500D03*
X31432500Y44767500D03*
X43180000Y60642500D03*
X53816300Y61912500D03*
X53816300Y54610000D03*
X39370000Y66992500D03*
X50165000Y57785000D03*
X50165000Y56832500D03*
X50165000Y55880000D03*
X50165000Y54927500D03*
X38735000Y72390000D03*
X39052500Y70802500D03*
X15557500Y72072500D03*
X16827500Y72072500D03*
X15557500Y71120000D03*
X17462500Y70802500D03*
X15557500Y70167500D03*
X19367500Y70167500D03*
X17621200Y26828700D03*
X13969900Y22225000D03*
X32226200Y27304900D03*
X33655000Y31908700D03*
X30638700Y22225000D03*
X34290000Y31273700D03*
X30956200Y27305000D03*
X33020000Y31273700D03*
X31750000Y21431300D03*
X35083800Y30797400D03*
X33337500Y37464900D03*
X30162500Y47307500D03*
X30162500Y42545000D03*
X34290000Y37464900D03*
X30797500Y47942500D03*
X30797500Y41910000D03*
X32385000Y37464900D03*
X27463700Y49530000D03*
X28575000Y41910000D03*
X35242500Y37464900D03*
X32067500Y47942500D03*
X32067500Y41910000D03*
X17938700Y20955000D03*
X19685000Y30797500D03*
X17145000Y20796200D03*
X17780000Y31432500D03*
X18573700Y21590000D03*
X20320000Y31432500D03*
X19367500Y21590000D03*
X20955000Y30797500D03*
X18256200Y36830000D03*
X21272500Y41910000D03*
X14128700Y36671200D03*
X14287500Y42227500D03*
X12382500Y36671200D03*
X13017500Y41592500D03*
X24130000Y48577500D03*
X21590000Y64135000D03*
X13017500Y50165000D03*
X25082500Y48577500D03*
X22225000Y64770000D03*
X19050000Y52070000D03*
X11430000Y52070000D03*
X19685000Y51435000D03*
X17303700Y36830000D03*
X18415000Y42862500D03*
X15398700Y36830000D03*
X17462500Y43815000D03*
X16351200Y36830000D03*
X18415000Y43815000D03*
X22860000Y37623700D03*
X22860000Y41910000D03*
X28892500Y80962500D03*
X36195000Y76517500D03*
X29845000Y80962500D03*
X36195000Y78422500D03*
X27622500Y80645000D03*
X36195000Y80962500D03*
X13176200Y68580000D03*
X17938700Y47625000D03*
X18573800Y48260000D03*
X12382500Y66675000D03*
X32702500Y48577500D03*
X42545000Y37465000D03*
X16827500Y29686300D03*
X13652500Y20320000D03*
X12541300Y25241300D03*
X22225000Y32067500D03*
X31432500Y22225000D03*
X29368800Y25717500D03*
X38258800Y26035000D03*
X30797500Y30638800D03*
X32385000Y30638800D03*
X28575000Y32067500D03*
M02*
