G04 EAGLE Gerber X2 export*
%TF.Part,Single*%
%TF.FileFunction,Copper,L3,Inr,Mixed*%
%TF.FilePolarity,Positive*%
%TF.GenerationSoftware,Autodesk,EAGLE,9.4.2*%
%TF.CreationDate,2019-11-19T20:24:05Z*%
G75*
%MOMM*%
%FSLAX36Y36*%
%LPD*%
%INEAGLE Copper Layer 15*%
%AMOC8*
5,1,8,0,0,1.08239X$1,22.5*%
G01*
%ADD10C,1.300000*%
%ADD11C,1.416000*%
%ADD12C,2.100000*%
%ADD13C,2.000000*%
%ADD14C,1.900000*%
%ADD15C,0.604800*%
%ADD16C,0.406400*%
%ADD17C,0.203200*%

G36*
X1334163Y41174216D02*
X1334163Y41174216D01*
X1339981Y41174063D01*
X1348184Y41176197D01*
X1356559Y41177381D01*
X1361863Y41179756D01*
X1367503Y41181225D01*
X1374797Y41185553D01*
X1382513Y41189009D01*
X1386953Y41192766D01*
X1391963Y41195738D01*
X1397766Y41201913D01*
X1404225Y41207375D01*
X1407450Y41212213D01*
X1411441Y41216459D01*
X1415309Y41224006D01*
X1419997Y41231041D01*
X1421753Y41236581D01*
X1424413Y41241769D01*
X1425556Y41248572D01*
X1428594Y41258150D01*
X1428856Y41268200D01*
X1430000Y41275000D01*
X1430000Y41389128D01*
X1551794Y41683166D01*
X1776831Y41908203D01*
X2070869Y42029997D01*
X2389128Y42029997D01*
X2683166Y41908203D01*
X2908203Y41683166D01*
X3029997Y41389128D01*
X3029997Y41275000D01*
X3030813Y41269238D01*
X3030659Y41263419D01*
X3032794Y41255216D01*
X3033978Y41246841D01*
X3036353Y41241538D01*
X3037822Y41235897D01*
X3042150Y41228603D01*
X3045606Y41220888D01*
X3049363Y41216447D01*
X3052334Y41211438D01*
X3058509Y41205634D01*
X3063972Y41199175D01*
X3068809Y41195950D01*
X3073056Y41191959D01*
X3080603Y41188091D01*
X3087638Y41183403D01*
X3093178Y41181647D01*
X3098366Y41178988D01*
X3105169Y41177844D01*
X3114747Y41174806D01*
X3124797Y41174544D01*
X3131597Y41173400D01*
X3868400Y41173400D01*
X3874163Y41174216D01*
X3879981Y41174063D01*
X3888184Y41176197D01*
X3896559Y41177381D01*
X3901863Y41179756D01*
X3907503Y41181225D01*
X3914797Y41185553D01*
X3922513Y41189009D01*
X3926953Y41192766D01*
X3931963Y41195738D01*
X3937766Y41201913D01*
X3944225Y41207375D01*
X3947450Y41212213D01*
X3951441Y41216459D01*
X3955309Y41224006D01*
X3959997Y41231041D01*
X3961753Y41236581D01*
X3964413Y41241769D01*
X3965556Y41248572D01*
X3968594Y41258150D01*
X3968856Y41268200D01*
X3970000Y41275000D01*
X3970000Y41389128D01*
X4091794Y41683166D01*
X4316831Y41908203D01*
X4610869Y42029997D01*
X4929128Y42029997D01*
X5223166Y41908203D01*
X5448203Y41683166D01*
X5569997Y41389128D01*
X5569997Y41275000D01*
X5570813Y41269238D01*
X5570659Y41263419D01*
X5572794Y41255216D01*
X5573978Y41246841D01*
X5576353Y41241538D01*
X5577822Y41235897D01*
X5582150Y41228603D01*
X5585606Y41220888D01*
X5589363Y41216447D01*
X5592334Y41211438D01*
X5598509Y41205634D01*
X5603972Y41199175D01*
X5608809Y41195950D01*
X5613056Y41191959D01*
X5620603Y41188091D01*
X5627638Y41183403D01*
X5633178Y41181647D01*
X5638366Y41178988D01*
X5645169Y41177844D01*
X5654747Y41174806D01*
X5664797Y41174544D01*
X5671597Y41173400D01*
X12551528Y41173400D01*
X12554419Y41173809D01*
X12557328Y41173566D01*
X12568466Y41175794D01*
X12579688Y41177381D01*
X12582347Y41178572D01*
X12585216Y41179147D01*
X12595291Y41184372D01*
X12605641Y41189009D01*
X12607872Y41190897D01*
X12610463Y41192241D01*
X12618681Y41200041D01*
X12627353Y41207375D01*
X12628975Y41209806D01*
X12631091Y41211816D01*
X12636834Y41221603D01*
X12643125Y41231041D01*
X12644006Y41233822D01*
X12645488Y41236344D01*
X12648291Y41247331D01*
X12651722Y41258150D01*
X12651800Y41261078D01*
X12652519Y41263900D01*
X12652169Y41275231D01*
X12652466Y41286581D01*
X12651731Y41289403D01*
X12651641Y41292325D01*
X12648163Y41303116D01*
X12645303Y41314103D01*
X12643809Y41316622D01*
X12642916Y41319394D01*
X12638409Y41325722D01*
X12630791Y41338563D01*
X12626178Y41342897D01*
X12623369Y41346844D01*
X12565100Y41405109D01*
X12565100Y41779891D01*
X12830106Y42044897D01*
X13204891Y42044897D01*
X13469897Y41779891D01*
X13469897Y41405109D01*
X13411628Y41346844D01*
X13409872Y41344509D01*
X13407644Y41342625D01*
X13401356Y41333191D01*
X13394531Y41324119D01*
X13393491Y41321388D01*
X13391872Y41318959D01*
X13388447Y41308159D01*
X13384400Y41297544D01*
X13384156Y41294631D01*
X13383275Y41291850D01*
X13382978Y41280513D01*
X13382034Y41269203D01*
X13382606Y41266338D01*
X13382531Y41263419D01*
X13385391Y41252425D01*
X13387616Y41241316D01*
X13388956Y41238728D01*
X13389694Y41235897D01*
X13395494Y41226122D01*
X13400706Y41216069D01*
X13402713Y41213953D01*
X13404206Y41211438D01*
X13412475Y41203666D01*
X13420281Y41195438D01*
X13422800Y41193959D01*
X13424928Y41191959D01*
X13435041Y41186778D01*
X13444809Y41181044D01*
X13447631Y41180325D01*
X13450238Y41178988D01*
X13457934Y41177694D01*
X13472366Y41174009D01*
X13478684Y41174203D01*
X13483469Y41173400D01*
X13934300Y41173400D01*
X13940063Y41174216D01*
X13945881Y41174063D01*
X13954084Y41176197D01*
X13962459Y41177381D01*
X13967763Y41179756D01*
X13973403Y41181225D01*
X13980697Y41185553D01*
X13988413Y41189009D01*
X13992853Y41192766D01*
X13997863Y41195738D01*
X14003666Y41201913D01*
X14010125Y41207375D01*
X14013350Y41212213D01*
X14017341Y41216459D01*
X14021209Y41224006D01*
X14025897Y41231041D01*
X14027653Y41236581D01*
X14030313Y41241769D01*
X14031456Y41248572D01*
X14034494Y41258150D01*
X14034756Y41268200D01*
X14035900Y41275000D01*
X14035900Y41797225D01*
X14034681Y41805844D01*
X14034413Y41814547D01*
X14032700Y41819859D01*
X14031919Y41825384D01*
X14028356Y41833334D01*
X14025688Y41841616D01*
X14022881Y41845559D01*
X14020291Y41851338D01*
X14010641Y41862747D01*
X14006141Y41869066D01*
X13835100Y42040106D01*
X13835100Y42414891D01*
X14100106Y42679897D01*
X14474891Y42679897D01*
X14739897Y42414891D01*
X14739897Y42040106D01*
X14568856Y41869066D01*
X14563631Y41862122D01*
X14557656Y41855766D01*
X14555109Y41850797D01*
X14551756Y41846341D01*
X14548656Y41838203D01*
X14544684Y41830456D01*
X14543881Y41825675D01*
X14541628Y41819766D01*
X14540388Y41804900D01*
X14539097Y41797225D01*
X14539097Y41275000D01*
X14539913Y41269238D01*
X14539759Y41263419D01*
X14541894Y41255216D01*
X14543078Y41246841D01*
X14545453Y41241538D01*
X14546922Y41235897D01*
X14551250Y41228603D01*
X14554706Y41220888D01*
X14558463Y41216447D01*
X14561434Y41211438D01*
X14567609Y41205634D01*
X14573072Y41199175D01*
X14577909Y41195950D01*
X14582156Y41191959D01*
X14589703Y41188091D01*
X14596738Y41183403D01*
X14602278Y41181647D01*
X14607466Y41178988D01*
X14614269Y41177844D01*
X14623847Y41174806D01*
X14633897Y41174544D01*
X14640697Y41173400D01*
X16791800Y41173400D01*
X16797563Y41174216D01*
X16803381Y41174063D01*
X16811584Y41176197D01*
X16819959Y41177381D01*
X16825263Y41179756D01*
X16830903Y41181225D01*
X16838197Y41185553D01*
X16845913Y41189009D01*
X16850353Y41192766D01*
X16855363Y41195738D01*
X16861166Y41201913D01*
X16867625Y41207375D01*
X16870850Y41212213D01*
X16874841Y41216459D01*
X16878709Y41224006D01*
X16883397Y41231041D01*
X16885153Y41236581D01*
X16887813Y41241769D01*
X16888956Y41248572D01*
X16891994Y41258150D01*
X16892256Y41268200D01*
X16893400Y41275000D01*
X16893400Y43601719D01*
X16980341Y43688659D01*
X16985566Y43695603D01*
X16991541Y43701959D01*
X16994088Y43706928D01*
X16997441Y43711384D01*
X17000541Y43719522D01*
X17004513Y43727269D01*
X17005316Y43732050D01*
X17007569Y43737959D01*
X17008809Y43752825D01*
X17010100Y43760500D01*
X17010100Y44002391D01*
X17275106Y44267397D01*
X17649888Y44267397D01*
X17866903Y44050378D01*
X17871553Y44046878D01*
X17875563Y44042656D01*
X17882875Y44038363D01*
X17889631Y44033281D01*
X17895056Y44031213D01*
X17900088Y44028259D01*
X17908303Y44026163D01*
X17916206Y44023150D01*
X17922009Y44022666D01*
X17927644Y44021228D01*
X17936100Y44021491D01*
X17944547Y44020784D01*
X17950253Y44021928D01*
X17956069Y44022106D01*
X17964125Y44024703D01*
X17972431Y44026366D01*
X17977603Y44029047D01*
X17983138Y44030831D01*
X17988747Y44034825D01*
X17997678Y44039456D01*
X18004978Y44046384D01*
X18010588Y44050378D01*
X18227606Y44267397D01*
X18602391Y44267397D01*
X18867397Y44002391D01*
X18867397Y43627606D01*
X18650378Y43410588D01*
X18646884Y43405944D01*
X18642656Y43401931D01*
X18638372Y43394631D01*
X18633278Y43387863D01*
X18631203Y43382419D01*
X18628259Y43377403D01*
X18626166Y43369203D01*
X18623150Y43361288D01*
X18622666Y43355481D01*
X18621228Y43349850D01*
X18621491Y43341394D01*
X18620784Y43332947D01*
X18621925Y43327241D01*
X18622106Y43321422D01*
X18624703Y43313363D01*
X18626366Y43305059D01*
X18629047Y43299888D01*
X18630831Y43294353D01*
X18634825Y43288744D01*
X18639456Y43279813D01*
X18646381Y43272516D01*
X18650378Y43266903D01*
X18867397Y43049888D01*
X18867397Y42675106D01*
X18696356Y42504066D01*
X18691131Y42497122D01*
X18685156Y42490766D01*
X18682609Y42485797D01*
X18679256Y42481341D01*
X18676156Y42473203D01*
X18672184Y42465456D01*
X18671381Y42460675D01*
X18669128Y42454766D01*
X18667888Y42439900D01*
X18666597Y42432225D01*
X18666597Y41275000D01*
X18667413Y41269238D01*
X18667259Y41263419D01*
X18669394Y41255216D01*
X18670578Y41246841D01*
X18672953Y41241538D01*
X18674422Y41235897D01*
X18678750Y41228603D01*
X18682206Y41220888D01*
X18685963Y41216447D01*
X18688934Y41211438D01*
X18695109Y41205634D01*
X18700572Y41199175D01*
X18705409Y41195950D01*
X18709656Y41191959D01*
X18717203Y41188091D01*
X18724238Y41183403D01*
X18729778Y41181647D01*
X18734966Y41178988D01*
X18741769Y41177844D01*
X18751347Y41174806D01*
X18761397Y41174544D01*
X18768197Y41173400D01*
X20919300Y41173400D01*
X20925063Y41174216D01*
X20930881Y41174063D01*
X20939084Y41176197D01*
X20947459Y41177381D01*
X20952763Y41179756D01*
X20958403Y41181225D01*
X20965697Y41185553D01*
X20973413Y41189009D01*
X20977853Y41192766D01*
X20982863Y41195738D01*
X20988666Y41201913D01*
X20995125Y41207375D01*
X20998350Y41212213D01*
X21002341Y41216459D01*
X21006209Y41224006D01*
X21010897Y41231041D01*
X21012653Y41236581D01*
X21015313Y41241769D01*
X21016456Y41248572D01*
X21019494Y41258150D01*
X21019756Y41268200D01*
X21020900Y41275000D01*
X21020900Y41479725D01*
X21020119Y41485250D01*
X21020238Y41489781D01*
X21019556Y41492400D01*
X21019413Y41497047D01*
X21017700Y41502359D01*
X21016919Y41507884D01*
X21013597Y41515300D01*
X21013075Y41517303D01*
X21012656Y41518009D01*
X21010688Y41524116D01*
X21007881Y41528059D01*
X21005291Y41533838D01*
X20995641Y41545247D01*
X20991141Y41551566D01*
X20820100Y41722606D01*
X20820100Y42097391D01*
X21085106Y42362397D01*
X21459891Y42362397D01*
X21724897Y42097391D01*
X21724897Y41722606D01*
X21553856Y41551566D01*
X21548631Y41544622D01*
X21542656Y41538266D01*
X21540109Y41533297D01*
X21536756Y41528841D01*
X21534356Y41522544D01*
X21534100Y41522159D01*
X21533613Y41520619D01*
X21529684Y41512956D01*
X21528881Y41508175D01*
X21526628Y41502266D01*
X21526213Y41497288D01*
X21525503Y41495050D01*
X21525288Y41486806D01*
X21524097Y41479725D01*
X21524097Y41275000D01*
X21524913Y41269238D01*
X21524759Y41263419D01*
X21526894Y41255216D01*
X21528078Y41246841D01*
X21530453Y41241538D01*
X21531922Y41235897D01*
X21536250Y41228603D01*
X21539706Y41220888D01*
X21543463Y41216447D01*
X21546434Y41211438D01*
X21552609Y41205634D01*
X21558072Y41199175D01*
X21562909Y41195950D01*
X21567156Y41191959D01*
X21574703Y41188091D01*
X21581738Y41183403D01*
X21587278Y41181647D01*
X21592466Y41178988D01*
X21599269Y41177844D01*
X21608847Y41174806D01*
X21618897Y41174544D01*
X21625697Y41173400D01*
X22506800Y41173400D01*
X22512563Y41174216D01*
X22518381Y41174063D01*
X22526584Y41176197D01*
X22534959Y41177381D01*
X22540263Y41179756D01*
X22545903Y41181225D01*
X22553197Y41185553D01*
X22560913Y41189009D01*
X22565353Y41192766D01*
X22570363Y41195738D01*
X22576166Y41201913D01*
X22582625Y41207375D01*
X22585850Y41212213D01*
X22589841Y41216459D01*
X22593709Y41224006D01*
X22598397Y41231041D01*
X22600153Y41236581D01*
X22602813Y41241769D01*
X22603956Y41248572D01*
X22606994Y41258150D01*
X22607256Y41268200D01*
X22608400Y41275000D01*
X22608400Y41479725D01*
X22607619Y41485250D01*
X22607738Y41489781D01*
X22607056Y41492400D01*
X22606913Y41497047D01*
X22605200Y41502359D01*
X22604419Y41507884D01*
X22601097Y41515300D01*
X22600575Y41517303D01*
X22600156Y41518009D01*
X22598188Y41524116D01*
X22595381Y41528059D01*
X22592791Y41533838D01*
X22583141Y41545247D01*
X22578641Y41551566D01*
X22407600Y41722606D01*
X22407600Y42097391D01*
X22672606Y42362397D01*
X23047391Y42362397D01*
X23312397Y42097391D01*
X23312397Y41722606D01*
X23141356Y41551566D01*
X23136131Y41544622D01*
X23130156Y41538266D01*
X23127609Y41533297D01*
X23124256Y41528841D01*
X23121856Y41522544D01*
X23121600Y41522159D01*
X23121113Y41520619D01*
X23117184Y41512956D01*
X23116381Y41508175D01*
X23114128Y41502266D01*
X23113713Y41497288D01*
X23113003Y41495050D01*
X23112788Y41486806D01*
X23111597Y41479725D01*
X23111597Y41275000D01*
X23112413Y41269238D01*
X23112259Y41263419D01*
X23114394Y41255216D01*
X23115578Y41246841D01*
X23117953Y41241538D01*
X23119422Y41235897D01*
X23123750Y41228603D01*
X23127206Y41220888D01*
X23130963Y41216447D01*
X23133934Y41211438D01*
X23140109Y41205634D01*
X23145572Y41199175D01*
X23150409Y41195950D01*
X23154656Y41191959D01*
X23162203Y41188091D01*
X23169238Y41183403D01*
X23174778Y41181647D01*
X23179966Y41178988D01*
X23186769Y41177844D01*
X23196347Y41174806D01*
X23206397Y41174544D01*
X23213197Y41173400D01*
X28221800Y41173400D01*
X28227563Y41174216D01*
X28233381Y41174063D01*
X28241584Y41176197D01*
X28249959Y41177381D01*
X28255263Y41179756D01*
X28260903Y41181225D01*
X28268197Y41185553D01*
X28275913Y41189009D01*
X28280353Y41192766D01*
X28285363Y41195738D01*
X28291166Y41201913D01*
X28297625Y41207375D01*
X28300850Y41212213D01*
X28304841Y41216459D01*
X28308709Y41224006D01*
X28313397Y41231041D01*
X28315153Y41236581D01*
X28317813Y41241769D01*
X28318956Y41248572D01*
X28321994Y41258150D01*
X28322256Y41268200D01*
X28323400Y41275000D01*
X28323400Y41479725D01*
X28322619Y41485250D01*
X28322738Y41489781D01*
X28322056Y41492400D01*
X28321913Y41497047D01*
X28320200Y41502359D01*
X28319419Y41507884D01*
X28316097Y41515300D01*
X28315575Y41517303D01*
X28315156Y41518009D01*
X28313188Y41524116D01*
X28310381Y41528059D01*
X28307791Y41533838D01*
X28298141Y41545247D01*
X28293641Y41551566D01*
X28122600Y41722606D01*
X28122600Y42097391D01*
X28387606Y42362397D01*
X28762391Y42362397D01*
X29027397Y42097391D01*
X29027397Y41722606D01*
X28856356Y41551566D01*
X28851131Y41544622D01*
X28845156Y41538266D01*
X28842609Y41533297D01*
X28839256Y41528841D01*
X28836856Y41522544D01*
X28836600Y41522159D01*
X28836113Y41520619D01*
X28832184Y41512956D01*
X28831381Y41508175D01*
X28829128Y41502266D01*
X28828713Y41497288D01*
X28828003Y41495050D01*
X28827788Y41486806D01*
X28826597Y41479725D01*
X28826597Y41421294D01*
X28827816Y41412675D01*
X28828084Y41403972D01*
X28829797Y41398653D01*
X28830578Y41393134D01*
X28834131Y41385200D01*
X28836806Y41376903D01*
X28839622Y41372950D01*
X28842206Y41367181D01*
X28851834Y41355797D01*
X28856353Y41349453D01*
X29002644Y41203159D01*
X29009594Y41197931D01*
X29015947Y41191959D01*
X29020925Y41189409D01*
X29025372Y41186063D01*
X29033497Y41182966D01*
X29041256Y41178988D01*
X29046034Y41178184D01*
X29051944Y41175931D01*
X29066816Y41174691D01*
X29074488Y41173400D01*
X29809300Y41173400D01*
X29815063Y41174216D01*
X29820881Y41174063D01*
X29829084Y41176197D01*
X29837459Y41177381D01*
X29842763Y41179756D01*
X29848403Y41181225D01*
X29855697Y41185553D01*
X29863413Y41189009D01*
X29867853Y41192766D01*
X29872863Y41195738D01*
X29878666Y41201913D01*
X29885125Y41207375D01*
X29888350Y41212213D01*
X29892341Y41216459D01*
X29896209Y41224006D01*
X29900897Y41231041D01*
X29902653Y41236581D01*
X29905313Y41241769D01*
X29906456Y41248572D01*
X29909494Y41258150D01*
X29909756Y41268200D01*
X29910900Y41275000D01*
X29910900Y42114725D01*
X29909681Y42123344D01*
X29909413Y42132047D01*
X29907700Y42137359D01*
X29906919Y42142884D01*
X29903356Y42150834D01*
X29900688Y42159116D01*
X29897881Y42163059D01*
X29895291Y42168838D01*
X29885641Y42180247D01*
X29881141Y42186566D01*
X29710100Y42357606D01*
X29710100Y42732391D01*
X29975106Y42997397D01*
X30349891Y42997397D01*
X30614897Y42732391D01*
X30614897Y42463997D01*
X30615713Y42458234D01*
X30615559Y42452416D01*
X30617694Y42444213D01*
X30618878Y42435838D01*
X30621253Y42430534D01*
X30622722Y42424894D01*
X30627050Y42417600D01*
X30630506Y42409884D01*
X30634263Y42405444D01*
X30637234Y42400434D01*
X30643409Y42394631D01*
X30648872Y42388172D01*
X30653709Y42384947D01*
X30657956Y42380956D01*
X30665503Y42377088D01*
X30672538Y42372400D01*
X30678078Y42370644D01*
X30683266Y42367984D01*
X30690069Y42366841D01*
X30699647Y42363803D01*
X30709697Y42363541D01*
X30716497Y42362397D01*
X30984891Y42362397D01*
X31249897Y42097391D01*
X31249897Y41722606D01*
X31078856Y41551566D01*
X31073631Y41544622D01*
X31067656Y41538266D01*
X31065109Y41533297D01*
X31061756Y41528841D01*
X31059356Y41522544D01*
X31059100Y41522159D01*
X31058613Y41520619D01*
X31054684Y41512956D01*
X31053881Y41508175D01*
X31051628Y41502266D01*
X31051213Y41497288D01*
X31050503Y41495050D01*
X31050288Y41486806D01*
X31049097Y41479725D01*
X31049097Y41275000D01*
X31049913Y41269238D01*
X31049759Y41263419D01*
X31051894Y41255216D01*
X31053078Y41246841D01*
X31055453Y41241538D01*
X31056922Y41235897D01*
X31061250Y41228603D01*
X31064706Y41220888D01*
X31068463Y41216447D01*
X31071434Y41211438D01*
X31077609Y41205634D01*
X31083072Y41199175D01*
X31087909Y41195950D01*
X31092156Y41191959D01*
X31099703Y41188091D01*
X31106738Y41183403D01*
X31112278Y41181647D01*
X31117466Y41178988D01*
X31124269Y41177844D01*
X31133847Y41174806D01*
X31143897Y41174544D01*
X31150697Y41173400D01*
X31714300Y41173400D01*
X31720063Y41174216D01*
X31725881Y41174063D01*
X31734084Y41176197D01*
X31742459Y41177381D01*
X31747763Y41179756D01*
X31753403Y41181225D01*
X31760697Y41185553D01*
X31768413Y41189009D01*
X31772853Y41192766D01*
X31777863Y41195738D01*
X31783666Y41201913D01*
X31790125Y41207375D01*
X31793350Y41212213D01*
X31797341Y41216459D01*
X31801209Y41224006D01*
X31805897Y41231041D01*
X31807653Y41236581D01*
X31810313Y41241769D01*
X31811456Y41248572D01*
X31814494Y41258150D01*
X31814756Y41268200D01*
X31815900Y41275000D01*
X31815900Y41479725D01*
X31815119Y41485250D01*
X31815238Y41489781D01*
X31814556Y41492400D01*
X31814413Y41497047D01*
X31812700Y41502359D01*
X31811919Y41507884D01*
X31808597Y41515300D01*
X31808075Y41517303D01*
X31807656Y41518009D01*
X31805688Y41524116D01*
X31802881Y41528059D01*
X31800291Y41533838D01*
X31790641Y41545247D01*
X31786141Y41551566D01*
X31615100Y41722606D01*
X31615100Y42097391D01*
X31880106Y42362397D01*
X32254891Y42362397D01*
X32519897Y42097391D01*
X32519897Y41722606D01*
X32348856Y41551566D01*
X32343631Y41544622D01*
X32337656Y41538266D01*
X32335109Y41533297D01*
X32331756Y41528841D01*
X32329356Y41522544D01*
X32329100Y41522159D01*
X32328613Y41520619D01*
X32324684Y41512956D01*
X32323881Y41508175D01*
X32321628Y41502266D01*
X32321213Y41497288D01*
X32320503Y41495050D01*
X32320288Y41486806D01*
X32319097Y41479725D01*
X32319097Y41275000D01*
X32319913Y41269238D01*
X32319759Y41263419D01*
X32321894Y41255216D01*
X32323078Y41246841D01*
X32325453Y41241538D01*
X32326922Y41235897D01*
X32331250Y41228603D01*
X32334706Y41220888D01*
X32338463Y41216447D01*
X32341434Y41211438D01*
X32347609Y41205634D01*
X32353072Y41199175D01*
X32357909Y41195950D01*
X32362156Y41191959D01*
X32369703Y41188091D01*
X32376738Y41183403D01*
X32382278Y41181647D01*
X32387466Y41178988D01*
X32394269Y41177844D01*
X32403847Y41174806D01*
X32413897Y41174544D01*
X32420697Y41173400D01*
X53394313Y41173400D01*
X53397203Y41173809D01*
X53400113Y41173566D01*
X53411250Y41175794D01*
X53422472Y41177381D01*
X53425131Y41178572D01*
X53428000Y41179147D01*
X53438075Y41184372D01*
X53448425Y41189009D01*
X53450656Y41190897D01*
X53453247Y41192241D01*
X53461466Y41200041D01*
X53470138Y41207375D01*
X53471759Y41209806D01*
X53473875Y41211816D01*
X53479619Y41221603D01*
X53485909Y41231041D01*
X53486791Y41233822D01*
X53488272Y41236344D01*
X53491075Y41247331D01*
X53494506Y41258150D01*
X53494584Y41261078D01*
X53495303Y41263900D01*
X53494953Y41275231D01*
X53495250Y41286581D01*
X53494516Y41289403D01*
X53494425Y41292325D01*
X53490947Y41303116D01*
X53488088Y41314103D01*
X53486594Y41316622D01*
X53485700Y41319394D01*
X53481194Y41325722D01*
X53473575Y41338563D01*
X53468963Y41342897D01*
X53466153Y41346844D01*
X53389256Y41423738D01*
X53100000Y42122063D01*
X53100000Y42877934D01*
X53389259Y43576266D01*
X53923731Y44110738D01*
X54622063Y44399997D01*
X55377934Y44399997D01*
X56076266Y44110738D01*
X56610738Y43576266D01*
X56899997Y42877934D01*
X56899997Y42122063D01*
X56610741Y41423738D01*
X56533844Y41346844D01*
X56532088Y41344509D01*
X56529859Y41342625D01*
X56523572Y41333191D01*
X56516747Y41324119D01*
X56515706Y41321388D01*
X56514088Y41318959D01*
X56510663Y41308159D01*
X56506616Y41297544D01*
X56506372Y41294631D01*
X56505491Y41291850D01*
X56505194Y41280513D01*
X56504250Y41269203D01*
X56504822Y41266338D01*
X56504747Y41263419D01*
X56507606Y41252425D01*
X56509831Y41241316D01*
X56511172Y41238728D01*
X56511909Y41235897D01*
X56517709Y41226122D01*
X56522922Y41216069D01*
X56524928Y41213953D01*
X56526422Y41211438D01*
X56534691Y41203666D01*
X56542497Y41195438D01*
X56545016Y41193959D01*
X56547144Y41191959D01*
X56557256Y41186778D01*
X56567025Y41181044D01*
X56569847Y41180325D01*
X56572453Y41178988D01*
X56580150Y41177694D01*
X56594581Y41174009D01*
X56600900Y41174203D01*
X56605684Y41173400D01*
X57598400Y41173400D01*
X57604163Y41174216D01*
X57609981Y41174063D01*
X57618184Y41176197D01*
X57626559Y41177381D01*
X57631863Y41179756D01*
X57637503Y41181225D01*
X57644797Y41185553D01*
X57652513Y41189009D01*
X57656953Y41192766D01*
X57661963Y41195738D01*
X57667766Y41201913D01*
X57674225Y41207375D01*
X57677450Y41212213D01*
X57681441Y41216459D01*
X57685309Y41224006D01*
X57689997Y41231041D01*
X57691753Y41236581D01*
X57694413Y41241769D01*
X57695556Y41248572D01*
X57698594Y41258150D01*
X57698856Y41268200D01*
X57700000Y41275000D01*
X57700000Y54116031D01*
X57699591Y54118922D01*
X57699834Y54121834D01*
X57697603Y54132975D01*
X57696019Y54144191D01*
X57694828Y54146850D01*
X57694253Y54149719D01*
X57689028Y54159794D01*
X57684391Y54170144D01*
X57682503Y54172375D01*
X57681159Y54174966D01*
X57673359Y54183184D01*
X57666025Y54191856D01*
X57663594Y54193478D01*
X57661584Y54195594D01*
X57651797Y54201338D01*
X57642359Y54207628D01*
X57639578Y54208509D01*
X57637056Y54209991D01*
X57626069Y54212794D01*
X57615250Y54216225D01*
X57612322Y54216303D01*
X57609500Y54217022D01*
X57598169Y54216672D01*
X57586819Y54216969D01*
X57583997Y54216234D01*
X57581075Y54216144D01*
X57570284Y54212666D01*
X57559297Y54209806D01*
X57556778Y54208313D01*
X57554006Y54207419D01*
X57547678Y54202913D01*
X57534838Y54195294D01*
X57530503Y54190681D01*
X57526556Y54187872D01*
X57496188Y54157500D01*
X57121406Y54157500D01*
X56856400Y54422506D01*
X56856400Y54797291D01*
X57121406Y55062297D01*
X57496188Y55062297D01*
X57526556Y55031925D01*
X57528891Y55030169D01*
X57530775Y55027941D01*
X57540209Y55021653D01*
X57549281Y55014828D01*
X57552013Y55013788D01*
X57554441Y55012169D01*
X57565241Y55008744D01*
X57575856Y55004697D01*
X57578769Y55004453D01*
X57581550Y55003572D01*
X57592888Y55003275D01*
X57604197Y55002331D01*
X57607063Y55002903D01*
X57609981Y55002828D01*
X57620975Y55005688D01*
X57632084Y55007913D01*
X57634672Y55009253D01*
X57637503Y55009991D01*
X57647278Y55015791D01*
X57657331Y55021003D01*
X57659447Y55023009D01*
X57661963Y55024503D01*
X57669750Y55032788D01*
X57677959Y55040578D01*
X57679434Y55043091D01*
X57681441Y55045225D01*
X57686631Y55055353D01*
X57692356Y55065106D01*
X57693078Y55067928D01*
X57694413Y55070534D01*
X57695706Y55078225D01*
X57699391Y55092659D01*
X57699197Y55098981D01*
X57700000Y55103766D01*
X57700000Y58561031D01*
X57699591Y58563922D01*
X57699834Y58566834D01*
X57697603Y58577975D01*
X57696019Y58589191D01*
X57694828Y58591850D01*
X57694253Y58594719D01*
X57689028Y58604794D01*
X57684391Y58615144D01*
X57682503Y58617375D01*
X57681159Y58619966D01*
X57673359Y58628184D01*
X57666025Y58636856D01*
X57663594Y58638478D01*
X57661584Y58640594D01*
X57651797Y58646338D01*
X57642359Y58652628D01*
X57639578Y58653509D01*
X57637056Y58654991D01*
X57626069Y58657794D01*
X57615250Y58661225D01*
X57612322Y58661303D01*
X57609500Y58662022D01*
X57598169Y58661672D01*
X57586819Y58661969D01*
X57583997Y58661234D01*
X57581075Y58661144D01*
X57570284Y58657666D01*
X57559297Y58654806D01*
X57556778Y58653313D01*
X57554006Y58652419D01*
X57547678Y58647913D01*
X57534838Y58640294D01*
X57530503Y58635681D01*
X57526556Y58632872D01*
X57496188Y58602500D01*
X57121406Y58602500D01*
X56856400Y58867506D01*
X56856400Y59242291D01*
X57121406Y59507297D01*
X57496188Y59507297D01*
X57526556Y59476925D01*
X57528891Y59475169D01*
X57530775Y59472941D01*
X57540209Y59466653D01*
X57549281Y59459828D01*
X57552013Y59458788D01*
X57554441Y59457169D01*
X57565241Y59453744D01*
X57575856Y59449697D01*
X57578769Y59449453D01*
X57581550Y59448572D01*
X57592888Y59448275D01*
X57604197Y59447331D01*
X57607063Y59447903D01*
X57609981Y59447828D01*
X57620975Y59450688D01*
X57632084Y59452913D01*
X57634672Y59454253D01*
X57637503Y59454991D01*
X57647278Y59460791D01*
X57657331Y59466003D01*
X57659447Y59468009D01*
X57661963Y59469503D01*
X57669750Y59477788D01*
X57677959Y59485578D01*
X57679434Y59488091D01*
X57681441Y59490225D01*
X57686631Y59500353D01*
X57692356Y59510106D01*
X57693078Y59512928D01*
X57694413Y59515534D01*
X57695706Y59523225D01*
X57699391Y59537659D01*
X57699197Y59543981D01*
X57700000Y59548766D01*
X57700000Y59989731D01*
X57699591Y59992622D01*
X57699834Y59995534D01*
X57697603Y60006675D01*
X57696019Y60017891D01*
X57694828Y60020550D01*
X57694253Y60023419D01*
X57689028Y60033494D01*
X57684391Y60043844D01*
X57682503Y60046075D01*
X57681159Y60048666D01*
X57673359Y60056884D01*
X57666025Y60065556D01*
X57663594Y60067178D01*
X57661584Y60069294D01*
X57651797Y60075038D01*
X57642359Y60081328D01*
X57639578Y60082209D01*
X57637056Y60083691D01*
X57626069Y60086494D01*
X57615250Y60089925D01*
X57612322Y60090003D01*
X57609500Y60090722D01*
X57598169Y60090372D01*
X57586819Y60090669D01*
X57583997Y60089934D01*
X57581075Y60089844D01*
X57570284Y60086366D01*
X57559297Y60083506D01*
X57556778Y60082013D01*
X57554006Y60081119D01*
X57547678Y60076613D01*
X57534838Y60068994D01*
X57530503Y60064381D01*
X57526556Y60061572D01*
X57496188Y60031200D01*
X57121406Y60031200D01*
X56856400Y60296206D01*
X56856400Y60670991D01*
X57121406Y60935997D01*
X57496188Y60935997D01*
X57526556Y60905625D01*
X57528891Y60903869D01*
X57530775Y60901641D01*
X57540209Y60895353D01*
X57549281Y60888528D01*
X57552013Y60887488D01*
X57554441Y60885869D01*
X57565241Y60882444D01*
X57575856Y60878397D01*
X57578769Y60878153D01*
X57581550Y60877272D01*
X57592888Y60876975D01*
X57604197Y60876031D01*
X57607063Y60876603D01*
X57609981Y60876528D01*
X57620975Y60879388D01*
X57632084Y60881613D01*
X57634672Y60882953D01*
X57637503Y60883691D01*
X57647278Y60889491D01*
X57657331Y60894703D01*
X57659447Y60896709D01*
X57661963Y60898203D01*
X57669750Y60906488D01*
X57677959Y60914278D01*
X57679434Y60916791D01*
X57681441Y60918925D01*
X57686631Y60929053D01*
X57692356Y60938806D01*
X57693078Y60941628D01*
X57694413Y60944234D01*
X57695706Y60951925D01*
X57699391Y60966359D01*
X57699197Y60972681D01*
X57700000Y60977466D01*
X57700000Y61418531D01*
X57699591Y61421422D01*
X57699834Y61424334D01*
X57697603Y61435475D01*
X57696019Y61446691D01*
X57694828Y61449350D01*
X57694253Y61452219D01*
X57689028Y61462294D01*
X57684391Y61472644D01*
X57682503Y61474875D01*
X57681159Y61477466D01*
X57673359Y61485684D01*
X57666025Y61494356D01*
X57663594Y61495978D01*
X57661584Y61498094D01*
X57651797Y61503838D01*
X57642359Y61510128D01*
X57639578Y61511009D01*
X57637056Y61512491D01*
X57626069Y61515294D01*
X57615250Y61518725D01*
X57612322Y61518803D01*
X57609500Y61519522D01*
X57598169Y61519172D01*
X57586819Y61519469D01*
X57583997Y61518734D01*
X57581075Y61518644D01*
X57570284Y61515166D01*
X57559297Y61512306D01*
X57556778Y61510813D01*
X57554006Y61509919D01*
X57547678Y61505413D01*
X57534838Y61497794D01*
X57530503Y61493181D01*
X57526556Y61490372D01*
X57496188Y61460000D01*
X57121406Y61460000D01*
X56856400Y61725006D01*
X56856400Y62099791D01*
X57121406Y62364797D01*
X57496188Y62364797D01*
X57526556Y62334425D01*
X57528891Y62332669D01*
X57530775Y62330441D01*
X57535963Y62326984D01*
X57538328Y62324759D01*
X57541703Y62323031D01*
X57549281Y62317328D01*
X57552013Y62316288D01*
X57554441Y62314669D01*
X57565241Y62311244D01*
X57575856Y62307197D01*
X57578769Y62306953D01*
X57581550Y62306072D01*
X57592888Y62305775D01*
X57604197Y62304831D01*
X57607063Y62305403D01*
X57609981Y62305328D01*
X57620975Y62308188D01*
X57632084Y62310413D01*
X57634672Y62311753D01*
X57637503Y62312491D01*
X57647278Y62318291D01*
X57657331Y62323503D01*
X57659447Y62325509D01*
X57661963Y62327003D01*
X57669750Y62335288D01*
X57677959Y62343078D01*
X57679434Y62345591D01*
X57681441Y62347725D01*
X57686631Y62357853D01*
X57692356Y62367606D01*
X57693078Y62370428D01*
X57694413Y62373034D01*
X57695706Y62380725D01*
X57697169Y62386456D01*
X57698594Y62390950D01*
X57698625Y62392163D01*
X57699391Y62395159D01*
X57699197Y62401481D01*
X57700000Y62406266D01*
X57700000Y62847231D01*
X57699591Y62850122D01*
X57699834Y62853034D01*
X57697603Y62864175D01*
X57696019Y62875391D01*
X57694828Y62878050D01*
X57694253Y62880919D01*
X57689028Y62890994D01*
X57684391Y62901344D01*
X57682503Y62903575D01*
X57681159Y62906166D01*
X57673359Y62914384D01*
X57666025Y62923056D01*
X57663594Y62924678D01*
X57661584Y62926794D01*
X57651797Y62932538D01*
X57642359Y62938828D01*
X57639578Y62939709D01*
X57637056Y62941191D01*
X57626069Y62943994D01*
X57615250Y62947425D01*
X57612322Y62947503D01*
X57609500Y62948222D01*
X57598169Y62947872D01*
X57586819Y62948169D01*
X57583997Y62947434D01*
X57581075Y62947344D01*
X57570284Y62943866D01*
X57559297Y62941006D01*
X57556778Y62939513D01*
X57554006Y62938619D01*
X57547678Y62934113D01*
X57534838Y62926494D01*
X57530503Y62921881D01*
X57526556Y62919072D01*
X57496188Y62888700D01*
X57121406Y62888700D01*
X56856400Y63153706D01*
X56856400Y63528491D01*
X57121406Y63793497D01*
X57496188Y63793497D01*
X57526556Y63763125D01*
X57528891Y63761369D01*
X57530775Y63759141D01*
X57540209Y63752853D01*
X57549281Y63746028D01*
X57552013Y63744988D01*
X57554441Y63743369D01*
X57565241Y63739944D01*
X57575856Y63735897D01*
X57578769Y63735653D01*
X57581550Y63734772D01*
X57592888Y63734475D01*
X57604197Y63733531D01*
X57607063Y63734103D01*
X57609981Y63734028D01*
X57620975Y63736888D01*
X57632084Y63739113D01*
X57634672Y63740453D01*
X57637503Y63741191D01*
X57647278Y63746991D01*
X57657331Y63752203D01*
X57659447Y63754209D01*
X57661963Y63755703D01*
X57669750Y63763988D01*
X57677959Y63771778D01*
X57679434Y63774291D01*
X57681441Y63776425D01*
X57686631Y63786553D01*
X57692356Y63796306D01*
X57693078Y63799128D01*
X57694413Y63801734D01*
X57695706Y63809425D01*
X57699391Y63823859D01*
X57699197Y63830181D01*
X57700000Y63834966D01*
X57700000Y72062663D01*
X57699591Y72065553D01*
X57699834Y72068463D01*
X57699328Y72070997D01*
X57699338Y72071381D01*
X57698959Y72072834D01*
X57697606Y72079600D01*
X57696019Y72090822D01*
X57694828Y72093481D01*
X57694253Y72096350D01*
X57689034Y72106413D01*
X57684391Y72116775D01*
X57682509Y72119000D01*
X57681163Y72121597D01*
X57673344Y72129834D01*
X57666025Y72138488D01*
X57663594Y72140106D01*
X57661584Y72142225D01*
X57651788Y72147975D01*
X57642359Y72154259D01*
X57639584Y72155141D01*
X57637059Y72156622D01*
X57626056Y72159428D01*
X57615250Y72162856D01*
X57612325Y72162931D01*
X57609503Y72163653D01*
X57598169Y72163303D01*
X57586819Y72163600D01*
X57583994Y72162866D01*
X57581075Y72162775D01*
X57570284Y72159297D01*
X57559297Y72156438D01*
X57556778Y72154944D01*
X57554006Y72154050D01*
X57547678Y72149544D01*
X57534838Y72141925D01*
X57530503Y72137313D01*
X57526556Y72134503D01*
X57226744Y71834688D01*
X56785694Y71652000D01*
X56308303Y71652000D01*
X55867247Y71834691D01*
X55529691Y72172247D01*
X55347000Y72613303D01*
X55347000Y73090694D01*
X55529691Y73531750D01*
X55867247Y73869306D01*
X56308303Y74051997D01*
X56785694Y74051997D01*
X57226744Y73869309D01*
X57526556Y73569494D01*
X57528891Y73567738D01*
X57530775Y73565509D01*
X57540206Y73559225D01*
X57549284Y73552394D01*
X57552019Y73551353D01*
X57554441Y73549738D01*
X57565241Y73546313D01*
X57575859Y73542266D01*
X57578769Y73542022D01*
X57581550Y73541141D01*
X57592891Y73540844D01*
X57604200Y73539900D01*
X57607063Y73540472D01*
X57609981Y73540397D01*
X57620969Y73543256D01*
X57632084Y73545481D01*
X57634672Y73546822D01*
X57637503Y73547559D01*
X57647278Y73553359D01*
X57657331Y73558572D01*
X57659447Y73560578D01*
X57661963Y73562072D01*
X57669750Y73570356D01*
X57677963Y73578150D01*
X57679438Y73580663D01*
X57681441Y73582794D01*
X57686628Y73592916D01*
X57692356Y73602675D01*
X57693075Y73605497D01*
X57694413Y73608103D01*
X57695706Y73615800D01*
X57699391Y73630231D01*
X57699197Y73636550D01*
X57700000Y73641334D01*
X57700000Y83999997D01*
X57699209Y84005584D01*
X57699509Y84009953D01*
X57688013Y84126697D01*
X57681294Y84154331D01*
X57680913Y84155000D01*
X57680769Y84155622D01*
X57591416Y84371334D01*
X57589869Y84373956D01*
X57588938Y84376844D01*
X57584428Y84383178D01*
X57576963Y84395828D01*
X57572250Y84400278D01*
X57569391Y84404294D01*
X57404294Y84569391D01*
X57401866Y84571216D01*
X57399897Y84573534D01*
X57393291Y84577669D01*
X57381569Y84586491D01*
X57375519Y84588797D01*
X57371334Y84591416D01*
X57155622Y84680769D01*
X57128084Y84687869D01*
X57127309Y84687847D01*
X57126697Y84688013D01*
X57009956Y84699509D01*
X57004331Y84699272D01*
X57000000Y84700000D01*
X8000000Y84700000D01*
X7994413Y84699209D01*
X7990044Y84699509D01*
X7873300Y84688013D01*
X7845666Y84681294D01*
X7844997Y84680913D01*
X7844375Y84680769D01*
X7628659Y84591416D01*
X7626038Y84589869D01*
X7623150Y84588938D01*
X7616816Y84584428D01*
X7604166Y84576963D01*
X7599716Y84572250D01*
X7595700Y84569391D01*
X7430606Y84404297D01*
X7428781Y84401869D01*
X7426463Y84399900D01*
X7422328Y84393294D01*
X7413506Y84381572D01*
X7411200Y84375522D01*
X7408581Y84371338D01*
X7319228Y84155625D01*
X7312128Y84128088D01*
X7312150Y84127316D01*
X7311984Y84126703D01*
X7300488Y84009969D01*
X7300725Y84004341D01*
X7299997Y84000009D01*
X7299997Y78741413D01*
X7102078Y78263600D01*
X6736397Y77897919D01*
X6258584Y77700000D01*
X999991Y77700000D01*
X994403Y77699209D01*
X990031Y77699509D01*
X873297Y77688013D01*
X845666Y77681294D01*
X844997Y77680913D01*
X844375Y77680769D01*
X628663Y77591416D01*
X626041Y77589869D01*
X623153Y77588938D01*
X616819Y77584428D01*
X604169Y77576963D01*
X599719Y77572250D01*
X595703Y77569391D01*
X430606Y77404294D01*
X428781Y77401866D01*
X426463Y77399897D01*
X422328Y77393291D01*
X413506Y77381569D01*
X411200Y77375519D01*
X408581Y77371334D01*
X319228Y77155622D01*
X312128Y77128084D01*
X312150Y77127309D01*
X311984Y77126697D01*
X300488Y77009956D01*
X300725Y77004331D01*
X299997Y77000000D01*
X299997Y41275000D01*
X300813Y41269238D01*
X300659Y41263419D01*
X302794Y41255216D01*
X303978Y41246841D01*
X306353Y41241538D01*
X307822Y41235897D01*
X312150Y41228603D01*
X315606Y41220888D01*
X319363Y41216447D01*
X322334Y41211438D01*
X328509Y41205634D01*
X333972Y41199175D01*
X338809Y41195950D01*
X343056Y41191959D01*
X350603Y41188091D01*
X357638Y41183403D01*
X363178Y41181647D01*
X368366Y41178988D01*
X375169Y41177844D01*
X384747Y41174806D01*
X394797Y41174544D01*
X401597Y41173400D01*
X1328400Y41173400D01*
X1334163Y41174216D01*
G37*
%LPC*%
G36*
X54127119Y73950000D02*
X54127119Y73950000D01*
X53410406Y74246872D01*
X52861872Y74795406D01*
X52565000Y75512119D01*
X52565000Y76287878D01*
X52861872Y77004591D01*
X53410406Y77553125D01*
X54127119Y77849997D01*
X54902878Y77849997D01*
X55619591Y77553125D01*
X56168125Y77004591D01*
X56464997Y76287878D01*
X56464997Y75512119D01*
X56168125Y74795406D01*
X55619591Y74246872D01*
X54902878Y73950000D01*
X54127119Y73950000D01*
G37*
%LPD*%
%LPC*%
G36*
X42697119Y73950000D02*
X42697119Y73950000D01*
X41980406Y74246872D01*
X41431872Y74795406D01*
X41135000Y75512119D01*
X41135000Y76287878D01*
X41431872Y77004591D01*
X41980406Y77553125D01*
X42697119Y77849997D01*
X43472878Y77849997D01*
X44189591Y77553125D01*
X44738125Y77004591D01*
X45034997Y76287878D01*
X45034997Y75512119D01*
X44738125Y74795406D01*
X44189591Y74246872D01*
X43472878Y73950000D01*
X42697119Y73950000D01*
G37*
%LPD*%
%LPC*%
G36*
X2622063Y72100000D02*
X2622063Y72100000D01*
X1923731Y72389259D01*
X1389259Y72923731D01*
X1100000Y73622063D01*
X1100000Y74377934D01*
X1389259Y75076266D01*
X1923731Y75610738D01*
X2622063Y75899997D01*
X3377934Y75899997D01*
X4076266Y75610738D01*
X4610738Y75076266D01*
X4899997Y74377934D01*
X4899997Y73622063D01*
X4610738Y72923731D01*
X4076266Y72389259D01*
X3377934Y72100000D01*
X2622063Y72100000D01*
G37*
%LPD*%
%LPC*%
G36*
X22672606Y54157600D02*
X22672606Y54157600D01*
X22407600Y54422606D01*
X22407600Y54691000D01*
X22406891Y54696013D01*
X22406938Y54697781D01*
X22406822Y54698219D01*
X22406938Y54702581D01*
X22404803Y54710784D01*
X22403619Y54719159D01*
X22401244Y54724463D01*
X22399775Y54730103D01*
X22395447Y54737397D01*
X22391991Y54745113D01*
X22388234Y54749553D01*
X22385263Y54754563D01*
X22379088Y54760366D01*
X22373625Y54766825D01*
X22368788Y54770050D01*
X22364541Y54774041D01*
X22356994Y54777909D01*
X22349959Y54782597D01*
X22344419Y54784353D01*
X22339231Y54787013D01*
X22332428Y54788156D01*
X22322850Y54791194D01*
X22312800Y54791456D01*
X22306000Y54792600D01*
X22037606Y54792600D01*
X21772600Y55057606D01*
X21772600Y55326000D01*
X21771784Y55331763D01*
X21771938Y55337581D01*
X21769803Y55345784D01*
X21768619Y55354159D01*
X21766244Y55359463D01*
X21764775Y55365103D01*
X21760447Y55372397D01*
X21756991Y55380113D01*
X21753234Y55384553D01*
X21750263Y55389563D01*
X21744088Y55395366D01*
X21738625Y55401825D01*
X21733788Y55405050D01*
X21729541Y55409041D01*
X21721994Y55412909D01*
X21714959Y55417597D01*
X21709419Y55419353D01*
X21704231Y55422013D01*
X21697428Y55423156D01*
X21687850Y55426194D01*
X21677800Y55426456D01*
X21671000Y55427600D01*
X21402606Y55427600D01*
X21137600Y55692606D01*
X21137600Y55961000D01*
X21136784Y55966763D01*
X21136938Y55972581D01*
X21134803Y55980784D01*
X21133619Y55989159D01*
X21131244Y55994463D01*
X21129775Y56000103D01*
X21125447Y56007397D01*
X21121991Y56015113D01*
X21118234Y56019553D01*
X21115263Y56024563D01*
X21109088Y56030366D01*
X21103625Y56036825D01*
X21098788Y56040050D01*
X21094541Y56044041D01*
X21086994Y56047909D01*
X21079959Y56052597D01*
X21074419Y56054353D01*
X21069231Y56057013D01*
X21062428Y56058156D01*
X21052850Y56061194D01*
X21042800Y56061456D01*
X21036000Y56062600D01*
X20767606Y56062600D01*
X20502600Y56327606D01*
X20502600Y56596000D01*
X20501784Y56601763D01*
X20501938Y56607581D01*
X20499803Y56615784D01*
X20498619Y56624159D01*
X20496244Y56629463D01*
X20494775Y56635103D01*
X20490447Y56642397D01*
X20486991Y56650113D01*
X20483234Y56654553D01*
X20480263Y56659563D01*
X20474088Y56665366D01*
X20468625Y56671825D01*
X20463788Y56675050D01*
X20459541Y56679041D01*
X20451994Y56682909D01*
X20444959Y56687597D01*
X20439419Y56689353D01*
X20434231Y56692013D01*
X20427428Y56693156D01*
X20417850Y56696194D01*
X20407800Y56696456D01*
X20401000Y56697600D01*
X20132606Y56697600D01*
X19867600Y56962606D01*
X19867600Y57231000D01*
X19866891Y57236013D01*
X19866938Y57237781D01*
X19866822Y57238219D01*
X19866938Y57242581D01*
X19864803Y57250784D01*
X19863619Y57259159D01*
X19861244Y57264463D01*
X19859775Y57270103D01*
X19855447Y57277397D01*
X19851991Y57285113D01*
X19848234Y57289553D01*
X19845263Y57294563D01*
X19839088Y57300366D01*
X19833625Y57306825D01*
X19828788Y57310050D01*
X19824541Y57314041D01*
X19816994Y57317909D01*
X19809959Y57322597D01*
X19804419Y57324353D01*
X19799231Y57327013D01*
X19792428Y57328156D01*
X19782850Y57331194D01*
X19772800Y57331456D01*
X19766000Y57332600D01*
X19497606Y57332600D01*
X19232600Y57597606D01*
X19232600Y57866000D01*
X19231784Y57871763D01*
X19231938Y57877581D01*
X19229803Y57885784D01*
X19228619Y57894159D01*
X19226244Y57899463D01*
X19224775Y57905103D01*
X19220447Y57912397D01*
X19216991Y57920113D01*
X19213234Y57924553D01*
X19210263Y57929563D01*
X19204088Y57935366D01*
X19198625Y57941825D01*
X19193788Y57945050D01*
X19189541Y57949041D01*
X19181994Y57952909D01*
X19174959Y57957597D01*
X19169419Y57959353D01*
X19164231Y57962013D01*
X19157428Y57963156D01*
X19147850Y57966194D01*
X19137800Y57966456D01*
X19131000Y57967600D01*
X18862606Y57967600D01*
X18597600Y58232606D01*
X18597600Y58501000D01*
X18596784Y58506763D01*
X18596938Y58512581D01*
X18594803Y58520784D01*
X18593619Y58529159D01*
X18591244Y58534463D01*
X18589775Y58540103D01*
X18585447Y58547397D01*
X18581991Y58555113D01*
X18578234Y58559553D01*
X18575263Y58564563D01*
X18569088Y58570366D01*
X18563625Y58576825D01*
X18558788Y58580050D01*
X18554541Y58584041D01*
X18546994Y58587909D01*
X18539959Y58592597D01*
X18534419Y58594353D01*
X18529231Y58597013D01*
X18522428Y58598156D01*
X18512850Y58601194D01*
X18502800Y58601456D01*
X18496000Y58602600D01*
X18227606Y58602600D01*
X17962600Y58867606D01*
X17962600Y59136000D01*
X17961784Y59141763D01*
X17961938Y59147581D01*
X17959803Y59155784D01*
X17958619Y59164159D01*
X17956244Y59169463D01*
X17954775Y59175103D01*
X17950447Y59182397D01*
X17946991Y59190113D01*
X17943234Y59194553D01*
X17940263Y59199563D01*
X17934088Y59205366D01*
X17928625Y59211825D01*
X17923788Y59215050D01*
X17919541Y59219041D01*
X17911994Y59222909D01*
X17904959Y59227597D01*
X17899419Y59229353D01*
X17894231Y59232013D01*
X17887428Y59233156D01*
X17877850Y59236194D01*
X17867800Y59236456D01*
X17861000Y59237600D01*
X17592606Y59237600D01*
X17327600Y59502606D01*
X17327600Y59877391D01*
X17592606Y60142397D01*
X17967391Y60142397D01*
X18232397Y59877391D01*
X18232397Y59608997D01*
X18233213Y59603234D01*
X18233059Y59597416D01*
X18235194Y59589213D01*
X18236378Y59580838D01*
X18238753Y59575534D01*
X18240222Y59569894D01*
X18244550Y59562600D01*
X18248006Y59554884D01*
X18251763Y59550444D01*
X18254734Y59545434D01*
X18260909Y59539631D01*
X18266372Y59533172D01*
X18271209Y59529947D01*
X18275456Y59525956D01*
X18283003Y59522088D01*
X18290038Y59517400D01*
X18295578Y59515644D01*
X18300766Y59512984D01*
X18307569Y59511841D01*
X18317147Y59508803D01*
X18327197Y59508541D01*
X18333997Y59507397D01*
X18602391Y59507397D01*
X18867397Y59242391D01*
X18867397Y58973997D01*
X18868213Y58968234D01*
X18868059Y58962416D01*
X18870194Y58954213D01*
X18871378Y58945838D01*
X18873753Y58940534D01*
X18875222Y58934894D01*
X18879550Y58927600D01*
X18883006Y58919884D01*
X18886763Y58915444D01*
X18889734Y58910434D01*
X18895909Y58904631D01*
X18901372Y58898172D01*
X18906209Y58894947D01*
X18910456Y58890956D01*
X18918003Y58887088D01*
X18925038Y58882400D01*
X18930578Y58880644D01*
X18935766Y58877984D01*
X18942569Y58876841D01*
X18952147Y58873803D01*
X18962197Y58873541D01*
X18968997Y58872397D01*
X19237391Y58872397D01*
X19502397Y58607391D01*
X19502397Y58338997D01*
X19503106Y58333984D01*
X19503059Y58332219D01*
X19503175Y58331781D01*
X19503059Y58327416D01*
X19505194Y58319213D01*
X19506378Y58310838D01*
X19508753Y58305534D01*
X19510222Y58299894D01*
X19514550Y58292600D01*
X19518006Y58284884D01*
X19521763Y58280444D01*
X19524734Y58275434D01*
X19530909Y58269631D01*
X19536372Y58263172D01*
X19541209Y58259947D01*
X19545456Y58255956D01*
X19553003Y58252088D01*
X19560038Y58247400D01*
X19565578Y58245644D01*
X19570766Y58242984D01*
X19577569Y58241841D01*
X19587147Y58238803D01*
X19597197Y58238541D01*
X19603997Y58237397D01*
X19872391Y58237397D01*
X20137397Y57972391D01*
X20137397Y57703997D01*
X20138213Y57698234D01*
X20138059Y57692416D01*
X20140194Y57684213D01*
X20141378Y57675838D01*
X20143753Y57670534D01*
X20145222Y57664894D01*
X20149550Y57657600D01*
X20153006Y57649884D01*
X20156763Y57645444D01*
X20159734Y57640434D01*
X20165909Y57634631D01*
X20171372Y57628172D01*
X20176209Y57624947D01*
X20180456Y57620956D01*
X20188003Y57617088D01*
X20195038Y57612400D01*
X20200578Y57610644D01*
X20205766Y57607984D01*
X20212569Y57606841D01*
X20222147Y57603803D01*
X20232197Y57603541D01*
X20238997Y57602397D01*
X20507391Y57602397D01*
X20772397Y57337391D01*
X20772397Y57068997D01*
X20773213Y57063234D01*
X20773059Y57057416D01*
X20775194Y57049213D01*
X20776378Y57040838D01*
X20778753Y57035534D01*
X20780222Y57029894D01*
X20784550Y57022600D01*
X20788006Y57014884D01*
X20791763Y57010444D01*
X20794734Y57005434D01*
X20800909Y56999631D01*
X20806372Y56993172D01*
X20811209Y56989947D01*
X20815456Y56985956D01*
X20823003Y56982088D01*
X20830038Y56977400D01*
X20835578Y56975644D01*
X20840766Y56972984D01*
X20847569Y56971841D01*
X20857147Y56968803D01*
X20867197Y56968541D01*
X20873997Y56967397D01*
X21142391Y56967397D01*
X21407397Y56702391D01*
X21407397Y56433997D01*
X21408213Y56428234D01*
X21408059Y56422416D01*
X21410194Y56414213D01*
X21411378Y56405838D01*
X21413753Y56400534D01*
X21415222Y56394894D01*
X21419550Y56387600D01*
X21423006Y56379884D01*
X21426763Y56375444D01*
X21429734Y56370434D01*
X21435909Y56364631D01*
X21441372Y56358172D01*
X21446209Y56354947D01*
X21450456Y56350956D01*
X21458003Y56347088D01*
X21465038Y56342400D01*
X21470578Y56340644D01*
X21475766Y56337984D01*
X21482569Y56336841D01*
X21492147Y56333803D01*
X21502197Y56333541D01*
X21508997Y56332397D01*
X21777391Y56332397D01*
X22042397Y56067391D01*
X22042397Y55798997D01*
X22043106Y55793984D01*
X22043059Y55792219D01*
X22043175Y55791781D01*
X22043059Y55787416D01*
X22045194Y55779213D01*
X22046378Y55770838D01*
X22048753Y55765534D01*
X22050222Y55759894D01*
X22054550Y55752600D01*
X22058006Y55744884D01*
X22061763Y55740444D01*
X22064734Y55735434D01*
X22070909Y55729631D01*
X22076372Y55723172D01*
X22081209Y55719947D01*
X22085456Y55715956D01*
X22093003Y55712088D01*
X22100038Y55707400D01*
X22105578Y55705644D01*
X22110766Y55702984D01*
X22117569Y55701841D01*
X22127147Y55698803D01*
X22137197Y55698541D01*
X22143997Y55697397D01*
X22412391Y55697397D01*
X22677397Y55432391D01*
X22677397Y55163997D01*
X22678213Y55158234D01*
X22678059Y55152416D01*
X22680194Y55144213D01*
X22681378Y55135838D01*
X22683753Y55130534D01*
X22685222Y55124894D01*
X22689550Y55117600D01*
X22693006Y55109884D01*
X22696763Y55105444D01*
X22699734Y55100434D01*
X22705909Y55094631D01*
X22711372Y55088172D01*
X22716209Y55084947D01*
X22720456Y55080956D01*
X22728003Y55077088D01*
X22735038Y55072400D01*
X22740578Y55070644D01*
X22745766Y55067984D01*
X22752569Y55066841D01*
X22762147Y55063803D01*
X22772197Y55063541D01*
X22778997Y55062397D01*
X23047391Y55062397D01*
X23312397Y54797391D01*
X23312397Y54422606D01*
X23047391Y54157600D01*
X22672606Y54157600D01*
G37*
%LPD*%
%LPC*%
G36*
X40814303Y71652000D02*
X40814303Y71652000D01*
X40373247Y71834691D01*
X40035691Y72172247D01*
X39853000Y72613303D01*
X39853000Y73090694D01*
X40035688Y73531744D01*
X40173003Y73669056D01*
X40174759Y73671391D01*
X40176988Y73673275D01*
X40183288Y73682728D01*
X40190100Y73691784D01*
X40191138Y73694509D01*
X40192759Y73696941D01*
X40196191Y73707759D01*
X40200231Y73718359D01*
X40200475Y73721269D01*
X40201356Y73724050D01*
X40201653Y73735391D01*
X40202597Y73746700D01*
X40202025Y73749563D01*
X40202100Y73752481D01*
X40199241Y73763469D01*
X40197016Y73774584D01*
X40195675Y73777172D01*
X40194938Y73780003D01*
X40189138Y73789778D01*
X40183925Y73799831D01*
X40181919Y73801947D01*
X40180425Y73804463D01*
X40172156Y73812234D01*
X40164350Y73820463D01*
X40161831Y73821941D01*
X40159703Y73823941D01*
X40149591Y73829122D01*
X40139822Y73834856D01*
X40137000Y73835575D01*
X40134394Y73836913D01*
X40126697Y73838206D01*
X40112266Y73841891D01*
X40105947Y73841697D01*
X40101163Y73842500D01*
X39817506Y73842500D01*
X39552500Y74107506D01*
X39552500Y74482291D01*
X39817506Y74747297D01*
X40192291Y74747297D01*
X40457297Y74482291D01*
X40457297Y74102919D01*
X40454166Y74098756D01*
X40451103Y74090722D01*
X40447169Y74083091D01*
X40446066Y74077509D01*
X40444034Y74072181D01*
X40443319Y74063613D01*
X40441653Y74055191D01*
X40442141Y74049516D01*
X40441666Y74043841D01*
X40443350Y74035425D01*
X40444084Y74026856D01*
X40446128Y74021534D01*
X40447244Y74015956D01*
X40451200Y74008325D01*
X40454278Y74000306D01*
X40457706Y73995772D01*
X40460331Y73990706D01*
X40466253Y73984466D01*
X40471428Y73977619D01*
X40475988Y73974206D01*
X40479906Y73970075D01*
X40487309Y73965728D01*
X40494194Y73960575D01*
X40499528Y73958556D01*
X40504431Y73955678D01*
X40512747Y73953553D01*
X40520794Y73950509D01*
X40526472Y73950050D01*
X40531988Y73948641D01*
X40540581Y73948906D01*
X40549141Y73948213D01*
X40553953Y73949319D01*
X40560413Y73949519D01*
X40574378Y73954016D01*
X40581981Y73955766D01*
X40814303Y74051997D01*
X41291694Y74051997D01*
X41732750Y73869306D01*
X42070306Y73531750D01*
X42252997Y73090694D01*
X42252997Y72613303D01*
X42070306Y72172247D01*
X41732750Y71834691D01*
X41291694Y71652000D01*
X40814303Y71652000D01*
G37*
%LPD*%
%LPC*%
G36*
X5845106Y52887600D02*
X5845106Y52887600D01*
X5580100Y53152606D01*
X5580100Y53363450D01*
X5579691Y53366341D01*
X5579934Y53369250D01*
X5577706Y53380388D01*
X5576119Y53391609D01*
X5574928Y53394269D01*
X5574353Y53397138D01*
X5569119Y53407231D01*
X5564491Y53417563D01*
X5562609Y53419788D01*
X5561263Y53422384D01*
X5553444Y53430622D01*
X5546125Y53439275D01*
X5543694Y53440894D01*
X5541684Y53443013D01*
X5531897Y53448756D01*
X5522459Y53455047D01*
X5519678Y53455928D01*
X5517156Y53457409D01*
X5506163Y53460216D01*
X5495350Y53463644D01*
X5492425Y53463719D01*
X5489603Y53464441D01*
X5478269Y53464091D01*
X5466919Y53464388D01*
X5464094Y53463653D01*
X5461175Y53463563D01*
X5450384Y53460084D01*
X5439397Y53457225D01*
X5436878Y53455731D01*
X5434106Y53454838D01*
X5427778Y53450331D01*
X5414938Y53442713D01*
X5410603Y53438100D01*
X5406656Y53435291D01*
X5223159Y53251791D01*
X4929128Y53130000D01*
X4610869Y53130000D01*
X4316831Y53251794D01*
X4091794Y53476831D01*
X3970000Y53770869D01*
X3970000Y54089128D01*
X4091794Y54383166D01*
X4316831Y54608203D01*
X4610869Y54729997D01*
X4929128Y54729997D01*
X5223166Y54608203D01*
X5448203Y54383166D01*
X5569997Y54089128D01*
X5569997Y53762566D01*
X5570406Y53759675D01*
X5570163Y53756766D01*
X5572397Y53745594D01*
X5573978Y53734406D01*
X5575169Y53731747D01*
X5575744Y53728878D01*
X5580969Y53718803D01*
X5585606Y53708453D01*
X5587494Y53706222D01*
X5588838Y53703631D01*
X5596638Y53695413D01*
X5603972Y53686741D01*
X5606403Y53685119D01*
X5608413Y53683003D01*
X5618200Y53677259D01*
X5627638Y53670969D01*
X5630419Y53670088D01*
X5632941Y53668606D01*
X5643928Y53665803D01*
X5654747Y53662372D01*
X5657675Y53662294D01*
X5660497Y53661575D01*
X5671828Y53661925D01*
X5683178Y53661628D01*
X5686000Y53662363D01*
X5688922Y53662453D01*
X5699713Y53665931D01*
X5710700Y53668791D01*
X5713219Y53670284D01*
X5715991Y53671178D01*
X5722319Y53675684D01*
X5735159Y53683303D01*
X5739494Y53687916D01*
X5743441Y53690725D01*
X5845109Y53792397D01*
X6113500Y53792397D01*
X6119263Y53793213D01*
X6125081Y53793059D01*
X6133284Y53795194D01*
X6141659Y53796378D01*
X6146963Y53798753D01*
X6152603Y53800222D01*
X6159897Y53804550D01*
X6167613Y53808006D01*
X6172053Y53811763D01*
X6177063Y53814734D01*
X6182866Y53820909D01*
X6189325Y53826372D01*
X6192550Y53831209D01*
X6196541Y53835456D01*
X6200409Y53843003D01*
X6205097Y53850038D01*
X6206853Y53855578D01*
X6209513Y53860766D01*
X6210656Y53867569D01*
X6213694Y53877147D01*
X6213956Y53887197D01*
X6215100Y53893997D01*
X6215100Y54162391D01*
X6480106Y54427397D01*
X6854891Y54427397D01*
X7119897Y54162391D01*
X7119897Y53787606D01*
X6854891Y53522600D01*
X6586497Y53522600D01*
X6580734Y53521784D01*
X6574916Y53521938D01*
X6566713Y53519803D01*
X6558338Y53518619D01*
X6553034Y53516244D01*
X6547394Y53514775D01*
X6540100Y53510447D01*
X6532384Y53506991D01*
X6527944Y53503234D01*
X6522934Y53500263D01*
X6517131Y53494088D01*
X6510672Y53488625D01*
X6507447Y53483788D01*
X6503456Y53479541D01*
X6499588Y53471994D01*
X6494900Y53464959D01*
X6493144Y53459419D01*
X6490484Y53454231D01*
X6489341Y53447428D01*
X6486303Y53437850D01*
X6486041Y53427800D01*
X6484897Y53421000D01*
X6484897Y53152606D01*
X6219891Y52887600D01*
X5845106Y52887600D01*
G37*
%LPD*%
%LPC*%
G36*
X29975106Y46855100D02*
X29975106Y46855100D01*
X29710100Y47120106D01*
X29710100Y47494891D01*
X29975106Y47759897D01*
X30243500Y47759897D01*
X30249263Y47760713D01*
X30255081Y47760559D01*
X30263284Y47762694D01*
X30271659Y47763878D01*
X30276963Y47766253D01*
X30282603Y47767722D01*
X30289897Y47772050D01*
X30297613Y47775506D01*
X30302053Y47779263D01*
X30307063Y47782234D01*
X30312866Y47788409D01*
X30319325Y47793872D01*
X30322550Y47798709D01*
X30326541Y47802956D01*
X30330409Y47810503D01*
X30335097Y47817538D01*
X30336853Y47823078D01*
X30339513Y47828266D01*
X30340656Y47835069D01*
X30343694Y47844647D01*
X30343956Y47854697D01*
X30345100Y47861497D01*
X30345100Y48129891D01*
X30610106Y48394897D01*
X30984891Y48394897D01*
X31249897Y48129891D01*
X31249897Y47861497D01*
X31250713Y47855734D01*
X31250559Y47849916D01*
X31252694Y47841713D01*
X31253878Y47833338D01*
X31256253Y47828034D01*
X31257722Y47822394D01*
X31262050Y47815100D01*
X31265506Y47807384D01*
X31269263Y47802944D01*
X31272234Y47797934D01*
X31278409Y47792131D01*
X31283872Y47785672D01*
X31288709Y47782447D01*
X31292956Y47778456D01*
X31300503Y47774588D01*
X31307538Y47769900D01*
X31313078Y47768144D01*
X31318266Y47765484D01*
X31325069Y47764341D01*
X31334647Y47761303D01*
X31344697Y47761041D01*
X31351497Y47759897D01*
X31513500Y47759897D01*
X31519263Y47760713D01*
X31525081Y47760559D01*
X31533284Y47762694D01*
X31541659Y47763878D01*
X31546963Y47766253D01*
X31552603Y47767722D01*
X31559897Y47772050D01*
X31567613Y47775506D01*
X31572053Y47779263D01*
X31577063Y47782234D01*
X31582866Y47788409D01*
X31589325Y47793872D01*
X31592550Y47798709D01*
X31596541Y47802956D01*
X31600409Y47810503D01*
X31605097Y47817538D01*
X31606853Y47823078D01*
X31609513Y47828266D01*
X31610656Y47835069D01*
X31613694Y47844647D01*
X31613956Y47854697D01*
X31615100Y47861497D01*
X31615100Y48129891D01*
X31880106Y48394897D01*
X32148500Y48394897D01*
X32154263Y48395713D01*
X32160081Y48395559D01*
X32168284Y48397694D01*
X32176659Y48398878D01*
X32181963Y48401253D01*
X32187603Y48402722D01*
X32194897Y48407050D01*
X32202613Y48410506D01*
X32207053Y48414263D01*
X32212063Y48417234D01*
X32217866Y48423409D01*
X32224325Y48428872D01*
X32227550Y48433709D01*
X32231541Y48437956D01*
X32235409Y48445503D01*
X32240097Y48452538D01*
X32241853Y48458078D01*
X32244513Y48463266D01*
X32245656Y48470069D01*
X32248694Y48479647D01*
X32248956Y48489697D01*
X32250100Y48496497D01*
X32250100Y48764891D01*
X32515106Y49029897D01*
X32889891Y49029897D01*
X33154897Y48764891D01*
X33154897Y48390106D01*
X32889891Y48125100D01*
X32621497Y48125100D01*
X32615734Y48124284D01*
X32609916Y48124438D01*
X32601713Y48122303D01*
X32593338Y48121119D01*
X32588034Y48118744D01*
X32582394Y48117275D01*
X32575100Y48112947D01*
X32567384Y48109491D01*
X32562944Y48105734D01*
X32557934Y48102763D01*
X32552131Y48096588D01*
X32545672Y48091125D01*
X32542447Y48086288D01*
X32538456Y48082041D01*
X32534588Y48074494D01*
X32529900Y48067459D01*
X32528144Y48061919D01*
X32525484Y48056731D01*
X32524341Y48049928D01*
X32521303Y48040350D01*
X32521041Y48030300D01*
X32519897Y48023500D01*
X32519897Y47755106D01*
X32254891Y47490100D01*
X31986497Y47490100D01*
X31980734Y47489284D01*
X31974916Y47489438D01*
X31966713Y47487303D01*
X31958338Y47486119D01*
X31953034Y47483744D01*
X31947394Y47482275D01*
X31940100Y47477947D01*
X31932384Y47474491D01*
X31927944Y47470734D01*
X31922934Y47467763D01*
X31917131Y47461588D01*
X31910672Y47456125D01*
X31907447Y47451288D01*
X31903456Y47447041D01*
X31899588Y47439494D01*
X31894900Y47432459D01*
X31893144Y47426919D01*
X31890484Y47421731D01*
X31889341Y47414928D01*
X31886303Y47405350D01*
X31886041Y47395300D01*
X31884897Y47388500D01*
X31884897Y47120106D01*
X31619891Y46855100D01*
X31245106Y46855100D01*
X30980100Y47120106D01*
X30980100Y47388500D01*
X30979284Y47394263D01*
X30979438Y47400081D01*
X30977303Y47408284D01*
X30976119Y47416659D01*
X30973744Y47421963D01*
X30972275Y47427603D01*
X30967947Y47434897D01*
X30964491Y47442613D01*
X30960734Y47447053D01*
X30957763Y47452063D01*
X30951588Y47457866D01*
X30946125Y47464325D01*
X30941288Y47467550D01*
X30937041Y47471541D01*
X30929494Y47475409D01*
X30922459Y47480097D01*
X30916919Y47481853D01*
X30911731Y47484513D01*
X30904928Y47485656D01*
X30895350Y47488694D01*
X30885300Y47488956D01*
X30878500Y47490100D01*
X30716497Y47490100D01*
X30710734Y47489284D01*
X30704916Y47489438D01*
X30696713Y47487303D01*
X30688338Y47486119D01*
X30683034Y47483744D01*
X30677394Y47482275D01*
X30670100Y47477947D01*
X30662384Y47474491D01*
X30657944Y47470734D01*
X30652934Y47467763D01*
X30647131Y47461588D01*
X30640672Y47456125D01*
X30637447Y47451288D01*
X30633456Y47447041D01*
X30629588Y47439494D01*
X30624900Y47432459D01*
X30623144Y47426919D01*
X30620484Y47421731D01*
X30619341Y47414928D01*
X30616303Y47405350D01*
X30616041Y47395300D01*
X30614897Y47388500D01*
X30614897Y47120106D01*
X30349891Y46855100D01*
X29975106Y46855100D01*
G37*
%LPD*%
%LPC*%
G36*
X15370106Y69715100D02*
X15370106Y69715100D01*
X15105100Y69980106D01*
X15105100Y70354891D01*
X15322119Y70571909D01*
X15325613Y70576553D01*
X15329841Y70580566D01*
X15334125Y70587866D01*
X15339219Y70594634D01*
X15341294Y70600078D01*
X15344238Y70605094D01*
X15346325Y70613278D01*
X15349347Y70621209D01*
X15349831Y70627016D01*
X15351269Y70632647D01*
X15351006Y70641103D01*
X15351713Y70649550D01*
X15350572Y70655256D01*
X15350391Y70661075D01*
X15347794Y70669134D01*
X15346131Y70677438D01*
X15343450Y70682609D01*
X15341666Y70688144D01*
X15337672Y70693753D01*
X15333041Y70702684D01*
X15326116Y70709981D01*
X15322119Y70715594D01*
X15105100Y70932609D01*
X15105100Y71307391D01*
X15322119Y71524409D01*
X15325613Y71529053D01*
X15329841Y71533066D01*
X15334125Y71540366D01*
X15339219Y71547134D01*
X15341294Y71552578D01*
X15344238Y71557594D01*
X15346331Y71565794D01*
X15349347Y71573709D01*
X15349831Y71579516D01*
X15351269Y71585147D01*
X15351006Y71593603D01*
X15351713Y71602050D01*
X15350572Y71607756D01*
X15350391Y71613575D01*
X15347794Y71621634D01*
X15346131Y71629938D01*
X15343450Y71635109D01*
X15341666Y71640644D01*
X15337672Y71646253D01*
X15333041Y71655184D01*
X15326116Y71662481D01*
X15322119Y71668094D01*
X15105100Y71885109D01*
X15105100Y72259888D01*
X15322119Y72476903D01*
X15325619Y72481553D01*
X15329841Y72485563D01*
X15334134Y72492875D01*
X15339216Y72499631D01*
X15341284Y72505056D01*
X15344238Y72510088D01*
X15346334Y72518303D01*
X15349347Y72526206D01*
X15349831Y72532009D01*
X15351269Y72537644D01*
X15351006Y72546100D01*
X15351713Y72554547D01*
X15350569Y72560253D01*
X15350391Y72566069D01*
X15347794Y72574125D01*
X15346131Y72582431D01*
X15343450Y72587603D01*
X15341666Y72593138D01*
X15337672Y72598747D01*
X15333041Y72607678D01*
X15326113Y72614978D01*
X15322119Y72620588D01*
X15105100Y72837606D01*
X15105100Y73212391D01*
X15370106Y73477397D01*
X15744891Y73477397D01*
X16009897Y73212391D01*
X16009897Y72837606D01*
X15792878Y72620588D01*
X15789384Y72615944D01*
X15785156Y72611931D01*
X15780872Y72604631D01*
X15775778Y72597863D01*
X15773703Y72592419D01*
X15770759Y72587403D01*
X15768666Y72579203D01*
X15765650Y72571288D01*
X15765166Y72565481D01*
X15763728Y72559850D01*
X15763991Y72551394D01*
X15763284Y72542947D01*
X15764425Y72537241D01*
X15764606Y72531422D01*
X15767203Y72523363D01*
X15768866Y72515059D01*
X15771547Y72509888D01*
X15773331Y72504353D01*
X15777325Y72498744D01*
X15781956Y72489813D01*
X15788881Y72482516D01*
X15792878Y72476903D01*
X16009897Y72259888D01*
X16009897Y71885109D01*
X15792878Y71668094D01*
X15789378Y71663444D01*
X15785156Y71659434D01*
X15780863Y71652122D01*
X15775781Y71645366D01*
X15773713Y71639941D01*
X15770759Y71634909D01*
X15768663Y71626694D01*
X15765650Y71618791D01*
X15765166Y71612988D01*
X15763728Y71607353D01*
X15763991Y71598897D01*
X15763284Y71590450D01*
X15764428Y71584744D01*
X15764606Y71578928D01*
X15767203Y71570872D01*
X15768866Y71562566D01*
X15771550Y71557388D01*
X15773331Y71551859D01*
X15777325Y71546250D01*
X15781956Y71537319D01*
X15788884Y71530019D01*
X15792878Y71524409D01*
X16009897Y71307391D01*
X16009897Y70932609D01*
X15792878Y70715594D01*
X15789378Y70710944D01*
X15785156Y70706934D01*
X15780863Y70699622D01*
X15775781Y70692866D01*
X15773713Y70687441D01*
X15770759Y70682409D01*
X15768663Y70674194D01*
X15765650Y70666291D01*
X15765166Y70660488D01*
X15763728Y70654853D01*
X15763991Y70646397D01*
X15763284Y70637950D01*
X15764428Y70632244D01*
X15764606Y70626428D01*
X15767203Y70618372D01*
X15768866Y70610066D01*
X15771550Y70604888D01*
X15773331Y70599359D01*
X15777325Y70593750D01*
X15781956Y70584819D01*
X15788884Y70577519D01*
X15792878Y70571909D01*
X16009897Y70354891D01*
X16009897Y69980106D01*
X15744891Y69715100D01*
X15370106Y69715100D01*
G37*
%LPD*%
%LPC*%
G36*
X49977606Y54475100D02*
X49977606Y54475100D01*
X49712600Y54740106D01*
X49712600Y55114891D01*
X49929619Y55331909D01*
X49933113Y55336553D01*
X49937341Y55340566D01*
X49941625Y55347866D01*
X49946719Y55354634D01*
X49948794Y55360078D01*
X49951738Y55365094D01*
X49953831Y55373294D01*
X49956847Y55381209D01*
X49957331Y55387016D01*
X49958769Y55392647D01*
X49958506Y55401103D01*
X49959213Y55409550D01*
X49958072Y55415256D01*
X49957891Y55421075D01*
X49955294Y55429134D01*
X49953631Y55437438D01*
X49950950Y55442609D01*
X49949166Y55448144D01*
X49945172Y55453753D01*
X49940541Y55462684D01*
X49933616Y55469981D01*
X49929619Y55475594D01*
X49712600Y55692609D01*
X49712600Y56067391D01*
X49929619Y56284409D01*
X49933113Y56289053D01*
X49937341Y56293066D01*
X49941625Y56300366D01*
X49946719Y56307134D01*
X49948794Y56312578D01*
X49951738Y56317594D01*
X49953831Y56325794D01*
X49956847Y56333709D01*
X49957331Y56339516D01*
X49958769Y56345147D01*
X49958506Y56353603D01*
X49959213Y56362050D01*
X49958072Y56367756D01*
X49957891Y56373575D01*
X49955294Y56381634D01*
X49953631Y56389938D01*
X49950950Y56395109D01*
X49949166Y56400644D01*
X49945172Y56406253D01*
X49940541Y56415184D01*
X49933616Y56422481D01*
X49929619Y56428094D01*
X49712600Y56645109D01*
X49712600Y57019891D01*
X49929619Y57236909D01*
X49933113Y57241553D01*
X49937341Y57245566D01*
X49941625Y57252866D01*
X49946719Y57259634D01*
X49948794Y57265078D01*
X49951738Y57270094D01*
X49953831Y57278294D01*
X49956847Y57286209D01*
X49957331Y57292016D01*
X49958769Y57297647D01*
X49958506Y57306103D01*
X49959213Y57314550D01*
X49958072Y57320256D01*
X49957891Y57326075D01*
X49955294Y57334134D01*
X49953631Y57342438D01*
X49950950Y57347609D01*
X49949166Y57353144D01*
X49945172Y57358753D01*
X49940541Y57367684D01*
X49933616Y57374981D01*
X49929619Y57380594D01*
X49712600Y57597609D01*
X49712600Y57972391D01*
X49977606Y58237397D01*
X50352391Y58237397D01*
X50617397Y57972391D01*
X50617397Y57597609D01*
X50400378Y57380594D01*
X50396878Y57375944D01*
X50392656Y57371934D01*
X50388363Y57364622D01*
X50383281Y57357866D01*
X50381213Y57352441D01*
X50378259Y57347409D01*
X50376163Y57339194D01*
X50373150Y57331291D01*
X50372666Y57325488D01*
X50371228Y57319853D01*
X50371491Y57311397D01*
X50370784Y57302950D01*
X50371928Y57297244D01*
X50372106Y57291428D01*
X50374703Y57283372D01*
X50376366Y57275066D01*
X50379047Y57269894D01*
X50380831Y57264359D01*
X50384825Y57258750D01*
X50389456Y57249819D01*
X50396384Y57242519D01*
X50400378Y57236909D01*
X50617397Y57019891D01*
X50617397Y56645109D01*
X50400378Y56428094D01*
X50396878Y56423444D01*
X50392656Y56419434D01*
X50388363Y56412122D01*
X50383281Y56405366D01*
X50381213Y56399941D01*
X50378259Y56394909D01*
X50376163Y56386694D01*
X50373150Y56378791D01*
X50372666Y56372988D01*
X50371228Y56367353D01*
X50371491Y56358897D01*
X50370784Y56350450D01*
X50371928Y56344744D01*
X50372106Y56338928D01*
X50374703Y56330872D01*
X50376366Y56322566D01*
X50379050Y56317388D01*
X50380831Y56311859D01*
X50384825Y56306250D01*
X50389456Y56297319D01*
X50396384Y56290019D01*
X50400378Y56284409D01*
X50617397Y56067391D01*
X50617397Y55692609D01*
X50400378Y55475594D01*
X50396878Y55470944D01*
X50392656Y55466934D01*
X50388363Y55459622D01*
X50383281Y55452866D01*
X50381209Y55447434D01*
X50378259Y55442409D01*
X50376163Y55434194D01*
X50373150Y55426291D01*
X50372666Y55420488D01*
X50371228Y55414853D01*
X50371491Y55406397D01*
X50370784Y55397950D01*
X50371928Y55392244D01*
X50372106Y55386428D01*
X50374703Y55378372D01*
X50376366Y55370066D01*
X50379047Y55364894D01*
X50380831Y55359359D01*
X50384825Y55353750D01*
X50389456Y55344819D01*
X50396384Y55337519D01*
X50400378Y55331909D01*
X50617397Y55114891D01*
X50617397Y54740106D01*
X50352391Y54475100D01*
X49977606Y54475100D01*
G37*
%LPD*%
%LPC*%
G36*
X17592606Y50347600D02*
X17592606Y50347600D01*
X17327600Y50612606D01*
X17327600Y50987391D01*
X17592606Y51252397D01*
X17861000Y51252397D01*
X17866763Y51253213D01*
X17872581Y51253059D01*
X17880784Y51255194D01*
X17889159Y51256378D01*
X17894463Y51258753D01*
X17900103Y51260222D01*
X17907397Y51264550D01*
X17915113Y51268006D01*
X17919553Y51271763D01*
X17924563Y51274734D01*
X17930366Y51280909D01*
X17936825Y51286372D01*
X17940050Y51291209D01*
X17944041Y51295456D01*
X17947909Y51303003D01*
X17952597Y51310038D01*
X17954353Y51315578D01*
X17957013Y51320766D01*
X17958156Y51327569D01*
X17961194Y51337147D01*
X17961456Y51347197D01*
X17962600Y51353997D01*
X17962600Y51622391D01*
X18227606Y51887397D01*
X18496000Y51887397D01*
X18501763Y51888213D01*
X18507581Y51888059D01*
X18515784Y51890194D01*
X18524159Y51891378D01*
X18529463Y51893753D01*
X18535103Y51895222D01*
X18542397Y51899550D01*
X18550113Y51903006D01*
X18554553Y51906763D01*
X18559563Y51909734D01*
X18565366Y51915909D01*
X18571825Y51921372D01*
X18575050Y51926209D01*
X18579041Y51930456D01*
X18582909Y51938003D01*
X18587597Y51945038D01*
X18589353Y51950578D01*
X18592013Y51955766D01*
X18593156Y51962569D01*
X18596194Y51972147D01*
X18596456Y51982197D01*
X18597600Y51988997D01*
X18597600Y52257391D01*
X18862606Y52522397D01*
X19237391Y52522397D01*
X19502397Y52257391D01*
X19502397Y51988997D01*
X19503213Y51983234D01*
X19503059Y51977416D01*
X19505194Y51969213D01*
X19506378Y51960838D01*
X19508753Y51955534D01*
X19510222Y51949894D01*
X19514550Y51942600D01*
X19518006Y51934884D01*
X19521763Y51930444D01*
X19524734Y51925434D01*
X19530909Y51919631D01*
X19536372Y51913172D01*
X19541209Y51909947D01*
X19545456Y51905956D01*
X19553003Y51902088D01*
X19560038Y51897400D01*
X19565578Y51895644D01*
X19570766Y51892984D01*
X19577569Y51891841D01*
X19587147Y51888803D01*
X19597197Y51888541D01*
X19603997Y51887397D01*
X19872391Y51887397D01*
X20137397Y51622391D01*
X20137397Y51247606D01*
X19872391Y50982600D01*
X19497606Y50982600D01*
X19232600Y51247606D01*
X19232600Y51516000D01*
X19231784Y51521763D01*
X19231938Y51527581D01*
X19229803Y51535784D01*
X19228619Y51544159D01*
X19226244Y51549463D01*
X19224775Y51555103D01*
X19220447Y51562397D01*
X19216991Y51570113D01*
X19213234Y51574553D01*
X19210263Y51579563D01*
X19204088Y51585366D01*
X19198625Y51591825D01*
X19193788Y51595050D01*
X19189541Y51599041D01*
X19181994Y51602909D01*
X19174959Y51607597D01*
X19169419Y51609353D01*
X19164231Y51612013D01*
X19157428Y51613156D01*
X19147850Y51616194D01*
X19137800Y51616456D01*
X19131000Y51617600D01*
X18968997Y51617600D01*
X18963234Y51616784D01*
X18957416Y51616938D01*
X18949213Y51614803D01*
X18940838Y51613619D01*
X18935534Y51611244D01*
X18929894Y51609775D01*
X18922600Y51605447D01*
X18914884Y51601991D01*
X18910444Y51598234D01*
X18905434Y51595263D01*
X18899631Y51589088D01*
X18893172Y51583625D01*
X18889947Y51578788D01*
X18885956Y51574541D01*
X18882088Y51566994D01*
X18877400Y51559959D01*
X18875644Y51554419D01*
X18872984Y51549231D01*
X18871841Y51542428D01*
X18868803Y51532850D01*
X18868541Y51522800D01*
X18867397Y51516000D01*
X18867397Y51247606D01*
X18602391Y50982600D01*
X18333997Y50982600D01*
X18328234Y50981784D01*
X18322416Y50981938D01*
X18314213Y50979803D01*
X18305838Y50978619D01*
X18300534Y50976244D01*
X18294894Y50974775D01*
X18287600Y50970447D01*
X18279884Y50966991D01*
X18275444Y50963234D01*
X18270434Y50960263D01*
X18264631Y50954088D01*
X18258172Y50948625D01*
X18254947Y50943788D01*
X18250956Y50939541D01*
X18247088Y50931994D01*
X18242400Y50924959D01*
X18240644Y50919419D01*
X18237984Y50914231D01*
X18236841Y50907428D01*
X18233803Y50897850D01*
X18233541Y50887800D01*
X18232397Y50881000D01*
X18232397Y50612606D01*
X17967391Y50347600D01*
X17592606Y50347600D01*
G37*
%LPD*%
%LPC*%
G36*
X27435106Y56062600D02*
X27435106Y56062600D01*
X27170100Y56327606D01*
X27170100Y56702391D01*
X27435106Y56967397D01*
X27703500Y56967397D01*
X27709263Y56968213D01*
X27715081Y56968059D01*
X27723284Y56970194D01*
X27731659Y56971378D01*
X27736963Y56973753D01*
X27742603Y56975222D01*
X27749897Y56979550D01*
X27757613Y56983006D01*
X27762053Y56986763D01*
X27767063Y56989734D01*
X27772866Y56995909D01*
X27779325Y57001372D01*
X27782550Y57006209D01*
X27786541Y57010456D01*
X27790409Y57018003D01*
X27795097Y57025038D01*
X27796853Y57030578D01*
X27799513Y57035766D01*
X27800656Y57042569D01*
X27803694Y57052147D01*
X27803956Y57062197D01*
X27805100Y57068997D01*
X27805100Y57231000D01*
X27804391Y57236013D01*
X27804438Y57237781D01*
X27804322Y57238219D01*
X27804438Y57242581D01*
X27802303Y57250784D01*
X27801119Y57259159D01*
X27798744Y57264463D01*
X27797275Y57270103D01*
X27792947Y57277397D01*
X27789491Y57285113D01*
X27785734Y57289553D01*
X27782763Y57294563D01*
X27776588Y57300366D01*
X27771125Y57306825D01*
X27766288Y57310050D01*
X27762041Y57314041D01*
X27754494Y57317909D01*
X27747459Y57322597D01*
X27741919Y57324353D01*
X27736731Y57327013D01*
X27729928Y57328156D01*
X27720350Y57331194D01*
X27710300Y57331456D01*
X27703500Y57332600D01*
X27435106Y57332600D01*
X27170100Y57597606D01*
X27170100Y57972391D01*
X27435106Y58237397D01*
X27703500Y58237397D01*
X27709263Y58238213D01*
X27715081Y58238059D01*
X27723284Y58240194D01*
X27731659Y58241378D01*
X27736963Y58243753D01*
X27742603Y58245222D01*
X27749897Y58249550D01*
X27757613Y58253006D01*
X27762053Y58256763D01*
X27767063Y58259734D01*
X27772866Y58265909D01*
X27779325Y58271372D01*
X27782550Y58276209D01*
X27786541Y58280456D01*
X27790409Y58288003D01*
X27795097Y58295038D01*
X27796853Y58300578D01*
X27799513Y58305766D01*
X27800656Y58312569D01*
X27803694Y58322147D01*
X27803956Y58332197D01*
X27805100Y58338997D01*
X27805100Y58607391D01*
X28070106Y58872397D01*
X28444891Y58872397D01*
X28709897Y58607391D01*
X28709897Y58232606D01*
X28444891Y57967600D01*
X28176497Y57967600D01*
X28170734Y57966784D01*
X28164916Y57966938D01*
X28156713Y57964803D01*
X28148338Y57963619D01*
X28143034Y57961244D01*
X28137394Y57959775D01*
X28130100Y57955447D01*
X28122384Y57951991D01*
X28117944Y57948234D01*
X28112934Y57945263D01*
X28107131Y57939088D01*
X28100672Y57933625D01*
X28097447Y57928788D01*
X28093456Y57924541D01*
X28089588Y57916994D01*
X28084900Y57909959D01*
X28083144Y57904419D01*
X28080484Y57899231D01*
X28079341Y57892428D01*
X28076303Y57882850D01*
X28076041Y57872800D01*
X28074897Y57866000D01*
X28074897Y57703997D01*
X28075713Y57698234D01*
X28075559Y57692416D01*
X28077694Y57684213D01*
X28078878Y57675838D01*
X28081253Y57670534D01*
X28082722Y57664894D01*
X28087050Y57657600D01*
X28090506Y57649884D01*
X28094263Y57645444D01*
X28097234Y57640434D01*
X28103409Y57634631D01*
X28108872Y57628172D01*
X28113709Y57624947D01*
X28117956Y57620956D01*
X28125503Y57617088D01*
X28132538Y57612400D01*
X28138078Y57610644D01*
X28143266Y57607984D01*
X28150069Y57606841D01*
X28159647Y57603803D01*
X28169697Y57603541D01*
X28176497Y57602397D01*
X28444891Y57602397D01*
X28709897Y57337391D01*
X28709897Y56962606D01*
X28444891Y56697600D01*
X28176497Y56697600D01*
X28170734Y56696784D01*
X28164916Y56696938D01*
X28156713Y56694803D01*
X28148338Y56693619D01*
X28143034Y56691244D01*
X28137394Y56689775D01*
X28130100Y56685447D01*
X28122384Y56681991D01*
X28117944Y56678234D01*
X28112934Y56675263D01*
X28107131Y56669088D01*
X28100672Y56663625D01*
X28097447Y56658788D01*
X28093456Y56654541D01*
X28089588Y56646994D01*
X28084900Y56639959D01*
X28083144Y56634419D01*
X28080484Y56629231D01*
X28079341Y56622428D01*
X28076303Y56612850D01*
X28076041Y56602800D01*
X28074897Y56596000D01*
X28074897Y56327606D01*
X27809891Y56062600D01*
X27435106Y56062600D01*
G37*
%LPD*%
%LPC*%
G36*
X50534331Y68692000D02*
X50534331Y68692000D01*
X50218975Y68822625D01*
X49977625Y69063975D01*
X49847000Y69379331D01*
X49847000Y69720666D01*
X49977625Y70036022D01*
X50218975Y70277372D01*
X50534331Y70407997D01*
X50875666Y70407997D01*
X51191022Y70277372D01*
X51432372Y70036022D01*
X51562997Y69720666D01*
X51562997Y69379331D01*
X51432372Y69063975D01*
X51191022Y68822625D01*
X50875666Y68692000D01*
X50534331Y68692000D01*
G37*
%LPD*%
%LPC*%
G36*
X45454331Y68692000D02*
X45454331Y68692000D01*
X45138975Y68822625D01*
X44897625Y69063975D01*
X44767000Y69379331D01*
X44767000Y69720666D01*
X44897625Y70036022D01*
X45138975Y70277372D01*
X45454331Y70407997D01*
X45795666Y70407997D01*
X46111022Y70277372D01*
X46352372Y70036022D01*
X46482997Y69720666D01*
X46482997Y69379331D01*
X46352372Y69063975D01*
X46111022Y68822625D01*
X45795666Y68692000D01*
X45454331Y68692000D01*
G37*
%LPD*%
%LPC*%
G36*
X53074331Y68692000D02*
X53074331Y68692000D01*
X52758975Y68822625D01*
X52517625Y69063975D01*
X52387000Y69379331D01*
X52387000Y69720666D01*
X52517625Y70036022D01*
X52758975Y70277372D01*
X53074331Y70407997D01*
X53415666Y70407997D01*
X53731022Y70277372D01*
X53972372Y70036022D01*
X54102997Y69720666D01*
X54102997Y69379331D01*
X53972372Y69063975D01*
X53731022Y68822625D01*
X53415666Y68692000D01*
X53074331Y68692000D01*
G37*
%LPD*%
%LPC*%
G36*
X52718731Y79106000D02*
X52718731Y79106000D01*
X52403375Y79236625D01*
X52162025Y79477975D01*
X52031400Y79793331D01*
X52031400Y80134666D01*
X52162025Y80450022D01*
X52403375Y80691372D01*
X52718731Y80821997D01*
X53060066Y80821997D01*
X53375422Y80691372D01*
X53616772Y80450022D01*
X53747397Y80134666D01*
X53747397Y79793331D01*
X53616772Y79477975D01*
X53375422Y79236625D01*
X53060066Y79106000D01*
X52718731Y79106000D01*
G37*
%LPD*%
%LPC*%
G36*
X41999931Y79106000D02*
X41999931Y79106000D01*
X41684575Y79236625D01*
X41443225Y79477975D01*
X41312600Y79793331D01*
X41312600Y80134666D01*
X41443225Y80450022D01*
X41684575Y80691372D01*
X41999931Y80821997D01*
X42341266Y80821997D01*
X42656622Y80691372D01*
X42897972Y80450022D01*
X43028597Y80134666D01*
X43028597Y79793331D01*
X42897972Y79477975D01*
X42656622Y79236625D01*
X42341266Y79106000D01*
X41999931Y79106000D01*
G37*
%LPD*%
%LPC*%
G36*
X55258731Y79106000D02*
X55258731Y79106000D01*
X54943375Y79236625D01*
X54702025Y79477975D01*
X54571400Y79793331D01*
X54571400Y80134666D01*
X54702025Y80450022D01*
X54943375Y80691372D01*
X55258731Y80821997D01*
X55600066Y80821997D01*
X55915422Y80691372D01*
X56156772Y80450022D01*
X56287397Y80134666D01*
X56287397Y79793331D01*
X56156772Y79477975D01*
X55915422Y79236625D01*
X55600066Y79106000D01*
X55258731Y79106000D01*
G37*
%LPD*%
%LPC*%
G36*
X44539931Y79106000D02*
X44539931Y79106000D01*
X44224575Y79236625D01*
X43983225Y79477975D01*
X43852600Y79793331D01*
X43852600Y80134666D01*
X43983225Y80450022D01*
X44224575Y80691372D01*
X44539931Y80821997D01*
X44881266Y80821997D01*
X45196622Y80691372D01*
X45437972Y80450022D01*
X45568597Y80134666D01*
X45568597Y79793331D01*
X45437972Y79477975D01*
X45196622Y79236625D01*
X44881266Y79106000D01*
X44539931Y79106000D01*
G37*
%LPD*%
%LPC*%
G36*
X44184331Y66152000D02*
X44184331Y66152000D01*
X43868975Y66282625D01*
X43627625Y66523975D01*
X43497000Y66839331D01*
X43497000Y67180666D01*
X43627625Y67496022D01*
X43868975Y67737372D01*
X44184331Y67867997D01*
X44525666Y67867997D01*
X44841022Y67737372D01*
X45082372Y67496022D01*
X45212997Y67180666D01*
X45212997Y66839331D01*
X45082372Y66523975D01*
X44841022Y66282625D01*
X44525666Y66152000D01*
X44184331Y66152000D01*
G37*
%LPD*%
%LPC*%
G36*
X46724331Y66152000D02*
X46724331Y66152000D01*
X46408975Y66282625D01*
X46167625Y66523975D01*
X46037000Y66839331D01*
X46037000Y67180666D01*
X46167625Y67496022D01*
X46408975Y67737372D01*
X46724331Y67867997D01*
X47065666Y67867997D01*
X47381022Y67737372D01*
X47622372Y67496022D01*
X47752997Y67180666D01*
X47752997Y66839331D01*
X47622372Y66523975D01*
X47381022Y66282625D01*
X47065666Y66152000D01*
X46724331Y66152000D01*
G37*
%LPD*%
%LPC*%
G36*
X49264331Y66152000D02*
X49264331Y66152000D01*
X48948975Y66282625D01*
X48707625Y66523975D01*
X48577000Y66839331D01*
X48577000Y67180666D01*
X48707625Y67496022D01*
X48948975Y67737372D01*
X49264331Y67867997D01*
X49605666Y67867997D01*
X49921022Y67737372D01*
X50162372Y67496022D01*
X50292997Y67180666D01*
X50292997Y66839331D01*
X50162372Y66523975D01*
X49921022Y66282625D01*
X49605666Y66152000D01*
X49264331Y66152000D01*
G37*
%LPD*%
%LPC*%
G36*
X25212606Y47172600D02*
X25212606Y47172600D01*
X24947600Y47437606D01*
X24947600Y47812388D01*
X25086872Y47951656D01*
X25088628Y47953991D01*
X25090856Y47955875D01*
X25097156Y47965328D01*
X25103969Y47974384D01*
X25105006Y47977109D01*
X25106628Y47979541D01*
X25110059Y47990359D01*
X25114100Y48000959D01*
X25114344Y48003869D01*
X25115225Y48006650D01*
X25115522Y48017991D01*
X25116466Y48029300D01*
X25115894Y48032163D01*
X25115969Y48035081D01*
X25113116Y48046041D01*
X25110884Y48057184D01*
X25109544Y48059772D01*
X25108806Y48062603D01*
X25103006Y48072378D01*
X25097794Y48082431D01*
X25095788Y48084547D01*
X25094294Y48087063D01*
X25086025Y48094834D01*
X25078219Y48103063D01*
X25075700Y48104541D01*
X25073572Y48106541D01*
X25063459Y48111722D01*
X25053691Y48117456D01*
X25050869Y48118175D01*
X25048263Y48119513D01*
X25040566Y48120806D01*
X25026134Y48124491D01*
X25019816Y48124297D01*
X25015031Y48125100D01*
X24895106Y48125100D01*
X24678088Y48342119D01*
X24673444Y48345613D01*
X24669431Y48349841D01*
X24662131Y48354125D01*
X24655363Y48359219D01*
X24649919Y48361294D01*
X24644903Y48364238D01*
X24636703Y48366331D01*
X24628788Y48369347D01*
X24622981Y48369831D01*
X24617350Y48371269D01*
X24608894Y48371006D01*
X24600447Y48371713D01*
X24594741Y48370572D01*
X24588922Y48370391D01*
X24580863Y48367794D01*
X24572559Y48366131D01*
X24567388Y48363450D01*
X24561853Y48361666D01*
X24556244Y48357672D01*
X24547313Y48353041D01*
X24540016Y48346116D01*
X24534403Y48342119D01*
X24317388Y48125100D01*
X23942606Y48125100D01*
X23677600Y48390106D01*
X23677600Y48764891D01*
X23942606Y49029897D01*
X24317388Y49029897D01*
X24534403Y48812878D01*
X24539053Y48809378D01*
X24543063Y48805156D01*
X24550375Y48800863D01*
X24557131Y48795781D01*
X24562556Y48793713D01*
X24567588Y48790759D01*
X24575803Y48788663D01*
X24583706Y48785650D01*
X24589509Y48785166D01*
X24595144Y48783728D01*
X24603600Y48783991D01*
X24612047Y48783284D01*
X24617753Y48784428D01*
X24623569Y48784606D01*
X24631625Y48787203D01*
X24639931Y48788866D01*
X24645103Y48791547D01*
X24650638Y48793331D01*
X24656247Y48797325D01*
X24665178Y48801956D01*
X24672478Y48808884D01*
X24678088Y48812878D01*
X24895106Y49029897D01*
X25269891Y49029897D01*
X25534897Y48764891D01*
X25534897Y48390109D01*
X25395625Y48250841D01*
X25393869Y48248506D01*
X25391641Y48246622D01*
X25385341Y48237169D01*
X25378528Y48228113D01*
X25377491Y48225388D01*
X25375869Y48222956D01*
X25372438Y48212138D01*
X25368397Y48201538D01*
X25368153Y48198628D01*
X25367272Y48195847D01*
X25366975Y48184506D01*
X25366031Y48173197D01*
X25366603Y48170334D01*
X25366528Y48167416D01*
X25369388Y48156428D01*
X25371613Y48145313D01*
X25372953Y48142725D01*
X25373691Y48139894D01*
X25379491Y48130119D01*
X25384703Y48120066D01*
X25386709Y48117950D01*
X25388203Y48115434D01*
X25396472Y48107663D01*
X25404278Y48099434D01*
X25406797Y48097956D01*
X25408925Y48095956D01*
X25419038Y48090775D01*
X25428806Y48085041D01*
X25431628Y48084322D01*
X25434234Y48082984D01*
X25441931Y48081691D01*
X25456363Y48078006D01*
X25462681Y48078200D01*
X25467466Y48077397D01*
X25587391Y48077397D01*
X25852397Y47812391D01*
X25852397Y47437606D01*
X25587391Y47172600D01*
X25212606Y47172600D01*
G37*
%LPD*%
%LPC*%
G36*
X36960106Y54316400D02*
X36960106Y54316400D01*
X36695100Y54581406D01*
X36695100Y54956191D01*
X36912119Y55173209D01*
X36915613Y55177853D01*
X36919841Y55181866D01*
X36924125Y55189166D01*
X36929219Y55195934D01*
X36931294Y55201378D01*
X36934238Y55206394D01*
X36936331Y55214594D01*
X36939347Y55222509D01*
X36939831Y55228316D01*
X36941269Y55233947D01*
X36941006Y55242403D01*
X36941713Y55250850D01*
X36940572Y55256556D01*
X36940391Y55262375D01*
X36937794Y55270434D01*
X36936131Y55278738D01*
X36933450Y55283909D01*
X36931666Y55289444D01*
X36927672Y55295053D01*
X36923041Y55303984D01*
X36916116Y55311281D01*
X36912119Y55316894D01*
X36695100Y55533909D01*
X36695100Y55802300D01*
X36694284Y55808063D01*
X36694438Y55813881D01*
X36692303Y55822084D01*
X36691119Y55830459D01*
X36688744Y55835763D01*
X36687275Y55841403D01*
X36682947Y55848697D01*
X36679491Y55856413D01*
X36675734Y55860853D01*
X36672763Y55865863D01*
X36666588Y55871666D01*
X36661125Y55878125D01*
X36656288Y55881350D01*
X36652041Y55885341D01*
X36644494Y55889209D01*
X36637459Y55893897D01*
X36631919Y55895653D01*
X36626731Y55898313D01*
X36619928Y55899456D01*
X36610350Y55902494D01*
X36600300Y55902756D01*
X36593500Y55903900D01*
X36325106Y55903900D01*
X36060100Y56168906D01*
X36060100Y56543691D01*
X36325106Y56808697D01*
X36699891Y56808697D01*
X36964897Y56543691D01*
X36964897Y56275297D01*
X36965713Y56269534D01*
X36965559Y56263716D01*
X36967694Y56255513D01*
X36968878Y56247138D01*
X36971253Y56241834D01*
X36972722Y56236194D01*
X36977050Y56228900D01*
X36980506Y56221184D01*
X36984263Y56216744D01*
X36987234Y56211734D01*
X36993409Y56205931D01*
X36998872Y56199472D01*
X37003709Y56196247D01*
X37007956Y56192256D01*
X37015503Y56188388D01*
X37022538Y56183700D01*
X37028078Y56181944D01*
X37033266Y56179284D01*
X37040069Y56178141D01*
X37049647Y56175103D01*
X37059697Y56174841D01*
X37066497Y56173697D01*
X37334891Y56173697D01*
X37599897Y55908691D01*
X37599897Y55533909D01*
X37382878Y55316894D01*
X37379378Y55312244D01*
X37375156Y55308234D01*
X37370863Y55300922D01*
X37365781Y55294166D01*
X37363709Y55288734D01*
X37360759Y55283709D01*
X37358663Y55275494D01*
X37355650Y55267591D01*
X37355166Y55261788D01*
X37353728Y55256153D01*
X37353991Y55247697D01*
X37353284Y55239250D01*
X37354428Y55233544D01*
X37354606Y55227728D01*
X37357203Y55219672D01*
X37358866Y55211366D01*
X37361547Y55206194D01*
X37363331Y55200659D01*
X37367325Y55195050D01*
X37371956Y55186119D01*
X37378884Y55178819D01*
X37382878Y55173209D01*
X37599897Y54956191D01*
X37599897Y54581406D01*
X37334891Y54316400D01*
X36960106Y54316400D01*
G37*
%LPD*%
%LPC*%
G36*
X9655106Y57967600D02*
X9655106Y57967600D01*
X9390100Y58232606D01*
X9390100Y58607391D01*
X9655106Y58872397D01*
X9923500Y58872397D01*
X9929263Y58873213D01*
X9935081Y58873059D01*
X9943284Y58875194D01*
X9951659Y58876378D01*
X9956963Y58878753D01*
X9962603Y58880222D01*
X9969897Y58884550D01*
X9977613Y58888006D01*
X9982053Y58891763D01*
X9987063Y58894734D01*
X9992866Y58900909D01*
X9999325Y58906372D01*
X10002550Y58911209D01*
X10006541Y58915456D01*
X10010409Y58923003D01*
X10015097Y58930038D01*
X10016853Y58935578D01*
X10019513Y58940766D01*
X10020656Y58947569D01*
X10023694Y58957147D01*
X10023956Y58967197D01*
X10025100Y58973997D01*
X10025100Y59242391D01*
X10290106Y59507397D01*
X10558500Y59507397D01*
X10564263Y59508213D01*
X10570081Y59508059D01*
X10578284Y59510194D01*
X10586659Y59511378D01*
X10591963Y59513753D01*
X10597603Y59515222D01*
X10604897Y59519550D01*
X10612613Y59523006D01*
X10617053Y59526763D01*
X10622063Y59529734D01*
X10627866Y59535909D01*
X10634325Y59541372D01*
X10637550Y59546209D01*
X10641541Y59550456D01*
X10645409Y59558003D01*
X10650097Y59565038D01*
X10651853Y59570578D01*
X10654513Y59575766D01*
X10655656Y59582569D01*
X10658694Y59592147D01*
X10658956Y59602197D01*
X10660100Y59608997D01*
X10660100Y59877391D01*
X10925106Y60142397D01*
X11299891Y60142397D01*
X11564897Y59877391D01*
X11564897Y59502606D01*
X11299891Y59237600D01*
X11031497Y59237600D01*
X11025734Y59236784D01*
X11019916Y59236938D01*
X11011713Y59234803D01*
X11003338Y59233619D01*
X10998034Y59231244D01*
X10992394Y59229775D01*
X10985100Y59225447D01*
X10977384Y59221991D01*
X10972944Y59218234D01*
X10967934Y59215263D01*
X10962131Y59209088D01*
X10955672Y59203625D01*
X10952447Y59198788D01*
X10948456Y59194541D01*
X10944588Y59186994D01*
X10939900Y59179959D01*
X10938144Y59174419D01*
X10935484Y59169231D01*
X10934341Y59162428D01*
X10931303Y59152850D01*
X10931041Y59142800D01*
X10929897Y59136000D01*
X10929897Y58867606D01*
X10664891Y58602600D01*
X10396497Y58602600D01*
X10390734Y58601784D01*
X10384916Y58601938D01*
X10376713Y58599803D01*
X10368338Y58598619D01*
X10363034Y58596244D01*
X10357394Y58594775D01*
X10350100Y58590447D01*
X10342384Y58586991D01*
X10337944Y58583234D01*
X10332934Y58580263D01*
X10327131Y58574088D01*
X10320672Y58568625D01*
X10317447Y58563788D01*
X10313456Y58559541D01*
X10309588Y58551994D01*
X10304900Y58544959D01*
X10303144Y58539419D01*
X10300484Y58534231D01*
X10299341Y58527428D01*
X10296303Y58517850D01*
X10296041Y58507800D01*
X10294897Y58501000D01*
X10294897Y58232606D01*
X10029891Y57967600D01*
X9655106Y57967600D01*
G37*
%LPD*%
%LPC*%
G36*
X2070869Y42970000D02*
X2070869Y42970000D01*
X1776831Y43091794D01*
X1551794Y43316831D01*
X1430000Y43610869D01*
X1430000Y43929128D01*
X1551794Y44223166D01*
X1776831Y44448203D01*
X2070869Y44569997D01*
X2389128Y44569997D01*
X2683166Y44448203D01*
X2908203Y44223166D01*
X3029997Y43929128D01*
X3029997Y43610869D01*
X2908203Y43316831D01*
X2683166Y43091794D01*
X2389128Y42970000D01*
X2070869Y42970000D01*
G37*
%LPD*%
%LPC*%
G36*
X2070869Y63290000D02*
X2070869Y63290000D01*
X1776831Y63411794D01*
X1551794Y63636831D01*
X1430000Y63930869D01*
X1430000Y64249128D01*
X1551794Y64543166D01*
X1776831Y64768203D01*
X2070869Y64889997D01*
X2389128Y64889997D01*
X2683166Y64768203D01*
X2908203Y64543166D01*
X3029997Y64249128D01*
X3029997Y63930869D01*
X2908203Y63636831D01*
X2683166Y63411794D01*
X2389128Y63290000D01*
X2070869Y63290000D01*
G37*
%LPD*%
%LPC*%
G36*
X4610869Y58210000D02*
X4610869Y58210000D01*
X4316831Y58331794D01*
X4091794Y58556831D01*
X3970000Y58850869D01*
X3970000Y59169128D01*
X4091794Y59463166D01*
X4316831Y59688203D01*
X4610869Y59809997D01*
X4929128Y59809997D01*
X5223166Y59688203D01*
X5448203Y59463166D01*
X5569997Y59169128D01*
X5569997Y58850869D01*
X5448203Y58556831D01*
X5223166Y58331794D01*
X4929128Y58210000D01*
X4610869Y58210000D01*
G37*
%LPD*%
%LPC*%
G36*
X2070869Y58210000D02*
X2070869Y58210000D01*
X1776831Y58331794D01*
X1551794Y58556831D01*
X1430000Y58850869D01*
X1430000Y59169128D01*
X1551794Y59463166D01*
X1776831Y59688203D01*
X2070869Y59809997D01*
X2389128Y59809997D01*
X2683166Y59688203D01*
X2908203Y59463166D01*
X3029997Y59169128D01*
X3029997Y58850869D01*
X2908203Y58556831D01*
X2683166Y58331794D01*
X2389128Y58210000D01*
X2070869Y58210000D01*
G37*
%LPD*%
%LPC*%
G36*
X4610869Y65830000D02*
X4610869Y65830000D01*
X4316831Y65951794D01*
X4091794Y66176831D01*
X3970000Y66470869D01*
X3970000Y66789128D01*
X4091794Y67083166D01*
X4316831Y67308203D01*
X4610869Y67429997D01*
X4929128Y67429997D01*
X5223166Y67308203D01*
X5448203Y67083166D01*
X5569997Y66789128D01*
X5569997Y66470869D01*
X5448203Y66176831D01*
X5223166Y65951794D01*
X4929128Y65830000D01*
X4610869Y65830000D01*
G37*
%LPD*%
%LPC*%
G36*
X2070869Y65830000D02*
X2070869Y65830000D01*
X1776831Y65951794D01*
X1551794Y66176831D01*
X1430000Y66470869D01*
X1430000Y66789128D01*
X1551794Y67083166D01*
X1776831Y67308203D01*
X2070869Y67429997D01*
X2389128Y67429997D01*
X2683166Y67308203D01*
X2908203Y67083166D01*
X3029997Y66789128D01*
X3029997Y66470869D01*
X2908203Y66176831D01*
X2683166Y65951794D01*
X2389128Y65830000D01*
X2070869Y65830000D01*
G37*
%LPD*%
%LPC*%
G36*
X2070869Y60750000D02*
X2070869Y60750000D01*
X1776831Y60871794D01*
X1551794Y61096831D01*
X1430000Y61390869D01*
X1430000Y61709128D01*
X1551794Y62003166D01*
X1776831Y62228203D01*
X2070869Y62349997D01*
X2389128Y62349997D01*
X2683166Y62228203D01*
X2908203Y62003166D01*
X3029997Y61709128D01*
X3029997Y61390869D01*
X2908203Y61096831D01*
X2683166Y60871794D01*
X2389128Y60750000D01*
X2070869Y60750000D01*
G37*
%LPD*%
%LPC*%
G36*
X4610869Y60750000D02*
X4610869Y60750000D01*
X4316831Y60871794D01*
X4091794Y61096831D01*
X3970000Y61390869D01*
X3970000Y61709128D01*
X4091794Y62003166D01*
X4316831Y62228203D01*
X4610869Y62349997D01*
X4929128Y62349997D01*
X5223166Y62228203D01*
X5448203Y62003166D01*
X5569997Y61709128D01*
X5569997Y61390869D01*
X5448203Y61096831D01*
X5223166Y60871794D01*
X4929128Y60750000D01*
X4610869Y60750000D01*
G37*
%LPD*%
%LPC*%
G36*
X4610869Y63290000D02*
X4610869Y63290000D01*
X4316831Y63411794D01*
X4091794Y63636831D01*
X3970000Y63930869D01*
X3970000Y64249128D01*
X4091794Y64543166D01*
X4316831Y64768203D01*
X4610869Y64889997D01*
X4929128Y64889997D01*
X5223166Y64768203D01*
X5448203Y64543166D01*
X5569997Y64249128D01*
X5569997Y63930869D01*
X5448203Y63636831D01*
X5223166Y63411794D01*
X4929128Y63290000D01*
X4610869Y63290000D01*
G37*
%LPD*%
%LPC*%
G36*
X4610869Y42970000D02*
X4610869Y42970000D01*
X4316831Y43091794D01*
X4091794Y43316831D01*
X3970000Y43610869D01*
X3970000Y43929128D01*
X4091794Y44223166D01*
X4316831Y44448203D01*
X4610869Y44569997D01*
X4929128Y44569997D01*
X5223166Y44448203D01*
X5448203Y44223166D01*
X5569997Y43929128D01*
X5569997Y43610869D01*
X5448203Y43316831D01*
X5223166Y43091794D01*
X4929128Y42970000D01*
X4610869Y42970000D01*
G37*
%LPD*%
%LPC*%
G36*
X4610869Y55670000D02*
X4610869Y55670000D01*
X4316831Y55791794D01*
X4091794Y56016831D01*
X3970000Y56310869D01*
X3970000Y56629128D01*
X4091794Y56923166D01*
X4316831Y57148203D01*
X4610869Y57269997D01*
X4929128Y57269997D01*
X5223166Y57148203D01*
X5448203Y56923166D01*
X5569997Y56629128D01*
X5569997Y56310869D01*
X5448203Y56016831D01*
X5223166Y55791794D01*
X4929128Y55670000D01*
X4610869Y55670000D01*
G37*
%LPD*%
%LPC*%
G36*
X4610869Y45510000D02*
X4610869Y45510000D01*
X4316831Y45631794D01*
X4091794Y45856831D01*
X3970000Y46150869D01*
X3970000Y46469128D01*
X4091794Y46763166D01*
X4316831Y46988203D01*
X4610869Y47109997D01*
X4929128Y47109997D01*
X5223166Y46988203D01*
X5448203Y46763166D01*
X5569997Y46469128D01*
X5569997Y46150869D01*
X5448203Y45856831D01*
X5223166Y45631794D01*
X4929128Y45510000D01*
X4610869Y45510000D01*
G37*
%LPD*%
%LPC*%
G36*
X2070869Y55670000D02*
X2070869Y55670000D01*
X1776831Y55791794D01*
X1551794Y56016831D01*
X1430000Y56310869D01*
X1430000Y56629128D01*
X1551794Y56923166D01*
X1776831Y57148203D01*
X2070869Y57269997D01*
X2389128Y57269997D01*
X2683166Y57148203D01*
X2908203Y56923166D01*
X3029997Y56629128D01*
X3029997Y56310869D01*
X2908203Y56016831D01*
X2683166Y55791794D01*
X2389128Y55670000D01*
X2070869Y55670000D01*
G37*
%LPD*%
%LPC*%
G36*
X2070869Y53130000D02*
X2070869Y53130000D01*
X1776831Y53251794D01*
X1551794Y53476831D01*
X1430000Y53770869D01*
X1430000Y54089128D01*
X1551794Y54383166D01*
X1776831Y54608203D01*
X2070869Y54729997D01*
X2389128Y54729997D01*
X2683166Y54608203D01*
X2908203Y54383166D01*
X3029997Y54089128D01*
X3029997Y53770869D01*
X2908203Y53476831D01*
X2683166Y53251794D01*
X2389128Y53130000D01*
X2070869Y53130000D01*
G37*
%LPD*%
%LPC*%
G36*
X2070869Y48050000D02*
X2070869Y48050000D01*
X1776831Y48171794D01*
X1551794Y48396831D01*
X1430000Y48690869D01*
X1430000Y49009128D01*
X1551794Y49303166D01*
X1776831Y49528203D01*
X2070869Y49649997D01*
X2389128Y49649997D01*
X2683166Y49528203D01*
X2908203Y49303166D01*
X3029997Y49009128D01*
X3029997Y48690869D01*
X2908203Y48396831D01*
X2683166Y48171794D01*
X2389128Y48050000D01*
X2070869Y48050000D01*
G37*
%LPD*%
%LPC*%
G36*
X2070869Y45510000D02*
X2070869Y45510000D01*
X1776831Y45631794D01*
X1551794Y45856831D01*
X1430000Y46150869D01*
X1430000Y46469128D01*
X1551794Y46763166D01*
X1776831Y46988203D01*
X2070869Y47109997D01*
X2389128Y47109997D01*
X2683166Y46988203D01*
X2908203Y46763166D01*
X3029997Y46469128D01*
X3029997Y46150869D01*
X2908203Y45856831D01*
X2683166Y45631794D01*
X2389128Y45510000D01*
X2070869Y45510000D01*
G37*
%LPD*%
%LPC*%
G36*
X2070869Y50590000D02*
X2070869Y50590000D01*
X1776831Y50711794D01*
X1551794Y50936831D01*
X1430000Y51230869D01*
X1430000Y51549128D01*
X1551794Y51843166D01*
X1776831Y52068203D01*
X2070869Y52189997D01*
X2389128Y52189997D01*
X2683166Y52068203D01*
X2908203Y51843166D01*
X3029997Y51549128D01*
X3029997Y51230869D01*
X2908203Y50936831D01*
X2683166Y50711794D01*
X2389128Y50590000D01*
X2070869Y50590000D01*
G37*
%LPD*%
%LPC*%
G36*
X4610869Y50590000D02*
X4610869Y50590000D01*
X4316831Y50711794D01*
X4091794Y50936831D01*
X3970000Y51230869D01*
X3970000Y51549128D01*
X4091794Y51843166D01*
X4316831Y52068203D01*
X4610869Y52189997D01*
X4929128Y52189997D01*
X5223166Y52068203D01*
X5448203Y51843166D01*
X5569997Y51549128D01*
X5569997Y51230869D01*
X5448203Y50936831D01*
X5223166Y50711794D01*
X4929128Y50590000D01*
X4610869Y50590000D01*
G37*
%LPD*%
%LPC*%
G36*
X4610869Y48050000D02*
X4610869Y48050000D01*
X4316831Y48171794D01*
X4091794Y48396831D01*
X3970000Y48690869D01*
X3970000Y49009128D01*
X4091794Y49303166D01*
X4316831Y49528203D01*
X4610869Y49649997D01*
X4929128Y49649997D01*
X5223166Y49528203D01*
X5448203Y49303166D01*
X5569997Y49009128D01*
X5569997Y48690869D01*
X5448203Y48396831D01*
X5223166Y48171794D01*
X4929128Y48050000D01*
X4610869Y48050000D01*
G37*
%LPD*%
%LPC*%
G36*
X42992606Y60190100D02*
X42992606Y60190100D01*
X42727600Y60455106D01*
X42727600Y60829891D01*
X42992606Y61094897D01*
X43271231Y61094897D01*
X43274125Y61095306D01*
X43277047Y61095063D01*
X43288175Y61097294D01*
X43299391Y61098878D01*
X43302063Y61100075D01*
X43304931Y61100650D01*
X43314997Y61105872D01*
X43325344Y61110506D01*
X43327575Y61112394D01*
X43330178Y61113744D01*
X43338403Y61121553D01*
X43347056Y61128872D01*
X43348681Y61131313D01*
X43350803Y61133325D01*
X43356534Y61143094D01*
X43362828Y61152538D01*
X43363713Y61155331D01*
X43365194Y61157853D01*
X43367994Y61168828D01*
X43371425Y61179647D01*
X43371503Y61182575D01*
X43372225Y61185409D01*
X43371872Y61196747D01*
X43372169Y61208078D01*
X43371431Y61210909D01*
X43371341Y61213834D01*
X43367869Y61224606D01*
X43365006Y61235600D01*
X43363509Y61238125D01*
X43362613Y61240903D01*
X43362600Y61240922D01*
X43362600Y61623591D01*
X43627606Y61888597D01*
X44002391Y61888597D01*
X44267397Y61623591D01*
X44267397Y61248806D01*
X44002391Y60983800D01*
X43723766Y60983800D01*
X43720872Y60983391D01*
X43717950Y60983634D01*
X43706822Y60981403D01*
X43695606Y60979819D01*
X43692934Y60978622D01*
X43690066Y60978047D01*
X43680000Y60972825D01*
X43669653Y60968191D01*
X43667422Y60966303D01*
X43664819Y60964953D01*
X43656594Y60957144D01*
X43647941Y60949825D01*
X43646316Y60947384D01*
X43644194Y60945372D01*
X43638463Y60935603D01*
X43632169Y60926159D01*
X43631284Y60923366D01*
X43629803Y60920844D01*
X43627003Y60909869D01*
X43623572Y60899050D01*
X43623494Y60896122D01*
X43622772Y60893288D01*
X43623125Y60881950D01*
X43622828Y60870619D01*
X43623566Y60867788D01*
X43623656Y60864863D01*
X43627128Y60854091D01*
X43629991Y60843097D01*
X43631488Y60840572D01*
X43632384Y60837794D01*
X43632397Y60837775D01*
X43632397Y60455106D01*
X43367391Y60190100D01*
X42992606Y60190100D01*
G37*
%LPD*%
%LPC*%
G36*
X28705106Y80510100D02*
X28705106Y80510100D01*
X28440100Y80775106D01*
X28440100Y81149891D01*
X28705106Y81414897D01*
X29079888Y81414897D01*
X29296903Y81197878D01*
X29301553Y81194378D01*
X29305563Y81190156D01*
X29312875Y81185863D01*
X29319631Y81180781D01*
X29325056Y81178713D01*
X29330088Y81175759D01*
X29338303Y81173663D01*
X29346206Y81170650D01*
X29352009Y81170166D01*
X29357644Y81168728D01*
X29366100Y81168991D01*
X29374547Y81168284D01*
X29380253Y81169428D01*
X29386069Y81169606D01*
X29394125Y81172203D01*
X29402431Y81173866D01*
X29407603Y81176547D01*
X29413138Y81178331D01*
X29418747Y81182325D01*
X29427678Y81186956D01*
X29434978Y81193884D01*
X29440588Y81197878D01*
X29657606Y81414897D01*
X30032391Y81414897D01*
X30297397Y81149891D01*
X30297397Y80775106D01*
X30032391Y80510100D01*
X29657606Y80510100D01*
X29440588Y80727119D01*
X29435944Y80730613D01*
X29431931Y80734841D01*
X29424631Y80739125D01*
X29417863Y80744219D01*
X29412419Y80746294D01*
X29407403Y80749238D01*
X29399203Y80751331D01*
X29391288Y80754347D01*
X29385481Y80754831D01*
X29379850Y80756269D01*
X29371394Y80756006D01*
X29362947Y80756713D01*
X29357241Y80755572D01*
X29351422Y80755391D01*
X29343363Y80752794D01*
X29335059Y80751131D01*
X29329888Y80748450D01*
X29324353Y80746666D01*
X29318744Y80742672D01*
X29309813Y80738041D01*
X29302516Y80731116D01*
X29296903Y80727119D01*
X29079888Y80510100D01*
X28705106Y80510100D01*
G37*
%LPD*%
%LPC*%
G36*
X35848806Y52570100D02*
X35848806Y52570100D01*
X35583800Y52835106D01*
X35583800Y53209891D01*
X35800819Y53426909D01*
X35804313Y53431553D01*
X35808541Y53435566D01*
X35812825Y53442866D01*
X35817919Y53449634D01*
X35819994Y53455078D01*
X35822938Y53460094D01*
X35825031Y53468294D01*
X35828047Y53476209D01*
X35828531Y53482016D01*
X35829969Y53487647D01*
X35829706Y53496103D01*
X35830413Y53504550D01*
X35829272Y53510256D01*
X35829091Y53516075D01*
X35826494Y53524134D01*
X35824831Y53532438D01*
X35822150Y53537609D01*
X35820366Y53543144D01*
X35816372Y53548753D01*
X35811741Y53557684D01*
X35804816Y53564981D01*
X35800819Y53570594D01*
X35583800Y53787609D01*
X35583800Y54162391D01*
X35848806Y54427397D01*
X36223591Y54427397D01*
X36488597Y54162391D01*
X36488597Y53787609D01*
X36271578Y53570594D01*
X36268078Y53565944D01*
X36263856Y53561934D01*
X36259563Y53554622D01*
X36254481Y53547866D01*
X36252413Y53542441D01*
X36249459Y53537409D01*
X36247363Y53529194D01*
X36244350Y53521291D01*
X36243866Y53515488D01*
X36242428Y53509853D01*
X36242691Y53501397D01*
X36241984Y53492950D01*
X36243128Y53487244D01*
X36243306Y53481428D01*
X36245903Y53473372D01*
X36247566Y53465066D01*
X36250247Y53459894D01*
X36252031Y53454359D01*
X36256025Y53448750D01*
X36260656Y53439819D01*
X36267584Y53432519D01*
X36271578Y53426909D01*
X36488597Y53209891D01*
X36488597Y52835106D01*
X36223591Y52570100D01*
X35848806Y52570100D01*
G37*
%LPD*%
%LPC*%
G36*
X17751306Y47172600D02*
X17751306Y47172600D01*
X17486300Y47437606D01*
X17486300Y47812391D01*
X17751306Y48077397D01*
X18019800Y48077397D01*
X18025563Y48078213D01*
X18031381Y48078059D01*
X18039584Y48080194D01*
X18047959Y48081378D01*
X18053263Y48083753D01*
X18058903Y48085222D01*
X18066197Y48089550D01*
X18073913Y48093006D01*
X18078353Y48096763D01*
X18083363Y48099734D01*
X18089166Y48105909D01*
X18095625Y48111372D01*
X18098850Y48116209D01*
X18102841Y48120456D01*
X18106709Y48128003D01*
X18111397Y48135038D01*
X18113153Y48140578D01*
X18115813Y48145766D01*
X18116956Y48152569D01*
X18119994Y48162147D01*
X18120256Y48172197D01*
X18121400Y48178997D01*
X18121400Y48447391D01*
X18386406Y48712397D01*
X18761191Y48712397D01*
X19026197Y48447391D01*
X19026197Y48072606D01*
X18761191Y47807600D01*
X18492697Y47807600D01*
X18486934Y47806784D01*
X18481116Y47806938D01*
X18472913Y47804803D01*
X18464538Y47803619D01*
X18459234Y47801244D01*
X18453594Y47799775D01*
X18446300Y47795447D01*
X18438584Y47791991D01*
X18434144Y47788234D01*
X18429134Y47785263D01*
X18423331Y47779088D01*
X18416872Y47773625D01*
X18413647Y47768788D01*
X18409656Y47764541D01*
X18405788Y47756994D01*
X18401100Y47749959D01*
X18399344Y47744419D01*
X18396684Y47739231D01*
X18395541Y47732428D01*
X18392503Y47722850D01*
X18392241Y47712800D01*
X18391097Y47706000D01*
X18391097Y47437606D01*
X18126091Y47172600D01*
X17751306Y47172600D01*
G37*
%LPD*%
%LPC*%
G36*
X27276306Y53681400D02*
X27276306Y53681400D01*
X27011300Y53946406D01*
X27011300Y54321191D01*
X27276306Y54586197D01*
X27544800Y54586197D01*
X27550563Y54587013D01*
X27556381Y54586859D01*
X27564584Y54588994D01*
X27572959Y54590178D01*
X27578263Y54592553D01*
X27583903Y54594022D01*
X27591197Y54598350D01*
X27598913Y54601806D01*
X27603353Y54605563D01*
X27608363Y54608534D01*
X27614166Y54614709D01*
X27620625Y54620172D01*
X27623850Y54625009D01*
X27627841Y54629256D01*
X27631709Y54636803D01*
X27636397Y54643838D01*
X27638153Y54649378D01*
X27640813Y54654566D01*
X27641956Y54661369D01*
X27644994Y54670947D01*
X27645256Y54680997D01*
X27646400Y54687797D01*
X27646400Y54956191D01*
X27911406Y55221197D01*
X28286191Y55221197D01*
X28551197Y54956191D01*
X28551197Y54581406D01*
X28286191Y54316400D01*
X28017697Y54316400D01*
X28011934Y54315584D01*
X28006116Y54315738D01*
X27997913Y54313603D01*
X27989538Y54312419D01*
X27984234Y54310044D01*
X27978594Y54308575D01*
X27971300Y54304247D01*
X27963584Y54300791D01*
X27959144Y54297034D01*
X27954134Y54294063D01*
X27948331Y54287888D01*
X27941872Y54282425D01*
X27938647Y54277588D01*
X27934656Y54273341D01*
X27930788Y54265794D01*
X27926100Y54258759D01*
X27924344Y54253219D01*
X27921684Y54248031D01*
X27920541Y54241228D01*
X27917503Y54231650D01*
X27917241Y54221600D01*
X27916097Y54214800D01*
X27916097Y53946406D01*
X27651091Y53681400D01*
X27276306Y53681400D01*
G37*
%LPD*%
%LPC*%
G36*
X26641306Y51617500D02*
X26641306Y51617500D01*
X26376300Y51882506D01*
X26376300Y52151000D01*
X26375591Y52156013D01*
X26375638Y52157781D01*
X26375522Y52158219D01*
X26375638Y52162581D01*
X26373503Y52170784D01*
X26372319Y52179159D01*
X26369944Y52184463D01*
X26368475Y52190103D01*
X26364147Y52197397D01*
X26360691Y52205113D01*
X26356934Y52209553D01*
X26353963Y52214563D01*
X26347788Y52220366D01*
X26342325Y52226825D01*
X26337488Y52230050D01*
X26333241Y52234041D01*
X26325694Y52237909D01*
X26318659Y52242597D01*
X26313119Y52244353D01*
X26307931Y52247013D01*
X26301128Y52248156D01*
X26291550Y52251194D01*
X26281500Y52251456D01*
X26274700Y52252600D01*
X26006306Y52252600D01*
X25741300Y52517606D01*
X25741300Y52892391D01*
X26006306Y53157397D01*
X26381091Y53157397D01*
X26646097Y52892391D01*
X26646097Y52623897D01*
X26646913Y52618134D01*
X26646759Y52612316D01*
X26648894Y52604113D01*
X26650078Y52595738D01*
X26652453Y52590434D01*
X26653922Y52584794D01*
X26658250Y52577500D01*
X26661706Y52569784D01*
X26665463Y52565344D01*
X26668434Y52560334D01*
X26674609Y52554531D01*
X26680072Y52548072D01*
X26684909Y52544847D01*
X26689156Y52540856D01*
X26696703Y52536988D01*
X26703738Y52532300D01*
X26709278Y52530544D01*
X26714466Y52527884D01*
X26721269Y52526741D01*
X26730847Y52523703D01*
X26740897Y52523441D01*
X26747697Y52522297D01*
X27016091Y52522297D01*
X27281097Y52257291D01*
X27281097Y51882506D01*
X27016091Y51617500D01*
X26641306Y51617500D01*
G37*
%LPD*%
%LPC*%
G36*
X23942606Y65270100D02*
X23942606Y65270100D01*
X23677600Y65535106D01*
X23677600Y65803500D01*
X23676784Y65809263D01*
X23676938Y65815081D01*
X23674803Y65823284D01*
X23673619Y65831659D01*
X23671244Y65836963D01*
X23669775Y65842603D01*
X23665447Y65849897D01*
X23661991Y65857613D01*
X23658234Y65862053D01*
X23655263Y65867063D01*
X23649088Y65872866D01*
X23643625Y65879325D01*
X23638788Y65882550D01*
X23634541Y65886541D01*
X23626994Y65890409D01*
X23619959Y65895097D01*
X23614419Y65896853D01*
X23609231Y65899513D01*
X23602428Y65900656D01*
X23592850Y65903694D01*
X23582800Y65903956D01*
X23576000Y65905100D01*
X23307606Y65905100D01*
X23042600Y66170106D01*
X23042600Y66544891D01*
X23307606Y66809897D01*
X23682391Y66809897D01*
X23947397Y66544891D01*
X23947397Y66276497D01*
X23948213Y66270734D01*
X23948059Y66264916D01*
X23950194Y66256713D01*
X23951378Y66248338D01*
X23953753Y66243034D01*
X23955222Y66237394D01*
X23959550Y66230100D01*
X23963006Y66222384D01*
X23966763Y66217944D01*
X23969734Y66212934D01*
X23975909Y66207131D01*
X23981372Y66200672D01*
X23986209Y66197447D01*
X23990456Y66193456D01*
X23998003Y66189588D01*
X24005038Y66184900D01*
X24010578Y66183144D01*
X24015766Y66180484D01*
X24022569Y66179341D01*
X24032147Y66176303D01*
X24042197Y66176041D01*
X24048997Y66174897D01*
X24317391Y66174897D01*
X24582397Y65909891D01*
X24582397Y65535106D01*
X24317391Y65270100D01*
X23942606Y65270100D01*
G37*
%LPD*%
%LPC*%
G36*
X21402606Y63682600D02*
X21402606Y63682600D01*
X21137600Y63947606D01*
X21137600Y64322391D01*
X21402606Y64587397D01*
X21671000Y64587397D01*
X21676763Y64588213D01*
X21682581Y64588059D01*
X21690784Y64590194D01*
X21699159Y64591378D01*
X21704463Y64593753D01*
X21710103Y64595222D01*
X21717397Y64599550D01*
X21725113Y64603006D01*
X21729553Y64606763D01*
X21734563Y64609734D01*
X21740366Y64615909D01*
X21746825Y64621372D01*
X21750050Y64626209D01*
X21754041Y64630456D01*
X21757909Y64638003D01*
X21762597Y64645038D01*
X21764353Y64650578D01*
X21767013Y64655766D01*
X21768156Y64662569D01*
X21771194Y64672147D01*
X21771456Y64682197D01*
X21772600Y64688997D01*
X21772600Y64957391D01*
X22037606Y65222397D01*
X22412391Y65222397D01*
X22677397Y64957391D01*
X22677397Y64582606D01*
X22412391Y64317600D01*
X22143997Y64317600D01*
X22138234Y64316784D01*
X22132416Y64316938D01*
X22124213Y64314803D01*
X22115838Y64313619D01*
X22110534Y64311244D01*
X22104894Y64309775D01*
X22097600Y64305447D01*
X22089884Y64301991D01*
X22085444Y64298234D01*
X22080434Y64295263D01*
X22074631Y64289088D01*
X22068172Y64283625D01*
X22064947Y64278788D01*
X22060956Y64274541D01*
X22057088Y64266994D01*
X22052400Y64259959D01*
X22050644Y64254419D01*
X22047984Y64249231D01*
X22046841Y64242428D01*
X22043803Y64232850D01*
X22043541Y64222800D01*
X22042397Y64216000D01*
X22042397Y63947606D01*
X21777391Y63682600D01*
X21402606Y63682600D01*
G37*
%LPD*%
%LPC*%
G36*
X16957606Y48442600D02*
X16957606Y48442600D01*
X16692600Y48707606D01*
X16692600Y49082391D01*
X16957606Y49347397D01*
X17226000Y49347397D01*
X17231763Y49348213D01*
X17237581Y49348059D01*
X17245784Y49350194D01*
X17254159Y49351378D01*
X17259463Y49353753D01*
X17265103Y49355222D01*
X17272397Y49359550D01*
X17280113Y49363006D01*
X17284553Y49366763D01*
X17289563Y49369734D01*
X17295366Y49375909D01*
X17301825Y49381372D01*
X17305050Y49386209D01*
X17309041Y49390456D01*
X17312909Y49398003D01*
X17317597Y49405038D01*
X17319353Y49410578D01*
X17322013Y49415766D01*
X17323156Y49422569D01*
X17326194Y49432147D01*
X17326456Y49442197D01*
X17327600Y49448997D01*
X17327600Y49717391D01*
X17592606Y49982397D01*
X17967391Y49982397D01*
X18232397Y49717391D01*
X18232397Y49342606D01*
X17967391Y49077600D01*
X17698997Y49077600D01*
X17693234Y49076784D01*
X17687416Y49076938D01*
X17679213Y49074803D01*
X17670838Y49073619D01*
X17665534Y49071244D01*
X17659894Y49069775D01*
X17652600Y49065447D01*
X17644884Y49061991D01*
X17640444Y49058234D01*
X17635434Y49055263D01*
X17629631Y49049088D01*
X17623172Y49043625D01*
X17619947Y49038788D01*
X17615956Y49034541D01*
X17612088Y49026994D01*
X17607400Y49019959D01*
X17605644Y49014419D01*
X17602984Y49009231D01*
X17601841Y49002428D01*
X17598803Y48992850D01*
X17598541Y48982800D01*
X17597397Y48976000D01*
X17597397Y48707606D01*
X17332391Y48442600D01*
X16957606Y48442600D01*
G37*
%LPD*%
%LPC*%
G36*
X14417606Y61142600D02*
X14417606Y61142600D01*
X14152600Y61407606D01*
X14152600Y61676000D01*
X14151784Y61681763D01*
X14151938Y61687581D01*
X14149803Y61695784D01*
X14148619Y61704159D01*
X14146244Y61709463D01*
X14144775Y61715103D01*
X14140447Y61722397D01*
X14136991Y61730113D01*
X14133234Y61734553D01*
X14130263Y61739563D01*
X14124088Y61745366D01*
X14118625Y61751825D01*
X14113788Y61755050D01*
X14109541Y61759041D01*
X14101994Y61762909D01*
X14094959Y61767597D01*
X14089419Y61769353D01*
X14084231Y61772013D01*
X14077428Y61773156D01*
X14067850Y61776194D01*
X14057800Y61776456D01*
X14051000Y61777600D01*
X13782606Y61777600D01*
X13517600Y62042606D01*
X13517600Y62417391D01*
X13782606Y62682397D01*
X14157391Y62682397D01*
X14422397Y62417391D01*
X14422397Y62148997D01*
X14423213Y62143234D01*
X14423059Y62137416D01*
X14425194Y62129213D01*
X14426378Y62120838D01*
X14428753Y62115534D01*
X14430222Y62109894D01*
X14434550Y62102600D01*
X14438006Y62094884D01*
X14441763Y62090444D01*
X14444734Y62085434D01*
X14450909Y62079631D01*
X14456372Y62073172D01*
X14461209Y62069947D01*
X14465456Y62065956D01*
X14473003Y62062088D01*
X14480038Y62057400D01*
X14485578Y62055644D01*
X14490766Y62052984D01*
X14497569Y62051841D01*
X14507147Y62048803D01*
X14517197Y62048541D01*
X14523997Y62047397D01*
X14792391Y62047397D01*
X15057397Y61782391D01*
X15057397Y61407606D01*
X14792391Y61142600D01*
X14417606Y61142600D01*
G37*
%LPD*%
%LPC*%
G36*
X35372606Y60507600D02*
X35372606Y60507600D01*
X35107600Y60772606D01*
X35107600Y61147391D01*
X35372606Y61412397D01*
X35641000Y61412397D01*
X35646763Y61413213D01*
X35652581Y61413059D01*
X35660784Y61415194D01*
X35669159Y61416378D01*
X35674463Y61418753D01*
X35680103Y61420222D01*
X35687397Y61424550D01*
X35695113Y61428006D01*
X35699553Y61431763D01*
X35704563Y61434734D01*
X35710366Y61440909D01*
X35716825Y61446372D01*
X35720050Y61451209D01*
X35724041Y61455456D01*
X35727909Y61463003D01*
X35732597Y61470038D01*
X35734353Y61475578D01*
X35737013Y61480766D01*
X35738156Y61487569D01*
X35741194Y61497147D01*
X35741456Y61507197D01*
X35742600Y61513997D01*
X35742600Y61782391D01*
X36007606Y62047397D01*
X36382391Y62047397D01*
X36647397Y61782391D01*
X36647397Y61407606D01*
X36382391Y61142600D01*
X36113997Y61142600D01*
X36108234Y61141784D01*
X36102416Y61141938D01*
X36094213Y61139803D01*
X36085838Y61138619D01*
X36080534Y61136244D01*
X36074894Y61134775D01*
X36067600Y61130447D01*
X36059884Y61126991D01*
X36055444Y61123234D01*
X36050434Y61120263D01*
X36044631Y61114088D01*
X36038172Y61108625D01*
X36034947Y61103788D01*
X36030956Y61099541D01*
X36027088Y61091994D01*
X36022400Y61084959D01*
X36020644Y61079419D01*
X36017984Y61074231D01*
X36016841Y61067428D01*
X36013803Y61057850D01*
X36013541Y61047800D01*
X36012397Y61041000D01*
X36012397Y60772606D01*
X35747391Y60507600D01*
X35372606Y60507600D01*
G37*
%LPD*%
%LPC*%
G36*
X22037606Y52252600D02*
X22037606Y52252600D01*
X21772600Y52517606D01*
X21772600Y52786000D01*
X21771784Y52791763D01*
X21771938Y52797581D01*
X21769803Y52805784D01*
X21768619Y52814159D01*
X21766244Y52819463D01*
X21764775Y52825103D01*
X21760447Y52832397D01*
X21756991Y52840113D01*
X21753234Y52844553D01*
X21750263Y52849563D01*
X21744088Y52855366D01*
X21738625Y52861825D01*
X21733788Y52865050D01*
X21729541Y52869041D01*
X21721994Y52872909D01*
X21714959Y52877597D01*
X21709419Y52879353D01*
X21704231Y52882013D01*
X21697428Y52883156D01*
X21687850Y52886194D01*
X21677800Y52886456D01*
X21671000Y52887600D01*
X21402606Y52887600D01*
X21137600Y53152606D01*
X21137600Y53527391D01*
X21402606Y53792397D01*
X21777391Y53792397D01*
X22042397Y53527391D01*
X22042397Y53258997D01*
X22043106Y53253984D01*
X22043059Y53252219D01*
X22043175Y53251781D01*
X22043059Y53247416D01*
X22045194Y53239213D01*
X22046378Y53230838D01*
X22048753Y53225534D01*
X22050222Y53219894D01*
X22054550Y53212600D01*
X22058006Y53204884D01*
X22061763Y53200444D01*
X22064734Y53195434D01*
X22070909Y53189631D01*
X22076372Y53183172D01*
X22081209Y53179947D01*
X22085456Y53175956D01*
X22093003Y53172088D01*
X22100038Y53167400D01*
X22105578Y53165644D01*
X22110766Y53162984D01*
X22117569Y53161841D01*
X22127147Y53158803D01*
X22137197Y53158541D01*
X22143997Y53157397D01*
X22412391Y53157397D01*
X22677397Y52892391D01*
X22677397Y52517606D01*
X22412391Y52252600D01*
X22037606Y52252600D01*
G37*
%LPD*%
%LPC*%
G36*
X27276306Y49077600D02*
X27276306Y49077600D01*
X27011300Y49342606D01*
X27011300Y49717391D01*
X27276306Y49982397D01*
X27651091Y49982397D01*
X27788759Y49844728D01*
X27793406Y49841231D01*
X27797416Y49837006D01*
X27804716Y49832722D01*
X27811484Y49827628D01*
X27816928Y49825553D01*
X27821944Y49822609D01*
X27830141Y49820519D01*
X27838059Y49817500D01*
X27843869Y49817016D01*
X27849500Y49815578D01*
X27857956Y49815841D01*
X27866400Y49815134D01*
X27872106Y49816275D01*
X27877925Y49816456D01*
X27885984Y49819053D01*
X27894288Y49820716D01*
X27899459Y49823397D01*
X27904994Y49825181D01*
X27910603Y49829175D01*
X27919534Y49833806D01*
X27926831Y49840731D01*
X27932444Y49844728D01*
X28070109Y49982397D01*
X28444891Y49982397D01*
X28709897Y49717391D01*
X28709897Y49342606D01*
X28444891Y49077600D01*
X28070109Y49077600D01*
X27932444Y49215269D01*
X27927794Y49218769D01*
X27923784Y49222991D01*
X27916472Y49227284D01*
X27909716Y49232366D01*
X27904291Y49234434D01*
X27899259Y49237388D01*
X27891044Y49239484D01*
X27883141Y49242497D01*
X27877338Y49242981D01*
X27871703Y49244419D01*
X27863247Y49244156D01*
X27854800Y49244863D01*
X27849094Y49243719D01*
X27843278Y49243541D01*
X27835222Y49240944D01*
X27826916Y49239281D01*
X27821744Y49236600D01*
X27816209Y49234816D01*
X27810600Y49230822D01*
X27801669Y49226191D01*
X27794363Y49219259D01*
X27788759Y49215269D01*
X27651091Y49077600D01*
X27276306Y49077600D01*
G37*
%LPD*%
%LPC*%
G36*
X20291306Y83367600D02*
X20291306Y83367600D01*
X20026300Y83632606D01*
X20026300Y84007391D01*
X20291306Y84272397D01*
X20666091Y84272397D01*
X20931097Y84007391D01*
X20931097Y83632606D01*
X20666091Y83367600D01*
X20291306Y83367600D01*
G37*
%LPD*%
%LPC*%
G36*
X30610106Y83208800D02*
X30610106Y83208800D01*
X30345100Y83473806D01*
X30345100Y83848591D01*
X30610106Y84113597D01*
X30984891Y84113597D01*
X31249897Y83848591D01*
X31249897Y83473806D01*
X30984891Y83208800D01*
X30610106Y83208800D01*
G37*
%LPD*%
%LPC*%
G36*
X28228806Y82097500D02*
X28228806Y82097500D01*
X27963800Y82362506D01*
X27963800Y82737291D01*
X28228806Y83002297D01*
X28603591Y83002297D01*
X28868597Y82737291D01*
X28868597Y82362506D01*
X28603591Y82097500D01*
X28228806Y82097500D01*
G37*
%LPD*%
%LPC*%
G36*
X32197606Y81780100D02*
X32197606Y81780100D01*
X31932600Y82045106D01*
X31932600Y82419891D01*
X32197606Y82684897D01*
X32572391Y82684897D01*
X32837397Y82419891D01*
X32837397Y82045106D01*
X32572391Y81780100D01*
X32197606Y81780100D01*
G37*
%LPD*%
%LPC*%
G36*
X36007606Y80510100D02*
X36007606Y80510100D01*
X35742600Y80775106D01*
X35742600Y81149891D01*
X36007606Y81414897D01*
X36382391Y81414897D01*
X36647397Y81149891D01*
X36647397Y80775106D01*
X36382391Y80510100D01*
X36007606Y80510100D01*
G37*
%LPD*%
%LPC*%
G36*
X27435106Y80192600D02*
X27435106Y80192600D01*
X27170100Y80457606D01*
X27170100Y80832391D01*
X27435106Y81097397D01*
X27809891Y81097397D01*
X28074897Y80832391D01*
X28074897Y80457606D01*
X27809891Y80192600D01*
X27435106Y80192600D01*
G37*
%LPD*%
%LPC*%
G36*
X32038706Y79716300D02*
X32038706Y79716300D01*
X31773700Y79981306D01*
X31773700Y80356091D01*
X32038706Y80621097D01*
X32413491Y80621097D01*
X32678497Y80356091D01*
X32678497Y79981306D01*
X32413491Y79716300D01*
X32038706Y79716300D01*
G37*
%LPD*%
%LPC*%
G36*
X16163806Y79557600D02*
X16163806Y79557600D01*
X15898800Y79822606D01*
X15898800Y80197391D01*
X16163806Y80462397D01*
X16538591Y80462397D01*
X16803597Y80197391D01*
X16803597Y79822606D01*
X16538591Y79557600D01*
X16163806Y79557600D01*
G37*
%LPD*%
%LPC*%
G36*
X28069906Y79081200D02*
X28069906Y79081200D01*
X27804900Y79346206D01*
X27804900Y79720991D01*
X28069906Y79985997D01*
X28444691Y79985997D01*
X28709697Y79720991D01*
X28709697Y79346206D01*
X28444691Y79081200D01*
X28069906Y79081200D01*
G37*
%LPD*%
%LPC*%
G36*
X10290106Y78922600D02*
X10290106Y78922600D01*
X10025100Y79187606D01*
X10025100Y79562391D01*
X10290106Y79827397D01*
X10664891Y79827397D01*
X10929897Y79562391D01*
X10929897Y79187606D01*
X10664891Y78922600D01*
X10290106Y78922600D01*
G37*
%LPD*%
%LPC*%
G36*
X36007606Y77970100D02*
X36007606Y77970100D01*
X35742600Y78235106D01*
X35742600Y78609891D01*
X36007606Y78874897D01*
X36382391Y78874897D01*
X36647397Y78609891D01*
X36647397Y78235106D01*
X36382391Y77970100D01*
X36007606Y77970100D01*
G37*
%LPD*%
%LPC*%
G36*
X16005106Y77017600D02*
X16005106Y77017600D01*
X15740100Y77282606D01*
X15740100Y77657391D01*
X16005106Y77922397D01*
X16379891Y77922397D01*
X16644897Y77657391D01*
X16644897Y77282606D01*
X16379891Y77017600D01*
X16005106Y77017600D01*
G37*
%LPD*%
%LPC*%
G36*
X35055006Y77017500D02*
X35055006Y77017500D01*
X34790000Y77282506D01*
X34790000Y77657291D01*
X35055006Y77922297D01*
X35429791Y77922297D01*
X35694797Y77657291D01*
X35694797Y77282506D01*
X35429791Y77017500D01*
X35055006Y77017500D01*
G37*
%LPD*%
%LPC*%
G36*
X19180006Y76541300D02*
X19180006Y76541300D01*
X18915000Y76806306D01*
X18915000Y77181091D01*
X19180006Y77446097D01*
X19554791Y77446097D01*
X19819797Y77181091D01*
X19819797Y76806306D01*
X19554791Y76541300D01*
X19180006Y76541300D01*
G37*
%LPD*%
%LPC*%
G36*
X11242606Y76382600D02*
X11242606Y76382600D01*
X10977600Y76647606D01*
X10977600Y77022391D01*
X11242606Y77287397D01*
X11617391Y77287397D01*
X11882397Y77022391D01*
X11882397Y76647606D01*
X11617391Y76382600D01*
X11242606Y76382600D01*
G37*
%LPD*%
%LPC*%
G36*
X36007606Y76065100D02*
X36007606Y76065100D01*
X35742600Y76330106D01*
X35742600Y76704891D01*
X36007606Y76969897D01*
X36382391Y76969897D01*
X36647397Y76704891D01*
X36647397Y76330106D01*
X36382391Y76065100D01*
X36007606Y76065100D01*
G37*
%LPD*%
%LPC*%
G36*
X7750106Y75747600D02*
X7750106Y75747600D01*
X7485100Y76012606D01*
X7485100Y76387391D01*
X7750106Y76652397D01*
X8124891Y76652397D01*
X8389897Y76387391D01*
X8389897Y76012606D01*
X8124891Y75747600D01*
X7750106Y75747600D01*
G37*
%LPD*%
%LPC*%
G36*
X11242606Y74318900D02*
X11242606Y74318900D01*
X10977600Y74583906D01*
X10977600Y74958691D01*
X11242606Y75223697D01*
X11617391Y75223697D01*
X11882397Y74958691D01*
X11882397Y74583906D01*
X11617391Y74318900D01*
X11242606Y74318900D01*
G37*
%LPD*%
%LPC*%
G36*
X32197606Y74160100D02*
X32197606Y74160100D01*
X31932600Y74425106D01*
X31932600Y74799891D01*
X32197606Y75064897D01*
X32572391Y75064897D01*
X32837397Y74799891D01*
X32837397Y74425106D01*
X32572391Y74160100D01*
X32197606Y74160100D01*
G37*
%LPD*%
%LPC*%
G36*
X32038706Y72890000D02*
X32038706Y72890000D01*
X31773700Y73155006D01*
X31773700Y73529791D01*
X32038706Y73794797D01*
X32413491Y73794797D01*
X32678497Y73529791D01*
X32678497Y73155006D01*
X32413491Y72890000D01*
X32038706Y72890000D01*
G37*
%LPD*%
%LPC*%
G36*
X7115106Y72413900D02*
X7115106Y72413900D01*
X6850100Y72678906D01*
X6850100Y73053691D01*
X7115106Y73318697D01*
X7489891Y73318697D01*
X7754897Y73053691D01*
X7754897Y72678906D01*
X7489891Y72413900D01*
X7115106Y72413900D01*
G37*
%LPD*%
%LPC*%
G36*
X21561406Y72255100D02*
X21561406Y72255100D01*
X21296400Y72520106D01*
X21296400Y72894891D01*
X21561406Y73159897D01*
X21936191Y73159897D01*
X22201197Y72894891D01*
X22201197Y72520106D01*
X21936191Y72255100D01*
X21561406Y72255100D01*
G37*
%LPD*%
%LPC*%
G36*
X18227706Y72255100D02*
X18227706Y72255100D01*
X17962700Y72520106D01*
X17962700Y72894891D01*
X18227706Y73159897D01*
X18602491Y73159897D01*
X18867497Y72894891D01*
X18867497Y72520106D01*
X18602491Y72255100D01*
X18227706Y72255100D01*
G37*
%LPD*%
%LPC*%
G36*
X38547606Y71937600D02*
X38547606Y71937600D01*
X38282600Y72202606D01*
X38282600Y72577391D01*
X38547606Y72842397D01*
X38922391Y72842397D01*
X39187397Y72577391D01*
X39187397Y72202606D01*
X38922391Y71937600D01*
X38547606Y71937600D01*
G37*
%LPD*%
%LPC*%
G36*
X16640106Y71620100D02*
X16640106Y71620100D01*
X16375100Y71885106D01*
X16375100Y72259891D01*
X16640106Y72524897D01*
X17014891Y72524897D01*
X17279897Y72259891D01*
X17279897Y71885106D01*
X17014891Y71620100D01*
X16640106Y71620100D01*
G37*
%LPD*%
%LPC*%
G36*
X53628906Y61460100D02*
X53628906Y61460100D01*
X53363900Y61725106D01*
X53363900Y62099891D01*
X53628906Y62364897D01*
X54003691Y62364897D01*
X54268697Y62099891D01*
X54268697Y61725106D01*
X54003691Y61460100D01*
X53628906Y61460100D01*
G37*
%LPD*%
%LPC*%
G36*
X22672606Y63047600D02*
X22672606Y63047600D01*
X22407600Y63312606D01*
X22407600Y63687391D01*
X22672606Y63952397D01*
X23047391Y63952397D01*
X23312397Y63687391D01*
X23312397Y63312606D01*
X23047391Y63047600D01*
X22672606Y63047600D01*
G37*
%LPD*%
%LPC*%
G36*
X29340106Y64000100D02*
X29340106Y64000100D01*
X29075100Y64265106D01*
X29075100Y64639891D01*
X29340106Y64904897D01*
X29714891Y64904897D01*
X29979897Y64639891D01*
X29979897Y64265106D01*
X29714891Y64000100D01*
X29340106Y64000100D01*
G37*
%LPD*%
%LPC*%
G36*
X25212606Y62412600D02*
X25212606Y62412600D01*
X24947600Y62677606D01*
X24947600Y63052391D01*
X25212606Y63317397D01*
X25587391Y63317397D01*
X25852397Y63052391D01*
X25852397Y62677606D01*
X25587391Y62412600D01*
X25212606Y62412600D01*
G37*
%LPD*%
%LPC*%
G36*
X37277606Y61142600D02*
X37277606Y61142600D01*
X37012600Y61407606D01*
X37012600Y61782391D01*
X37277606Y62047397D01*
X37652391Y62047397D01*
X37917397Y61782391D01*
X37917397Y61407606D01*
X37652391Y61142600D01*
X37277606Y61142600D01*
G37*
%LPD*%
%LPC*%
G36*
X14258706Y64476300D02*
X14258706Y64476300D01*
X13993700Y64741306D01*
X13993700Y65116091D01*
X14258706Y65381097D01*
X14633491Y65381097D01*
X14898497Y65116091D01*
X14898497Y64741306D01*
X14633491Y64476300D01*
X14258706Y64476300D01*
G37*
%LPD*%
%LPC*%
G36*
X9972606Y60507600D02*
X9972606Y60507600D01*
X9707600Y60772606D01*
X9707600Y61147391D01*
X9972606Y61412397D01*
X10347391Y61412397D01*
X10612397Y61147391D01*
X10612397Y60772606D01*
X10347391Y60507600D01*
X9972606Y60507600D01*
G37*
%LPD*%
%LPC*%
G36*
X40293906Y59237600D02*
X40293906Y59237600D01*
X40028900Y59502606D01*
X40028900Y59877391D01*
X40293906Y60142397D01*
X40668691Y60142397D01*
X40933697Y59877391D01*
X40933697Y59502606D01*
X40668691Y59237600D01*
X40293906Y59237600D01*
G37*
%LPD*%
%LPC*%
G36*
X9972606Y65587600D02*
X9972606Y65587600D01*
X9707600Y65852606D01*
X9707600Y66227391D01*
X9972606Y66492397D01*
X10347391Y66492397D01*
X10612397Y66227391D01*
X10612397Y65852606D01*
X10347391Y65587600D01*
X9972606Y65587600D01*
G37*
%LPD*%
%LPC*%
G36*
X31245106Y44315100D02*
X31245106Y44315100D01*
X30980100Y44580106D01*
X30980100Y44954891D01*
X31245106Y45219897D01*
X31619891Y45219897D01*
X31884897Y44954891D01*
X31884897Y44580106D01*
X31619891Y44315100D01*
X31245106Y44315100D01*
G37*
%LPD*%
%LPC*%
G36*
X27752606Y59237600D02*
X27752606Y59237600D01*
X27487600Y59502606D01*
X27487600Y59877391D01*
X27752606Y60142397D01*
X28127391Y60142397D01*
X28392397Y59877391D01*
X28392397Y59502606D01*
X28127391Y59237600D01*
X27752606Y59237600D01*
G37*
%LPD*%
%LPC*%
G36*
X12988906Y71143900D02*
X12988906Y71143900D01*
X12723900Y71408906D01*
X12723900Y71783691D01*
X12988906Y72048697D01*
X13363691Y72048697D01*
X13628697Y71783691D01*
X13628697Y71408906D01*
X13363691Y71143900D01*
X12988906Y71143900D01*
G37*
%LPD*%
%LPC*%
G36*
X49977606Y53205200D02*
X49977606Y53205200D01*
X49712600Y53470206D01*
X49712600Y53844991D01*
X49977606Y54109997D01*
X50352391Y54109997D01*
X50617397Y53844991D01*
X50617397Y53470206D01*
X50352391Y53205200D01*
X49977606Y53205200D01*
G37*
%LPD*%
%LPC*%
G36*
X44897606Y57967600D02*
X44897606Y57967600D01*
X44632600Y58232606D01*
X44632600Y58607391D01*
X44897606Y58872397D01*
X45272391Y58872397D01*
X45537397Y58607391D01*
X45537397Y58232606D01*
X45272391Y57967600D01*
X44897606Y57967600D01*
G37*
%LPD*%
%LPC*%
G36*
X12195106Y66222600D02*
X12195106Y66222600D01*
X11930100Y66487606D01*
X11930100Y66862391D01*
X12195106Y67127397D01*
X12569891Y67127397D01*
X12834897Y66862391D01*
X12834897Y66487606D01*
X12569891Y66222600D01*
X12195106Y66222600D01*
G37*
%LPD*%
%LPC*%
G36*
X47437606Y57967600D02*
X47437606Y57967600D01*
X47172600Y58232606D01*
X47172600Y58607391D01*
X47437606Y58872397D01*
X47812391Y58872397D01*
X48077397Y58607391D01*
X48077397Y58232606D01*
X47812391Y57967600D01*
X47437606Y57967600D01*
G37*
%LPD*%
%LPC*%
G36*
X39182606Y66540100D02*
X39182606Y66540100D01*
X38917600Y66805106D01*
X38917600Y67179891D01*
X39182606Y67444897D01*
X39557391Y67444897D01*
X39822397Y67179891D01*
X39822397Y66805106D01*
X39557391Y66540100D01*
X39182606Y66540100D01*
G37*
%LPD*%
%LPC*%
G36*
X46485106Y57332600D02*
X46485106Y57332600D01*
X46220100Y57597606D01*
X46220100Y57972391D01*
X46485106Y58237397D01*
X46859891Y58237397D01*
X47124897Y57972391D01*
X47124897Y57597606D01*
X46859891Y57332600D01*
X46485106Y57332600D01*
G37*
%LPD*%
%LPC*%
G36*
X8385106Y57332600D02*
X8385106Y57332600D01*
X8120100Y57597606D01*
X8120100Y57972391D01*
X8385106Y58237397D01*
X8759891Y58237397D01*
X9024897Y57972391D01*
X9024897Y57597606D01*
X8759891Y57332600D01*
X8385106Y57332600D01*
G37*
%LPD*%
%LPC*%
G36*
X33785106Y56856400D02*
X33785106Y56856400D01*
X33520100Y57121406D01*
X33520100Y57496191D01*
X33785106Y57761197D01*
X34159891Y57761197D01*
X34424897Y57496191D01*
X34424897Y57121406D01*
X34159891Y56856400D01*
X33785106Y56856400D01*
G37*
%LPD*%
%LPC*%
G36*
X7115106Y56697600D02*
X7115106Y56697600D01*
X6850100Y56962606D01*
X6850100Y57337391D01*
X7115106Y57602397D01*
X7489891Y57602397D01*
X7754897Y57337391D01*
X7754897Y56962606D01*
X7489891Y56697600D01*
X7115106Y56697600D01*
G37*
%LPD*%
%LPC*%
G36*
X47120106Y63047600D02*
X47120106Y63047600D01*
X46855100Y63312606D01*
X46855100Y63687391D01*
X47120106Y63952397D01*
X47494891Y63952397D01*
X47759897Y63687391D01*
X47759897Y63312606D01*
X47494891Y63047600D01*
X47120106Y63047600D01*
G37*
%LPD*%
%LPC*%
G36*
X12830106Y56062600D02*
X12830106Y56062600D01*
X12565100Y56327606D01*
X12565100Y56702391D01*
X12830106Y56967397D01*
X13204891Y56967397D01*
X13469897Y56702391D01*
X13469897Y56327606D01*
X13204891Y56062600D01*
X12830106Y56062600D01*
G37*
%LPD*%
%LPC*%
G36*
X16957606Y67175100D02*
X16957606Y67175100D01*
X16692600Y67440106D01*
X16692600Y67814891D01*
X16957606Y68079897D01*
X17332391Y68079897D01*
X17597397Y67814891D01*
X17597397Y67440106D01*
X17332391Y67175100D01*
X16957606Y67175100D01*
G37*
%LPD*%
%LPC*%
G36*
X9020106Y55427600D02*
X9020106Y55427600D01*
X8755100Y55692606D01*
X8755100Y56067391D01*
X9020106Y56332397D01*
X9394891Y56332397D01*
X9659897Y56067391D01*
X9659897Y55692606D01*
X9394891Y55427600D01*
X9020106Y55427600D01*
G37*
%LPD*%
%LPC*%
G36*
X52993906Y55268900D02*
X52993906Y55268900D01*
X52728900Y55533906D01*
X52728900Y55908691D01*
X52993906Y56173697D01*
X53368691Y56173697D01*
X53633697Y55908691D01*
X53633697Y55533906D01*
X53368691Y55268900D01*
X52993906Y55268900D01*
G37*
%LPD*%
%LPC*%
G36*
X31721406Y55110200D02*
X31721406Y55110200D01*
X31456400Y55375206D01*
X31456400Y55749991D01*
X31721406Y56014997D01*
X32096191Y56014997D01*
X32361197Y55749991D01*
X32361197Y55375206D01*
X32096191Y55110200D01*
X31721406Y55110200D01*
G37*
%LPD*%
%LPC*%
G36*
X38230106Y54951400D02*
X38230106Y54951400D01*
X37965100Y55216406D01*
X37965100Y55591191D01*
X38230106Y55856197D01*
X38604891Y55856197D01*
X38869897Y55591191D01*
X38869897Y55216406D01*
X38604891Y54951400D01*
X38230106Y54951400D01*
G37*
%LPD*%
%LPC*%
G36*
X7750106Y54792600D02*
X7750106Y54792600D01*
X7485100Y55057606D01*
X7485100Y55432391D01*
X7750106Y55697397D01*
X8124891Y55697397D01*
X8389897Y55432391D01*
X8389897Y55057606D01*
X8124891Y54792600D01*
X7750106Y54792600D01*
G37*
%LPD*%
%LPC*%
G36*
X20767706Y67492600D02*
X20767706Y67492600D01*
X20502700Y67757606D01*
X20502700Y68132391D01*
X20767706Y68397397D01*
X21142491Y68397397D01*
X21407497Y68132391D01*
X21407497Y67757606D01*
X21142491Y67492600D01*
X20767706Y67492600D01*
G37*
%LPD*%
%LPC*%
G36*
X53628906Y54157600D02*
X53628906Y54157600D01*
X53363900Y54422606D01*
X53363900Y54797391D01*
X53628906Y55062397D01*
X54003691Y55062397D01*
X54268697Y54797391D01*
X54268697Y54422606D01*
X54003691Y54157600D01*
X53628906Y54157600D01*
G37*
%LPD*%
%LPC*%
G36*
X37753806Y67968900D02*
X37753806Y67968900D01*
X37488800Y68233906D01*
X37488800Y68608691D01*
X37753806Y68873697D01*
X38128591Y68873697D01*
X38393597Y68608691D01*
X38393597Y68233906D01*
X38128591Y67968900D01*
X37753806Y67968900D01*
G37*
%LPD*%
%LPC*%
G36*
X25371406Y68127600D02*
X25371406Y68127600D01*
X25106400Y68392606D01*
X25106400Y68767391D01*
X25371406Y69032397D01*
X25746191Y69032397D01*
X26011197Y68767391D01*
X26011197Y68392606D01*
X25746191Y68127600D01*
X25371406Y68127600D01*
G37*
%LPD*%
%LPC*%
G36*
X12988806Y68127600D02*
X12988806Y68127600D01*
X12723800Y68392606D01*
X12723800Y68767391D01*
X12988806Y69032397D01*
X13363591Y69032397D01*
X13628597Y68767391D01*
X13628597Y68392606D01*
X13363591Y68127600D01*
X12988806Y68127600D01*
G37*
%LPD*%
%LPC*%
G36*
X28228906Y53046400D02*
X28228906Y53046400D01*
X27963900Y53311406D01*
X27963900Y53686191D01*
X28228906Y53951197D01*
X28603691Y53951197D01*
X28868697Y53686191D01*
X28868697Y53311406D01*
X28603691Y53046400D01*
X28228906Y53046400D01*
G37*
%LPD*%
%LPC*%
G36*
X32197606Y52570100D02*
X32197606Y52570100D01*
X31932600Y52835106D01*
X31932600Y53209891D01*
X32197606Y53474897D01*
X32572391Y53474897D01*
X32837397Y53209891D01*
X32837397Y52835106D01*
X32572391Y52570100D01*
X32197606Y52570100D01*
G37*
%LPD*%
%LPC*%
G36*
X56010106Y52093800D02*
X56010106Y52093800D01*
X55745100Y52358806D01*
X55745100Y52733591D01*
X56010106Y52998597D01*
X56384891Y52998597D01*
X56649897Y52733591D01*
X56649897Y52358806D01*
X56384891Y52093800D01*
X56010106Y52093800D01*
G37*
%LPD*%
%LPC*%
G36*
X11242606Y51617600D02*
X11242606Y51617600D01*
X10977600Y51882606D01*
X10977600Y52257391D01*
X11242606Y52522397D01*
X11617391Y52522397D01*
X11882397Y52257391D01*
X11882397Y51882606D01*
X11617391Y51617600D01*
X11242606Y51617600D01*
G37*
%LPD*%
%LPC*%
G36*
X39976406Y51141400D02*
X39976406Y51141400D01*
X39711400Y51406406D01*
X39711400Y51781191D01*
X39976406Y52046197D01*
X40351191Y52046197D01*
X40616197Y51781191D01*
X40616197Y51406406D01*
X40351191Y51141400D01*
X39976406Y51141400D01*
G37*
%LPD*%
%LPC*%
G36*
X36642606Y50823900D02*
X36642606Y50823900D01*
X36377600Y51088906D01*
X36377600Y51463691D01*
X36642606Y51728697D01*
X37017391Y51728697D01*
X37282397Y51463691D01*
X37282397Y51088906D01*
X37017391Y50823900D01*
X36642606Y50823900D01*
G37*
%LPD*%
%LPC*%
G36*
X27435106Y50823900D02*
X27435106Y50823900D01*
X27170100Y51088906D01*
X27170100Y51463691D01*
X27435106Y51728697D01*
X27809891Y51728697D01*
X28074897Y51463691D01*
X28074897Y51088906D01*
X27809891Y50823900D01*
X27435106Y50823900D01*
G37*
%LPD*%
%LPC*%
G36*
X15211406Y50347700D02*
X15211406Y50347700D01*
X14946400Y50612706D01*
X14946400Y50987491D01*
X15211406Y51252497D01*
X15586191Y51252497D01*
X15851197Y50987491D01*
X15851197Y50612706D01*
X15586191Y50347700D01*
X15211406Y50347700D01*
G37*
%LPD*%
%LPC*%
G36*
X12830106Y49712600D02*
X12830106Y49712600D01*
X12565100Y49977606D01*
X12565100Y50352391D01*
X12830106Y50617397D01*
X13204891Y50617397D01*
X13469897Y50352391D01*
X13469897Y49977606D01*
X13204891Y49712600D01*
X12830106Y49712600D01*
G37*
%LPD*%
%LPC*%
G36*
X22672606Y49712600D02*
X22672606Y49712600D01*
X22407600Y49977606D01*
X22407600Y50352391D01*
X22672606Y50617397D01*
X23047391Y50617397D01*
X23312397Y50352391D01*
X23312397Y49977606D01*
X23047391Y49712600D01*
X22672606Y49712600D01*
G37*
%LPD*%
%LPC*%
G36*
X35690106Y49553900D02*
X35690106Y49553900D01*
X35425100Y49818906D01*
X35425100Y50193691D01*
X35690106Y50458697D01*
X36064891Y50458697D01*
X36329897Y50193691D01*
X36329897Y49818906D01*
X36064891Y49553900D01*
X35690106Y49553900D01*
G37*
%LPD*%
%LPC*%
G36*
X19180106Y49236300D02*
X19180106Y49236300D01*
X18915100Y49501306D01*
X18915100Y49876091D01*
X19180106Y50141097D01*
X19554891Y50141097D01*
X19819897Y49876091D01*
X19819897Y49501306D01*
X19554891Y49236300D01*
X19180106Y49236300D01*
G37*
%LPD*%
%LPC*%
G36*
X36642606Y57650100D02*
X36642606Y57650100D01*
X36377600Y57915106D01*
X36377600Y58289891D01*
X36642606Y58554897D01*
X37017391Y58554897D01*
X37282397Y58289891D01*
X37282397Y57915106D01*
X37017391Y57650100D01*
X36642606Y57650100D01*
G37*
%LPD*%
%LPC*%
G36*
X8385106Y48760100D02*
X8385106Y48760100D01*
X8120100Y49025106D01*
X8120100Y49399891D01*
X8385106Y49664897D01*
X8759891Y49664897D01*
X9024897Y49399891D01*
X9024897Y49025106D01*
X8759891Y48760100D01*
X8385106Y48760100D01*
G37*
%LPD*%
%LPC*%
G36*
X19180106Y69715100D02*
X19180106Y69715100D01*
X18915100Y69980106D01*
X18915100Y70354891D01*
X19180106Y70619897D01*
X19554891Y70619897D01*
X19819897Y70354891D01*
X19819897Y69980106D01*
X19554891Y69715100D01*
X19180106Y69715100D01*
G37*
%LPD*%
%LPC*%
G36*
X32991406Y69873900D02*
X32991406Y69873900D01*
X32726400Y70138906D01*
X32726400Y70513691D01*
X32991406Y70778697D01*
X33366191Y70778697D01*
X33631197Y70513691D01*
X33631197Y70138906D01*
X33366191Y69873900D01*
X32991406Y69873900D01*
G37*
%LPD*%
%LPC*%
G36*
X36801406Y48125100D02*
X36801406Y48125100D01*
X36536400Y48390106D01*
X36536400Y48764891D01*
X36801406Y49029897D01*
X37176191Y49029897D01*
X37441197Y48764891D01*
X37441197Y48390106D01*
X37176191Y48125100D01*
X36801406Y48125100D01*
G37*
%LPD*%
%LPC*%
G36*
X26958706Y70350000D02*
X26958706Y70350000D01*
X26693700Y70615006D01*
X26693700Y70989791D01*
X26958706Y71254797D01*
X27333491Y71254797D01*
X27598497Y70989791D01*
X27598497Y70615006D01*
X27333491Y70350000D01*
X26958706Y70350000D01*
G37*
%LPD*%
%LPC*%
G36*
X38865106Y70350100D02*
X38865106Y70350100D01*
X38600100Y70615106D01*
X38600100Y70989891D01*
X38865106Y71254897D01*
X39239891Y71254897D01*
X39504897Y70989891D01*
X39504897Y70615106D01*
X39239891Y70350100D01*
X38865106Y70350100D01*
G37*
%LPD*%
%LPC*%
G36*
X17275106Y70350100D02*
X17275106Y70350100D01*
X17010100Y70615106D01*
X17010100Y70989891D01*
X17275106Y71254897D01*
X17649891Y71254897D01*
X17914897Y70989891D01*
X17914897Y70615106D01*
X17649891Y70350100D01*
X17275106Y70350100D01*
G37*
%LPD*%
%LPC*%
G36*
X34737606Y46696400D02*
X34737606Y46696400D01*
X34472600Y46961406D01*
X34472600Y47336191D01*
X34737606Y47601197D01*
X35112391Y47601197D01*
X35377397Y47336191D01*
X35377397Y46961406D01*
X35112391Y46696400D01*
X34737606Y46696400D01*
G37*
%LPD*%
%LPC*%
G36*
X4892606Y70667600D02*
X4892606Y70667600D01*
X4627600Y70932606D01*
X4627600Y71307391D01*
X4892606Y71572397D01*
X5267391Y71572397D01*
X5532397Y71307391D01*
X5532397Y70932606D01*
X5267391Y70667600D01*
X4892606Y70667600D01*
G37*
%LPD*%
%LPC*%
G36*
X22672706Y70826400D02*
X22672706Y70826400D01*
X22407700Y71091406D01*
X22407700Y71466191D01*
X22672706Y71731197D01*
X23047491Y71731197D01*
X23312497Y71466191D01*
X23312497Y71091406D01*
X23047491Y70826400D01*
X22672706Y70826400D01*
G37*
%LPD*%
%LPC*%
G36*
X10607606Y45743800D02*
X10607606Y45743800D01*
X10342600Y46008806D01*
X10342600Y46383591D01*
X10607606Y46648597D01*
X10982391Y46648597D01*
X11247397Y46383591D01*
X11247397Y46008806D01*
X10982391Y45743800D01*
X10607606Y45743800D01*
G37*
%LPD*%
%LPC*%
G36*
X55692606Y45267600D02*
X55692606Y45267600D01*
X55427600Y45532606D01*
X55427600Y45907391D01*
X55692606Y46172397D01*
X56067391Y46172397D01*
X56332397Y45907391D01*
X56332397Y45532606D01*
X56067391Y45267600D01*
X55692606Y45267600D01*
G37*
%LPD*%
%LPC*%
G36*
X25688906Y44315200D02*
X25688906Y44315200D01*
X25423900Y44580206D01*
X25423900Y44954991D01*
X25688906Y45219997D01*
X26063691Y45219997D01*
X26328697Y44954991D01*
X26328697Y44580206D01*
X26063691Y44315200D01*
X25688906Y44315200D01*
G37*
%LPD*%
%LPC*%
G36*
X45532606Y44315100D02*
X45532606Y44315100D01*
X45267600Y44580106D01*
X45267600Y44954891D01*
X45532606Y45219897D01*
X45907391Y45219897D01*
X46172397Y44954891D01*
X46172397Y44580106D01*
X45907391Y44315100D01*
X45532606Y44315100D01*
G37*
%LPD*%
%LPC*%
G36*
X50612606Y44315100D02*
X50612606Y44315100D01*
X50347600Y44580106D01*
X50347600Y44954891D01*
X50612606Y45219897D01*
X50987391Y45219897D01*
X51252397Y44954891D01*
X51252397Y44580106D01*
X50987391Y44315100D01*
X50612606Y44315100D01*
G37*
%LPD*%
%LPC*%
G36*
X40452606Y44315100D02*
X40452606Y44315100D01*
X40187600Y44580106D01*
X40187600Y44954891D01*
X40452606Y45219897D01*
X40827391Y45219897D01*
X41092397Y44954891D01*
X41092397Y44580106D01*
X40827391Y44315100D01*
X40452606Y44315100D01*
G37*
%LPD*%
%LPC*%
G36*
X52178194Y67213194D02*
X52178194Y67213194D01*
X52178194Y67895369D01*
X52239847Y67883106D01*
X52405094Y67814659D01*
X52553828Y67715278D01*
X52680278Y67588828D01*
X52779659Y67440094D01*
X52848106Y67274847D01*
X52860369Y67213194D01*
X52178194Y67213194D01*
G37*
%LPD*%
%LPC*%
G36*
X48368194Y69753194D02*
X48368194Y69753194D01*
X48368194Y70435369D01*
X48429847Y70423106D01*
X48595094Y70354659D01*
X48743828Y70255278D01*
X48870278Y70128828D01*
X48969659Y69980094D01*
X49038106Y69814847D01*
X49050369Y69753194D01*
X48368194Y69753194D01*
G37*
%LPD*%
%LPC*%
G36*
X52178194Y66806800D02*
X52178194Y66806800D01*
X52860369Y66806800D01*
X52848106Y66745150D01*
X52779659Y66579903D01*
X52680278Y66431169D01*
X52553828Y66304719D01*
X52405094Y66205338D01*
X52239850Y66136891D01*
X52178194Y66124628D01*
X52178194Y66806800D01*
G37*
%LPD*%
%LPC*%
G36*
X47279628Y69753194D02*
X47279628Y69753194D01*
X47291891Y69814850D01*
X47360338Y69980094D01*
X47459719Y70128828D01*
X47586169Y70255278D01*
X47734903Y70354659D01*
X47900150Y70423106D01*
X47961800Y70435369D01*
X47961800Y69753194D01*
X47279628Y69753194D01*
G37*
%LPD*%
%LPC*%
G36*
X48368194Y69346800D02*
X48368194Y69346800D01*
X49050369Y69346800D01*
X49038106Y69285150D01*
X48969659Y69119903D01*
X48870278Y68971169D01*
X48743828Y68844719D01*
X48595094Y68745338D01*
X48429850Y68676891D01*
X48368194Y68664628D01*
X48368194Y69346800D01*
G37*
%LPD*%
%LPC*%
G36*
X51089628Y67213194D02*
X51089628Y67213194D01*
X51101891Y67274850D01*
X51170338Y67440094D01*
X51269719Y67588828D01*
X51396169Y67715278D01*
X51544903Y67814659D01*
X51710150Y67883106D01*
X51771800Y67895369D01*
X51771800Y67213194D01*
X51089628Y67213194D01*
G37*
%LPD*%
%LPC*%
G36*
X51710147Y66136891D02*
X51710147Y66136891D01*
X51544903Y66205338D01*
X51396169Y66304719D01*
X51269719Y66431169D01*
X51170338Y66579903D01*
X51101891Y66745147D01*
X51089628Y66806800D01*
X51771800Y66806800D01*
X51771800Y66124628D01*
X51710147Y66136891D01*
G37*
%LPD*%
%LPC*%
G36*
X47900147Y68676891D02*
X47900147Y68676891D01*
X47734903Y68745338D01*
X47586169Y68844719D01*
X47459719Y68971169D01*
X47360338Y69119903D01*
X47291891Y69285147D01*
X47279628Y69346800D01*
X47961800Y69346800D01*
X47961800Y68664628D01*
X47900147Y68676891D01*
G37*
%LPD*%
%LPC*%
G36*
X51974984Y67009984D02*
X51974984Y67009984D01*
X51974984Y67010013D01*
X51975013Y67010013D01*
X51975013Y67009984D01*
X51974984Y67009984D01*
G37*
%LPD*%
%LPC*%
G36*
X48164984Y69549984D02*
X48164984Y69549984D01*
X48164984Y69550013D01*
X48165013Y69550013D01*
X48165013Y69549984D01*
X48164984Y69549984D01*
G37*
%LPD*%
D10*
X4770000Y41230000D03*
X2230000Y41230000D03*
X4770000Y43770000D03*
X2230000Y43770000D03*
X4770000Y46310000D03*
X2230000Y46310000D03*
X4770000Y48850000D03*
X2230000Y48850000D03*
X4770000Y51390000D03*
X2230000Y51390000D03*
X4770000Y53930000D03*
X2230000Y53930000D03*
X4770000Y56470000D03*
X2230000Y56470000D03*
X4770000Y59010000D03*
X2230000Y59010000D03*
X4770000Y61550000D03*
X2230000Y61550000D03*
X4770000Y64090000D03*
X2230000Y64090000D03*
X4770000Y66630000D03*
X2230000Y66630000D03*
X4770000Y38690000D03*
X2230000Y38690000D03*
X2230000Y36150000D03*
X4770000Y36150000D03*
X4770000Y33610000D03*
X2230000Y33610000D03*
X2230000Y31070000D03*
X4770000Y31070000D03*
X4770000Y28530000D03*
X2230000Y28530000D03*
X2230000Y25990000D03*
X4770000Y25990000D03*
X4770000Y23450000D03*
X2230000Y23450000D03*
X2230000Y20910000D03*
X4770000Y20910000D03*
X4770000Y18370000D03*
X2230000Y18370000D03*
D11*
X55429400Y79964000D03*
X42170600Y79964000D03*
X44710600Y79964000D03*
X52889400Y79964000D03*
D12*
X56547000Y72852000D03*
X41053000Y72852000D03*
D11*
X53245000Y69550000D03*
X50705000Y69550000D03*
X48165000Y69550000D03*
X45625000Y69550000D03*
X51975000Y67010000D03*
X49435000Y67010000D03*
X46895000Y67010000D03*
X44355000Y67010000D03*
D13*
X34450000Y6550000D03*
X39550000Y6550000D03*
X39550000Y1450000D03*
X34450000Y1450000D03*
D14*
X37000000Y4000000D03*
D13*
X16450000Y6550000D03*
X21550000Y6550000D03*
X21550000Y1450000D03*
X16450000Y1450000D03*
D14*
X19000000Y4000000D03*
D15*
X43656400Y51593800D03*
X36512500Y68421400D03*
X47307700Y61753800D03*
X44609000Y64452500D03*
X39052800Y61436300D03*
X37623500Y64770000D03*
X56197500Y49053800D03*
X21590000Y82549800D03*
X18414900Y79533500D03*
X22859800Y72231000D03*
X25241100Y70802300D03*
X57309000Y57467400D03*
X57309000Y56038700D03*
X35401300Y67310000D03*
X35401300Y65405000D03*
X7143600Y69214800D03*
X13811100Y70008600D03*
X22859800Y69532300D03*
X31909100Y59213800D03*
X32385300Y54768900D03*
X27622900Y64452600D03*
X14129200Y64135100D03*
X11748000Y46037600D03*
X29368700Y44767500D03*
X38735000Y82232700D03*
X20637500Y82232300D03*
X50165000Y53657600D03*
X15875000Y26828700D03*
X14605000Y26034900D03*
X14922500Y21907400D03*
X29686200Y31908700D03*
X37941200Y31908700D03*
X37306200Y33337400D03*
X30321200Y33337400D03*
X18415000Y30797500D03*
X53181300Y55721300D03*
X40163800Y51593800D03*
X40481300Y59690000D03*
X37941200Y68421300D03*
X43815000Y61436200D03*
X56197500Y52546200D03*
X10477500Y79375000D03*
X19367400Y76993700D03*
X7937500Y76200000D03*
X11430000Y74771300D03*
X7302500Y72866300D03*
X35242400Y77469900D03*
X32226100Y80168700D03*
X28257300Y79533600D03*
X32226100Y73342400D03*
X27146100Y70802400D03*
X21748800Y72707500D03*
X30797500Y83661200D03*
X35877500Y16827400D03*
X13493700Y34131100D03*
X13493700Y33019800D03*
X33813700Y34289900D03*
X57308800Y54609900D03*
X57308800Y59054900D03*
X57308800Y60483600D03*
X57308800Y61912400D03*
X57308800Y63341100D03*
X56832700Y1905100D03*
X44767700Y1905100D03*
X50800000Y44767500D03*
X35877500Y15557400D03*
X35877500Y13017400D03*
X35877500Y11747400D03*
X34607500Y16827400D03*
X34607500Y15557400D03*
X34607500Y14287400D03*
X34607500Y13017400D03*
X34607500Y11747400D03*
X34607500Y10477400D03*
X38417500Y16827400D03*
X38417500Y15557400D03*
X38417500Y14287400D03*
X38417500Y13017400D03*
X38417500Y11747400D03*
X38417500Y10477400D03*
X39687500Y10477400D03*
X39687500Y11747400D03*
X39687500Y13017400D03*
X40640000Y13017400D03*
X39687500Y14287400D03*
X39687500Y15557400D03*
X39687500Y16827400D03*
X20478700Y16827400D03*
X20478700Y15557400D03*
X20478700Y14287400D03*
X20478700Y13017400D03*
X20478700Y11747400D03*
X20478700Y10477400D03*
X21748700Y10477400D03*
X21748700Y11747400D03*
X21748700Y13017400D03*
X21748700Y14287400D03*
X21748700Y15557400D03*
X21748700Y16827400D03*
X17938700Y16827400D03*
X17938700Y15557400D03*
X17938700Y13017400D03*
X17938700Y11747400D03*
X16668700Y16827400D03*
X16668700Y15557400D03*
X16668700Y14287400D03*
X16668700Y13017400D03*
X16668700Y11747400D03*
X16668700Y10477400D03*
X39687500Y18097400D03*
X39687500Y19367400D03*
X39687500Y20637400D03*
X39370000Y21907400D03*
X39370000Y23177400D03*
X39370000Y24447400D03*
X38100000Y24447400D03*
X39370000Y25717400D03*
X38417500Y17780000D03*
X38417500Y18732500D03*
X38417500Y19685000D03*
X38417500Y20637500D03*
X38417500Y21590000D03*
X35877500Y17780000D03*
X35877500Y18732500D03*
X35877500Y19685000D03*
X35877500Y20637500D03*
X35877500Y21590000D03*
X35401200Y22383700D03*
X34607500Y22860000D03*
X38258700Y22383800D03*
X37941200Y23177500D03*
X37306300Y23971200D03*
X36671300Y24606200D03*
X35877500Y24765000D03*
X26987500Y18097500D03*
X27940000Y18097500D03*
X28892500Y18097500D03*
X29845000Y18097500D03*
X30797500Y18097500D03*
X31591300Y18256300D03*
X32385000Y18573800D03*
X33178700Y19208700D03*
X33813700Y20002400D03*
X34131200Y21113800D03*
X34131200Y22066300D03*
X26193700Y20637500D03*
X27146200Y20637500D03*
X28098700Y20637500D03*
X29051200Y20637500D03*
X30003700Y20637500D03*
X30956200Y20796300D03*
X26035000Y18097500D03*
X25082500Y18097500D03*
X24130000Y18097500D03*
X23177500Y18097500D03*
X22225000Y18097500D03*
X20955000Y17938700D03*
X25241200Y20637500D03*
X24288700Y20637500D03*
X23336200Y20637500D03*
X22383700Y20637500D03*
X21431200Y20637500D03*
X20637400Y20478700D03*
X19843700Y20161200D03*
X19050000Y19526300D03*
X18415000Y18732600D03*
X18097500Y17621200D03*
X27940000Y13652500D03*
X25400000Y13652500D03*
X33020000Y11112500D03*
X30480000Y11112500D03*
X30480000Y8572500D03*
X30480000Y6032500D03*
X27940000Y6032500D03*
X25400000Y8572500D03*
X25400000Y6032500D03*
X27940000Y11112500D03*
X25400000Y11112500D03*
X12700000Y11112500D03*
X12700000Y8572500D03*
X12700000Y6032500D03*
X10160000Y6032500D03*
X12700000Y13652500D03*
X10160000Y11112500D03*
X22860000Y11112500D03*
X22860000Y13652500D03*
X22860000Y16192500D03*
X25400000Y16192500D03*
X30480000Y13652500D03*
X33020000Y13652500D03*
X33020000Y16192500D03*
X30480000Y16192500D03*
X27940000Y16192500D03*
X15240000Y11112500D03*
X15240000Y13652500D03*
X10160000Y13652500D03*
X10160000Y16192500D03*
X12700000Y16192500D03*
X15240000Y16192500D03*
X16033700Y18097500D03*
X14605000Y18097500D03*
X12700000Y18732500D03*
X10160000Y18732500D03*
X25717400Y23018700D03*
X24447400Y23018700D03*
X22224900Y23018700D03*
X20954900Y23018700D03*
X27939900Y23018700D03*
X26828700Y25400000D03*
X27939900Y25400000D03*
X23336100Y25400000D03*
X22066100Y25400000D03*
X20796100Y25400000D03*
X19843600Y25400000D03*
X23336100Y26828800D03*
X26828600Y26828700D03*
X24447400Y26828800D03*
X25717400Y26828800D03*
X27939800Y26828700D03*
X29527300Y26828700D03*
X22066100Y26828800D03*
X27939900Y21748700D03*
X29051200Y21748700D03*
X25717400Y21748700D03*
X24447400Y21748700D03*
X22224900Y21748700D03*
X20954900Y21748700D03*
X23336100Y21748700D03*
X26828600Y21748700D03*
X10160000Y26352500D03*
X10160000Y28892500D03*
X10160000Y31432500D03*
X10160000Y33972500D03*
X10160000Y36195000D03*
X39370000Y26987400D03*
X25399900Y28733800D03*
X22859900Y28733800D03*
X25399900Y30003800D03*
X27939900Y28733800D03*
X35877300Y28575100D03*
X39369900Y28733800D03*
X39369900Y31273800D03*
X39369900Y33813800D03*
X39369900Y36353800D03*
X39369900Y38893800D03*
X36829900Y38893800D03*
X34607400Y38893800D03*
X36829900Y36353800D03*
X36829900Y34448700D03*
X29209900Y33813800D03*
X29209900Y36353800D03*
X29209900Y38893800D03*
X26669900Y33813800D03*
X21589900Y34131300D03*
X19049900Y34131300D03*
X21589900Y36353800D03*
X19049900Y36353800D03*
X19049900Y38893800D03*
X14922500Y31750000D03*
X13493700Y30638700D03*
X15239900Y34131200D03*
X10159900Y21431300D03*
X10160000Y22860000D03*
X10160000Y24288700D03*
X53022500Y28892500D03*
X13176300Y71596300D03*
X29527500Y64452500D03*
X53022500Y3492500D03*
X47942500Y3492500D03*
X36988500Y28575100D03*
X20478700Y83820000D03*
X33972500Y57308800D03*
X34925000Y47148800D03*
X32385000Y53022500D03*
X31908800Y55562600D03*
X14446100Y64928700D03*
X18415100Y72707500D03*
X20955100Y67945000D03*
X25876300Y44767600D03*
X25400000Y47625000D03*
X10795000Y46196200D03*
X40004900Y74294900D03*
X16351200Y80010000D03*
X22860100Y71278800D03*
X49847500Y25717500D03*
X53022500Y22542500D03*
X56197500Y25717500D03*
X19367500Y49688700D03*
X45720000Y44767500D03*
X55880000Y45720000D03*
X50800000Y40640000D03*
X45720000Y40640000D03*
X40640000Y44767500D03*
X25558800Y68580000D03*
X33178800Y70326300D03*
X10160000Y66040000D03*
X5080000Y71120000D03*
X10160000Y60960000D03*
X5080000Y15240000D03*
X45720000Y10160000D03*
X50800000Y10160000D03*
X55880000Y10160000D03*
X15239900Y38893800D03*
X11112400Y38893800D03*
X56832500Y6350000D03*
X15557500Y73025000D03*
X27463700Y54133800D03*
X46037500Y7620000D03*
X17145000Y67627500D03*
X13970000Y62230000D03*
X14605000Y61595000D03*
X21590000Y53340000D03*
X6032500Y53340000D03*
X22225000Y52705000D03*
X22860000Y50165000D03*
X18415000Y51435000D03*
X8572500Y49212500D03*
X17780000Y50800000D03*
X17780000Y49530000D03*
X22860000Y54610000D03*
X6667500Y53975000D03*
X22225000Y55245000D03*
X21590000Y55880000D03*
X7937500Y55245000D03*
X20955000Y56515000D03*
X9207500Y55880000D03*
X20320000Y57150000D03*
X7302500Y57150000D03*
X19685000Y57785000D03*
X8572500Y57785000D03*
X19050000Y58420000D03*
X9842500Y58420000D03*
X18415000Y59055000D03*
X10477500Y59055000D03*
X17780000Y59690000D03*
X11112500Y59690000D03*
X17145000Y48895000D03*
X13017500Y56515000D03*
X15398800Y50800100D03*
X28416300Y53498800D03*
X46672500Y57785000D03*
D16*
X26670000Y38735000D02*
X23177500Y35242500D01*
X7937500Y35242500D01*
X5715000Y37465000D01*
X635000Y37465000D01*
D15*
X28416200Y82549900D03*
X32385000Y82232500D03*
X26670000Y38735000D03*
X16192500Y77470000D03*
X32385000Y74612500D03*
X11430000Y76835000D03*
X635000Y37465000D03*
X24130000Y65722500D03*
X26828700Y52069900D03*
X23495000Y66357500D03*
X26193700Y52705000D03*
X28257500Y49530000D03*
X36988800Y48577500D03*
X36830000Y51276300D03*
X27622500Y51276300D03*
X35877500Y50006300D03*
X22860000Y63500000D03*
X36036200Y53975000D03*
X28257500Y57150000D03*
X36036200Y53022500D03*
X27622500Y56515000D03*
X37147500Y55721300D03*
X28257500Y58420000D03*
X37147500Y54768800D03*
X27622500Y57785000D03*
X38417500Y55403800D03*
X35560000Y60960000D03*
X25400000Y62865000D03*
X36512500Y56356300D03*
X27940000Y59690000D03*
X36830000Y58102500D03*
X28098800Y54768800D03*
X45085000Y58420000D03*
X36195000Y61595000D03*
X47307500Y63500000D03*
X47625000Y58420000D03*
X37465000Y61595000D03*
X31432500Y47307500D03*
X31432500Y44767500D03*
X43180000Y60642500D03*
X53816300Y61912500D03*
X53816300Y54610000D03*
X39370000Y66992500D03*
X50165000Y57785000D03*
X50165000Y56832500D03*
X50165000Y55880000D03*
X50165000Y54927500D03*
X38735000Y72390000D03*
X39052500Y70802500D03*
X15557500Y72072500D03*
X16827500Y72072500D03*
X15557500Y71120000D03*
X17462500Y70802500D03*
X15557500Y70167500D03*
X19367500Y70167500D03*
D17*
X17621200Y26828800D02*
X17621200Y26828700D01*
X17621200Y26828800D02*
X16827500Y27622500D01*
X13970000Y22383700D02*
X13969900Y22225000D01*
X13970000Y22383700D02*
X13970000Y26352500D01*
X15240000Y27622500D01*
X16827500Y27622500D01*
D15*
X17621200Y26828700D03*
X13969900Y22225000D03*
D17*
X32226200Y27304900D02*
X33655000Y28733700D01*
X33655000Y31908700D01*
D15*
X32226200Y27304900D03*
X33655000Y31908700D03*
D17*
X31591200Y23177500D02*
X30638700Y22225000D01*
X31591200Y23177500D02*
X31591200Y24606200D01*
X34290000Y27305000D01*
X34290000Y31273700D01*
D15*
X30638700Y22225000D03*
X34290000Y31273700D03*
D17*
X33020000Y29368800D02*
X30956200Y27305000D01*
X33020000Y29368800D02*
X33020000Y31273700D01*
D15*
X30956200Y27305000D03*
X33020000Y31273700D03*
D17*
X32067500Y24288700D02*
X32067500Y21748800D01*
X31750000Y21431300D01*
X32067500Y24288700D02*
X35083700Y27305000D01*
X35083800Y30797400D01*
D15*
X31750000Y21431300D03*
X35083800Y30797400D03*
D17*
X33337500Y37464900D02*
X30162500Y40640000D01*
X30162500Y42545000D01*
D15*
X33337500Y37464900D03*
X30162500Y47307500D03*
X30162500Y42545000D03*
D17*
X30797500Y40957500D02*
X34290000Y37464900D01*
X30797500Y40957500D02*
X30797500Y41910000D01*
D15*
X34290000Y37464900D03*
X30797500Y47942500D03*
X30797500Y41910000D03*
D17*
X28575000Y41275000D02*
X32385000Y37464900D01*
X28575000Y41275000D02*
X28575000Y41910000D01*
D15*
X32385000Y37464900D03*
X27463700Y49530000D03*
X28575000Y41910000D03*
D17*
X32067500Y40640000D02*
X35242500Y37464900D01*
X32067500Y40640000D02*
X32067500Y41910000D01*
D15*
X35242500Y37464900D03*
X32067500Y47942500D03*
X32067500Y41910000D03*
D17*
X17938700Y25558700D02*
X17938700Y20955000D01*
X17938700Y25558700D02*
X19685000Y27305000D01*
X19685000Y30797500D01*
D15*
X17938700Y20955000D03*
X19685000Y30797500D03*
D17*
X17145000Y25400000D02*
X17145000Y20796200D01*
X17145000Y25400000D02*
X18415000Y26670000D01*
X17780000Y30162500D02*
X17780000Y31432500D01*
X17780000Y30162500D02*
X18415000Y29527500D01*
X18415000Y26670000D01*
D15*
X17145000Y20796200D03*
X17780000Y31432500D03*
D17*
X18573700Y25558700D02*
X18573700Y21590000D01*
X18573700Y25558700D02*
X20320000Y27305000D01*
X20320000Y31432500D01*
D15*
X18573700Y21590000D03*
X20320000Y31432500D03*
D17*
X19050000Y21907500D02*
X19367500Y21590000D01*
X19050000Y21907500D02*
X19050000Y25400000D01*
X20955000Y27305000D01*
X20955000Y30797500D01*
D15*
X19367500Y21590000D03*
X20955000Y30797500D03*
D17*
X18256200Y36830000D02*
X21272500Y39846300D01*
X21272500Y41910000D01*
D15*
X18256200Y36830000D03*
X21272500Y41910000D03*
D17*
X14287500Y36830000D02*
X14128700Y36671200D01*
X14287500Y36830000D02*
X14287500Y42227500D01*
D15*
X14128700Y36671200D03*
X14287500Y42227500D03*
D17*
X13017500Y37306200D02*
X12382500Y36671200D01*
X13017500Y37306200D02*
X13017500Y41592500D01*
D15*
X12382500Y36671200D03*
X13017500Y41592500D03*
X24130000Y48577500D03*
X21590000Y64135000D03*
X13017500Y50165000D03*
X25082500Y48577500D03*
X22225000Y64770000D03*
X19050000Y52070000D03*
X11430000Y52070000D03*
X19685000Y51435000D03*
D17*
X18415000Y37941300D02*
X17303700Y36830000D01*
X18415000Y37941300D02*
X18415000Y42862500D01*
D15*
X17303700Y36830000D03*
X18415000Y42862500D03*
D17*
X17145000Y38576300D02*
X15398700Y36830000D01*
X17145000Y38576300D02*
X17145000Y43497500D01*
X17462500Y43815000D01*
D15*
X15398700Y36830000D03*
X17462500Y43815000D03*
D17*
X17780000Y38258800D02*
X16351200Y36830000D01*
X17780000Y38258800D02*
X17780000Y43180000D01*
X18415000Y43815000D01*
D15*
X16351200Y36830000D03*
X18415000Y43815000D03*
D17*
X22860000Y41910000D02*
X22860000Y37623700D01*
D15*
X22860000Y37623700D03*
X22860000Y41910000D03*
X28892500Y80962500D03*
X36195000Y76517500D03*
X29845000Y80962500D03*
X36195000Y78422500D03*
X27622500Y80645000D03*
X36195000Y80962500D03*
X13176200Y68580000D03*
X17938700Y47625000D03*
X18573800Y48260000D03*
X12382500Y66675000D03*
X32702500Y48577500D03*
X42545000Y37465000D03*
D17*
X16827500Y31432500D02*
X16827500Y29686300D01*
X16827500Y31432500D02*
X17462500Y32067500D01*
X13335000Y20637400D02*
X13652500Y20320000D01*
X13335000Y20637400D02*
X13335000Y28575000D01*
X17462500Y32702500D01*
X12541300Y28416300D02*
X12541300Y25241300D01*
X12541300Y28416300D02*
X17462500Y33337500D01*
X17462500Y32067500D02*
X22225000Y32067500D01*
X21590000Y32702500D02*
X17462500Y32702500D01*
X21590000Y32702500D02*
X22225000Y32067500D01*
X21907500Y33337500D02*
X17462500Y33337500D01*
X21907500Y33337500D02*
X22225000Y33020000D01*
X22225000Y32067500D01*
D15*
X16827500Y29686300D03*
X13652500Y20320000D03*
X12541300Y25241300D03*
X22225000Y32067500D03*
D17*
X31432500Y22225000D02*
X31432500Y22066200D01*
X30956300Y21590000D01*
X30321300Y21590000D01*
X29368800Y22542500D01*
X29368800Y25717500D02*
X28892500Y26193800D01*
X29368800Y25717500D02*
X29368800Y22542500D01*
X38258800Y26035000D02*
X38258800Y28575000D01*
X34131300Y32702500D01*
X32385000Y30638800D02*
X31750000Y31273800D01*
X29368700Y31273800D02*
X28575000Y32067500D01*
X29368700Y31273800D02*
X31750000Y31273800D01*
X28892500Y29527500D02*
X28892500Y26193800D01*
X28892500Y29527500D02*
X28575000Y29845000D01*
X28575000Y31115000D01*
X28575000Y32067500D01*
X29051200Y30638800D02*
X30797500Y30638800D01*
X29051200Y30638800D02*
X28575000Y31115000D01*
X29210000Y32702500D02*
X34131300Y32702500D01*
X29210000Y32702500D02*
X28575000Y32067500D01*
D15*
X31432500Y22225000D03*
X29368800Y25717500D03*
X38258800Y26035000D03*
X30797500Y30638800D03*
X32385000Y30638800D03*
X28575000Y32067500D03*
M02*
