G04 EAGLE Gerber X2 export*
%TF.Part,Single*%
%TF.FileFunction,Paste,Top*%
%TF.FilePolarity,Positive*%
%TF.GenerationSoftware,Autodesk,EAGLE,9.4.2*%
%TF.CreationDate,2019-11-19T20:24:05Z*%
G75*
%MOMM*%
%FSLAX36Y36*%
%LPD*%
%INSolderpaste Top*%
%AMOC8*
5,1,8,0,0,1.08239X$1,22.5*%
G01*
%ADD10R,1.000000X1.100000*%
%ADD11R,1.100000X1.000000*%
%ADD12R,0.800000X0.800000*%
%ADD13R,2.100000X1.400000*%
%ADD14R,0.508000X1.016000*%
%ADD15R,2.286000X1.651000*%
%ADD16R,0.300000X1.500000*%
%ADD17R,1.500000X0.300000*%
%ADD18R,0.500000X0.525000*%
%ADD19R,0.500000X0.250000*%
%ADD20R,0.525000X0.500000*%
%ADD21R,0.250000X0.500000*%
%ADD22R,1.400000X1.200000*%
%ADD23R,0.400000X0.400000*%
%ADD24R,0.400000X1.300000*%
%ADD25R,0.500000X0.700000*%
%ADD26R,0.700000X0.600000*%
%ADD27R,0.850000X0.700000*%
%ADD28R,0.750000X0.900000*%
%ADD29R,0.300000X0.550000*%
%ADD30R,0.550000X0.300000*%
%ADD31R,0.550000X0.550000*%
%ADD32R,1.300000X1.100000*%
%ADD33R,0.900000X0.700000*%
%ADD34R,0.700000X0.900000*%
%ADD35R,0.750000X0.250000*%
%ADD36R,0.250000X0.750000*%
%ADD37R,1.100000X1.100000*%
%ADD38R,1.800000X1.000000*%
%ADD39R,1.150000X0.250000*%
%ADD40R,0.250000X1.150000*%
%ADD41R,0.550000X1.200000*%
%ADD42R,0.950000X0.250000*%
%ADD43R,0.250000X0.950000*%
%ADD44R,1.700000X0.300000*%
%ADD45R,0.400000X0.700000*%
%ADD46R,0.900000X0.600000*%
%ADD47R,0.690000X0.990000*%
%ADD48R,5.080000X5.080000*%
%ADD49R,5.080000X2.032000*%

G36*
X9588959Y37902659D02*
X9588959Y37902659D01*
X9595503Y37902847D01*
X9599909Y37904628D01*
X9604597Y37905469D01*
X9610250Y37908803D01*
X9616319Y37911256D01*
X9619831Y37914459D01*
X9623931Y37916878D01*
X9628059Y37921959D01*
X9632909Y37926381D01*
X9635094Y37930619D01*
X9638088Y37934303D01*
X9640188Y37940503D01*
X9643197Y37946338D01*
X9644016Y37951794D01*
X9645294Y37955563D01*
X9645181Y37959541D01*
X9646000Y37965000D01*
X9646000Y40201500D01*
X11882500Y40201500D01*
X11888959Y40202659D01*
X11895503Y40202847D01*
X11899909Y40204628D01*
X11904597Y40205469D01*
X11910250Y40208803D01*
X11916319Y40211256D01*
X11919831Y40214459D01*
X11923931Y40216878D01*
X11928059Y40221959D01*
X11932909Y40226381D01*
X11935094Y40230619D01*
X11938088Y40234303D01*
X11940188Y40240503D01*
X11943197Y40246338D01*
X11944016Y40251794D01*
X11945294Y40255563D01*
X11945181Y40259541D01*
X11946000Y40265000D01*
X11946000Y41065000D01*
X11944841Y41071459D01*
X11944653Y41078003D01*
X11942872Y41082409D01*
X11942031Y41087097D01*
X11938697Y41092750D01*
X11936244Y41098819D01*
X11933041Y41102331D01*
X11930622Y41106431D01*
X11925541Y41110559D01*
X11921119Y41115409D01*
X11916881Y41117594D01*
X11913197Y41120588D01*
X11906997Y41122688D01*
X11901163Y41125697D01*
X11895706Y41126516D01*
X11891938Y41127794D01*
X11887959Y41127681D01*
X11882500Y41128500D01*
X8782500Y41128500D01*
X8776041Y41127341D01*
X8769497Y41127153D01*
X8765091Y41125372D01*
X8760403Y41124531D01*
X8754750Y41121197D01*
X8748681Y41118744D01*
X8745169Y41115541D01*
X8741069Y41113122D01*
X8736941Y41108041D01*
X8732091Y41103619D01*
X8729906Y41099381D01*
X8726913Y41095697D01*
X8724813Y41089497D01*
X8721803Y41083663D01*
X8720984Y41078206D01*
X8719706Y41074438D01*
X8719819Y41070459D01*
X8719000Y41065000D01*
X8719000Y37965000D01*
X8720159Y37958541D01*
X8720347Y37951997D01*
X8722128Y37947591D01*
X8722969Y37942903D01*
X8726303Y37937250D01*
X8728756Y37931181D01*
X8731959Y37927669D01*
X8734378Y37923569D01*
X8739459Y37919441D01*
X8743881Y37914591D01*
X8748119Y37912406D01*
X8751803Y37909413D01*
X8758003Y37907313D01*
X8763838Y37904303D01*
X8769294Y37903484D01*
X8773063Y37902206D01*
X8777041Y37902319D01*
X8782500Y37901500D01*
X9582500Y37901500D01*
X9588959Y37902659D01*
G37*
G36*
X41388959Y37902659D02*
X41388959Y37902659D01*
X41395503Y37902847D01*
X41399909Y37904628D01*
X41404597Y37905469D01*
X41410250Y37908803D01*
X41416319Y37911256D01*
X41419831Y37914459D01*
X41423931Y37916878D01*
X41428059Y37921959D01*
X41432909Y37926381D01*
X41435094Y37930619D01*
X41438088Y37934303D01*
X41440188Y37940503D01*
X41443197Y37946338D01*
X41444016Y37951794D01*
X41445294Y37955563D01*
X41445181Y37959541D01*
X41446000Y37965000D01*
X41446000Y41065000D01*
X41444841Y41071459D01*
X41444653Y41078003D01*
X41442872Y41082409D01*
X41442031Y41087097D01*
X41438697Y41092750D01*
X41436244Y41098819D01*
X41433041Y41102331D01*
X41430622Y41106431D01*
X41425541Y41110559D01*
X41421119Y41115409D01*
X41416881Y41117594D01*
X41413197Y41120588D01*
X41406997Y41122688D01*
X41401163Y41125697D01*
X41395706Y41126516D01*
X41391938Y41127794D01*
X41387959Y41127681D01*
X41382500Y41128500D01*
X38282500Y41128500D01*
X38276041Y41127341D01*
X38269497Y41127153D01*
X38265091Y41125372D01*
X38260403Y41124531D01*
X38254750Y41121197D01*
X38248681Y41118744D01*
X38245169Y41115541D01*
X38241069Y41113122D01*
X38236941Y41108041D01*
X38232091Y41103619D01*
X38229906Y41099381D01*
X38226913Y41095697D01*
X38224813Y41089497D01*
X38221803Y41083663D01*
X38220984Y41078206D01*
X38219706Y41074438D01*
X38219819Y41070459D01*
X38219000Y41065000D01*
X38219000Y40265000D01*
X38220159Y40258541D01*
X38220347Y40251997D01*
X38222128Y40247591D01*
X38222969Y40242903D01*
X38226303Y40237250D01*
X38228756Y40231181D01*
X38231959Y40227669D01*
X38234378Y40223569D01*
X38239459Y40219441D01*
X38243881Y40214591D01*
X38248119Y40212406D01*
X38251803Y40209413D01*
X38258003Y40207313D01*
X38263838Y40204303D01*
X38269294Y40203484D01*
X38273063Y40202206D01*
X38277041Y40202319D01*
X38282500Y40201500D01*
X40519000Y40201500D01*
X40519000Y37965000D01*
X40520159Y37958541D01*
X40520347Y37951997D01*
X40522128Y37947591D01*
X40522969Y37942903D01*
X40526303Y37937250D01*
X40528756Y37931181D01*
X40531959Y37927669D01*
X40534378Y37923569D01*
X40539459Y37919441D01*
X40543881Y37914591D01*
X40548119Y37912406D01*
X40551803Y37909413D01*
X40558003Y37907313D01*
X40563838Y37904303D01*
X40569294Y37903484D01*
X40573063Y37902206D01*
X40577041Y37902319D01*
X40582500Y37901500D01*
X41382500Y37901500D01*
X41388959Y37902659D01*
G37*
G36*
X11888959Y8402659D02*
X11888959Y8402659D01*
X11895503Y8402847D01*
X11899909Y8404628D01*
X11904597Y8405469D01*
X11910250Y8408803D01*
X11916319Y8411256D01*
X11919831Y8414459D01*
X11923931Y8416878D01*
X11928059Y8421959D01*
X11932909Y8426381D01*
X11935094Y8430619D01*
X11938088Y8434303D01*
X11940188Y8440503D01*
X11943197Y8446338D01*
X11944016Y8451794D01*
X11945294Y8455563D01*
X11945181Y8459541D01*
X11946000Y8465000D01*
X11946000Y9265000D01*
X11944841Y9271459D01*
X11944653Y9278003D01*
X11942872Y9282409D01*
X11942031Y9287097D01*
X11938697Y9292750D01*
X11936244Y9298819D01*
X11933041Y9302331D01*
X11930622Y9306431D01*
X11925541Y9310559D01*
X11921119Y9315409D01*
X11916881Y9317594D01*
X11913197Y9320588D01*
X11906997Y9322688D01*
X11901163Y9325697D01*
X11895706Y9326516D01*
X11891938Y9327794D01*
X11887959Y9327681D01*
X11882500Y9328500D01*
X9646000Y9328500D01*
X9646000Y11565000D01*
X9644841Y11571459D01*
X9644653Y11578003D01*
X9642872Y11582409D01*
X9642031Y11587097D01*
X9638697Y11592750D01*
X9636244Y11598819D01*
X9633041Y11602331D01*
X9630622Y11606431D01*
X9625541Y11610559D01*
X9621119Y11615409D01*
X9616881Y11617594D01*
X9613197Y11620588D01*
X9606997Y11622688D01*
X9601163Y11625697D01*
X9595706Y11626516D01*
X9591938Y11627794D01*
X9587959Y11627681D01*
X9582500Y11628500D01*
X8782500Y11628500D01*
X8776041Y11627341D01*
X8769497Y11627153D01*
X8765091Y11625372D01*
X8760403Y11624531D01*
X8754750Y11621197D01*
X8748681Y11618744D01*
X8745169Y11615541D01*
X8741069Y11613122D01*
X8736941Y11608041D01*
X8732091Y11603619D01*
X8729906Y11599381D01*
X8726913Y11595697D01*
X8724813Y11589497D01*
X8721803Y11583663D01*
X8720984Y11578206D01*
X8719706Y11574438D01*
X8719819Y11570459D01*
X8719000Y11565000D01*
X8719000Y8465000D01*
X8720159Y8458541D01*
X8720347Y8451997D01*
X8722128Y8447591D01*
X8722969Y8442903D01*
X8726303Y8437250D01*
X8728756Y8431181D01*
X8731959Y8427669D01*
X8734378Y8423569D01*
X8739459Y8419441D01*
X8743881Y8414591D01*
X8748119Y8412406D01*
X8751803Y8409413D01*
X8758003Y8407313D01*
X8763838Y8404303D01*
X8769294Y8403484D01*
X8773063Y8402206D01*
X8777041Y8402319D01*
X8782500Y8401500D01*
X11882500Y8401500D01*
X11888959Y8402659D01*
G37*
G36*
X41388959Y8402659D02*
X41388959Y8402659D01*
X41395503Y8402847D01*
X41399909Y8404628D01*
X41404597Y8405469D01*
X41410250Y8408803D01*
X41416319Y8411256D01*
X41419831Y8414459D01*
X41423931Y8416878D01*
X41428059Y8421959D01*
X41432909Y8426381D01*
X41435094Y8430619D01*
X41438088Y8434303D01*
X41440188Y8440503D01*
X41443197Y8446338D01*
X41444016Y8451794D01*
X41445294Y8455563D01*
X41445181Y8459541D01*
X41446000Y8465000D01*
X41446000Y11565000D01*
X41444841Y11571459D01*
X41444653Y11578003D01*
X41442872Y11582409D01*
X41442031Y11587097D01*
X41438697Y11592750D01*
X41436244Y11598819D01*
X41433041Y11602331D01*
X41430622Y11606431D01*
X41425541Y11610559D01*
X41421119Y11615409D01*
X41416881Y11617594D01*
X41413197Y11620588D01*
X41406997Y11622688D01*
X41401163Y11625697D01*
X41395706Y11626516D01*
X41391938Y11627794D01*
X41387959Y11627681D01*
X41382500Y11628500D01*
X40582500Y11628500D01*
X40576041Y11627341D01*
X40569497Y11627153D01*
X40565091Y11625372D01*
X40560403Y11624531D01*
X40554750Y11621197D01*
X40548681Y11618744D01*
X40545169Y11615541D01*
X40541069Y11613122D01*
X40536941Y11608041D01*
X40532091Y11603619D01*
X40529906Y11599381D01*
X40526913Y11595697D01*
X40524813Y11589497D01*
X40521803Y11583663D01*
X40520984Y11578206D01*
X40519706Y11574438D01*
X40519819Y11570459D01*
X40519000Y11565000D01*
X40519000Y9328500D01*
X38282500Y9328500D01*
X38276041Y9327341D01*
X38269497Y9327153D01*
X38265091Y9325372D01*
X38260403Y9324531D01*
X38254747Y9321194D01*
X38248681Y9318744D01*
X38245169Y9315541D01*
X38241069Y9313122D01*
X38236941Y9308041D01*
X38232091Y9303619D01*
X38229906Y9299381D01*
X38226913Y9295697D01*
X38224813Y9289497D01*
X38221803Y9283663D01*
X38220984Y9278206D01*
X38219706Y9274438D01*
X38219819Y9270459D01*
X38219000Y9265000D01*
X38219000Y8465000D01*
X38220159Y8458541D01*
X38220347Y8451997D01*
X38222128Y8447591D01*
X38222969Y8442903D01*
X38226303Y8437250D01*
X38228756Y8431181D01*
X38231959Y8427669D01*
X38234378Y8423569D01*
X38239459Y8419441D01*
X38243881Y8414591D01*
X38248119Y8412406D01*
X38251803Y8409413D01*
X38258003Y8407313D01*
X38263838Y8404303D01*
X38269294Y8403484D01*
X38273063Y8402206D01*
X38277041Y8402319D01*
X38282500Y8401500D01*
X41382500Y8401500D01*
X41388959Y8402659D01*
G37*
G36*
X23888959Y40202659D02*
X23888959Y40202659D01*
X23895503Y40202847D01*
X23899909Y40204628D01*
X23904597Y40205469D01*
X23910250Y40208803D01*
X23916319Y40211256D01*
X23919831Y40214459D01*
X23923931Y40216878D01*
X23928059Y40221959D01*
X23932909Y40226381D01*
X23935094Y40230619D01*
X23938088Y40234303D01*
X23940188Y40240503D01*
X23943197Y40246338D01*
X23944016Y40251794D01*
X23945294Y40255563D01*
X23945181Y40259541D01*
X23946000Y40265000D01*
X23946000Y41065000D01*
X23944841Y41071459D01*
X23944653Y41078003D01*
X23942872Y41082409D01*
X23942031Y41087097D01*
X23938697Y41092750D01*
X23936244Y41098819D01*
X23933041Y41102331D01*
X23930622Y41106431D01*
X23925541Y41110559D01*
X23921119Y41115409D01*
X23916881Y41117594D01*
X23913197Y41120588D01*
X23906997Y41122688D01*
X23901163Y41125697D01*
X23895706Y41126516D01*
X23891938Y41127794D01*
X23887959Y41127681D01*
X23882500Y41128500D01*
X20282500Y41128500D01*
X20276041Y41127341D01*
X20269497Y41127153D01*
X20265091Y41125372D01*
X20260403Y41124531D01*
X20254750Y41121197D01*
X20248681Y41118744D01*
X20245169Y41115541D01*
X20241069Y41113122D01*
X20236941Y41108041D01*
X20232091Y41103619D01*
X20229906Y41099381D01*
X20226913Y41095697D01*
X20224813Y41089497D01*
X20221803Y41083663D01*
X20220984Y41078206D01*
X20219706Y41074438D01*
X20219819Y41070459D01*
X20219000Y41065000D01*
X20219000Y40265000D01*
X20220159Y40258541D01*
X20220347Y40251997D01*
X20222128Y40247591D01*
X20222969Y40242903D01*
X20226303Y40237250D01*
X20228756Y40231181D01*
X20231959Y40227669D01*
X20234378Y40223569D01*
X20239459Y40219441D01*
X20243881Y40214591D01*
X20248119Y40212406D01*
X20251803Y40209413D01*
X20258003Y40207313D01*
X20263838Y40204303D01*
X20269294Y40203484D01*
X20273063Y40202206D01*
X20277041Y40202319D01*
X20282500Y40201500D01*
X23882500Y40201500D01*
X23888959Y40202659D01*
G37*
G36*
X17888959Y40202659D02*
X17888959Y40202659D01*
X17895503Y40202847D01*
X17899909Y40204628D01*
X17904597Y40205469D01*
X17910250Y40208803D01*
X17916319Y40211256D01*
X17919831Y40214459D01*
X17923931Y40216878D01*
X17928059Y40221959D01*
X17932909Y40226381D01*
X17935094Y40230619D01*
X17938088Y40234303D01*
X17940188Y40240503D01*
X17943197Y40246338D01*
X17944016Y40251794D01*
X17945294Y40255563D01*
X17945181Y40259541D01*
X17946000Y40265000D01*
X17946000Y41065000D01*
X17944841Y41071459D01*
X17944653Y41078003D01*
X17942872Y41082409D01*
X17942031Y41087097D01*
X17938697Y41092750D01*
X17936244Y41098819D01*
X17933041Y41102331D01*
X17930622Y41106431D01*
X17925541Y41110559D01*
X17921119Y41115409D01*
X17916881Y41117594D01*
X17913197Y41120588D01*
X17906997Y41122688D01*
X17901163Y41125697D01*
X17895706Y41126516D01*
X17891938Y41127794D01*
X17887959Y41127681D01*
X17882500Y41128500D01*
X14282500Y41128500D01*
X14276041Y41127341D01*
X14269497Y41127153D01*
X14265091Y41125372D01*
X14260403Y41124531D01*
X14254750Y41121197D01*
X14248681Y41118744D01*
X14245169Y41115541D01*
X14241069Y41113122D01*
X14236941Y41108041D01*
X14232091Y41103619D01*
X14229906Y41099381D01*
X14226913Y41095697D01*
X14224813Y41089497D01*
X14221803Y41083663D01*
X14220984Y41078206D01*
X14219706Y41074438D01*
X14219819Y41070459D01*
X14219000Y41065000D01*
X14219000Y40265000D01*
X14220159Y40258541D01*
X14220347Y40251997D01*
X14222128Y40247591D01*
X14222969Y40242903D01*
X14226303Y40237250D01*
X14228756Y40231181D01*
X14231959Y40227669D01*
X14234378Y40223569D01*
X14239459Y40219441D01*
X14243881Y40214591D01*
X14248119Y40212406D01*
X14251803Y40209413D01*
X14258003Y40207313D01*
X14263838Y40204303D01*
X14269294Y40203484D01*
X14273063Y40202206D01*
X14277041Y40202319D01*
X14282500Y40201500D01*
X17882500Y40201500D01*
X17888959Y40202659D01*
G37*
G36*
X29888959Y40202659D02*
X29888959Y40202659D01*
X29895503Y40202847D01*
X29899909Y40204628D01*
X29904597Y40205469D01*
X29910250Y40208803D01*
X29916319Y40211256D01*
X29919831Y40214459D01*
X29923931Y40216878D01*
X29928059Y40221959D01*
X29932909Y40226381D01*
X29935094Y40230619D01*
X29938088Y40234303D01*
X29940188Y40240503D01*
X29943197Y40246338D01*
X29944016Y40251794D01*
X29945294Y40255563D01*
X29945181Y40259541D01*
X29946000Y40265000D01*
X29946000Y41065000D01*
X29944841Y41071459D01*
X29944653Y41078003D01*
X29942872Y41082409D01*
X29942031Y41087097D01*
X29938697Y41092750D01*
X29936244Y41098819D01*
X29933041Y41102331D01*
X29930622Y41106431D01*
X29925541Y41110559D01*
X29921119Y41115409D01*
X29916881Y41117594D01*
X29913197Y41120588D01*
X29906997Y41122688D01*
X29901163Y41125697D01*
X29895706Y41126516D01*
X29891938Y41127794D01*
X29887959Y41127681D01*
X29882500Y41128500D01*
X26282500Y41128500D01*
X26276041Y41127341D01*
X26269497Y41127153D01*
X26265091Y41125372D01*
X26260403Y41124531D01*
X26254750Y41121197D01*
X26248681Y41118744D01*
X26245169Y41115541D01*
X26241069Y41113122D01*
X26236941Y41108041D01*
X26232091Y41103619D01*
X26229906Y41099381D01*
X26226913Y41095697D01*
X26224813Y41089497D01*
X26221803Y41083663D01*
X26220984Y41078206D01*
X26219706Y41074438D01*
X26219819Y41070459D01*
X26219000Y41065000D01*
X26219000Y40265000D01*
X26220159Y40258541D01*
X26220347Y40251997D01*
X26222128Y40247591D01*
X26222969Y40242903D01*
X26226303Y40237250D01*
X26228756Y40231181D01*
X26231959Y40227669D01*
X26234378Y40223569D01*
X26239459Y40219441D01*
X26243881Y40214591D01*
X26248119Y40212406D01*
X26251803Y40209413D01*
X26258003Y40207313D01*
X26263838Y40204303D01*
X26269294Y40203484D01*
X26273063Y40202206D01*
X26277041Y40202319D01*
X26282500Y40201500D01*
X29882500Y40201500D01*
X29888959Y40202659D01*
G37*
G36*
X35888959Y40202659D02*
X35888959Y40202659D01*
X35895503Y40202847D01*
X35899909Y40204628D01*
X35904597Y40205469D01*
X35910250Y40208803D01*
X35916319Y40211256D01*
X35919831Y40214459D01*
X35923931Y40216878D01*
X35928059Y40221959D01*
X35932909Y40226381D01*
X35935094Y40230619D01*
X35938088Y40234303D01*
X35940188Y40240503D01*
X35943197Y40246338D01*
X35944016Y40251794D01*
X35945294Y40255563D01*
X35945181Y40259541D01*
X35946000Y40265000D01*
X35946000Y41065000D01*
X35944841Y41071459D01*
X35944653Y41078003D01*
X35942872Y41082409D01*
X35942031Y41087097D01*
X35938697Y41092750D01*
X35936244Y41098819D01*
X35933041Y41102331D01*
X35930622Y41106431D01*
X35925541Y41110559D01*
X35921119Y41115409D01*
X35916881Y41117594D01*
X35913197Y41120588D01*
X35906997Y41122688D01*
X35901163Y41125697D01*
X35895706Y41126516D01*
X35891938Y41127794D01*
X35887959Y41127681D01*
X35882500Y41128500D01*
X32282500Y41128500D01*
X32276041Y41127341D01*
X32269497Y41127153D01*
X32265091Y41125372D01*
X32260403Y41124531D01*
X32254750Y41121197D01*
X32248681Y41118744D01*
X32245169Y41115541D01*
X32241069Y41113122D01*
X32236941Y41108041D01*
X32232091Y41103619D01*
X32229906Y41099381D01*
X32226913Y41095697D01*
X32224813Y41089497D01*
X32221803Y41083663D01*
X32220984Y41078206D01*
X32219706Y41074438D01*
X32219819Y41070459D01*
X32219000Y41065000D01*
X32219000Y40265000D01*
X32220159Y40258541D01*
X32220347Y40251997D01*
X32222128Y40247591D01*
X32222969Y40242903D01*
X32226303Y40237250D01*
X32228756Y40231181D01*
X32231959Y40227669D01*
X32234378Y40223569D01*
X32239459Y40219441D01*
X32243881Y40214591D01*
X32248119Y40212406D01*
X32251803Y40209413D01*
X32258003Y40207313D01*
X32263838Y40204303D01*
X32269294Y40203484D01*
X32273063Y40202206D01*
X32277041Y40202319D01*
X32282500Y40201500D01*
X35882500Y40201500D01*
X35888959Y40202659D01*
G37*
G36*
X9588959Y31902659D02*
X9588959Y31902659D01*
X9595503Y31902847D01*
X9599909Y31904628D01*
X9604597Y31905469D01*
X9610250Y31908803D01*
X9616319Y31911256D01*
X9619831Y31914459D01*
X9623931Y31916878D01*
X9628059Y31921959D01*
X9632909Y31926381D01*
X9635094Y31930619D01*
X9638088Y31934303D01*
X9640188Y31940503D01*
X9643197Y31946338D01*
X9644016Y31951794D01*
X9645294Y31955563D01*
X9645181Y31959541D01*
X9646000Y31965000D01*
X9646000Y35565000D01*
X9644841Y35571459D01*
X9644653Y35578003D01*
X9642872Y35582409D01*
X9642031Y35587097D01*
X9638697Y35592750D01*
X9636244Y35598819D01*
X9633041Y35602331D01*
X9630622Y35606431D01*
X9625541Y35610559D01*
X9621119Y35615409D01*
X9616881Y35617594D01*
X9613197Y35620588D01*
X9606997Y35622688D01*
X9601163Y35625697D01*
X9595706Y35626516D01*
X9591938Y35627794D01*
X9587959Y35627681D01*
X9582500Y35628500D01*
X8782500Y35628500D01*
X8776041Y35627341D01*
X8769497Y35627153D01*
X8765091Y35625372D01*
X8760403Y35624531D01*
X8754750Y35621197D01*
X8748681Y35618744D01*
X8745169Y35615541D01*
X8741069Y35613122D01*
X8736941Y35608041D01*
X8732091Y35603619D01*
X8729906Y35599381D01*
X8726913Y35595697D01*
X8724813Y35589497D01*
X8721803Y35583663D01*
X8720984Y35578206D01*
X8719706Y35574438D01*
X8719819Y35570459D01*
X8719000Y35565000D01*
X8719000Y31965000D01*
X8720159Y31958541D01*
X8720347Y31951997D01*
X8722128Y31947591D01*
X8722969Y31942903D01*
X8726303Y31937250D01*
X8728756Y31931181D01*
X8731959Y31927669D01*
X8734378Y31923569D01*
X8739459Y31919441D01*
X8743881Y31914591D01*
X8748119Y31912406D01*
X8751803Y31909413D01*
X8758003Y31907313D01*
X8763838Y31904303D01*
X8769294Y31903484D01*
X8773063Y31902206D01*
X8777041Y31902319D01*
X8782500Y31901500D01*
X9582500Y31901500D01*
X9588959Y31902659D01*
G37*
G36*
X41388959Y31902659D02*
X41388959Y31902659D01*
X41395503Y31902847D01*
X41399909Y31904628D01*
X41404597Y31905469D01*
X41410250Y31908803D01*
X41416319Y31911256D01*
X41419831Y31914459D01*
X41423931Y31916878D01*
X41428059Y31921959D01*
X41432909Y31926381D01*
X41435094Y31930619D01*
X41438088Y31934303D01*
X41440188Y31940503D01*
X41443197Y31946338D01*
X41444016Y31951794D01*
X41445294Y31955563D01*
X41445181Y31959541D01*
X41446000Y31965000D01*
X41446000Y35565000D01*
X41444841Y35571459D01*
X41444653Y35578003D01*
X41442872Y35582409D01*
X41442031Y35587097D01*
X41438697Y35592750D01*
X41436244Y35598819D01*
X41433041Y35602331D01*
X41430622Y35606431D01*
X41425541Y35610559D01*
X41421119Y35615409D01*
X41416881Y35617594D01*
X41413197Y35620588D01*
X41406997Y35622688D01*
X41401163Y35625697D01*
X41395706Y35626516D01*
X41391938Y35627794D01*
X41387959Y35627681D01*
X41382500Y35628500D01*
X40582500Y35628500D01*
X40576041Y35627341D01*
X40569497Y35627153D01*
X40565091Y35625372D01*
X40560403Y35624531D01*
X40554750Y35621197D01*
X40548681Y35618744D01*
X40545169Y35615541D01*
X40541069Y35613122D01*
X40536941Y35608041D01*
X40532091Y35603619D01*
X40529906Y35599381D01*
X40526913Y35595697D01*
X40524813Y35589497D01*
X40521803Y35583663D01*
X40520984Y35578206D01*
X40519706Y35574438D01*
X40519819Y35570459D01*
X40519000Y35565000D01*
X40519000Y31965000D01*
X40520159Y31958541D01*
X40520347Y31951997D01*
X40522128Y31947591D01*
X40522969Y31942903D01*
X40526303Y31937250D01*
X40528756Y31931181D01*
X40531959Y31927669D01*
X40534378Y31923569D01*
X40539459Y31919441D01*
X40543881Y31914591D01*
X40548119Y31912406D01*
X40551803Y31909413D01*
X40558003Y31907313D01*
X40563838Y31904303D01*
X40569294Y31903484D01*
X40573063Y31902206D01*
X40577041Y31902319D01*
X40582500Y31901500D01*
X41382500Y31901500D01*
X41388959Y31902659D01*
G37*
G36*
X9588959Y25902659D02*
X9588959Y25902659D01*
X9595503Y25902847D01*
X9599909Y25904628D01*
X9604597Y25905469D01*
X9610250Y25908803D01*
X9616319Y25911256D01*
X9619831Y25914459D01*
X9623931Y25916878D01*
X9628059Y25921959D01*
X9632909Y25926381D01*
X9635094Y25930619D01*
X9638088Y25934303D01*
X9640188Y25940503D01*
X9643197Y25946338D01*
X9644016Y25951794D01*
X9645294Y25955563D01*
X9645181Y25959541D01*
X9646000Y25965000D01*
X9646000Y29565000D01*
X9644841Y29571459D01*
X9644653Y29578003D01*
X9642872Y29582409D01*
X9642031Y29587097D01*
X9638697Y29592750D01*
X9636244Y29598819D01*
X9633041Y29602331D01*
X9630622Y29606431D01*
X9625541Y29610559D01*
X9621119Y29615409D01*
X9616881Y29617594D01*
X9613197Y29620588D01*
X9606997Y29622688D01*
X9601163Y29625697D01*
X9595706Y29626516D01*
X9591938Y29627794D01*
X9587959Y29627681D01*
X9582500Y29628500D01*
X8782500Y29628500D01*
X8776041Y29627341D01*
X8769497Y29627153D01*
X8765091Y29625372D01*
X8760403Y29624531D01*
X8754750Y29621197D01*
X8748681Y29618744D01*
X8745169Y29615541D01*
X8741069Y29613122D01*
X8736941Y29608041D01*
X8732091Y29603619D01*
X8729906Y29599381D01*
X8726913Y29595697D01*
X8724813Y29589497D01*
X8721803Y29583663D01*
X8720984Y29578206D01*
X8719706Y29574438D01*
X8719819Y29570459D01*
X8719000Y29565000D01*
X8719000Y25965000D01*
X8720159Y25958541D01*
X8720347Y25951997D01*
X8722128Y25947591D01*
X8722969Y25942903D01*
X8726303Y25937250D01*
X8728756Y25931181D01*
X8731959Y25927669D01*
X8734378Y25923569D01*
X8739459Y25919441D01*
X8743881Y25914591D01*
X8748119Y25912406D01*
X8751803Y25909413D01*
X8758003Y25907313D01*
X8763838Y25904303D01*
X8769294Y25903484D01*
X8773063Y25902206D01*
X8777041Y25902319D01*
X8782500Y25901500D01*
X9582500Y25901500D01*
X9588959Y25902659D01*
G37*
G36*
X41388959Y25902659D02*
X41388959Y25902659D01*
X41395503Y25902847D01*
X41399909Y25904628D01*
X41404597Y25905469D01*
X41410250Y25908803D01*
X41416319Y25911256D01*
X41419831Y25914459D01*
X41423931Y25916878D01*
X41428059Y25921959D01*
X41432909Y25926381D01*
X41435094Y25930619D01*
X41438088Y25934303D01*
X41440188Y25940503D01*
X41443197Y25946338D01*
X41444016Y25951794D01*
X41445294Y25955563D01*
X41445181Y25959541D01*
X41446000Y25965000D01*
X41446000Y29565000D01*
X41444841Y29571459D01*
X41444653Y29578003D01*
X41442872Y29582409D01*
X41442031Y29587097D01*
X41438697Y29592750D01*
X41436244Y29598819D01*
X41433041Y29602331D01*
X41430622Y29606431D01*
X41425541Y29610559D01*
X41421119Y29615409D01*
X41416881Y29617594D01*
X41413197Y29620588D01*
X41406997Y29622688D01*
X41401163Y29625697D01*
X41395706Y29626516D01*
X41391938Y29627794D01*
X41387959Y29627681D01*
X41382500Y29628500D01*
X40582500Y29628500D01*
X40576041Y29627341D01*
X40569497Y29627153D01*
X40565091Y29625372D01*
X40560403Y29624531D01*
X40554750Y29621197D01*
X40548681Y29618744D01*
X40545169Y29615541D01*
X40541069Y29613122D01*
X40536941Y29608041D01*
X40532091Y29603619D01*
X40529906Y29599381D01*
X40526913Y29595697D01*
X40524813Y29589497D01*
X40521803Y29583663D01*
X40520984Y29578206D01*
X40519706Y29574438D01*
X40519819Y29570459D01*
X40519000Y29565000D01*
X40519000Y25965000D01*
X40520159Y25958541D01*
X40520347Y25951997D01*
X40522128Y25947591D01*
X40522969Y25942903D01*
X40526303Y25937250D01*
X40528756Y25931181D01*
X40531959Y25927669D01*
X40534378Y25923569D01*
X40539459Y25919441D01*
X40543881Y25914591D01*
X40548119Y25912406D01*
X40551803Y25909413D01*
X40558003Y25907313D01*
X40563838Y25904303D01*
X40569294Y25903484D01*
X40573063Y25902206D01*
X40577041Y25902319D01*
X40582500Y25901500D01*
X41382500Y25901500D01*
X41388959Y25902659D01*
G37*
G36*
X9588959Y19902659D02*
X9588959Y19902659D01*
X9595503Y19902847D01*
X9599909Y19904628D01*
X9604597Y19905469D01*
X9610250Y19908803D01*
X9616319Y19911256D01*
X9619831Y19914459D01*
X9623931Y19916878D01*
X9628059Y19921959D01*
X9632909Y19926381D01*
X9635094Y19930619D01*
X9638088Y19934303D01*
X9640188Y19940503D01*
X9643197Y19946338D01*
X9644016Y19951794D01*
X9645294Y19955563D01*
X9645181Y19959541D01*
X9646000Y19965000D01*
X9646000Y23565000D01*
X9644841Y23571459D01*
X9644653Y23578003D01*
X9642872Y23582409D01*
X9642031Y23587097D01*
X9638697Y23592750D01*
X9636244Y23598819D01*
X9633041Y23602331D01*
X9630622Y23606431D01*
X9625541Y23610559D01*
X9621119Y23615409D01*
X9616881Y23617594D01*
X9613197Y23620588D01*
X9606997Y23622688D01*
X9601163Y23625697D01*
X9595706Y23626516D01*
X9591938Y23627794D01*
X9587959Y23627681D01*
X9582500Y23628500D01*
X8782500Y23628500D01*
X8776041Y23627341D01*
X8769497Y23627153D01*
X8765091Y23625372D01*
X8760403Y23624531D01*
X8754750Y23621197D01*
X8748681Y23618744D01*
X8745169Y23615541D01*
X8741069Y23613122D01*
X8736941Y23608041D01*
X8732091Y23603619D01*
X8729906Y23599381D01*
X8726913Y23595697D01*
X8724813Y23589497D01*
X8721803Y23583663D01*
X8720984Y23578206D01*
X8719706Y23574438D01*
X8719819Y23570459D01*
X8719000Y23565000D01*
X8719000Y19965000D01*
X8720159Y19958541D01*
X8720347Y19951997D01*
X8722128Y19947591D01*
X8722969Y19942903D01*
X8726303Y19937250D01*
X8728756Y19931181D01*
X8731959Y19927669D01*
X8734378Y19923569D01*
X8739459Y19919441D01*
X8743881Y19914591D01*
X8748119Y19912406D01*
X8751803Y19909413D01*
X8758003Y19907313D01*
X8763838Y19904303D01*
X8769294Y19903484D01*
X8773063Y19902206D01*
X8777041Y19902319D01*
X8782500Y19901500D01*
X9582500Y19901500D01*
X9588959Y19902659D01*
G37*
G36*
X41388959Y19902659D02*
X41388959Y19902659D01*
X41395503Y19902847D01*
X41399909Y19904628D01*
X41404597Y19905469D01*
X41410250Y19908803D01*
X41416319Y19911256D01*
X41419831Y19914459D01*
X41423931Y19916878D01*
X41428059Y19921959D01*
X41432909Y19926381D01*
X41435094Y19930619D01*
X41438088Y19934303D01*
X41440188Y19940503D01*
X41443197Y19946338D01*
X41444016Y19951794D01*
X41445294Y19955563D01*
X41445181Y19959541D01*
X41446000Y19965000D01*
X41446000Y23565000D01*
X41444841Y23571459D01*
X41444653Y23578003D01*
X41442872Y23582409D01*
X41442031Y23587097D01*
X41438697Y23592750D01*
X41436244Y23598819D01*
X41433041Y23602331D01*
X41430622Y23606431D01*
X41425541Y23610559D01*
X41421119Y23615409D01*
X41416881Y23617594D01*
X41413197Y23620588D01*
X41406997Y23622688D01*
X41401163Y23625697D01*
X41395706Y23626516D01*
X41391938Y23627794D01*
X41387959Y23627681D01*
X41382500Y23628500D01*
X40582500Y23628500D01*
X40576041Y23627341D01*
X40569497Y23627153D01*
X40565091Y23625372D01*
X40560403Y23624531D01*
X40554750Y23621197D01*
X40548681Y23618744D01*
X40545169Y23615541D01*
X40541069Y23613122D01*
X40536941Y23608041D01*
X40532091Y23603619D01*
X40529906Y23599381D01*
X40526913Y23595697D01*
X40524813Y23589497D01*
X40521803Y23583663D01*
X40520984Y23578206D01*
X40519706Y23574438D01*
X40519819Y23570459D01*
X40519000Y23565000D01*
X40519000Y19965000D01*
X40520159Y19958541D01*
X40520347Y19951997D01*
X40522128Y19947591D01*
X40522969Y19942903D01*
X40526303Y19937250D01*
X40528756Y19931181D01*
X40531959Y19927669D01*
X40534378Y19923569D01*
X40539459Y19919441D01*
X40543881Y19914591D01*
X40548119Y19912406D01*
X40551803Y19909413D01*
X40558003Y19907313D01*
X40563838Y19904303D01*
X40569294Y19903484D01*
X40573063Y19902206D01*
X40577041Y19902319D01*
X40582500Y19901500D01*
X41382500Y19901500D01*
X41388959Y19902659D01*
G37*
G36*
X41388959Y13902659D02*
X41388959Y13902659D01*
X41395503Y13902847D01*
X41399909Y13904628D01*
X41404597Y13905469D01*
X41410250Y13908803D01*
X41416319Y13911256D01*
X41419831Y13914459D01*
X41423931Y13916878D01*
X41428059Y13921959D01*
X41432909Y13926381D01*
X41435094Y13930619D01*
X41438088Y13934303D01*
X41440188Y13940503D01*
X41443197Y13946338D01*
X41444016Y13951794D01*
X41445294Y13955563D01*
X41445181Y13959541D01*
X41446000Y13965000D01*
X41446000Y17565000D01*
X41444841Y17571459D01*
X41444653Y17578003D01*
X41442872Y17582409D01*
X41442031Y17587097D01*
X41438697Y17592750D01*
X41436244Y17598819D01*
X41433041Y17602331D01*
X41430622Y17606431D01*
X41425541Y17610559D01*
X41421119Y17615409D01*
X41416881Y17617594D01*
X41413197Y17620588D01*
X41406997Y17622688D01*
X41401163Y17625697D01*
X41395706Y17626516D01*
X41391938Y17627794D01*
X41387959Y17627681D01*
X41382500Y17628500D01*
X40582500Y17628500D01*
X40576041Y17627341D01*
X40569497Y17627153D01*
X40565091Y17625372D01*
X40560403Y17624531D01*
X40554750Y17621197D01*
X40548681Y17618744D01*
X40545169Y17615541D01*
X40541069Y17613122D01*
X40536941Y17608041D01*
X40532091Y17603619D01*
X40529906Y17599381D01*
X40526913Y17595697D01*
X40524813Y17589497D01*
X40521803Y17583663D01*
X40520984Y17578206D01*
X40519706Y17574438D01*
X40519819Y17570459D01*
X40519000Y17565000D01*
X40519000Y13965000D01*
X40520159Y13958541D01*
X40520347Y13951997D01*
X40522128Y13947591D01*
X40522969Y13942903D01*
X40526303Y13937250D01*
X40528756Y13931181D01*
X40531959Y13927669D01*
X40534378Y13923569D01*
X40539459Y13919441D01*
X40543881Y13914591D01*
X40548119Y13912406D01*
X40551803Y13909413D01*
X40558003Y13907313D01*
X40563838Y13904303D01*
X40569294Y13903484D01*
X40573063Y13902206D01*
X40577041Y13902319D01*
X40582500Y13901500D01*
X41382500Y13901500D01*
X41388959Y13902659D01*
G37*
G36*
X9588959Y13902659D02*
X9588959Y13902659D01*
X9595503Y13902847D01*
X9599909Y13904628D01*
X9604597Y13905469D01*
X9610250Y13908803D01*
X9616319Y13911256D01*
X9619831Y13914459D01*
X9623931Y13916878D01*
X9628059Y13921959D01*
X9632909Y13926381D01*
X9635094Y13930619D01*
X9638088Y13934303D01*
X9640188Y13940503D01*
X9643197Y13946338D01*
X9644016Y13951794D01*
X9645294Y13955563D01*
X9645181Y13959541D01*
X9646000Y13965000D01*
X9646000Y17565000D01*
X9644841Y17571459D01*
X9644653Y17578003D01*
X9642872Y17582409D01*
X9642031Y17587097D01*
X9638697Y17592750D01*
X9636244Y17598819D01*
X9633041Y17602331D01*
X9630622Y17606431D01*
X9625541Y17610559D01*
X9621119Y17615409D01*
X9616881Y17617594D01*
X9613197Y17620588D01*
X9606997Y17622688D01*
X9601163Y17625697D01*
X9595706Y17626516D01*
X9591938Y17627794D01*
X9587959Y17627681D01*
X9582500Y17628500D01*
X8782500Y17628500D01*
X8776041Y17627341D01*
X8769497Y17627153D01*
X8765091Y17625372D01*
X8760403Y17624531D01*
X8754750Y17621197D01*
X8748681Y17618744D01*
X8745169Y17615541D01*
X8741069Y17613122D01*
X8736941Y17608041D01*
X8732091Y17603619D01*
X8729906Y17599381D01*
X8726913Y17595697D01*
X8724813Y17589497D01*
X8721803Y17583663D01*
X8720984Y17578206D01*
X8719706Y17574438D01*
X8719819Y17570459D01*
X8719000Y17565000D01*
X8719000Y13965000D01*
X8720159Y13958541D01*
X8720347Y13951997D01*
X8722128Y13947591D01*
X8722969Y13942903D01*
X8726303Y13937250D01*
X8728756Y13931181D01*
X8731959Y13927669D01*
X8734378Y13923569D01*
X8739459Y13919441D01*
X8743881Y13914591D01*
X8748119Y13912406D01*
X8751803Y13909413D01*
X8758003Y13907313D01*
X8763838Y13904303D01*
X8769294Y13903484D01*
X8773063Y13902206D01*
X8777041Y13902319D01*
X8782500Y13901500D01*
X9582500Y13901500D01*
X9588959Y13902659D01*
G37*
G36*
X29888959Y8402659D02*
X29888959Y8402659D01*
X29895503Y8402847D01*
X29899909Y8404628D01*
X29904597Y8405469D01*
X29910250Y8408803D01*
X29916319Y8411256D01*
X29919831Y8414459D01*
X29923931Y8416878D01*
X29928059Y8421959D01*
X29932909Y8426381D01*
X29935094Y8430619D01*
X29938088Y8434303D01*
X29940188Y8440503D01*
X29943197Y8446338D01*
X29944016Y8451794D01*
X29945294Y8455563D01*
X29945181Y8459541D01*
X29946000Y8465000D01*
X29946000Y9265000D01*
X29944841Y9271459D01*
X29944653Y9278003D01*
X29942872Y9282409D01*
X29942031Y9287097D01*
X29938697Y9292750D01*
X29936244Y9298819D01*
X29933041Y9302331D01*
X29930622Y9306431D01*
X29925541Y9310559D01*
X29921119Y9315409D01*
X29916881Y9317594D01*
X29913197Y9320588D01*
X29906997Y9322688D01*
X29901163Y9325697D01*
X29895706Y9326516D01*
X29891938Y9327794D01*
X29887959Y9327681D01*
X29882500Y9328500D01*
X26282500Y9328500D01*
X26276041Y9327341D01*
X26269497Y9327153D01*
X26265091Y9325372D01*
X26260403Y9324531D01*
X26254750Y9321197D01*
X26248681Y9318744D01*
X26245169Y9315541D01*
X26241069Y9313122D01*
X26236941Y9308041D01*
X26232091Y9303619D01*
X26229906Y9299381D01*
X26226913Y9295697D01*
X26224813Y9289497D01*
X26221803Y9283663D01*
X26220984Y9278206D01*
X26219706Y9274438D01*
X26219819Y9270459D01*
X26219000Y9265000D01*
X26219000Y8465000D01*
X26220159Y8458541D01*
X26220347Y8451997D01*
X26222128Y8447591D01*
X26222969Y8442903D01*
X26226303Y8437250D01*
X26228756Y8431181D01*
X26231959Y8427669D01*
X26234378Y8423569D01*
X26239459Y8419441D01*
X26243881Y8414591D01*
X26248119Y8412406D01*
X26251803Y8409413D01*
X26258003Y8407313D01*
X26263838Y8404303D01*
X26269294Y8403484D01*
X26273063Y8402206D01*
X26277041Y8402319D01*
X26282500Y8401500D01*
X29882500Y8401500D01*
X29888959Y8402659D01*
G37*
G36*
X23888959Y8402659D02*
X23888959Y8402659D01*
X23895503Y8402847D01*
X23899909Y8404628D01*
X23904597Y8405469D01*
X23910250Y8408803D01*
X23916319Y8411256D01*
X23919831Y8414459D01*
X23923931Y8416878D01*
X23928059Y8421959D01*
X23932909Y8426381D01*
X23935094Y8430619D01*
X23938088Y8434303D01*
X23940188Y8440503D01*
X23943197Y8446338D01*
X23944016Y8451794D01*
X23945294Y8455563D01*
X23945181Y8459541D01*
X23946000Y8465000D01*
X23946000Y9265000D01*
X23944841Y9271459D01*
X23944653Y9278003D01*
X23942872Y9282409D01*
X23942031Y9287097D01*
X23938697Y9292750D01*
X23936244Y9298819D01*
X23933041Y9302331D01*
X23930622Y9306431D01*
X23925541Y9310559D01*
X23921119Y9315409D01*
X23916881Y9317594D01*
X23913197Y9320588D01*
X23906997Y9322688D01*
X23901163Y9325697D01*
X23895706Y9326516D01*
X23891938Y9327794D01*
X23887959Y9327681D01*
X23882500Y9328500D01*
X20282500Y9328500D01*
X20276041Y9327341D01*
X20269497Y9327153D01*
X20265091Y9325372D01*
X20260403Y9324531D01*
X20254750Y9321197D01*
X20248681Y9318744D01*
X20245169Y9315541D01*
X20241069Y9313122D01*
X20236941Y9308041D01*
X20232091Y9303619D01*
X20229906Y9299381D01*
X20226913Y9295697D01*
X20224813Y9289497D01*
X20221803Y9283663D01*
X20220984Y9278206D01*
X20219706Y9274438D01*
X20219819Y9270459D01*
X20219000Y9265000D01*
X20219000Y8465000D01*
X20220159Y8458541D01*
X20220347Y8451997D01*
X20222128Y8447591D01*
X20222969Y8442903D01*
X20226303Y8437250D01*
X20228756Y8431181D01*
X20231959Y8427669D01*
X20234378Y8423569D01*
X20239459Y8419441D01*
X20243881Y8414591D01*
X20248119Y8412406D01*
X20251803Y8409413D01*
X20258003Y8407313D01*
X20263838Y8404303D01*
X20269294Y8403484D01*
X20273063Y8402206D01*
X20277041Y8402319D01*
X20282500Y8401500D01*
X23882500Y8401500D01*
X23888959Y8402659D01*
G37*
G36*
X35888959Y8402659D02*
X35888959Y8402659D01*
X35895503Y8402847D01*
X35899909Y8404628D01*
X35904597Y8405469D01*
X35910250Y8408803D01*
X35916319Y8411256D01*
X35919831Y8414459D01*
X35923931Y8416878D01*
X35928059Y8421959D01*
X35932909Y8426381D01*
X35935094Y8430619D01*
X35938088Y8434303D01*
X35940188Y8440503D01*
X35943197Y8446338D01*
X35944016Y8451794D01*
X35945294Y8455563D01*
X35945181Y8459541D01*
X35946000Y8465000D01*
X35946000Y9265000D01*
X35944841Y9271459D01*
X35944653Y9278003D01*
X35942872Y9282409D01*
X35942031Y9287097D01*
X35938697Y9292750D01*
X35936244Y9298819D01*
X35933041Y9302331D01*
X35930622Y9306431D01*
X35925541Y9310559D01*
X35921119Y9315409D01*
X35916881Y9317594D01*
X35913197Y9320588D01*
X35906997Y9322688D01*
X35901163Y9325697D01*
X35895706Y9326516D01*
X35891938Y9327794D01*
X35887959Y9327681D01*
X35882500Y9328500D01*
X32282500Y9328500D01*
X32276041Y9327341D01*
X32269497Y9327153D01*
X32265091Y9325372D01*
X32260403Y9324531D01*
X32254750Y9321197D01*
X32248681Y9318744D01*
X32245169Y9315541D01*
X32241069Y9313122D01*
X32236941Y9308041D01*
X32232091Y9303619D01*
X32229906Y9299381D01*
X32226913Y9295697D01*
X32224813Y9289497D01*
X32221803Y9283663D01*
X32220984Y9278206D01*
X32219706Y9274438D01*
X32219819Y9270459D01*
X32219000Y9265000D01*
X32219000Y8465000D01*
X32220159Y8458541D01*
X32220347Y8451997D01*
X32222128Y8447591D01*
X32222969Y8442903D01*
X32226303Y8437250D01*
X32228756Y8431181D01*
X32231959Y8427669D01*
X32234378Y8423569D01*
X32239459Y8419441D01*
X32243881Y8414591D01*
X32248119Y8412406D01*
X32251803Y8409413D01*
X32258003Y8407313D01*
X32263838Y8404303D01*
X32269294Y8403484D01*
X32273063Y8402206D01*
X32277041Y8402319D01*
X32282500Y8401500D01*
X35882500Y8401500D01*
X35888959Y8402659D01*
G37*
G36*
X17888959Y8402659D02*
X17888959Y8402659D01*
X17895503Y8402847D01*
X17899909Y8404628D01*
X17904597Y8405469D01*
X17910250Y8408803D01*
X17916319Y8411256D01*
X17919831Y8414459D01*
X17923931Y8416878D01*
X17928059Y8421959D01*
X17932909Y8426381D01*
X17935094Y8430619D01*
X17938088Y8434303D01*
X17940188Y8440503D01*
X17943197Y8446338D01*
X17944016Y8451794D01*
X17945294Y8455563D01*
X17945181Y8459541D01*
X17946000Y8465000D01*
X17946000Y9265000D01*
X17944841Y9271459D01*
X17944653Y9278003D01*
X17942872Y9282409D01*
X17942031Y9287097D01*
X17938697Y9292750D01*
X17936244Y9298819D01*
X17933041Y9302331D01*
X17930622Y9306431D01*
X17925541Y9310559D01*
X17921119Y9315409D01*
X17916881Y9317594D01*
X17913197Y9320588D01*
X17906997Y9322688D01*
X17901163Y9325697D01*
X17895706Y9326516D01*
X17891938Y9327794D01*
X17887959Y9327681D01*
X17882500Y9328500D01*
X14282500Y9328500D01*
X14276041Y9327341D01*
X14269497Y9327153D01*
X14265091Y9325372D01*
X14260403Y9324531D01*
X14254750Y9321197D01*
X14248681Y9318744D01*
X14245169Y9315541D01*
X14241069Y9313122D01*
X14236941Y9308041D01*
X14232091Y9303619D01*
X14229906Y9299381D01*
X14226913Y9295697D01*
X14224813Y9289497D01*
X14221803Y9283663D01*
X14220984Y9278206D01*
X14219706Y9274438D01*
X14219819Y9270459D01*
X14219000Y9265000D01*
X14219000Y8465000D01*
X14220159Y8458541D01*
X14220347Y8451997D01*
X14222128Y8447591D01*
X14222969Y8442903D01*
X14226303Y8437250D01*
X14228756Y8431181D01*
X14231959Y8427669D01*
X14234378Y8423569D01*
X14239459Y8419441D01*
X14243881Y8414591D01*
X14248119Y8412406D01*
X14251803Y8409413D01*
X14258003Y8407313D01*
X14263838Y8404303D01*
X14269294Y8403484D01*
X14273063Y8402206D01*
X14277041Y8402319D01*
X14282500Y8401500D01*
X17882500Y8401500D01*
X17888959Y8402659D01*
G37*
D10*
X31908800Y58317500D03*
X31908800Y56617500D03*
X12700000Y46298700D03*
X12700000Y47998700D03*
D11*
X14231300Y63182500D03*
X15931300Y63182500D03*
X28472500Y44767500D03*
X26772500Y44767500D03*
D10*
X31432500Y54507500D03*
X31432500Y52807500D03*
X11271200Y48951300D03*
X11271200Y47251300D03*
D11*
X17042500Y64611300D03*
X15342500Y64611300D03*
X18200000Y67627500D03*
X19900000Y67627500D03*
X27725000Y63500000D03*
X29425000Y63500000D03*
D12*
X29730000Y65405000D03*
X31230000Y65405000D03*
D10*
X32805000Y65405000D03*
X34505000Y65405000D03*
X32805000Y67310000D03*
X34505000Y67310000D03*
D12*
X29730000Y67310000D03*
X31230000Y67310000D03*
D13*
X46222500Y6367500D03*
X46222500Y1867500D03*
X55322500Y6367500D03*
X55322500Y1867500D03*
D14*
X8890000Y77152500D03*
X7937500Y77152500D03*
X6985000Y77152500D03*
X8890000Y74612500D03*
X6985000Y74612500D03*
D10*
X10477500Y76732500D03*
X10477500Y75032500D03*
X7302500Y70270000D03*
X7302500Y71970000D03*
X17882500Y82232500D03*
X19582500Y82232500D03*
D12*
X19482500Y83820000D03*
X17982500Y83820000D03*
D15*
X10477500Y69215000D03*
X10477500Y73025000D03*
D16*
X44557500Y51362500D03*
X45057500Y51362500D03*
X45557500Y51362500D03*
X46057500Y51362500D03*
X46557500Y51362500D03*
X47057500Y51362500D03*
X47557500Y51362500D03*
X48057500Y51362500D03*
X48557500Y51362500D03*
X49057500Y51362500D03*
X49557500Y51362500D03*
X50057500Y51362500D03*
D17*
X51507500Y52812500D03*
X51507500Y53312500D03*
X51507500Y53812500D03*
X51507500Y54312500D03*
X51507500Y54812500D03*
X51507500Y55312500D03*
X51507500Y55812500D03*
X51507500Y56312500D03*
X51507500Y56812500D03*
X51507500Y57312500D03*
X51507500Y57812500D03*
X51507500Y58312500D03*
D16*
X50057500Y59762500D03*
X49557500Y59762500D03*
X49057500Y59762500D03*
X48557500Y59762500D03*
X48057500Y59762500D03*
X47557500Y59762500D03*
X47057500Y59762500D03*
X46557500Y59762500D03*
X46057500Y59762500D03*
X45557500Y59762500D03*
X45057500Y59762500D03*
X44557500Y59762500D03*
D17*
X43107500Y58312500D03*
X43107500Y57812500D03*
X43107500Y57312500D03*
X43107500Y56812500D03*
X43107500Y56312500D03*
X43107500Y55812500D03*
X43107500Y55312500D03*
X43107500Y54812500D03*
X43107500Y54312500D03*
X43107500Y53812500D03*
X43107500Y53312500D03*
X43107500Y52812500D03*
D18*
X37650000Y49770000D03*
D19*
X37650000Y49145000D03*
X37650000Y48645000D03*
D18*
X37650000Y48020000D03*
X38550000Y48020000D03*
D19*
X38550000Y48645000D03*
X38550000Y49145000D03*
D18*
X38550000Y49770000D03*
X37650000Y52627500D03*
D19*
X37650000Y52002500D03*
X37650000Y51502500D03*
D18*
X37650000Y50877500D03*
X38550000Y50877500D03*
D19*
X38550000Y51502500D03*
X38550000Y52002500D03*
D18*
X38550000Y52627500D03*
X39237500Y55802500D03*
D19*
X39237500Y55177500D03*
X39237500Y54677500D03*
D18*
X39237500Y54052500D03*
X40137500Y54052500D03*
D19*
X40137500Y54677500D03*
X40137500Y55177500D03*
D18*
X40137500Y55802500D03*
X37650000Y59295000D03*
D19*
X37650000Y58670000D03*
X37650000Y58170000D03*
D18*
X37650000Y57545000D03*
X38550000Y57545000D03*
D19*
X38550000Y58170000D03*
X38550000Y58670000D03*
D18*
X38550000Y59295000D03*
D10*
X56412500Y63341200D03*
X54712500Y63341200D03*
D11*
X43077500Y59690000D03*
X41377500Y59690000D03*
X54712500Y54610000D03*
X56412500Y54610000D03*
X54712500Y60483700D03*
X56412500Y60483700D03*
D10*
X54712500Y56038700D03*
X56412500Y56038700D03*
X54712500Y57467500D03*
X56412500Y57467500D03*
D11*
X54712500Y59055000D03*
X56412500Y59055000D03*
X46411200Y61436300D03*
X44711200Y61436300D03*
X42760000Y51593700D03*
X41060000Y51593700D03*
D18*
X38550000Y65482500D03*
D19*
X38550000Y66107500D03*
X38550000Y66607500D03*
D18*
X38550000Y67232500D03*
X37650000Y67232500D03*
D19*
X37650000Y66607500D03*
X37650000Y66107500D03*
D18*
X37650000Y65482500D03*
D12*
X37580000Y83820000D03*
X36080000Y83820000D03*
D20*
X54532500Y51250000D03*
D21*
X53907500Y51250000D03*
X53407500Y51250000D03*
D20*
X52782500Y51250000D03*
X52782500Y50350000D03*
D21*
X53407500Y50350000D03*
X53907500Y50350000D03*
D20*
X54532500Y50350000D03*
D10*
X37997500Y70802500D03*
X36297500Y70802500D03*
X37997500Y72231300D03*
X36297500Y72231300D03*
X36012500Y82192500D03*
X37712500Y82192500D03*
D11*
X36297500Y69373800D03*
X37997500Y69373800D03*
D10*
X56197500Y49950000D03*
X56197500Y51650000D03*
X46411200Y63500000D03*
X44711200Y63500000D03*
D22*
X42533800Y63556200D03*
X40333800Y63556200D03*
X40333800Y61856200D03*
X42533800Y61856200D03*
D23*
X9200000Y81900000D03*
X9900000Y81900000D03*
X9200000Y81200000D03*
X9900000Y81200000D03*
X9900000Y80500000D03*
X9200000Y80500000D03*
X14100000Y81900000D03*
X14800000Y81900000D03*
X14800000Y81200000D03*
X14100000Y81200000D03*
X14100000Y80500000D03*
X14800000Y80500000D03*
D24*
X10700000Y80850000D03*
X11350000Y80850000D03*
X12000000Y80850000D03*
X12650000Y80850000D03*
X13300000Y80850000D03*
D25*
X8350000Y83950000D03*
X9850000Y83950000D03*
X9100000Y83950000D03*
X8350000Y83050000D03*
X9850000Y83050000D03*
X9100000Y83050000D03*
X15650000Y83950000D03*
X15650000Y83050000D03*
X14150000Y83050000D03*
X14150000Y83950000D03*
X14900000Y83950000D03*
X14900000Y83050000D03*
D26*
X11150000Y84000000D03*
X11150000Y83000000D03*
X12850000Y84000000D03*
X12850000Y83000000D03*
D10*
X19208800Y79590000D03*
X19208800Y77890000D03*
D11*
X28042500Y83502600D03*
X29742500Y83502600D03*
X25297500Y71751300D03*
X26997500Y71751300D03*
D10*
X31270000Y75065000D03*
X31270000Y73365000D03*
D18*
X14737500Y70562500D03*
D19*
X14737500Y71187500D03*
X14737500Y71687500D03*
D18*
X14737500Y72312500D03*
X13837500Y72312500D03*
D19*
X13837500Y71687500D03*
X13837500Y71187500D03*
D18*
X13837500Y70562500D03*
D27*
X4180000Y69215000D03*
X5780000Y69215000D03*
D11*
X2755000Y69215000D03*
X1055000Y69215000D03*
D28*
X31492500Y24765000D03*
X32642500Y24765000D03*
D29*
X31067500Y23390000D03*
X31567500Y23390000D03*
X32067500Y23390000D03*
X32567500Y23390000D03*
X33067500Y23390000D03*
X31067500Y26140000D03*
X31567500Y26140000D03*
X32067500Y26140000D03*
X32567500Y26140000D03*
X33067500Y26140000D03*
D30*
X33692500Y24015000D03*
X33692500Y24515000D03*
X33692500Y25015000D03*
X33692500Y25515000D03*
X30442500Y24015000D03*
X30442500Y24515000D03*
X30442500Y25015000D03*
X30442500Y25515000D03*
D31*
X30442500Y23390000D03*
X33692500Y23390000D03*
X30442500Y26140000D03*
X33692500Y26140000D03*
D10*
X37306200Y25820000D03*
X37306200Y27520000D03*
X35877500Y25820000D03*
X35877500Y27520000D03*
D11*
X32646300Y29686300D03*
X34346300Y29686300D03*
X32646300Y28257500D03*
X34346300Y28257500D03*
X31012500Y29686200D03*
X29312500Y29686200D03*
X31012600Y28257500D03*
X29312600Y28257500D03*
X12756200Y24288800D03*
X11056200Y24288800D03*
D10*
X14605100Y20693700D03*
X14605100Y18993700D03*
D11*
X12756300Y21431200D03*
X11056300Y21431200D03*
D32*
X13187500Y29425000D03*
X13187500Y27725000D03*
X15387500Y27725000D03*
X15387500Y29425000D03*
D33*
X19843800Y24303700D03*
X19843800Y23003700D03*
X23336300Y24303700D03*
X23336300Y23003700D03*
X26828800Y24303700D03*
X26828800Y23003700D03*
D34*
X29225100Y24288700D03*
X27925100Y24288700D03*
X24432600Y25558700D03*
X25732600Y25558700D03*
D35*
X18668700Y25221200D03*
D36*
X17918700Y25971200D03*
X17418700Y25971200D03*
X16918700Y25971200D03*
X16418700Y25971200D03*
X15918700Y25971200D03*
X15418700Y25971200D03*
D35*
X14668700Y25221200D03*
X14668700Y24721200D03*
X14668700Y24221200D03*
X14668700Y23721200D03*
X14668700Y23221200D03*
X14668700Y22721200D03*
D36*
X15418700Y21971200D03*
X15918700Y21971200D03*
X16418700Y21971200D03*
X16918700Y21971200D03*
X17418700Y21971200D03*
X17918700Y21971200D03*
D35*
X18668700Y22721200D03*
X18668700Y23221200D03*
X18668700Y23721200D03*
X18668700Y24221200D03*
X18668700Y24721200D03*
D37*
X17318700Y24621200D03*
X16018700Y24621200D03*
X17318700Y23321200D03*
X16018700Y23321200D03*
D10*
X17938800Y27883700D03*
X17938800Y29583700D03*
X19367500Y27883700D03*
X19367500Y29583700D03*
D34*
X20940000Y24288700D03*
X22240000Y24288700D03*
X24432600Y24288700D03*
X25732600Y24288700D03*
D11*
X35345000Y31908700D03*
X37045000Y31908700D03*
D20*
X34688700Y36486100D03*
D21*
X34063700Y36486100D03*
X33563700Y36486100D03*
D20*
X32938700Y36486100D03*
X32938700Y35586100D03*
D21*
X33563700Y35586100D03*
X34063700Y35586100D03*
D20*
X34688700Y35586100D03*
D11*
X32282500Y31908700D03*
X30582500Y31908700D03*
X34710000Y33337400D03*
X36410000Y33337400D03*
X32917500Y33337400D03*
X31217500Y33337400D03*
D33*
X37147500Y16842500D03*
X37147500Y15542500D03*
D34*
X37162500Y14287500D03*
X35862500Y14287500D03*
X37162500Y10477500D03*
X35862500Y10477500D03*
D33*
X19208800Y16842500D03*
X19208800Y15542500D03*
D34*
X19223800Y14287500D03*
X17923800Y14287500D03*
X19223800Y10477500D03*
X17923800Y10477500D03*
D10*
X16033800Y20693700D03*
X16033800Y18993700D03*
D11*
X12756300Y22859900D03*
X11056300Y22859900D03*
D20*
X17702500Y35851200D03*
D21*
X17077500Y35851200D03*
X16577500Y35851200D03*
D20*
X15952500Y35851200D03*
X15952500Y34951200D03*
D21*
X16577500Y34951200D03*
X17077500Y34951200D03*
D20*
X17702500Y34951200D03*
X14368800Y35851300D03*
D21*
X13743800Y35851300D03*
X13243800Y35851300D03*
D20*
X12618800Y35851300D03*
X12618800Y34951300D03*
D21*
X13243800Y34951300D03*
X13743800Y34951300D03*
D20*
X14368800Y34951300D03*
D38*
X33972500Y53002500D03*
X33972500Y50502500D03*
D10*
X33972500Y48792500D03*
X33972500Y47092500D03*
X33972500Y54712500D03*
X33972500Y56412500D03*
D33*
X37147500Y13032500D03*
X37147500Y11732500D03*
X19208800Y13032500D03*
X19208800Y11732500D03*
D39*
X14207500Y47975000D03*
X14207500Y48475000D03*
X14207500Y48975000D03*
X14207500Y49475000D03*
X14207500Y49975000D03*
X14207500Y50475000D03*
X14207500Y50975000D03*
X14207500Y51475000D03*
X14207500Y51975000D03*
X14207500Y52475000D03*
X14207500Y52975000D03*
X14207500Y53475000D03*
X14207500Y53975000D03*
X14207500Y54475000D03*
X14207500Y54975000D03*
X14207500Y55475000D03*
X14207500Y55975000D03*
X14207500Y56475000D03*
X14207500Y56975000D03*
X14207500Y57475000D03*
X14207500Y57975000D03*
X14207500Y58475000D03*
X14207500Y58975000D03*
X14207500Y59475000D03*
X14207500Y59975000D03*
X29607500Y47975000D03*
X29607500Y48475000D03*
X29607500Y48975000D03*
X29607500Y49475000D03*
X29607500Y49975000D03*
X29607500Y50475000D03*
X29607500Y50975000D03*
X29607500Y51475000D03*
X29607500Y51975000D03*
X29607500Y52475000D03*
X29607500Y52975000D03*
X29607500Y53475000D03*
X29607500Y53975000D03*
X29607500Y54475000D03*
X29607500Y54975000D03*
X29607500Y55475000D03*
X29607500Y55975000D03*
X29607500Y56475000D03*
X29607500Y56975000D03*
X29607500Y57475000D03*
X29607500Y57975000D03*
X29607500Y58475000D03*
X29607500Y58975000D03*
X29607500Y59475000D03*
X29607500Y59975000D03*
D40*
X27907500Y46275000D03*
X27407500Y46275000D03*
X26907500Y46275000D03*
X26407500Y46275000D03*
X25907500Y46275000D03*
X25407500Y46275000D03*
X24907500Y46275000D03*
X24407500Y46275000D03*
X23907500Y46275000D03*
X23407500Y46275000D03*
X22907500Y46275000D03*
X22407500Y46275000D03*
X21907500Y46275000D03*
X21407500Y46275000D03*
X20907500Y46275000D03*
X20407500Y46275000D03*
X19907500Y46275000D03*
X19407500Y46275000D03*
X18907500Y46275000D03*
X18407500Y46275000D03*
X17907500Y46275000D03*
X17407500Y46275000D03*
X16907500Y46275000D03*
X16407500Y46275000D03*
X15907500Y46275000D03*
X27907500Y61675000D03*
X27407500Y61675000D03*
X26907500Y61675000D03*
X26407500Y61675000D03*
X25907500Y61675000D03*
X25407500Y61675000D03*
X24907500Y61675000D03*
X24407500Y61675000D03*
X23907500Y61675000D03*
X23407500Y61675000D03*
X22907500Y61675000D03*
X22407500Y61675000D03*
X21907500Y61675000D03*
X21407500Y61675000D03*
X20907500Y61675000D03*
X20407500Y61675000D03*
X19907500Y61675000D03*
X19407500Y61675000D03*
X18907500Y61675000D03*
X18407500Y61675000D03*
X17907500Y61675000D03*
X17407500Y61675000D03*
X16907500Y61675000D03*
X16407500Y61675000D03*
X15907500Y61675000D03*
D41*
X25556300Y37177500D03*
X24606300Y37177500D03*
X23656300Y37177500D03*
X23656300Y34577500D03*
X25556300Y34577500D03*
D11*
X25456300Y38735000D03*
X23756300Y38735000D03*
X25456300Y33020000D03*
X23756300Y33020000D03*
D18*
X14737500Y67387500D03*
D19*
X14737500Y68012500D03*
X14737500Y68512500D03*
D18*
X14737500Y69137500D03*
X13837500Y69137500D03*
D19*
X13837500Y68512500D03*
X13837500Y68012500D03*
D18*
X13837500Y67387500D03*
D20*
X30402500Y72205000D03*
D21*
X29777500Y72205000D03*
X29277500Y72205000D03*
D20*
X28652500Y72205000D03*
X28652500Y71305000D03*
D21*
X29277500Y71305000D03*
X29777500Y71305000D03*
D20*
X30402500Y71305000D03*
D12*
X24015000Y42068800D03*
X25515000Y42068800D03*
D11*
X27146300Y36727500D03*
X27146300Y35027500D03*
X54712500Y61912500D03*
X56412500Y61912500D03*
D42*
X29282500Y80220000D03*
X29282500Y79720000D03*
X29282500Y79220000D03*
X29282500Y78720000D03*
X29282500Y78220000D03*
X29282500Y77720000D03*
X29282500Y77220000D03*
X29282500Y76720000D03*
X29282500Y76220000D03*
X29282500Y75720000D03*
X29282500Y75220000D03*
X29282500Y74720000D03*
D43*
X22332500Y81670000D03*
X22832500Y81670000D03*
X23332500Y81670000D03*
X23832500Y81670000D03*
X24332500Y81670000D03*
X24832500Y81670000D03*
X25332500Y81670000D03*
X25832500Y81670000D03*
X26332500Y81670000D03*
X26832500Y81670000D03*
X27332500Y81670000D03*
X27832500Y81670000D03*
X22332500Y73270000D03*
X22832500Y73270000D03*
X23332500Y73270000D03*
X23832500Y73270000D03*
X24332500Y73270000D03*
X24832500Y73270000D03*
X25332500Y73270000D03*
X25832500Y73270000D03*
X26332500Y73270000D03*
X26832500Y73270000D03*
X27332500Y73270000D03*
X27832500Y73270000D03*
D42*
X20882500Y80220000D03*
X20882500Y79720000D03*
X20882500Y79220000D03*
X20882500Y78720000D03*
X20882500Y78220000D03*
X20882500Y77720000D03*
X20882500Y77220000D03*
X20882500Y76720000D03*
X20882500Y76220000D03*
X20882500Y75720000D03*
X20882500Y75220000D03*
X20882500Y74720000D03*
D27*
X13705000Y77470000D03*
X15305000Y77470000D03*
D10*
X13755000Y75882500D03*
X15455000Y75882500D03*
X13755000Y74295000D03*
X15455000Y74295000D03*
X26567500Y83502500D03*
X24867500Y83502500D03*
D11*
X23392500Y83820000D03*
X21692500Y83820000D03*
D10*
X38950000Y79057500D03*
X37250000Y79057500D03*
D11*
X13755000Y79057500D03*
X15455000Y79057500D03*
X33337500Y80747500D03*
X33337500Y82447500D03*
D10*
X31273800Y81495000D03*
X31273800Y79795000D03*
D44*
X33496300Y75970000D03*
D45*
X32446300Y75970000D03*
X34546300Y75970000D03*
X34546300Y77470000D03*
X34546300Y78970000D03*
X32446300Y78970000D03*
X32446300Y77470000D03*
D44*
X33496300Y77470000D03*
X33496300Y78970000D03*
D11*
X31273800Y78320000D03*
X31273800Y76620000D03*
D46*
X39250000Y75567500D03*
X39250000Y76517500D03*
X39250000Y77467500D03*
X36950000Y77467500D03*
X36950000Y76517500D03*
X36950000Y75567500D03*
D11*
X37250000Y73977500D03*
X38950000Y73977500D03*
D10*
X38950000Y80645000D03*
X37250000Y80645000D03*
D47*
X20317500Y71775000D03*
X19367500Y71775000D03*
X18417500Y71775000D03*
X18417500Y69185000D03*
X20317500Y69185000D03*
D48*
X53022500Y25717500D03*
D49*
X53022500Y14287500D03*
X53022500Y37147500D03*
D10*
X21907500Y69635000D03*
X21907500Y71335000D03*
D27*
X24395000Y31115000D03*
X22795000Y31115000D03*
X26405000Y31115000D03*
X28005000Y31115000D03*
M02*
