M48
;GenerationSoftware,Autodesk,EAGLE,9.4.2*%
;CreationDate,2019-11-19T20:24:05Z*%
FMAT,2
ICI,OFF
METRIC,TZ,000.000
T8C0.305
T7C0.900
T6C1.016
T5C1.500
T4C1.600
T3C1.700
T2C3.200
T1C3.300
%
G90
M71
T1
X43085Y75900
X54515Y75900
T2
X3000Y74000
X3000Y11000
X55000Y42500
T3
X56547Y72852
X41053Y72852
T4
X16450Y1450
X34450Y6550
X39550Y6550
X39550Y1450
X34450Y1450
X16450Y6550
X21550Y6550
X21550Y1450
T5
X19000Y4000
X37000Y4000
T6
X55429Y79964
X42171Y79964
X44711Y79964
X52889Y79964
X50705Y69550
X48165Y69550
X45625Y69550
X51975Y67010
X49435Y67010
X46895Y67010
X44355Y67010
X53245Y69550
T7
X2230Y38690
X2230Y36150
X4770Y36150
X4770Y33610
X2230Y33610
X4770Y43770
X4770Y31070
X4770Y28530
X2230Y28530
X2230Y25990
X4770Y25990
X4770Y23450
X2230Y23450
X2230Y20910
X4770Y20910
X4770Y18370
X2230Y18370
X4770Y41230
X2230Y41230
X2230Y43770
X4770Y46310
X2230Y46310
X4770Y48850
X2230Y48850
X4770Y51390
X2230Y51390
X4770Y53930
X2230Y53930
X4770Y56470
X2230Y56470
X4770Y59010
X2230Y31070
X2230Y59010
X4770Y61550
X2230Y61550
X4770Y64090
X2230Y64090
X4770Y66630
X2230Y66630
X4770Y38690
T8
X34608Y15557
X34608Y14287
X34608Y13017
X34608Y11747
X34608Y10477
X38418Y16827
X38418Y15557
X38418Y14287
X38418Y13017
X38418Y11747
X38418Y10477
X39688Y10477
X39688Y11747
X39688Y13017
X40640Y13017
X39688Y14287
X39688Y15557
X39688Y16827
X20479Y16827
X20479Y15557
X20479Y14287
X20479Y13017
X20479Y11747
X20479Y10477
X21749Y10477
X21749Y11747
X21749Y13017
X21749Y14287
X21749Y15557
X21749Y16827
X17939Y16827
X17939Y15557
X17939Y13017
X17939Y11747
X16669Y16827
X16669Y15557
X16669Y14287
X16669Y13017
X16669Y11747
X16669Y10477
X39688Y18097
X39688Y19367
X39688Y20637
X39370Y21907
X39370Y23177
X39370Y24447
X38100Y24447
X39370Y25717
X38418Y17780
X38418Y18733
X38418Y19685
X38418Y20638
X38418Y21590
X35878Y17780
X35878Y18733
X35878Y19685
X35878Y20638
X35878Y21590
X35401Y22384
X34608Y22860
X38259Y22384
X37941Y23177
X37306Y23971
X36671Y24606
X35878Y24765
X26987Y18098
X27940Y18098
X28892Y18098
X29845Y18098
X30797Y18098
X31591Y18256
X32385Y18574
X33179Y19209
X33814Y20002
X34131Y21114
X34131Y22066
X26194Y20638
X27146Y20638
X28099Y20638
X29051Y20638
X30004Y20638
X30956Y20796
X26035Y18098
X25082Y18098
X24130Y18098
X23177Y18098
X22225Y18098
X20955Y17939
X25241Y20638
X24289Y20638
X23336Y20638
X22384Y20638
X21431Y20638
X20637Y20479
X19844Y20161
X19050Y19526
X18415Y18733
X18098Y17621
X27940Y13652
X25400Y13652
X33020Y11112
X30480Y11112
X30480Y8573
X30480Y6032
X27940Y6032
X25400Y8573
X25400Y6032
X27940Y11112
X25400Y11112
X12700Y11112
X12700Y8573
X12700Y6032
X10160Y6032
X12700Y13652
X10160Y11112
X22860Y11112
X22860Y13652
X22860Y16192
X25400Y16192
X30480Y13652
X33020Y13652
X33020Y16192
X30480Y16192
X27940Y16192
X15240Y11112
X15240Y13652
X10160Y13652
X10160Y16192
X12700Y16192
X15240Y16192
X16034Y18098
X14605Y18098
X12700Y18733
X10160Y18733
X25717Y23019
X24447Y23019
X22225Y23019
X20955Y23019
X27940Y23019
X26829Y25400
X27940Y25400
X23336Y25400
X22066Y25400
X20796Y25400
X19844Y25400
X23336Y26829
X26829Y26829
X24447Y26829
X25717Y26829
X27940Y26829
X29527Y26829
X22066Y26829
X27940Y21749
X29051Y21749
X25717Y21749
X24447Y21749
X22225Y21749
X20955Y21749
X23336Y21749
X26829Y21749
X10160Y26352
X10160Y28892
X10160Y31432
X10160Y33973
X10160Y36195
X39370Y26987
X25400Y28734
X22860Y28734
X25400Y30004
X27940Y28734
X35877Y28575
X39370Y28734
X39370Y31274
X39370Y33814
X39370Y36354
X39370Y38894
X36830Y38894
X34607Y38894
X36830Y36354
X36830Y34449
X29210Y33814
X29210Y36354
X29210Y38894
X26670Y33814
X21590Y34131
X19050Y34131
X21590Y36354
X19050Y36354
X19050Y38894
X14922Y31750
X13494Y30639
X15240Y34131
X10160Y21431
X10160Y22860
X10160Y24289
X53022Y28892
X13176Y71596
X29527Y64452
X53022Y3492
X47942Y3492
X35878Y11747
X20479Y83820
X33973Y57309
X34925Y47149
X32385Y53022
X31909Y55563
X14446Y64929
X18415Y72708
X20955Y67945
X25876Y44768
X25400Y47625
X10795Y46196
X40005Y74295
X16351Y80010
X22860Y71279
X49847Y25717
X53022Y22542
X56197Y25717
X19368Y49689
X45720Y44767
X55880Y45720
X50800Y40640
X45720Y40640
X40640Y44767
X25559Y68580
X33179Y70326
X10160Y66040
X5080Y71120
X10160Y60960
X5080Y15240
X45720Y10160
X50800Y10160
X55880Y10160
X15240Y38894
X11112Y38894
X56832Y6350
X15557Y73025
X27464Y54134
X46037Y7620
X17145Y67628
X13970Y62230
X14605Y61595
X21590Y53340
X6032Y53340
X22225Y52705
X22860Y50165
X18415Y51435
X8573Y49212
X17780Y50800
X17780Y49530
X22860Y54610
X6667Y53975
X22225Y55245
X21590Y55880
X7937Y55245
X20955Y56515
X9208Y55880
X20320Y57150
X7302Y57150
X19685Y57785
X8573Y57785
X19050Y58420
X9843Y58420
X18415Y59055
X10478Y59055
X17780Y59690
X11112Y59690
X17145Y48895
X13017Y56515
X15399Y50800
X28416Y53499
X46672Y57785
X28416Y82550
X32385Y82233
X26670Y38735
X16192Y77470
X32385Y74613
X11430Y76835
X635Y37465
X24130Y65723
X26829Y52070
X23495Y66358
X26194Y52705
X28257Y49530
X36989Y48577
X36830Y51276
X27622Y51276
X35878Y50006
X22860Y63500
X36036Y53975
X28257Y57150
X36036Y53022
X27622Y56515
X37148Y55721
X28257Y58420
X37148Y54769
X27622Y57785
X38418Y55404
X35560Y60960
X25400Y62865
X36513Y56356
X27940Y59690
X36830Y58102
X28099Y54769
X45085Y58420
X36195Y61595
X47307Y63500
X47625Y58420
X37465Y61595
X31432Y47307
X31432Y44767
X43180Y60642
X53816Y61912
X53816Y54610
X39370Y66993
X50165Y57785
X50165Y56832
X50165Y55880
X50165Y54927
X38735Y72390
X39053Y70803
X15557Y72073
X16828Y72073
X15557Y71120
X17463Y70803
X15557Y70168
X19368Y70168
X17621Y26829
X13970Y22225
X32226Y27305
X33655Y31909
X30639Y22225
X34290Y31274
X30956Y27305
X33020Y31274
X43656Y51594
X35084Y30797
X33338Y37465
X30162Y47307
X30162Y42545
X34290Y37465
X30797Y47942
X30797Y41910
X32385Y37465
X27464Y49530
X28575Y41910
X35243Y37465
X32067Y47942
X32067Y41910
X17939Y20955
X19685Y30797
X17145Y20796
X17780Y31432
X18574Y21590
X20320Y31432
X19368Y21590
X20955Y30797
X18256Y36830
X21273Y41910
X14129Y36671
X14287Y42228
X12382Y36671
X13017Y41593
X24130Y48577
X21590Y64135
X13017Y50165
X25082Y48577
X22225Y64770
X19050Y52070
X11430Y52070
X19685Y51435
X17304Y36830
X18415Y42863
X15399Y36830
X17463Y43815
X16351Y36830
X18415Y43815
X22860Y37624
X22860Y41910
X28892Y80963
X36195Y76518
X29845Y80963
X36195Y78423
X27622Y80645
X36195Y80963
X13176Y68580
X17939Y47625
X18574Y48260
X12382Y66675
X32702Y48577
X42545Y37465
X16828Y29686
X13652Y20320
X12541Y25241
X22225Y32067
X31432Y22225
X29369Y25717
X38259Y26035
X30797Y30639
X32385Y30639
X28575Y32067
X36513Y68421
X36989Y28575
X47308Y61754
X44609Y64452
X39053Y61436
X37624Y64770
X56197Y49054
X21590Y82550
X18415Y79534
X22860Y72231
X25241Y70802
X57309Y57467
X57309Y56039
X35401Y67310
X35401Y65405
X7144Y69215
X13811Y70009
X22860Y69532
X31909Y59214
X32385Y54769
X27623Y64453
X14129Y64135
X11748Y46038
X29369Y44767
X38735Y82233
X20638Y82232
X50165Y53658
X15875Y26829
X14605Y26035
X14922Y21907
X29686Y31909
X37941Y31909
X37306Y33337
X30321Y33337
X18415Y30797
X53181Y55721
X40164Y51594
X40481Y59690
X37941Y68421
X43815Y61436
X56197Y52546
X10478Y79375
X19367Y76994
X7937Y76200
X11430Y74771
X7302Y72866
X35242Y77470
X32226Y80169
X28257Y79534
X32226Y73342
X27146Y70802
X21749Y72708
X30797Y83661
X35878Y16827
X13494Y34131
X13494Y33020
X33814Y34290
X57309Y54610
X57309Y59055
X57309Y60484
X57309Y61912
X57309Y63341
X56833Y1905
X44768Y1905
X50800Y44767
X35878Y15557
X35878Y13017
X34608Y16827
X31750Y21431
M30