G04 EAGLE Gerber X2 export*
%TF.Part,Single*%
%TF.FileFunction,Soldermask,Top,1*%
%TF.FilePolarity,Positive*%
%TF.GenerationSoftware,Autodesk,EAGLE,9.4.2*%
%TF.CreationDate,2019-11-19T20:24:05Z*%
G75*
%MOMM*%
%FSLAX36Y36*%
%LPD*%
%INSoldermask Top*%
%AMOC8*
5,1,8,0,0,1.08239X$1,22.5*%
G01*
%ADD10C,0.152400*%
%ADD11C,3.350000*%
%ADD12P,1.569466X8X202.500000*%
%ADD13R,1.150000X1.250000*%
%ADD14R,1.250000X1.150000*%
%ADD15R,0.950000X0.950000*%
%ADD16R,2.250000X1.550000*%
%ADD17R,0.658000X1.166000*%
%ADD18R,2.436000X1.801000*%
%ADD19R,0.450000X1.650000*%
%ADD20R,1.650000X0.450000*%
%ADD21C,1.566000*%
%ADD22P,2.435377X8X292.500000*%
%ADD23R,1.566000X1.566000*%
%ADD24C,3.450000*%
%ADD25R,0.650000X0.675000*%
%ADD26R,0.650000X0.400000*%
%ADD27R,0.675000X0.650000*%
%ADD28R,0.400000X0.650000*%
%ADD29R,1.550000X1.350000*%
%ADD30R,0.500000X1.450000*%
%ADD31R,1.550000X2.200000*%
%ADD32R,2.450000X2.000000*%
%ADD33R,1.200000X2.000000*%
%ADD34R,1.000000X0.850000*%
%ADD35R,2.100000X1.100000*%
%ADD36R,0.400000X0.850000*%
%ADD37R,0.850000X0.400000*%
%ADD38R,0.850000X0.850000*%
%ADD39P,2.327138X8X22.500000*%
%ADD40C,2.050000*%
%ADD41R,1.500000X1.300000*%
%ADD42R,1.050000X0.850000*%
%ADD43R,0.850000X1.050000*%
%ADD44R,0.350000X0.850000*%
%ADD45R,0.850000X0.350000*%
%ADD46R,2.600000X2.600000*%
%ADD47R,1.950000X1.150000*%
%ADD48R,1.300000X0.400000*%
%ADD49R,0.400000X1.300000*%
%ADD50R,0.700000X1.350000*%
%ADD51R,1.100000X0.400000*%
%ADD52R,0.400000X1.100000*%
%ADD53R,0.500000X0.800000*%
%ADD54R,1.600000X0.400000*%
%ADD55R,1.050000X0.750000*%
%ADD56R,0.840000X1.140000*%
%ADD57R,5.230000X5.230000*%
%ADD58R,5.230000X2.182000*%

G36*
X41488959Y8302659D02*
X41488959Y8302659D01*
X41495503Y8302847D01*
X41499909Y8304628D01*
X41504597Y8305469D01*
X41510250Y8308803D01*
X41516319Y8311256D01*
X41519831Y8314459D01*
X41523931Y8316878D01*
X41528059Y8321959D01*
X41532909Y8326381D01*
X41535094Y8330619D01*
X41538088Y8334303D01*
X41540188Y8340503D01*
X41543197Y8346338D01*
X41544016Y8351794D01*
X41545294Y8355563D01*
X41545181Y8359541D01*
X41546000Y8365000D01*
X41546000Y11665000D01*
X41544841Y11671459D01*
X41544653Y11678003D01*
X41542872Y11682409D01*
X41542031Y11687097D01*
X41538697Y11692750D01*
X41536244Y11698819D01*
X41533041Y11702331D01*
X41530622Y11706431D01*
X41525541Y11710559D01*
X41521119Y11715409D01*
X41516881Y11717594D01*
X41513197Y11720588D01*
X41506997Y11722688D01*
X41501163Y11725697D01*
X41495706Y11726516D01*
X41491938Y11727794D01*
X41487959Y11727681D01*
X41482500Y11728500D01*
X40482500Y11728500D01*
X40476041Y11727341D01*
X40469497Y11727153D01*
X40465091Y11725372D01*
X40460403Y11724531D01*
X40454750Y11721197D01*
X40448681Y11718744D01*
X40445169Y11715541D01*
X40441069Y11713122D01*
X40436941Y11708041D01*
X40432091Y11703619D01*
X40429906Y11699381D01*
X40426913Y11695697D01*
X40424813Y11689497D01*
X40421803Y11683663D01*
X40420984Y11678206D01*
X40419706Y11674438D01*
X40419819Y11670459D01*
X40419000Y11665000D01*
X40419000Y9428500D01*
X38182500Y9428500D01*
X38176041Y9427341D01*
X38169497Y9427153D01*
X38165091Y9425372D01*
X38160403Y9424531D01*
X38154750Y9421197D01*
X38148681Y9418744D01*
X38145169Y9415541D01*
X38141069Y9413122D01*
X38136941Y9408041D01*
X38132091Y9403619D01*
X38129906Y9399381D01*
X38126913Y9395697D01*
X38124813Y9389497D01*
X38121803Y9383663D01*
X38120981Y9378197D01*
X38119706Y9374438D01*
X38119819Y9370459D01*
X38119000Y9365000D01*
X38119000Y8365000D01*
X38120159Y8358541D01*
X38120347Y8351997D01*
X38122128Y8347591D01*
X38122969Y8342903D01*
X38126303Y8337250D01*
X38128756Y8331181D01*
X38131959Y8327669D01*
X38134378Y8323569D01*
X38139459Y8319441D01*
X38143881Y8314591D01*
X38148119Y8312406D01*
X38151803Y8309413D01*
X38158003Y8307313D01*
X38163838Y8304303D01*
X38169294Y8303484D01*
X38173063Y8302206D01*
X38177041Y8302319D01*
X38182500Y8301500D01*
X41482500Y8301500D01*
X41488959Y8302659D01*
G37*
G36*
X9688959Y37802659D02*
X9688959Y37802659D01*
X9695503Y37802847D01*
X9699909Y37804628D01*
X9704597Y37805469D01*
X9710250Y37808803D01*
X9716319Y37811256D01*
X9719831Y37814459D01*
X9723931Y37816878D01*
X9728059Y37821959D01*
X9732909Y37826381D01*
X9735094Y37830619D01*
X9738088Y37834303D01*
X9740188Y37840503D01*
X9743197Y37846338D01*
X9744016Y37851794D01*
X9745294Y37855563D01*
X9745181Y37859541D01*
X9746000Y37865000D01*
X9746000Y40101500D01*
X11982500Y40101500D01*
X11988959Y40102659D01*
X11995503Y40102847D01*
X11999909Y40104628D01*
X12004597Y40105469D01*
X12010250Y40108803D01*
X12016319Y40111256D01*
X12019831Y40114459D01*
X12023931Y40116878D01*
X12028059Y40121959D01*
X12032909Y40126381D01*
X12035094Y40130619D01*
X12038088Y40134303D01*
X12040188Y40140503D01*
X12043197Y40146338D01*
X12044016Y40151794D01*
X12045294Y40155563D01*
X12045181Y40159541D01*
X12046000Y40165000D01*
X12046000Y41165000D01*
X12044841Y41171459D01*
X12044653Y41178003D01*
X12042872Y41182409D01*
X12042031Y41187097D01*
X12038697Y41192750D01*
X12036244Y41198819D01*
X12033041Y41202331D01*
X12030622Y41206431D01*
X12025541Y41210559D01*
X12021119Y41215409D01*
X12016881Y41217594D01*
X12013197Y41220588D01*
X12006997Y41222688D01*
X12001163Y41225697D01*
X11995706Y41226516D01*
X11991938Y41227794D01*
X11987959Y41227681D01*
X11982500Y41228500D01*
X8682500Y41228500D01*
X8676041Y41227341D01*
X8669497Y41227153D01*
X8665091Y41225372D01*
X8660403Y41224531D01*
X8654750Y41221197D01*
X8648681Y41218744D01*
X8645169Y41215541D01*
X8641069Y41213122D01*
X8636941Y41208041D01*
X8632091Y41203619D01*
X8629906Y41199381D01*
X8626913Y41195697D01*
X8624813Y41189497D01*
X8621803Y41183663D01*
X8620984Y41178206D01*
X8619706Y41174438D01*
X8619819Y41170459D01*
X8619000Y41165000D01*
X8619000Y37865000D01*
X8620159Y37858541D01*
X8620347Y37851997D01*
X8622128Y37847591D01*
X8622969Y37842903D01*
X8626303Y37837250D01*
X8628756Y37831181D01*
X8631959Y37827669D01*
X8634378Y37823569D01*
X8639459Y37819441D01*
X8643881Y37814591D01*
X8648119Y37812406D01*
X8651803Y37809413D01*
X8658003Y37807313D01*
X8663838Y37804303D01*
X8669294Y37803484D01*
X8673063Y37802206D01*
X8677041Y37802319D01*
X8682500Y37801500D01*
X9682500Y37801500D01*
X9688959Y37802659D01*
G37*
G36*
X41488959Y37802659D02*
X41488959Y37802659D01*
X41495503Y37802847D01*
X41499909Y37804628D01*
X41504597Y37805469D01*
X41510250Y37808803D01*
X41516319Y37811256D01*
X41519831Y37814459D01*
X41523931Y37816878D01*
X41528059Y37821959D01*
X41532909Y37826381D01*
X41535094Y37830619D01*
X41538088Y37834303D01*
X41540188Y37840503D01*
X41543197Y37846338D01*
X41544016Y37851794D01*
X41545294Y37855563D01*
X41545181Y37859541D01*
X41546000Y37865000D01*
X41546000Y41165000D01*
X41544841Y41171459D01*
X41544653Y41178003D01*
X41542872Y41182409D01*
X41542031Y41187097D01*
X41538697Y41192750D01*
X41536244Y41198819D01*
X41533041Y41202331D01*
X41530622Y41206431D01*
X41525541Y41210559D01*
X41521119Y41215409D01*
X41516881Y41217594D01*
X41513197Y41220588D01*
X41506997Y41222688D01*
X41501163Y41225697D01*
X41495706Y41226516D01*
X41491938Y41227794D01*
X41487959Y41227681D01*
X41482500Y41228500D01*
X38182500Y41228500D01*
X38176041Y41227341D01*
X38169497Y41227153D01*
X38165091Y41225372D01*
X38160403Y41224531D01*
X38154750Y41221197D01*
X38148681Y41218744D01*
X38145169Y41215541D01*
X38141069Y41213122D01*
X38136941Y41208041D01*
X38132091Y41203619D01*
X38129906Y41199381D01*
X38126913Y41195697D01*
X38124813Y41189497D01*
X38121803Y41183663D01*
X38120984Y41178206D01*
X38119706Y41174438D01*
X38119819Y41170459D01*
X38119000Y41165000D01*
X38119000Y40165000D01*
X38120159Y40158541D01*
X38120347Y40151997D01*
X38122128Y40147591D01*
X38122969Y40142903D01*
X38126303Y40137250D01*
X38128756Y40131181D01*
X38131959Y40127669D01*
X38134378Y40123569D01*
X38139459Y40119441D01*
X38143881Y40114591D01*
X38148119Y40112406D01*
X38151803Y40109413D01*
X38158003Y40107313D01*
X38163838Y40104303D01*
X38169294Y40103484D01*
X38173063Y40102206D01*
X38177041Y40102319D01*
X38182500Y40101500D01*
X40419000Y40101500D01*
X40419000Y37865000D01*
X40420159Y37858541D01*
X40420347Y37851997D01*
X40422128Y37847591D01*
X40422969Y37842903D01*
X40426303Y37837250D01*
X40428756Y37831181D01*
X40431959Y37827669D01*
X40434378Y37823569D01*
X40439459Y37819441D01*
X40443881Y37814591D01*
X40448119Y37812406D01*
X40451803Y37809413D01*
X40458003Y37807313D01*
X40463838Y37804303D01*
X40469294Y37803484D01*
X40473063Y37802206D01*
X40477041Y37802319D01*
X40482500Y37801500D01*
X41482500Y37801500D01*
X41488959Y37802659D01*
G37*
G36*
X11988959Y8302659D02*
X11988959Y8302659D01*
X11995503Y8302847D01*
X11999909Y8304628D01*
X12004597Y8305469D01*
X12010250Y8308803D01*
X12016319Y8311256D01*
X12019831Y8314459D01*
X12023931Y8316878D01*
X12028059Y8321959D01*
X12032909Y8326381D01*
X12035094Y8330619D01*
X12038088Y8334303D01*
X12040188Y8340503D01*
X12043197Y8346338D01*
X12044016Y8351794D01*
X12045294Y8355563D01*
X12045181Y8359541D01*
X12046000Y8365000D01*
X12046000Y9365000D01*
X12044841Y9371459D01*
X12044653Y9378003D01*
X12042872Y9382409D01*
X12042031Y9387097D01*
X12038697Y9392750D01*
X12036244Y9398819D01*
X12033041Y9402331D01*
X12030622Y9406431D01*
X12025541Y9410559D01*
X12021119Y9415409D01*
X12016881Y9417594D01*
X12013197Y9420588D01*
X12006997Y9422688D01*
X12001163Y9425697D01*
X11995706Y9426516D01*
X11991938Y9427794D01*
X11987959Y9427681D01*
X11982500Y9428500D01*
X9746000Y9428500D01*
X9746000Y11665000D01*
X9744841Y11671459D01*
X9744653Y11678003D01*
X9742872Y11682409D01*
X9742031Y11687097D01*
X9738697Y11692750D01*
X9736244Y11698819D01*
X9733041Y11702331D01*
X9730622Y11706431D01*
X9725541Y11710559D01*
X9721119Y11715409D01*
X9716881Y11717594D01*
X9713197Y11720588D01*
X9706997Y11722688D01*
X9701163Y11725697D01*
X9695706Y11726516D01*
X9691938Y11727794D01*
X9687959Y11727681D01*
X9682500Y11728500D01*
X8682500Y11728500D01*
X8676041Y11727341D01*
X8669497Y11727153D01*
X8665091Y11725372D01*
X8660403Y11724531D01*
X8654750Y11721197D01*
X8648681Y11718744D01*
X8645169Y11715541D01*
X8641069Y11713122D01*
X8636941Y11708041D01*
X8632091Y11703619D01*
X8629906Y11699381D01*
X8626913Y11695697D01*
X8624813Y11689497D01*
X8621803Y11683663D01*
X8620984Y11678206D01*
X8619706Y11674438D01*
X8619819Y11670459D01*
X8619000Y11665000D01*
X8619000Y8365000D01*
X8620159Y8358541D01*
X8620347Y8351997D01*
X8622128Y8347591D01*
X8622969Y8342903D01*
X8626303Y8337250D01*
X8628756Y8331181D01*
X8631959Y8327669D01*
X8634378Y8323569D01*
X8639459Y8319441D01*
X8643881Y8314591D01*
X8648119Y8312406D01*
X8651803Y8309413D01*
X8658003Y8307313D01*
X8663838Y8304303D01*
X8669294Y8303484D01*
X8673063Y8302206D01*
X8677041Y8302319D01*
X8682500Y8301500D01*
X11982500Y8301500D01*
X11988959Y8302659D01*
G37*
G36*
X23988959Y40102659D02*
X23988959Y40102659D01*
X23995503Y40102847D01*
X23999909Y40104628D01*
X24004597Y40105469D01*
X24010250Y40108803D01*
X24016319Y40111256D01*
X24019831Y40114459D01*
X24023931Y40116878D01*
X24028059Y40121959D01*
X24032909Y40126381D01*
X24035094Y40130619D01*
X24038088Y40134303D01*
X24040188Y40140503D01*
X24043197Y40146338D01*
X24044016Y40151794D01*
X24045294Y40155563D01*
X24045181Y40159541D01*
X24046000Y40165000D01*
X24046000Y41165000D01*
X24044841Y41171459D01*
X24044653Y41178003D01*
X24042872Y41182409D01*
X24042031Y41187097D01*
X24038697Y41192750D01*
X24036244Y41198819D01*
X24033041Y41202331D01*
X24030622Y41206431D01*
X24025541Y41210559D01*
X24021119Y41215409D01*
X24016881Y41217594D01*
X24013197Y41220588D01*
X24006997Y41222688D01*
X24001163Y41225697D01*
X23995706Y41226516D01*
X23991938Y41227794D01*
X23987959Y41227681D01*
X23982500Y41228500D01*
X20182500Y41228500D01*
X20176041Y41227341D01*
X20169497Y41227153D01*
X20165091Y41225372D01*
X20160403Y41224531D01*
X20154750Y41221197D01*
X20148681Y41218744D01*
X20145169Y41215541D01*
X20141069Y41213122D01*
X20136941Y41208041D01*
X20132091Y41203619D01*
X20129906Y41199381D01*
X20126913Y41195697D01*
X20124813Y41189497D01*
X20121803Y41183663D01*
X20120981Y41178197D01*
X20119706Y41174438D01*
X20119819Y41170459D01*
X20119000Y41165000D01*
X20119000Y40165000D01*
X20120159Y40158541D01*
X20120347Y40151997D01*
X20122128Y40147591D01*
X20122969Y40142903D01*
X20126303Y40137250D01*
X20128756Y40131181D01*
X20131959Y40127669D01*
X20134378Y40123569D01*
X20139459Y40119441D01*
X20143881Y40114591D01*
X20148119Y40112406D01*
X20151803Y40109413D01*
X20158003Y40107313D01*
X20163838Y40104303D01*
X20169294Y40103484D01*
X20173063Y40102206D01*
X20177041Y40102319D01*
X20182500Y40101500D01*
X23982500Y40101500D01*
X23988959Y40102659D01*
G37*
G36*
X17988959Y40102659D02*
X17988959Y40102659D01*
X17995503Y40102847D01*
X17999909Y40104628D01*
X18004597Y40105469D01*
X18010250Y40108803D01*
X18016319Y40111256D01*
X18019831Y40114459D01*
X18023931Y40116878D01*
X18028059Y40121959D01*
X18032909Y40126381D01*
X18035094Y40130619D01*
X18038088Y40134303D01*
X18040188Y40140503D01*
X18043197Y40146338D01*
X18044016Y40151794D01*
X18045294Y40155563D01*
X18045181Y40159541D01*
X18046000Y40165000D01*
X18046000Y41165000D01*
X18044841Y41171459D01*
X18044653Y41178003D01*
X18042872Y41182409D01*
X18042031Y41187097D01*
X18038697Y41192750D01*
X18036244Y41198819D01*
X18033041Y41202331D01*
X18030622Y41206431D01*
X18025541Y41210559D01*
X18021119Y41215409D01*
X18016881Y41217594D01*
X18013197Y41220588D01*
X18006997Y41222688D01*
X18001163Y41225697D01*
X17995706Y41226516D01*
X17991938Y41227794D01*
X17987959Y41227681D01*
X17982500Y41228500D01*
X14182500Y41228500D01*
X14176041Y41227341D01*
X14169497Y41227153D01*
X14165091Y41225372D01*
X14160403Y41224531D01*
X14154750Y41221197D01*
X14148681Y41218744D01*
X14145169Y41215541D01*
X14141069Y41213122D01*
X14136941Y41208041D01*
X14132091Y41203619D01*
X14129906Y41199381D01*
X14126913Y41195697D01*
X14124813Y41189497D01*
X14121803Y41183663D01*
X14120981Y41178197D01*
X14119706Y41174438D01*
X14119819Y41170459D01*
X14119000Y41165000D01*
X14119000Y40165000D01*
X14120159Y40158541D01*
X14120347Y40151997D01*
X14122128Y40147591D01*
X14122969Y40142903D01*
X14126303Y40137250D01*
X14128756Y40131181D01*
X14131959Y40127669D01*
X14134378Y40123569D01*
X14139459Y40119441D01*
X14143881Y40114591D01*
X14148119Y40112406D01*
X14151803Y40109413D01*
X14158003Y40107313D01*
X14163838Y40104303D01*
X14169294Y40103484D01*
X14173063Y40102206D01*
X14177041Y40102319D01*
X14182500Y40101500D01*
X17982500Y40101500D01*
X17988959Y40102659D01*
G37*
G36*
X29988959Y40102659D02*
X29988959Y40102659D01*
X29995503Y40102847D01*
X29999909Y40104628D01*
X30004597Y40105469D01*
X30010250Y40108803D01*
X30016319Y40111256D01*
X30019831Y40114459D01*
X30023931Y40116878D01*
X30028059Y40121959D01*
X30032909Y40126381D01*
X30035094Y40130619D01*
X30038088Y40134303D01*
X30040188Y40140503D01*
X30043197Y40146338D01*
X30044016Y40151794D01*
X30045294Y40155563D01*
X30045181Y40159541D01*
X30046000Y40165000D01*
X30046000Y41165000D01*
X30044841Y41171459D01*
X30044653Y41178003D01*
X30042872Y41182409D01*
X30042031Y41187097D01*
X30038697Y41192750D01*
X30036244Y41198819D01*
X30033041Y41202331D01*
X30030622Y41206431D01*
X30025541Y41210559D01*
X30021119Y41215409D01*
X30016881Y41217594D01*
X30013197Y41220588D01*
X30006997Y41222688D01*
X30001163Y41225697D01*
X29995706Y41226516D01*
X29991938Y41227794D01*
X29987959Y41227681D01*
X29982500Y41228500D01*
X26182500Y41228500D01*
X26176041Y41227341D01*
X26169497Y41227153D01*
X26165091Y41225372D01*
X26160403Y41224531D01*
X26154750Y41221197D01*
X26148681Y41218744D01*
X26145169Y41215541D01*
X26141069Y41213122D01*
X26136941Y41208041D01*
X26132091Y41203619D01*
X26129906Y41199381D01*
X26126913Y41195697D01*
X26124813Y41189497D01*
X26121803Y41183663D01*
X26120981Y41178197D01*
X26119706Y41174438D01*
X26119819Y41170459D01*
X26119000Y41165000D01*
X26119000Y40165000D01*
X26120159Y40158541D01*
X26120347Y40151997D01*
X26122128Y40147591D01*
X26122969Y40142903D01*
X26126303Y40137250D01*
X26128756Y40131181D01*
X26131959Y40127669D01*
X26134378Y40123569D01*
X26139459Y40119441D01*
X26143881Y40114591D01*
X26148119Y40112406D01*
X26151803Y40109413D01*
X26158003Y40107313D01*
X26163838Y40104303D01*
X26169294Y40103484D01*
X26173063Y40102206D01*
X26177041Y40102319D01*
X26182500Y40101500D01*
X29982500Y40101500D01*
X29988959Y40102659D01*
G37*
G36*
X35988959Y40102659D02*
X35988959Y40102659D01*
X35995503Y40102847D01*
X35999909Y40104628D01*
X36004597Y40105469D01*
X36010250Y40108803D01*
X36016319Y40111256D01*
X36019831Y40114459D01*
X36023931Y40116878D01*
X36028059Y40121959D01*
X36032909Y40126381D01*
X36035094Y40130619D01*
X36038088Y40134303D01*
X36040188Y40140503D01*
X36043197Y40146338D01*
X36044016Y40151794D01*
X36045294Y40155563D01*
X36045181Y40159541D01*
X36046000Y40165000D01*
X36046000Y41165000D01*
X36044841Y41171459D01*
X36044653Y41178003D01*
X36042872Y41182409D01*
X36042031Y41187097D01*
X36038697Y41192750D01*
X36036244Y41198819D01*
X36033041Y41202331D01*
X36030622Y41206431D01*
X36025541Y41210559D01*
X36021119Y41215409D01*
X36016881Y41217594D01*
X36013197Y41220588D01*
X36006997Y41222688D01*
X36001163Y41225697D01*
X35995706Y41226516D01*
X35991938Y41227794D01*
X35987959Y41227681D01*
X35982500Y41228500D01*
X32182500Y41228500D01*
X32176041Y41227341D01*
X32169497Y41227153D01*
X32165091Y41225372D01*
X32160403Y41224531D01*
X32154750Y41221197D01*
X32148681Y41218744D01*
X32145169Y41215541D01*
X32141069Y41213122D01*
X32136941Y41208041D01*
X32132091Y41203619D01*
X32129906Y41199381D01*
X32126913Y41195697D01*
X32124813Y41189497D01*
X32121803Y41183663D01*
X32120981Y41178197D01*
X32119706Y41174438D01*
X32119819Y41170459D01*
X32119000Y41165000D01*
X32119000Y40165000D01*
X32120159Y40158541D01*
X32120347Y40151997D01*
X32122128Y40147591D01*
X32122969Y40142903D01*
X32126303Y40137250D01*
X32128756Y40131181D01*
X32131959Y40127669D01*
X32134378Y40123569D01*
X32139459Y40119441D01*
X32143881Y40114591D01*
X32148119Y40112406D01*
X32151803Y40109413D01*
X32158003Y40107313D01*
X32163838Y40104303D01*
X32169294Y40103484D01*
X32173063Y40102206D01*
X32177041Y40102319D01*
X32182500Y40101500D01*
X35982500Y40101500D01*
X35988959Y40102659D01*
G37*
G36*
X23988959Y8302659D02*
X23988959Y8302659D01*
X23995503Y8302847D01*
X23999909Y8304628D01*
X24004597Y8305469D01*
X24010250Y8308803D01*
X24016319Y8311256D01*
X24019831Y8314459D01*
X24023931Y8316878D01*
X24028059Y8321959D01*
X24032909Y8326381D01*
X24035094Y8330619D01*
X24038088Y8334303D01*
X24040188Y8340503D01*
X24043197Y8346338D01*
X24044016Y8351794D01*
X24045294Y8355563D01*
X24045181Y8359541D01*
X24046000Y8365000D01*
X24046000Y9365000D01*
X24044841Y9371459D01*
X24044653Y9378003D01*
X24042872Y9382409D01*
X24042031Y9387097D01*
X24038697Y9392750D01*
X24036244Y9398819D01*
X24033041Y9402331D01*
X24030622Y9406431D01*
X24025541Y9410559D01*
X24021119Y9415409D01*
X24016881Y9417594D01*
X24013197Y9420588D01*
X24006997Y9422688D01*
X24001163Y9425697D01*
X23995706Y9426516D01*
X23991938Y9427794D01*
X23987959Y9427681D01*
X23982500Y9428500D01*
X20182500Y9428500D01*
X20176041Y9427341D01*
X20169497Y9427153D01*
X20165091Y9425372D01*
X20160403Y9424531D01*
X20154750Y9421197D01*
X20148681Y9418744D01*
X20145169Y9415541D01*
X20141069Y9413122D01*
X20136941Y9408041D01*
X20132091Y9403619D01*
X20129906Y9399381D01*
X20126913Y9395697D01*
X20124813Y9389497D01*
X20121803Y9383663D01*
X20120981Y9378197D01*
X20119706Y9374438D01*
X20119819Y9370459D01*
X20119000Y9365000D01*
X20119000Y8365000D01*
X20120159Y8358541D01*
X20120347Y8351997D01*
X20122128Y8347591D01*
X20122969Y8342903D01*
X20126303Y8337250D01*
X20128756Y8331181D01*
X20131959Y8327669D01*
X20134378Y8323569D01*
X20139459Y8319441D01*
X20143881Y8314591D01*
X20148119Y8312406D01*
X20151803Y8309413D01*
X20158003Y8307313D01*
X20163838Y8304303D01*
X20169294Y8303484D01*
X20173063Y8302206D01*
X20177041Y8302319D01*
X20182500Y8301500D01*
X23982500Y8301500D01*
X23988959Y8302659D01*
G37*
G36*
X29988959Y8302659D02*
X29988959Y8302659D01*
X29995503Y8302847D01*
X29999909Y8304628D01*
X30004597Y8305469D01*
X30010250Y8308803D01*
X30016319Y8311256D01*
X30019831Y8314459D01*
X30023931Y8316878D01*
X30028059Y8321959D01*
X30032909Y8326381D01*
X30035094Y8330619D01*
X30038088Y8334303D01*
X30040188Y8340503D01*
X30043197Y8346338D01*
X30044016Y8351794D01*
X30045294Y8355563D01*
X30045181Y8359541D01*
X30046000Y8365000D01*
X30046000Y9365000D01*
X30044841Y9371459D01*
X30044653Y9378003D01*
X30042872Y9382409D01*
X30042031Y9387097D01*
X30038697Y9392750D01*
X30036244Y9398819D01*
X30033041Y9402331D01*
X30030622Y9406431D01*
X30025541Y9410559D01*
X30021119Y9415409D01*
X30016881Y9417594D01*
X30013197Y9420588D01*
X30006997Y9422688D01*
X30001163Y9425697D01*
X29995706Y9426516D01*
X29991938Y9427794D01*
X29987959Y9427681D01*
X29982500Y9428500D01*
X26182500Y9428500D01*
X26176041Y9427341D01*
X26169497Y9427153D01*
X26165091Y9425372D01*
X26160403Y9424531D01*
X26154750Y9421197D01*
X26148681Y9418744D01*
X26145169Y9415541D01*
X26141069Y9413122D01*
X26136941Y9408041D01*
X26132091Y9403619D01*
X26129906Y9399381D01*
X26126913Y9395697D01*
X26124813Y9389497D01*
X26121803Y9383663D01*
X26120981Y9378197D01*
X26119706Y9374438D01*
X26119819Y9370459D01*
X26119000Y9365000D01*
X26119000Y8365000D01*
X26120159Y8358541D01*
X26120347Y8351997D01*
X26122128Y8347591D01*
X26122969Y8342903D01*
X26126303Y8337250D01*
X26128756Y8331181D01*
X26131959Y8327669D01*
X26134378Y8323569D01*
X26139459Y8319441D01*
X26143881Y8314591D01*
X26148119Y8312406D01*
X26151803Y8309413D01*
X26158003Y8307313D01*
X26163838Y8304303D01*
X26169294Y8303484D01*
X26173063Y8302206D01*
X26177041Y8302319D01*
X26182500Y8301500D01*
X29982500Y8301500D01*
X29988959Y8302659D01*
G37*
G36*
X17988959Y8302659D02*
X17988959Y8302659D01*
X17995503Y8302847D01*
X17999909Y8304628D01*
X18004597Y8305469D01*
X18010250Y8308803D01*
X18016319Y8311256D01*
X18019831Y8314459D01*
X18023931Y8316878D01*
X18028059Y8321959D01*
X18032909Y8326381D01*
X18035094Y8330619D01*
X18038088Y8334303D01*
X18040188Y8340503D01*
X18043197Y8346338D01*
X18044016Y8351794D01*
X18045294Y8355563D01*
X18045181Y8359541D01*
X18046000Y8365000D01*
X18046000Y9365000D01*
X18044841Y9371459D01*
X18044653Y9378003D01*
X18042872Y9382409D01*
X18042031Y9387097D01*
X18038697Y9392750D01*
X18036244Y9398819D01*
X18033041Y9402331D01*
X18030622Y9406431D01*
X18025541Y9410559D01*
X18021119Y9415409D01*
X18016881Y9417594D01*
X18013197Y9420588D01*
X18006997Y9422688D01*
X18001163Y9425697D01*
X17995706Y9426516D01*
X17991938Y9427794D01*
X17987959Y9427681D01*
X17982500Y9428500D01*
X14182500Y9428500D01*
X14176041Y9427341D01*
X14169497Y9427153D01*
X14165091Y9425372D01*
X14160403Y9424531D01*
X14154750Y9421197D01*
X14148681Y9418744D01*
X14145169Y9415541D01*
X14141069Y9413122D01*
X14136941Y9408041D01*
X14132091Y9403619D01*
X14129906Y9399381D01*
X14126913Y9395697D01*
X14124813Y9389497D01*
X14121803Y9383663D01*
X14120981Y9378197D01*
X14119706Y9374438D01*
X14119819Y9370459D01*
X14119000Y9365000D01*
X14119000Y8365000D01*
X14120159Y8358541D01*
X14120347Y8351997D01*
X14122128Y8347591D01*
X14122969Y8342903D01*
X14126303Y8337250D01*
X14128756Y8331181D01*
X14131959Y8327669D01*
X14134378Y8323569D01*
X14139459Y8319441D01*
X14143881Y8314591D01*
X14148119Y8312406D01*
X14151803Y8309413D01*
X14158003Y8307313D01*
X14163838Y8304303D01*
X14169294Y8303484D01*
X14173063Y8302206D01*
X14177041Y8302319D01*
X14182500Y8301500D01*
X17982500Y8301500D01*
X17988959Y8302659D01*
G37*
G36*
X35988959Y8302659D02*
X35988959Y8302659D01*
X35995503Y8302847D01*
X35999909Y8304628D01*
X36004597Y8305469D01*
X36010250Y8308803D01*
X36016319Y8311256D01*
X36019831Y8314459D01*
X36023931Y8316878D01*
X36028059Y8321959D01*
X36032909Y8326381D01*
X36035094Y8330619D01*
X36038088Y8334303D01*
X36040188Y8340503D01*
X36043197Y8346338D01*
X36044016Y8351794D01*
X36045294Y8355563D01*
X36045181Y8359541D01*
X36046000Y8365000D01*
X36046000Y9365000D01*
X36044841Y9371459D01*
X36044653Y9378003D01*
X36042872Y9382409D01*
X36042031Y9387097D01*
X36038697Y9392750D01*
X36036244Y9398819D01*
X36033041Y9402331D01*
X36030622Y9406431D01*
X36025541Y9410559D01*
X36021119Y9415409D01*
X36016881Y9417594D01*
X36013197Y9420588D01*
X36006997Y9422688D01*
X36001163Y9425697D01*
X35995706Y9426516D01*
X35991938Y9427794D01*
X35987959Y9427681D01*
X35982500Y9428500D01*
X32182500Y9428500D01*
X32176041Y9427341D01*
X32169497Y9427153D01*
X32165091Y9425372D01*
X32160403Y9424531D01*
X32154750Y9421197D01*
X32148681Y9418744D01*
X32145169Y9415541D01*
X32141069Y9413122D01*
X32136941Y9408041D01*
X32132091Y9403619D01*
X32129906Y9399381D01*
X32126913Y9395697D01*
X32124813Y9389497D01*
X32121803Y9383663D01*
X32120981Y9378197D01*
X32119706Y9374438D01*
X32119819Y9370459D01*
X32119000Y9365000D01*
X32119000Y8365000D01*
X32120159Y8358541D01*
X32120347Y8351997D01*
X32122128Y8347591D01*
X32122969Y8342903D01*
X32126303Y8337250D01*
X32128756Y8331181D01*
X32131959Y8327669D01*
X32134378Y8323569D01*
X32139459Y8319441D01*
X32143881Y8314591D01*
X32148119Y8312406D01*
X32151803Y8309413D01*
X32158003Y8307313D01*
X32163838Y8304303D01*
X32169294Y8303484D01*
X32173063Y8302206D01*
X32177041Y8302319D01*
X32182500Y8301500D01*
X35982500Y8301500D01*
X35988959Y8302659D01*
G37*
G36*
X9688959Y31802659D02*
X9688959Y31802659D01*
X9695503Y31802847D01*
X9699909Y31804628D01*
X9704597Y31805469D01*
X9710250Y31808803D01*
X9716319Y31811256D01*
X9719831Y31814459D01*
X9723931Y31816878D01*
X9728059Y31821959D01*
X9732909Y31826381D01*
X9735094Y31830619D01*
X9738088Y31834303D01*
X9740188Y31840503D01*
X9743197Y31846338D01*
X9744016Y31851794D01*
X9745294Y31855563D01*
X9745181Y31859541D01*
X9746000Y31865000D01*
X9746000Y35665000D01*
X9744841Y35671459D01*
X9744653Y35678003D01*
X9742872Y35682409D01*
X9742031Y35687097D01*
X9738697Y35692750D01*
X9736244Y35698819D01*
X9733041Y35702331D01*
X9730622Y35706431D01*
X9725541Y35710559D01*
X9721119Y35715409D01*
X9716881Y35717594D01*
X9713197Y35720588D01*
X9706997Y35722688D01*
X9701163Y35725697D01*
X9695706Y35726516D01*
X9691938Y35727794D01*
X9687959Y35727681D01*
X9682500Y35728500D01*
X8682500Y35728500D01*
X8676041Y35727341D01*
X8669497Y35727153D01*
X8665091Y35725372D01*
X8660403Y35724531D01*
X8654750Y35721197D01*
X8648681Y35718744D01*
X8645169Y35715541D01*
X8641069Y35713122D01*
X8636941Y35708041D01*
X8632091Y35703619D01*
X8629906Y35699381D01*
X8626913Y35695697D01*
X8624813Y35689497D01*
X8621803Y35683663D01*
X8620984Y35678206D01*
X8619706Y35674438D01*
X8619819Y35670459D01*
X8619000Y35665000D01*
X8619000Y31865000D01*
X8620159Y31858541D01*
X8620347Y31851997D01*
X8622128Y31847591D01*
X8622969Y31842903D01*
X8626303Y31837250D01*
X8628756Y31831181D01*
X8631959Y31827669D01*
X8634378Y31823569D01*
X8639459Y31819441D01*
X8643881Y31814591D01*
X8648119Y31812406D01*
X8651803Y31809413D01*
X8658003Y31807313D01*
X8663838Y31804303D01*
X8669294Y31803484D01*
X8673063Y31802206D01*
X8677041Y31802319D01*
X8682500Y31801500D01*
X9682500Y31801500D01*
X9688959Y31802659D01*
G37*
G36*
X41488959Y31802659D02*
X41488959Y31802659D01*
X41495503Y31802847D01*
X41499909Y31804628D01*
X41504597Y31805469D01*
X41510250Y31808803D01*
X41516319Y31811256D01*
X41519831Y31814459D01*
X41523931Y31816878D01*
X41528059Y31821959D01*
X41532909Y31826381D01*
X41535094Y31830619D01*
X41538088Y31834303D01*
X41540188Y31840503D01*
X41543197Y31846338D01*
X41544016Y31851794D01*
X41545294Y31855563D01*
X41545181Y31859541D01*
X41546000Y31865000D01*
X41546000Y35665000D01*
X41544841Y35671459D01*
X41544653Y35678003D01*
X41542872Y35682409D01*
X41542031Y35687097D01*
X41538697Y35692750D01*
X41536244Y35698819D01*
X41533041Y35702331D01*
X41530622Y35706431D01*
X41525541Y35710559D01*
X41521119Y35715409D01*
X41516881Y35717594D01*
X41513197Y35720588D01*
X41506997Y35722688D01*
X41501163Y35725697D01*
X41495706Y35726516D01*
X41491938Y35727794D01*
X41487959Y35727681D01*
X41482500Y35728500D01*
X40482500Y35728500D01*
X40476041Y35727341D01*
X40469497Y35727153D01*
X40465091Y35725372D01*
X40460403Y35724531D01*
X40454750Y35721197D01*
X40448681Y35718744D01*
X40445169Y35715541D01*
X40441069Y35713122D01*
X40436941Y35708041D01*
X40432091Y35703619D01*
X40429906Y35699381D01*
X40426913Y35695697D01*
X40424813Y35689497D01*
X40421803Y35683663D01*
X40420984Y35678206D01*
X40419706Y35674438D01*
X40419819Y35670459D01*
X40419000Y35665000D01*
X40419000Y31865000D01*
X40420159Y31858541D01*
X40420347Y31851997D01*
X40422128Y31847591D01*
X40422969Y31842903D01*
X40426303Y31837250D01*
X40428756Y31831181D01*
X40431959Y31827669D01*
X40434378Y31823569D01*
X40439459Y31819441D01*
X40443881Y31814591D01*
X40448119Y31812406D01*
X40451803Y31809413D01*
X40458003Y31807313D01*
X40463838Y31804303D01*
X40469294Y31803484D01*
X40473063Y31802206D01*
X40477041Y31802319D01*
X40482500Y31801500D01*
X41482500Y31801500D01*
X41488959Y31802659D01*
G37*
G36*
X9688959Y25802659D02*
X9688959Y25802659D01*
X9695503Y25802847D01*
X9699909Y25804628D01*
X9704597Y25805469D01*
X9710250Y25808803D01*
X9716319Y25811256D01*
X9719831Y25814459D01*
X9723931Y25816878D01*
X9728059Y25821959D01*
X9732909Y25826381D01*
X9735094Y25830619D01*
X9738088Y25834303D01*
X9740188Y25840503D01*
X9743197Y25846338D01*
X9744016Y25851794D01*
X9745294Y25855563D01*
X9745181Y25859541D01*
X9746000Y25865000D01*
X9746000Y29665000D01*
X9744841Y29671459D01*
X9744653Y29678003D01*
X9742872Y29682409D01*
X9742031Y29687097D01*
X9738697Y29692750D01*
X9736244Y29698819D01*
X9733041Y29702331D01*
X9730622Y29706431D01*
X9725541Y29710559D01*
X9721119Y29715409D01*
X9716881Y29717594D01*
X9713197Y29720588D01*
X9706997Y29722688D01*
X9701163Y29725697D01*
X9695706Y29726516D01*
X9691938Y29727794D01*
X9687959Y29727681D01*
X9682500Y29728500D01*
X8682500Y29728500D01*
X8676041Y29727341D01*
X8669497Y29727153D01*
X8665091Y29725372D01*
X8660403Y29724531D01*
X8654750Y29721197D01*
X8648681Y29718744D01*
X8645169Y29715541D01*
X8641069Y29713122D01*
X8636941Y29708041D01*
X8632091Y29703619D01*
X8629906Y29699381D01*
X8626913Y29695697D01*
X8624813Y29689497D01*
X8621803Y29683663D01*
X8620984Y29678206D01*
X8619706Y29674438D01*
X8619819Y29670459D01*
X8619000Y29665000D01*
X8619000Y25865000D01*
X8620159Y25858541D01*
X8620347Y25851997D01*
X8622128Y25847591D01*
X8622969Y25842903D01*
X8626303Y25837250D01*
X8628756Y25831181D01*
X8631959Y25827669D01*
X8634378Y25823569D01*
X8639459Y25819441D01*
X8643881Y25814591D01*
X8648119Y25812406D01*
X8651803Y25809413D01*
X8658003Y25807313D01*
X8663838Y25804303D01*
X8669294Y25803484D01*
X8673063Y25802206D01*
X8677041Y25802319D01*
X8682500Y25801500D01*
X9682500Y25801500D01*
X9688959Y25802659D01*
G37*
G36*
X41488959Y25802659D02*
X41488959Y25802659D01*
X41495503Y25802847D01*
X41499909Y25804628D01*
X41504597Y25805469D01*
X41510250Y25808803D01*
X41516319Y25811256D01*
X41519831Y25814459D01*
X41523931Y25816878D01*
X41528059Y25821959D01*
X41532909Y25826381D01*
X41535094Y25830619D01*
X41538088Y25834303D01*
X41540188Y25840503D01*
X41543197Y25846338D01*
X41544016Y25851794D01*
X41545294Y25855563D01*
X41545181Y25859541D01*
X41546000Y25865000D01*
X41546000Y29665000D01*
X41544841Y29671459D01*
X41544653Y29678003D01*
X41542872Y29682409D01*
X41542031Y29687097D01*
X41538697Y29692750D01*
X41536244Y29698819D01*
X41533041Y29702331D01*
X41530622Y29706431D01*
X41525541Y29710559D01*
X41521119Y29715409D01*
X41516881Y29717594D01*
X41513197Y29720588D01*
X41506997Y29722688D01*
X41501163Y29725697D01*
X41495706Y29726516D01*
X41491938Y29727794D01*
X41487959Y29727681D01*
X41482500Y29728500D01*
X40482500Y29728500D01*
X40476041Y29727341D01*
X40469497Y29727153D01*
X40465091Y29725372D01*
X40460403Y29724531D01*
X40454750Y29721197D01*
X40448681Y29718744D01*
X40445169Y29715541D01*
X40441069Y29713122D01*
X40436941Y29708041D01*
X40432091Y29703619D01*
X40429906Y29699381D01*
X40426913Y29695697D01*
X40424813Y29689497D01*
X40421803Y29683663D01*
X40420984Y29678206D01*
X40419706Y29674438D01*
X40419819Y29670459D01*
X40419000Y29665000D01*
X40419000Y25865000D01*
X40420159Y25858541D01*
X40420347Y25851997D01*
X40422128Y25847591D01*
X40422969Y25842903D01*
X40426303Y25837250D01*
X40428756Y25831181D01*
X40431959Y25827669D01*
X40434378Y25823569D01*
X40439459Y25819441D01*
X40443881Y25814591D01*
X40448119Y25812406D01*
X40451803Y25809413D01*
X40458003Y25807313D01*
X40463838Y25804303D01*
X40469294Y25803484D01*
X40473063Y25802206D01*
X40477041Y25802319D01*
X40482500Y25801500D01*
X41482500Y25801500D01*
X41488959Y25802659D01*
G37*
G36*
X9688959Y19802659D02*
X9688959Y19802659D01*
X9695503Y19802847D01*
X9699909Y19804628D01*
X9704597Y19805469D01*
X9710250Y19808803D01*
X9716319Y19811256D01*
X9719831Y19814459D01*
X9723931Y19816878D01*
X9728059Y19821959D01*
X9732909Y19826381D01*
X9735094Y19830619D01*
X9738088Y19834303D01*
X9740188Y19840503D01*
X9743197Y19846338D01*
X9744016Y19851794D01*
X9745294Y19855563D01*
X9745181Y19859541D01*
X9746000Y19865000D01*
X9746000Y23665000D01*
X9744841Y23671459D01*
X9744653Y23678003D01*
X9742872Y23682409D01*
X9742031Y23687097D01*
X9738697Y23692750D01*
X9736244Y23698819D01*
X9733041Y23702331D01*
X9730622Y23706431D01*
X9725541Y23710559D01*
X9721119Y23715409D01*
X9716881Y23717594D01*
X9713197Y23720588D01*
X9706997Y23722688D01*
X9701163Y23725697D01*
X9695706Y23726516D01*
X9691938Y23727794D01*
X9687959Y23727681D01*
X9682500Y23728500D01*
X8682500Y23728500D01*
X8676041Y23727341D01*
X8669497Y23727153D01*
X8665091Y23725372D01*
X8660403Y23724531D01*
X8654750Y23721197D01*
X8648681Y23718744D01*
X8645169Y23715541D01*
X8641069Y23713122D01*
X8636941Y23708041D01*
X8632091Y23703619D01*
X8629906Y23699381D01*
X8626913Y23695697D01*
X8624813Y23689497D01*
X8621803Y23683663D01*
X8620984Y23678206D01*
X8619706Y23674438D01*
X8619819Y23670459D01*
X8619000Y23665000D01*
X8619000Y19865000D01*
X8620159Y19858541D01*
X8620347Y19851997D01*
X8622128Y19847591D01*
X8622969Y19842903D01*
X8626303Y19837250D01*
X8628756Y19831181D01*
X8631959Y19827669D01*
X8634378Y19823569D01*
X8639459Y19819441D01*
X8643881Y19814591D01*
X8648119Y19812406D01*
X8651803Y19809413D01*
X8658003Y19807313D01*
X8663838Y19804303D01*
X8669294Y19803484D01*
X8673063Y19802206D01*
X8677041Y19802319D01*
X8682500Y19801500D01*
X9682500Y19801500D01*
X9688959Y19802659D01*
G37*
G36*
X41488959Y19802659D02*
X41488959Y19802659D01*
X41495503Y19802847D01*
X41499909Y19804628D01*
X41504597Y19805469D01*
X41510250Y19808803D01*
X41516319Y19811256D01*
X41519831Y19814459D01*
X41523931Y19816878D01*
X41528059Y19821959D01*
X41532909Y19826381D01*
X41535094Y19830619D01*
X41538088Y19834303D01*
X41540188Y19840503D01*
X41543197Y19846338D01*
X41544016Y19851794D01*
X41545294Y19855563D01*
X41545181Y19859541D01*
X41546000Y19865000D01*
X41546000Y23665000D01*
X41544841Y23671459D01*
X41544653Y23678003D01*
X41542872Y23682409D01*
X41542031Y23687097D01*
X41538697Y23692750D01*
X41536244Y23698819D01*
X41533041Y23702331D01*
X41530622Y23706431D01*
X41525541Y23710559D01*
X41521119Y23715409D01*
X41516881Y23717594D01*
X41513197Y23720588D01*
X41506997Y23722688D01*
X41501163Y23725697D01*
X41495706Y23726516D01*
X41491938Y23727794D01*
X41487959Y23727681D01*
X41482500Y23728500D01*
X40482500Y23728500D01*
X40476041Y23727341D01*
X40469497Y23727153D01*
X40465091Y23725372D01*
X40460403Y23724531D01*
X40454750Y23721197D01*
X40448681Y23718744D01*
X40445169Y23715541D01*
X40441069Y23713122D01*
X40436941Y23708041D01*
X40432091Y23703619D01*
X40429906Y23699381D01*
X40426913Y23695697D01*
X40424813Y23689497D01*
X40421803Y23683663D01*
X40420984Y23678206D01*
X40419706Y23674438D01*
X40419819Y23670459D01*
X40419000Y23665000D01*
X40419000Y19865000D01*
X40420159Y19858541D01*
X40420347Y19851997D01*
X40422128Y19847591D01*
X40422969Y19842903D01*
X40426303Y19837250D01*
X40428756Y19831181D01*
X40431959Y19827669D01*
X40434378Y19823569D01*
X40439459Y19819441D01*
X40443881Y19814591D01*
X40448119Y19812406D01*
X40451803Y19809413D01*
X40458003Y19807313D01*
X40463838Y19804303D01*
X40469294Y19803484D01*
X40473063Y19802206D01*
X40477041Y19802319D01*
X40482500Y19801500D01*
X41482500Y19801500D01*
X41488959Y19802659D01*
G37*
G36*
X41488959Y13802659D02*
X41488959Y13802659D01*
X41495503Y13802847D01*
X41499909Y13804628D01*
X41504597Y13805469D01*
X41510250Y13808803D01*
X41516319Y13811256D01*
X41519831Y13814459D01*
X41523931Y13816878D01*
X41528059Y13821959D01*
X41532909Y13826381D01*
X41535094Y13830619D01*
X41538088Y13834303D01*
X41540188Y13840503D01*
X41543197Y13846338D01*
X41544016Y13851794D01*
X41545294Y13855563D01*
X41545181Y13859541D01*
X41546000Y13865000D01*
X41546000Y17665000D01*
X41544841Y17671459D01*
X41544653Y17678003D01*
X41542872Y17682409D01*
X41542031Y17687097D01*
X41538697Y17692750D01*
X41536244Y17698819D01*
X41533041Y17702331D01*
X41530622Y17706431D01*
X41525541Y17710559D01*
X41521119Y17715409D01*
X41516881Y17717594D01*
X41513197Y17720588D01*
X41506997Y17722688D01*
X41501163Y17725697D01*
X41495706Y17726516D01*
X41491938Y17727794D01*
X41487959Y17727681D01*
X41482500Y17728500D01*
X40482500Y17728500D01*
X40476041Y17727341D01*
X40469497Y17727153D01*
X40465091Y17725372D01*
X40460403Y17724531D01*
X40454750Y17721197D01*
X40448681Y17718744D01*
X40445169Y17715541D01*
X40441069Y17713122D01*
X40436941Y17708041D01*
X40432091Y17703619D01*
X40429906Y17699381D01*
X40426913Y17695697D01*
X40424813Y17689497D01*
X40421803Y17683663D01*
X40420984Y17678206D01*
X40419706Y17674438D01*
X40419819Y17670459D01*
X40419000Y17665000D01*
X40419000Y13865000D01*
X40420159Y13858541D01*
X40420347Y13851997D01*
X40422128Y13847591D01*
X40422969Y13842903D01*
X40426303Y13837250D01*
X40428756Y13831181D01*
X40431959Y13827669D01*
X40434378Y13823569D01*
X40439459Y13819441D01*
X40443881Y13814591D01*
X40448119Y13812406D01*
X40451803Y13809413D01*
X40458003Y13807313D01*
X40463838Y13804303D01*
X40469294Y13803484D01*
X40473063Y13802206D01*
X40477041Y13802319D01*
X40482500Y13801500D01*
X41482500Y13801500D01*
X41488959Y13802659D01*
G37*
G36*
X9688959Y13802659D02*
X9688959Y13802659D01*
X9695503Y13802847D01*
X9699909Y13804628D01*
X9704597Y13805469D01*
X9710250Y13808803D01*
X9716319Y13811256D01*
X9719831Y13814459D01*
X9723931Y13816878D01*
X9728059Y13821959D01*
X9732909Y13826381D01*
X9735094Y13830619D01*
X9738088Y13834303D01*
X9740188Y13840503D01*
X9743197Y13846338D01*
X9744016Y13851794D01*
X9745294Y13855563D01*
X9745181Y13859541D01*
X9746000Y13865000D01*
X9746000Y17665000D01*
X9744841Y17671459D01*
X9744653Y17678003D01*
X9742872Y17682409D01*
X9742031Y17687097D01*
X9738697Y17692750D01*
X9736244Y17698819D01*
X9733041Y17702331D01*
X9730622Y17706431D01*
X9725541Y17710559D01*
X9721119Y17715409D01*
X9716881Y17717594D01*
X9713197Y17720588D01*
X9706997Y17722688D01*
X9701163Y17725697D01*
X9695706Y17726516D01*
X9691938Y17727794D01*
X9687959Y17727681D01*
X9682500Y17728500D01*
X8682500Y17728500D01*
X8676041Y17727341D01*
X8669497Y17727153D01*
X8665091Y17725372D01*
X8660403Y17724531D01*
X8654750Y17721197D01*
X8648681Y17718744D01*
X8645169Y17715541D01*
X8641069Y17713122D01*
X8636941Y17708041D01*
X8632091Y17703619D01*
X8629906Y17699381D01*
X8626913Y17695697D01*
X8624813Y17689497D01*
X8621803Y17683663D01*
X8620984Y17678206D01*
X8619706Y17674438D01*
X8619819Y17670459D01*
X8619000Y17665000D01*
X8619000Y13865000D01*
X8620159Y13858541D01*
X8620347Y13851997D01*
X8622128Y13847591D01*
X8622969Y13842903D01*
X8626303Y13837250D01*
X8628756Y13831181D01*
X8631959Y13827669D01*
X8634378Y13823569D01*
X8639459Y13819441D01*
X8643881Y13814591D01*
X8648119Y13812406D01*
X8651803Y13809413D01*
X8658003Y13807313D01*
X8663838Y13804303D01*
X8669294Y13803484D01*
X8673063Y13802206D01*
X8677041Y13802319D01*
X8682500Y13801500D01*
X9682500Y13801500D01*
X9688959Y13802659D01*
G37*
D10*
X38231550Y45478700D02*
X38231550Y46597253D01*
X37858700Y46597253D02*
X38604403Y46597253D01*
X39028097Y45478700D02*
X39400947Y45478700D01*
X39214522Y45478700D02*
X39214522Y46597253D01*
X39028097Y46597253D02*
X39400947Y46597253D01*
X40366969Y46597253D02*
X40553397Y46410828D01*
X40366969Y46597253D02*
X39994119Y46597253D01*
X39807694Y46410828D01*
X39807694Y45665125D01*
X39994119Y45478700D01*
X40366969Y45478700D01*
X40553397Y45665125D01*
X40553397Y46037975D01*
X40180544Y46037975D01*
X40977091Y46597253D02*
X41722794Y46597253D01*
X40977091Y46597253D02*
X40977091Y45478700D01*
X41722794Y45478700D01*
X41349941Y46037975D02*
X40977091Y46037975D01*
X42146488Y45478700D02*
X42146488Y46597253D01*
X42705763Y46597253D01*
X42892191Y46410828D01*
X42892191Y46037975D01*
X42705763Y45851550D01*
X42146488Y45851550D01*
X42519338Y45851550D02*
X42892191Y45478700D01*
X43315884Y45478700D02*
X43875159Y45478700D01*
X44061588Y45665125D01*
X43875159Y45851550D01*
X43502309Y45851550D01*
X43315884Y46037975D01*
X43502309Y46224403D01*
X44061588Y46224403D01*
X45654678Y46597253D02*
X45654678Y45478700D01*
X46027528Y46224403D02*
X45654678Y46597253D01*
X46027528Y46224403D02*
X46400381Y46597253D01*
X46400381Y45478700D01*
X47010500Y46224403D02*
X47383350Y46224403D01*
X47569778Y46037975D01*
X47569778Y45478700D01*
X47010500Y45478700D01*
X46824075Y45665125D01*
X47010500Y45851550D01*
X47569778Y45851550D01*
X47993472Y45478700D02*
X47993472Y46224403D01*
X48552747Y46224403D01*
X48739175Y46037975D01*
X48739175Y45478700D01*
X49162869Y45478700D02*
X49162869Y46224403D01*
X49722144Y46224403D01*
X49908572Y46037975D01*
X49908572Y45478700D01*
X50332266Y45478700D02*
X50332266Y46597253D01*
X50518691Y46224403D02*
X50332266Y46037975D01*
X50518691Y46224403D02*
X50891541Y46224403D01*
X51077969Y46037975D01*
X51077969Y45478700D01*
X51688088Y45478700D02*
X52060938Y45478700D01*
X51688088Y45478700D02*
X51501663Y45665125D01*
X51501663Y46037975D01*
X51688088Y46224403D01*
X52060938Y46224403D01*
X52247366Y46037975D01*
X52247366Y45851550D01*
X51501663Y45851550D01*
X52671059Y46224403D02*
X52857484Y46224403D01*
X52857484Y45478700D01*
X52671059Y45478700D02*
X53043909Y45478700D01*
X52857484Y46597253D02*
X52857484Y46783681D01*
X53450656Y46224403D02*
X53450656Y45478700D01*
X53450656Y46224403D02*
X53637081Y46224403D01*
X53823506Y46037975D01*
X53823506Y45478700D01*
X53823506Y46037975D02*
X54009931Y46224403D01*
X54196359Y46037975D01*
X54196359Y45478700D01*
X34683700Y43739753D02*
X34683700Y42621200D01*
X34683700Y43739753D02*
X35242975Y43739753D01*
X35429403Y43553328D01*
X35429403Y43366903D01*
X35242975Y43180475D01*
X35429403Y42994050D01*
X35429403Y42807625D01*
X35242975Y42621200D01*
X34683700Y42621200D01*
X34683700Y43180475D02*
X35242975Y43180475D01*
X36039522Y43366903D02*
X36412372Y43366903D01*
X36598800Y43180475D01*
X36598800Y42621200D01*
X36039522Y42621200D01*
X35853097Y42807625D01*
X36039522Y42994050D01*
X36598800Y42994050D01*
X37022494Y42621200D02*
X37581769Y42621200D01*
X37768197Y42807625D01*
X37581769Y42994050D01*
X37208919Y42994050D01*
X37022494Y43180475D01*
X37208919Y43366903D01*
X37768197Y43366903D01*
X38378316Y42621200D02*
X38751166Y42621200D01*
X38378316Y42621200D02*
X38191891Y42807625D01*
X38191891Y43180475D01*
X38378316Y43366903D01*
X38751166Y43366903D01*
X38937594Y43180475D01*
X38937594Y42994050D01*
X38191891Y42994050D01*
X41089959Y43739753D02*
X41276388Y43553328D01*
X41089959Y43739753D02*
X40717109Y43739753D01*
X40530684Y43553328D01*
X40530684Y43366903D01*
X40717109Y43180475D01*
X41089959Y43180475D01*
X41276388Y42994050D01*
X41276388Y42807625D01*
X41089959Y42621200D01*
X40717109Y42621200D01*
X40530684Y42807625D01*
X41886506Y42807625D02*
X41886506Y43553328D01*
X41886506Y42807625D02*
X42072931Y42621200D01*
X42072931Y43366903D02*
X41700081Y43366903D01*
X42666103Y43366903D02*
X43038953Y43366903D01*
X43225381Y43180475D01*
X43225381Y42621200D01*
X42666103Y42621200D01*
X42479678Y42807625D01*
X42666103Y42994050D01*
X43225381Y42994050D01*
X43835500Y42807625D02*
X43835500Y43553328D01*
X43835500Y42807625D02*
X44021925Y42621200D01*
X44021925Y43366903D02*
X43649075Y43366903D01*
X44428672Y43366903D02*
X44615097Y43366903D01*
X44615097Y42621200D01*
X44428672Y42621200D02*
X44801522Y42621200D01*
X44615097Y43739753D02*
X44615097Y43926181D01*
X45394694Y42621200D02*
X45767544Y42621200D01*
X45953972Y42807625D01*
X45953972Y43180475D01*
X45767544Y43366903D01*
X45394694Y43366903D01*
X45208269Y43180475D01*
X45208269Y42807625D01*
X45394694Y42621200D01*
X46377666Y42621200D02*
X46377666Y43366903D01*
X46936941Y43366903D01*
X47123369Y43180475D01*
X47123369Y42621200D01*
X48716459Y43366903D02*
X49089309Y42621200D01*
X49462163Y43366903D01*
X49885856Y43553328D02*
X50072281Y43739753D01*
X50445131Y43739753D01*
X50631559Y43553328D01*
X50631559Y43366903D01*
X50445131Y43180475D01*
X50258706Y43180475D01*
X50445131Y43180475D02*
X50631559Y42994050D01*
X50631559Y42807625D01*
X50445131Y42621200D01*
X50072281Y42621200D01*
X49885856Y42807625D01*
X51055253Y42621200D02*
X51055253Y43739753D01*
X51055253Y42621200D02*
X51614528Y42621200D01*
X51800956Y42807625D01*
X51800956Y43180475D01*
X51614528Y43366903D01*
X51055253Y43366903D01*
X43573700Y40247253D02*
X43573700Y39128700D01*
X44132975Y39128700D01*
X44319403Y39315125D01*
X44319403Y40060828D01*
X44132975Y40247253D01*
X43573700Y40247253D01*
X44929522Y39128700D02*
X45302372Y39128700D01*
X44929522Y39128700D02*
X44743097Y39315125D01*
X44743097Y39687975D01*
X44929522Y39874403D01*
X45302372Y39874403D01*
X45488800Y39687975D01*
X45488800Y39501550D01*
X44743097Y39501550D01*
X45912494Y39128700D02*
X46471769Y39128700D01*
X46658197Y39315125D01*
X46471769Y39501550D01*
X46098919Y39501550D01*
X45912494Y39687975D01*
X46098919Y39874403D01*
X46658197Y39874403D01*
X47081891Y39874403D02*
X47268316Y39874403D01*
X47268316Y39128700D01*
X47081891Y39128700D02*
X47454741Y39128700D01*
X47268316Y40247253D02*
X47268316Y40433681D01*
X48234338Y38755850D02*
X48420763Y38755850D01*
X48607191Y38942275D01*
X48607191Y39874403D01*
X48047913Y39874403D01*
X47861488Y39687975D01*
X47861488Y39315125D01*
X48047913Y39128700D01*
X48607191Y39128700D01*
X49030884Y39128700D02*
X49030884Y39874403D01*
X49590159Y39874403D01*
X49776588Y39687975D01*
X49776588Y39128700D01*
X50200281Y39874403D02*
X50386706Y39874403D01*
X50386706Y39687975D01*
X50200281Y39687975D01*
X50200281Y39874403D01*
X50200281Y39315125D02*
X50386706Y39315125D01*
X50386706Y39128700D01*
X50200281Y39128700D01*
X50200281Y39315125D01*
X51954375Y39128700D02*
X51954375Y39874403D01*
X52327225Y40247253D01*
X52700078Y39874403D01*
X52700078Y39128700D01*
X52700078Y39687975D02*
X51954375Y39687975D01*
X53123772Y39315125D02*
X53123772Y39128700D01*
X53123772Y39315125D02*
X53310197Y39315125D01*
X53310197Y39128700D01*
X53123772Y39128700D01*
X53708469Y39128700D02*
X53708469Y40247253D01*
X54267744Y40247253D01*
X54454172Y40060828D01*
X54454172Y39687975D01*
X54267744Y39501550D01*
X53708469Y39501550D01*
X54081319Y39501550D02*
X54454172Y39128700D01*
X54877866Y39315125D02*
X54877866Y39874403D01*
X54877866Y39315125D02*
X55064291Y39128700D01*
X55623569Y39128700D01*
X55623569Y38942275D02*
X55623569Y39874403D01*
X55623569Y38942275D02*
X55437141Y38755850D01*
X55250716Y38755850D01*
X56047263Y40247253D02*
X56233688Y40247253D01*
X56233688Y39128700D01*
X56047263Y39128700D02*
X56420113Y39128700D01*
X56826859Y40247253D02*
X57013284Y40247253D01*
X57013284Y39128700D01*
X56826859Y39128700D02*
X57199709Y39128700D01*
D11*
X3000000Y74000000D03*
X3000000Y11000000D03*
X55000000Y42500000D03*
D12*
X4770000Y41230000D03*
X2230000Y41230000D03*
X4770000Y43770000D03*
X2230000Y43770000D03*
X4770000Y46310000D03*
X2230000Y46310000D03*
X4770000Y48850000D03*
X2230000Y48850000D03*
X4770000Y51390000D03*
X2230000Y51390000D03*
X4770000Y53930000D03*
X2230000Y53930000D03*
X4770000Y56470000D03*
X2230000Y56470000D03*
X4770000Y59010000D03*
X2230000Y59010000D03*
X4770000Y61550000D03*
X2230000Y61550000D03*
X4770000Y64090000D03*
X2230000Y64090000D03*
X4770000Y66630000D03*
X2230000Y66630000D03*
X4770000Y38690000D03*
X2230000Y38690000D03*
X2230000Y36150000D03*
X4770000Y36150000D03*
X4770000Y33610000D03*
X2230000Y33610000D03*
X2230000Y31070000D03*
X4770000Y31070000D03*
X4770000Y28530000D03*
X2230000Y28530000D03*
X2230000Y25990000D03*
X4770000Y25990000D03*
X4770000Y23450000D03*
X2230000Y23450000D03*
X2230000Y20910000D03*
X4770000Y20910000D03*
X4770000Y18370000D03*
X2230000Y18370000D03*
D13*
X31908800Y58317500D03*
X31908800Y56617500D03*
X12700000Y46298700D03*
X12700000Y47998700D03*
D14*
X14231300Y63182500D03*
X15931300Y63182500D03*
X28472500Y44767500D03*
X26772500Y44767500D03*
D13*
X31432500Y54507500D03*
X31432500Y52807500D03*
X11271200Y48951300D03*
X11271200Y47251300D03*
D14*
X17042500Y64611300D03*
X15342500Y64611300D03*
X18200000Y67627500D03*
X19900000Y67627500D03*
X27725000Y63500000D03*
X29425000Y63500000D03*
D15*
X29730000Y65405000D03*
X31230000Y65405000D03*
D13*
X32805000Y65405000D03*
X34505000Y65405000D03*
X32805000Y67310000D03*
X34505000Y67310000D03*
D15*
X29730000Y67310000D03*
X31230000Y67310000D03*
D16*
X46222500Y6367500D03*
X46222500Y1867500D03*
X55322500Y6367500D03*
X55322500Y1867500D03*
D17*
X8890000Y77152500D03*
X7937500Y77152500D03*
X6985000Y77152500D03*
X8890000Y74612500D03*
X6985000Y74612500D03*
D13*
X10477500Y76732500D03*
X10477500Y75032500D03*
X7302500Y70270000D03*
X7302500Y71970000D03*
X17882500Y82232500D03*
X19582500Y82232500D03*
D15*
X19482500Y83820000D03*
X17982500Y83820000D03*
D18*
X10477500Y69215000D03*
X10477500Y73025000D03*
D19*
X44557500Y51362500D03*
X45057500Y51362500D03*
X45557500Y51362500D03*
X46057500Y51362500D03*
X46557500Y51362500D03*
X47057500Y51362500D03*
X47557500Y51362500D03*
X48057500Y51362500D03*
X48557500Y51362500D03*
X49057500Y51362500D03*
X49557500Y51362500D03*
X50057500Y51362500D03*
D20*
X51507500Y52812500D03*
X51507500Y53312500D03*
X51507500Y53812500D03*
X51507500Y54312500D03*
X51507500Y54812500D03*
X51507500Y55312500D03*
X51507500Y55812500D03*
X51507500Y56312500D03*
X51507500Y56812500D03*
X51507500Y57312500D03*
X51507500Y57812500D03*
X51507500Y58312500D03*
D19*
X50057500Y59762500D03*
X49557500Y59762500D03*
X49057500Y59762500D03*
X48557500Y59762500D03*
X48057500Y59762500D03*
X47557500Y59762500D03*
X47057500Y59762500D03*
X46557500Y59762500D03*
X46057500Y59762500D03*
X45557500Y59762500D03*
X45057500Y59762500D03*
X44557500Y59762500D03*
D20*
X43107500Y58312500D03*
X43107500Y57812500D03*
X43107500Y57312500D03*
X43107500Y56812500D03*
X43107500Y56312500D03*
X43107500Y55812500D03*
X43107500Y55312500D03*
X43107500Y54812500D03*
X43107500Y54312500D03*
X43107500Y53812500D03*
X43107500Y53312500D03*
X43107500Y52812500D03*
D21*
X55429400Y79964000D03*
X42170600Y79964000D03*
X44710600Y79964000D03*
X52889400Y79964000D03*
D22*
X56547000Y72852000D03*
X41053000Y72852000D03*
D23*
X53245000Y69550000D03*
D21*
X50705000Y69550000D03*
X48165000Y69550000D03*
X45625000Y69550000D03*
X51975000Y67010000D03*
X49435000Y67010000D03*
X46895000Y67010000D03*
X44355000Y67010000D03*
D24*
X54515000Y75900000D03*
X43085000Y75900000D03*
D25*
X37650000Y49770000D03*
D26*
X37650000Y49145000D03*
X37650000Y48645000D03*
D25*
X37650000Y48020000D03*
X38550000Y48020000D03*
D26*
X38550000Y48645000D03*
X38550000Y49145000D03*
D25*
X38550000Y49770000D03*
X37650000Y52627500D03*
D26*
X37650000Y52002500D03*
X37650000Y51502500D03*
D25*
X37650000Y50877500D03*
X38550000Y50877500D03*
D26*
X38550000Y51502500D03*
X38550000Y52002500D03*
D25*
X38550000Y52627500D03*
X39237500Y55802500D03*
D26*
X39237500Y55177500D03*
X39237500Y54677500D03*
D25*
X39237500Y54052500D03*
X40137500Y54052500D03*
D26*
X40137500Y54677500D03*
X40137500Y55177500D03*
D25*
X40137500Y55802500D03*
X37650000Y59295000D03*
D26*
X37650000Y58670000D03*
X37650000Y58170000D03*
D25*
X37650000Y57545000D03*
X38550000Y57545000D03*
D26*
X38550000Y58170000D03*
X38550000Y58670000D03*
D25*
X38550000Y59295000D03*
D13*
X56412500Y63341200D03*
X54712500Y63341200D03*
D14*
X43077500Y59690000D03*
X41377500Y59690000D03*
X54712500Y54610000D03*
X56412500Y54610000D03*
X54712500Y60483700D03*
X56412500Y60483700D03*
D13*
X54712500Y56038700D03*
X56412500Y56038700D03*
X54712500Y57467500D03*
X56412500Y57467500D03*
D14*
X54712500Y59055000D03*
X56412500Y59055000D03*
X46411200Y61436300D03*
X44711200Y61436300D03*
X42760000Y51593700D03*
X41060000Y51593700D03*
D25*
X38550000Y65482500D03*
D26*
X38550000Y66107500D03*
X38550000Y66607500D03*
D25*
X38550000Y67232500D03*
X37650000Y67232500D03*
D26*
X37650000Y66607500D03*
X37650000Y66107500D03*
D25*
X37650000Y65482500D03*
D15*
X37580000Y83820000D03*
X36080000Y83820000D03*
D27*
X54532500Y51250000D03*
D28*
X53907500Y51250000D03*
X53407500Y51250000D03*
D27*
X52782500Y51250000D03*
X52782500Y50350000D03*
D28*
X53407500Y50350000D03*
X53907500Y50350000D03*
D27*
X54532500Y50350000D03*
D13*
X37997500Y70802500D03*
X36297500Y70802500D03*
X37997500Y72231300D03*
X36297500Y72231300D03*
X36012500Y82192500D03*
X37712500Y82192500D03*
D14*
X36297500Y69373800D03*
X37997500Y69373800D03*
D13*
X56197500Y49950000D03*
X56197500Y51650000D03*
X46411200Y63500000D03*
X44711200Y63500000D03*
D29*
X42533800Y63556200D03*
X40333800Y63556200D03*
X40333800Y61856200D03*
X42533800Y61856200D03*
D30*
X10700000Y80825000D03*
X11350000Y80825000D03*
X12000000Y80825000D03*
X12650000Y80825000D03*
X13300000Y80825000D03*
D31*
X9525000Y81200000D03*
X14475000Y81200000D03*
D32*
X9075000Y83500000D03*
X14925000Y83500000D03*
D33*
X11150000Y83500000D03*
X12850000Y83500000D03*
D13*
X19208800Y79590000D03*
X19208800Y77890000D03*
D14*
X28042500Y83502600D03*
X29742500Y83502600D03*
X25297500Y71751300D03*
X26997500Y71751300D03*
D13*
X31270000Y75065000D03*
X31270000Y73365000D03*
D25*
X14737500Y70562500D03*
D26*
X14737500Y71187500D03*
X14737500Y71687500D03*
D25*
X14737500Y72312500D03*
X13837500Y72312500D03*
D26*
X13837500Y71687500D03*
X13837500Y71187500D03*
D25*
X13837500Y70562500D03*
D34*
X4180000Y69215000D03*
X5780000Y69215000D03*
D14*
X2755000Y69215000D03*
X1055000Y69215000D03*
D35*
X32067500Y24765000D03*
D36*
X31067500Y23290000D03*
X31567500Y23290000D03*
X32067500Y23290000D03*
X32567500Y23290000D03*
X33067500Y23290000D03*
X31067500Y26240000D03*
X31567500Y26240000D03*
X32067500Y26240000D03*
X32567500Y26240000D03*
X33067500Y26240000D03*
D37*
X33792500Y25515000D03*
X33792500Y25015000D03*
X33792500Y24515000D03*
X33792500Y24015000D03*
X30342500Y25515000D03*
X30342500Y25015000D03*
X30342500Y24515000D03*
X30342500Y24015000D03*
D38*
X30342500Y23290000D03*
X33792500Y23290000D03*
X33792500Y26240000D03*
X30342500Y26240000D03*
D39*
X34450000Y6550000D03*
X39550000Y6550000D03*
X39550000Y1450000D03*
X34450000Y1450000D03*
D40*
X37000000Y4000000D03*
D39*
X16450000Y6550000D03*
X21550000Y6550000D03*
X21550000Y1450000D03*
X16450000Y1450000D03*
D40*
X19000000Y4000000D03*
D13*
X37306200Y25820000D03*
X37306200Y27520000D03*
X35877500Y25820000D03*
X35877500Y27520000D03*
D14*
X32646300Y29686300D03*
X34346300Y29686300D03*
X32646300Y28257500D03*
X34346300Y28257500D03*
X31012500Y29686200D03*
X29312500Y29686200D03*
X31012600Y28257500D03*
X29312600Y28257500D03*
X12756200Y24288800D03*
X11056200Y24288800D03*
D13*
X14605100Y20693700D03*
X14605100Y18993700D03*
D14*
X12756300Y21431200D03*
X11056300Y21431200D03*
D41*
X13187500Y29425000D03*
X13187500Y27725000D03*
X15387500Y27725000D03*
X15387500Y29425000D03*
D42*
X19843800Y24303700D03*
X19843800Y23003700D03*
X23336300Y24303700D03*
X23336300Y23003700D03*
X26828800Y24303700D03*
X26828800Y23003700D03*
D43*
X29225100Y24288700D03*
X27925100Y24288700D03*
X24432600Y25558700D03*
X25732600Y25558700D03*
D44*
X17918700Y25971200D03*
X17418700Y25971200D03*
X16918700Y25971200D03*
X16418700Y25971200D03*
X15918700Y25971200D03*
X15418700Y25971200D03*
D45*
X14668700Y25221200D03*
X14668700Y24721200D03*
X14668700Y24221200D03*
X14668700Y23721200D03*
X14668700Y23221200D03*
X14668700Y22721200D03*
D44*
X15418700Y21971200D03*
X15918700Y21971200D03*
X16418700Y21971200D03*
X16918700Y21971200D03*
X17418700Y21971200D03*
X17918700Y21971200D03*
D45*
X18668700Y22721200D03*
X18668700Y23221200D03*
X18668700Y23721200D03*
X18668700Y24221200D03*
X18668700Y24721200D03*
X18668700Y25221200D03*
D46*
X16668700Y23971200D03*
D13*
X17938800Y27883700D03*
X17938800Y29583700D03*
X19367500Y27883700D03*
X19367500Y29583700D03*
D43*
X20940000Y24288700D03*
X22240000Y24288700D03*
X24432600Y24288700D03*
X25732600Y24288700D03*
D14*
X35345000Y31908700D03*
X37045000Y31908700D03*
D27*
X34688700Y36486100D03*
D28*
X34063700Y36486100D03*
X33563700Y36486100D03*
D27*
X32938700Y36486100D03*
X32938700Y35586100D03*
D28*
X33563700Y35586100D03*
X34063700Y35586100D03*
D27*
X34688700Y35586100D03*
D14*
X32282500Y31908700D03*
X30582500Y31908700D03*
X34710000Y33337400D03*
X36410000Y33337400D03*
X32917500Y33337400D03*
X31217500Y33337400D03*
D42*
X37147500Y16842500D03*
X37147500Y15542500D03*
D43*
X37162500Y14287500D03*
X35862500Y14287500D03*
X37162500Y10477500D03*
X35862500Y10477500D03*
D42*
X19208800Y16842500D03*
X19208800Y15542500D03*
D43*
X19223800Y14287500D03*
X17923800Y14287500D03*
X19223800Y10477500D03*
X17923800Y10477500D03*
D13*
X16033800Y20693700D03*
X16033800Y18993700D03*
D14*
X12756300Y22859900D03*
X11056300Y22859900D03*
D27*
X17702500Y35851200D03*
D28*
X17077500Y35851200D03*
X16577500Y35851200D03*
D27*
X15952500Y35851200D03*
X15952500Y34951200D03*
D28*
X16577500Y34951200D03*
X17077500Y34951200D03*
D27*
X17702500Y34951200D03*
X14368800Y35851300D03*
D28*
X13743800Y35851300D03*
X13243800Y35851300D03*
D27*
X12618800Y35851300D03*
X12618800Y34951300D03*
D28*
X13243800Y34951300D03*
X13743800Y34951300D03*
D27*
X14368800Y34951300D03*
D47*
X33972500Y53002500D03*
X33972500Y50502500D03*
D13*
X33972500Y48792500D03*
X33972500Y47092500D03*
X33972500Y54712500D03*
X33972500Y56412500D03*
D42*
X37147500Y13032500D03*
X37147500Y11732500D03*
X19208800Y13032500D03*
X19208800Y11732500D03*
D48*
X14207500Y47975000D03*
X14207500Y48475000D03*
X14207500Y48975000D03*
X14207500Y49475000D03*
X14207500Y49975000D03*
X14207500Y50475000D03*
X14207500Y50975000D03*
X14207500Y51475000D03*
X14207500Y51975000D03*
X14207500Y52475000D03*
X14207500Y52975000D03*
X14207500Y53475000D03*
X14207500Y53975000D03*
X14207500Y54475000D03*
X14207500Y54975000D03*
X14207500Y55475000D03*
X14207500Y55975000D03*
X14207500Y56475000D03*
X14207500Y56975000D03*
X14207500Y57475000D03*
X14207500Y57975000D03*
X14207500Y58475000D03*
X14207500Y58975000D03*
X14207500Y59475000D03*
X14207500Y59975000D03*
D49*
X27907500Y61675000D03*
X27407500Y61675000D03*
X26907500Y61675000D03*
X26407500Y61675000D03*
X25907500Y61675000D03*
X25407500Y61675000D03*
X24907500Y61675000D03*
X24407500Y61675000D03*
X23907500Y61675000D03*
X23407500Y61675000D03*
X22907500Y61675000D03*
X22407500Y61675000D03*
X21907500Y61675000D03*
X21407500Y61675000D03*
X20907500Y61675000D03*
X20407500Y61675000D03*
X19907500Y61675000D03*
X19407500Y61675000D03*
X18907500Y61675000D03*
X18407500Y61675000D03*
X17907500Y61675000D03*
X17407500Y61675000D03*
X16907500Y61675000D03*
X16407500Y61675000D03*
X15907500Y61675000D03*
D48*
X29607500Y47975000D03*
X29607500Y48475000D03*
X29607500Y48975000D03*
X29607500Y49475000D03*
X29607500Y49975000D03*
X29607500Y50475000D03*
X29607500Y50975000D03*
X29607500Y51475000D03*
X29607500Y51975000D03*
X29607500Y52475000D03*
X29607500Y52975000D03*
X29607500Y53475000D03*
X29607500Y53975000D03*
X29607500Y54475000D03*
X29607500Y54975000D03*
X29607500Y55475000D03*
X29607500Y55975000D03*
X29607500Y56475000D03*
X29607500Y56975000D03*
X29607500Y57475000D03*
X29607500Y57975000D03*
X29607500Y58475000D03*
X29607500Y58975000D03*
X29607500Y59475000D03*
X29607500Y59975000D03*
D49*
X27907500Y46275000D03*
X27407500Y46275000D03*
X26907500Y46275000D03*
X26407500Y46275000D03*
X25907500Y46275000D03*
X25407500Y46275000D03*
X24907500Y46275000D03*
X24407500Y46275000D03*
X23907500Y46275000D03*
X23407500Y46275000D03*
X22907500Y46275000D03*
X22407500Y46275000D03*
X21907500Y46275000D03*
X21407500Y46275000D03*
X20907500Y46275000D03*
X20407500Y46275000D03*
X19907500Y46275000D03*
X19407500Y46275000D03*
X18907500Y46275000D03*
X18407500Y46275000D03*
X17907500Y46275000D03*
X17407500Y46275000D03*
X16907500Y46275000D03*
X16407500Y46275000D03*
X15907500Y46275000D03*
D50*
X25556300Y37177500D03*
X24606300Y37177500D03*
X23656300Y37177500D03*
X23656300Y34577500D03*
X25556300Y34577500D03*
D14*
X25456300Y38735000D03*
X23756300Y38735000D03*
X25456300Y33020000D03*
X23756300Y33020000D03*
D25*
X14737500Y67387500D03*
D26*
X14737500Y68012500D03*
X14737500Y68512500D03*
D25*
X14737500Y69137500D03*
X13837500Y69137500D03*
D26*
X13837500Y68512500D03*
X13837500Y68012500D03*
D25*
X13837500Y67387500D03*
D27*
X30402500Y72205000D03*
D28*
X29777500Y72205000D03*
X29277500Y72205000D03*
D27*
X28652500Y72205000D03*
X28652500Y71305000D03*
D28*
X29277500Y71305000D03*
X29777500Y71305000D03*
D27*
X30402500Y71305000D03*
D15*
X24015000Y42068800D03*
X25515000Y42068800D03*
D14*
X27146300Y36727500D03*
X27146300Y35027500D03*
X54712500Y61912500D03*
X56412500Y61912500D03*
D51*
X29282500Y80220000D03*
X29282500Y79720000D03*
X29282500Y79220000D03*
X29282500Y78720000D03*
X29282500Y78220000D03*
X29282500Y77720000D03*
X29282500Y77220000D03*
X29282500Y76720000D03*
X29282500Y76220000D03*
X29282500Y75720000D03*
X29282500Y75220000D03*
X29282500Y74720000D03*
D52*
X22332500Y73270000D03*
X22832500Y73270000D03*
X23332500Y73270000D03*
X23832500Y73270000D03*
X24332500Y73270000D03*
X24832500Y73270000D03*
X25332500Y73270000D03*
X25832500Y73270000D03*
X26332500Y73270000D03*
X26832500Y73270000D03*
X27332500Y73270000D03*
X27832500Y73270000D03*
X22332500Y81670000D03*
X22832500Y81670000D03*
X23332500Y81670000D03*
X23832500Y81670000D03*
X24332500Y81670000D03*
X24832500Y81670000D03*
X25332500Y81670000D03*
X25832500Y81670000D03*
X26332500Y81670000D03*
X26832500Y81670000D03*
X27332500Y81670000D03*
X27832500Y81670000D03*
D51*
X20882500Y80220000D03*
X20882500Y79720000D03*
X20882500Y79220000D03*
X20882500Y78720000D03*
X20882500Y78220000D03*
X20882500Y77720000D03*
X20882500Y77220000D03*
X20882500Y76720000D03*
X20882500Y76220000D03*
X20882500Y75720000D03*
X20882500Y75220000D03*
X20882500Y74720000D03*
D34*
X13705000Y77470000D03*
X15305000Y77470000D03*
D13*
X13755000Y75882500D03*
X15455000Y75882500D03*
X13755000Y74295000D03*
X15455000Y74295000D03*
X26567500Y83502500D03*
X24867500Y83502500D03*
D14*
X23392500Y83820000D03*
X21692500Y83820000D03*
D13*
X38950000Y79057500D03*
X37250000Y79057500D03*
D14*
X13755000Y79057500D03*
X15455000Y79057500D03*
X33337500Y80747500D03*
X33337500Y82447500D03*
D13*
X31273800Y81495000D03*
X31273800Y79795000D03*
D53*
X32446300Y77470000D03*
X34546300Y77470000D03*
D54*
X33496300Y77470000D03*
D53*
X32446300Y75970000D03*
X34546300Y75970000D03*
D54*
X33496300Y75970000D03*
D53*
X32446300Y78970000D03*
X34546300Y78970000D03*
D54*
X33496300Y78970000D03*
D14*
X31273800Y78320000D03*
X31273800Y76620000D03*
D55*
X39250000Y75567500D03*
X39250000Y76517500D03*
X39250000Y77467500D03*
X36950000Y77467500D03*
X36950000Y76517500D03*
X36950000Y75567500D03*
D14*
X37250000Y73977500D03*
X38950000Y73977500D03*
D13*
X38950000Y80645000D03*
X37250000Y80645000D03*
D56*
X20317500Y71775000D03*
X19367500Y71775000D03*
X18417500Y71775000D03*
X18417500Y69185000D03*
X20317500Y69185000D03*
D57*
X53022500Y25717500D03*
D58*
X53022500Y14287500D03*
X53022500Y37147500D03*
D13*
X21907500Y69635000D03*
X21907500Y71335000D03*
D34*
X24395000Y31115000D03*
X22795000Y31115000D03*
X26405000Y31115000D03*
X28005000Y31115000D03*
M02*
