G04 EAGLE Gerber X2 export*
%TF.Part,Single*%
%TF.FileFunction,Profile,NP*%
%TF.FilePolarity,Positive*%
%TF.GenerationSoftware,Autodesk,EAGLE,9.4.2*%
%TF.CreationDate,2019-11-19T20:24:05Z*%
G75*
%MOMM*%
%FSLAX36Y36*%
%LPD*%
%INOutline*%
%AMOC8*
5,1,8,0,0,1.08239X$1,22.5*%
G01*
%ADD10C,0.254000*%


D10*
X0Y8000000D02*
X3806Y7912844D01*
X15194Y7826353D01*
X34075Y7741181D01*
X60306Y7657981D01*
X93694Y7577381D01*
X133975Y7500000D01*
X180847Y7426425D01*
X233956Y7357213D01*
X292894Y7292894D01*
X357213Y7233956D01*
X426425Y7180847D01*
X500000Y7133975D01*
X577381Y7093694D01*
X657981Y7060306D01*
X741181Y7034075D01*
X826353Y7015194D01*
X912844Y7003806D01*
X1000000Y7000000D01*
X6000000Y7000000D01*
X6087156Y6996194D01*
X6173647Y6984806D01*
X6258819Y6965925D01*
X6342019Y6939694D01*
X6422619Y6906306D01*
X6500000Y6866025D01*
X6573575Y6819153D01*
X6642788Y6766044D01*
X6707106Y6707106D01*
X6766044Y6642788D01*
X6819153Y6573575D01*
X6866025Y6500000D01*
X6906306Y6422619D01*
X6939694Y6342019D01*
X6965925Y6258819D01*
X6984806Y6173647D01*
X6996194Y6087156D01*
X7000000Y6000000D01*
X7000000Y1000000D01*
X7003806Y912844D01*
X7015194Y826353D01*
X7034075Y741181D01*
X7060306Y657981D01*
X7093694Y577381D01*
X7133975Y500000D01*
X7180847Y426425D01*
X7233956Y357213D01*
X7292894Y292894D01*
X7357213Y233956D01*
X7426425Y180847D01*
X7500000Y133975D01*
X7577381Y93694D01*
X7657981Y60306D01*
X7741181Y34075D01*
X7826353Y15194D01*
X7912844Y3806D01*
X8000000Y0D01*
X57000000Y0D01*
X57087156Y3806D01*
X57173647Y15194D01*
X57258819Y34075D01*
X57342019Y60306D01*
X57422619Y93694D01*
X57500000Y133975D01*
X57573575Y180847D01*
X57642788Y233956D01*
X57707106Y292894D01*
X57766044Y357213D01*
X57819153Y426425D01*
X57866025Y500000D01*
X57906306Y577381D01*
X57939694Y657981D01*
X57965925Y741181D01*
X57984806Y826353D01*
X57996194Y912844D01*
X58000000Y1000000D01*
X58000000Y84000000D01*
X57996194Y84087156D01*
X57984806Y84173647D01*
X57965925Y84258819D01*
X57939694Y84342019D01*
X57906306Y84422619D01*
X57866025Y84500000D01*
X57819153Y84573575D01*
X57766044Y84642788D01*
X57707106Y84707106D01*
X57642788Y84766044D01*
X57573575Y84819153D01*
X57500000Y84866025D01*
X57422619Y84906306D01*
X57342019Y84939694D01*
X57258819Y84965925D01*
X57173647Y84984806D01*
X57087156Y84996194D01*
X57000000Y85000000D01*
X8000000Y85000000D01*
X7912844Y84996194D01*
X7826353Y84984806D01*
X7741181Y84965925D01*
X7657981Y84939694D01*
X7577381Y84906306D01*
X7500000Y84866025D01*
X7426425Y84819153D01*
X7357213Y84766044D01*
X7292894Y84707106D01*
X7233956Y84642788D01*
X7180847Y84573575D01*
X7133975Y84500000D01*
X7093694Y84422619D01*
X7060306Y84342019D01*
X7034075Y84258819D01*
X7015194Y84173647D01*
X7003806Y84087156D01*
X7000000Y84000000D01*
X7000000Y79000000D01*
X6996194Y78912844D01*
X6984806Y78826353D01*
X6965925Y78741181D01*
X6939694Y78657981D01*
X6906306Y78577381D01*
X6866025Y78500000D01*
X6819153Y78426425D01*
X6766044Y78357213D01*
X6707106Y78292894D01*
X6642788Y78233956D01*
X6573575Y78180847D01*
X6500000Y78133975D01*
X6422619Y78093694D01*
X6342019Y78060306D01*
X6258819Y78034075D01*
X6173647Y78015194D01*
X6087156Y78003806D01*
X6000000Y78000000D01*
X1000000Y78000000D01*
X912844Y77996194D01*
X826353Y77984806D01*
X741181Y77965925D01*
X657981Y77939694D01*
X577381Y77906306D01*
X500000Y77866025D01*
X426425Y77819153D01*
X357213Y77766044D01*
X292894Y77707106D01*
X233956Y77642788D01*
X180847Y77573575D01*
X133975Y77500000D01*
X93694Y77422619D01*
X60306Y77342019D01*
X34075Y77258819D01*
X15194Y77173647D01*
X3806Y77087156D01*
X0Y77000000D01*
X0Y8000000D01*
X4600000Y73947622D02*
X4593150Y73843088D01*
X4579475Y73739228D01*
X4559038Y73636484D01*
X4531925Y73535297D01*
X4498253Y73436097D01*
X4458163Y73339316D01*
X4411831Y73245363D01*
X4359450Y73154638D01*
X4301250Y73067538D01*
X4237478Y72984428D01*
X4168409Y72905666D01*
X4094334Y72831591D01*
X4015572Y72762522D01*
X3932463Y72698750D01*
X3845363Y72640550D01*
X3754638Y72588169D01*
X3660684Y72541838D01*
X3563903Y72501747D01*
X3464703Y72468075D01*
X3363516Y72440963D01*
X3260772Y72420525D01*
X3156913Y72406850D01*
X3052378Y72400000D01*
X2947622Y72400000D01*
X2843088Y72406850D01*
X2739228Y72420525D01*
X2636484Y72440963D01*
X2535297Y72468075D01*
X2436097Y72501747D01*
X2339316Y72541838D01*
X2245363Y72588169D01*
X2154638Y72640550D01*
X2067538Y72698750D01*
X1984428Y72762522D01*
X1905666Y72831591D01*
X1831591Y72905666D01*
X1762522Y72984428D01*
X1698750Y73067538D01*
X1640550Y73154638D01*
X1588169Y73245363D01*
X1541838Y73339316D01*
X1501747Y73436097D01*
X1468075Y73535297D01*
X1440963Y73636484D01*
X1420525Y73739228D01*
X1406850Y73843088D01*
X1400000Y73947622D01*
X1400000Y74052378D01*
X1406850Y74156913D01*
X1420525Y74260772D01*
X1440963Y74363516D01*
X1468075Y74464703D01*
X1501747Y74563903D01*
X1541838Y74660684D01*
X1588169Y74754638D01*
X1640550Y74845363D01*
X1698750Y74932463D01*
X1762522Y75015572D01*
X1831591Y75094334D01*
X1905666Y75168409D01*
X1984428Y75237478D01*
X2067538Y75301250D01*
X2154638Y75359450D01*
X2245363Y75411831D01*
X2339316Y75458163D01*
X2436097Y75498253D01*
X2535297Y75531925D01*
X2636484Y75559038D01*
X2739228Y75579475D01*
X2843088Y75593150D01*
X2947622Y75600000D01*
X3052378Y75600000D01*
X3156913Y75593150D01*
X3260772Y75579475D01*
X3363516Y75559038D01*
X3464703Y75531925D01*
X3563903Y75498253D01*
X3660684Y75458163D01*
X3754638Y75411831D01*
X3845363Y75359450D01*
X3932463Y75301250D01*
X4015572Y75237478D01*
X4094334Y75168409D01*
X4168409Y75094334D01*
X4237478Y75015572D01*
X4301250Y74932463D01*
X4359450Y74845363D01*
X4411831Y74754638D01*
X4458163Y74660684D01*
X4498253Y74563903D01*
X4531925Y74464703D01*
X4559038Y74363516D01*
X4579475Y74260772D01*
X4593150Y74156913D01*
X4600000Y74052378D01*
X4600000Y73947622D01*
X4600000Y10947622D02*
X4593150Y10843088D01*
X4579475Y10739228D01*
X4559038Y10636484D01*
X4531925Y10535297D01*
X4498253Y10436097D01*
X4458163Y10339316D01*
X4411831Y10245363D01*
X4359450Y10154638D01*
X4301250Y10067538D01*
X4237478Y9984428D01*
X4168409Y9905666D01*
X4094334Y9831591D01*
X4015572Y9762522D01*
X3932463Y9698750D01*
X3845363Y9640550D01*
X3754638Y9588169D01*
X3660684Y9541838D01*
X3563903Y9501747D01*
X3464703Y9468075D01*
X3363516Y9440963D01*
X3260772Y9420525D01*
X3156913Y9406850D01*
X3052378Y9400000D01*
X2947622Y9400000D01*
X2843088Y9406850D01*
X2739228Y9420525D01*
X2636484Y9440963D01*
X2535297Y9468075D01*
X2436097Y9501747D01*
X2339316Y9541838D01*
X2245363Y9588169D01*
X2154638Y9640550D01*
X2067538Y9698750D01*
X1984428Y9762522D01*
X1905666Y9831591D01*
X1831591Y9905666D01*
X1762522Y9984428D01*
X1698750Y10067538D01*
X1640550Y10154638D01*
X1588169Y10245363D01*
X1541838Y10339316D01*
X1501747Y10436097D01*
X1468075Y10535297D01*
X1440963Y10636484D01*
X1420525Y10739228D01*
X1406850Y10843088D01*
X1400000Y10947622D01*
X1400000Y11052378D01*
X1406850Y11156913D01*
X1420525Y11260772D01*
X1440963Y11363516D01*
X1468075Y11464703D01*
X1501747Y11563903D01*
X1541838Y11660684D01*
X1588169Y11754638D01*
X1640550Y11845363D01*
X1698750Y11932463D01*
X1762522Y12015572D01*
X1831591Y12094334D01*
X1905666Y12168409D01*
X1984428Y12237478D01*
X2067538Y12301250D01*
X2154638Y12359450D01*
X2245363Y12411831D01*
X2339316Y12458163D01*
X2436097Y12498253D01*
X2535297Y12531925D01*
X2636484Y12559038D01*
X2739228Y12579475D01*
X2843088Y12593150D01*
X2947622Y12600000D01*
X3052378Y12600000D01*
X3156913Y12593150D01*
X3260772Y12579475D01*
X3363516Y12559038D01*
X3464703Y12531925D01*
X3563903Y12498253D01*
X3660684Y12458163D01*
X3754638Y12411831D01*
X3845363Y12359450D01*
X3932463Y12301250D01*
X4015572Y12237478D01*
X4094334Y12168409D01*
X4168409Y12094334D01*
X4237478Y12015572D01*
X4301250Y11932463D01*
X4359450Y11845363D01*
X4411831Y11754638D01*
X4458163Y11660684D01*
X4498253Y11563903D01*
X4531925Y11464703D01*
X4559038Y11363516D01*
X4579475Y11260772D01*
X4593150Y11156913D01*
X4600000Y11052378D01*
X4600000Y10947622D01*
X56600000Y42447622D02*
X56593150Y42343088D01*
X56579475Y42239228D01*
X56559038Y42136484D01*
X56531925Y42035297D01*
X56498253Y41936097D01*
X56458163Y41839316D01*
X56411831Y41745363D01*
X56359450Y41654638D01*
X56301250Y41567538D01*
X56237478Y41484428D01*
X56168409Y41405666D01*
X56094334Y41331591D01*
X56015572Y41262522D01*
X55932463Y41198750D01*
X55845363Y41140550D01*
X55754638Y41088169D01*
X55660684Y41041838D01*
X55563903Y41001747D01*
X55464703Y40968075D01*
X55363516Y40940963D01*
X55260772Y40920525D01*
X55156913Y40906850D01*
X55052378Y40900000D01*
X54947622Y40900000D01*
X54843088Y40906850D01*
X54739228Y40920525D01*
X54636484Y40940963D01*
X54535297Y40968075D01*
X54436097Y41001747D01*
X54339316Y41041838D01*
X54245363Y41088169D01*
X54154638Y41140550D01*
X54067538Y41198750D01*
X53984428Y41262522D01*
X53905666Y41331591D01*
X53831591Y41405666D01*
X53762522Y41484428D01*
X53698750Y41567538D01*
X53640550Y41654638D01*
X53588169Y41745363D01*
X53541838Y41839316D01*
X53501747Y41936097D01*
X53468075Y42035297D01*
X53440963Y42136484D01*
X53420525Y42239228D01*
X53406850Y42343088D01*
X53400000Y42447622D01*
X53400000Y42552378D01*
X53406850Y42656913D01*
X53420525Y42760772D01*
X53440963Y42863516D01*
X53468075Y42964703D01*
X53501747Y43063903D01*
X53541838Y43160684D01*
X53588169Y43254638D01*
X53640550Y43345363D01*
X53698750Y43432463D01*
X53762522Y43515572D01*
X53831591Y43594334D01*
X53905666Y43668409D01*
X53984428Y43737478D01*
X54067538Y43801250D01*
X54154638Y43859450D01*
X54245363Y43911831D01*
X54339316Y43958163D01*
X54436097Y43998253D01*
X54535297Y44031925D01*
X54636484Y44059038D01*
X54739228Y44079475D01*
X54843088Y44093150D01*
X54947622Y44100000D01*
X55052378Y44100000D01*
X55156913Y44093150D01*
X55260772Y44079475D01*
X55363516Y44059038D01*
X55464703Y44031925D01*
X55563903Y43998253D01*
X55660684Y43958163D01*
X55754638Y43911831D01*
X55845363Y43859450D01*
X55932463Y43801250D01*
X56015572Y43737478D01*
X56094334Y43668409D01*
X56168409Y43594334D01*
X56237478Y43515572D01*
X56301250Y43432463D01*
X56359450Y43345363D01*
X56411831Y43254638D01*
X56458163Y43160684D01*
X56498253Y43063903D01*
X56531925Y42964703D01*
X56559038Y42863516D01*
X56579475Y42760772D01*
X56593150Y42656913D01*
X56600000Y42552378D01*
X56600000Y42447622D01*
X52865000Y75954016D02*
X52872066Y76061816D01*
X52886166Y76168922D01*
X52907241Y76274875D01*
X52935203Y76379225D01*
X52969928Y76481525D01*
X53011269Y76581331D01*
X53059050Y76678222D01*
X53113066Y76771778D01*
X53173084Y76861603D01*
X53238850Y76947309D01*
X53310078Y77028531D01*
X53386469Y77104922D01*
X53467691Y77176150D01*
X53553397Y77241916D01*
X53643222Y77301934D01*
X53736778Y77355950D01*
X53833669Y77403731D01*
X53933475Y77445072D01*
X54035775Y77479797D01*
X54140125Y77507759D01*
X54246078Y77528834D01*
X54353184Y77542934D01*
X54460984Y77550000D01*
X54569016Y77550000D01*
X54676816Y77542934D01*
X54783922Y77528834D01*
X54889875Y77507759D01*
X54994225Y77479797D01*
X55096525Y77445072D01*
X55196331Y77403731D01*
X55293222Y77355950D01*
X55386778Y77301934D01*
X55476603Y77241916D01*
X55562309Y77176150D01*
X55643531Y77104922D01*
X55719922Y77028531D01*
X55791150Y76947309D01*
X55856916Y76861603D01*
X55916934Y76771778D01*
X55970950Y76678222D01*
X56018731Y76581331D01*
X56060072Y76481525D01*
X56094797Y76379225D01*
X56122759Y76274875D01*
X56143834Y76168922D01*
X56157934Y76061816D01*
X56165000Y75954016D01*
X56165000Y75845984D01*
X56157934Y75738184D01*
X56143834Y75631078D01*
X56122759Y75525125D01*
X56094797Y75420775D01*
X56060072Y75318475D01*
X56018731Y75218669D01*
X55970950Y75121778D01*
X55916934Y75028222D01*
X55856916Y74938397D01*
X55791150Y74852691D01*
X55719922Y74771469D01*
X55643531Y74695078D01*
X55562309Y74623850D01*
X55476603Y74558084D01*
X55386778Y74498066D01*
X55293222Y74444050D01*
X55196331Y74396269D01*
X55096525Y74354928D01*
X54994225Y74320203D01*
X54889875Y74292241D01*
X54783922Y74271166D01*
X54676816Y74257066D01*
X54569016Y74250000D01*
X54460984Y74250000D01*
X54353184Y74257066D01*
X54246078Y74271166D01*
X54140125Y74292241D01*
X54035775Y74320203D01*
X53933475Y74354928D01*
X53833669Y74396269D01*
X53736778Y74444050D01*
X53643222Y74498066D01*
X53553397Y74558084D01*
X53467691Y74623850D01*
X53386469Y74695078D01*
X53310078Y74771469D01*
X53238850Y74852691D01*
X53173084Y74938397D01*
X53113066Y75028222D01*
X53059050Y75121778D01*
X53011269Y75218669D01*
X52969928Y75318475D01*
X52935203Y75420775D01*
X52907241Y75525125D01*
X52886166Y75631078D01*
X52872066Y75738184D01*
X52865000Y75845984D01*
X52865000Y75954016D01*
X41435000Y75954016D02*
X41442066Y76061816D01*
X41456166Y76168922D01*
X41477241Y76274875D01*
X41505203Y76379225D01*
X41539928Y76481525D01*
X41581269Y76581331D01*
X41629050Y76678222D01*
X41683066Y76771778D01*
X41743084Y76861603D01*
X41808850Y76947309D01*
X41880078Y77028531D01*
X41956469Y77104922D01*
X42037691Y77176150D01*
X42123397Y77241916D01*
X42213222Y77301934D01*
X42306778Y77355950D01*
X42403669Y77403731D01*
X42503475Y77445072D01*
X42605775Y77479797D01*
X42710125Y77507759D01*
X42816078Y77528834D01*
X42923184Y77542934D01*
X43030984Y77550000D01*
X43139016Y77550000D01*
X43246816Y77542934D01*
X43353922Y77528834D01*
X43459875Y77507759D01*
X43564225Y77479797D01*
X43666525Y77445072D01*
X43766331Y77403731D01*
X43863222Y77355950D01*
X43956778Y77301934D01*
X44046603Y77241916D01*
X44132309Y77176150D01*
X44213531Y77104922D01*
X44289922Y77028531D01*
X44361150Y76947309D01*
X44426916Y76861603D01*
X44486934Y76771778D01*
X44540950Y76678222D01*
X44588731Y76581331D01*
X44630072Y76481525D01*
X44664797Y76379225D01*
X44692759Y76274875D01*
X44713834Y76168922D01*
X44727934Y76061816D01*
X44735000Y75954016D01*
X44735000Y75845984D01*
X44727934Y75738184D01*
X44713834Y75631078D01*
X44692759Y75525125D01*
X44664797Y75420775D01*
X44630072Y75318475D01*
X44588731Y75218669D01*
X44540950Y75121778D01*
X44486934Y75028222D01*
X44426916Y74938397D01*
X44361150Y74852691D01*
X44289922Y74771469D01*
X44213531Y74695078D01*
X44132309Y74623850D01*
X44046603Y74558084D01*
X43956778Y74498066D01*
X43863222Y74444050D01*
X43766331Y74396269D01*
X43666525Y74354928D01*
X43564225Y74320203D01*
X43459875Y74292241D01*
X43353922Y74271166D01*
X43246816Y74257066D01*
X43139016Y74250000D01*
X43030984Y74250000D01*
X42923184Y74257066D01*
X42816078Y74271166D01*
X42710125Y74292241D01*
X42605775Y74320203D01*
X42503475Y74354928D01*
X42403669Y74396269D01*
X42306778Y74444050D01*
X42213222Y74498066D01*
X42123397Y74558084D01*
X42037691Y74623850D01*
X41956469Y74695078D01*
X41880078Y74771469D01*
X41808850Y74852691D01*
X41743084Y74938397D01*
X41683066Y75028222D01*
X41629050Y75121778D01*
X41581269Y75218669D01*
X41539928Y75318475D01*
X41505203Y75420775D01*
X41477241Y75525125D01*
X41456166Y75631078D01*
X41442066Y75738184D01*
X41435000Y75845984D01*
X41435000Y75954016D01*
M02*
