%TF.GenerationSoftware,KiCad,Pcbnew,8.0.6*%
%TF.CreationDate,2024-11-11T21:44:25+01:00*%
%TF.ProjectId,Motor_Driver_carrier_board,4d6f746f-725f-4447-9269-7665725f6361,rev?*%
%TF.SameCoordinates,Original*%
%TF.FileFunction,Copper,L2,Bot*%
%TF.FilePolarity,Positive*%
%FSLAX46Y46*%
G04 Gerber Fmt 4.6, Leading zero omitted, Abs format (unit mm)*
G04 Created by KiCad (PCBNEW 8.0.6) date 2024-11-11 21:44:25*
%MOMM*%
%LPD*%
G01*
G04 APERTURE LIST*
G04 Aperture macros list*
%AMRoundRect*
0 Rectangle with rounded corners*
0 $1 Rounding radius*
0 $2 $3 $4 $5 $6 $7 $8 $9 X,Y pos of 4 corners*
0 Add a 4 corners polygon primitive as box body*
4,1,4,$2,$3,$4,$5,$6,$7,$8,$9,$2,$3,0*
0 Add four circle primitives for the rounded corners*
1,1,$1+$1,$2,$3*
1,1,$1+$1,$4,$5*
1,1,$1+$1,$6,$7*
1,1,$1+$1,$8,$9*
0 Add four rect primitives between the rounded corners*
20,1,$1+$1,$2,$3,$4,$5,0*
20,1,$1+$1,$4,$5,$6,$7,0*
20,1,$1+$1,$6,$7,$8,$9,0*
20,1,$1+$1,$8,$9,$2,$3,0*%
G04 Aperture macros list end*
%TA.AperFunction,ComponentPad*%
%ADD10C,1.650000*%
%TD*%
%TA.AperFunction,ComponentPad*%
%ADD11RoundRect,0.412500X0.412500X-0.412500X0.412500X0.412500X-0.412500X0.412500X-0.412500X-0.412500X0*%
%TD*%
%TA.AperFunction,SMDPad,CuDef*%
%ADD12R,1.400000X1.400000*%
%TD*%
%TA.AperFunction,ViaPad*%
%ADD13C,1.200000*%
%TD*%
%TA.AperFunction,ViaPad*%
%ADD14C,0.600000*%
%TD*%
%TA.AperFunction,Conductor*%
%ADD15C,2.000000*%
%TD*%
%TA.AperFunction,Conductor*%
%ADD16C,0.300000*%
%TD*%
%TA.AperFunction,Conductor*%
%ADD17C,0.800000*%
%TD*%
%ADD18C,0.350000*%
%ADD19C,0.300000*%
G04 APERTURE END LIST*
D10*
%TO.P,J3,1,1*%
%TO.N,SWDIO*%
X121800000Y-62120000D03*
%TO.P,J3,2,2*%
%TO.N,SWCLK*%
X121800000Y-64660000D03*
%TO.P,J3,3,3*%
%TO.N,3.3V*%
X121800000Y-67200000D03*
%TO.P,J3,4,4*%
%TO.N,GND*%
X121800000Y-69740000D03*
%TO.P,J3,5,5*%
X121800000Y-72280000D03*
%TD*%
D11*
%TO.P,P2,1,1*%
%TO.N,OUT1*%
X153375000Y-46350000D03*
D10*
%TO.P,P2,2,2*%
X150835000Y-46350000D03*
%TO.P,P2,3,3*%
X153375000Y-48890000D03*
%TO.P,P2,4,4*%
X150835000Y-48890000D03*
%TO.P,P2,5,5*%
%TO.N,OUT2*%
X153375000Y-51430000D03*
%TO.P,P2,6,6*%
X150835000Y-51430000D03*
%TO.P,P2,7,7*%
X153375000Y-53970000D03*
%TO.P,P2,8,8*%
X150835000Y-53970000D03*
%TO.P,P2,9,9*%
%TO.N,OUT3*%
X153375000Y-56510000D03*
%TO.P,P2,10,10*%
X150835000Y-56510000D03*
%TO.P,P2,11,11*%
X153375000Y-59050000D03*
%TO.P,P2,12,12*%
X150835000Y-59050000D03*
%TO.P,P2,13,13*%
%TO.N,24V*%
X153375000Y-61590000D03*
%TO.P,P2,14,14*%
X150835000Y-61590000D03*
%TO.P,P2,15,15*%
X153375000Y-64130000D03*
%TO.P,P2,16,16*%
X150835000Y-64130000D03*
%TO.P,P2,17,17*%
%TO.N,GND*%
X153375000Y-66670000D03*
%TO.P,P2,18,18*%
X150835000Y-66670000D03*
%TO.P,P2,19,19*%
X153375000Y-69210000D03*
%TO.P,P2,20,20*%
X150835000Y-69210000D03*
D11*
%TO.P,P2,21,21*%
%TO.N,H2*%
X153375000Y-82450000D03*
D10*
%TO.P,P2,22,22*%
%TO.N,H3*%
X150835000Y-82450000D03*
%TO.P,P2,23,23*%
%TO.N,H1*%
X153375000Y-84990000D03*
%TO.P,P2,24,24*%
%TO.N,5V*%
X150835000Y-84990000D03*
%TO.P,P2,25,25*%
%TO.N,RX*%
X153375000Y-87530000D03*
%TO.P,P2,26,26*%
%TO.N,GND*%
X150835000Y-87530000D03*
%TO.P,P2,27,27*%
%TO.N,5V*%
X153375000Y-90070000D03*
%TO.P,P2,28,28*%
%TO.N,GND*%
X150835000Y-90070000D03*
%TO.P,P2,29,29*%
%TO.N,TX*%
X153375000Y-92610000D03*
%TO.P,P2,30,30*%
%TO.N,PWM*%
X150835000Y-92610000D03*
%TD*%
D12*
%TO.P,GND,1*%
%TO.N,GND*%
X144800000Y-74300000D03*
%TD*%
%TO.P,H2,1*%
%TO.N,H2*%
X144800000Y-68600000D03*
%TD*%
%TO.P,5V,1*%
%TO.N,5V*%
X144800000Y-72400000D03*
%TD*%
%TO.P,H1,1*%
%TO.N,H1*%
X144800000Y-66700000D03*
%TD*%
%TO.P,H3,1*%
%TO.N,H3*%
X144800000Y-70500000D03*
%TD*%
D13*
%TO.N,GND*%
X124110000Y-91920000D03*
X125790000Y-91910000D03*
X127440000Y-91950000D03*
X127440000Y-93370000D03*
X124110000Y-93360000D03*
D14*
X122900000Y-87000000D03*
D13*
X125800000Y-93300000D03*
D14*
%TO.N,3.3V*%
X122900000Y-85100000D03*
%TO.N,SWCLK*%
X122900000Y-83200000D03*
%TO.N,5V*%
X150900000Y-77150000D03*
%TD*%
D15*
%TO.N,GND*%
X150660000Y-67880000D02*
X150660000Y-69210000D01*
X150660000Y-66670000D02*
X150660000Y-67880000D01*
X150660000Y-67880000D02*
X149990000Y-67880000D01*
X149990000Y-67880000D02*
X151450000Y-69340000D01*
X151450000Y-69340000D02*
X155250000Y-69340000D01*
X155250000Y-68545000D02*
X153375000Y-66670000D01*
X155250000Y-69340000D02*
X155250000Y-68545000D01*
D16*
%TO.N,H1*%
X144800000Y-66700000D02*
X153140000Y-75040000D01*
X153140000Y-75040000D02*
X153140000Y-80311660D01*
X153140000Y-80311660D02*
X154550000Y-81721660D01*
X154550000Y-81721660D02*
X154550000Y-83815000D01*
X154550000Y-83815000D02*
X153375000Y-84990000D01*
%TO.N,H2*%
X144800000Y-68600000D02*
X145450000Y-68600000D01*
X145450000Y-68600000D02*
X152520000Y-75670000D01*
X152520000Y-75670000D02*
X152520000Y-81595000D01*
X152520000Y-81595000D02*
X153375000Y-82450000D01*
D15*
%TO.N,GND*%
X153200000Y-69210000D02*
X150660000Y-69210000D01*
X153200000Y-66670000D02*
X150660000Y-66670000D01*
X153200000Y-66670000D02*
X153200000Y-69210000D01*
X150660000Y-69210000D02*
X153200000Y-66670000D01*
D16*
%TO.N,3.3V*%
X122250000Y-82900000D02*
X123344500Y-81805500D01*
X122250000Y-84450000D02*
X122250000Y-82900000D01*
X122700000Y-67200000D02*
X121800000Y-67200000D01*
X123344500Y-81805500D02*
X123344500Y-67844500D01*
X123344500Y-67844500D02*
X122700000Y-67200000D01*
X122900000Y-85100000D02*
X122250000Y-84450000D01*
%TO.N,SWCLK*%
X123844500Y-82255500D02*
X123844500Y-80300761D01*
X123844500Y-71919239D02*
X123844500Y-67580761D01*
X123844500Y-67580761D02*
X123850000Y-67575261D01*
X122900000Y-83200000D02*
X123844500Y-82255500D01*
X123850000Y-67575261D02*
X123850000Y-65700000D01*
X123850000Y-80295261D02*
X123850000Y-71924739D01*
X123850000Y-71924739D02*
X123844500Y-71919239D01*
X123844500Y-80300761D02*
X123850000Y-80295261D01*
X123850000Y-65700000D02*
X122810000Y-64660000D01*
X122810000Y-64660000D02*
X121800000Y-64660000D01*
%TO.N,H3*%
X151850000Y-81435000D02*
X150835000Y-82450000D01*
X144800000Y-70500000D02*
X146200000Y-70500000D01*
X146200000Y-70500000D02*
X151850000Y-76150000D01*
X151850000Y-76150000D02*
X151850000Y-81435000D01*
D17*
%TO.N,5V*%
X144800000Y-72400000D02*
X146300000Y-72400000D01*
X148350000Y-82505000D02*
X150835000Y-84990000D01*
X150900000Y-77150000D02*
X148350000Y-74600000D01*
X148350000Y-74450000D02*
X148350000Y-82505000D01*
X148350000Y-74600000D02*
X148350000Y-74450000D01*
X146300000Y-72400000D02*
X148350000Y-74450000D01*
%TD*%
%TA.AperFunction,Conductor*%
%TO.N,GND*%
G36*
X151085000Y-89579252D02*
G01*
X151047292Y-89557482D01*
X150907409Y-89520000D01*
X150762591Y-89520000D01*
X150622708Y-89557482D01*
X150585000Y-89579252D01*
X150585000Y-88020747D01*
X150622708Y-88042518D01*
X150762591Y-88080000D01*
X150907409Y-88080000D01*
X151047292Y-88042518D01*
X151085000Y-88020747D01*
X151085000Y-89579252D01*
G37*
%TD.AperFunction*%
%TA.AperFunction,Conductor*%
G36*
X122050000Y-71789252D02*
G01*
X122012292Y-71767482D01*
X121872409Y-71730000D01*
X121727591Y-71730000D01*
X121587708Y-71767482D01*
X121550000Y-71789252D01*
X121550000Y-70230747D01*
X121587708Y-70252518D01*
X121727591Y-70290000D01*
X121872409Y-70290000D01*
X122012292Y-70252518D01*
X122050000Y-70230747D01*
X122050000Y-71789252D01*
G37*
%TD.AperFunction*%
%TA.AperFunction,Conductor*%
G36*
X152862482Y-68997708D02*
G01*
X152825000Y-69137591D01*
X152825000Y-69282409D01*
X152862482Y-69422292D01*
X152884252Y-69460000D01*
X151325748Y-69460000D01*
X151347518Y-69422292D01*
X151385000Y-69282409D01*
X151385000Y-69137591D01*
X151347518Y-68997708D01*
X151325748Y-68960000D01*
X152884252Y-68960000D01*
X152862482Y-68997708D01*
G37*
%TD.AperFunction*%
%TA.AperFunction,Conductor*%
G36*
X151085000Y-68719252D02*
G01*
X151047292Y-68697482D01*
X150907409Y-68660000D01*
X150762591Y-68660000D01*
X150622708Y-68697482D01*
X150585000Y-68719252D01*
X150585000Y-67160747D01*
X150622708Y-67182518D01*
X150762591Y-67220000D01*
X150907409Y-67220000D01*
X151047292Y-67182518D01*
X151085000Y-67160747D01*
X151085000Y-68719252D01*
G37*
%TD.AperFunction*%
%TA.AperFunction,Conductor*%
G36*
X153625000Y-68719252D02*
G01*
X153587292Y-68697482D01*
X153447409Y-68660000D01*
X153302591Y-68660000D01*
X153162708Y-68697482D01*
X153125000Y-68719252D01*
X153125000Y-67160747D01*
X153162708Y-67182518D01*
X153302591Y-67220000D01*
X153447409Y-67220000D01*
X153587292Y-67182518D01*
X153625000Y-67160747D01*
X153625000Y-68719252D01*
G37*
%TD.AperFunction*%
%TA.AperFunction,Conductor*%
G36*
X152172864Y-67271321D02*
G01*
X152217383Y-67322698D01*
X152223134Y-67335032D01*
X152356118Y-67524951D01*
X152520048Y-67688881D01*
X152709970Y-67821867D01*
X152709974Y-67821869D01*
X152722303Y-67827619D01*
X152774742Y-67873792D01*
X152793893Y-67940986D01*
X152773676Y-68007867D01*
X152722303Y-68052381D01*
X152709975Y-68058129D01*
X152709968Y-68058133D01*
X152520051Y-68191114D01*
X152356114Y-68355051D01*
X152223133Y-68544968D01*
X152223129Y-68544975D01*
X152217381Y-68557303D01*
X152171208Y-68609742D01*
X152104014Y-68628893D01*
X152037133Y-68608676D01*
X151992619Y-68557303D01*
X151986870Y-68544975D01*
X151986866Y-68544968D01*
X151853885Y-68355051D01*
X151689951Y-68191118D01*
X151500032Y-68058134D01*
X151487698Y-68052383D01*
X151435258Y-68006211D01*
X151416106Y-67939017D01*
X151436321Y-67872136D01*
X151487698Y-67827617D01*
X151500032Y-67821865D01*
X151689951Y-67688881D01*
X151853881Y-67524951D01*
X151986865Y-67335032D01*
X151992617Y-67322698D01*
X152038789Y-67270258D01*
X152105983Y-67251106D01*
X152172864Y-67271321D01*
G37*
%TD.AperFunction*%
%TA.AperFunction,Conductor*%
G36*
X152862482Y-66457708D02*
G01*
X152825000Y-66597591D01*
X152825000Y-66742409D01*
X152862482Y-66882292D01*
X152884252Y-66920000D01*
X151325748Y-66920000D01*
X151347518Y-66882292D01*
X151385000Y-66742409D01*
X151385000Y-66597591D01*
X151347518Y-66457708D01*
X151325748Y-66420000D01*
X152884252Y-66420000D01*
X152862482Y-66457708D01*
G37*
%TD.AperFunction*%
%TA.AperFunction,Conductor*%
G36*
X152172865Y-64495884D02*
G01*
X152217382Y-64547259D01*
X152219007Y-64550744D01*
X152219008Y-64550747D01*
X152309632Y-64745091D01*
X152432627Y-64920745D01*
X152584255Y-65072373D01*
X152759909Y-65195368D01*
X152840020Y-65232724D01*
X152892460Y-65278896D01*
X152911612Y-65346089D01*
X152891397Y-65412970D01*
X152840021Y-65457488D01*
X152709970Y-65518132D01*
X152709968Y-65518133D01*
X152520051Y-65651114D01*
X152356114Y-65815051D01*
X152223133Y-66004968D01*
X152223129Y-66004975D01*
X152217381Y-66017303D01*
X152171208Y-66069742D01*
X152104014Y-66088893D01*
X152037133Y-66068676D01*
X151992619Y-66017303D01*
X151986870Y-66004975D01*
X151986866Y-66004968D01*
X151853885Y-65815051D01*
X151689951Y-65651118D01*
X151500030Y-65518132D01*
X151369978Y-65457488D01*
X151317539Y-65411315D01*
X151298387Y-65344122D01*
X151318603Y-65277241D01*
X151369974Y-65232726D01*
X151450091Y-65195368D01*
X151625745Y-65072373D01*
X151777373Y-64920745D01*
X151900368Y-64745091D01*
X151990992Y-64550747D01*
X151990992Y-64550744D01*
X151992618Y-64547259D01*
X152038790Y-64494820D01*
X152105984Y-64475668D01*
X152172865Y-64495884D01*
G37*
%TD.AperFunction*%
%TA.AperFunction,Conductor*%
G36*
X147350237Y-36750592D02*
G01*
X147941268Y-36772052D01*
X147948975Y-36772573D01*
X148536386Y-36830872D01*
X148544074Y-36831880D01*
X149126637Y-36926825D01*
X149134248Y-36928311D01*
X149709749Y-37059539D01*
X149717259Y-37061501D01*
X150283404Y-37228488D01*
X150290758Y-37230910D01*
X150845350Y-37433010D01*
X150852532Y-37435885D01*
X151393414Y-37672312D01*
X151400416Y-37675639D01*
X151925419Y-37945449D01*
X151932167Y-37949188D01*
X152403219Y-38229859D01*
X152439259Y-38251333D01*
X152445801Y-38255514D01*
X152932953Y-38588785D01*
X152939213Y-38593361D01*
X153404582Y-38956494D01*
X153410551Y-38961460D01*
X153852255Y-39352989D01*
X153857880Y-39358298D01*
X154058712Y-39560131D01*
X154274226Y-39776720D01*
X154279523Y-39782388D01*
X154535352Y-40073910D01*
X154668853Y-40226038D01*
X154673790Y-40232033D01*
X155034590Y-40699187D01*
X155039142Y-40705478D01*
X155369985Y-41194283D01*
X155374134Y-41200846D01*
X155673743Y-41709418D01*
X155677473Y-41716229D01*
X155944659Y-42242552D01*
X155947955Y-42249583D01*
X156181667Y-42791583D01*
X156184517Y-42798806D01*
X156383854Y-43354391D01*
X156386246Y-43361779D01*
X156550412Y-43928737D01*
X156552337Y-43936260D01*
X156680694Y-44512381D01*
X156682145Y-44520009D01*
X156774192Y-45103051D01*
X156775162Y-45110755D01*
X156830534Y-45698404D01*
X156831020Y-45706155D01*
X156849561Y-46298045D01*
X156849622Y-46301927D01*
X156849500Y-88834106D01*
X156849500Y-88898046D01*
X156849439Y-88901941D01*
X156830877Y-89492582D01*
X156830388Y-89500356D01*
X156774959Y-90086732D01*
X156773982Y-90094461D01*
X156681849Y-90676169D01*
X156680390Y-90683821D01*
X156551903Y-91258638D01*
X156549965Y-91266183D01*
X156385648Y-91831765D01*
X156383242Y-91839168D01*
X156379881Y-91848507D01*
X156183735Y-92393323D01*
X156180868Y-92400565D01*
X155946952Y-92941113D01*
X155943635Y-92948162D01*
X155676241Y-93472951D01*
X155672488Y-93479777D01*
X155372675Y-93986734D01*
X155368501Y-93993311D01*
X155037444Y-94480446D01*
X155032865Y-94486748D01*
X154671887Y-94952118D01*
X154666922Y-94958121D01*
X154277406Y-95399940D01*
X154272073Y-95405618D01*
X153855618Y-95822073D01*
X153849940Y-95827406D01*
X153408121Y-96216922D01*
X153402118Y-96221887D01*
X152936748Y-96582865D01*
X152930446Y-96587444D01*
X152443311Y-96918501D01*
X152436734Y-96922675D01*
X151929777Y-97222488D01*
X151922951Y-97226241D01*
X151398162Y-97493635D01*
X151391113Y-97496952D01*
X150850565Y-97730868D01*
X150843323Y-97733735D01*
X150461504Y-97871198D01*
X150289168Y-97933242D01*
X150281765Y-97935648D01*
X149716183Y-98099965D01*
X149708638Y-98101903D01*
X149133821Y-98230390D01*
X149126169Y-98231849D01*
X148544461Y-98323982D01*
X148536732Y-98324959D01*
X147950356Y-98380388D01*
X147942582Y-98380877D01*
X147351941Y-98399439D01*
X147348046Y-98399500D01*
X127201954Y-98399500D01*
X127198059Y-98399439D01*
X126607417Y-98380877D01*
X126599643Y-98380388D01*
X126013267Y-98324959D01*
X126005538Y-98323982D01*
X125423830Y-98231849D01*
X125416178Y-98230390D01*
X124841361Y-98101903D01*
X124833816Y-98099965D01*
X124268234Y-97935648D01*
X124260840Y-97933246D01*
X123706676Y-97733735D01*
X123699434Y-97730868D01*
X123158886Y-97496952D01*
X123151837Y-97493635D01*
X122627048Y-97226241D01*
X122620222Y-97222488D01*
X122113265Y-96922675D01*
X122106688Y-96918501D01*
X121619553Y-96587444D01*
X121613251Y-96582865D01*
X121147881Y-96221887D01*
X121141878Y-96216922D01*
X120700059Y-95827406D01*
X120694381Y-95822073D01*
X120277926Y-95405618D01*
X120272593Y-95399940D01*
X119883077Y-94958121D01*
X119878112Y-94952118D01*
X119517134Y-94486748D01*
X119512555Y-94480446D01*
X119181498Y-93993311D01*
X119177324Y-93986734D01*
X118877511Y-93479777D01*
X118873758Y-93472951D01*
X118606364Y-92948162D01*
X118603047Y-92941113D01*
X118369131Y-92400565D01*
X118366270Y-92393338D01*
X118166746Y-91839139D01*
X118164358Y-91831789D01*
X118000031Y-91266172D01*
X117998096Y-91258638D01*
X117975416Y-91157173D01*
X117869605Y-90683802D01*
X117868153Y-90676188D01*
X117776016Y-90094459D01*
X117775040Y-90086732D01*
X117769792Y-90031211D01*
X117719610Y-89500340D01*
X117719123Y-89492598D01*
X117700561Y-88901941D01*
X117700500Y-88898046D01*
X117700500Y-69490000D01*
X120495247Y-69490000D01*
X121309252Y-69490000D01*
X121287482Y-69527708D01*
X121250000Y-69667591D01*
X121250000Y-69812409D01*
X121287482Y-69952292D01*
X121309252Y-69990000D01*
X120495247Y-69990000D01*
X120550148Y-70194900D01*
X120550152Y-70194909D01*
X120648132Y-70405030D01*
X120781118Y-70594951D01*
X120945048Y-70758881D01*
X121134970Y-70891867D01*
X121134974Y-70891869D01*
X121147303Y-70897619D01*
X121199742Y-70943792D01*
X121218893Y-71010986D01*
X121198676Y-71077867D01*
X121147303Y-71122381D01*
X121134975Y-71128129D01*
X121134968Y-71128133D01*
X120945051Y-71261114D01*
X120781114Y-71425051D01*
X120648133Y-71614968D01*
X120648132Y-71614970D01*
X120550152Y-71825090D01*
X120550148Y-71825099D01*
X120495247Y-72030000D01*
X121309252Y-72030000D01*
X121287482Y-72067708D01*
X121250000Y-72207591D01*
X121250000Y-72352409D01*
X121287482Y-72492292D01*
X121309252Y-72530000D01*
X120495247Y-72530000D01*
X120550148Y-72734900D01*
X120550152Y-72734909D01*
X120648132Y-72945030D01*
X120781118Y-73134951D01*
X120945048Y-73298881D01*
X121134969Y-73431867D01*
X121345090Y-73529847D01*
X121345099Y-73529851D01*
X121550000Y-73584752D01*
X121550000Y-72770747D01*
X121587708Y-72792518D01*
X121727591Y-72830000D01*
X121872409Y-72830000D01*
X122012292Y-72792518D01*
X122050000Y-72770747D01*
X122050000Y-73584751D01*
X122254900Y-73529851D01*
X122254909Y-73529847D01*
X122465030Y-73431867D01*
X122654951Y-73298881D01*
X122682319Y-73271514D01*
X122743642Y-73238029D01*
X122813334Y-73243013D01*
X122869267Y-73284885D01*
X122893684Y-73350349D01*
X122894000Y-73359195D01*
X122894000Y-81567534D01*
X122874315Y-81634573D01*
X122857681Y-81655215D01*
X121889513Y-82623383D01*
X121889509Y-82623389D01*
X121830201Y-82726112D01*
X121830200Y-82726117D01*
X121799500Y-82840691D01*
X121799500Y-84509308D01*
X121818891Y-84581680D01*
X121830200Y-84623885D01*
X121830200Y-84623886D01*
X121830201Y-84623887D01*
X121889511Y-84726614D01*
X121889513Y-84726616D01*
X122269317Y-85106421D01*
X122302802Y-85167744D01*
X122304575Y-85177916D01*
X122314955Y-85256761D01*
X122373591Y-85398319D01*
X122375464Y-85402841D01*
X122471718Y-85528282D01*
X122597159Y-85624536D01*
X122743238Y-85685044D01*
X122821619Y-85695363D01*
X122899999Y-85705682D01*
X122900000Y-85705682D01*
X122900001Y-85705682D01*
X122952254Y-85698802D01*
X123056762Y-85685044D01*
X123202841Y-85624536D01*
X123328282Y-85528282D01*
X123424536Y-85402841D01*
X123485044Y-85256762D01*
X123505682Y-85100000D01*
X123485044Y-84943238D01*
X123424536Y-84797159D01*
X123328282Y-84671718D01*
X123202841Y-84575464D01*
X123202274Y-84575229D01*
X123056761Y-84514955D01*
X122977916Y-84504575D01*
X122914019Y-84476308D01*
X122906421Y-84469317D01*
X122736819Y-84299715D01*
X122703334Y-84238392D01*
X122700500Y-84212034D01*
X122700500Y-83920812D01*
X122720185Y-83853773D01*
X122772989Y-83808018D01*
X122840685Y-83797873D01*
X122900000Y-83805682D01*
X122900001Y-83805682D01*
X122952254Y-83798802D01*
X123056762Y-83785044D01*
X123202841Y-83724536D01*
X123328282Y-83628282D01*
X123424536Y-83502841D01*
X123485044Y-83356762D01*
X123495424Y-83277915D01*
X123523688Y-83214021D01*
X123530669Y-83206433D01*
X123782319Y-82954784D01*
X123843642Y-82921299D01*
X123913334Y-82926283D01*
X123969267Y-82968155D01*
X123993684Y-83033619D01*
X123994000Y-83042465D01*
X123994000Y-84377534D01*
X124024398Y-84549937D01*
X124084275Y-84714446D01*
X124171809Y-84866057D01*
X124284336Y-85000163D01*
X124418442Y-85112690D01*
X124418443Y-85112691D01*
X124418445Y-85112692D01*
X124437500Y-85123693D01*
X124485716Y-85174260D01*
X124499500Y-85231080D01*
X124499500Y-89110482D01*
X124499497Y-89110532D01*
X124499497Y-89112084D01*
X124499380Y-89112480D01*
X124498617Y-89125256D01*
X124498614Y-89125281D01*
X124495723Y-89124934D01*
X124479812Y-89179123D01*
X124447668Y-89209771D01*
X124449068Y-89211602D01*
X124448504Y-89212033D01*
X124437807Y-89219173D01*
X124437495Y-89219472D01*
X124436505Y-89220043D01*
X124435336Y-89220824D01*
X124418561Y-89230534D01*
X124418555Y-89230538D01*
X124276353Y-89352912D01*
X124276349Y-89352916D01*
X124203801Y-89443889D01*
X124159368Y-89499606D01*
X124073710Y-89661681D01*
X124071698Y-89665487D01*
X124016398Y-89844766D01*
X124016395Y-89844779D01*
X123995389Y-90031211D01*
X124009410Y-90218304D01*
X124057970Y-90399537D01*
X124118347Y-90524909D01*
X124139376Y-90568576D01*
X124250789Y-90719536D01*
X124388325Y-90847150D01*
X124547188Y-90946971D01*
X124547191Y-90946972D01*
X124547190Y-90946972D01*
X124610997Y-90972014D01*
X124721840Y-91015516D01*
X124906190Y-91050397D01*
X124925489Y-91050417D01*
X124926715Y-91050500D01*
X124934108Y-91050500D01*
X143223317Y-91050500D01*
X143224537Y-91050417D01*
X143243810Y-91050397D01*
X143428160Y-91015516D01*
X143602812Y-90946971D01*
X143761675Y-90847150D01*
X143899211Y-90719536D01*
X144010624Y-90568576D01*
X144092030Y-90399536D01*
X144140589Y-90218308D01*
X144154610Y-90031211D01*
X144133603Y-89844770D01*
X144078301Y-89665485D01*
X143990632Y-89499606D01*
X143873652Y-89352918D01*
X143873650Y-89352916D01*
X143873646Y-89352912D01*
X143797271Y-89287187D01*
X143731441Y-89230536D01*
X143714729Y-89220863D01*
X143713717Y-89220185D01*
X143712485Y-89219474D01*
X143712188Y-89219162D01*
X143701355Y-89211914D01*
X143700869Y-89211541D01*
X143702677Y-89209184D01*
X143664277Y-89168899D01*
X143653648Y-89125010D01*
X143651386Y-89125282D01*
X143651383Y-89125257D01*
X143650621Y-89112511D01*
X143650502Y-89112019D01*
X143650502Y-89110532D01*
X143650500Y-89110483D01*
X143650500Y-75535807D01*
X143670185Y-75468768D01*
X143722989Y-75423013D01*
X143792147Y-75413069D01*
X143848814Y-75436542D01*
X143857913Y-75443354D01*
X143992620Y-75493596D01*
X143992627Y-75493598D01*
X144052155Y-75499999D01*
X144052172Y-75500000D01*
X144550000Y-75500000D01*
X145050000Y-75500000D01*
X145547828Y-75500000D01*
X145547844Y-75499999D01*
X145607372Y-75493598D01*
X145607379Y-75493596D01*
X145742086Y-75443354D01*
X145742093Y-75443350D01*
X145857187Y-75357190D01*
X145857190Y-75357187D01*
X145943350Y-75242093D01*
X145943354Y-75242086D01*
X145993596Y-75107379D01*
X145993598Y-75107372D01*
X145999999Y-75047844D01*
X146000000Y-75047827D01*
X146000000Y-74550000D01*
X145050000Y-74550000D01*
X145050000Y-75500000D01*
X144550000Y-75500000D01*
X144550000Y-74174000D01*
X144569685Y-74106961D01*
X144622489Y-74061206D01*
X144674000Y-74050000D01*
X146000000Y-74050000D01*
X146000000Y-73552172D01*
X145999999Y-73552155D01*
X145993598Y-73492627D01*
X145993596Y-73492620D01*
X145949882Y-73375416D01*
X145944898Y-73305725D01*
X145978383Y-73244402D01*
X146039706Y-73210917D01*
X146109398Y-73215901D01*
X146153745Y-73244402D01*
X147613181Y-74703838D01*
X147646666Y-74765161D01*
X147649500Y-74791519D01*
X147649500Y-82436006D01*
X147649500Y-82573994D01*
X147649500Y-82573996D01*
X147649499Y-82573996D01*
X147676418Y-82709322D01*
X147676421Y-82709332D01*
X147729222Y-82836807D01*
X147805887Y-82951545D01*
X147805888Y-82951546D01*
X149675361Y-84821018D01*
X149708846Y-84882341D01*
X149711151Y-84920140D01*
X149704678Y-84989998D01*
X149704678Y-84990000D01*
X149723923Y-85197691D01*
X149723923Y-85197693D01*
X149723924Y-85197696D01*
X149740730Y-85256762D01*
X149781007Y-85398322D01*
X149845719Y-85528281D01*
X149873981Y-85585038D01*
X149999682Y-85751493D01*
X150153829Y-85892016D01*
X150331172Y-86001823D01*
X150331175Y-86001824D01*
X150421866Y-86036958D01*
X150477268Y-86079531D01*
X150500859Y-86145297D01*
X150485148Y-86213378D01*
X150435124Y-86262157D01*
X150409167Y-86272360D01*
X150380097Y-86280149D01*
X150380090Y-86280152D01*
X150169970Y-86378132D01*
X150169968Y-86378133D01*
X149980051Y-86511114D01*
X149816114Y-86675051D01*
X149683133Y-86864968D01*
X149683132Y-86864970D01*
X149585152Y-87075090D01*
X149585148Y-87075099D01*
X149530247Y-87280000D01*
X150344252Y-87280000D01*
X150322482Y-87317708D01*
X150285000Y-87457591D01*
X150285000Y-87602409D01*
X150322482Y-87742292D01*
X150344252Y-87780000D01*
X149530247Y-87780000D01*
X149585148Y-87984900D01*
X149585152Y-87984909D01*
X149683132Y-88195030D01*
X149816118Y-88384951D01*
X149980048Y-88548881D01*
X150169970Y-88681867D01*
X150169974Y-88681869D01*
X150182303Y-88687619D01*
X150234742Y-88733792D01*
X150253893Y-88800986D01*
X150233676Y-88867867D01*
X150182303Y-88912381D01*
X150169975Y-88918129D01*
X150169968Y-88918133D01*
X149980051Y-89051114D01*
X149816114Y-89215051D01*
X149683133Y-89404968D01*
X149683132Y-89404970D01*
X149585152Y-89615090D01*
X149585148Y-89615099D01*
X149530247Y-89820000D01*
X150344252Y-89820000D01*
X150322482Y-89857708D01*
X150285000Y-89997591D01*
X150285000Y-90142409D01*
X150322482Y-90282292D01*
X150344252Y-90320000D01*
X149530247Y-90320000D01*
X149585148Y-90524900D01*
X149585152Y-90524909D01*
X149683132Y-90735030D01*
X149816118Y-90924951D01*
X149980048Y-91088881D01*
X150169969Y-91221867D01*
X150380090Y-91319847D01*
X150380104Y-91319853D01*
X150409164Y-91327639D01*
X150468825Y-91364002D01*
X150499356Y-91426849D01*
X150491062Y-91496224D01*
X150446578Y-91550103D01*
X150421868Y-91563040D01*
X150331178Y-91598173D01*
X150331171Y-91598177D01*
X150153827Y-91707985D01*
X149999683Y-91848505D01*
X149873981Y-92014961D01*
X149781007Y-92201677D01*
X149781006Y-92201681D01*
X149725434Y-92396999D01*
X149723923Y-92402308D01*
X149704678Y-92609999D01*
X149704678Y-92610000D01*
X149723923Y-92817691D01*
X149723923Y-92817693D01*
X149723924Y-92817696D01*
X149781006Y-93018319D01*
X149873981Y-93205038D01*
X149999682Y-93371493D01*
X150153829Y-93512016D01*
X150331172Y-93621823D01*
X150525673Y-93697173D01*
X150730707Y-93735500D01*
X150730710Y-93735500D01*
X150939290Y-93735500D01*
X150939293Y-93735500D01*
X151144327Y-93697173D01*
X151338828Y-93621823D01*
X151516171Y-93512016D01*
X151670318Y-93371493D01*
X151796019Y-93205038D01*
X151888994Y-93018319D01*
X151946076Y-92817696D01*
X151965322Y-92610000D01*
X151965322Y-92609999D01*
X152244678Y-92609999D01*
X152244678Y-92610000D01*
X152263923Y-92817691D01*
X152263923Y-92817693D01*
X152263924Y-92817696D01*
X152321006Y-93018319D01*
X152413981Y-93205038D01*
X152539682Y-93371493D01*
X152693829Y-93512016D01*
X152871172Y-93621823D01*
X153065673Y-93697173D01*
X153270707Y-93735500D01*
X153270710Y-93735500D01*
X153479290Y-93735500D01*
X153479293Y-93735500D01*
X153684327Y-93697173D01*
X153878828Y-93621823D01*
X154056171Y-93512016D01*
X154210318Y-93371493D01*
X154336019Y-93205038D01*
X154428994Y-93018319D01*
X154486076Y-92817696D01*
X154505322Y-92610000D01*
X154486076Y-92402304D01*
X154428994Y-92201681D01*
X154336019Y-92014962D01*
X154210318Y-91848507D01*
X154056171Y-91707984D01*
X153878828Y-91598177D01*
X153878827Y-91598176D01*
X153736609Y-91543081D01*
X153684327Y-91522827D01*
X153479293Y-91484500D01*
X153270707Y-91484500D01*
X153065673Y-91522827D01*
X153065670Y-91522827D01*
X153065670Y-91522828D01*
X152871172Y-91598176D01*
X152871171Y-91598177D01*
X152693827Y-91707985D01*
X152539683Y-91848505D01*
X152413981Y-92014961D01*
X152321007Y-92201677D01*
X152321006Y-92201681D01*
X152265434Y-92396999D01*
X152263923Y-92402308D01*
X152244678Y-92609999D01*
X151965322Y-92609999D01*
X151946076Y-92402304D01*
X151888994Y-92201681D01*
X151796019Y-92014962D01*
X151670318Y-91848507D01*
X151516171Y-91707984D01*
X151338828Y-91598177D01*
X151338827Y-91598176D01*
X151248132Y-91563041D01*
X151192730Y-91520468D01*
X151169140Y-91454701D01*
X151184851Y-91386620D01*
X151234875Y-91337842D01*
X151260836Y-91327638D01*
X151289903Y-91319850D01*
X151289909Y-91319847D01*
X151500030Y-91221867D01*
X151689951Y-91088881D01*
X151853881Y-90924951D01*
X151986867Y-90735030D01*
X152084847Y-90524909D01*
X152084852Y-90524898D01*
X152090810Y-90502662D01*
X152127174Y-90443001D01*
X152190020Y-90412471D01*
X152259396Y-90420765D01*
X152313274Y-90465250D01*
X152321585Y-90479482D01*
X152344205Y-90524909D01*
X152413981Y-90665038D01*
X152539682Y-90831493D01*
X152693829Y-90972016D01*
X152871172Y-91081823D01*
X153065673Y-91157173D01*
X153270707Y-91195500D01*
X153270710Y-91195500D01*
X153479290Y-91195500D01*
X153479293Y-91195500D01*
X153684327Y-91157173D01*
X153878828Y-91081823D01*
X154056171Y-90972016D01*
X154210318Y-90831493D01*
X154336019Y-90665038D01*
X154428994Y-90478319D01*
X154486076Y-90277696D01*
X154505322Y-90070000D01*
X154486076Y-89862304D01*
X154428994Y-89661681D01*
X154336019Y-89474962D01*
X154210318Y-89308507D01*
X154056171Y-89167984D01*
X153878828Y-89058177D01*
X153878827Y-89058176D01*
X153736609Y-89003081D01*
X153684327Y-88982827D01*
X153479293Y-88944500D01*
X153270707Y-88944500D01*
X153065673Y-88982827D01*
X153065670Y-88982827D01*
X153065670Y-88982828D01*
X152871172Y-89058176D01*
X152871171Y-89058177D01*
X152693827Y-89167985D01*
X152539683Y-89308505D01*
X152413981Y-89474961D01*
X152321585Y-89660517D01*
X152274082Y-89711754D01*
X152206419Y-89729175D01*
X152140079Y-89707249D01*
X152096124Y-89652938D01*
X152090810Y-89637338D01*
X152084851Y-89615099D01*
X152084847Y-89615090D01*
X151986867Y-89404970D01*
X151986866Y-89404968D01*
X151853885Y-89215051D01*
X151689951Y-89051118D01*
X151500032Y-88918134D01*
X151487698Y-88912383D01*
X151435258Y-88866211D01*
X151416106Y-88799017D01*
X151436321Y-88732136D01*
X151487698Y-88687617D01*
X151500032Y-88681865D01*
X151689951Y-88548881D01*
X151853881Y-88384951D01*
X151986867Y-88195030D01*
X152084847Y-87984909D01*
X152084852Y-87984898D01*
X152090810Y-87962662D01*
X152127174Y-87903001D01*
X152190020Y-87872471D01*
X152259396Y-87880765D01*
X152313274Y-87925250D01*
X152321585Y-87939482D01*
X152344205Y-87984909D01*
X152413981Y-88125038D01*
X152539682Y-88291493D01*
X152693829Y-88432016D01*
X152871172Y-88541823D01*
X153065673Y-88617173D01*
X153270707Y-88655500D01*
X153270710Y-88655500D01*
X153479290Y-88655500D01*
X153479293Y-88655500D01*
X153684327Y-88617173D01*
X153878828Y-88541823D01*
X154056171Y-88432016D01*
X154210318Y-88291493D01*
X154336019Y-88125038D01*
X154428994Y-87938319D01*
X154486076Y-87737696D01*
X154505322Y-87530000D01*
X154486076Y-87322304D01*
X154428994Y-87121681D01*
X154336019Y-86934962D01*
X154210318Y-86768507D01*
X154056171Y-86627984D01*
X153878828Y-86518177D01*
X153878827Y-86518176D01*
X153736609Y-86463081D01*
X153684327Y-86442827D01*
X153479293Y-86404500D01*
X153270707Y-86404500D01*
X153065673Y-86442827D01*
X153065670Y-86442827D01*
X153065670Y-86442828D01*
X152871172Y-86518176D01*
X152871171Y-86518177D01*
X152693827Y-86627985D01*
X152539683Y-86768505D01*
X152413981Y-86934961D01*
X152321585Y-87120517D01*
X152274082Y-87171754D01*
X152206419Y-87189175D01*
X152140079Y-87167249D01*
X152096124Y-87112938D01*
X152090810Y-87097338D01*
X152084851Y-87075099D01*
X152084847Y-87075090D01*
X151986867Y-86864970D01*
X151986866Y-86864968D01*
X151853885Y-86675051D01*
X151689951Y-86511118D01*
X151500030Y-86378132D01*
X151289909Y-86280152D01*
X151289903Y-86280149D01*
X151260832Y-86272360D01*
X151201172Y-86235995D01*
X151170643Y-86173148D01*
X151178938Y-86103772D01*
X151223423Y-86049894D01*
X151248130Y-86036959D01*
X151338828Y-86001823D01*
X151516171Y-85892016D01*
X151670318Y-85751493D01*
X151796019Y-85585038D01*
X151888994Y-85398319D01*
X151946076Y-85197696D01*
X151965322Y-84990000D01*
X151946076Y-84782304D01*
X151888994Y-84581681D01*
X151796019Y-84394962D01*
X151670318Y-84228507D01*
X151516171Y-84087984D01*
X151338828Y-83978177D01*
X151338827Y-83978176D01*
X151171859Y-83913493D01*
X151144327Y-83902827D01*
X150939293Y-83864500D01*
X150751519Y-83864500D01*
X150684480Y-83844815D01*
X150663838Y-83828181D01*
X150620838Y-83785181D01*
X150587353Y-83723858D01*
X150592337Y-83654166D01*
X150634209Y-83598233D01*
X150699673Y-83573816D01*
X150724974Y-83575252D01*
X150725001Y-83574971D01*
X150730705Y-83575499D01*
X150730707Y-83575500D01*
X150730709Y-83575500D01*
X150939290Y-83575500D01*
X150939293Y-83575500D01*
X151144327Y-83537173D01*
X151338828Y-83461823D01*
X151516171Y-83352016D01*
X151670318Y-83211493D01*
X151796019Y-83045038D01*
X151888994Y-82858319D01*
X151946076Y-82657696D01*
X151965322Y-82450000D01*
X151946076Y-82242304D01*
X151907036Y-82105092D01*
X151907622Y-82035229D01*
X151938617Y-81983484D01*
X152017321Y-81904781D01*
X152078642Y-81871299D01*
X152148333Y-81876284D01*
X152192680Y-81904784D01*
X152213181Y-81925285D01*
X152246666Y-81986608D01*
X152249500Y-82012966D01*
X152249500Y-82910005D01*
X152249501Y-82910023D01*
X152259475Y-83007662D01*
X152259476Y-83007665D01*
X152311902Y-83165875D01*
X152311903Y-83165878D01*
X152399404Y-83307739D01*
X152517261Y-83425596D01*
X152659122Y-83513097D01*
X152817337Y-83565524D01*
X152914987Y-83575500D01*
X153835012Y-83575499D01*
X153841763Y-83574809D01*
X153910455Y-83587577D01*
X153961341Y-83635456D01*
X153978263Y-83703246D01*
X153955849Y-83769423D01*
X153942050Y-83785845D01*
X153883081Y-83844815D01*
X153842903Y-83884993D01*
X153781579Y-83918477D01*
X153711888Y-83913493D01*
X153710430Y-83912938D01*
X153684334Y-83902829D01*
X153684330Y-83902828D01*
X153684327Y-83902827D01*
X153479293Y-83864500D01*
X153270707Y-83864500D01*
X153065673Y-83902827D01*
X153065670Y-83902827D01*
X153065670Y-83902828D01*
X152871172Y-83978176D01*
X152871171Y-83978177D01*
X152693827Y-84087985D01*
X152539683Y-84228505D01*
X152413981Y-84394961D01*
X152321007Y-84581677D01*
X152321006Y-84581680D01*
X152321006Y-84581681D01*
X152283232Y-84714445D01*
X152263923Y-84782308D01*
X152244678Y-84989999D01*
X152244678Y-84990000D01*
X152263923Y-85197691D01*
X152263923Y-85197693D01*
X152263924Y-85197696D01*
X152280730Y-85256762D01*
X152321007Y-85398322D01*
X152385719Y-85528281D01*
X152413981Y-85585038D01*
X152539682Y-85751493D01*
X152693829Y-85892016D01*
X152871172Y-86001823D01*
X153065673Y-86077173D01*
X153270707Y-86115500D01*
X153270710Y-86115500D01*
X153479290Y-86115500D01*
X153479293Y-86115500D01*
X153684327Y-86077173D01*
X153878828Y-86001823D01*
X154056171Y-85892016D01*
X154210318Y-85751493D01*
X154336019Y-85585038D01*
X154428994Y-85398319D01*
X154486076Y-85197696D01*
X154505322Y-84990000D01*
X154498848Y-84920140D01*
X154487453Y-84797160D01*
X154486076Y-84782304D01*
X154447036Y-84645092D01*
X154447622Y-84575229D01*
X154478619Y-84523482D01*
X154910489Y-84091614D01*
X154969799Y-83988887D01*
X154976285Y-83964675D01*
X154976286Y-83964675D01*
X154976286Y-83964671D01*
X155000500Y-83874309D01*
X155000500Y-81662351D01*
X154976286Y-81571986D01*
X154976286Y-81571985D01*
X154976286Y-81571984D01*
X154973544Y-81561751D01*
X154969799Y-81547773D01*
X154910489Y-81445046D01*
X153626819Y-80161376D01*
X153593334Y-80100053D01*
X153590500Y-80073695D01*
X153590500Y-74980693D01*
X153590500Y-74980691D01*
X153559799Y-74866114D01*
X153559799Y-74866113D01*
X153500489Y-74763386D01*
X145836818Y-67099715D01*
X145803333Y-67038392D01*
X145800499Y-67012034D01*
X145800499Y-66420000D01*
X149530247Y-66420000D01*
X150344252Y-66420000D01*
X150322482Y-66457708D01*
X150285000Y-66597591D01*
X150285000Y-66742409D01*
X150322482Y-66882292D01*
X150344252Y-66920000D01*
X149530247Y-66920000D01*
X149585148Y-67124900D01*
X149585152Y-67124909D01*
X149683132Y-67335030D01*
X149816118Y-67524951D01*
X149980048Y-67688881D01*
X150169970Y-67821867D01*
X150169974Y-67821869D01*
X150182303Y-67827619D01*
X150234742Y-67873792D01*
X150253893Y-67940986D01*
X150233676Y-68007867D01*
X150182303Y-68052381D01*
X150169975Y-68058129D01*
X150169968Y-68058133D01*
X149980051Y-68191114D01*
X149816114Y-68355051D01*
X149683133Y-68544968D01*
X149683132Y-68544970D01*
X149585152Y-68755090D01*
X149585148Y-68755099D01*
X149530247Y-68960000D01*
X150344252Y-68960000D01*
X150322482Y-68997708D01*
X150285000Y-69137591D01*
X150285000Y-69282409D01*
X150322482Y-69422292D01*
X150344252Y-69460000D01*
X149530247Y-69460000D01*
X149585148Y-69664900D01*
X149585152Y-69664909D01*
X149683132Y-69875030D01*
X149816118Y-70064951D01*
X149980048Y-70228881D01*
X150169969Y-70361867D01*
X150380090Y-70459847D01*
X150380099Y-70459851D01*
X150585000Y-70514752D01*
X150585000Y-69700747D01*
X150622708Y-69722518D01*
X150762591Y-69760000D01*
X150907409Y-69760000D01*
X151047292Y-69722518D01*
X151085000Y-69700747D01*
X151085000Y-70514751D01*
X151289900Y-70459851D01*
X151289909Y-70459847D01*
X151500030Y-70361867D01*
X151689951Y-70228881D01*
X151853881Y-70064951D01*
X151986865Y-69875032D01*
X151992617Y-69862698D01*
X152038789Y-69810258D01*
X152105983Y-69791106D01*
X152172864Y-69811321D01*
X152217383Y-69862698D01*
X152223134Y-69875032D01*
X152356118Y-70064951D01*
X152520048Y-70228881D01*
X152709969Y-70361867D01*
X152920090Y-70459847D01*
X152920099Y-70459851D01*
X153125000Y-70514752D01*
X153125000Y-69700747D01*
X153162708Y-69722518D01*
X153302591Y-69760000D01*
X153447409Y-69760000D01*
X153587292Y-69722518D01*
X153625000Y-69700747D01*
X153625000Y-70514751D01*
X153829900Y-70459851D01*
X153829909Y-70459847D01*
X154040030Y-70361867D01*
X154229951Y-70228881D01*
X154393881Y-70064951D01*
X154526867Y-69875030D01*
X154624847Y-69664909D01*
X154624851Y-69664900D01*
X154679753Y-69460000D01*
X153865748Y-69460000D01*
X153887518Y-69422292D01*
X153925000Y-69282409D01*
X153925000Y-69137591D01*
X153887518Y-68997708D01*
X153865748Y-68960000D01*
X154679752Y-68960000D01*
X154624851Y-68755099D01*
X154624847Y-68755090D01*
X154526867Y-68544970D01*
X154526866Y-68544968D01*
X154393885Y-68355051D01*
X154229951Y-68191118D01*
X154040032Y-68058134D01*
X154027698Y-68052383D01*
X153975258Y-68006211D01*
X153956106Y-67939017D01*
X153976321Y-67872136D01*
X154027698Y-67827617D01*
X154040032Y-67821865D01*
X154229951Y-67688881D01*
X154393881Y-67524951D01*
X154526867Y-67335030D01*
X154624847Y-67124909D01*
X154624851Y-67124900D01*
X154679753Y-66920000D01*
X153865748Y-66920000D01*
X153887518Y-66882292D01*
X153925000Y-66742409D01*
X153925000Y-66597591D01*
X153887518Y-66457708D01*
X153865748Y-66420000D01*
X154679752Y-66420000D01*
X154624851Y-66215099D01*
X154624847Y-66215090D01*
X154526867Y-66004970D01*
X154526866Y-66004968D01*
X154393885Y-65815051D01*
X154229951Y-65651118D01*
X154040030Y-65518132D01*
X153909978Y-65457488D01*
X153857539Y-65411315D01*
X153838387Y-65344122D01*
X153858603Y-65277241D01*
X153909974Y-65232726D01*
X153990091Y-65195368D01*
X154165745Y-65072373D01*
X154317373Y-64920745D01*
X154440368Y-64745091D01*
X154530992Y-64550747D01*
X154586492Y-64343619D01*
X154605181Y-64130000D01*
X154586492Y-63916381D01*
X154530992Y-63709253D01*
X154440368Y-63514910D01*
X154317373Y-63339255D01*
X154165745Y-63187627D01*
X153990091Y-63064632D01*
X153795747Y-62974008D01*
X153795744Y-62974007D01*
X153792259Y-62972382D01*
X153739820Y-62926210D01*
X153720668Y-62859016D01*
X153740884Y-62792135D01*
X153792259Y-62747618D01*
X153795744Y-62745992D01*
X153795747Y-62745992D01*
X153990091Y-62655368D01*
X154165745Y-62532373D01*
X154317373Y-62380745D01*
X154440368Y-62205091D01*
X154530992Y-62010747D01*
X154586492Y-61803619D01*
X154605181Y-61590000D01*
X154586492Y-61376381D01*
X154530992Y-61169253D01*
X154440368Y-60974910D01*
X154317373Y-60799255D01*
X154165745Y-60647627D01*
X153990091Y-60524632D01*
X153795747Y-60434008D01*
X153795744Y-60434007D01*
X153792259Y-60432382D01*
X153739820Y-60386210D01*
X153720668Y-60319016D01*
X153740884Y-60252135D01*
X153792259Y-60207618D01*
X153795744Y-60205992D01*
X153795747Y-60205992D01*
X153990091Y-60115368D01*
X154165745Y-59992373D01*
X154317373Y-59840745D01*
X154440368Y-59665091D01*
X154530992Y-59470747D01*
X154586492Y-59263619D01*
X154605181Y-59050000D01*
X154586492Y-58836381D01*
X154530992Y-58629253D01*
X154440368Y-58434910D01*
X154317373Y-58259255D01*
X154165745Y-58107627D01*
X153990091Y-57984632D01*
X153795747Y-57894008D01*
X153795744Y-57894007D01*
X153792259Y-57892382D01*
X153739820Y-57846210D01*
X153720668Y-57779016D01*
X153740884Y-57712135D01*
X153792259Y-57667618D01*
X153795744Y-57665992D01*
X153795747Y-57665992D01*
X153990091Y-57575368D01*
X154165745Y-57452373D01*
X154317373Y-57300745D01*
X154440368Y-57125091D01*
X154530992Y-56930747D01*
X154586492Y-56723619D01*
X154605181Y-56510000D01*
X154586492Y-56296381D01*
X154530992Y-56089253D01*
X154440368Y-55894910D01*
X154317373Y-55719255D01*
X154165745Y-55567627D01*
X153990091Y-55444632D01*
X153795747Y-55354008D01*
X153795744Y-55354007D01*
X153792259Y-55352382D01*
X153739820Y-55306210D01*
X153720668Y-55239016D01*
X153740884Y-55172135D01*
X153792259Y-55127618D01*
X153795744Y-55125992D01*
X153795747Y-55125992D01*
X153990091Y-55035368D01*
X154165745Y-54912373D01*
X154317373Y-54760745D01*
X154440368Y-54585091D01*
X154530992Y-54390747D01*
X154586492Y-54183619D01*
X154605181Y-53970000D01*
X154586492Y-53756381D01*
X154530992Y-53549253D01*
X154440368Y-53354910D01*
X154317373Y-53179255D01*
X154165745Y-53027627D01*
X153990091Y-52904632D01*
X153795747Y-52814008D01*
X153795744Y-52814007D01*
X153792259Y-52812382D01*
X153739820Y-52766210D01*
X153720668Y-52699016D01*
X153740884Y-52632135D01*
X153792259Y-52587618D01*
X153795744Y-52585992D01*
X153795747Y-52585992D01*
X153990091Y-52495368D01*
X154165745Y-52372373D01*
X154317373Y-52220745D01*
X154440368Y-52045091D01*
X154530992Y-51850747D01*
X154586492Y-51643619D01*
X154605181Y-51430000D01*
X154586492Y-51216381D01*
X154530992Y-51009253D01*
X154440368Y-50814910D01*
X154415698Y-50779678D01*
X154317376Y-50639259D01*
X154317371Y-50639253D01*
X154165745Y-50487627D01*
X154156045Y-50480835D01*
X153990091Y-50364632D01*
X153795747Y-50274008D01*
X153795744Y-50274007D01*
X153792259Y-50272382D01*
X153739820Y-50226210D01*
X153720668Y-50159016D01*
X153740884Y-50092135D01*
X153792259Y-50047618D01*
X153795744Y-50045992D01*
X153795747Y-50045992D01*
X153990091Y-49955368D01*
X154165745Y-49832373D01*
X154317373Y-49680745D01*
X154440368Y-49505091D01*
X154530992Y-49310747D01*
X154586492Y-49103619D01*
X154605181Y-48890000D01*
X154586492Y-48676381D01*
X154530992Y-48469253D01*
X154440368Y-48274910D01*
X154317373Y-48099255D01*
X154165745Y-47947627D01*
X153990091Y-47824632D01*
X153928684Y-47795997D01*
X153876245Y-47749826D01*
X153857093Y-47682633D01*
X153877308Y-47615751D01*
X153930474Y-47570417D01*
X153967207Y-47560395D01*
X153969554Y-47560131D01*
X154142479Y-47499622D01*
X154297604Y-47402151D01*
X154427151Y-47272604D01*
X154524622Y-47117479D01*
X154585131Y-46944554D01*
X154600500Y-46808153D01*
X154600499Y-45891848D01*
X154592654Y-45822215D01*
X154585132Y-45755450D01*
X154585131Y-45755446D01*
X154524622Y-45582521D01*
X154427151Y-45427396D01*
X154297604Y-45297849D01*
X154142479Y-45200378D01*
X154142478Y-45200377D01*
X154142477Y-45200377D01*
X153969548Y-45139867D01*
X153833157Y-45124500D01*
X152916845Y-45124500D01*
X152916841Y-45124501D01*
X152780450Y-45139867D01*
X152607520Y-45200378D01*
X152452395Y-45297849D01*
X152322849Y-45427395D01*
X152225377Y-45582522D01*
X152189599Y-45684769D01*
X152172054Y-45734914D01*
X152164867Y-45755453D01*
X152164602Y-45757804D01*
X152164007Y-45759219D01*
X152163317Y-45762242D01*
X152162787Y-45762121D01*
X152137529Y-45822215D01*
X152079931Y-45861765D01*
X152010094Y-45863896D01*
X151950191Y-45827933D01*
X151929001Y-45796313D01*
X151900370Y-45734914D01*
X151900367Y-45734908D01*
X151777376Y-45559259D01*
X151777371Y-45559253D01*
X151625745Y-45407627D01*
X151450090Y-45284631D01*
X151352919Y-45239320D01*
X151255747Y-45194008D01*
X151255743Y-45194007D01*
X151255739Y-45194005D01*
X151048624Y-45138509D01*
X151048620Y-45138508D01*
X151048619Y-45138508D01*
X151048618Y-45138507D01*
X151048613Y-45138507D01*
X150835002Y-45119819D01*
X150834998Y-45119819D01*
X150621386Y-45138507D01*
X150621375Y-45138509D01*
X150414260Y-45194005D01*
X150414251Y-45194009D01*
X150219910Y-45284631D01*
X150219908Y-45284632D01*
X150044259Y-45407623D01*
X150044253Y-45407628D01*
X149892628Y-45559253D01*
X149892623Y-45559259D01*
X149769632Y-45734908D01*
X149769631Y-45734910D01*
X149679009Y-45929251D01*
X149679005Y-45929260D01*
X149623509Y-46136375D01*
X149623507Y-46136386D01*
X149604819Y-46349998D01*
X149604819Y-46350001D01*
X149623507Y-46563613D01*
X149623509Y-46563624D01*
X149679005Y-46770739D01*
X149679007Y-46770743D01*
X149679008Y-46770747D01*
X149724320Y-46867919D01*
X149769631Y-46965090D01*
X149769632Y-46965091D01*
X149892627Y-47140745D01*
X150044255Y-47292373D01*
X150219909Y-47415368D01*
X150400592Y-47499622D01*
X150417740Y-47507618D01*
X150470179Y-47553790D01*
X150489331Y-47620984D01*
X150469115Y-47687865D01*
X150417740Y-47732382D01*
X150219910Y-47824631D01*
X150219908Y-47824632D01*
X150044259Y-47947623D01*
X150044253Y-47947628D01*
X149892628Y-48099253D01*
X149892623Y-48099259D01*
X149769632Y-48274908D01*
X149769631Y-48274910D01*
X149679009Y-48469251D01*
X149679005Y-48469260D01*
X149623509Y-48676375D01*
X149623507Y-48676386D01*
X149604819Y-48889998D01*
X149604819Y-48890001D01*
X149623507Y-49103613D01*
X149623509Y-49103624D01*
X149679005Y-49310739D01*
X149679007Y-49310743D01*
X149679008Y-49310747D01*
X149724320Y-49407919D01*
X149769631Y-49505090D01*
X149769632Y-49505091D01*
X149892627Y-49680745D01*
X150044255Y-49832373D01*
X150197866Y-49939933D01*
X150219909Y-49955368D01*
X150417740Y-50047618D01*
X150470179Y-50093790D01*
X150489331Y-50160984D01*
X150469115Y-50227865D01*
X150417740Y-50272382D01*
X150219910Y-50364631D01*
X150219908Y-50364632D01*
X150044259Y-50487623D01*
X150044253Y-50487628D01*
X149892628Y-50639253D01*
X149892623Y-50639259D01*
X149769632Y-50814908D01*
X149769631Y-50814910D01*
X149679009Y-51009251D01*
X149679005Y-51009260D01*
X149623509Y-51216375D01*
X149623507Y-51216386D01*
X149604819Y-51429998D01*
X149604819Y-51430001D01*
X149623507Y-51643613D01*
X149623509Y-51643624D01*
X149679005Y-51850739D01*
X149679007Y-51850743D01*
X149679008Y-51850747D01*
X149724320Y-51947919D01*
X149769631Y-52045090D01*
X149892627Y-52220745D01*
X150044254Y-52372372D01*
X150219909Y-52495368D01*
X150417740Y-52587618D01*
X150470179Y-52633790D01*
X150489331Y-52700984D01*
X150469115Y-52767865D01*
X150417740Y-52812382D01*
X150219910Y-52904631D01*
X150219908Y-52904632D01*
X150044259Y-53027623D01*
X150044253Y-53027628D01*
X149892628Y-53179253D01*
X149892623Y-53179259D01*
X149769632Y-53354908D01*
X149769631Y-53354910D01*
X149679009Y-53549251D01*
X149679005Y-53549260D01*
X149623509Y-53756375D01*
X149623507Y-53756386D01*
X149604819Y-53969998D01*
X149604819Y-53970001D01*
X149623507Y-54183613D01*
X149623509Y-54183624D01*
X149679005Y-54390739D01*
X149679007Y-54390743D01*
X149679008Y-54390747D01*
X149724320Y-54487919D01*
X149769631Y-54585090D01*
X149892627Y-54760745D01*
X150044254Y-54912372D01*
X150219909Y-55035368D01*
X150417740Y-55127618D01*
X150470179Y-55173790D01*
X150489331Y-55240984D01*
X150469115Y-55307865D01*
X150417740Y-55352382D01*
X150219910Y-55444631D01*
X150219908Y-55444632D01*
X150044259Y-55567623D01*
X150044253Y-55567628D01*
X149892628Y-55719253D01*
X149892623Y-55719259D01*
X149769632Y-55894908D01*
X149769631Y-55894910D01*
X149679009Y-56089251D01*
X149679005Y-56089260D01*
X149623509Y-56296375D01*
X149623507Y-56296386D01*
X149604819Y-56509998D01*
X149604819Y-56510001D01*
X149623507Y-56723613D01*
X149623509Y-56723624D01*
X149679005Y-56930739D01*
X149679007Y-56930743D01*
X149679008Y-56930747D01*
X149724320Y-57027919D01*
X149769631Y-57125090D01*
X149892627Y-57300745D01*
X150044254Y-57452372D01*
X150219909Y-57575368D01*
X150417740Y-57667618D01*
X150470179Y-57713790D01*
X150489331Y-57780984D01*
X150469115Y-57847865D01*
X150417740Y-57892382D01*
X150219910Y-57984631D01*
X150219908Y-57984632D01*
X150044259Y-58107623D01*
X150044253Y-58107628D01*
X149892628Y-58259253D01*
X149892623Y-58259259D01*
X149769632Y-58434908D01*
X149769631Y-58434910D01*
X149679009Y-58629251D01*
X149679005Y-58629260D01*
X149623509Y-58836375D01*
X149623507Y-58836386D01*
X149604819Y-59049998D01*
X149604819Y-59050001D01*
X149623507Y-59263613D01*
X149623509Y-59263624D01*
X149679005Y-59470739D01*
X149679007Y-59470743D01*
X149679008Y-59470747D01*
X149724320Y-59567919D01*
X149769631Y-59665090D01*
X149892627Y-59840745D01*
X150044254Y-59992372D01*
X150219909Y-60115368D01*
X150417740Y-60207618D01*
X150470179Y-60253790D01*
X150489331Y-60320984D01*
X150469115Y-60387865D01*
X150417740Y-60432382D01*
X150219910Y-60524631D01*
X150219908Y-60524632D01*
X150044259Y-60647623D01*
X150044253Y-60647628D01*
X149892628Y-60799253D01*
X149892623Y-60799259D01*
X149769632Y-60974908D01*
X149769631Y-60974910D01*
X149679009Y-61169251D01*
X149679005Y-61169260D01*
X149623509Y-61376375D01*
X149623507Y-61376386D01*
X149604819Y-61589998D01*
X149604819Y-61590001D01*
X149623507Y-61803613D01*
X149623509Y-61803624D01*
X149679005Y-62010739D01*
X149679007Y-62010743D01*
X149679008Y-62010747D01*
X149724320Y-62107919D01*
X149769631Y-62205090D01*
X149892627Y-62380745D01*
X150044254Y-62532372D01*
X150219909Y-62655368D01*
X150417740Y-62747618D01*
X150470179Y-62793790D01*
X150489331Y-62860984D01*
X150469115Y-62927865D01*
X150417740Y-62972382D01*
X150219910Y-63064631D01*
X150219908Y-63064632D01*
X150044259Y-63187623D01*
X150044253Y-63187628D01*
X149892628Y-63339253D01*
X149892623Y-63339259D01*
X149769632Y-63514908D01*
X149769631Y-63514910D01*
X149679009Y-63709251D01*
X149679005Y-63709260D01*
X149623509Y-63916375D01*
X149623507Y-63916386D01*
X149604819Y-64129998D01*
X149604819Y-64130001D01*
X149623507Y-64343613D01*
X149623509Y-64343624D01*
X149679005Y-64550739D01*
X149679007Y-64550743D01*
X149679008Y-64550747D01*
X149724320Y-64647919D01*
X149769631Y-64745090D01*
X149769632Y-64745091D01*
X149892627Y-64920745D01*
X150044255Y-65072373D01*
X150219909Y-65195368D01*
X150300020Y-65232724D01*
X150352460Y-65278896D01*
X150371612Y-65346089D01*
X150351397Y-65412970D01*
X150300021Y-65457488D01*
X150169970Y-65518132D01*
X150169968Y-65518133D01*
X149980051Y-65651114D01*
X149816114Y-65815051D01*
X149683133Y-66004968D01*
X149683132Y-66004970D01*
X149585152Y-66215090D01*
X149585148Y-66215099D01*
X149530247Y-66420000D01*
X145800499Y-66420000D01*
X145800499Y-65955143D01*
X145800499Y-65955136D01*
X145798508Y-65937965D01*
X145797586Y-65930012D01*
X145797585Y-65930010D01*
X145797585Y-65930009D01*
X145752206Y-65827235D01*
X145672765Y-65747794D01*
X145621520Y-65725167D01*
X145569992Y-65702415D01*
X145544865Y-65699500D01*
X144055143Y-65699500D01*
X144055117Y-65699502D01*
X144030012Y-65702413D01*
X144030008Y-65702415D01*
X143927235Y-65747793D01*
X143927234Y-65747794D01*
X143862181Y-65812848D01*
X143800858Y-65846333D01*
X143731166Y-65841349D01*
X143675233Y-65799477D01*
X143650816Y-65734013D01*
X143650500Y-65725167D01*
X143650500Y-50590176D01*
X143650502Y-50590132D01*
X143650502Y-50587971D01*
X143650694Y-50587315D01*
X143651637Y-50573422D01*
X143651640Y-50573400D01*
X143654653Y-50573810D01*
X143670157Y-50520923D01*
X143702088Y-50490479D01*
X143700662Y-50488628D01*
X143701224Y-50488195D01*
X143712202Y-50480835D01*
X143712560Y-50480495D01*
X143713639Y-50479872D01*
X143714788Y-50479102D01*
X143731441Y-50469464D01*
X143873652Y-50347082D01*
X143990632Y-50200394D01*
X144078301Y-50034515D01*
X144133603Y-49855230D01*
X144154610Y-49668789D01*
X144140589Y-49481692D01*
X144092030Y-49300464D01*
X144010624Y-49131424D01*
X143899211Y-48980464D01*
X143892063Y-48973832D01*
X143761676Y-48852851D01*
X143761675Y-48852850D01*
X143602812Y-48753029D01*
X143602809Y-48753028D01*
X143602808Y-48753027D01*
X143602809Y-48753027D01*
X143428167Y-48684486D01*
X143428153Y-48684482D01*
X143243811Y-48649603D01*
X143224434Y-48649581D01*
X143223194Y-48649500D01*
X143215892Y-48649500D01*
X138218366Y-48649500D01*
X138218196Y-48649450D01*
X138135077Y-48649500D01*
X138093342Y-48649500D01*
X138092959Y-48649524D01*
X138076261Y-48649534D01*
X138076258Y-48649534D01*
X137897734Y-48682173D01*
X137897731Y-48682173D01*
X137897731Y-48682174D01*
X137891621Y-48684486D01*
X137727986Y-48746405D01*
X137727980Y-48746408D01*
X137572575Y-48840131D01*
X137436564Y-48960294D01*
X137436561Y-48960298D01*
X137425931Y-48973818D01*
X137369021Y-49014352D01*
X137299230Y-49017682D01*
X137238718Y-48982753D01*
X137230996Y-48973842D01*
X137220340Y-48960294D01*
X137084371Y-48840190D01*
X137082318Y-48838952D01*
X136929022Y-48746494D01*
X136929020Y-48746493D01*
X136759350Y-48682259D01*
X136580908Y-48649585D01*
X136580897Y-48649584D01*
X136564392Y-48649568D01*
X136563340Y-48649500D01*
X136555939Y-48649500D01*
X136490195Y-48649500D01*
X136490138Y-48649499D01*
X136424302Y-48649480D01*
X136424300Y-48649480D01*
X136416408Y-48649478D01*
X136416072Y-48649500D01*
X132039489Y-48649500D01*
X132039124Y-48649476D01*
X132016652Y-48649483D01*
X132016546Y-48649452D01*
X131946008Y-48649500D01*
X131891946Y-48649500D01*
X131891379Y-48649536D01*
X131874852Y-48649547D01*
X131874851Y-48649548D01*
X131696938Y-48682026D01*
X131527725Y-48745874D01*
X131372698Y-48839024D01*
X131236887Y-48958449D01*
X131219290Y-48980694D01*
X131162258Y-49021057D01*
X131092458Y-49024179D01*
X131032051Y-48989069D01*
X131024786Y-48980684D01*
X131024610Y-48980461D01*
X131007172Y-48958414D01*
X131007168Y-48958410D01*
X131007166Y-48958408D01*
X130871314Y-48838952D01*
X130716235Y-48745797D01*
X130716226Y-48745793D01*
X130546956Y-48681964D01*
X130429282Y-48660520D01*
X130368975Y-48649530D01*
X130368974Y-48649529D01*
X130368973Y-48649529D01*
X130352462Y-48649523D01*
X130352088Y-48649500D01*
X130344452Y-48649500D01*
X124934108Y-48649500D01*
X124926838Y-48649500D01*
X124925592Y-48649581D01*
X124906189Y-48649603D01*
X124906187Y-48649603D01*
X124721846Y-48684482D01*
X124721832Y-48684486D01*
X124547191Y-48753027D01*
X124388323Y-48852851D01*
X124250791Y-48980461D01*
X124139376Y-49131423D01*
X124057970Y-49300462D01*
X124009410Y-49481695D01*
X123995389Y-49668788D01*
X124016395Y-49855220D01*
X124016396Y-49855227D01*
X124016397Y-49855230D01*
X124071699Y-50034515D01*
X124159368Y-50200394D01*
X124276348Y-50347082D01*
X124276349Y-50347083D01*
X124276353Y-50347087D01*
X124334768Y-50397357D01*
X124418559Y-50469464D01*
X124435283Y-50479144D01*
X124436433Y-50479914D01*
X124437447Y-50480499D01*
X124437695Y-50480759D01*
X124448726Y-50488146D01*
X124449288Y-50488578D01*
X124447445Y-50490975D01*
X124485686Y-50531044D01*
X124496048Y-50573716D01*
X124498360Y-50573401D01*
X124498363Y-50573423D01*
X124499288Y-50587054D01*
X124499497Y-50587915D01*
X124499497Y-50590132D01*
X124499500Y-50590177D01*
X124499500Y-65461192D01*
X124479815Y-65528231D01*
X124427011Y-65573986D01*
X124357853Y-65583930D01*
X124294297Y-65554905D01*
X124268113Y-65523193D01*
X124265191Y-65518132D01*
X124210489Y-65423386D01*
X123086614Y-64299511D01*
X123003764Y-64251677D01*
X122983888Y-64240201D01*
X122971780Y-64236957D01*
X122959673Y-64233713D01*
X122959670Y-64233712D01*
X122881390Y-64212737D01*
X122821729Y-64176372D01*
X122802483Y-64148233D01*
X122761019Y-64064963D01*
X122761019Y-64064962D01*
X122635318Y-63898507D01*
X122481171Y-63757984D01*
X122303828Y-63648177D01*
X122303827Y-63648176D01*
X122161609Y-63593081D01*
X122109327Y-63572827D01*
X121904293Y-63534500D01*
X121695707Y-63534500D01*
X121490673Y-63572827D01*
X121490670Y-63572827D01*
X121490670Y-63572828D01*
X121296172Y-63648176D01*
X121296171Y-63648177D01*
X121118827Y-63757985D01*
X120964683Y-63898505D01*
X120838981Y-64064961D01*
X120746007Y-64251677D01*
X120688923Y-64452308D01*
X120669678Y-64659999D01*
X120669678Y-64660000D01*
X120688923Y-64867691D01*
X120746007Y-65068322D01*
X120838981Y-65255038D01*
X120964683Y-65421494D01*
X121004167Y-65457488D01*
X121118829Y-65562016D01*
X121296172Y-65671823D01*
X121490673Y-65747173D01*
X121695707Y-65785500D01*
X121695710Y-65785500D01*
X121904290Y-65785500D01*
X121904293Y-65785500D01*
X122109327Y-65747173D01*
X122303828Y-65671823D01*
X122481171Y-65562016D01*
X122623739Y-65432048D01*
X122635317Y-65421494D01*
X122635317Y-65421493D01*
X122635318Y-65421493D01*
X122678121Y-65364812D01*
X122734227Y-65323177D01*
X122803939Y-65318484D01*
X122864755Y-65351858D01*
X123363181Y-65850284D01*
X123396666Y-65911607D01*
X123399500Y-65937965D01*
X123399500Y-66963034D01*
X123379815Y-67030073D01*
X123327011Y-67075828D01*
X123257853Y-67085772D01*
X123194297Y-67056747D01*
X123187819Y-67050715D01*
X122976616Y-66839513D01*
X122976614Y-66839511D01*
X122893764Y-66791677D01*
X122870292Y-66778125D01*
X122822077Y-66727557D01*
X122821293Y-66726009D01*
X122761019Y-66604963D01*
X122761019Y-66604962D01*
X122635318Y-66438507D01*
X122481171Y-66297984D01*
X122303828Y-66188177D01*
X122303827Y-66188176D01*
X122161609Y-66133081D01*
X122109327Y-66112827D01*
X121904293Y-66074500D01*
X121695707Y-66074500D01*
X121490673Y-66112827D01*
X121490670Y-66112827D01*
X121490670Y-66112828D01*
X121296172Y-66188176D01*
X121296171Y-66188177D01*
X121118827Y-66297985D01*
X120964683Y-66438505D01*
X120838981Y-66604961D01*
X120746007Y-66791677D01*
X120688923Y-66992308D01*
X120669678Y-67199999D01*
X120669678Y-67200000D01*
X120688923Y-67407691D01*
X120688923Y-67407693D01*
X120688924Y-67407696D01*
X120722286Y-67524951D01*
X120746007Y-67608322D01*
X120838981Y-67795038D01*
X120964683Y-67961494D01*
X121015552Y-68007867D01*
X121118829Y-68102016D01*
X121296172Y-68211823D01*
X121296175Y-68211824D01*
X121386866Y-68246958D01*
X121442268Y-68289531D01*
X121465859Y-68355297D01*
X121450148Y-68423378D01*
X121400124Y-68472157D01*
X121374167Y-68482360D01*
X121345097Y-68490149D01*
X121345090Y-68490152D01*
X121134970Y-68588132D01*
X121134968Y-68588133D01*
X120945051Y-68721114D01*
X120781114Y-68885051D01*
X120648133Y-69074968D01*
X120648132Y-69074970D01*
X120550152Y-69285090D01*
X120550148Y-69285099D01*
X120495247Y-69490000D01*
X117700500Y-69490000D01*
X117700500Y-62119999D01*
X120669678Y-62119999D01*
X120669678Y-62120000D01*
X120688923Y-62327691D01*
X120746007Y-62528322D01*
X120809268Y-62655367D01*
X120838981Y-62715038D01*
X120964682Y-62881493D01*
X121118829Y-63022016D01*
X121296172Y-63131823D01*
X121490673Y-63207173D01*
X121695707Y-63245500D01*
X121695710Y-63245500D01*
X121904290Y-63245500D01*
X121904293Y-63245500D01*
X122109327Y-63207173D01*
X122303828Y-63131823D01*
X122481171Y-63022016D01*
X122635318Y-62881493D01*
X122761019Y-62715038D01*
X122853994Y-62528319D01*
X122911076Y-62327696D01*
X122930322Y-62120000D01*
X122911076Y-61912304D01*
X122853994Y-61711681D01*
X122761019Y-61524962D01*
X122635318Y-61358507D01*
X122481171Y-61217984D01*
X122303828Y-61108177D01*
X122303827Y-61108176D01*
X122161609Y-61053081D01*
X122109327Y-61032827D01*
X121904293Y-60994500D01*
X121695707Y-60994500D01*
X121490673Y-61032827D01*
X121490670Y-61032827D01*
X121490670Y-61032828D01*
X121296172Y-61108176D01*
X121296171Y-61108177D01*
X121118827Y-61217985D01*
X120964683Y-61358505D01*
X120838981Y-61524961D01*
X120746007Y-61711677D01*
X120688923Y-61912308D01*
X120669678Y-62119999D01*
X117700500Y-62119999D01*
X117700500Y-46301953D01*
X117700561Y-46298058D01*
X117712151Y-45929251D01*
X117719123Y-45707399D01*
X117719609Y-45699661D01*
X117775040Y-45113261D01*
X117776017Y-45105538D01*
X117837187Y-44719326D01*
X117868154Y-44523805D01*
X117869604Y-44516203D01*
X117998100Y-43941342D01*
X118000029Y-43933835D01*
X118164361Y-43368200D01*
X118166743Y-43360869D01*
X118366274Y-42806650D01*
X118369124Y-42799449D01*
X118603053Y-42258872D01*
X118606356Y-42251852D01*
X118873764Y-41727036D01*
X118877504Y-41720234D01*
X119177333Y-41213250D01*
X119181488Y-41206703D01*
X119512560Y-40719545D01*
X119517134Y-40713251D01*
X119523164Y-40705478D01*
X119878114Y-40247878D01*
X119883077Y-40241878D01*
X120031161Y-40073910D01*
X120272608Y-39800042D01*
X120277910Y-39794397D01*
X120694397Y-39377910D01*
X120700042Y-39372608D01*
X121141880Y-38983074D01*
X121147881Y-38978112D01*
X121570022Y-38650666D01*
X121613259Y-38617127D01*
X121619545Y-38612560D01*
X122106703Y-38281488D01*
X122113250Y-38277333D01*
X122620234Y-37977504D01*
X122627036Y-37973764D01*
X123151852Y-37706356D01*
X123158872Y-37703053D01*
X123699449Y-37469124D01*
X123706650Y-37466274D01*
X124260869Y-37266743D01*
X124268200Y-37264361D01*
X124833835Y-37100029D01*
X124841342Y-37098100D01*
X125416203Y-36969604D01*
X125423805Y-36968154D01*
X126005544Y-36876016D01*
X126013261Y-36875040D01*
X126599661Y-36819609D01*
X126607399Y-36819123D01*
X127198036Y-36800561D01*
X127201931Y-36800500D01*
X127272391Y-36800500D01*
X127275142Y-36800314D01*
X147345525Y-36750511D01*
X147350237Y-36750592D01*
G37*
%TD.AperFunction*%
%TD*%
D18*
X124110000Y-91920000D03*
X125790000Y-91910000D03*
X127440000Y-91950000D03*
X127440000Y-93370000D03*
X124110000Y-93360000D03*
D19*
X122900000Y-87000000D03*
D18*
X125800000Y-93300000D03*
D19*
X122900000Y-85100000D03*
X122900000Y-83200000D03*
X150900000Y-77150000D03*
D18*
X121800000Y-62120000D03*
X121800000Y-64660000D03*
X121800000Y-67200000D03*
X121800000Y-69740000D03*
X121800000Y-72280000D03*
X153375000Y-46350000D03*
X150835000Y-46350000D03*
X153375000Y-48890000D03*
X150835000Y-48890000D03*
X153375000Y-51430000D03*
X150835000Y-51430000D03*
X153375000Y-53970000D03*
X150835000Y-53970000D03*
X153375000Y-56510000D03*
X150835000Y-56510000D03*
X153375000Y-59050000D03*
X150835000Y-59050000D03*
X153375000Y-61590000D03*
X150835000Y-61590000D03*
X153375000Y-64130000D03*
X150835000Y-64130000D03*
X153375000Y-66670000D03*
X150835000Y-66670000D03*
X153375000Y-69210000D03*
X150835000Y-69210000D03*
X153375000Y-82450000D03*
X150835000Y-82450000D03*
X153375000Y-84990000D03*
X150835000Y-84990000D03*
X153375000Y-87530000D03*
X150835000Y-87530000D03*
X153375000Y-90070000D03*
X150835000Y-90070000D03*
X153375000Y-92610000D03*
X150835000Y-92610000D03*
M02*
