%TF.GenerationSoftware,KiCad,Pcbnew,8.0.6*%
%TF.CreationDate,2024-11-11T21:44:25+01:00*%
%TF.ProjectId,Motor_Driver_carrier_board,4d6f746f-725f-4447-9269-7665725f6361,rev?*%
%TF.SameCoordinates,Original*%
%TF.FileFunction,Soldermask,Bot*%
%TF.FilePolarity,Negative*%
%FSLAX46Y46*%
G04 Gerber Fmt 4.6, Leading zero omitted, Abs format (unit mm)*
G04 Created by KiCad (PCBNEW 8.0.6) date 2024-11-11 21:44:25*
%MOMM*%
%LPD*%
G01*
G04 APERTURE LIST*
G04 Aperture macros list*
%AMRoundRect*
0 Rectangle with rounded corners*
0 $1 Rounding radius*
0 $2 $3 $4 $5 $6 $7 $8 $9 X,Y pos of 4 corners*
0 Add a 4 corners polygon primitive as box body*
4,1,4,$2,$3,$4,$5,$6,$7,$8,$9,$2,$3,0*
0 Add four circle primitives for the rounded corners*
1,1,$1+$1,$2,$3*
1,1,$1+$1,$4,$5*
1,1,$1+$1,$6,$7*
1,1,$1+$1,$8,$9*
0 Add four rect primitives between the rounded corners*
20,1,$1+$1,$2,$3,$4,$5,0*
20,1,$1+$1,$4,$5,$6,$7,0*
20,1,$1+$1,$6,$7,$8,$9,0*
20,1,$1+$1,$8,$9,$2,$3,0*%
G04 Aperture macros list end*
%ADD10C,1.853200*%
%ADD11RoundRect,0.412500X0.412500X-0.412500X0.412500X0.412500X-0.412500X0.412500X-0.412500X-0.412500X0*%
%ADD12C,1.650000*%
%ADD13R,1.400000X1.400000*%
G04 APERTURE END LIST*
D10*
%TO.C,J3*%
X121800000Y-62120000D03*
X121800000Y-64660000D03*
X121800000Y-67200000D03*
X121800000Y-69740000D03*
X121800000Y-72280000D03*
%TD*%
D11*
%TO.C,P2*%
X153375000Y-46350000D03*
D12*
X150835000Y-46350000D03*
X153375000Y-48890000D03*
X150835000Y-48890000D03*
X153375000Y-51430000D03*
X150835000Y-51430000D03*
X153375000Y-53970000D03*
X150835000Y-53970000D03*
X153375000Y-56510000D03*
X150835000Y-56510000D03*
X153375000Y-59050000D03*
X150835000Y-59050000D03*
X153375000Y-61590000D03*
X150835000Y-61590000D03*
X153375000Y-64130000D03*
X150835000Y-64130000D03*
X153375000Y-66670000D03*
X150835000Y-66670000D03*
X153375000Y-69210000D03*
X150835000Y-69210000D03*
D11*
X153375000Y-82450000D03*
D12*
X150835000Y-82450000D03*
X153375000Y-84990000D03*
X150835000Y-84990000D03*
X153375000Y-87530000D03*
X150835000Y-87530000D03*
X153375000Y-90070000D03*
X150835000Y-90070000D03*
X153375000Y-92610000D03*
X150835000Y-92610000D03*
%TD*%
D13*
%TO.C,GND*%
X144800000Y-74300000D03*
%TD*%
%TO.C,H2*%
X144800000Y-68600000D03*
%TD*%
%TO.C,5V*%
X144800000Y-72400000D03*
%TD*%
%TO.C,H1*%
X144800000Y-66700000D03*
%TD*%
%TO.C,H3*%
X144800000Y-70500000D03*
%TD*%
M02*
