%TF.GenerationSoftware,KiCad,Pcbnew,8.0.6*%
%TF.CreationDate,2024-11-14T20:58:14+01:00*%
%TF.ProjectId,Mainboard,4d61696e-626f-4617-9264-2e6b69636164,rev?*%
%TF.SameCoordinates,Original*%
%TF.FileFunction,Paste,Top*%
%TF.FilePolarity,Positive*%
%FSLAX46Y46*%
G04 Gerber Fmt 4.6, Leading zero omitted, Abs format (unit mm)*
G04 Created by KiCad (PCBNEW 8.0.6) date 2024-11-14 20:58:14*
%MOMM*%
%LPD*%
G01*
G04 APERTURE LIST*
G04 Aperture macros list*
%AMRoundRect*
0 Rectangle with rounded corners*
0 $1 Rounding radius*
0 $2 $3 $4 $5 $6 $7 $8 $9 X,Y pos of 4 corners*
0 Add a 4 corners polygon primitive as box body*
4,1,4,$2,$3,$4,$5,$6,$7,$8,$9,$2,$3,0*
0 Add four circle primitives for the rounded corners*
1,1,$1+$1,$2,$3*
1,1,$1+$1,$4,$5*
1,1,$1+$1,$6,$7*
1,1,$1+$1,$8,$9*
0 Add four rect primitives between the rounded corners*
20,1,$1+$1,$2,$3,$4,$5,0*
20,1,$1+$1,$4,$5,$6,$7,0*
20,1,$1+$1,$6,$7,$8,$9,0*
20,1,$1+$1,$8,$9,$2,$3,0*%
G04 Aperture macros list end*
%ADD10RoundRect,0.250000X0.412500X1.100000X-0.412500X1.100000X-0.412500X-1.100000X0.412500X-1.100000X0*%
%ADD11RoundRect,0.250000X-0.412500X-1.100000X0.412500X-1.100000X0.412500X1.100000X-0.412500X1.100000X0*%
%ADD12RoundRect,0.250000X0.450000X-0.350000X0.450000X0.350000X-0.450000X0.350000X-0.450000X-0.350000X0*%
%ADD13RoundRect,0.250000X0.350000X0.450000X-0.350000X0.450000X-0.350000X-0.450000X0.350000X-0.450000X0*%
%ADD14RoundRect,0.250000X-0.337500X-0.475000X0.337500X-0.475000X0.337500X0.475000X-0.337500X0.475000X0*%
%ADD15RoundRect,0.250000X0.475000X-0.337500X0.475000X0.337500X-0.475000X0.337500X-0.475000X-0.337500X0*%
%ADD16R,2.000000X3.500000*%
%ADD17RoundRect,0.250000X-0.475000X0.337500X-0.475000X-0.337500X0.475000X-0.337500X0.475000X0.337500X0*%
%ADD18RoundRect,0.250000X-1.100000X0.412500X-1.100000X-0.412500X1.100000X-0.412500X1.100000X0.412500X0*%
%ADD19R,0.575000X0.350000*%
%ADD20R,0.350000X0.575000*%
%ADD21RoundRect,0.250000X0.337500X0.475000X-0.337500X0.475000X-0.337500X-0.475000X0.337500X-0.475000X0*%
%ADD22R,0.830000X0.400000*%
%ADD23R,0.620000X0.400000*%
%ADD24R,1.850000X2.250000*%
%ADD25R,0.130000X0.050000*%
%ADD26RoundRect,0.250000X1.100000X-0.412500X1.100000X0.412500X-1.100000X0.412500X-1.100000X-0.412500X0*%
%ADD27R,0.997699X0.508000*%
%ADD28R,0.300000X0.670000*%
%ADD29R,1.200000X0.450000*%
G04 APERTURE END LIST*
D10*
%TO.C,C23*%
X198022500Y-139840000D03*
X194897500Y-139840000D03*
%TD*%
D11*
%TO.C,C13*%
X174235000Y-132490000D03*
X177360000Y-132490000D03*
%TD*%
D12*
%TO.C,R4*%
X168160000Y-139440000D03*
X168160000Y-137440000D03*
%TD*%
D13*
%TO.C,R1*%
X190050000Y-158780000D03*
X188050000Y-158780000D03*
%TD*%
D14*
%TO.C,C6*%
X170472500Y-147790000D03*
X172547500Y-147790000D03*
%TD*%
D15*
%TO.C,C2*%
X177760000Y-163122500D03*
X177760000Y-161047500D03*
%TD*%
D13*
%TO.C,R2*%
X171490000Y-158780000D03*
X169490000Y-158780000D03*
%TD*%
D12*
%TO.C,R3*%
X171660000Y-139440000D03*
X171660000Y-137440000D03*
%TD*%
D15*
%TO.C,C1*%
X196080000Y-163122500D03*
X196080000Y-161047500D03*
%TD*%
D14*
%TO.C,C10*%
X189045000Y-147610000D03*
X191120000Y-147610000D03*
%TD*%
D16*
%TO.C,L2*%
X189810000Y-131740000D03*
X198810000Y-131740000D03*
%TD*%
D14*
%TO.C,C26*%
X194287500Y-123450000D03*
X196362500Y-123450000D03*
%TD*%
D15*
%TO.C,C43*%
X165900000Y-133975000D03*
X165900000Y-131900000D03*
%TD*%
D17*
%TO.C,C12*%
X167230000Y-119082500D03*
X167230000Y-121157500D03*
%TD*%
D18*
%TO.C,C24*%
X198900000Y-120412500D03*
X198900000Y-123537500D03*
%TD*%
D15*
%TO.C,C4*%
X174670000Y-163122500D03*
X174670000Y-161047500D03*
%TD*%
D19*
%TO.C,IC3*%
X193562000Y-119462000D03*
X193562000Y-119962000D03*
X193562000Y-120462000D03*
X193562000Y-120962000D03*
D20*
X194225000Y-121124000D03*
X194725000Y-121124000D03*
X195225000Y-121124000D03*
D19*
X195888000Y-120962000D03*
X195888000Y-120462000D03*
X195888000Y-119962000D03*
X195888000Y-119462000D03*
D20*
X195225000Y-119300000D03*
X194725000Y-119300000D03*
X194225000Y-119300000D03*
%TD*%
D21*
%TO.C,C22*%
X191510000Y-140590000D03*
X189435000Y-140590000D03*
%TD*%
D11*
%TO.C,C9*%
X170535000Y-150500000D03*
X173660000Y-150500000D03*
%TD*%
D22*
%TO.C,Q1*%
X188641000Y-153960000D03*
X188641000Y-154610000D03*
X188641000Y-155260000D03*
X188641000Y-155910000D03*
D23*
X191815000Y-155910000D03*
X191815000Y-155260000D03*
X191815000Y-154610000D03*
X191815000Y-153960000D03*
D24*
X190580000Y-154935000D03*
D25*
X191440000Y-156085000D03*
X191440000Y-153785000D03*
%TD*%
D11*
%TO.C,C7*%
X189127500Y-150360000D03*
X192252500Y-150360000D03*
%TD*%
D26*
%TO.C,C11*%
X181690000Y-163647500D03*
X181690000Y-160522500D03*
%TD*%
D11*
%TO.C,C28*%
X174255000Y-135940000D03*
X177380000Y-135940000D03*
%TD*%
D21*
%TO.C,C27*%
X176255000Y-138990000D03*
X174180000Y-138990000D03*
%TD*%
D17*
%TO.C,C25*%
X201850000Y-120987500D03*
X201850000Y-123062500D03*
%TD*%
D14*
%TO.C,C44*%
X168600000Y-129625000D03*
X170675000Y-129625000D03*
%TD*%
D27*
%TO.C,U2*%
X171160351Y-133940001D03*
X171160351Y-132990000D03*
X171160351Y-132039999D03*
X168410049Y-132039999D03*
X168410049Y-133940001D03*
%TD*%
D28*
%TO.C,IC6*%
X189527500Y-145130000D03*
X190027500Y-145130000D03*
X190527500Y-145130000D03*
X191027500Y-145130000D03*
X191027500Y-143650000D03*
X190527500Y-143650000D03*
X190027500Y-143650000D03*
X189527500Y-143650000D03*
%TD*%
D29*
%TO.C,IC1*%
X190040000Y-162905000D03*
X190040000Y-162255000D03*
X190040000Y-161605000D03*
X190040000Y-160955000D03*
X187540000Y-160955000D03*
X187540000Y-161605000D03*
X187540000Y-162255000D03*
X187540000Y-162905000D03*
%TD*%
D26*
%TO.C,C8*%
X200030000Y-163647500D03*
X200030000Y-160522500D03*
%TD*%
D12*
%TO.C,R8*%
X194760000Y-145690000D03*
X194760000Y-143690000D03*
%TD*%
%TO.C,R9*%
X198060000Y-145690000D03*
X198060000Y-143690000D03*
%TD*%
D22*
%TO.C,Q2*%
X170046000Y-153960000D03*
X170046000Y-154610000D03*
X170046000Y-155260000D03*
X170046000Y-155910000D03*
D23*
X173220000Y-155910000D03*
X173220000Y-155260000D03*
X173220000Y-154610000D03*
X173220000Y-153960000D03*
D24*
X171985000Y-154935000D03*
D25*
X172845000Y-156085000D03*
X172845000Y-153785000D03*
%TD*%
D29*
%TO.C,IC2*%
X171520000Y-162905000D03*
X171520000Y-162255000D03*
X171520000Y-161605000D03*
X171520000Y-160955000D03*
X169020000Y-160955000D03*
X169020000Y-161605000D03*
X169020000Y-162255000D03*
X169020000Y-162905000D03*
%TD*%
D28*
%TO.C,IC7*%
X170960000Y-145290000D03*
X171460000Y-145290000D03*
X171960000Y-145290000D03*
X172460000Y-145290000D03*
X172460000Y-143810000D03*
X171960000Y-143810000D03*
X171460000Y-143810000D03*
X170960000Y-143810000D03*
%TD*%
D15*
%TO.C,C3*%
X192920000Y-163122500D03*
X192920000Y-161047500D03*
%TD*%
M02*
