M48
METRIC,TZ
T1C0.300
T2C0.600
T3C0.600
T4C0.800
T5C0.990
T6C1.000
T7C1.020
T8C1.650
T9C2.700
%
G90
G05
T1
X107500Y-138500
X107600Y-136300
X107600Y-140000
X113474Y-151126
X114600Y-153100
X115600Y-146450
X122800Y-171990
X125668Y-169811
X125871Y-175421
X126475Y-169770
X128225Y-150575
X129440Y-82900
X130214Y-153538
X131310Y-160620
X131310Y-162610
X132950Y-146750
X133260Y-151450
X134604Y-152901
X134925Y-158940
X135200Y-180500
X135311Y-177428
X135524Y-162176
X136200Y-163900
X136400Y-172200
X136470Y-174360
X136600Y-168790
X136600Y-169590
X136800Y-161300
X136800Y-162100
X136824Y-160476
X137100Y-146740
X137849Y-168300
X138024Y-160300
X138024Y-161100
X138024Y-161900
X138500Y-175400
X138521Y-177221
X139100Y-183300
X140500Y-184200
X141880Y-125020
X144350Y-175640
X145540Y-148923
X146100Y-177260
X146150Y-125050
X146600Y-122330
X146630Y-123330
X147700Y-84050
X147775Y-89525
X147980Y-106350
X148025Y-94150
X148470Y-138660
X148470Y-148400
X149710Y-103900
X149757Y-88843
X149901Y-94439
X150070Y-138340
X150730Y-142780
X151110Y-157180
X151574Y-176626
X151600Y-96110
X151607Y-175826
X151650Y-182544
X152143Y-161884
X152275Y-179447
X153100Y-91430
X157575Y-163500
X157600Y-161650
X157925Y-101094
X158050Y-108475
X158200Y-156660
X158200Y-158660
X158225Y-91025
X158250Y-159910
X158340Y-155000
X159075Y-119410
X159775Y-177896
X160225Y-102524
X160375Y-172325
X160525Y-174550
X162058Y-155061
X164200Y-98420
X164400Y-162225
X164725Y-164800
X164830Y-99700
X165040Y-123760
X165581Y-124994
X166430Y-98600
X169390Y-118260
X170120Y-133020
X170687Y-131068
X171200Y-115300
X171916Y-114942
X172350Y-120650
X174500Y-157200
X175300Y-156400
X175896Y-161372
X175900Y-118500
X175957Y-158043
X176003Y-157244
X176143Y-119389
X176533Y-161856
X176571Y-128488
X181300Y-113200
X181300Y-114000
X182831Y-157086
X182840Y-157900
X183810Y-159104
X186111Y-119559
X188560Y-101540
X188610Y-103170
X188680Y-99720
X191400Y-159300
X193304Y-148407
X193876Y-117735
X193904Y-149400
X193904Y-151400
X194386Y-120313
X194978Y-117588
X195540Y-118790
X197851Y-148132
X197935Y-147200
X198200Y-125200
X198200Y-142350
X199600Y-114200
X199870Y-112440
X200163Y-134537
X201050Y-145800
X201426Y-144576
X201634Y-135136
X201850Y-152000
X202535Y-140400
X202535Y-141200
X202535Y-142150
X204900Y-138100
X205200Y-159300
X205250Y-107040
X205400Y-109010
X209526Y-176001
X209725Y-179475
X210088Y-174163
X210400Y-134000
X210445Y-123945
X210710Y-107040
X210710Y-108520
X210990Y-125300
X211030Y-136970
X211152Y-179007
X211718Y-178442
X212350Y-155160
X212785Y-160700
X212870Y-184170
X213178Y-166774
X215145Y-138507
X215390Y-109120
X215398Y-150170
X215398Y-174150
X217512Y-161584
X217680Y-111150
X218302Y-161460
X218520Y-172830
X218762Y-155207
X218950Y-152300
X219543Y-106737
X220050Y-161300
X221251Y-122516
X222579Y-128488
X224050Y-182130
X224220Y-180680
X225614Y-131251
X227000Y-161800
X227100Y-162941
X227100Y-163790
X230105Y-114130
X230810Y-111560
X232663Y-116611
X232920Y-159400
X233690Y-111530
X234341Y-114392
X234485Y-113605
X234521Y-105391
X234700Y-168660
X234890Y-108970
X234959Y-112565
X235150Y-103630
X235676Y-169996
X236304Y-170492
X236354Y-108354
X236546Y-146560
X236550Y-123480
X236570Y-151730
X236650Y-157150
X236904Y-171098
X238150Y-159810
X241140Y-162240
X243440Y-146410
X243747Y-162189
X244300Y-99630
X244375Y-162685
X245017Y-163266
X247579Y-161389
X253220Y-102880
X255930Y-103480
X257750Y-104330
X257980Y-107810
X258776Y-107891
X259440Y-146660
X259575Y-107857
X262850Y-143220
T2
X147170Y-119940
X147400Y-126090
X158010Y-171010
X159050Y-169120
X159080Y-109470
X159140Y-173190
X165200Y-175810
X166378Y-129876
X167600Y-175800
X168567Y-122878
X168567Y-140983
X172155Y-128773
X173480Y-145300
X175460Y-150690
X179410Y-161040
X180910Y-152350
X180910Y-153390
X180910Y-154380
X181054Y-132096
X181800Y-152350
X181800Y-153390
X181800Y-154380
X191410Y-161940
X192000Y-148300
X196400Y-146600
X197360Y-161040
X198060Y-160540
X198436Y-121975
X200110Y-139840
X201130Y-115710
X211320Y-184830
X212050Y-131340
X212490Y-135780
X218840Y-127490
X218870Y-118550
X220830Y-132340
X223740Y-110830
X227025Y-130775
X227060Y-131950
X227800Y-132825
X229025Y-132825
X229575Y-128450
X230400Y-129200
X230525Y-127475
X231225Y-130050
X231325Y-128450
X231530Y-126840
X232125Y-131125
X232200Y-127730
X232400Y-129450
X232975Y-132000
X233110Y-128580
X233225Y-130275
X234500Y-126425
X234625Y-128525
X234700Y-130950
X261200Y-109220
T4
X110500Y-115250
X110500Y-117250
X110500Y-119250
X110500Y-121250
X110500Y-123250
X110500Y-125250
X110500Y-131000
X110500Y-133000
X110500Y-135000
X110500Y-137000
X110500Y-139000
X110500Y-141000
X265750Y-115250
X265750Y-117250
X265750Y-119250
X265750Y-121250
X265750Y-123250
X265750Y-125250
X265750Y-131000
X265750Y-133000
X265750Y-135000
X265750Y-137000
X265750Y-139000
X265750Y-141000
T5
X144250Y-163120
X145740Y-152850
X145860Y-151090
X145910Y-163110
X147400Y-151040
X147610Y-152850
T6
X111300Y-101420
X111300Y-103960
X111300Y-106500
X111300Y-109040
X111310Y-148130
X111310Y-150670
X111310Y-153210
X111310Y-155750
X121670Y-89530
X121670Y-92070
X121670Y-94610
X121670Y-97150
X153168Y-74210
X153168Y-76750
X153168Y-102150
X153168Y-104690
X153168Y-107230
X153168Y-109770
X153168Y-112310
X153168Y-114850
X153168Y-117390
X153168Y-119930
X153168Y-122470
X153168Y-125010
X153168Y-127550
X153168Y-130090
X153168Y-132630
X153168Y-135170
X153168Y-137710
X153168Y-140250
X153168Y-142790
X153168Y-145330
X153168Y-147870
X153168Y-150410
X153168Y-152950
X153168Y-155490
X153168Y-158030
X153168Y-160570
X153168Y-163110
X153168Y-165650
X153168Y-168190
X153168Y-170730
X153168Y-173270
X153168Y-175810
X153168Y-178350
X153168Y-180890
X153168Y-183430
X153168Y-185970
X153168Y-188510
X153168Y-191050
X155708Y-102150
X155708Y-104690
X155708Y-107230
X155708Y-109770
X155708Y-112310
X155708Y-114850
X155708Y-117390
X155708Y-119930
X155708Y-122470
X155708Y-125010
X155708Y-127550
X155708Y-130090
X155708Y-132630
X155708Y-135170
X155708Y-137710
X155708Y-140250
X155708Y-142790
X155708Y-145330
X155708Y-147870
X155708Y-150410
X155708Y-152950
X155708Y-155490
X155708Y-158030
X155708Y-160570
X155708Y-163110
X155708Y-165650
X155708Y-168190
X155708Y-170730
X155708Y-173270
X155708Y-175810
X155708Y-178350
X155708Y-180890
X155708Y-183430
X155708Y-185970
X155708Y-188510
X155708Y-191050
X160788Y-112310
X160788Y-114850
X160788Y-117390
X160788Y-119930
X160788Y-122470
X160788Y-125010
X160788Y-127550
X160788Y-130090
X160788Y-135170
X160788Y-137710
X160788Y-140250
X160788Y-142790
X160788Y-145330
X160788Y-147870
X160788Y-150410
X160788Y-152950
X160788Y-155490
X160788Y-158030
X160788Y-160570
X160788Y-163110
X160788Y-165650
X160788Y-168190
X160788Y-170730
X163328Y-112310
X163328Y-114850
X163328Y-117390
X163328Y-119930
X163328Y-122470
X163328Y-125010
X163328Y-127550
X163328Y-130090
X163328Y-135170
X163328Y-137710
X163328Y-140250
X163328Y-142790
X163328Y-145330
X163328Y-147870
X163328Y-150410
X163328Y-152950
X163328Y-155490
X163328Y-158030
X163328Y-160570
X163328Y-163110
X163328Y-165650
X163328Y-168190
X163328Y-170730
X206508Y-103166
X206508Y-105706
X206508Y-108246
X206508Y-110786
X206508Y-113326
X206508Y-115866
X206508Y-118406
X206508Y-120946
X206508Y-123486
X206508Y-126026
X206508Y-130090
X206508Y-132630
X206508Y-135170
X206508Y-137710
X206508Y-140250
X206508Y-142790
X206508Y-145330
X206508Y-147870
X206508Y-150410
X206508Y-152950
X206508Y-155490
X206508Y-158030
X206508Y-160570
X206508Y-163110
X206508Y-165650
X206508Y-168190
X206508Y-170730
X209048Y-103166
X209048Y-105706
X209048Y-108246
X209048Y-110786
X209048Y-113326
X209048Y-115866
X209048Y-118406
X209048Y-120946
X209048Y-123486
X209048Y-126026
X209048Y-130090
X209048Y-132630
X209048Y-135170
X209048Y-137710
X209048Y-140250
X209048Y-142790
X209048Y-145330
X209048Y-147870
X209048Y-150410
X209048Y-152950
X209048Y-155490
X209048Y-158030
X209048Y-160570
X209048Y-163110
X209048Y-165650
X209048Y-168190
X209048Y-170730
X214128Y-102170
X214128Y-104710
X214128Y-107250
X214128Y-109790
X214128Y-112330
X214128Y-114870
X214128Y-117410
X214128Y-119950
X214128Y-122490
X214128Y-125030
X214128Y-127570
X214128Y-130110
X214128Y-132650
X214128Y-135190
X214128Y-137730
X214128Y-140270
X214128Y-142810
X214128Y-145350
X214128Y-147890
X214128Y-150430
X214128Y-152970
X214128Y-155510
X214128Y-158050
X214128Y-160590
X214128Y-163130
X214128Y-165670
X214128Y-168210
X214128Y-170750
X214128Y-173290
X214128Y-175830
X214128Y-178370
X214128Y-180910
X214128Y-183450
X214128Y-185990
X214128Y-188530
X214128Y-191070
X216668Y-74210
X216668Y-76750
X216668Y-102170
X216668Y-104710
X216668Y-107250
X216668Y-109790
X216668Y-112330
X216668Y-114870
X216668Y-117410
X216668Y-119950
X216668Y-122490
X216668Y-125030
X216668Y-127570
X216668Y-130110
X216668Y-132650
X216668Y-135190
X216668Y-137730
X216668Y-140270
X216668Y-142810
X216668Y-145350
X216668Y-147890
X216668Y-150430
X216668Y-152970
X216668Y-155510
X216668Y-158050
X216668Y-160590
X216668Y-163130
X216668Y-165670
X216668Y-168210
X216668Y-170750
X216668Y-173290
X216668Y-175830
X216668Y-178370
X216668Y-180910
X216668Y-183450
X216668Y-185990
X216668Y-188530
X216668Y-191070
X264250Y-101450
X264250Y-103990
X264250Y-106530
X264250Y-109070
X264500Y-146630
X264500Y-149170
X264500Y-151710
X264500Y-154250
T7
X119500Y-155650
X119500Y-158190
X119500Y-160730
X119500Y-163270
X119500Y-165810
X119500Y-168350
X129167Y-155668
X129167Y-158208
X129167Y-160748
X129167Y-163288
X129167Y-165828
X129167Y-168368
X133460Y-155640
X133460Y-158180
X133460Y-160720
X133460Y-163260
X133460Y-165800
X133460Y-168340
X133460Y-173628
X133460Y-176168
X133460Y-178708
X133460Y-181248
X133460Y-183788
X133460Y-186328
X140340Y-135350
X140340Y-137890
X140340Y-140430
X140340Y-142970
X140340Y-145510
X140340Y-148050
X140340Y-150590
X140340Y-153130
X140340Y-155670
X140340Y-158210
X140340Y-171450
X140340Y-173990
X140340Y-176530
X140340Y-179070
X140340Y-181610
X140575Y-69865
X140575Y-72405
X140575Y-74945
X140575Y-77485
X140575Y-80025
X140575Y-93265
X140575Y-95805
X140575Y-98345
X140575Y-100885
X140575Y-103425
X140575Y-105965
X140575Y-108505
X140575Y-111045
X140575Y-113585
X140575Y-116125
X142880Y-135350
X142880Y-137890
X142880Y-140430
X142880Y-142970
X142880Y-145510
X142880Y-148050
X142880Y-150590
X142880Y-153130
X142880Y-155670
X142880Y-158210
X142880Y-171450
X142880Y-173990
X142880Y-176530
X142880Y-179070
X142880Y-181610
X143115Y-69865
X143115Y-72405
X143115Y-74945
X143115Y-77485
X143115Y-80025
X143115Y-93265
X143115Y-95805
X143115Y-98345
X143115Y-100885
X143115Y-103425
X143115Y-105965
X143115Y-108505
X143115Y-111045
X143115Y-113585
X143115Y-116125
X226430Y-72050
X226430Y-74590
X226430Y-77130
X226430Y-79670
X226430Y-82210
X226430Y-84750
X226430Y-87290
X226430Y-89830
X226430Y-92370
X226430Y-94910
X226430Y-108150
X226430Y-110690
X226430Y-113230
X226430Y-115770
X226430Y-118310
X226460Y-135190
X226460Y-137730
X226460Y-140270
X226460Y-142810
X226460Y-145350
X226460Y-147890
X226460Y-150430
X226460Y-152970
X226460Y-155510
X226460Y-158050
X226460Y-171290
X226460Y-173830
X226460Y-176370
X226460Y-178910
X226460Y-181450
X228970Y-72050
X228970Y-74590
X228970Y-77130
X228970Y-79670
X228970Y-82210
X228970Y-84750
X228970Y-87290
X228970Y-89830
X228970Y-92370
X228970Y-94910
X228970Y-108150
X228970Y-110690
X228970Y-113230
X228970Y-115770
X228970Y-118310
X229000Y-135190
X229000Y-137730
X229000Y-140270
X229000Y-142810
X229000Y-145350
X229000Y-147890
X229000Y-150430
X229000Y-152970
X229000Y-155510
X229000Y-158050
X229000Y-171290
X229000Y-173830
X229000Y-176370
X229000Y-178910
X229000Y-181450
X238600Y-147468
X238600Y-150008
X238600Y-152548
X238600Y-155088
X238600Y-157628
X238630Y-88520
X238630Y-91060
X238630Y-93600
X238630Y-96140
X238630Y-98680
X238630Y-111920
X238630Y-114460
X238630Y-117000
X238630Y-119540
X238630Y-122080
X238630Y-124620
X238630Y-127160
X238630Y-129700
X238630Y-132240
X238630Y-134780
X241140Y-147468
X241140Y-150008
X241140Y-152548
X241140Y-155088
X241140Y-157628
X241170Y-88520
X241170Y-91060
X241170Y-93600
X241170Y-96140
X241170Y-98680
X241170Y-111920
X241170Y-114460
X241170Y-117000
X241170Y-119540
X241170Y-122080
X241170Y-124620
X241170Y-127160
X241170Y-129700
X241170Y-132240
X241170Y-134780
T8
X122000Y-107590
X122000Y-111550
X122000Y-115510
X122000Y-119470
X122000Y-123430
X122000Y-131510
X122000Y-135470
X122000Y-139430
X122000Y-143390
X122000Y-147350
X250650Y-82550
X250650Y-86510
X250650Y-90470
X250650Y-94430
X250650Y-98390
X254750Y-108660
X254750Y-112620
X254750Y-116580
X254750Y-120540
X254750Y-124500
X254750Y-132580
X254750Y-136540
X254750Y-140500
X254750Y-144460
X254750Y-148420
T9
X172330Y-167640
X179530Y-167640
X191340Y-167640
X198540Y-167640
T3
G00X169180Y-173090
M15
G01X169180Y-174190
M16
G05
G00X182680Y-173090
M15
G01X182680Y-174190
M16
G05
G00X188190Y-173090
M15
G01X188190Y-174190
M16
G05
G00X201690Y-173090
M15
G01X201690Y-174190
M16
G05
M30
