%TF.GenerationSoftware,KiCad,Pcbnew,8.0.6*%
%TF.CreationDate,2024-11-14T20:58:14+01:00*%
%TF.ProjectId,Mainboard,4d61696e-626f-4617-9264-2e6b69636164,rev?*%
%TF.SameCoordinates,Original*%
%TF.FileFunction,Legend,Bot*%
%TF.FilePolarity,Positive*%
%FSLAX46Y46*%
G04 Gerber Fmt 4.6, Leading zero omitted, Abs format (unit mm)*
G04 Created by KiCad (PCBNEW 8.0.6) date 2024-11-14 20:58:14*
%MOMM*%
%LPD*%
G01*
G04 APERTURE LIST*
%ADD10C,0.050000*%
%ADD11C,0.100000*%
%ADD12C,0.254000*%
%ADD13C,0.150000*%
%ADD14C,0.200000*%
%ADD15C,0.127000*%
%ADD16C,0.120000*%
%ADD17C,0.350000*%
%ADD18O,0.600000X1.700000*%
G04 APERTURE END LIST*
D10*
X250206153Y-123980019D02*
X250253772Y-123956209D01*
X250253772Y-123956209D02*
X250325201Y-123956209D01*
X250325201Y-123956209D02*
X250396629Y-123980019D01*
X250396629Y-123980019D02*
X250444248Y-124027638D01*
X250444248Y-124027638D02*
X250468058Y-124075257D01*
X250468058Y-124075257D02*
X250491867Y-124170495D01*
X250491867Y-124170495D02*
X250491867Y-124241923D01*
X250491867Y-124241923D02*
X250468058Y-124337161D01*
X250468058Y-124337161D02*
X250444248Y-124384780D01*
X250444248Y-124384780D02*
X250396629Y-124432400D01*
X250396629Y-124432400D02*
X250325201Y-124456209D01*
X250325201Y-124456209D02*
X250277582Y-124456209D01*
X250277582Y-124456209D02*
X250206153Y-124432400D01*
X250206153Y-124432400D02*
X250182344Y-124408590D01*
X250182344Y-124408590D02*
X250182344Y-124241923D01*
X250182344Y-124241923D02*
X250277582Y-124241923D01*
X249968058Y-124456209D02*
X249968058Y-123956209D01*
X249968058Y-123956209D02*
X249682344Y-124456209D01*
X249682344Y-124456209D02*
X249682344Y-123956209D01*
X249444248Y-124456209D02*
X249444248Y-123956209D01*
X249444248Y-123956209D02*
X249325200Y-123956209D01*
X249325200Y-123956209D02*
X249253772Y-123980019D01*
X249253772Y-123980019D02*
X249206153Y-124027638D01*
X249206153Y-124027638D02*
X249182343Y-124075257D01*
X249182343Y-124075257D02*
X249158534Y-124170495D01*
X249158534Y-124170495D02*
X249158534Y-124241923D01*
X249158534Y-124241923D02*
X249182343Y-124337161D01*
X249182343Y-124337161D02*
X249206153Y-124384780D01*
X249206153Y-124384780D02*
X249253772Y-124432400D01*
X249253772Y-124432400D02*
X249325200Y-124456209D01*
X249325200Y-124456209D02*
X249444248Y-124456209D01*
X250468058Y-120696209D02*
X250468058Y-120196209D01*
X250468058Y-120196209D02*
X250301391Y-120553352D01*
X250301391Y-120553352D02*
X250134725Y-120196209D01*
X250134725Y-120196209D02*
X250134725Y-120696209D01*
X249920438Y-120243828D02*
X249896629Y-120220019D01*
X249896629Y-120220019D02*
X249849010Y-120196209D01*
X249849010Y-120196209D02*
X249729962Y-120196209D01*
X249729962Y-120196209D02*
X249682343Y-120220019D01*
X249682343Y-120220019D02*
X249658534Y-120243828D01*
X249658534Y-120243828D02*
X249634724Y-120291447D01*
X249634724Y-120291447D02*
X249634724Y-120339066D01*
X249634724Y-120339066D02*
X249658534Y-120410495D01*
X249658534Y-120410495D02*
X249944248Y-120696209D01*
X249944248Y-120696209D02*
X249634724Y-120696209D01*
X249539487Y-120743828D02*
X249158534Y-120743828D01*
X248944249Y-120196209D02*
X248849011Y-120196209D01*
X248849011Y-120196209D02*
X248801392Y-120220019D01*
X248801392Y-120220019D02*
X248753773Y-120267638D01*
X248753773Y-120267638D02*
X248729963Y-120362876D01*
X248729963Y-120362876D02*
X248729963Y-120529542D01*
X248729963Y-120529542D02*
X248753773Y-120624780D01*
X248753773Y-120624780D02*
X248801392Y-120672400D01*
X248801392Y-120672400D02*
X248849011Y-120696209D01*
X248849011Y-120696209D02*
X248944249Y-120696209D01*
X248944249Y-120696209D02*
X248991868Y-120672400D01*
X248991868Y-120672400D02*
X249039487Y-120624780D01*
X249039487Y-120624780D02*
X249063296Y-120529542D01*
X249063296Y-120529542D02*
X249063296Y-120362876D01*
X249063296Y-120362876D02*
X249039487Y-120267638D01*
X249039487Y-120267638D02*
X248991868Y-120220019D01*
X248991868Y-120220019D02*
X248944249Y-120196209D01*
X248515677Y-120196209D02*
X248515677Y-120600971D01*
X248515677Y-120600971D02*
X248491867Y-120648590D01*
X248491867Y-120648590D02*
X248468058Y-120672400D01*
X248468058Y-120672400D02*
X248420439Y-120696209D01*
X248420439Y-120696209D02*
X248325201Y-120696209D01*
X248325201Y-120696209D02*
X248277582Y-120672400D01*
X248277582Y-120672400D02*
X248253772Y-120648590D01*
X248253772Y-120648590D02*
X248229963Y-120600971D01*
X248229963Y-120600971D02*
X248229963Y-120196209D01*
X248063295Y-120196209D02*
X247777581Y-120196209D01*
X247920438Y-120696209D02*
X247920438Y-120196209D01*
X247658534Y-120196209D02*
X247349010Y-120196209D01*
X247349010Y-120196209D02*
X247515677Y-120386685D01*
X247515677Y-120386685D02*
X247444248Y-120386685D01*
X247444248Y-120386685D02*
X247396629Y-120410495D01*
X247396629Y-120410495D02*
X247372820Y-120434304D01*
X247372820Y-120434304D02*
X247349010Y-120481923D01*
X247349010Y-120481923D02*
X247349010Y-120600971D01*
X247349010Y-120600971D02*
X247372820Y-120648590D01*
X247372820Y-120648590D02*
X247396629Y-120672400D01*
X247396629Y-120672400D02*
X247444248Y-120696209D01*
X247444248Y-120696209D02*
X247587105Y-120696209D01*
X247587105Y-120696209D02*
X247634724Y-120672400D01*
X247634724Y-120672400D02*
X247658534Y-120648590D01*
X250468058Y-112976209D02*
X250468058Y-112476209D01*
X250468058Y-112476209D02*
X250301391Y-112833352D01*
X250301391Y-112833352D02*
X250134725Y-112476209D01*
X250134725Y-112476209D02*
X250134725Y-112976209D01*
X249920438Y-112523828D02*
X249896629Y-112500019D01*
X249896629Y-112500019D02*
X249849010Y-112476209D01*
X249849010Y-112476209D02*
X249729962Y-112476209D01*
X249729962Y-112476209D02*
X249682343Y-112500019D01*
X249682343Y-112500019D02*
X249658534Y-112523828D01*
X249658534Y-112523828D02*
X249634724Y-112571447D01*
X249634724Y-112571447D02*
X249634724Y-112619066D01*
X249634724Y-112619066D02*
X249658534Y-112690495D01*
X249658534Y-112690495D02*
X249944248Y-112976209D01*
X249944248Y-112976209D02*
X249634724Y-112976209D01*
X249539487Y-113023828D02*
X249158534Y-113023828D01*
X248944249Y-112476209D02*
X248849011Y-112476209D01*
X248849011Y-112476209D02*
X248801392Y-112500019D01*
X248801392Y-112500019D02*
X248753773Y-112547638D01*
X248753773Y-112547638D02*
X248729963Y-112642876D01*
X248729963Y-112642876D02*
X248729963Y-112809542D01*
X248729963Y-112809542D02*
X248753773Y-112904780D01*
X248753773Y-112904780D02*
X248801392Y-112952400D01*
X248801392Y-112952400D02*
X248849011Y-112976209D01*
X248849011Y-112976209D02*
X248944249Y-112976209D01*
X248944249Y-112976209D02*
X248991868Y-112952400D01*
X248991868Y-112952400D02*
X249039487Y-112904780D01*
X249039487Y-112904780D02*
X249063296Y-112809542D01*
X249063296Y-112809542D02*
X249063296Y-112642876D01*
X249063296Y-112642876D02*
X249039487Y-112547638D01*
X249039487Y-112547638D02*
X248991868Y-112500019D01*
X248991868Y-112500019D02*
X248944249Y-112476209D01*
X248515677Y-112476209D02*
X248515677Y-112880971D01*
X248515677Y-112880971D02*
X248491867Y-112928590D01*
X248491867Y-112928590D02*
X248468058Y-112952400D01*
X248468058Y-112952400D02*
X248420439Y-112976209D01*
X248420439Y-112976209D02*
X248325201Y-112976209D01*
X248325201Y-112976209D02*
X248277582Y-112952400D01*
X248277582Y-112952400D02*
X248253772Y-112928590D01*
X248253772Y-112928590D02*
X248229963Y-112880971D01*
X248229963Y-112880971D02*
X248229963Y-112476209D01*
X248063295Y-112476209D02*
X247777581Y-112476209D01*
X247920438Y-112976209D02*
X247920438Y-112476209D01*
X247349010Y-112976209D02*
X247634724Y-112976209D01*
X247491867Y-112976209D02*
X247491867Y-112476209D01*
X247491867Y-112476209D02*
X247539486Y-112547638D01*
X247539486Y-112547638D02*
X247587105Y-112595257D01*
X247587105Y-112595257D02*
X247634724Y-112619066D01*
X250206153Y-108670019D02*
X250253772Y-108646209D01*
X250253772Y-108646209D02*
X250325201Y-108646209D01*
X250325201Y-108646209D02*
X250396629Y-108670019D01*
X250396629Y-108670019D02*
X250444248Y-108717638D01*
X250444248Y-108717638D02*
X250468058Y-108765257D01*
X250468058Y-108765257D02*
X250491867Y-108860495D01*
X250491867Y-108860495D02*
X250491867Y-108931923D01*
X250491867Y-108931923D02*
X250468058Y-109027161D01*
X250468058Y-109027161D02*
X250444248Y-109074780D01*
X250444248Y-109074780D02*
X250396629Y-109122400D01*
X250396629Y-109122400D02*
X250325201Y-109146209D01*
X250325201Y-109146209D02*
X250277582Y-109146209D01*
X250277582Y-109146209D02*
X250206153Y-109122400D01*
X250206153Y-109122400D02*
X250182344Y-109098590D01*
X250182344Y-109098590D02*
X250182344Y-108931923D01*
X250182344Y-108931923D02*
X250277582Y-108931923D01*
X249968058Y-109146209D02*
X249968058Y-108646209D01*
X249968058Y-108646209D02*
X249682344Y-109146209D01*
X249682344Y-109146209D02*
X249682344Y-108646209D01*
X249444248Y-109146209D02*
X249444248Y-108646209D01*
X249444248Y-108646209D02*
X249325200Y-108646209D01*
X249325200Y-108646209D02*
X249253772Y-108670019D01*
X249253772Y-108670019D02*
X249206153Y-108717638D01*
X249206153Y-108717638D02*
X249182343Y-108765257D01*
X249182343Y-108765257D02*
X249158534Y-108860495D01*
X249158534Y-108860495D02*
X249158534Y-108931923D01*
X249158534Y-108931923D02*
X249182343Y-109027161D01*
X249182343Y-109027161D02*
X249206153Y-109074780D01*
X249206153Y-109074780D02*
X249253772Y-109122400D01*
X249253772Y-109122400D02*
X249325200Y-109146209D01*
X249325200Y-109146209D02*
X249444248Y-109146209D01*
X250468058Y-116716209D02*
X250468058Y-116216209D01*
X250468058Y-116216209D02*
X250301391Y-116573352D01*
X250301391Y-116573352D02*
X250134725Y-116216209D01*
X250134725Y-116216209D02*
X250134725Y-116716209D01*
X249920438Y-116263828D02*
X249896629Y-116240019D01*
X249896629Y-116240019D02*
X249849010Y-116216209D01*
X249849010Y-116216209D02*
X249729962Y-116216209D01*
X249729962Y-116216209D02*
X249682343Y-116240019D01*
X249682343Y-116240019D02*
X249658534Y-116263828D01*
X249658534Y-116263828D02*
X249634724Y-116311447D01*
X249634724Y-116311447D02*
X249634724Y-116359066D01*
X249634724Y-116359066D02*
X249658534Y-116430495D01*
X249658534Y-116430495D02*
X249944248Y-116716209D01*
X249944248Y-116716209D02*
X249634724Y-116716209D01*
X249539487Y-116763828D02*
X249158534Y-116763828D01*
X248944249Y-116216209D02*
X248849011Y-116216209D01*
X248849011Y-116216209D02*
X248801392Y-116240019D01*
X248801392Y-116240019D02*
X248753773Y-116287638D01*
X248753773Y-116287638D02*
X248729963Y-116382876D01*
X248729963Y-116382876D02*
X248729963Y-116549542D01*
X248729963Y-116549542D02*
X248753773Y-116644780D01*
X248753773Y-116644780D02*
X248801392Y-116692400D01*
X248801392Y-116692400D02*
X248849011Y-116716209D01*
X248849011Y-116716209D02*
X248944249Y-116716209D01*
X248944249Y-116716209D02*
X248991868Y-116692400D01*
X248991868Y-116692400D02*
X249039487Y-116644780D01*
X249039487Y-116644780D02*
X249063296Y-116549542D01*
X249063296Y-116549542D02*
X249063296Y-116382876D01*
X249063296Y-116382876D02*
X249039487Y-116287638D01*
X249039487Y-116287638D02*
X248991868Y-116240019D01*
X248991868Y-116240019D02*
X248944249Y-116216209D01*
X248515677Y-116216209D02*
X248515677Y-116620971D01*
X248515677Y-116620971D02*
X248491867Y-116668590D01*
X248491867Y-116668590D02*
X248468058Y-116692400D01*
X248468058Y-116692400D02*
X248420439Y-116716209D01*
X248420439Y-116716209D02*
X248325201Y-116716209D01*
X248325201Y-116716209D02*
X248277582Y-116692400D01*
X248277582Y-116692400D02*
X248253772Y-116668590D01*
X248253772Y-116668590D02*
X248229963Y-116620971D01*
X248229963Y-116620971D02*
X248229963Y-116216209D01*
X248063295Y-116216209D02*
X247777581Y-116216209D01*
X247920438Y-116716209D02*
X247920438Y-116216209D01*
X247634724Y-116263828D02*
X247610915Y-116240019D01*
X247610915Y-116240019D02*
X247563296Y-116216209D01*
X247563296Y-116216209D02*
X247444248Y-116216209D01*
X247444248Y-116216209D02*
X247396629Y-116240019D01*
X247396629Y-116240019D02*
X247372820Y-116263828D01*
X247372820Y-116263828D02*
X247349010Y-116311447D01*
X247349010Y-116311447D02*
X247349010Y-116359066D01*
X247349010Y-116359066D02*
X247372820Y-116430495D01*
X247372820Y-116430495D02*
X247658534Y-116716209D01*
X247658534Y-116716209D02*
X247349010Y-116716209D01*
X249748058Y-140576209D02*
X249748058Y-140076209D01*
X249748058Y-140076209D02*
X249581391Y-140433352D01*
X249581391Y-140433352D02*
X249414725Y-140076209D01*
X249414725Y-140076209D02*
X249414725Y-140576209D01*
X248962343Y-140242876D02*
X248962343Y-140576209D01*
X249081391Y-140052400D02*
X249200438Y-140409542D01*
X249200438Y-140409542D02*
X248890915Y-140409542D01*
X248819487Y-140623828D02*
X248438534Y-140623828D01*
X248224249Y-140076209D02*
X248129011Y-140076209D01*
X248129011Y-140076209D02*
X248081392Y-140100019D01*
X248081392Y-140100019D02*
X248033773Y-140147638D01*
X248033773Y-140147638D02*
X248009963Y-140242876D01*
X248009963Y-140242876D02*
X248009963Y-140409542D01*
X248009963Y-140409542D02*
X248033773Y-140504780D01*
X248033773Y-140504780D02*
X248081392Y-140552400D01*
X248081392Y-140552400D02*
X248129011Y-140576209D01*
X248129011Y-140576209D02*
X248224249Y-140576209D01*
X248224249Y-140576209D02*
X248271868Y-140552400D01*
X248271868Y-140552400D02*
X248319487Y-140504780D01*
X248319487Y-140504780D02*
X248343296Y-140409542D01*
X248343296Y-140409542D02*
X248343296Y-140242876D01*
X248343296Y-140242876D02*
X248319487Y-140147638D01*
X248319487Y-140147638D02*
X248271868Y-140100019D01*
X248271868Y-140100019D02*
X248224249Y-140076209D01*
X247795677Y-140076209D02*
X247795677Y-140480971D01*
X247795677Y-140480971D02*
X247771867Y-140528590D01*
X247771867Y-140528590D02*
X247748058Y-140552400D01*
X247748058Y-140552400D02*
X247700439Y-140576209D01*
X247700439Y-140576209D02*
X247605201Y-140576209D01*
X247605201Y-140576209D02*
X247557582Y-140552400D01*
X247557582Y-140552400D02*
X247533772Y-140528590D01*
X247533772Y-140528590D02*
X247509963Y-140480971D01*
X247509963Y-140480971D02*
X247509963Y-140076209D01*
X247343295Y-140076209D02*
X247057581Y-140076209D01*
X247200438Y-140576209D02*
X247200438Y-140076209D01*
X246914724Y-140123828D02*
X246890915Y-140100019D01*
X246890915Y-140100019D02*
X246843296Y-140076209D01*
X246843296Y-140076209D02*
X246724248Y-140076209D01*
X246724248Y-140076209D02*
X246676629Y-140100019D01*
X246676629Y-140100019D02*
X246652820Y-140123828D01*
X246652820Y-140123828D02*
X246629010Y-140171447D01*
X246629010Y-140171447D02*
X246629010Y-140219066D01*
X246629010Y-140219066D02*
X246652820Y-140290495D01*
X246652820Y-140290495D02*
X246938534Y-140576209D01*
X246938534Y-140576209D02*
X246629010Y-140576209D01*
X249486153Y-147840019D02*
X249533772Y-147816209D01*
X249533772Y-147816209D02*
X249605201Y-147816209D01*
X249605201Y-147816209D02*
X249676629Y-147840019D01*
X249676629Y-147840019D02*
X249724248Y-147887638D01*
X249724248Y-147887638D02*
X249748058Y-147935257D01*
X249748058Y-147935257D02*
X249771867Y-148030495D01*
X249771867Y-148030495D02*
X249771867Y-148101923D01*
X249771867Y-148101923D02*
X249748058Y-148197161D01*
X249748058Y-148197161D02*
X249724248Y-148244780D01*
X249724248Y-148244780D02*
X249676629Y-148292400D01*
X249676629Y-148292400D02*
X249605201Y-148316209D01*
X249605201Y-148316209D02*
X249557582Y-148316209D01*
X249557582Y-148316209D02*
X249486153Y-148292400D01*
X249486153Y-148292400D02*
X249462344Y-148268590D01*
X249462344Y-148268590D02*
X249462344Y-148101923D01*
X249462344Y-148101923D02*
X249557582Y-148101923D01*
X249248058Y-148316209D02*
X249248058Y-147816209D01*
X249248058Y-147816209D02*
X248962344Y-148316209D01*
X248962344Y-148316209D02*
X248962344Y-147816209D01*
X248724248Y-148316209D02*
X248724248Y-147816209D01*
X248724248Y-147816209D02*
X248605200Y-147816209D01*
X248605200Y-147816209D02*
X248533772Y-147840019D01*
X248533772Y-147840019D02*
X248486153Y-147887638D01*
X248486153Y-147887638D02*
X248462343Y-147935257D01*
X248462343Y-147935257D02*
X248438534Y-148030495D01*
X248438534Y-148030495D02*
X248438534Y-148101923D01*
X248438534Y-148101923D02*
X248462343Y-148197161D01*
X248462343Y-148197161D02*
X248486153Y-148244780D01*
X248486153Y-148244780D02*
X248533772Y-148292400D01*
X248533772Y-148292400D02*
X248605200Y-148316209D01*
X248605200Y-148316209D02*
X248724248Y-148316209D01*
X249748058Y-136836209D02*
X249748058Y-136336209D01*
X249748058Y-136336209D02*
X249581391Y-136693352D01*
X249581391Y-136693352D02*
X249414725Y-136336209D01*
X249414725Y-136336209D02*
X249414725Y-136836209D01*
X248962343Y-136502876D02*
X248962343Y-136836209D01*
X249081391Y-136312400D02*
X249200438Y-136669542D01*
X249200438Y-136669542D02*
X248890915Y-136669542D01*
X248819487Y-136883828D02*
X248438534Y-136883828D01*
X248224249Y-136336209D02*
X248129011Y-136336209D01*
X248129011Y-136336209D02*
X248081392Y-136360019D01*
X248081392Y-136360019D02*
X248033773Y-136407638D01*
X248033773Y-136407638D02*
X248009963Y-136502876D01*
X248009963Y-136502876D02*
X248009963Y-136669542D01*
X248009963Y-136669542D02*
X248033773Y-136764780D01*
X248033773Y-136764780D02*
X248081392Y-136812400D01*
X248081392Y-136812400D02*
X248129011Y-136836209D01*
X248129011Y-136836209D02*
X248224249Y-136836209D01*
X248224249Y-136836209D02*
X248271868Y-136812400D01*
X248271868Y-136812400D02*
X248319487Y-136764780D01*
X248319487Y-136764780D02*
X248343296Y-136669542D01*
X248343296Y-136669542D02*
X248343296Y-136502876D01*
X248343296Y-136502876D02*
X248319487Y-136407638D01*
X248319487Y-136407638D02*
X248271868Y-136360019D01*
X248271868Y-136360019D02*
X248224249Y-136336209D01*
X247795677Y-136336209D02*
X247795677Y-136740971D01*
X247795677Y-136740971D02*
X247771867Y-136788590D01*
X247771867Y-136788590D02*
X247748058Y-136812400D01*
X247748058Y-136812400D02*
X247700439Y-136836209D01*
X247700439Y-136836209D02*
X247605201Y-136836209D01*
X247605201Y-136836209D02*
X247557582Y-136812400D01*
X247557582Y-136812400D02*
X247533772Y-136788590D01*
X247533772Y-136788590D02*
X247509963Y-136740971D01*
X247509963Y-136740971D02*
X247509963Y-136336209D01*
X247343295Y-136336209D02*
X247057581Y-136336209D01*
X247200438Y-136836209D02*
X247200438Y-136336209D01*
X246629010Y-136836209D02*
X246914724Y-136836209D01*
X246771867Y-136836209D02*
X246771867Y-136336209D01*
X246771867Y-136336209D02*
X246819486Y-136407638D01*
X246819486Y-136407638D02*
X246867105Y-136455257D01*
X246867105Y-136455257D02*
X246914724Y-136479066D01*
X249486153Y-132530019D02*
X249533772Y-132506209D01*
X249533772Y-132506209D02*
X249605201Y-132506209D01*
X249605201Y-132506209D02*
X249676629Y-132530019D01*
X249676629Y-132530019D02*
X249724248Y-132577638D01*
X249724248Y-132577638D02*
X249748058Y-132625257D01*
X249748058Y-132625257D02*
X249771867Y-132720495D01*
X249771867Y-132720495D02*
X249771867Y-132791923D01*
X249771867Y-132791923D02*
X249748058Y-132887161D01*
X249748058Y-132887161D02*
X249724248Y-132934780D01*
X249724248Y-132934780D02*
X249676629Y-132982400D01*
X249676629Y-132982400D02*
X249605201Y-133006209D01*
X249605201Y-133006209D02*
X249557582Y-133006209D01*
X249557582Y-133006209D02*
X249486153Y-132982400D01*
X249486153Y-132982400D02*
X249462344Y-132958590D01*
X249462344Y-132958590D02*
X249462344Y-132791923D01*
X249462344Y-132791923D02*
X249557582Y-132791923D01*
X249248058Y-133006209D02*
X249248058Y-132506209D01*
X249248058Y-132506209D02*
X248962344Y-133006209D01*
X248962344Y-133006209D02*
X248962344Y-132506209D01*
X248724248Y-133006209D02*
X248724248Y-132506209D01*
X248724248Y-132506209D02*
X248605200Y-132506209D01*
X248605200Y-132506209D02*
X248533772Y-132530019D01*
X248533772Y-132530019D02*
X248486153Y-132577638D01*
X248486153Y-132577638D02*
X248462343Y-132625257D01*
X248462343Y-132625257D02*
X248438534Y-132720495D01*
X248438534Y-132720495D02*
X248438534Y-132791923D01*
X248438534Y-132791923D02*
X248462343Y-132887161D01*
X248462343Y-132887161D02*
X248486153Y-132934780D01*
X248486153Y-132934780D02*
X248533772Y-132982400D01*
X248533772Y-132982400D02*
X248605200Y-133006209D01*
X248605200Y-133006209D02*
X248724248Y-133006209D01*
X249748058Y-144556209D02*
X249748058Y-144056209D01*
X249748058Y-144056209D02*
X249581391Y-144413352D01*
X249581391Y-144413352D02*
X249414725Y-144056209D01*
X249414725Y-144056209D02*
X249414725Y-144556209D01*
X248962343Y-144222876D02*
X248962343Y-144556209D01*
X249081391Y-144032400D02*
X249200438Y-144389542D01*
X249200438Y-144389542D02*
X248890915Y-144389542D01*
X248819487Y-144603828D02*
X248438534Y-144603828D01*
X248224249Y-144056209D02*
X248129011Y-144056209D01*
X248129011Y-144056209D02*
X248081392Y-144080019D01*
X248081392Y-144080019D02*
X248033773Y-144127638D01*
X248033773Y-144127638D02*
X248009963Y-144222876D01*
X248009963Y-144222876D02*
X248009963Y-144389542D01*
X248009963Y-144389542D02*
X248033773Y-144484780D01*
X248033773Y-144484780D02*
X248081392Y-144532400D01*
X248081392Y-144532400D02*
X248129011Y-144556209D01*
X248129011Y-144556209D02*
X248224249Y-144556209D01*
X248224249Y-144556209D02*
X248271868Y-144532400D01*
X248271868Y-144532400D02*
X248319487Y-144484780D01*
X248319487Y-144484780D02*
X248343296Y-144389542D01*
X248343296Y-144389542D02*
X248343296Y-144222876D01*
X248343296Y-144222876D02*
X248319487Y-144127638D01*
X248319487Y-144127638D02*
X248271868Y-144080019D01*
X248271868Y-144080019D02*
X248224249Y-144056209D01*
X247795677Y-144056209D02*
X247795677Y-144460971D01*
X247795677Y-144460971D02*
X247771867Y-144508590D01*
X247771867Y-144508590D02*
X247748058Y-144532400D01*
X247748058Y-144532400D02*
X247700439Y-144556209D01*
X247700439Y-144556209D02*
X247605201Y-144556209D01*
X247605201Y-144556209D02*
X247557582Y-144532400D01*
X247557582Y-144532400D02*
X247533772Y-144508590D01*
X247533772Y-144508590D02*
X247509963Y-144460971D01*
X247509963Y-144460971D02*
X247509963Y-144056209D01*
X247343295Y-144056209D02*
X247057581Y-144056209D01*
X247200438Y-144556209D02*
X247200438Y-144056209D01*
X246938534Y-144056209D02*
X246629010Y-144056209D01*
X246629010Y-144056209D02*
X246795677Y-144246685D01*
X246795677Y-144246685D02*
X246724248Y-144246685D01*
X246724248Y-144246685D02*
X246676629Y-144270495D01*
X246676629Y-144270495D02*
X246652820Y-144294304D01*
X246652820Y-144294304D02*
X246629010Y-144341923D01*
X246629010Y-144341923D02*
X246629010Y-144460971D01*
X246629010Y-144460971D02*
X246652820Y-144508590D01*
X246652820Y-144508590D02*
X246676629Y-144532400D01*
X246676629Y-144532400D02*
X246724248Y-144556209D01*
X246724248Y-144556209D02*
X246867105Y-144556209D01*
X246867105Y-144556209D02*
X246914724Y-144532400D01*
X246914724Y-144532400D02*
X246938534Y-144508590D01*
X127426630Y-131420019D02*
X127474249Y-131396209D01*
X127474249Y-131396209D02*
X127545678Y-131396209D01*
X127545678Y-131396209D02*
X127617106Y-131420019D01*
X127617106Y-131420019D02*
X127664725Y-131467638D01*
X127664725Y-131467638D02*
X127688535Y-131515257D01*
X127688535Y-131515257D02*
X127712344Y-131610495D01*
X127712344Y-131610495D02*
X127712344Y-131681923D01*
X127712344Y-131681923D02*
X127688535Y-131777161D01*
X127688535Y-131777161D02*
X127664725Y-131824780D01*
X127664725Y-131824780D02*
X127617106Y-131872400D01*
X127617106Y-131872400D02*
X127545678Y-131896209D01*
X127545678Y-131896209D02*
X127498059Y-131896209D01*
X127498059Y-131896209D02*
X127426630Y-131872400D01*
X127426630Y-131872400D02*
X127402821Y-131848590D01*
X127402821Y-131848590D02*
X127402821Y-131681923D01*
X127402821Y-131681923D02*
X127498059Y-131681923D01*
X127188535Y-131896209D02*
X127188535Y-131396209D01*
X127188535Y-131396209D02*
X126902821Y-131896209D01*
X126902821Y-131896209D02*
X126902821Y-131396209D01*
X126664725Y-131896209D02*
X126664725Y-131396209D01*
X126664725Y-131396209D02*
X126545677Y-131396209D01*
X126545677Y-131396209D02*
X126474249Y-131420019D01*
X126474249Y-131420019D02*
X126426630Y-131467638D01*
X126426630Y-131467638D02*
X126402820Y-131515257D01*
X126402820Y-131515257D02*
X126379011Y-131610495D01*
X126379011Y-131610495D02*
X126379011Y-131681923D01*
X126379011Y-131681923D02*
X126402820Y-131777161D01*
X126402820Y-131777161D02*
X126426630Y-131824780D01*
X126426630Y-131824780D02*
X126474249Y-131872400D01*
X126474249Y-131872400D02*
X126545677Y-131896209D01*
X126545677Y-131896209D02*
X126664725Y-131896209D01*
X129498058Y-143446209D02*
X129498058Y-142946209D01*
X129498058Y-142946209D02*
X129331391Y-143303352D01*
X129331391Y-143303352D02*
X129164725Y-142946209D01*
X129164725Y-142946209D02*
X129164725Y-143446209D01*
X128974248Y-142946209D02*
X128664724Y-142946209D01*
X128664724Y-142946209D02*
X128831391Y-143136685D01*
X128831391Y-143136685D02*
X128759962Y-143136685D01*
X128759962Y-143136685D02*
X128712343Y-143160495D01*
X128712343Y-143160495D02*
X128688534Y-143184304D01*
X128688534Y-143184304D02*
X128664724Y-143231923D01*
X128664724Y-143231923D02*
X128664724Y-143350971D01*
X128664724Y-143350971D02*
X128688534Y-143398590D01*
X128688534Y-143398590D02*
X128712343Y-143422400D01*
X128712343Y-143422400D02*
X128759962Y-143446209D01*
X128759962Y-143446209D02*
X128902819Y-143446209D01*
X128902819Y-143446209D02*
X128950438Y-143422400D01*
X128950438Y-143422400D02*
X128974248Y-143398590D01*
X128569487Y-143493828D02*
X128188534Y-143493828D01*
X127974249Y-142946209D02*
X127879011Y-142946209D01*
X127879011Y-142946209D02*
X127831392Y-142970019D01*
X127831392Y-142970019D02*
X127783773Y-143017638D01*
X127783773Y-143017638D02*
X127759963Y-143112876D01*
X127759963Y-143112876D02*
X127759963Y-143279542D01*
X127759963Y-143279542D02*
X127783773Y-143374780D01*
X127783773Y-143374780D02*
X127831392Y-143422400D01*
X127831392Y-143422400D02*
X127879011Y-143446209D01*
X127879011Y-143446209D02*
X127974249Y-143446209D01*
X127974249Y-143446209D02*
X128021868Y-143422400D01*
X128021868Y-143422400D02*
X128069487Y-143374780D01*
X128069487Y-143374780D02*
X128093296Y-143279542D01*
X128093296Y-143279542D02*
X128093296Y-143112876D01*
X128093296Y-143112876D02*
X128069487Y-143017638D01*
X128069487Y-143017638D02*
X128021868Y-142970019D01*
X128021868Y-142970019D02*
X127974249Y-142946209D01*
X127545677Y-142946209D02*
X127545677Y-143350971D01*
X127545677Y-143350971D02*
X127521867Y-143398590D01*
X127521867Y-143398590D02*
X127498058Y-143422400D01*
X127498058Y-143422400D02*
X127450439Y-143446209D01*
X127450439Y-143446209D02*
X127355201Y-143446209D01*
X127355201Y-143446209D02*
X127307582Y-143422400D01*
X127307582Y-143422400D02*
X127283772Y-143398590D01*
X127283772Y-143398590D02*
X127259963Y-143350971D01*
X127259963Y-143350971D02*
X127259963Y-142946209D01*
X127093295Y-142946209D02*
X126807581Y-142946209D01*
X126950438Y-143446209D02*
X126950438Y-142946209D01*
X126379010Y-143446209D02*
X126664724Y-143446209D01*
X126521867Y-143446209D02*
X126521867Y-142946209D01*
X126521867Y-142946209D02*
X126569486Y-143017638D01*
X126569486Y-143017638D02*
X126617105Y-143065257D01*
X126617105Y-143065257D02*
X126664724Y-143089066D01*
X129498058Y-139466209D02*
X129498058Y-138966209D01*
X129498058Y-138966209D02*
X129331391Y-139323352D01*
X129331391Y-139323352D02*
X129164725Y-138966209D01*
X129164725Y-138966209D02*
X129164725Y-139466209D01*
X128974248Y-138966209D02*
X128664724Y-138966209D01*
X128664724Y-138966209D02*
X128831391Y-139156685D01*
X128831391Y-139156685D02*
X128759962Y-139156685D01*
X128759962Y-139156685D02*
X128712343Y-139180495D01*
X128712343Y-139180495D02*
X128688534Y-139204304D01*
X128688534Y-139204304D02*
X128664724Y-139251923D01*
X128664724Y-139251923D02*
X128664724Y-139370971D01*
X128664724Y-139370971D02*
X128688534Y-139418590D01*
X128688534Y-139418590D02*
X128712343Y-139442400D01*
X128712343Y-139442400D02*
X128759962Y-139466209D01*
X128759962Y-139466209D02*
X128902819Y-139466209D01*
X128902819Y-139466209D02*
X128950438Y-139442400D01*
X128950438Y-139442400D02*
X128974248Y-139418590D01*
X128569487Y-139513828D02*
X128188534Y-139513828D01*
X127974249Y-138966209D02*
X127879011Y-138966209D01*
X127879011Y-138966209D02*
X127831392Y-138990019D01*
X127831392Y-138990019D02*
X127783773Y-139037638D01*
X127783773Y-139037638D02*
X127759963Y-139132876D01*
X127759963Y-139132876D02*
X127759963Y-139299542D01*
X127759963Y-139299542D02*
X127783773Y-139394780D01*
X127783773Y-139394780D02*
X127831392Y-139442400D01*
X127831392Y-139442400D02*
X127879011Y-139466209D01*
X127879011Y-139466209D02*
X127974249Y-139466209D01*
X127974249Y-139466209D02*
X128021868Y-139442400D01*
X128021868Y-139442400D02*
X128069487Y-139394780D01*
X128069487Y-139394780D02*
X128093296Y-139299542D01*
X128093296Y-139299542D02*
X128093296Y-139132876D01*
X128093296Y-139132876D02*
X128069487Y-139037638D01*
X128069487Y-139037638D02*
X128021868Y-138990019D01*
X128021868Y-138990019D02*
X127974249Y-138966209D01*
X127545677Y-138966209D02*
X127545677Y-139370971D01*
X127545677Y-139370971D02*
X127521867Y-139418590D01*
X127521867Y-139418590D02*
X127498058Y-139442400D01*
X127498058Y-139442400D02*
X127450439Y-139466209D01*
X127450439Y-139466209D02*
X127355201Y-139466209D01*
X127355201Y-139466209D02*
X127307582Y-139442400D01*
X127307582Y-139442400D02*
X127283772Y-139418590D01*
X127283772Y-139418590D02*
X127259963Y-139370971D01*
X127259963Y-139370971D02*
X127259963Y-138966209D01*
X127093295Y-138966209D02*
X126807581Y-138966209D01*
X126950438Y-139466209D02*
X126950438Y-138966209D01*
X126664724Y-139013828D02*
X126640915Y-138990019D01*
X126640915Y-138990019D02*
X126593296Y-138966209D01*
X126593296Y-138966209D02*
X126474248Y-138966209D01*
X126474248Y-138966209D02*
X126426629Y-138990019D01*
X126426629Y-138990019D02*
X126402820Y-139013828D01*
X126402820Y-139013828D02*
X126379010Y-139061447D01*
X126379010Y-139061447D02*
X126379010Y-139109066D01*
X126379010Y-139109066D02*
X126402820Y-139180495D01*
X126402820Y-139180495D02*
X126688534Y-139466209D01*
X126688534Y-139466209D02*
X126379010Y-139466209D01*
X127426630Y-146730019D02*
X127474249Y-146706209D01*
X127474249Y-146706209D02*
X127545678Y-146706209D01*
X127545678Y-146706209D02*
X127617106Y-146730019D01*
X127617106Y-146730019D02*
X127664725Y-146777638D01*
X127664725Y-146777638D02*
X127688535Y-146825257D01*
X127688535Y-146825257D02*
X127712344Y-146920495D01*
X127712344Y-146920495D02*
X127712344Y-146991923D01*
X127712344Y-146991923D02*
X127688535Y-147087161D01*
X127688535Y-147087161D02*
X127664725Y-147134780D01*
X127664725Y-147134780D02*
X127617106Y-147182400D01*
X127617106Y-147182400D02*
X127545678Y-147206209D01*
X127545678Y-147206209D02*
X127498059Y-147206209D01*
X127498059Y-147206209D02*
X127426630Y-147182400D01*
X127426630Y-147182400D02*
X127402821Y-147158590D01*
X127402821Y-147158590D02*
X127402821Y-146991923D01*
X127402821Y-146991923D02*
X127498059Y-146991923D01*
X127188535Y-147206209D02*
X127188535Y-146706209D01*
X127188535Y-146706209D02*
X126902821Y-147206209D01*
X126902821Y-147206209D02*
X126902821Y-146706209D01*
X126664725Y-147206209D02*
X126664725Y-146706209D01*
X126664725Y-146706209D02*
X126545677Y-146706209D01*
X126545677Y-146706209D02*
X126474249Y-146730019D01*
X126474249Y-146730019D02*
X126426630Y-146777638D01*
X126426630Y-146777638D02*
X126402820Y-146825257D01*
X126402820Y-146825257D02*
X126379011Y-146920495D01*
X126379011Y-146920495D02*
X126379011Y-146991923D01*
X126379011Y-146991923D02*
X126402820Y-147087161D01*
X126402820Y-147087161D02*
X126426630Y-147134780D01*
X126426630Y-147134780D02*
X126474249Y-147182400D01*
X126474249Y-147182400D02*
X126545677Y-147206209D01*
X126545677Y-147206209D02*
X126664725Y-147206209D01*
X129498058Y-135726209D02*
X129498058Y-135226209D01*
X129498058Y-135226209D02*
X129331391Y-135583352D01*
X129331391Y-135583352D02*
X129164725Y-135226209D01*
X129164725Y-135226209D02*
X129164725Y-135726209D01*
X128974248Y-135226209D02*
X128664724Y-135226209D01*
X128664724Y-135226209D02*
X128831391Y-135416685D01*
X128831391Y-135416685D02*
X128759962Y-135416685D01*
X128759962Y-135416685D02*
X128712343Y-135440495D01*
X128712343Y-135440495D02*
X128688534Y-135464304D01*
X128688534Y-135464304D02*
X128664724Y-135511923D01*
X128664724Y-135511923D02*
X128664724Y-135630971D01*
X128664724Y-135630971D02*
X128688534Y-135678590D01*
X128688534Y-135678590D02*
X128712343Y-135702400D01*
X128712343Y-135702400D02*
X128759962Y-135726209D01*
X128759962Y-135726209D02*
X128902819Y-135726209D01*
X128902819Y-135726209D02*
X128950438Y-135702400D01*
X128950438Y-135702400D02*
X128974248Y-135678590D01*
X128569487Y-135773828D02*
X128188534Y-135773828D01*
X127974249Y-135226209D02*
X127879011Y-135226209D01*
X127879011Y-135226209D02*
X127831392Y-135250019D01*
X127831392Y-135250019D02*
X127783773Y-135297638D01*
X127783773Y-135297638D02*
X127759963Y-135392876D01*
X127759963Y-135392876D02*
X127759963Y-135559542D01*
X127759963Y-135559542D02*
X127783773Y-135654780D01*
X127783773Y-135654780D02*
X127831392Y-135702400D01*
X127831392Y-135702400D02*
X127879011Y-135726209D01*
X127879011Y-135726209D02*
X127974249Y-135726209D01*
X127974249Y-135726209D02*
X128021868Y-135702400D01*
X128021868Y-135702400D02*
X128069487Y-135654780D01*
X128069487Y-135654780D02*
X128093296Y-135559542D01*
X128093296Y-135559542D02*
X128093296Y-135392876D01*
X128093296Y-135392876D02*
X128069487Y-135297638D01*
X128069487Y-135297638D02*
X128021868Y-135250019D01*
X128021868Y-135250019D02*
X127974249Y-135226209D01*
X127545677Y-135226209D02*
X127545677Y-135630971D01*
X127545677Y-135630971D02*
X127521867Y-135678590D01*
X127521867Y-135678590D02*
X127498058Y-135702400D01*
X127498058Y-135702400D02*
X127450439Y-135726209D01*
X127450439Y-135726209D02*
X127355201Y-135726209D01*
X127355201Y-135726209D02*
X127307582Y-135702400D01*
X127307582Y-135702400D02*
X127283772Y-135678590D01*
X127283772Y-135678590D02*
X127259963Y-135630971D01*
X127259963Y-135630971D02*
X127259963Y-135226209D01*
X127093295Y-135226209D02*
X126807581Y-135226209D01*
X126950438Y-135726209D02*
X126950438Y-135226209D01*
X126688534Y-135226209D02*
X126379010Y-135226209D01*
X126379010Y-135226209D02*
X126545677Y-135416685D01*
X126545677Y-135416685D02*
X126474248Y-135416685D01*
X126474248Y-135416685D02*
X126426629Y-135440495D01*
X126426629Y-135440495D02*
X126402820Y-135464304D01*
X126402820Y-135464304D02*
X126379010Y-135511923D01*
X126379010Y-135511923D02*
X126379010Y-135630971D01*
X126379010Y-135630971D02*
X126402820Y-135678590D01*
X126402820Y-135678590D02*
X126426629Y-135702400D01*
X126426629Y-135702400D02*
X126474248Y-135726209D01*
X126474248Y-135726209D02*
X126617105Y-135726209D01*
X126617105Y-135726209D02*
X126664724Y-135702400D01*
X126664724Y-135702400D02*
X126688534Y-135678590D01*
X107266629Y-115148709D02*
X107290439Y-115136804D01*
X107290439Y-115136804D02*
X107326153Y-115136804D01*
X107326153Y-115136804D02*
X107361867Y-115148709D01*
X107361867Y-115148709D02*
X107385677Y-115172519D01*
X107385677Y-115172519D02*
X107397582Y-115196328D01*
X107397582Y-115196328D02*
X107409486Y-115243947D01*
X107409486Y-115243947D02*
X107409486Y-115279661D01*
X107409486Y-115279661D02*
X107397582Y-115327280D01*
X107397582Y-115327280D02*
X107385677Y-115351090D01*
X107385677Y-115351090D02*
X107361867Y-115374900D01*
X107361867Y-115374900D02*
X107326153Y-115386804D01*
X107326153Y-115386804D02*
X107302344Y-115386804D01*
X107302344Y-115386804D02*
X107266629Y-115374900D01*
X107266629Y-115374900D02*
X107254725Y-115362995D01*
X107254725Y-115362995D02*
X107254725Y-115279661D01*
X107254725Y-115279661D02*
X107302344Y-115279661D01*
X107147582Y-115386804D02*
X107147582Y-115136804D01*
X107147582Y-115136804D02*
X107004725Y-115386804D01*
X107004725Y-115386804D02*
X107004725Y-115136804D01*
X106885677Y-115386804D02*
X106885677Y-115136804D01*
X106885677Y-115136804D02*
X106826153Y-115136804D01*
X106826153Y-115136804D02*
X106790439Y-115148709D01*
X106790439Y-115148709D02*
X106766629Y-115172519D01*
X106766629Y-115172519D02*
X106754724Y-115196328D01*
X106754724Y-115196328D02*
X106742820Y-115243947D01*
X106742820Y-115243947D02*
X106742820Y-115279661D01*
X106742820Y-115279661D02*
X106754724Y-115327280D01*
X106754724Y-115327280D02*
X106766629Y-115351090D01*
X106766629Y-115351090D02*
X106790439Y-115374900D01*
X106790439Y-115374900D02*
X106826153Y-115386804D01*
X106826153Y-115386804D02*
X106885677Y-115386804D01*
X107397582Y-123486804D02*
X107397582Y-123236804D01*
X107397582Y-123236804D02*
X107314248Y-123415376D01*
X107314248Y-123415376D02*
X107230915Y-123236804D01*
X107230915Y-123236804D02*
X107230915Y-123486804D01*
X106980915Y-123486804D02*
X107123772Y-123486804D01*
X107052344Y-123486804D02*
X107052344Y-123236804D01*
X107052344Y-123236804D02*
X107076153Y-123272519D01*
X107076153Y-123272519D02*
X107099963Y-123296328D01*
X107099963Y-123296328D02*
X107123772Y-123308233D01*
X106933297Y-123510614D02*
X106742820Y-123510614D01*
X106683297Y-123486804D02*
X106683297Y-123236804D01*
X106683297Y-123355852D02*
X106540440Y-123355852D01*
X106540440Y-123486804D02*
X106540440Y-123236804D01*
X106445201Y-123236804D02*
X106290439Y-123236804D01*
X106290439Y-123236804D02*
X106373773Y-123332042D01*
X106373773Y-123332042D02*
X106338058Y-123332042D01*
X106338058Y-123332042D02*
X106314249Y-123343947D01*
X106314249Y-123343947D02*
X106302344Y-123355852D01*
X106302344Y-123355852D02*
X106290439Y-123379661D01*
X106290439Y-123379661D02*
X106290439Y-123439185D01*
X106290439Y-123439185D02*
X106302344Y-123462995D01*
X106302344Y-123462995D02*
X106314249Y-123474900D01*
X106314249Y-123474900D02*
X106338058Y-123486804D01*
X106338058Y-123486804D02*
X106409487Y-123486804D01*
X106409487Y-123486804D02*
X106433296Y-123474900D01*
X106433296Y-123474900D02*
X106445201Y-123462995D01*
X107397582Y-119176804D02*
X107397582Y-118926804D01*
X107397582Y-118926804D02*
X107314248Y-119105376D01*
X107314248Y-119105376D02*
X107230915Y-118926804D01*
X107230915Y-118926804D02*
X107230915Y-119176804D01*
X106980915Y-119176804D02*
X107123772Y-119176804D01*
X107052344Y-119176804D02*
X107052344Y-118926804D01*
X107052344Y-118926804D02*
X107076153Y-118962519D01*
X107076153Y-118962519D02*
X107099963Y-118986328D01*
X107099963Y-118986328D02*
X107123772Y-118998233D01*
X106933297Y-119200614D02*
X106742820Y-119200614D01*
X106683297Y-119176804D02*
X106683297Y-118926804D01*
X106683297Y-119045852D02*
X106540440Y-119045852D01*
X106540440Y-119176804D02*
X106540440Y-118926804D01*
X106290439Y-119176804D02*
X106433296Y-119176804D01*
X106361868Y-119176804D02*
X106361868Y-118926804D01*
X106361868Y-118926804D02*
X106385677Y-118962519D01*
X106385677Y-118962519D02*
X106409487Y-118986328D01*
X106409487Y-118986328D02*
X106433296Y-118998233D01*
X107278534Y-116816804D02*
X107397582Y-116816804D01*
X107397582Y-116816804D02*
X107409486Y-116935852D01*
X107409486Y-116935852D02*
X107397582Y-116923947D01*
X107397582Y-116923947D02*
X107373772Y-116912042D01*
X107373772Y-116912042D02*
X107314248Y-116912042D01*
X107314248Y-116912042D02*
X107290439Y-116923947D01*
X107290439Y-116923947D02*
X107278534Y-116935852D01*
X107278534Y-116935852D02*
X107266629Y-116959661D01*
X107266629Y-116959661D02*
X107266629Y-117019185D01*
X107266629Y-117019185D02*
X107278534Y-117042995D01*
X107278534Y-117042995D02*
X107290439Y-117054900D01*
X107290439Y-117054900D02*
X107314248Y-117066804D01*
X107314248Y-117066804D02*
X107373772Y-117066804D01*
X107373772Y-117066804D02*
X107397582Y-117054900D01*
X107397582Y-117054900D02*
X107409486Y-117042995D01*
X107195201Y-116816804D02*
X107111868Y-117066804D01*
X107111868Y-117066804D02*
X107028534Y-116816804D01*
X107397582Y-121326804D02*
X107397582Y-121076804D01*
X107397582Y-121076804D02*
X107314248Y-121255376D01*
X107314248Y-121255376D02*
X107230915Y-121076804D01*
X107230915Y-121076804D02*
X107230915Y-121326804D01*
X106980915Y-121326804D02*
X107123772Y-121326804D01*
X107052344Y-121326804D02*
X107052344Y-121076804D01*
X107052344Y-121076804D02*
X107076153Y-121112519D01*
X107076153Y-121112519D02*
X107099963Y-121136328D01*
X107099963Y-121136328D02*
X107123772Y-121148233D01*
X106933297Y-121350614D02*
X106742820Y-121350614D01*
X106683297Y-121326804D02*
X106683297Y-121076804D01*
X106683297Y-121195852D02*
X106540440Y-121195852D01*
X106540440Y-121326804D02*
X106540440Y-121076804D01*
X106433296Y-121100614D02*
X106421392Y-121088709D01*
X106421392Y-121088709D02*
X106397582Y-121076804D01*
X106397582Y-121076804D02*
X106338058Y-121076804D01*
X106338058Y-121076804D02*
X106314249Y-121088709D01*
X106314249Y-121088709D02*
X106302344Y-121100614D01*
X106302344Y-121100614D02*
X106290439Y-121124423D01*
X106290439Y-121124423D02*
X106290439Y-121148233D01*
X106290439Y-121148233D02*
X106302344Y-121183947D01*
X106302344Y-121183947D02*
X106445201Y-121326804D01*
X106445201Y-121326804D02*
X106290439Y-121326804D01*
X107266629Y-125028709D02*
X107290439Y-125016804D01*
X107290439Y-125016804D02*
X107326153Y-125016804D01*
X107326153Y-125016804D02*
X107361867Y-125028709D01*
X107361867Y-125028709D02*
X107385677Y-125052519D01*
X107385677Y-125052519D02*
X107397582Y-125076328D01*
X107397582Y-125076328D02*
X107409486Y-125123947D01*
X107409486Y-125123947D02*
X107409486Y-125159661D01*
X107409486Y-125159661D02*
X107397582Y-125207280D01*
X107397582Y-125207280D02*
X107385677Y-125231090D01*
X107385677Y-125231090D02*
X107361867Y-125254900D01*
X107361867Y-125254900D02*
X107326153Y-125266804D01*
X107326153Y-125266804D02*
X107302344Y-125266804D01*
X107302344Y-125266804D02*
X107266629Y-125254900D01*
X107266629Y-125254900D02*
X107254725Y-125242995D01*
X107254725Y-125242995D02*
X107254725Y-125159661D01*
X107254725Y-125159661D02*
X107302344Y-125159661D01*
X107147582Y-125266804D02*
X107147582Y-125016804D01*
X107147582Y-125016804D02*
X107004725Y-125266804D01*
X107004725Y-125266804D02*
X107004725Y-125016804D01*
X106885677Y-125266804D02*
X106885677Y-125016804D01*
X106885677Y-125016804D02*
X106826153Y-125016804D01*
X106826153Y-125016804D02*
X106790439Y-125028709D01*
X106790439Y-125028709D02*
X106766629Y-125052519D01*
X106766629Y-125052519D02*
X106754724Y-125076328D01*
X106754724Y-125076328D02*
X106742820Y-125123947D01*
X106742820Y-125123947D02*
X106742820Y-125159661D01*
X106742820Y-125159661D02*
X106754724Y-125207280D01*
X106754724Y-125207280D02*
X106766629Y-125231090D01*
X106766629Y-125231090D02*
X106790439Y-125254900D01*
X106790439Y-125254900D02*
X106826153Y-125266804D01*
X106826153Y-125266804D02*
X106885677Y-125266804D01*
X106586629Y-140838709D02*
X106610439Y-140826804D01*
X106610439Y-140826804D02*
X106646153Y-140826804D01*
X106646153Y-140826804D02*
X106681867Y-140838709D01*
X106681867Y-140838709D02*
X106705677Y-140862519D01*
X106705677Y-140862519D02*
X106717582Y-140886328D01*
X106717582Y-140886328D02*
X106729486Y-140933947D01*
X106729486Y-140933947D02*
X106729486Y-140969661D01*
X106729486Y-140969661D02*
X106717582Y-141017280D01*
X106717582Y-141017280D02*
X106705677Y-141041090D01*
X106705677Y-141041090D02*
X106681867Y-141064900D01*
X106681867Y-141064900D02*
X106646153Y-141076804D01*
X106646153Y-141076804D02*
X106622344Y-141076804D01*
X106622344Y-141076804D02*
X106586629Y-141064900D01*
X106586629Y-141064900D02*
X106574725Y-141052995D01*
X106574725Y-141052995D02*
X106574725Y-140969661D01*
X106574725Y-140969661D02*
X106622344Y-140969661D01*
X106467582Y-141076804D02*
X106467582Y-140826804D01*
X106467582Y-140826804D02*
X106324725Y-141076804D01*
X106324725Y-141076804D02*
X106324725Y-140826804D01*
X106205677Y-141076804D02*
X106205677Y-140826804D01*
X106205677Y-140826804D02*
X106146153Y-140826804D01*
X106146153Y-140826804D02*
X106110439Y-140838709D01*
X106110439Y-140838709D02*
X106086629Y-140862519D01*
X106086629Y-140862519D02*
X106074724Y-140886328D01*
X106074724Y-140886328D02*
X106062820Y-140933947D01*
X106062820Y-140933947D02*
X106062820Y-140969661D01*
X106062820Y-140969661D02*
X106074724Y-141017280D01*
X106074724Y-141017280D02*
X106086629Y-141041090D01*
X106086629Y-141041090D02*
X106110439Y-141064900D01*
X106110439Y-141064900D02*
X106146153Y-141076804D01*
X106146153Y-141076804D02*
X106205677Y-141076804D01*
X106717582Y-139296804D02*
X106717582Y-139046804D01*
X106717582Y-139046804D02*
X106634248Y-139225376D01*
X106634248Y-139225376D02*
X106550915Y-139046804D01*
X106550915Y-139046804D02*
X106550915Y-139296804D01*
X106455677Y-139046804D02*
X106300915Y-139046804D01*
X106300915Y-139046804D02*
X106384249Y-139142042D01*
X106384249Y-139142042D02*
X106348534Y-139142042D01*
X106348534Y-139142042D02*
X106324725Y-139153947D01*
X106324725Y-139153947D02*
X106312820Y-139165852D01*
X106312820Y-139165852D02*
X106300915Y-139189661D01*
X106300915Y-139189661D02*
X106300915Y-139249185D01*
X106300915Y-139249185D02*
X106312820Y-139272995D01*
X106312820Y-139272995D02*
X106324725Y-139284900D01*
X106324725Y-139284900D02*
X106348534Y-139296804D01*
X106348534Y-139296804D02*
X106419963Y-139296804D01*
X106419963Y-139296804D02*
X106443772Y-139284900D01*
X106443772Y-139284900D02*
X106455677Y-139272995D01*
X106253297Y-139320614D02*
X106062820Y-139320614D01*
X106003297Y-139296804D02*
X106003297Y-139046804D01*
X106003297Y-139165852D02*
X105860440Y-139165852D01*
X105860440Y-139296804D02*
X105860440Y-139046804D01*
X105765201Y-139046804D02*
X105610439Y-139046804D01*
X105610439Y-139046804D02*
X105693773Y-139142042D01*
X105693773Y-139142042D02*
X105658058Y-139142042D01*
X105658058Y-139142042D02*
X105634249Y-139153947D01*
X105634249Y-139153947D02*
X105622344Y-139165852D01*
X105622344Y-139165852D02*
X105610439Y-139189661D01*
X105610439Y-139189661D02*
X105610439Y-139249185D01*
X105610439Y-139249185D02*
X105622344Y-139272995D01*
X105622344Y-139272995D02*
X105634249Y-139284900D01*
X105634249Y-139284900D02*
X105658058Y-139296804D01*
X105658058Y-139296804D02*
X105729487Y-139296804D01*
X105729487Y-139296804D02*
X105753296Y-139284900D01*
X105753296Y-139284900D02*
X105765201Y-139272995D01*
X106717582Y-137136804D02*
X106717582Y-136886804D01*
X106717582Y-136886804D02*
X106634248Y-137065376D01*
X106634248Y-137065376D02*
X106550915Y-136886804D01*
X106550915Y-136886804D02*
X106550915Y-137136804D01*
X106455677Y-136886804D02*
X106300915Y-136886804D01*
X106300915Y-136886804D02*
X106384249Y-136982042D01*
X106384249Y-136982042D02*
X106348534Y-136982042D01*
X106348534Y-136982042D02*
X106324725Y-136993947D01*
X106324725Y-136993947D02*
X106312820Y-137005852D01*
X106312820Y-137005852D02*
X106300915Y-137029661D01*
X106300915Y-137029661D02*
X106300915Y-137089185D01*
X106300915Y-137089185D02*
X106312820Y-137112995D01*
X106312820Y-137112995D02*
X106324725Y-137124900D01*
X106324725Y-137124900D02*
X106348534Y-137136804D01*
X106348534Y-137136804D02*
X106419963Y-137136804D01*
X106419963Y-137136804D02*
X106443772Y-137124900D01*
X106443772Y-137124900D02*
X106455677Y-137112995D01*
X106253297Y-137160614D02*
X106062820Y-137160614D01*
X106003297Y-137136804D02*
X106003297Y-136886804D01*
X106003297Y-137005852D02*
X105860440Y-137005852D01*
X105860440Y-137136804D02*
X105860440Y-136886804D01*
X105753296Y-136910614D02*
X105741392Y-136898709D01*
X105741392Y-136898709D02*
X105717582Y-136886804D01*
X105717582Y-136886804D02*
X105658058Y-136886804D01*
X105658058Y-136886804D02*
X105634249Y-136898709D01*
X105634249Y-136898709D02*
X105622344Y-136910614D01*
X105622344Y-136910614D02*
X105610439Y-136934423D01*
X105610439Y-136934423D02*
X105610439Y-136958233D01*
X105610439Y-136958233D02*
X105622344Y-136993947D01*
X105622344Y-136993947D02*
X105765201Y-137136804D01*
X105765201Y-137136804D02*
X105610439Y-137136804D01*
X106717582Y-134986804D02*
X106717582Y-134736804D01*
X106717582Y-134736804D02*
X106634248Y-134915376D01*
X106634248Y-134915376D02*
X106550915Y-134736804D01*
X106550915Y-134736804D02*
X106550915Y-134986804D01*
X106455677Y-134736804D02*
X106300915Y-134736804D01*
X106300915Y-134736804D02*
X106384249Y-134832042D01*
X106384249Y-134832042D02*
X106348534Y-134832042D01*
X106348534Y-134832042D02*
X106324725Y-134843947D01*
X106324725Y-134843947D02*
X106312820Y-134855852D01*
X106312820Y-134855852D02*
X106300915Y-134879661D01*
X106300915Y-134879661D02*
X106300915Y-134939185D01*
X106300915Y-134939185D02*
X106312820Y-134962995D01*
X106312820Y-134962995D02*
X106324725Y-134974900D01*
X106324725Y-134974900D02*
X106348534Y-134986804D01*
X106348534Y-134986804D02*
X106419963Y-134986804D01*
X106419963Y-134986804D02*
X106443772Y-134974900D01*
X106443772Y-134974900D02*
X106455677Y-134962995D01*
X106253297Y-135010614D02*
X106062820Y-135010614D01*
X106003297Y-134986804D02*
X106003297Y-134736804D01*
X106003297Y-134855852D02*
X105860440Y-134855852D01*
X105860440Y-134986804D02*
X105860440Y-134736804D01*
X105610439Y-134986804D02*
X105753296Y-134986804D01*
X105681868Y-134986804D02*
X105681868Y-134736804D01*
X105681868Y-134736804D02*
X105705677Y-134772519D01*
X105705677Y-134772519D02*
X105729487Y-134796328D01*
X105729487Y-134796328D02*
X105753296Y-134808233D01*
X106598534Y-132626804D02*
X106717582Y-132626804D01*
X106717582Y-132626804D02*
X106729486Y-132745852D01*
X106729486Y-132745852D02*
X106717582Y-132733947D01*
X106717582Y-132733947D02*
X106693772Y-132722042D01*
X106693772Y-132722042D02*
X106634248Y-132722042D01*
X106634248Y-132722042D02*
X106610439Y-132733947D01*
X106610439Y-132733947D02*
X106598534Y-132745852D01*
X106598534Y-132745852D02*
X106586629Y-132769661D01*
X106586629Y-132769661D02*
X106586629Y-132829185D01*
X106586629Y-132829185D02*
X106598534Y-132852995D01*
X106598534Y-132852995D02*
X106610439Y-132864900D01*
X106610439Y-132864900D02*
X106634248Y-132876804D01*
X106634248Y-132876804D02*
X106693772Y-132876804D01*
X106693772Y-132876804D02*
X106717582Y-132864900D01*
X106717582Y-132864900D02*
X106729486Y-132852995D01*
X106515201Y-132626804D02*
X106431868Y-132876804D01*
X106431868Y-132876804D02*
X106348534Y-132626804D01*
X106586629Y-130958709D02*
X106610439Y-130946804D01*
X106610439Y-130946804D02*
X106646153Y-130946804D01*
X106646153Y-130946804D02*
X106681867Y-130958709D01*
X106681867Y-130958709D02*
X106705677Y-130982519D01*
X106705677Y-130982519D02*
X106717582Y-131006328D01*
X106717582Y-131006328D02*
X106729486Y-131053947D01*
X106729486Y-131053947D02*
X106729486Y-131089661D01*
X106729486Y-131089661D02*
X106717582Y-131137280D01*
X106717582Y-131137280D02*
X106705677Y-131161090D01*
X106705677Y-131161090D02*
X106681867Y-131184900D01*
X106681867Y-131184900D02*
X106646153Y-131196804D01*
X106646153Y-131196804D02*
X106622344Y-131196804D01*
X106622344Y-131196804D02*
X106586629Y-131184900D01*
X106586629Y-131184900D02*
X106574725Y-131172995D01*
X106574725Y-131172995D02*
X106574725Y-131089661D01*
X106574725Y-131089661D02*
X106622344Y-131089661D01*
X106467582Y-131196804D02*
X106467582Y-130946804D01*
X106467582Y-130946804D02*
X106324725Y-131196804D01*
X106324725Y-131196804D02*
X106324725Y-130946804D01*
X106205677Y-131196804D02*
X106205677Y-130946804D01*
X106205677Y-130946804D02*
X106146153Y-130946804D01*
X106146153Y-130946804D02*
X106110439Y-130958709D01*
X106110439Y-130958709D02*
X106086629Y-130982519D01*
X106086629Y-130982519D02*
X106074724Y-131006328D01*
X106074724Y-131006328D02*
X106062820Y-131053947D01*
X106062820Y-131053947D02*
X106062820Y-131089661D01*
X106062820Y-131089661D02*
X106074724Y-131137280D01*
X106074724Y-131137280D02*
X106086629Y-131161090D01*
X106086629Y-131161090D02*
X106110439Y-131184900D01*
X106110439Y-131184900D02*
X106146153Y-131196804D01*
X106146153Y-131196804D02*
X106205677Y-131196804D01*
X128626630Y-123530019D02*
X128674249Y-123506209D01*
X128674249Y-123506209D02*
X128745678Y-123506209D01*
X128745678Y-123506209D02*
X128817106Y-123530019D01*
X128817106Y-123530019D02*
X128864725Y-123577638D01*
X128864725Y-123577638D02*
X128888535Y-123625257D01*
X128888535Y-123625257D02*
X128912344Y-123720495D01*
X128912344Y-123720495D02*
X128912344Y-123791923D01*
X128912344Y-123791923D02*
X128888535Y-123887161D01*
X128888535Y-123887161D02*
X128864725Y-123934780D01*
X128864725Y-123934780D02*
X128817106Y-123982400D01*
X128817106Y-123982400D02*
X128745678Y-124006209D01*
X128745678Y-124006209D02*
X128698059Y-124006209D01*
X128698059Y-124006209D02*
X128626630Y-123982400D01*
X128626630Y-123982400D02*
X128602821Y-123958590D01*
X128602821Y-123958590D02*
X128602821Y-123791923D01*
X128602821Y-123791923D02*
X128698059Y-123791923D01*
X128388535Y-124006209D02*
X128388535Y-123506209D01*
X128388535Y-123506209D02*
X128102821Y-124006209D01*
X128102821Y-124006209D02*
X128102821Y-123506209D01*
X127864725Y-124006209D02*
X127864725Y-123506209D01*
X127864725Y-123506209D02*
X127745677Y-123506209D01*
X127745677Y-123506209D02*
X127674249Y-123530019D01*
X127674249Y-123530019D02*
X127626630Y-123577638D01*
X127626630Y-123577638D02*
X127602820Y-123625257D01*
X127602820Y-123625257D02*
X127579011Y-123720495D01*
X127579011Y-123720495D02*
X127579011Y-123791923D01*
X127579011Y-123791923D02*
X127602820Y-123887161D01*
X127602820Y-123887161D02*
X127626630Y-123934780D01*
X127626630Y-123934780D02*
X127674249Y-123982400D01*
X127674249Y-123982400D02*
X127745677Y-124006209D01*
X127745677Y-124006209D02*
X127864725Y-124006209D01*
X130698058Y-120246209D02*
X130698058Y-119746209D01*
X130698058Y-119746209D02*
X130531391Y-120103352D01*
X130531391Y-120103352D02*
X130364725Y-119746209D01*
X130364725Y-119746209D02*
X130364725Y-120246209D01*
X129864724Y-120246209D02*
X130150438Y-120246209D01*
X130007581Y-120246209D02*
X130007581Y-119746209D01*
X130007581Y-119746209D02*
X130055200Y-119817638D01*
X130055200Y-119817638D02*
X130102819Y-119865257D01*
X130102819Y-119865257D02*
X130150438Y-119889066D01*
X129769487Y-120293828D02*
X129388534Y-120293828D01*
X129174249Y-119746209D02*
X129079011Y-119746209D01*
X129079011Y-119746209D02*
X129031392Y-119770019D01*
X129031392Y-119770019D02*
X128983773Y-119817638D01*
X128983773Y-119817638D02*
X128959963Y-119912876D01*
X128959963Y-119912876D02*
X128959963Y-120079542D01*
X128959963Y-120079542D02*
X128983773Y-120174780D01*
X128983773Y-120174780D02*
X129031392Y-120222400D01*
X129031392Y-120222400D02*
X129079011Y-120246209D01*
X129079011Y-120246209D02*
X129174249Y-120246209D01*
X129174249Y-120246209D02*
X129221868Y-120222400D01*
X129221868Y-120222400D02*
X129269487Y-120174780D01*
X129269487Y-120174780D02*
X129293296Y-120079542D01*
X129293296Y-120079542D02*
X129293296Y-119912876D01*
X129293296Y-119912876D02*
X129269487Y-119817638D01*
X129269487Y-119817638D02*
X129221868Y-119770019D01*
X129221868Y-119770019D02*
X129174249Y-119746209D01*
X128745677Y-119746209D02*
X128745677Y-120150971D01*
X128745677Y-120150971D02*
X128721867Y-120198590D01*
X128721867Y-120198590D02*
X128698058Y-120222400D01*
X128698058Y-120222400D02*
X128650439Y-120246209D01*
X128650439Y-120246209D02*
X128555201Y-120246209D01*
X128555201Y-120246209D02*
X128507582Y-120222400D01*
X128507582Y-120222400D02*
X128483772Y-120198590D01*
X128483772Y-120198590D02*
X128459963Y-120150971D01*
X128459963Y-120150971D02*
X128459963Y-119746209D01*
X128293295Y-119746209D02*
X128007581Y-119746209D01*
X128150438Y-120246209D02*
X128150438Y-119746209D01*
X127579010Y-120246209D02*
X127864724Y-120246209D01*
X127721867Y-120246209D02*
X127721867Y-119746209D01*
X127721867Y-119746209D02*
X127769486Y-119817638D01*
X127769486Y-119817638D02*
X127817105Y-119865257D01*
X127817105Y-119865257D02*
X127864724Y-119889066D01*
X130698058Y-116266209D02*
X130698058Y-115766209D01*
X130698058Y-115766209D02*
X130531391Y-116123352D01*
X130531391Y-116123352D02*
X130364725Y-115766209D01*
X130364725Y-115766209D02*
X130364725Y-116266209D01*
X129864724Y-116266209D02*
X130150438Y-116266209D01*
X130007581Y-116266209D02*
X130007581Y-115766209D01*
X130007581Y-115766209D02*
X130055200Y-115837638D01*
X130055200Y-115837638D02*
X130102819Y-115885257D01*
X130102819Y-115885257D02*
X130150438Y-115909066D01*
X129769487Y-116313828D02*
X129388534Y-116313828D01*
X129174249Y-115766209D02*
X129079011Y-115766209D01*
X129079011Y-115766209D02*
X129031392Y-115790019D01*
X129031392Y-115790019D02*
X128983773Y-115837638D01*
X128983773Y-115837638D02*
X128959963Y-115932876D01*
X128959963Y-115932876D02*
X128959963Y-116099542D01*
X128959963Y-116099542D02*
X128983773Y-116194780D01*
X128983773Y-116194780D02*
X129031392Y-116242400D01*
X129031392Y-116242400D02*
X129079011Y-116266209D01*
X129079011Y-116266209D02*
X129174249Y-116266209D01*
X129174249Y-116266209D02*
X129221868Y-116242400D01*
X129221868Y-116242400D02*
X129269487Y-116194780D01*
X129269487Y-116194780D02*
X129293296Y-116099542D01*
X129293296Y-116099542D02*
X129293296Y-115932876D01*
X129293296Y-115932876D02*
X129269487Y-115837638D01*
X129269487Y-115837638D02*
X129221868Y-115790019D01*
X129221868Y-115790019D02*
X129174249Y-115766209D01*
X128745677Y-115766209D02*
X128745677Y-116170971D01*
X128745677Y-116170971D02*
X128721867Y-116218590D01*
X128721867Y-116218590D02*
X128698058Y-116242400D01*
X128698058Y-116242400D02*
X128650439Y-116266209D01*
X128650439Y-116266209D02*
X128555201Y-116266209D01*
X128555201Y-116266209D02*
X128507582Y-116242400D01*
X128507582Y-116242400D02*
X128483772Y-116218590D01*
X128483772Y-116218590D02*
X128459963Y-116170971D01*
X128459963Y-116170971D02*
X128459963Y-115766209D01*
X128293295Y-115766209D02*
X128007581Y-115766209D01*
X128150438Y-116266209D02*
X128150438Y-115766209D01*
X127864724Y-115813828D02*
X127840915Y-115790019D01*
X127840915Y-115790019D02*
X127793296Y-115766209D01*
X127793296Y-115766209D02*
X127674248Y-115766209D01*
X127674248Y-115766209D02*
X127626629Y-115790019D01*
X127626629Y-115790019D02*
X127602820Y-115813828D01*
X127602820Y-115813828D02*
X127579010Y-115861447D01*
X127579010Y-115861447D02*
X127579010Y-115909066D01*
X127579010Y-115909066D02*
X127602820Y-115980495D01*
X127602820Y-115980495D02*
X127888534Y-116266209D01*
X127888534Y-116266209D02*
X127579010Y-116266209D01*
X130698058Y-112526209D02*
X130698058Y-112026209D01*
X130698058Y-112026209D02*
X130531391Y-112383352D01*
X130531391Y-112383352D02*
X130364725Y-112026209D01*
X130364725Y-112026209D02*
X130364725Y-112526209D01*
X129864724Y-112526209D02*
X130150438Y-112526209D01*
X130007581Y-112526209D02*
X130007581Y-112026209D01*
X130007581Y-112026209D02*
X130055200Y-112097638D01*
X130055200Y-112097638D02*
X130102819Y-112145257D01*
X130102819Y-112145257D02*
X130150438Y-112169066D01*
X129769487Y-112573828D02*
X129388534Y-112573828D01*
X129174249Y-112026209D02*
X129079011Y-112026209D01*
X129079011Y-112026209D02*
X129031392Y-112050019D01*
X129031392Y-112050019D02*
X128983773Y-112097638D01*
X128983773Y-112097638D02*
X128959963Y-112192876D01*
X128959963Y-112192876D02*
X128959963Y-112359542D01*
X128959963Y-112359542D02*
X128983773Y-112454780D01*
X128983773Y-112454780D02*
X129031392Y-112502400D01*
X129031392Y-112502400D02*
X129079011Y-112526209D01*
X129079011Y-112526209D02*
X129174249Y-112526209D01*
X129174249Y-112526209D02*
X129221868Y-112502400D01*
X129221868Y-112502400D02*
X129269487Y-112454780D01*
X129269487Y-112454780D02*
X129293296Y-112359542D01*
X129293296Y-112359542D02*
X129293296Y-112192876D01*
X129293296Y-112192876D02*
X129269487Y-112097638D01*
X129269487Y-112097638D02*
X129221868Y-112050019D01*
X129221868Y-112050019D02*
X129174249Y-112026209D01*
X128745677Y-112026209D02*
X128745677Y-112430971D01*
X128745677Y-112430971D02*
X128721867Y-112478590D01*
X128721867Y-112478590D02*
X128698058Y-112502400D01*
X128698058Y-112502400D02*
X128650439Y-112526209D01*
X128650439Y-112526209D02*
X128555201Y-112526209D01*
X128555201Y-112526209D02*
X128507582Y-112502400D01*
X128507582Y-112502400D02*
X128483772Y-112478590D01*
X128483772Y-112478590D02*
X128459963Y-112430971D01*
X128459963Y-112430971D02*
X128459963Y-112026209D01*
X128293295Y-112026209D02*
X128007581Y-112026209D01*
X128150438Y-112526209D02*
X128150438Y-112026209D01*
X127888534Y-112026209D02*
X127579010Y-112026209D01*
X127579010Y-112026209D02*
X127745677Y-112216685D01*
X127745677Y-112216685D02*
X127674248Y-112216685D01*
X127674248Y-112216685D02*
X127626629Y-112240495D01*
X127626629Y-112240495D02*
X127602820Y-112264304D01*
X127602820Y-112264304D02*
X127579010Y-112311923D01*
X127579010Y-112311923D02*
X127579010Y-112430971D01*
X127579010Y-112430971D02*
X127602820Y-112478590D01*
X127602820Y-112478590D02*
X127626629Y-112502400D01*
X127626629Y-112502400D02*
X127674248Y-112526209D01*
X127674248Y-112526209D02*
X127817105Y-112526209D01*
X127817105Y-112526209D02*
X127864724Y-112502400D01*
X127864724Y-112502400D02*
X127888534Y-112478590D01*
X128626630Y-108220019D02*
X128674249Y-108196209D01*
X128674249Y-108196209D02*
X128745678Y-108196209D01*
X128745678Y-108196209D02*
X128817106Y-108220019D01*
X128817106Y-108220019D02*
X128864725Y-108267638D01*
X128864725Y-108267638D02*
X128888535Y-108315257D01*
X128888535Y-108315257D02*
X128912344Y-108410495D01*
X128912344Y-108410495D02*
X128912344Y-108481923D01*
X128912344Y-108481923D02*
X128888535Y-108577161D01*
X128888535Y-108577161D02*
X128864725Y-108624780D01*
X128864725Y-108624780D02*
X128817106Y-108672400D01*
X128817106Y-108672400D02*
X128745678Y-108696209D01*
X128745678Y-108696209D02*
X128698059Y-108696209D01*
X128698059Y-108696209D02*
X128626630Y-108672400D01*
X128626630Y-108672400D02*
X128602821Y-108648590D01*
X128602821Y-108648590D02*
X128602821Y-108481923D01*
X128602821Y-108481923D02*
X128698059Y-108481923D01*
X128388535Y-108696209D02*
X128388535Y-108196209D01*
X128388535Y-108196209D02*
X128102821Y-108696209D01*
X128102821Y-108696209D02*
X128102821Y-108196209D01*
X127864725Y-108696209D02*
X127864725Y-108196209D01*
X127864725Y-108196209D02*
X127745677Y-108196209D01*
X127745677Y-108196209D02*
X127674249Y-108220019D01*
X127674249Y-108220019D02*
X127626630Y-108267638D01*
X127626630Y-108267638D02*
X127602820Y-108315257D01*
X127602820Y-108315257D02*
X127579011Y-108410495D01*
X127579011Y-108410495D02*
X127579011Y-108481923D01*
X127579011Y-108481923D02*
X127602820Y-108577161D01*
X127602820Y-108577161D02*
X127626630Y-108624780D01*
X127626630Y-108624780D02*
X127674249Y-108672400D01*
X127674249Y-108672400D02*
X127745677Y-108696209D01*
X127745677Y-108696209D02*
X127864725Y-108696209D01*
X112068532Y-96206804D02*
X112068532Y-95956804D01*
X112068532Y-95956804D02*
X111985198Y-96135376D01*
X111985198Y-96135376D02*
X111901865Y-95956804D01*
X111901865Y-95956804D02*
X111901865Y-96206804D01*
X111651865Y-96206804D02*
X111794722Y-96206804D01*
X111723294Y-96206804D02*
X111723294Y-95956804D01*
X111723294Y-95956804D02*
X111747103Y-95992519D01*
X111747103Y-95992519D02*
X111770913Y-96016328D01*
X111770913Y-96016328D02*
X111794722Y-96028233D01*
X111604247Y-96230614D02*
X111413770Y-96230614D01*
X111354247Y-96075852D02*
X111270913Y-96075852D01*
X111235199Y-96206804D02*
X111354247Y-96206804D01*
X111354247Y-96206804D02*
X111354247Y-95956804D01*
X111354247Y-95956804D02*
X111235199Y-95956804D01*
X111128057Y-96040138D02*
X111128057Y-96206804D01*
X111128057Y-96063947D02*
X111116152Y-96052042D01*
X111116152Y-96052042D02*
X111092342Y-96040138D01*
X111092342Y-96040138D02*
X111056628Y-96040138D01*
X111056628Y-96040138D02*
X111032819Y-96052042D01*
X111032819Y-96052042D02*
X111020914Y-96075852D01*
X111020914Y-96075852D02*
X111020914Y-96206804D01*
X110794724Y-96194900D02*
X110818533Y-96206804D01*
X110818533Y-96206804D02*
X110866152Y-96206804D01*
X110866152Y-96206804D02*
X110889962Y-96194900D01*
X110889962Y-96194900D02*
X110901867Y-96182995D01*
X110901867Y-96182995D02*
X110913771Y-96159185D01*
X110913771Y-96159185D02*
X110913771Y-96087757D01*
X110913771Y-96087757D02*
X110901867Y-96063947D01*
X110901867Y-96063947D02*
X110889962Y-96052042D01*
X110889962Y-96052042D02*
X110866152Y-96040138D01*
X110866152Y-96040138D02*
X110818533Y-96040138D01*
X110818533Y-96040138D02*
X110794724Y-96052042D01*
X110651866Y-96206804D02*
X110675676Y-96194900D01*
X110675676Y-96194900D02*
X110687581Y-96182995D01*
X110687581Y-96182995D02*
X110699485Y-96159185D01*
X110699485Y-96159185D02*
X110699485Y-96087757D01*
X110699485Y-96087757D02*
X110687581Y-96063947D01*
X110687581Y-96063947D02*
X110675676Y-96052042D01*
X110675676Y-96052042D02*
X110651866Y-96040138D01*
X110651866Y-96040138D02*
X110616152Y-96040138D01*
X110616152Y-96040138D02*
X110592343Y-96052042D01*
X110592343Y-96052042D02*
X110580438Y-96063947D01*
X110580438Y-96063947D02*
X110568533Y-96087757D01*
X110568533Y-96087757D02*
X110568533Y-96159185D01*
X110568533Y-96159185D02*
X110580438Y-96182995D01*
X110580438Y-96182995D02*
X110592343Y-96194900D01*
X110592343Y-96194900D02*
X110616152Y-96206804D01*
X110616152Y-96206804D02*
X110651866Y-96206804D01*
X110354248Y-96206804D02*
X110354248Y-95956804D01*
X110354248Y-96194900D02*
X110378057Y-96206804D01*
X110378057Y-96206804D02*
X110425676Y-96206804D01*
X110425676Y-96206804D02*
X110449486Y-96194900D01*
X110449486Y-96194900D02*
X110461391Y-96182995D01*
X110461391Y-96182995D02*
X110473295Y-96159185D01*
X110473295Y-96159185D02*
X110473295Y-96087757D01*
X110473295Y-96087757D02*
X110461391Y-96063947D01*
X110461391Y-96063947D02*
X110449486Y-96052042D01*
X110449486Y-96052042D02*
X110425676Y-96040138D01*
X110425676Y-96040138D02*
X110378057Y-96040138D01*
X110378057Y-96040138D02*
X110354248Y-96052042D01*
X110139963Y-96194900D02*
X110163772Y-96206804D01*
X110163772Y-96206804D02*
X110211391Y-96206804D01*
X110211391Y-96206804D02*
X110235201Y-96194900D01*
X110235201Y-96194900D02*
X110247105Y-96171090D01*
X110247105Y-96171090D02*
X110247105Y-96075852D01*
X110247105Y-96075852D02*
X110235201Y-96052042D01*
X110235201Y-96052042D02*
X110211391Y-96040138D01*
X110211391Y-96040138D02*
X110163772Y-96040138D01*
X110163772Y-96040138D02*
X110139963Y-96052042D01*
X110139963Y-96052042D02*
X110128058Y-96075852D01*
X110128058Y-96075852D02*
X110128058Y-96099661D01*
X110128058Y-96099661D02*
X110247105Y-96123471D01*
X110020915Y-96206804D02*
X110020915Y-96040138D01*
X110020915Y-96087757D02*
X110009010Y-96063947D01*
X110009010Y-96063947D02*
X109997105Y-96052042D01*
X109997105Y-96052042D02*
X109973296Y-96040138D01*
X109973296Y-96040138D02*
X109949486Y-96040138D01*
X109925677Y-96230614D02*
X109735200Y-96230614D01*
X109592343Y-96075852D02*
X109556629Y-96087757D01*
X109556629Y-96087757D02*
X109544724Y-96099661D01*
X109544724Y-96099661D02*
X109532820Y-96123471D01*
X109532820Y-96123471D02*
X109532820Y-96159185D01*
X109532820Y-96159185D02*
X109544724Y-96182995D01*
X109544724Y-96182995D02*
X109556629Y-96194900D01*
X109556629Y-96194900D02*
X109580439Y-96206804D01*
X109580439Y-96206804D02*
X109675677Y-96206804D01*
X109675677Y-96206804D02*
X109675677Y-95956804D01*
X109675677Y-95956804D02*
X109592343Y-95956804D01*
X109592343Y-95956804D02*
X109568534Y-95968709D01*
X109568534Y-95968709D02*
X109556629Y-95980614D01*
X109556629Y-95980614D02*
X109544724Y-96004423D01*
X109544724Y-96004423D02*
X109544724Y-96028233D01*
X109544724Y-96028233D02*
X109556629Y-96052042D01*
X109556629Y-96052042D02*
X109568534Y-96063947D01*
X109568534Y-96063947D02*
X109592343Y-96075852D01*
X109592343Y-96075852D02*
X109675677Y-96075852D01*
X112032818Y-95566804D02*
X112032818Y-95316804D01*
X112032818Y-95316804D02*
X111949484Y-95495376D01*
X111949484Y-95495376D02*
X111866151Y-95316804D01*
X111866151Y-95316804D02*
X111866151Y-95566804D01*
X111616151Y-95566804D02*
X111759008Y-95566804D01*
X111687580Y-95566804D02*
X111687580Y-95316804D01*
X111687580Y-95316804D02*
X111711389Y-95352519D01*
X111711389Y-95352519D02*
X111735199Y-95376328D01*
X111735199Y-95376328D02*
X111759008Y-95388233D01*
X111568533Y-95590614D02*
X111378056Y-95590614D01*
X111318533Y-95435852D02*
X111235199Y-95435852D01*
X111199485Y-95566804D02*
X111318533Y-95566804D01*
X111318533Y-95566804D02*
X111318533Y-95316804D01*
X111318533Y-95316804D02*
X111199485Y-95316804D01*
X111092343Y-95400138D02*
X111092343Y-95566804D01*
X111092343Y-95423947D02*
X111080438Y-95412042D01*
X111080438Y-95412042D02*
X111056628Y-95400138D01*
X111056628Y-95400138D02*
X111020914Y-95400138D01*
X111020914Y-95400138D02*
X110997105Y-95412042D01*
X110997105Y-95412042D02*
X110985200Y-95435852D01*
X110985200Y-95435852D02*
X110985200Y-95566804D01*
X110759010Y-95554900D02*
X110782819Y-95566804D01*
X110782819Y-95566804D02*
X110830438Y-95566804D01*
X110830438Y-95566804D02*
X110854248Y-95554900D01*
X110854248Y-95554900D02*
X110866153Y-95542995D01*
X110866153Y-95542995D02*
X110878057Y-95519185D01*
X110878057Y-95519185D02*
X110878057Y-95447757D01*
X110878057Y-95447757D02*
X110866153Y-95423947D01*
X110866153Y-95423947D02*
X110854248Y-95412042D01*
X110854248Y-95412042D02*
X110830438Y-95400138D01*
X110830438Y-95400138D02*
X110782819Y-95400138D01*
X110782819Y-95400138D02*
X110759010Y-95412042D01*
X110616152Y-95566804D02*
X110639962Y-95554900D01*
X110639962Y-95554900D02*
X110651867Y-95542995D01*
X110651867Y-95542995D02*
X110663771Y-95519185D01*
X110663771Y-95519185D02*
X110663771Y-95447757D01*
X110663771Y-95447757D02*
X110651867Y-95423947D01*
X110651867Y-95423947D02*
X110639962Y-95412042D01*
X110639962Y-95412042D02*
X110616152Y-95400138D01*
X110616152Y-95400138D02*
X110580438Y-95400138D01*
X110580438Y-95400138D02*
X110556629Y-95412042D01*
X110556629Y-95412042D02*
X110544724Y-95423947D01*
X110544724Y-95423947D02*
X110532819Y-95447757D01*
X110532819Y-95447757D02*
X110532819Y-95519185D01*
X110532819Y-95519185D02*
X110544724Y-95542995D01*
X110544724Y-95542995D02*
X110556629Y-95554900D01*
X110556629Y-95554900D02*
X110580438Y-95566804D01*
X110580438Y-95566804D02*
X110616152Y-95566804D01*
X110318534Y-95566804D02*
X110318534Y-95316804D01*
X110318534Y-95554900D02*
X110342343Y-95566804D01*
X110342343Y-95566804D02*
X110389962Y-95566804D01*
X110389962Y-95566804D02*
X110413772Y-95554900D01*
X110413772Y-95554900D02*
X110425677Y-95542995D01*
X110425677Y-95542995D02*
X110437581Y-95519185D01*
X110437581Y-95519185D02*
X110437581Y-95447757D01*
X110437581Y-95447757D02*
X110425677Y-95423947D01*
X110425677Y-95423947D02*
X110413772Y-95412042D01*
X110413772Y-95412042D02*
X110389962Y-95400138D01*
X110389962Y-95400138D02*
X110342343Y-95400138D01*
X110342343Y-95400138D02*
X110318534Y-95412042D01*
X110104249Y-95554900D02*
X110128058Y-95566804D01*
X110128058Y-95566804D02*
X110175677Y-95566804D01*
X110175677Y-95566804D02*
X110199487Y-95554900D01*
X110199487Y-95554900D02*
X110211391Y-95531090D01*
X110211391Y-95531090D02*
X110211391Y-95435852D01*
X110211391Y-95435852D02*
X110199487Y-95412042D01*
X110199487Y-95412042D02*
X110175677Y-95400138D01*
X110175677Y-95400138D02*
X110128058Y-95400138D01*
X110128058Y-95400138D02*
X110104249Y-95412042D01*
X110104249Y-95412042D02*
X110092344Y-95435852D01*
X110092344Y-95435852D02*
X110092344Y-95459661D01*
X110092344Y-95459661D02*
X110211391Y-95483471D01*
X109985201Y-95566804D02*
X109985201Y-95400138D01*
X109985201Y-95447757D02*
X109973296Y-95423947D01*
X109973296Y-95423947D02*
X109961391Y-95412042D01*
X109961391Y-95412042D02*
X109937582Y-95400138D01*
X109937582Y-95400138D02*
X109913772Y-95400138D01*
X109889963Y-95590614D02*
X109699486Y-95590614D01*
X109651867Y-95495376D02*
X109532820Y-95495376D01*
X109675677Y-95566804D02*
X109592344Y-95316804D01*
X109592344Y-95316804D02*
X109509010Y-95566804D01*
X109759010Y-94636804D02*
X109878058Y-94636804D01*
X109878058Y-94636804D02*
X109889962Y-94755852D01*
X109889962Y-94755852D02*
X109878058Y-94743947D01*
X109878058Y-94743947D02*
X109854248Y-94732042D01*
X109854248Y-94732042D02*
X109794724Y-94732042D01*
X109794724Y-94732042D02*
X109770915Y-94743947D01*
X109770915Y-94743947D02*
X109759010Y-94755852D01*
X109759010Y-94755852D02*
X109747105Y-94779661D01*
X109747105Y-94779661D02*
X109747105Y-94839185D01*
X109747105Y-94839185D02*
X109759010Y-94862995D01*
X109759010Y-94862995D02*
X109770915Y-94874900D01*
X109770915Y-94874900D02*
X109794724Y-94886804D01*
X109794724Y-94886804D02*
X109854248Y-94886804D01*
X109854248Y-94886804D02*
X109878058Y-94874900D01*
X109878058Y-94874900D02*
X109889962Y-94862995D01*
X109675677Y-94636804D02*
X109592344Y-94886804D01*
X109592344Y-94886804D02*
X109509010Y-94636804D01*
X110056629Y-96538709D02*
X110080439Y-96526804D01*
X110080439Y-96526804D02*
X110116153Y-96526804D01*
X110116153Y-96526804D02*
X110151867Y-96538709D01*
X110151867Y-96538709D02*
X110175677Y-96562519D01*
X110175677Y-96562519D02*
X110187582Y-96586328D01*
X110187582Y-96586328D02*
X110199486Y-96633947D01*
X110199486Y-96633947D02*
X110199486Y-96669661D01*
X110199486Y-96669661D02*
X110187582Y-96717280D01*
X110187582Y-96717280D02*
X110175677Y-96741090D01*
X110175677Y-96741090D02*
X110151867Y-96764900D01*
X110151867Y-96764900D02*
X110116153Y-96776804D01*
X110116153Y-96776804D02*
X110092344Y-96776804D01*
X110092344Y-96776804D02*
X110056629Y-96764900D01*
X110056629Y-96764900D02*
X110044725Y-96752995D01*
X110044725Y-96752995D02*
X110044725Y-96669661D01*
X110044725Y-96669661D02*
X110092344Y-96669661D01*
X109937582Y-96776804D02*
X109937582Y-96526804D01*
X109937582Y-96526804D02*
X109794725Y-96776804D01*
X109794725Y-96776804D02*
X109794725Y-96526804D01*
X109675677Y-96776804D02*
X109675677Y-96526804D01*
X109675677Y-96526804D02*
X109616153Y-96526804D01*
X109616153Y-96526804D02*
X109580439Y-96538709D01*
X109580439Y-96538709D02*
X109556629Y-96562519D01*
X109556629Y-96562519D02*
X109544724Y-96586328D01*
X109544724Y-96586328D02*
X109532820Y-96633947D01*
X109532820Y-96633947D02*
X109532820Y-96669661D01*
X109532820Y-96669661D02*
X109544724Y-96717280D01*
X109544724Y-96717280D02*
X109556629Y-96741090D01*
X109556629Y-96741090D02*
X109580439Y-96764900D01*
X109580439Y-96764900D02*
X109616153Y-96776804D01*
X109616153Y-96776804D02*
X109675677Y-96776804D01*
X110806153Y-162338709D02*
X110829963Y-162326804D01*
X110829963Y-162326804D02*
X110865677Y-162326804D01*
X110865677Y-162326804D02*
X110901391Y-162338709D01*
X110901391Y-162338709D02*
X110925201Y-162362519D01*
X110925201Y-162362519D02*
X110937106Y-162386328D01*
X110937106Y-162386328D02*
X110949010Y-162433947D01*
X110949010Y-162433947D02*
X110949010Y-162469661D01*
X110949010Y-162469661D02*
X110937106Y-162517280D01*
X110937106Y-162517280D02*
X110925201Y-162541090D01*
X110925201Y-162541090D02*
X110901391Y-162564900D01*
X110901391Y-162564900D02*
X110865677Y-162576804D01*
X110865677Y-162576804D02*
X110841868Y-162576804D01*
X110841868Y-162576804D02*
X110806153Y-162564900D01*
X110806153Y-162564900D02*
X110794249Y-162552995D01*
X110794249Y-162552995D02*
X110794249Y-162469661D01*
X110794249Y-162469661D02*
X110841868Y-162469661D01*
X110687106Y-162576804D02*
X110687106Y-162326804D01*
X110687106Y-162326804D02*
X110544249Y-162576804D01*
X110544249Y-162576804D02*
X110544249Y-162326804D01*
X110425201Y-162576804D02*
X110425201Y-162326804D01*
X110425201Y-162326804D02*
X110365677Y-162326804D01*
X110365677Y-162326804D02*
X110329963Y-162338709D01*
X110329963Y-162338709D02*
X110306153Y-162362519D01*
X110306153Y-162362519D02*
X110294248Y-162386328D01*
X110294248Y-162386328D02*
X110282344Y-162433947D01*
X110282344Y-162433947D02*
X110282344Y-162469661D01*
X110282344Y-162469661D02*
X110294248Y-162517280D01*
X110294248Y-162517280D02*
X110306153Y-162541090D01*
X110306153Y-162541090D02*
X110329963Y-162564900D01*
X110329963Y-162564900D02*
X110365677Y-162576804D01*
X110365677Y-162576804D02*
X110425201Y-162576804D01*
X112818056Y-162036804D02*
X112818056Y-161786804D01*
X112818056Y-161786804D02*
X112734722Y-161965376D01*
X112734722Y-161965376D02*
X112651389Y-161786804D01*
X112651389Y-161786804D02*
X112651389Y-162036804D01*
X112556151Y-161786804D02*
X112401389Y-161786804D01*
X112401389Y-161786804D02*
X112484723Y-161882042D01*
X112484723Y-161882042D02*
X112449008Y-161882042D01*
X112449008Y-161882042D02*
X112425199Y-161893947D01*
X112425199Y-161893947D02*
X112413294Y-161905852D01*
X112413294Y-161905852D02*
X112401389Y-161929661D01*
X112401389Y-161929661D02*
X112401389Y-161989185D01*
X112401389Y-161989185D02*
X112413294Y-162012995D01*
X112413294Y-162012995D02*
X112425199Y-162024900D01*
X112425199Y-162024900D02*
X112449008Y-162036804D01*
X112449008Y-162036804D02*
X112520437Y-162036804D01*
X112520437Y-162036804D02*
X112544246Y-162024900D01*
X112544246Y-162024900D02*
X112556151Y-162012995D01*
X112353771Y-162060614D02*
X112163294Y-162060614D01*
X112103771Y-161905852D02*
X112020437Y-161905852D01*
X111984723Y-162036804D02*
X112103771Y-162036804D01*
X112103771Y-162036804D02*
X112103771Y-161786804D01*
X112103771Y-161786804D02*
X111984723Y-161786804D01*
X111877581Y-161870138D02*
X111877581Y-162036804D01*
X111877581Y-161893947D02*
X111865676Y-161882042D01*
X111865676Y-161882042D02*
X111841866Y-161870138D01*
X111841866Y-161870138D02*
X111806152Y-161870138D01*
X111806152Y-161870138D02*
X111782343Y-161882042D01*
X111782343Y-161882042D02*
X111770438Y-161905852D01*
X111770438Y-161905852D02*
X111770438Y-162036804D01*
X111544248Y-162024900D02*
X111568057Y-162036804D01*
X111568057Y-162036804D02*
X111615676Y-162036804D01*
X111615676Y-162036804D02*
X111639486Y-162024900D01*
X111639486Y-162024900D02*
X111651391Y-162012995D01*
X111651391Y-162012995D02*
X111663295Y-161989185D01*
X111663295Y-161989185D02*
X111663295Y-161917757D01*
X111663295Y-161917757D02*
X111651391Y-161893947D01*
X111651391Y-161893947D02*
X111639486Y-161882042D01*
X111639486Y-161882042D02*
X111615676Y-161870138D01*
X111615676Y-161870138D02*
X111568057Y-161870138D01*
X111568057Y-161870138D02*
X111544248Y-161882042D01*
X111401390Y-162036804D02*
X111425200Y-162024900D01*
X111425200Y-162024900D02*
X111437105Y-162012995D01*
X111437105Y-162012995D02*
X111449009Y-161989185D01*
X111449009Y-161989185D02*
X111449009Y-161917757D01*
X111449009Y-161917757D02*
X111437105Y-161893947D01*
X111437105Y-161893947D02*
X111425200Y-161882042D01*
X111425200Y-161882042D02*
X111401390Y-161870138D01*
X111401390Y-161870138D02*
X111365676Y-161870138D01*
X111365676Y-161870138D02*
X111341867Y-161882042D01*
X111341867Y-161882042D02*
X111329962Y-161893947D01*
X111329962Y-161893947D02*
X111318057Y-161917757D01*
X111318057Y-161917757D02*
X111318057Y-161989185D01*
X111318057Y-161989185D02*
X111329962Y-162012995D01*
X111329962Y-162012995D02*
X111341867Y-162024900D01*
X111341867Y-162024900D02*
X111365676Y-162036804D01*
X111365676Y-162036804D02*
X111401390Y-162036804D01*
X111103772Y-162036804D02*
X111103772Y-161786804D01*
X111103772Y-162024900D02*
X111127581Y-162036804D01*
X111127581Y-162036804D02*
X111175200Y-162036804D01*
X111175200Y-162036804D02*
X111199010Y-162024900D01*
X111199010Y-162024900D02*
X111210915Y-162012995D01*
X111210915Y-162012995D02*
X111222819Y-161989185D01*
X111222819Y-161989185D02*
X111222819Y-161917757D01*
X111222819Y-161917757D02*
X111210915Y-161893947D01*
X111210915Y-161893947D02*
X111199010Y-161882042D01*
X111199010Y-161882042D02*
X111175200Y-161870138D01*
X111175200Y-161870138D02*
X111127581Y-161870138D01*
X111127581Y-161870138D02*
X111103772Y-161882042D01*
X110889487Y-162024900D02*
X110913296Y-162036804D01*
X110913296Y-162036804D02*
X110960915Y-162036804D01*
X110960915Y-162036804D02*
X110984725Y-162024900D01*
X110984725Y-162024900D02*
X110996629Y-162001090D01*
X110996629Y-162001090D02*
X110996629Y-161905852D01*
X110996629Y-161905852D02*
X110984725Y-161882042D01*
X110984725Y-161882042D02*
X110960915Y-161870138D01*
X110960915Y-161870138D02*
X110913296Y-161870138D01*
X110913296Y-161870138D02*
X110889487Y-161882042D01*
X110889487Y-161882042D02*
X110877582Y-161905852D01*
X110877582Y-161905852D02*
X110877582Y-161929661D01*
X110877582Y-161929661D02*
X110996629Y-161953471D01*
X110770439Y-162036804D02*
X110770439Y-161870138D01*
X110770439Y-161917757D02*
X110758534Y-161893947D01*
X110758534Y-161893947D02*
X110746629Y-161882042D01*
X110746629Y-161882042D02*
X110722820Y-161870138D01*
X110722820Y-161870138D02*
X110699010Y-161870138D01*
X110675201Y-162060614D02*
X110484724Y-162060614D01*
X110341867Y-161905852D02*
X110306153Y-161917757D01*
X110306153Y-161917757D02*
X110294248Y-161929661D01*
X110294248Y-161929661D02*
X110282344Y-161953471D01*
X110282344Y-161953471D02*
X110282344Y-161989185D01*
X110282344Y-161989185D02*
X110294248Y-162012995D01*
X110294248Y-162012995D02*
X110306153Y-162024900D01*
X110306153Y-162024900D02*
X110329963Y-162036804D01*
X110329963Y-162036804D02*
X110425201Y-162036804D01*
X110425201Y-162036804D02*
X110425201Y-161786804D01*
X110425201Y-161786804D02*
X110341867Y-161786804D01*
X110341867Y-161786804D02*
X110318058Y-161798709D01*
X110318058Y-161798709D02*
X110306153Y-161810614D01*
X110306153Y-161810614D02*
X110294248Y-161834423D01*
X110294248Y-161834423D02*
X110294248Y-161858233D01*
X110294248Y-161858233D02*
X110306153Y-161882042D01*
X110306153Y-161882042D02*
X110318058Y-161893947D01*
X110318058Y-161893947D02*
X110341867Y-161905852D01*
X110341867Y-161905852D02*
X110425201Y-161905852D01*
X112782342Y-161486804D02*
X112782342Y-161236804D01*
X112782342Y-161236804D02*
X112699008Y-161415376D01*
X112699008Y-161415376D02*
X112615675Y-161236804D01*
X112615675Y-161236804D02*
X112615675Y-161486804D01*
X112520437Y-161236804D02*
X112365675Y-161236804D01*
X112365675Y-161236804D02*
X112449009Y-161332042D01*
X112449009Y-161332042D02*
X112413294Y-161332042D01*
X112413294Y-161332042D02*
X112389485Y-161343947D01*
X112389485Y-161343947D02*
X112377580Y-161355852D01*
X112377580Y-161355852D02*
X112365675Y-161379661D01*
X112365675Y-161379661D02*
X112365675Y-161439185D01*
X112365675Y-161439185D02*
X112377580Y-161462995D01*
X112377580Y-161462995D02*
X112389485Y-161474900D01*
X112389485Y-161474900D02*
X112413294Y-161486804D01*
X112413294Y-161486804D02*
X112484723Y-161486804D01*
X112484723Y-161486804D02*
X112508532Y-161474900D01*
X112508532Y-161474900D02*
X112520437Y-161462995D01*
X112318057Y-161510614D02*
X112127580Y-161510614D01*
X112068057Y-161355852D02*
X111984723Y-161355852D01*
X111949009Y-161486804D02*
X112068057Y-161486804D01*
X112068057Y-161486804D02*
X112068057Y-161236804D01*
X112068057Y-161236804D02*
X111949009Y-161236804D01*
X111841867Y-161320138D02*
X111841867Y-161486804D01*
X111841867Y-161343947D02*
X111829962Y-161332042D01*
X111829962Y-161332042D02*
X111806152Y-161320138D01*
X111806152Y-161320138D02*
X111770438Y-161320138D01*
X111770438Y-161320138D02*
X111746629Y-161332042D01*
X111746629Y-161332042D02*
X111734724Y-161355852D01*
X111734724Y-161355852D02*
X111734724Y-161486804D01*
X111508534Y-161474900D02*
X111532343Y-161486804D01*
X111532343Y-161486804D02*
X111579962Y-161486804D01*
X111579962Y-161486804D02*
X111603772Y-161474900D01*
X111603772Y-161474900D02*
X111615677Y-161462995D01*
X111615677Y-161462995D02*
X111627581Y-161439185D01*
X111627581Y-161439185D02*
X111627581Y-161367757D01*
X111627581Y-161367757D02*
X111615677Y-161343947D01*
X111615677Y-161343947D02*
X111603772Y-161332042D01*
X111603772Y-161332042D02*
X111579962Y-161320138D01*
X111579962Y-161320138D02*
X111532343Y-161320138D01*
X111532343Y-161320138D02*
X111508534Y-161332042D01*
X111365676Y-161486804D02*
X111389486Y-161474900D01*
X111389486Y-161474900D02*
X111401391Y-161462995D01*
X111401391Y-161462995D02*
X111413295Y-161439185D01*
X111413295Y-161439185D02*
X111413295Y-161367757D01*
X111413295Y-161367757D02*
X111401391Y-161343947D01*
X111401391Y-161343947D02*
X111389486Y-161332042D01*
X111389486Y-161332042D02*
X111365676Y-161320138D01*
X111365676Y-161320138D02*
X111329962Y-161320138D01*
X111329962Y-161320138D02*
X111306153Y-161332042D01*
X111306153Y-161332042D02*
X111294248Y-161343947D01*
X111294248Y-161343947D02*
X111282343Y-161367757D01*
X111282343Y-161367757D02*
X111282343Y-161439185D01*
X111282343Y-161439185D02*
X111294248Y-161462995D01*
X111294248Y-161462995D02*
X111306153Y-161474900D01*
X111306153Y-161474900D02*
X111329962Y-161486804D01*
X111329962Y-161486804D02*
X111365676Y-161486804D01*
X111068058Y-161486804D02*
X111068058Y-161236804D01*
X111068058Y-161474900D02*
X111091867Y-161486804D01*
X111091867Y-161486804D02*
X111139486Y-161486804D01*
X111139486Y-161486804D02*
X111163296Y-161474900D01*
X111163296Y-161474900D02*
X111175201Y-161462995D01*
X111175201Y-161462995D02*
X111187105Y-161439185D01*
X111187105Y-161439185D02*
X111187105Y-161367757D01*
X111187105Y-161367757D02*
X111175201Y-161343947D01*
X111175201Y-161343947D02*
X111163296Y-161332042D01*
X111163296Y-161332042D02*
X111139486Y-161320138D01*
X111139486Y-161320138D02*
X111091867Y-161320138D01*
X111091867Y-161320138D02*
X111068058Y-161332042D01*
X110853773Y-161474900D02*
X110877582Y-161486804D01*
X110877582Y-161486804D02*
X110925201Y-161486804D01*
X110925201Y-161486804D02*
X110949011Y-161474900D01*
X110949011Y-161474900D02*
X110960915Y-161451090D01*
X110960915Y-161451090D02*
X110960915Y-161355852D01*
X110960915Y-161355852D02*
X110949011Y-161332042D01*
X110949011Y-161332042D02*
X110925201Y-161320138D01*
X110925201Y-161320138D02*
X110877582Y-161320138D01*
X110877582Y-161320138D02*
X110853773Y-161332042D01*
X110853773Y-161332042D02*
X110841868Y-161355852D01*
X110841868Y-161355852D02*
X110841868Y-161379661D01*
X110841868Y-161379661D02*
X110960915Y-161403471D01*
X110734725Y-161486804D02*
X110734725Y-161320138D01*
X110734725Y-161367757D02*
X110722820Y-161343947D01*
X110722820Y-161343947D02*
X110710915Y-161332042D01*
X110710915Y-161332042D02*
X110687106Y-161320138D01*
X110687106Y-161320138D02*
X110663296Y-161320138D01*
X110639487Y-161510614D02*
X110449010Y-161510614D01*
X110401391Y-161415376D02*
X110282344Y-161415376D01*
X110425201Y-161486804D02*
X110341868Y-161236804D01*
X110341868Y-161236804D02*
X110258534Y-161486804D01*
X110508534Y-160676804D02*
X110627582Y-160676804D01*
X110627582Y-160676804D02*
X110639486Y-160795852D01*
X110639486Y-160795852D02*
X110627582Y-160783947D01*
X110627582Y-160783947D02*
X110603772Y-160772042D01*
X110603772Y-160772042D02*
X110544248Y-160772042D01*
X110544248Y-160772042D02*
X110520439Y-160783947D01*
X110520439Y-160783947D02*
X110508534Y-160795852D01*
X110508534Y-160795852D02*
X110496629Y-160819661D01*
X110496629Y-160819661D02*
X110496629Y-160879185D01*
X110496629Y-160879185D02*
X110508534Y-160902995D01*
X110508534Y-160902995D02*
X110520439Y-160914900D01*
X110520439Y-160914900D02*
X110544248Y-160926804D01*
X110544248Y-160926804D02*
X110603772Y-160926804D01*
X110603772Y-160926804D02*
X110627582Y-160914900D01*
X110627582Y-160914900D02*
X110639486Y-160902995D01*
X110425201Y-160676804D02*
X110341868Y-160926804D01*
X110341868Y-160926804D02*
X110258534Y-160676804D01*
X264079486Y-96532923D02*
X264079486Y-96332923D01*
X264079486Y-96332923D02*
X264012820Y-96475780D01*
X264012820Y-96475780D02*
X263946153Y-96332923D01*
X263946153Y-96332923D02*
X263946153Y-96532923D01*
X263860439Y-96351971D02*
X263850915Y-96342447D01*
X263850915Y-96342447D02*
X263831868Y-96332923D01*
X263831868Y-96332923D02*
X263784249Y-96332923D01*
X263784249Y-96332923D02*
X263765201Y-96342447D01*
X263765201Y-96342447D02*
X263755677Y-96351971D01*
X263755677Y-96351971D02*
X263746154Y-96371019D01*
X263746154Y-96371019D02*
X263746154Y-96390066D01*
X263746154Y-96390066D02*
X263755677Y-96418638D01*
X263755677Y-96418638D02*
X263869963Y-96532923D01*
X263869963Y-96532923D02*
X263746154Y-96532923D01*
X263708059Y-96551971D02*
X263555678Y-96551971D01*
X263508058Y-96428161D02*
X263441392Y-96428161D01*
X263412820Y-96532923D02*
X263508058Y-96532923D01*
X263508058Y-96532923D02*
X263508058Y-96332923D01*
X263508058Y-96332923D02*
X263412820Y-96332923D01*
X263327106Y-96399590D02*
X263327106Y-96532923D01*
X263327106Y-96418638D02*
X263317583Y-96409114D01*
X263317583Y-96409114D02*
X263298535Y-96399590D01*
X263298535Y-96399590D02*
X263269964Y-96399590D01*
X263269964Y-96399590D02*
X263250916Y-96409114D01*
X263250916Y-96409114D02*
X263241392Y-96428161D01*
X263241392Y-96428161D02*
X263241392Y-96532923D01*
X263060440Y-96523400D02*
X263079488Y-96532923D01*
X263079488Y-96532923D02*
X263117583Y-96532923D01*
X263117583Y-96532923D02*
X263136631Y-96523400D01*
X263136631Y-96523400D02*
X263146154Y-96513876D01*
X263146154Y-96513876D02*
X263155678Y-96494828D01*
X263155678Y-96494828D02*
X263155678Y-96437685D01*
X263155678Y-96437685D02*
X263146154Y-96418638D01*
X263146154Y-96418638D02*
X263136631Y-96409114D01*
X263136631Y-96409114D02*
X263117583Y-96399590D01*
X263117583Y-96399590D02*
X263079488Y-96399590D01*
X263079488Y-96399590D02*
X263060440Y-96409114D01*
X262946154Y-96532923D02*
X262965202Y-96523400D01*
X262965202Y-96523400D02*
X262974725Y-96513876D01*
X262974725Y-96513876D02*
X262984249Y-96494828D01*
X262984249Y-96494828D02*
X262984249Y-96437685D01*
X262984249Y-96437685D02*
X262974725Y-96418638D01*
X262974725Y-96418638D02*
X262965202Y-96409114D01*
X262965202Y-96409114D02*
X262946154Y-96399590D01*
X262946154Y-96399590D02*
X262917583Y-96399590D01*
X262917583Y-96399590D02*
X262898535Y-96409114D01*
X262898535Y-96409114D02*
X262889011Y-96418638D01*
X262889011Y-96418638D02*
X262879487Y-96437685D01*
X262879487Y-96437685D02*
X262879487Y-96494828D01*
X262879487Y-96494828D02*
X262889011Y-96513876D01*
X262889011Y-96513876D02*
X262898535Y-96523400D01*
X262898535Y-96523400D02*
X262917583Y-96532923D01*
X262917583Y-96532923D02*
X262946154Y-96532923D01*
X262708059Y-96532923D02*
X262708059Y-96332923D01*
X262708059Y-96523400D02*
X262727107Y-96532923D01*
X262727107Y-96532923D02*
X262765202Y-96532923D01*
X262765202Y-96532923D02*
X262784250Y-96523400D01*
X262784250Y-96523400D02*
X262793773Y-96513876D01*
X262793773Y-96513876D02*
X262803297Y-96494828D01*
X262803297Y-96494828D02*
X262803297Y-96437685D01*
X262803297Y-96437685D02*
X262793773Y-96418638D01*
X262793773Y-96418638D02*
X262784250Y-96409114D01*
X262784250Y-96409114D02*
X262765202Y-96399590D01*
X262765202Y-96399590D02*
X262727107Y-96399590D01*
X262727107Y-96399590D02*
X262708059Y-96409114D01*
X262536631Y-96523400D02*
X262555679Y-96532923D01*
X262555679Y-96532923D02*
X262593774Y-96532923D01*
X262593774Y-96532923D02*
X262612821Y-96523400D01*
X262612821Y-96523400D02*
X262622345Y-96504352D01*
X262622345Y-96504352D02*
X262622345Y-96428161D01*
X262622345Y-96428161D02*
X262612821Y-96409114D01*
X262612821Y-96409114D02*
X262593774Y-96399590D01*
X262593774Y-96399590D02*
X262555679Y-96399590D01*
X262555679Y-96399590D02*
X262536631Y-96409114D01*
X262536631Y-96409114D02*
X262527107Y-96428161D01*
X262527107Y-96428161D02*
X262527107Y-96447209D01*
X262527107Y-96447209D02*
X262622345Y-96466257D01*
X262441392Y-96532923D02*
X262441392Y-96399590D01*
X262441392Y-96437685D02*
X262431869Y-96418638D01*
X262431869Y-96418638D02*
X262422345Y-96409114D01*
X262422345Y-96409114D02*
X262403297Y-96399590D01*
X262403297Y-96399590D02*
X262384250Y-96399590D01*
X262365202Y-96551971D02*
X262212821Y-96551971D01*
X262174725Y-96475780D02*
X262079487Y-96475780D01*
X262193773Y-96532923D02*
X262127106Y-96332923D01*
X262127106Y-96332923D02*
X262060440Y-96532923D01*
D11*
X268592304Y-138186347D02*
X268782780Y-138186347D01*
X268782780Y-138186347D02*
X268801828Y-138376823D01*
X268801828Y-138376823D02*
X268782780Y-138357776D01*
X268782780Y-138357776D02*
X268744685Y-138338728D01*
X268744685Y-138338728D02*
X268649447Y-138338728D01*
X268649447Y-138338728D02*
X268611352Y-138357776D01*
X268611352Y-138357776D02*
X268592304Y-138376823D01*
X268592304Y-138376823D02*
X268573257Y-138414919D01*
X268573257Y-138414919D02*
X268573257Y-138510157D01*
X268573257Y-138510157D02*
X268592304Y-138548252D01*
X268592304Y-138548252D02*
X268611352Y-138567300D01*
X268611352Y-138567300D02*
X268649447Y-138586347D01*
X268649447Y-138586347D02*
X268744685Y-138586347D01*
X268744685Y-138586347D02*
X268782780Y-138567300D01*
X268782780Y-138567300D02*
X268801828Y-138548252D01*
X268458971Y-138186347D02*
X268325638Y-138586347D01*
X268325638Y-138586347D02*
X268192305Y-138186347D01*
X270001828Y-121945847D02*
X270001828Y-121545847D01*
X270001828Y-121545847D02*
X269868495Y-121831561D01*
X269868495Y-121831561D02*
X269735162Y-121545847D01*
X269735162Y-121545847D02*
X269735162Y-121945847D01*
X269563733Y-121583942D02*
X269544685Y-121564895D01*
X269544685Y-121564895D02*
X269506590Y-121545847D01*
X269506590Y-121545847D02*
X269411352Y-121545847D01*
X269411352Y-121545847D02*
X269373257Y-121564895D01*
X269373257Y-121564895D02*
X269354209Y-121583942D01*
X269354209Y-121583942D02*
X269335162Y-121622038D01*
X269335162Y-121622038D02*
X269335162Y-121660133D01*
X269335162Y-121660133D02*
X269354209Y-121717276D01*
X269354209Y-121717276D02*
X269582781Y-121945847D01*
X269582781Y-121945847D02*
X269335162Y-121945847D01*
X269258972Y-121983942D02*
X268954210Y-121983942D01*
X268858971Y-121945847D02*
X268858971Y-121545847D01*
X268858971Y-121736323D02*
X268630400Y-121736323D01*
X268630400Y-121945847D02*
X268630400Y-121545847D01*
X268230400Y-121945847D02*
X268458971Y-121945847D01*
X268344685Y-121945847D02*
X268344685Y-121545847D01*
X268344685Y-121545847D02*
X268382781Y-121602990D01*
X268382781Y-121602990D02*
X268420876Y-121641085D01*
X268420876Y-121641085D02*
X268458971Y-121660133D01*
D10*
X264169486Y-158932923D02*
X264169486Y-158732923D01*
X264169486Y-158732923D02*
X264102820Y-158875780D01*
X264102820Y-158875780D02*
X264036153Y-158732923D01*
X264036153Y-158732923D02*
X264036153Y-158932923D01*
X263855201Y-158799590D02*
X263855201Y-158932923D01*
X263902820Y-158723400D02*
X263950439Y-158866257D01*
X263950439Y-158866257D02*
X263826630Y-158866257D01*
X263798059Y-158951971D02*
X263645678Y-158951971D01*
X263598058Y-158828161D02*
X263531392Y-158828161D01*
X263502820Y-158932923D02*
X263598058Y-158932923D01*
X263598058Y-158932923D02*
X263598058Y-158732923D01*
X263598058Y-158732923D02*
X263502820Y-158732923D01*
X263417106Y-158799590D02*
X263417106Y-158932923D01*
X263417106Y-158818638D02*
X263407583Y-158809114D01*
X263407583Y-158809114D02*
X263388535Y-158799590D01*
X263388535Y-158799590D02*
X263359964Y-158799590D01*
X263359964Y-158799590D02*
X263340916Y-158809114D01*
X263340916Y-158809114D02*
X263331392Y-158828161D01*
X263331392Y-158828161D02*
X263331392Y-158932923D01*
X263150440Y-158923400D02*
X263169488Y-158932923D01*
X263169488Y-158932923D02*
X263207583Y-158932923D01*
X263207583Y-158932923D02*
X263226631Y-158923400D01*
X263226631Y-158923400D02*
X263236154Y-158913876D01*
X263236154Y-158913876D02*
X263245678Y-158894828D01*
X263245678Y-158894828D02*
X263245678Y-158837685D01*
X263245678Y-158837685D02*
X263236154Y-158818638D01*
X263236154Y-158818638D02*
X263226631Y-158809114D01*
X263226631Y-158809114D02*
X263207583Y-158799590D01*
X263207583Y-158799590D02*
X263169488Y-158799590D01*
X263169488Y-158799590D02*
X263150440Y-158809114D01*
X263036154Y-158932923D02*
X263055202Y-158923400D01*
X263055202Y-158923400D02*
X263064725Y-158913876D01*
X263064725Y-158913876D02*
X263074249Y-158894828D01*
X263074249Y-158894828D02*
X263074249Y-158837685D01*
X263074249Y-158837685D02*
X263064725Y-158818638D01*
X263064725Y-158818638D02*
X263055202Y-158809114D01*
X263055202Y-158809114D02*
X263036154Y-158799590D01*
X263036154Y-158799590D02*
X263007583Y-158799590D01*
X263007583Y-158799590D02*
X262988535Y-158809114D01*
X262988535Y-158809114D02*
X262979011Y-158818638D01*
X262979011Y-158818638D02*
X262969487Y-158837685D01*
X262969487Y-158837685D02*
X262969487Y-158894828D01*
X262969487Y-158894828D02*
X262979011Y-158913876D01*
X262979011Y-158913876D02*
X262988535Y-158923400D01*
X262988535Y-158923400D02*
X263007583Y-158932923D01*
X263007583Y-158932923D02*
X263036154Y-158932923D01*
X262798059Y-158932923D02*
X262798059Y-158732923D01*
X262798059Y-158923400D02*
X262817107Y-158932923D01*
X262817107Y-158932923D02*
X262855202Y-158932923D01*
X262855202Y-158932923D02*
X262874250Y-158923400D01*
X262874250Y-158923400D02*
X262883773Y-158913876D01*
X262883773Y-158913876D02*
X262893297Y-158894828D01*
X262893297Y-158894828D02*
X262893297Y-158837685D01*
X262893297Y-158837685D02*
X262883773Y-158818638D01*
X262883773Y-158818638D02*
X262874250Y-158809114D01*
X262874250Y-158809114D02*
X262855202Y-158799590D01*
X262855202Y-158799590D02*
X262817107Y-158799590D01*
X262817107Y-158799590D02*
X262798059Y-158809114D01*
X262626631Y-158923400D02*
X262645679Y-158932923D01*
X262645679Y-158932923D02*
X262683774Y-158932923D01*
X262683774Y-158932923D02*
X262702821Y-158923400D01*
X262702821Y-158923400D02*
X262712345Y-158904352D01*
X262712345Y-158904352D02*
X262712345Y-158828161D01*
X262712345Y-158828161D02*
X262702821Y-158809114D01*
X262702821Y-158809114D02*
X262683774Y-158799590D01*
X262683774Y-158799590D02*
X262645679Y-158799590D01*
X262645679Y-158799590D02*
X262626631Y-158809114D01*
X262626631Y-158809114D02*
X262617107Y-158828161D01*
X262617107Y-158828161D02*
X262617107Y-158847209D01*
X262617107Y-158847209D02*
X262712345Y-158866257D01*
X262531392Y-158932923D02*
X262531392Y-158799590D01*
X262531392Y-158837685D02*
X262521869Y-158818638D01*
X262521869Y-158818638D02*
X262512345Y-158809114D01*
X262512345Y-158809114D02*
X262493297Y-158799590D01*
X262493297Y-158799590D02*
X262474250Y-158799590D01*
X262455202Y-158951971D02*
X262302821Y-158951971D01*
X262264725Y-158875780D02*
X262169487Y-158875780D01*
X262283773Y-158932923D02*
X262217106Y-158732923D01*
X262217106Y-158732923D02*
X262150440Y-158932923D01*
D11*
X270001828Y-132586347D02*
X270001828Y-132186347D01*
X270001828Y-132186347D02*
X269868495Y-132472061D01*
X269868495Y-132472061D02*
X269735162Y-132186347D01*
X269735162Y-132186347D02*
X269735162Y-132586347D01*
X269373257Y-132319680D02*
X269373257Y-132586347D01*
X269468495Y-132167300D02*
X269563733Y-132453014D01*
X269563733Y-132453014D02*
X269316114Y-132453014D01*
X269258972Y-132624442D02*
X268954210Y-132624442D01*
X268858971Y-132586347D02*
X268858971Y-132186347D01*
X268858971Y-132376823D02*
X268630400Y-132376823D01*
X268630400Y-132586347D02*
X268630400Y-132186347D01*
X268478019Y-132186347D02*
X268230400Y-132186347D01*
X268230400Y-132186347D02*
X268363733Y-132338728D01*
X268363733Y-132338728D02*
X268306590Y-132338728D01*
X268306590Y-132338728D02*
X268268495Y-132357776D01*
X268268495Y-132357776D02*
X268249447Y-132376823D01*
X268249447Y-132376823D02*
X268230400Y-132414919D01*
X268230400Y-132414919D02*
X268230400Y-132510157D01*
X268230400Y-132510157D02*
X268249447Y-132548252D01*
X268249447Y-132548252D02*
X268268495Y-132567300D01*
X268268495Y-132567300D02*
X268306590Y-132586347D01*
X268306590Y-132586347D02*
X268420876Y-132586347D01*
X268420876Y-132586347D02*
X268458971Y-132567300D01*
X268458971Y-132567300D02*
X268478019Y-132548252D01*
D10*
X263974725Y-97292447D02*
X263993772Y-97282923D01*
X263993772Y-97282923D02*
X264022344Y-97282923D01*
X264022344Y-97282923D02*
X264050915Y-97292447D01*
X264050915Y-97292447D02*
X264069963Y-97311495D01*
X264069963Y-97311495D02*
X264079486Y-97330542D01*
X264079486Y-97330542D02*
X264089010Y-97368638D01*
X264089010Y-97368638D02*
X264089010Y-97397209D01*
X264089010Y-97397209D02*
X264079486Y-97435304D01*
X264079486Y-97435304D02*
X264069963Y-97454352D01*
X264069963Y-97454352D02*
X264050915Y-97473400D01*
X264050915Y-97473400D02*
X264022344Y-97482923D01*
X264022344Y-97482923D02*
X264003296Y-97482923D01*
X264003296Y-97482923D02*
X263974725Y-97473400D01*
X263974725Y-97473400D02*
X263965201Y-97463876D01*
X263965201Y-97463876D02*
X263965201Y-97397209D01*
X263965201Y-97397209D02*
X264003296Y-97397209D01*
X263879486Y-97482923D02*
X263879486Y-97282923D01*
X263879486Y-97282923D02*
X263765201Y-97482923D01*
X263765201Y-97482923D02*
X263765201Y-97282923D01*
X263669962Y-97482923D02*
X263669962Y-97282923D01*
X263669962Y-97282923D02*
X263622343Y-97282923D01*
X263622343Y-97282923D02*
X263593772Y-97292447D01*
X263593772Y-97292447D02*
X263574724Y-97311495D01*
X263574724Y-97311495D02*
X263565201Y-97330542D01*
X263565201Y-97330542D02*
X263555677Y-97368638D01*
X263555677Y-97368638D02*
X263555677Y-97397209D01*
X263555677Y-97397209D02*
X263565201Y-97435304D01*
X263565201Y-97435304D02*
X263574724Y-97454352D01*
X263574724Y-97454352D02*
X263593772Y-97473400D01*
X263593772Y-97473400D02*
X263622343Y-97482923D01*
X263622343Y-97482923D02*
X263669962Y-97482923D01*
X264169486Y-159322923D02*
X264169486Y-159122923D01*
X264169486Y-159122923D02*
X264102820Y-159265780D01*
X264102820Y-159265780D02*
X264036153Y-159122923D01*
X264036153Y-159122923D02*
X264036153Y-159322923D01*
X263855201Y-159189590D02*
X263855201Y-159322923D01*
X263902820Y-159113400D02*
X263950439Y-159256257D01*
X263950439Y-159256257D02*
X263826630Y-159256257D01*
X263798059Y-159341971D02*
X263645678Y-159341971D01*
X263598058Y-159218161D02*
X263531392Y-159218161D01*
X263502820Y-159322923D02*
X263598058Y-159322923D01*
X263598058Y-159322923D02*
X263598058Y-159122923D01*
X263598058Y-159122923D02*
X263502820Y-159122923D01*
X263417106Y-159189590D02*
X263417106Y-159322923D01*
X263417106Y-159208638D02*
X263407583Y-159199114D01*
X263407583Y-159199114D02*
X263388535Y-159189590D01*
X263388535Y-159189590D02*
X263359964Y-159189590D01*
X263359964Y-159189590D02*
X263340916Y-159199114D01*
X263340916Y-159199114D02*
X263331392Y-159218161D01*
X263331392Y-159218161D02*
X263331392Y-159322923D01*
X263150440Y-159313400D02*
X263169488Y-159322923D01*
X263169488Y-159322923D02*
X263207583Y-159322923D01*
X263207583Y-159322923D02*
X263226631Y-159313400D01*
X263226631Y-159313400D02*
X263236154Y-159303876D01*
X263236154Y-159303876D02*
X263245678Y-159284828D01*
X263245678Y-159284828D02*
X263245678Y-159227685D01*
X263245678Y-159227685D02*
X263236154Y-159208638D01*
X263236154Y-159208638D02*
X263226631Y-159199114D01*
X263226631Y-159199114D02*
X263207583Y-159189590D01*
X263207583Y-159189590D02*
X263169488Y-159189590D01*
X263169488Y-159189590D02*
X263150440Y-159199114D01*
X263036154Y-159322923D02*
X263055202Y-159313400D01*
X263055202Y-159313400D02*
X263064725Y-159303876D01*
X263064725Y-159303876D02*
X263074249Y-159284828D01*
X263074249Y-159284828D02*
X263074249Y-159227685D01*
X263074249Y-159227685D02*
X263064725Y-159208638D01*
X263064725Y-159208638D02*
X263055202Y-159199114D01*
X263055202Y-159199114D02*
X263036154Y-159189590D01*
X263036154Y-159189590D02*
X263007583Y-159189590D01*
X263007583Y-159189590D02*
X262988535Y-159199114D01*
X262988535Y-159199114D02*
X262979011Y-159208638D01*
X262979011Y-159208638D02*
X262969487Y-159227685D01*
X262969487Y-159227685D02*
X262969487Y-159284828D01*
X262969487Y-159284828D02*
X262979011Y-159303876D01*
X262979011Y-159303876D02*
X262988535Y-159313400D01*
X262988535Y-159313400D02*
X263007583Y-159322923D01*
X263007583Y-159322923D02*
X263036154Y-159322923D01*
X262798059Y-159322923D02*
X262798059Y-159122923D01*
X262798059Y-159313400D02*
X262817107Y-159322923D01*
X262817107Y-159322923D02*
X262855202Y-159322923D01*
X262855202Y-159322923D02*
X262874250Y-159313400D01*
X262874250Y-159313400D02*
X262883773Y-159303876D01*
X262883773Y-159303876D02*
X262893297Y-159284828D01*
X262893297Y-159284828D02*
X262893297Y-159227685D01*
X262893297Y-159227685D02*
X262883773Y-159208638D01*
X262883773Y-159208638D02*
X262874250Y-159199114D01*
X262874250Y-159199114D02*
X262855202Y-159189590D01*
X262855202Y-159189590D02*
X262817107Y-159189590D01*
X262817107Y-159189590D02*
X262798059Y-159199114D01*
X262626631Y-159313400D02*
X262645679Y-159322923D01*
X262645679Y-159322923D02*
X262683774Y-159322923D01*
X262683774Y-159322923D02*
X262702821Y-159313400D01*
X262702821Y-159313400D02*
X262712345Y-159294352D01*
X262712345Y-159294352D02*
X262712345Y-159218161D01*
X262712345Y-159218161D02*
X262702821Y-159199114D01*
X262702821Y-159199114D02*
X262683774Y-159189590D01*
X262683774Y-159189590D02*
X262645679Y-159189590D01*
X262645679Y-159189590D02*
X262626631Y-159199114D01*
X262626631Y-159199114D02*
X262617107Y-159218161D01*
X262617107Y-159218161D02*
X262617107Y-159237209D01*
X262617107Y-159237209D02*
X262712345Y-159256257D01*
X262531392Y-159322923D02*
X262531392Y-159189590D01*
X262531392Y-159227685D02*
X262521869Y-159208638D01*
X262521869Y-159208638D02*
X262512345Y-159199114D01*
X262512345Y-159199114D02*
X262493297Y-159189590D01*
X262493297Y-159189590D02*
X262474250Y-159189590D01*
X262455202Y-159341971D02*
X262302821Y-159341971D01*
X262188535Y-159218161D02*
X262159963Y-159227685D01*
X262159963Y-159227685D02*
X262150440Y-159237209D01*
X262150440Y-159237209D02*
X262140916Y-159256257D01*
X262140916Y-159256257D02*
X262140916Y-159284828D01*
X262140916Y-159284828D02*
X262150440Y-159303876D01*
X262150440Y-159303876D02*
X262159963Y-159313400D01*
X262159963Y-159313400D02*
X262179011Y-159322923D01*
X262179011Y-159322923D02*
X262255201Y-159322923D01*
X262255201Y-159322923D02*
X262255201Y-159122923D01*
X262255201Y-159122923D02*
X262188535Y-159122923D01*
X262188535Y-159122923D02*
X262169487Y-159132447D01*
X262169487Y-159132447D02*
X262159963Y-159141971D01*
X262159963Y-159141971D02*
X262150440Y-159161019D01*
X262150440Y-159161019D02*
X262150440Y-159180066D01*
X262150440Y-159180066D02*
X262159963Y-159199114D01*
X262159963Y-159199114D02*
X262169487Y-159208638D01*
X262169487Y-159208638D02*
X262188535Y-159218161D01*
X262188535Y-159218161D02*
X262255201Y-159218161D01*
X264064725Y-159602447D02*
X264083772Y-159592923D01*
X264083772Y-159592923D02*
X264112344Y-159592923D01*
X264112344Y-159592923D02*
X264140915Y-159602447D01*
X264140915Y-159602447D02*
X264159963Y-159621495D01*
X264159963Y-159621495D02*
X264169486Y-159640542D01*
X264169486Y-159640542D02*
X264179010Y-159678638D01*
X264179010Y-159678638D02*
X264179010Y-159707209D01*
X264179010Y-159707209D02*
X264169486Y-159745304D01*
X264169486Y-159745304D02*
X264159963Y-159764352D01*
X264159963Y-159764352D02*
X264140915Y-159783400D01*
X264140915Y-159783400D02*
X264112344Y-159792923D01*
X264112344Y-159792923D02*
X264093296Y-159792923D01*
X264093296Y-159792923D02*
X264064725Y-159783400D01*
X264064725Y-159783400D02*
X264055201Y-159773876D01*
X264055201Y-159773876D02*
X264055201Y-159707209D01*
X264055201Y-159707209D02*
X264093296Y-159707209D01*
X263969486Y-159792923D02*
X263969486Y-159592923D01*
X263969486Y-159592923D02*
X263855201Y-159792923D01*
X263855201Y-159792923D02*
X263855201Y-159592923D01*
X263759962Y-159792923D02*
X263759962Y-159592923D01*
X263759962Y-159592923D02*
X263712343Y-159592923D01*
X263712343Y-159592923D02*
X263683772Y-159602447D01*
X263683772Y-159602447D02*
X263664724Y-159621495D01*
X263664724Y-159621495D02*
X263655201Y-159640542D01*
X263655201Y-159640542D02*
X263645677Y-159678638D01*
X263645677Y-159678638D02*
X263645677Y-159707209D01*
X263645677Y-159707209D02*
X263655201Y-159745304D01*
X263655201Y-159745304D02*
X263664724Y-159764352D01*
X263664724Y-159764352D02*
X263683772Y-159783400D01*
X263683772Y-159783400D02*
X263712343Y-159792923D01*
X263712343Y-159792923D02*
X263759962Y-159792923D01*
X263984248Y-95722923D02*
X264079486Y-95722923D01*
X264079486Y-95722923D02*
X264089010Y-95818161D01*
X264089010Y-95818161D02*
X264079486Y-95808638D01*
X264079486Y-95808638D02*
X264060439Y-95799114D01*
X264060439Y-95799114D02*
X264012820Y-95799114D01*
X264012820Y-95799114D02*
X263993772Y-95808638D01*
X263993772Y-95808638D02*
X263984248Y-95818161D01*
X263984248Y-95818161D02*
X263974725Y-95837209D01*
X263974725Y-95837209D02*
X263974725Y-95884828D01*
X263974725Y-95884828D02*
X263984248Y-95903876D01*
X263984248Y-95903876D02*
X263993772Y-95913400D01*
X263993772Y-95913400D02*
X264012820Y-95922923D01*
X264012820Y-95922923D02*
X264060439Y-95922923D01*
X264060439Y-95922923D02*
X264079486Y-95913400D01*
X264079486Y-95913400D02*
X264089010Y-95903876D01*
X263917582Y-95722923D02*
X263850915Y-95922923D01*
X263850915Y-95922923D02*
X263784249Y-95722923D01*
D11*
X269068496Y-125564895D02*
X269106591Y-125545847D01*
X269106591Y-125545847D02*
X269163734Y-125545847D01*
X269163734Y-125545847D02*
X269220877Y-125564895D01*
X269220877Y-125564895D02*
X269258972Y-125602990D01*
X269258972Y-125602990D02*
X269278019Y-125641085D01*
X269278019Y-125641085D02*
X269297067Y-125717276D01*
X269297067Y-125717276D02*
X269297067Y-125774419D01*
X269297067Y-125774419D02*
X269278019Y-125850609D01*
X269278019Y-125850609D02*
X269258972Y-125888704D01*
X269258972Y-125888704D02*
X269220877Y-125926800D01*
X269220877Y-125926800D02*
X269163734Y-125945847D01*
X269163734Y-125945847D02*
X269125638Y-125945847D01*
X269125638Y-125945847D02*
X269068496Y-125926800D01*
X269068496Y-125926800D02*
X269049448Y-125907752D01*
X269049448Y-125907752D02*
X269049448Y-125774419D01*
X269049448Y-125774419D02*
X269125638Y-125774419D01*
X268878019Y-125945847D02*
X268878019Y-125545847D01*
X268878019Y-125545847D02*
X268649448Y-125945847D01*
X268649448Y-125945847D02*
X268649448Y-125545847D01*
X268458971Y-125945847D02*
X268458971Y-125545847D01*
X268458971Y-125545847D02*
X268363733Y-125545847D01*
X268363733Y-125545847D02*
X268306590Y-125564895D01*
X268306590Y-125564895D02*
X268268495Y-125602990D01*
X268268495Y-125602990D02*
X268249448Y-125641085D01*
X268249448Y-125641085D02*
X268230400Y-125717276D01*
X268230400Y-125717276D02*
X268230400Y-125774419D01*
X268230400Y-125774419D02*
X268249448Y-125850609D01*
X268249448Y-125850609D02*
X268268495Y-125888704D01*
X268268495Y-125888704D02*
X268306590Y-125926800D01*
X268306590Y-125926800D02*
X268363733Y-125945847D01*
X268363733Y-125945847D02*
X268458971Y-125945847D01*
X268592304Y-123545847D02*
X268782780Y-123545847D01*
X268782780Y-123545847D02*
X268801828Y-123736323D01*
X268801828Y-123736323D02*
X268782780Y-123717276D01*
X268782780Y-123717276D02*
X268744685Y-123698228D01*
X268744685Y-123698228D02*
X268649447Y-123698228D01*
X268649447Y-123698228D02*
X268611352Y-123717276D01*
X268611352Y-123717276D02*
X268592304Y-123736323D01*
X268592304Y-123736323D02*
X268573257Y-123774419D01*
X268573257Y-123774419D02*
X268573257Y-123869657D01*
X268573257Y-123869657D02*
X268592304Y-123907752D01*
X268592304Y-123907752D02*
X268611352Y-123926800D01*
X268611352Y-123926800D02*
X268649447Y-123945847D01*
X268649447Y-123945847D02*
X268744685Y-123945847D01*
X268744685Y-123945847D02*
X268782780Y-123926800D01*
X268782780Y-123926800D02*
X268801828Y-123907752D01*
X268458971Y-123545847D02*
X268325638Y-123945847D01*
X268325638Y-123945847D02*
X268192305Y-123545847D01*
X269068496Y-115564895D02*
X269106591Y-115545847D01*
X269106591Y-115545847D02*
X269163734Y-115545847D01*
X269163734Y-115545847D02*
X269220877Y-115564895D01*
X269220877Y-115564895D02*
X269258972Y-115602990D01*
X269258972Y-115602990D02*
X269278019Y-115641085D01*
X269278019Y-115641085D02*
X269297067Y-115717276D01*
X269297067Y-115717276D02*
X269297067Y-115774419D01*
X269297067Y-115774419D02*
X269278019Y-115850609D01*
X269278019Y-115850609D02*
X269258972Y-115888704D01*
X269258972Y-115888704D02*
X269220877Y-115926800D01*
X269220877Y-115926800D02*
X269163734Y-115945847D01*
X269163734Y-115945847D02*
X269125638Y-115945847D01*
X269125638Y-115945847D02*
X269068496Y-115926800D01*
X269068496Y-115926800D02*
X269049448Y-115907752D01*
X269049448Y-115907752D02*
X269049448Y-115774419D01*
X269049448Y-115774419D02*
X269125638Y-115774419D01*
X268878019Y-115945847D02*
X268878019Y-115545847D01*
X268878019Y-115545847D02*
X268649448Y-115945847D01*
X268649448Y-115945847D02*
X268649448Y-115545847D01*
X268458971Y-115945847D02*
X268458971Y-115545847D01*
X268458971Y-115545847D02*
X268363733Y-115545847D01*
X268363733Y-115545847D02*
X268306590Y-115564895D01*
X268306590Y-115564895D02*
X268268495Y-115602990D01*
X268268495Y-115602990D02*
X268249448Y-115641085D01*
X268249448Y-115641085D02*
X268230400Y-115717276D01*
X268230400Y-115717276D02*
X268230400Y-115774419D01*
X268230400Y-115774419D02*
X268249448Y-115850609D01*
X268249448Y-115850609D02*
X268268495Y-115888704D01*
X268268495Y-115888704D02*
X268306590Y-115926800D01*
X268306590Y-115926800D02*
X268363733Y-115945847D01*
X268363733Y-115945847D02*
X268458971Y-115945847D01*
X269068496Y-130205395D02*
X269106591Y-130186347D01*
X269106591Y-130186347D02*
X269163734Y-130186347D01*
X269163734Y-130186347D02*
X269220877Y-130205395D01*
X269220877Y-130205395D02*
X269258972Y-130243490D01*
X269258972Y-130243490D02*
X269278019Y-130281585D01*
X269278019Y-130281585D02*
X269297067Y-130357776D01*
X269297067Y-130357776D02*
X269297067Y-130414919D01*
X269297067Y-130414919D02*
X269278019Y-130491109D01*
X269278019Y-130491109D02*
X269258972Y-130529204D01*
X269258972Y-130529204D02*
X269220877Y-130567300D01*
X269220877Y-130567300D02*
X269163734Y-130586347D01*
X269163734Y-130586347D02*
X269125638Y-130586347D01*
X269125638Y-130586347D02*
X269068496Y-130567300D01*
X269068496Y-130567300D02*
X269049448Y-130548252D01*
X269049448Y-130548252D02*
X269049448Y-130414919D01*
X269049448Y-130414919D02*
X269125638Y-130414919D01*
X268878019Y-130586347D02*
X268878019Y-130186347D01*
X268878019Y-130186347D02*
X268649448Y-130586347D01*
X268649448Y-130586347D02*
X268649448Y-130186347D01*
X268458971Y-130586347D02*
X268458971Y-130186347D01*
X268458971Y-130186347D02*
X268363733Y-130186347D01*
X268363733Y-130186347D02*
X268306590Y-130205395D01*
X268306590Y-130205395D02*
X268268495Y-130243490D01*
X268268495Y-130243490D02*
X268249448Y-130281585D01*
X268249448Y-130281585D02*
X268230400Y-130357776D01*
X268230400Y-130357776D02*
X268230400Y-130414919D01*
X268230400Y-130414919D02*
X268249448Y-130491109D01*
X268249448Y-130491109D02*
X268268495Y-130529204D01*
X268268495Y-130529204D02*
X268306590Y-130567300D01*
X268306590Y-130567300D02*
X268363733Y-130586347D01*
X268363733Y-130586347D02*
X268458971Y-130586347D01*
X270001828Y-134586347D02*
X270001828Y-134186347D01*
X270001828Y-134186347D02*
X269868495Y-134472061D01*
X269868495Y-134472061D02*
X269735162Y-134186347D01*
X269735162Y-134186347D02*
X269735162Y-134586347D01*
X269373257Y-134319680D02*
X269373257Y-134586347D01*
X269468495Y-134167300D02*
X269563733Y-134453014D01*
X269563733Y-134453014D02*
X269316114Y-134453014D01*
X269258972Y-134624442D02*
X268954210Y-134624442D01*
X268858971Y-134586347D02*
X268858971Y-134186347D01*
X268858971Y-134376823D02*
X268630400Y-134376823D01*
X268630400Y-134586347D02*
X268630400Y-134186347D01*
X268458971Y-134224442D02*
X268439923Y-134205395D01*
X268439923Y-134205395D02*
X268401828Y-134186347D01*
X268401828Y-134186347D02*
X268306590Y-134186347D01*
X268306590Y-134186347D02*
X268268495Y-134205395D01*
X268268495Y-134205395D02*
X268249447Y-134224442D01*
X268249447Y-134224442D02*
X268230400Y-134262538D01*
X268230400Y-134262538D02*
X268230400Y-134300633D01*
X268230400Y-134300633D02*
X268249447Y-134357776D01*
X268249447Y-134357776D02*
X268478019Y-134586347D01*
X268478019Y-134586347D02*
X268230400Y-134586347D01*
D10*
X264074248Y-158382923D02*
X264169486Y-158382923D01*
X264169486Y-158382923D02*
X264179010Y-158478161D01*
X264179010Y-158478161D02*
X264169486Y-158468638D01*
X264169486Y-158468638D02*
X264150439Y-158459114D01*
X264150439Y-158459114D02*
X264102820Y-158459114D01*
X264102820Y-158459114D02*
X264083772Y-158468638D01*
X264083772Y-158468638D02*
X264074248Y-158478161D01*
X264074248Y-158478161D02*
X264064725Y-158497209D01*
X264064725Y-158497209D02*
X264064725Y-158544828D01*
X264064725Y-158544828D02*
X264074248Y-158563876D01*
X264074248Y-158563876D02*
X264083772Y-158573400D01*
X264083772Y-158573400D02*
X264102820Y-158582923D01*
X264102820Y-158582923D02*
X264150439Y-158582923D01*
X264150439Y-158582923D02*
X264169486Y-158573400D01*
X264169486Y-158573400D02*
X264179010Y-158563876D01*
X264007582Y-158382923D02*
X263940915Y-158582923D01*
X263940915Y-158582923D02*
X263874249Y-158382923D01*
D11*
X269068496Y-140205395D02*
X269106591Y-140186347D01*
X269106591Y-140186347D02*
X269163734Y-140186347D01*
X269163734Y-140186347D02*
X269220877Y-140205395D01*
X269220877Y-140205395D02*
X269258972Y-140243490D01*
X269258972Y-140243490D02*
X269278019Y-140281585D01*
X269278019Y-140281585D02*
X269297067Y-140357776D01*
X269297067Y-140357776D02*
X269297067Y-140414919D01*
X269297067Y-140414919D02*
X269278019Y-140491109D01*
X269278019Y-140491109D02*
X269258972Y-140529204D01*
X269258972Y-140529204D02*
X269220877Y-140567300D01*
X269220877Y-140567300D02*
X269163734Y-140586347D01*
X269163734Y-140586347D02*
X269125638Y-140586347D01*
X269125638Y-140586347D02*
X269068496Y-140567300D01*
X269068496Y-140567300D02*
X269049448Y-140548252D01*
X269049448Y-140548252D02*
X269049448Y-140414919D01*
X269049448Y-140414919D02*
X269125638Y-140414919D01*
X268878019Y-140586347D02*
X268878019Y-140186347D01*
X268878019Y-140186347D02*
X268649448Y-140586347D01*
X268649448Y-140586347D02*
X268649448Y-140186347D01*
X268458971Y-140586347D02*
X268458971Y-140186347D01*
X268458971Y-140186347D02*
X268363733Y-140186347D01*
X268363733Y-140186347D02*
X268306590Y-140205395D01*
X268306590Y-140205395D02*
X268268495Y-140243490D01*
X268268495Y-140243490D02*
X268249448Y-140281585D01*
X268249448Y-140281585D02*
X268230400Y-140357776D01*
X268230400Y-140357776D02*
X268230400Y-140414919D01*
X268230400Y-140414919D02*
X268249448Y-140491109D01*
X268249448Y-140491109D02*
X268268495Y-140529204D01*
X268268495Y-140529204D02*
X268306590Y-140567300D01*
X268306590Y-140567300D02*
X268363733Y-140586347D01*
X268363733Y-140586347D02*
X268458971Y-140586347D01*
X270001828Y-136586347D02*
X270001828Y-136186347D01*
X270001828Y-136186347D02*
X269868495Y-136472061D01*
X269868495Y-136472061D02*
X269735162Y-136186347D01*
X269735162Y-136186347D02*
X269735162Y-136586347D01*
X269373257Y-136319680D02*
X269373257Y-136586347D01*
X269468495Y-136167300D02*
X269563733Y-136453014D01*
X269563733Y-136453014D02*
X269316114Y-136453014D01*
X269258972Y-136624442D02*
X268954210Y-136624442D01*
X268858971Y-136586347D02*
X268858971Y-136186347D01*
X268858971Y-136376823D02*
X268630400Y-136376823D01*
X268630400Y-136586347D02*
X268630400Y-136186347D01*
X268230400Y-136586347D02*
X268458971Y-136586347D01*
X268344685Y-136586347D02*
X268344685Y-136186347D01*
X268344685Y-136186347D02*
X268382781Y-136243490D01*
X268382781Y-136243490D02*
X268420876Y-136281585D01*
X268420876Y-136281585D02*
X268458971Y-136300633D01*
X270001828Y-119945847D02*
X270001828Y-119545847D01*
X270001828Y-119545847D02*
X269868495Y-119831561D01*
X269868495Y-119831561D02*
X269735162Y-119545847D01*
X269735162Y-119545847D02*
X269735162Y-119945847D01*
X269563733Y-119583942D02*
X269544685Y-119564895D01*
X269544685Y-119564895D02*
X269506590Y-119545847D01*
X269506590Y-119545847D02*
X269411352Y-119545847D01*
X269411352Y-119545847D02*
X269373257Y-119564895D01*
X269373257Y-119564895D02*
X269354209Y-119583942D01*
X269354209Y-119583942D02*
X269335162Y-119622038D01*
X269335162Y-119622038D02*
X269335162Y-119660133D01*
X269335162Y-119660133D02*
X269354209Y-119717276D01*
X269354209Y-119717276D02*
X269582781Y-119945847D01*
X269582781Y-119945847D02*
X269335162Y-119945847D01*
X269258972Y-119983942D02*
X268954210Y-119983942D01*
X268858971Y-119945847D02*
X268858971Y-119545847D01*
X268858971Y-119736323D02*
X268630400Y-119736323D01*
X268630400Y-119945847D02*
X268630400Y-119545847D01*
X268458971Y-119583942D02*
X268439923Y-119564895D01*
X268439923Y-119564895D02*
X268401828Y-119545847D01*
X268401828Y-119545847D02*
X268306590Y-119545847D01*
X268306590Y-119545847D02*
X268268495Y-119564895D01*
X268268495Y-119564895D02*
X268249447Y-119583942D01*
X268249447Y-119583942D02*
X268230400Y-119622038D01*
X268230400Y-119622038D02*
X268230400Y-119660133D01*
X268230400Y-119660133D02*
X268249447Y-119717276D01*
X268249447Y-119717276D02*
X268478019Y-119945847D01*
X268478019Y-119945847D02*
X268230400Y-119945847D01*
D10*
X264079486Y-97062923D02*
X264079486Y-96862923D01*
X264079486Y-96862923D02*
X264012820Y-97005780D01*
X264012820Y-97005780D02*
X263946153Y-96862923D01*
X263946153Y-96862923D02*
X263946153Y-97062923D01*
X263860439Y-96881971D02*
X263850915Y-96872447D01*
X263850915Y-96872447D02*
X263831868Y-96862923D01*
X263831868Y-96862923D02*
X263784249Y-96862923D01*
X263784249Y-96862923D02*
X263765201Y-96872447D01*
X263765201Y-96872447D02*
X263755677Y-96881971D01*
X263755677Y-96881971D02*
X263746154Y-96901019D01*
X263746154Y-96901019D02*
X263746154Y-96920066D01*
X263746154Y-96920066D02*
X263755677Y-96948638D01*
X263755677Y-96948638D02*
X263869963Y-97062923D01*
X263869963Y-97062923D02*
X263746154Y-97062923D01*
X263708059Y-97081971D02*
X263555678Y-97081971D01*
X263508058Y-96958161D02*
X263441392Y-96958161D01*
X263412820Y-97062923D02*
X263508058Y-97062923D01*
X263508058Y-97062923D02*
X263508058Y-96862923D01*
X263508058Y-96862923D02*
X263412820Y-96862923D01*
X263327106Y-96929590D02*
X263327106Y-97062923D01*
X263327106Y-96948638D02*
X263317583Y-96939114D01*
X263317583Y-96939114D02*
X263298535Y-96929590D01*
X263298535Y-96929590D02*
X263269964Y-96929590D01*
X263269964Y-96929590D02*
X263250916Y-96939114D01*
X263250916Y-96939114D02*
X263241392Y-96958161D01*
X263241392Y-96958161D02*
X263241392Y-97062923D01*
X263060440Y-97053400D02*
X263079488Y-97062923D01*
X263079488Y-97062923D02*
X263117583Y-97062923D01*
X263117583Y-97062923D02*
X263136631Y-97053400D01*
X263136631Y-97053400D02*
X263146154Y-97043876D01*
X263146154Y-97043876D02*
X263155678Y-97024828D01*
X263155678Y-97024828D02*
X263155678Y-96967685D01*
X263155678Y-96967685D02*
X263146154Y-96948638D01*
X263146154Y-96948638D02*
X263136631Y-96939114D01*
X263136631Y-96939114D02*
X263117583Y-96929590D01*
X263117583Y-96929590D02*
X263079488Y-96929590D01*
X263079488Y-96929590D02*
X263060440Y-96939114D01*
X262946154Y-97062923D02*
X262965202Y-97053400D01*
X262965202Y-97053400D02*
X262974725Y-97043876D01*
X262974725Y-97043876D02*
X262984249Y-97024828D01*
X262984249Y-97024828D02*
X262984249Y-96967685D01*
X262984249Y-96967685D02*
X262974725Y-96948638D01*
X262974725Y-96948638D02*
X262965202Y-96939114D01*
X262965202Y-96939114D02*
X262946154Y-96929590D01*
X262946154Y-96929590D02*
X262917583Y-96929590D01*
X262917583Y-96929590D02*
X262898535Y-96939114D01*
X262898535Y-96939114D02*
X262889011Y-96948638D01*
X262889011Y-96948638D02*
X262879487Y-96967685D01*
X262879487Y-96967685D02*
X262879487Y-97024828D01*
X262879487Y-97024828D02*
X262889011Y-97043876D01*
X262889011Y-97043876D02*
X262898535Y-97053400D01*
X262898535Y-97053400D02*
X262917583Y-97062923D01*
X262917583Y-97062923D02*
X262946154Y-97062923D01*
X262708059Y-97062923D02*
X262708059Y-96862923D01*
X262708059Y-97053400D02*
X262727107Y-97062923D01*
X262727107Y-97062923D02*
X262765202Y-97062923D01*
X262765202Y-97062923D02*
X262784250Y-97053400D01*
X262784250Y-97053400D02*
X262793773Y-97043876D01*
X262793773Y-97043876D02*
X262803297Y-97024828D01*
X262803297Y-97024828D02*
X262803297Y-96967685D01*
X262803297Y-96967685D02*
X262793773Y-96948638D01*
X262793773Y-96948638D02*
X262784250Y-96939114D01*
X262784250Y-96939114D02*
X262765202Y-96929590D01*
X262765202Y-96929590D02*
X262727107Y-96929590D01*
X262727107Y-96929590D02*
X262708059Y-96939114D01*
X262536631Y-97053400D02*
X262555679Y-97062923D01*
X262555679Y-97062923D02*
X262593774Y-97062923D01*
X262593774Y-97062923D02*
X262612821Y-97053400D01*
X262612821Y-97053400D02*
X262622345Y-97034352D01*
X262622345Y-97034352D02*
X262622345Y-96958161D01*
X262622345Y-96958161D02*
X262612821Y-96939114D01*
X262612821Y-96939114D02*
X262593774Y-96929590D01*
X262593774Y-96929590D02*
X262555679Y-96929590D01*
X262555679Y-96929590D02*
X262536631Y-96939114D01*
X262536631Y-96939114D02*
X262527107Y-96958161D01*
X262527107Y-96958161D02*
X262527107Y-96977209D01*
X262527107Y-96977209D02*
X262622345Y-96996257D01*
X262441392Y-97062923D02*
X262441392Y-96929590D01*
X262441392Y-96967685D02*
X262431869Y-96948638D01*
X262431869Y-96948638D02*
X262422345Y-96939114D01*
X262422345Y-96939114D02*
X262403297Y-96929590D01*
X262403297Y-96929590D02*
X262384250Y-96929590D01*
X262365202Y-97081971D02*
X262212821Y-97081971D01*
X262098535Y-96958161D02*
X262069963Y-96967685D01*
X262069963Y-96967685D02*
X262060440Y-96977209D01*
X262060440Y-96977209D02*
X262050916Y-96996257D01*
X262050916Y-96996257D02*
X262050916Y-97024828D01*
X262050916Y-97024828D02*
X262060440Y-97043876D01*
X262060440Y-97043876D02*
X262069963Y-97053400D01*
X262069963Y-97053400D02*
X262089011Y-97062923D01*
X262089011Y-97062923D02*
X262165201Y-97062923D01*
X262165201Y-97062923D02*
X262165201Y-96862923D01*
X262165201Y-96862923D02*
X262098535Y-96862923D01*
X262098535Y-96862923D02*
X262079487Y-96872447D01*
X262079487Y-96872447D02*
X262069963Y-96881971D01*
X262069963Y-96881971D02*
X262060440Y-96901019D01*
X262060440Y-96901019D02*
X262060440Y-96920066D01*
X262060440Y-96920066D02*
X262069963Y-96939114D01*
X262069963Y-96939114D02*
X262079487Y-96948638D01*
X262079487Y-96948638D02*
X262098535Y-96958161D01*
X262098535Y-96958161D02*
X262165201Y-96958161D01*
D11*
X270001828Y-117945847D02*
X270001828Y-117545847D01*
X270001828Y-117545847D02*
X269868495Y-117831561D01*
X269868495Y-117831561D02*
X269735162Y-117545847D01*
X269735162Y-117545847D02*
X269735162Y-117945847D01*
X269563733Y-117583942D02*
X269544685Y-117564895D01*
X269544685Y-117564895D02*
X269506590Y-117545847D01*
X269506590Y-117545847D02*
X269411352Y-117545847D01*
X269411352Y-117545847D02*
X269373257Y-117564895D01*
X269373257Y-117564895D02*
X269354209Y-117583942D01*
X269354209Y-117583942D02*
X269335162Y-117622038D01*
X269335162Y-117622038D02*
X269335162Y-117660133D01*
X269335162Y-117660133D02*
X269354209Y-117717276D01*
X269354209Y-117717276D02*
X269582781Y-117945847D01*
X269582781Y-117945847D02*
X269335162Y-117945847D01*
X269258972Y-117983942D02*
X268954210Y-117983942D01*
X268858971Y-117945847D02*
X268858971Y-117545847D01*
X268858971Y-117736323D02*
X268630400Y-117736323D01*
X268630400Y-117945847D02*
X268630400Y-117545847D01*
X268478019Y-117545847D02*
X268230400Y-117545847D01*
X268230400Y-117545847D02*
X268363733Y-117698228D01*
X268363733Y-117698228D02*
X268306590Y-117698228D01*
X268306590Y-117698228D02*
X268268495Y-117717276D01*
X268268495Y-117717276D02*
X268249447Y-117736323D01*
X268249447Y-117736323D02*
X268230400Y-117774419D01*
X268230400Y-117774419D02*
X268230400Y-117869657D01*
X268230400Y-117869657D02*
X268249447Y-117907752D01*
X268249447Y-117907752D02*
X268268495Y-117926800D01*
X268268495Y-117926800D02*
X268306590Y-117945847D01*
X268306590Y-117945847D02*
X268420876Y-117945847D01*
X268420876Y-117945847D02*
X268458971Y-117926800D01*
X268458971Y-117926800D02*
X268478019Y-117907752D01*
D12*
X255778094Y-151784318D02*
X255778094Y-152691461D01*
X255778094Y-152691461D02*
X255838571Y-152872889D01*
X255838571Y-152872889D02*
X255959523Y-152993842D01*
X255959523Y-152993842D02*
X256140952Y-153054318D01*
X256140952Y-153054318D02*
X256261904Y-153054318D01*
X254508094Y-153054318D02*
X255233809Y-153054318D01*
X254870952Y-153054318D02*
X254870952Y-151784318D01*
X254870952Y-151784318D02*
X254991904Y-151965746D01*
X254991904Y-151965746D02*
X255112856Y-152086699D01*
X255112856Y-152086699D02*
X255233809Y-152147175D01*
X253419523Y-152207651D02*
X253419523Y-153054318D01*
X253721904Y-151723842D02*
X254024285Y-152630984D01*
X254024285Y-152630984D02*
X253238094Y-152630984D01*
D13*
X114089819Y-123941666D02*
X114804104Y-123941666D01*
X114804104Y-123941666D02*
X114946961Y-123894047D01*
X114946961Y-123894047D02*
X115042200Y-123798809D01*
X115042200Y-123798809D02*
X115089819Y-123655952D01*
X115089819Y-123655952D02*
X115089819Y-123560714D01*
X114089819Y-124894047D02*
X114089819Y-124417857D01*
X114089819Y-124417857D02*
X114566009Y-124370238D01*
X114566009Y-124370238D02*
X114518390Y-124417857D01*
X114518390Y-124417857D02*
X114470771Y-124513095D01*
X114470771Y-124513095D02*
X114470771Y-124751190D01*
X114470771Y-124751190D02*
X114518390Y-124846428D01*
X114518390Y-124846428D02*
X114566009Y-124894047D01*
X114566009Y-124894047D02*
X114661247Y-124941666D01*
X114661247Y-124941666D02*
X114899342Y-124941666D01*
X114899342Y-124941666D02*
X114994580Y-124894047D01*
X114994580Y-124894047D02*
X115042200Y-124846428D01*
X115042200Y-124846428D02*
X115089819Y-124751190D01*
X115089819Y-124751190D02*
X115089819Y-124513095D01*
X115089819Y-124513095D02*
X115042200Y-124417857D01*
X115042200Y-124417857D02*
X114994580Y-124370238D01*
X195273333Y-184594819D02*
X195273333Y-185309104D01*
X195273333Y-185309104D02*
X195320952Y-185451961D01*
X195320952Y-185451961D02*
X195416190Y-185547200D01*
X195416190Y-185547200D02*
X195559047Y-185594819D01*
X195559047Y-185594819D02*
X195654285Y-185594819D01*
X194273333Y-185594819D02*
X194844761Y-185594819D01*
X194559047Y-185594819D02*
X194559047Y-184594819D01*
X194559047Y-184594819D02*
X194654285Y-184737676D01*
X194654285Y-184737676D02*
X194749523Y-184832914D01*
X194749523Y-184832914D02*
X194844761Y-184880533D01*
X189111428Y-165254700D02*
X187968571Y-165254700D01*
X201411428Y-165254700D02*
X200268571Y-165254700D01*
X200839999Y-165826128D02*
X200839999Y-164683271D01*
X263729523Y-160394819D02*
X263729523Y-161109104D01*
X263729523Y-161109104D02*
X263777142Y-161251961D01*
X263777142Y-161251961D02*
X263872380Y-161347200D01*
X263872380Y-161347200D02*
X264015237Y-161394819D01*
X264015237Y-161394819D02*
X264110475Y-161394819D01*
X263300951Y-160490057D02*
X263253332Y-160442438D01*
X263253332Y-160442438D02*
X263158094Y-160394819D01*
X263158094Y-160394819D02*
X262919999Y-160394819D01*
X262919999Y-160394819D02*
X262824761Y-160442438D01*
X262824761Y-160442438D02*
X262777142Y-160490057D01*
X262777142Y-160490057D02*
X262729523Y-160585295D01*
X262729523Y-160585295D02*
X262729523Y-160680533D01*
X262729523Y-160680533D02*
X262777142Y-160823390D01*
X262777142Y-160823390D02*
X263348570Y-161394819D01*
X263348570Y-161394819D02*
X262729523Y-161394819D01*
X262396189Y-160394819D02*
X261729523Y-160394819D01*
X261729523Y-160394819D02*
X262158094Y-161394819D01*
D12*
X122528094Y-127934318D02*
X122528094Y-128841461D01*
X122528094Y-128841461D02*
X122588571Y-129022889D01*
X122588571Y-129022889D02*
X122709523Y-129143842D01*
X122709523Y-129143842D02*
X122890952Y-129204318D01*
X122890952Y-129204318D02*
X123011904Y-129204318D01*
X121258094Y-129204318D02*
X121983809Y-129204318D01*
X121620952Y-129204318D02*
X121620952Y-127934318D01*
X121620952Y-127934318D02*
X121741904Y-128115746D01*
X121741904Y-128115746D02*
X121862856Y-128236699D01*
X121862856Y-128236699D02*
X121983809Y-128297175D01*
X120774285Y-128055270D02*
X120713809Y-127994794D01*
X120713809Y-127994794D02*
X120592856Y-127934318D01*
X120592856Y-127934318D02*
X120290475Y-127934318D01*
X120290475Y-127934318D02*
X120169523Y-127994794D01*
X120169523Y-127994794D02*
X120109047Y-128055270D01*
X120109047Y-128055270D02*
X120048570Y-128176222D01*
X120048570Y-128176222D02*
X120048570Y-128297175D01*
X120048570Y-128297175D02*
X120109047Y-128478603D01*
X120109047Y-128478603D02*
X120834761Y-129204318D01*
X120834761Y-129204318D02*
X120048570Y-129204318D01*
D13*
X176263333Y-184594819D02*
X176263333Y-185309104D01*
X176263333Y-185309104D02*
X176310952Y-185451961D01*
X176310952Y-185451961D02*
X176406190Y-185547200D01*
X176406190Y-185547200D02*
X176549047Y-185594819D01*
X176549047Y-185594819D02*
X176644285Y-185594819D01*
X175834761Y-184690057D02*
X175787142Y-184642438D01*
X175787142Y-184642438D02*
X175691904Y-184594819D01*
X175691904Y-184594819D02*
X175453809Y-184594819D01*
X175453809Y-184594819D02*
X175358571Y-184642438D01*
X175358571Y-184642438D02*
X175310952Y-184690057D01*
X175310952Y-184690057D02*
X175263333Y-184785295D01*
X175263333Y-184785295D02*
X175263333Y-184880533D01*
X175263333Y-184880533D02*
X175310952Y-185023390D01*
X175310952Y-185023390D02*
X175882380Y-185594819D01*
X175882380Y-185594819D02*
X175263333Y-185594819D01*
X182401428Y-165254700D02*
X181258571Y-165254700D01*
X181829999Y-165826128D02*
X181829999Y-164683271D01*
X170101428Y-165254700D02*
X168958571Y-165254700D01*
X112219523Y-92804819D02*
X112219523Y-93519104D01*
X112219523Y-93519104D02*
X112267142Y-93661961D01*
X112267142Y-93661961D02*
X112362380Y-93757200D01*
X112362380Y-93757200D02*
X112505237Y-93804819D01*
X112505237Y-93804819D02*
X112600475Y-93804819D01*
X111219523Y-93804819D02*
X111790951Y-93804819D01*
X111505237Y-93804819D02*
X111505237Y-92804819D01*
X111505237Y-92804819D02*
X111600475Y-92947676D01*
X111600475Y-92947676D02*
X111695713Y-93042914D01*
X111695713Y-93042914D02*
X111790951Y-93090533D01*
X110886189Y-92804819D02*
X110219523Y-92804819D01*
X110219523Y-92804819D02*
X110648094Y-93804819D01*
X112079523Y-143494819D02*
X112079523Y-144209104D01*
X112079523Y-144209104D02*
X112127142Y-144351961D01*
X112127142Y-144351961D02*
X112222380Y-144447200D01*
X112222380Y-144447200D02*
X112365237Y-144494819D01*
X112365237Y-144494819D02*
X112460475Y-144494819D01*
X111079523Y-144494819D02*
X111650951Y-144494819D01*
X111365237Y-144494819D02*
X111365237Y-143494819D01*
X111365237Y-143494819D02*
X111460475Y-143637676D01*
X111460475Y-143637676D02*
X111555713Y-143732914D01*
X111555713Y-143732914D02*
X111650951Y-143780533D01*
X110127142Y-144494819D02*
X110698570Y-144494819D01*
X110412856Y-144494819D02*
X110412856Y-143494819D01*
X110412856Y-143494819D02*
X110508094Y-143637676D01*
X110508094Y-143637676D02*
X110603332Y-143732914D01*
X110603332Y-143732914D02*
X110698570Y-143780533D01*
X112199523Y-159304819D02*
X112199523Y-160019104D01*
X112199523Y-160019104D02*
X112247142Y-160161961D01*
X112247142Y-160161961D02*
X112342380Y-160257200D01*
X112342380Y-160257200D02*
X112485237Y-160304819D01*
X112485237Y-160304819D02*
X112580475Y-160304819D01*
X111770951Y-159400057D02*
X111723332Y-159352438D01*
X111723332Y-159352438D02*
X111628094Y-159304819D01*
X111628094Y-159304819D02*
X111389999Y-159304819D01*
X111389999Y-159304819D02*
X111294761Y-159352438D01*
X111294761Y-159352438D02*
X111247142Y-159400057D01*
X111247142Y-159400057D02*
X111199523Y-159495295D01*
X111199523Y-159495295D02*
X111199523Y-159590533D01*
X111199523Y-159590533D02*
X111247142Y-159733390D01*
X111247142Y-159733390D02*
X111818570Y-160304819D01*
X111818570Y-160304819D02*
X111199523Y-160304819D01*
X110866189Y-159304819D02*
X110247142Y-159304819D01*
X110247142Y-159304819D02*
X110580475Y-159685771D01*
X110580475Y-159685771D02*
X110437618Y-159685771D01*
X110437618Y-159685771D02*
X110342380Y-159733390D01*
X110342380Y-159733390D02*
X110294761Y-159781009D01*
X110294761Y-159781009D02*
X110247142Y-159876247D01*
X110247142Y-159876247D02*
X110247142Y-160114342D01*
X110247142Y-160114342D02*
X110294761Y-160209580D01*
X110294761Y-160209580D02*
X110342380Y-160257200D01*
X110342380Y-160257200D02*
X110437618Y-160304819D01*
X110437618Y-160304819D02*
X110723332Y-160304819D01*
X110723332Y-160304819D02*
X110818570Y-160257200D01*
X110818570Y-160257200D02*
X110866189Y-160209580D01*
X269949523Y-127784819D02*
X269949523Y-128499104D01*
X269949523Y-128499104D02*
X269997142Y-128641961D01*
X269997142Y-128641961D02*
X270092380Y-128737200D01*
X270092380Y-128737200D02*
X270235237Y-128784819D01*
X270235237Y-128784819D02*
X270330475Y-128784819D01*
X268949523Y-128784819D02*
X269520951Y-128784819D01*
X269235237Y-128784819D02*
X269235237Y-127784819D01*
X269235237Y-127784819D02*
X269330475Y-127927676D01*
X269330475Y-127927676D02*
X269425713Y-128022914D01*
X269425713Y-128022914D02*
X269520951Y-128070533D01*
X268616189Y-127784819D02*
X267997142Y-127784819D01*
X267997142Y-127784819D02*
X268330475Y-128165771D01*
X268330475Y-128165771D02*
X268187618Y-128165771D01*
X268187618Y-128165771D02*
X268092380Y-128213390D01*
X268092380Y-128213390D02*
X268044761Y-128261009D01*
X268044761Y-128261009D02*
X267997142Y-128356247D01*
X267997142Y-128356247D02*
X267997142Y-128594342D01*
X267997142Y-128594342D02*
X268044761Y-128689580D01*
X268044761Y-128689580D02*
X268092380Y-128737200D01*
X268092380Y-128737200D02*
X268187618Y-128784819D01*
X268187618Y-128784819D02*
X268473332Y-128784819D01*
X268473332Y-128784819D02*
X268568570Y-128737200D01*
X268568570Y-128737200D02*
X268616189Y-128689580D01*
D12*
X181773365Y-144928333D02*
X181833842Y-144867857D01*
X181833842Y-144867857D02*
X181894318Y-144686428D01*
X181894318Y-144686428D02*
X181894318Y-144565476D01*
X181894318Y-144565476D02*
X181833842Y-144384047D01*
X181833842Y-144384047D02*
X181712889Y-144263095D01*
X181712889Y-144263095D02*
X181591937Y-144202618D01*
X181591937Y-144202618D02*
X181350032Y-144142142D01*
X181350032Y-144142142D02*
X181168603Y-144142142D01*
X181168603Y-144142142D02*
X180926699Y-144202618D01*
X180926699Y-144202618D02*
X180805746Y-144263095D01*
X180805746Y-144263095D02*
X180684794Y-144384047D01*
X180684794Y-144384047D02*
X180624318Y-144565476D01*
X180624318Y-144565476D02*
X180624318Y-144686428D01*
X180624318Y-144686428D02*
X180684794Y-144867857D01*
X180684794Y-144867857D02*
X180745270Y-144928333D01*
X180624318Y-146077380D02*
X180624318Y-145472618D01*
X180624318Y-145472618D02*
X181229080Y-145412142D01*
X181229080Y-145412142D02*
X181168603Y-145472618D01*
X181168603Y-145472618D02*
X181108127Y-145593571D01*
X181108127Y-145593571D02*
X181108127Y-145895952D01*
X181108127Y-145895952D02*
X181168603Y-146016904D01*
X181168603Y-146016904D02*
X181229080Y-146077380D01*
X181229080Y-146077380D02*
X181350032Y-146137857D01*
X181350032Y-146137857D02*
X181652413Y-146137857D01*
X181652413Y-146137857D02*
X181773365Y-146077380D01*
X181773365Y-146077380D02*
X181833842Y-146016904D01*
X181833842Y-146016904D02*
X181894318Y-145895952D01*
X181894318Y-145895952D02*
X181894318Y-145593571D01*
X181894318Y-145593571D02*
X181833842Y-145472618D01*
X181833842Y-145472618D02*
X181773365Y-145412142D01*
X256568094Y-101484318D02*
X256568094Y-102391461D01*
X256568094Y-102391461D02*
X256628571Y-102572889D01*
X256628571Y-102572889D02*
X256749523Y-102693842D01*
X256749523Y-102693842D02*
X256930952Y-102754318D01*
X256930952Y-102754318D02*
X257051904Y-102754318D01*
X255298094Y-102754318D02*
X256023809Y-102754318D01*
X255660952Y-102754318D02*
X255660952Y-101484318D01*
X255660952Y-101484318D02*
X255781904Y-101665746D01*
X255781904Y-101665746D02*
X255902856Y-101786699D01*
X255902856Y-101786699D02*
X256023809Y-101847175D01*
X254511904Y-101484318D02*
X254390951Y-101484318D01*
X254390951Y-101484318D02*
X254269999Y-101544794D01*
X254269999Y-101544794D02*
X254209523Y-101605270D01*
X254209523Y-101605270D02*
X254149047Y-101726222D01*
X254149047Y-101726222D02*
X254088570Y-101968127D01*
X254088570Y-101968127D02*
X254088570Y-102270508D01*
X254088570Y-102270508D02*
X254149047Y-102512413D01*
X254149047Y-102512413D02*
X254209523Y-102633365D01*
X254209523Y-102633365D02*
X254269999Y-102693842D01*
X254269999Y-102693842D02*
X254390951Y-102754318D01*
X254390951Y-102754318D02*
X254511904Y-102754318D01*
X254511904Y-102754318D02*
X254632856Y-102693842D01*
X254632856Y-102693842D02*
X254693332Y-102633365D01*
X254693332Y-102633365D02*
X254753809Y-102512413D01*
X254753809Y-102512413D02*
X254814285Y-102270508D01*
X254814285Y-102270508D02*
X254814285Y-101968127D01*
X254814285Y-101968127D02*
X254753809Y-101726222D01*
X254753809Y-101726222D02*
X254693332Y-101605270D01*
X254693332Y-101605270D02*
X254632856Y-101544794D01*
X254632856Y-101544794D02*
X254511904Y-101484318D01*
D13*
X267553333Y-111904819D02*
X267553333Y-112619104D01*
X267553333Y-112619104D02*
X267600952Y-112761961D01*
X267600952Y-112761961D02*
X267696190Y-112857200D01*
X267696190Y-112857200D02*
X267839047Y-112904819D01*
X267839047Y-112904819D02*
X267934285Y-112904819D01*
X267172380Y-111904819D02*
X266505714Y-111904819D01*
X266505714Y-111904819D02*
X266934285Y-112904819D01*
X173776666Y-121244819D02*
X174252856Y-121244819D01*
X174252856Y-121244819D02*
X174252856Y-120244819D01*
X172919523Y-121244819D02*
X173490951Y-121244819D01*
X173205237Y-121244819D02*
X173205237Y-120244819D01*
X173205237Y-120244819D02*
X173300475Y-120387676D01*
X173300475Y-120387676D02*
X173395713Y-120482914D01*
X173395713Y-120482914D02*
X173490951Y-120530533D01*
X263083333Y-94374819D02*
X263083333Y-95089104D01*
X263083333Y-95089104D02*
X263130952Y-95231961D01*
X263130952Y-95231961D02*
X263226190Y-95327200D01*
X263226190Y-95327200D02*
X263369047Y-95374819D01*
X263369047Y-95374819D02*
X263464285Y-95374819D01*
X262559523Y-95374819D02*
X262369047Y-95374819D01*
X262369047Y-95374819D02*
X262273809Y-95327200D01*
X262273809Y-95327200D02*
X262226190Y-95279580D01*
X262226190Y-95279580D02*
X262130952Y-95136723D01*
X262130952Y-95136723D02*
X262083333Y-94946247D01*
X262083333Y-94946247D02*
X262083333Y-94565295D01*
X262083333Y-94565295D02*
X262130952Y-94470057D01*
X262130952Y-94470057D02*
X262178571Y-94422438D01*
X262178571Y-94422438D02*
X262273809Y-94374819D01*
X262273809Y-94374819D02*
X262464285Y-94374819D01*
X262464285Y-94374819D02*
X262559523Y-94422438D01*
X262559523Y-94422438D02*
X262607142Y-94470057D01*
X262607142Y-94470057D02*
X262654761Y-94565295D01*
X262654761Y-94565295D02*
X262654761Y-94803390D01*
X262654761Y-94803390D02*
X262607142Y-94898628D01*
X262607142Y-94898628D02*
X262559523Y-94946247D01*
X262559523Y-94946247D02*
X262464285Y-94993866D01*
X262464285Y-94993866D02*
X262273809Y-94993866D01*
X262273809Y-94993866D02*
X262178571Y-94946247D01*
X262178571Y-94946247D02*
X262130952Y-94898628D01*
X262130952Y-94898628D02*
X262083333Y-94803390D01*
D12*
X124023332Y-125644318D02*
X124023332Y-126551461D01*
X124023332Y-126551461D02*
X124083809Y-126732889D01*
X124083809Y-126732889D02*
X124204761Y-126853842D01*
X124204761Y-126853842D02*
X124386190Y-126914318D01*
X124386190Y-126914318D02*
X124507142Y-126914318D01*
X122874285Y-125644318D02*
X123116190Y-125644318D01*
X123116190Y-125644318D02*
X123237142Y-125704794D01*
X123237142Y-125704794D02*
X123297618Y-125765270D01*
X123297618Y-125765270D02*
X123418571Y-125946699D01*
X123418571Y-125946699D02*
X123479047Y-126188603D01*
X123479047Y-126188603D02*
X123479047Y-126672413D01*
X123479047Y-126672413D02*
X123418571Y-126793365D01*
X123418571Y-126793365D02*
X123358094Y-126853842D01*
X123358094Y-126853842D02*
X123237142Y-126914318D01*
X123237142Y-126914318D02*
X122995237Y-126914318D01*
X122995237Y-126914318D02*
X122874285Y-126853842D01*
X122874285Y-126853842D02*
X122813809Y-126793365D01*
X122813809Y-126793365D02*
X122753332Y-126672413D01*
X122753332Y-126672413D02*
X122753332Y-126370032D01*
X122753332Y-126370032D02*
X122813809Y-126249080D01*
X122813809Y-126249080D02*
X122874285Y-126188603D01*
X122874285Y-126188603D02*
X122995237Y-126128127D01*
X122995237Y-126128127D02*
X123237142Y-126128127D01*
X123237142Y-126128127D02*
X123358094Y-126188603D01*
X123358094Y-126188603D02*
X123418571Y-126249080D01*
X123418571Y-126249080D02*
X123479047Y-126370032D01*
D11*
%TO.C,J14*%
X251000000Y-130900000D02*
X259500000Y-130900000D01*
X251000000Y-150100000D02*
X251000000Y-130900000D01*
X259500000Y-130900000D02*
X259500000Y-150100000D01*
X259500000Y-150100000D02*
X251000000Y-150100000D01*
D14*
X254800000Y-129730000D02*
G75*
G02*
X254700000Y-129730000I-50000J0D01*
G01*
X254700000Y-129730000D02*
G75*
G02*
X254800000Y-129730000I50000J0D01*
G01*
D15*
%TO.C,J5*%
X108800000Y-113300000D02*
X113300000Y-113300000D01*
X108800000Y-127200000D02*
X108800000Y-113300000D01*
X113300000Y-113300000D02*
X113300000Y-127200000D01*
X113300000Y-127200000D02*
X108800000Y-127200000D01*
D14*
X108200000Y-115250000D02*
G75*
G02*
X108000000Y-115250000I-100000J0D01*
G01*
X108000000Y-115250000D02*
G75*
G02*
X108200000Y-115250000I100000J0D01*
G01*
D16*
%TO.C,J1*%
X187080000Y-169790000D02*
X187080000Y-184100000D01*
X197390000Y-165680000D02*
X193650000Y-165680000D01*
X202800000Y-169790000D02*
X202800000Y-184100000D01*
X202800000Y-184100000D02*
X187080000Y-184100000D01*
X187080000Y-169790000D02*
G75*
G02*
X189073194Y-166267042I4109999J1D01*
G01*
X199891648Y-165859587D02*
G75*
G02*
X202800001Y-169790000I-1201648J-3930413D01*
G01*
%TO.C,J27*%
X263170000Y-147900000D02*
X265830000Y-147900000D01*
X263170000Y-155580000D02*
X263170000Y-147900000D01*
X263170000Y-155580000D02*
X265830000Y-155580000D01*
X264500000Y-145300000D02*
X265830000Y-145300000D01*
X265830000Y-145300000D02*
X265830000Y-146630000D01*
X265830000Y-155580000D02*
X265830000Y-147900000D01*
D11*
%TO.C,J12*%
X117250000Y-129830000D02*
X125750000Y-129830000D01*
X117250000Y-149030000D02*
X117250000Y-129830000D01*
X125750000Y-129830000D02*
X125750000Y-149030000D01*
X125750000Y-149030000D02*
X117250000Y-149030000D01*
D14*
X122050000Y-150200000D02*
G75*
G02*
X121950000Y-150200000I-50000J0D01*
G01*
X121950000Y-150200000D02*
G75*
G02*
X122050000Y-150200000I50000J0D01*
G01*
D16*
%TO.C,J2*%
X168070000Y-169790000D02*
X168070000Y-184100000D01*
X178380000Y-165680000D02*
X174640000Y-165680000D01*
X183790000Y-169790000D02*
X183790000Y-184100000D01*
X183790000Y-184100000D02*
X168070000Y-184100000D01*
X168070000Y-169790000D02*
G75*
G02*
X170063194Y-166267042I4109999J1D01*
G01*
X180881648Y-165859587D02*
G75*
G02*
X183790001Y-169790000I-1201648J-3930413D01*
G01*
%TO.C,J17*%
X109970000Y-102690000D02*
X112630000Y-102690000D01*
X109970000Y-110370000D02*
X109970000Y-102690000D01*
X109970000Y-110370000D02*
X112630000Y-110370000D01*
X111300000Y-100090000D02*
X112630000Y-100090000D01*
X112630000Y-100090000D02*
X112630000Y-101420000D01*
X112630000Y-110370000D02*
X112630000Y-102690000D01*
D15*
%TO.C,J11*%
X108800000Y-129050000D02*
X113300000Y-129050000D01*
X108800000Y-142950000D02*
X108800000Y-129050000D01*
X113300000Y-129050000D02*
X113300000Y-142950000D01*
X113300000Y-142950000D02*
X108800000Y-142950000D01*
D14*
X108200000Y-131000000D02*
G75*
G02*
X108000000Y-131000000I-100000J0D01*
G01*
X108000000Y-131000000D02*
G75*
G02*
X108200000Y-131000000I100000J0D01*
G01*
D16*
%TO.C,J23*%
X109980000Y-149400000D02*
X112640000Y-149400000D01*
X109980000Y-157080000D02*
X109980000Y-149400000D01*
X109980000Y-157080000D02*
X112640000Y-157080000D01*
X111310000Y-146800000D02*
X112640000Y-146800000D01*
X112640000Y-146800000D02*
X112640000Y-148130000D01*
X112640000Y-157080000D02*
X112640000Y-149400000D01*
D15*
%TO.C,J13*%
X262950000Y-129050000D02*
X267450000Y-129050000D01*
X262950000Y-142950000D02*
X262950000Y-129050000D01*
X267450000Y-129050000D02*
X267450000Y-142950000D01*
X267450000Y-142950000D02*
X262950000Y-142950000D01*
D14*
X268250000Y-141000000D02*
G75*
G02*
X268050000Y-141000000I-100000J0D01*
G01*
X268050000Y-141000000D02*
G75*
G02*
X268250000Y-141000000I100000J0D01*
G01*
%TO.C,C5*%
X176170000Y-139990000D02*
X176170000Y-147715000D01*
X186470000Y-139990000D02*
X186470000Y-151490000D01*
D11*
%TO.C,J10*%
X251000000Y-106980000D02*
X259500000Y-106980000D01*
X251000000Y-126180000D02*
X251000000Y-106980000D01*
X259500000Y-106980000D02*
X259500000Y-126180000D01*
X259500000Y-126180000D02*
X251000000Y-126180000D01*
D14*
X254800000Y-105810000D02*
G75*
G02*
X254700000Y-105810000I-50000J0D01*
G01*
X254700000Y-105810000D02*
G75*
G02*
X254800000Y-105810000I50000J0D01*
G01*
D15*
%TO.C,J7*%
X262950000Y-113300000D02*
X267450000Y-113300000D01*
X262950000Y-127200000D02*
X262950000Y-113300000D01*
X267450000Y-113300000D02*
X267450000Y-127200000D01*
X267450000Y-127200000D02*
X262950000Y-127200000D01*
D14*
X268250000Y-125250000D02*
G75*
G02*
X268050000Y-125250000I-100000J0D01*
G01*
X268050000Y-125250000D02*
G75*
G02*
X268250000Y-125250000I100000J0D01*
G01*
%TO.C,L1*%
X167410000Y-121590000D02*
X167410000Y-124440000D01*
X167410000Y-121590000D02*
X179810000Y-121590000D01*
X167410000Y-130440000D02*
X167410000Y-133290000D01*
X167410000Y-133290000D02*
X179810000Y-133290000D01*
X179810000Y-121590000D02*
X179810000Y-124440000D01*
X179810000Y-130440000D02*
X179810000Y-133290000D01*
D16*
%TO.C,J9*%
X262920000Y-102720000D02*
X265580000Y-102720000D01*
X262920000Y-110400000D02*
X262920000Y-102720000D01*
X262920000Y-110400000D02*
X265580000Y-110400000D01*
X264250000Y-100120000D02*
X265580000Y-100120000D01*
X265580000Y-100120000D02*
X265580000Y-101450000D01*
X265580000Y-110400000D02*
X265580000Y-102720000D01*
D11*
%TO.C,J6*%
X117250000Y-105910000D02*
X125750000Y-105910000D01*
X117250000Y-125110000D02*
X117250000Y-105910000D01*
X125750000Y-105910000D02*
X125750000Y-125110000D01*
X125750000Y-125110000D02*
X117250000Y-125110000D01*
D14*
X122050000Y-126280000D02*
G75*
G02*
X121950000Y-126280000I-50000J0D01*
G01*
X121950000Y-126280000D02*
G75*
G02*
X122050000Y-126280000I50000J0D01*
G01*
%TD*%
D17*
X238600000Y-147468000D03*
X241140000Y-147468000D03*
X238600000Y-150008000D03*
X241140000Y-150008000D03*
X238600000Y-152548000D03*
X241140000Y-152548000D03*
X238600000Y-155088000D03*
X241140000Y-155088000D03*
X238600000Y-157628000D03*
X241140000Y-157628000D03*
X250650000Y-98390000D03*
X250650000Y-94430000D03*
X250650000Y-90470000D03*
X250650000Y-86510000D03*
X250650000Y-82550000D03*
X229000000Y-135190000D03*
X226460000Y-135190000D03*
X229000000Y-137730000D03*
X226460000Y-137730000D03*
X229000000Y-140270000D03*
X226460000Y-140270000D03*
X229000000Y-142810000D03*
X226460000Y-142810000D03*
X229000000Y-145350000D03*
X226460000Y-145350000D03*
X229000000Y-147890000D03*
X226460000Y-147890000D03*
X229000000Y-150430000D03*
X226460000Y-150430000D03*
X229000000Y-152970000D03*
X226460000Y-152970000D03*
X229000000Y-155510000D03*
X226460000Y-155510000D03*
X229000000Y-158050000D03*
X226460000Y-158050000D03*
X229000000Y-171290000D03*
X226460000Y-171290000D03*
X229000000Y-173830000D03*
X226460000Y-173830000D03*
X229000000Y-176370000D03*
X226460000Y-176370000D03*
X229000000Y-178910000D03*
X226460000Y-178910000D03*
X229000000Y-181450000D03*
X226460000Y-181450000D03*
X140575000Y-116125000D03*
X143115000Y-116125000D03*
X140575000Y-113585000D03*
X143115000Y-113585000D03*
X140575000Y-111045000D03*
X143115000Y-111045000D03*
X140575000Y-108505000D03*
X143115000Y-108505000D03*
X140575000Y-105965000D03*
X143115000Y-105965000D03*
X140575000Y-103425000D03*
X143115000Y-103425000D03*
X140575000Y-100885000D03*
X143115000Y-100885000D03*
X140575000Y-98345000D03*
X143115000Y-98345000D03*
X140575000Y-95805000D03*
X143115000Y-95805000D03*
X140575000Y-93265000D03*
X143115000Y-93265000D03*
X140575000Y-80025000D03*
X143115000Y-80025000D03*
X140575000Y-77485000D03*
X143115000Y-77485000D03*
X140575000Y-74945000D03*
X143115000Y-74945000D03*
X140575000Y-72405000D03*
X143115000Y-72405000D03*
X140575000Y-69865000D03*
X143115000Y-69865000D03*
X142880000Y-135350000D03*
X140340000Y-135350000D03*
X142880000Y-137890000D03*
X140340000Y-137890000D03*
X142880000Y-140430000D03*
X140340000Y-140430000D03*
X142880000Y-142970000D03*
X140340000Y-142970000D03*
X142880000Y-145510000D03*
X140340000Y-145510000D03*
X142880000Y-148050000D03*
X140340000Y-148050000D03*
X142880000Y-150590000D03*
X140340000Y-150590000D03*
X142880000Y-153130000D03*
X140340000Y-153130000D03*
X142880000Y-155670000D03*
X140340000Y-155670000D03*
X142880000Y-158210000D03*
X140340000Y-158210000D03*
X142880000Y-171450000D03*
X140340000Y-171450000D03*
X142880000Y-173990000D03*
X140340000Y-173990000D03*
X142880000Y-176530000D03*
X140340000Y-176530000D03*
X142880000Y-179070000D03*
X140340000Y-179070000D03*
X142880000Y-181610000D03*
X140340000Y-181610000D03*
X133460000Y-173627500D03*
X133460000Y-176167500D03*
X133460000Y-178707500D03*
X133460000Y-181247500D03*
X133460000Y-183787500D03*
X133460000Y-186327500D03*
X238630000Y-134780000D03*
X241170000Y-134780000D03*
X238630000Y-132240000D03*
X241170000Y-132240000D03*
X238630000Y-129700000D03*
X241170000Y-129700000D03*
X238630000Y-127160000D03*
X241170000Y-127160000D03*
X238630000Y-124620000D03*
X241170000Y-124620000D03*
X238630000Y-122080000D03*
X241170000Y-122080000D03*
X238630000Y-119540000D03*
X241170000Y-119540000D03*
X238630000Y-117000000D03*
X241170000Y-117000000D03*
X238630000Y-114460000D03*
X241170000Y-114460000D03*
X238630000Y-111920000D03*
X241170000Y-111920000D03*
X238630000Y-98680000D03*
X241170000Y-98680000D03*
X238630000Y-96140000D03*
X241170000Y-96140000D03*
X238630000Y-93600000D03*
X241170000Y-93600000D03*
X238630000Y-91060000D03*
X241170000Y-91060000D03*
X238630000Y-88520000D03*
X241170000Y-88520000D03*
X133460000Y-155640000D03*
X133460000Y-158180000D03*
X133460000Y-160720000D03*
X133460000Y-163260000D03*
X133460000Y-165800000D03*
X133460000Y-168340000D03*
X119500000Y-155650000D03*
X119500000Y-158190000D03*
X119500000Y-160730000D03*
X119500000Y-163270000D03*
X119500000Y-165810000D03*
X119500000Y-168350000D03*
X121670000Y-89530000D03*
X121670000Y-92070000D03*
X121670000Y-94610000D03*
X121670000Y-97150000D03*
X129166700Y-155668000D03*
X129166700Y-158208000D03*
X129166700Y-160748000D03*
X129166700Y-163288000D03*
X129166700Y-165828000D03*
X129166700Y-168368000D03*
X153168300Y-74210000D03*
X153168300Y-76750000D03*
X216668300Y-74210000D03*
X216668300Y-76750000D03*
X206508300Y-103166000D03*
X209048300Y-103166000D03*
X206508300Y-105706000D03*
X209048300Y-105706000D03*
X206508300Y-108246000D03*
X209048300Y-108246000D03*
X206508300Y-110786000D03*
X209048300Y-110786000D03*
X206508300Y-113326000D03*
X209048300Y-113326000D03*
X206508300Y-115866000D03*
X209048300Y-115866000D03*
X206508300Y-118406000D03*
X209048300Y-118406000D03*
X206508300Y-120946000D03*
X209048300Y-120946000D03*
X206508300Y-123486000D03*
X209048300Y-123486000D03*
X206508300Y-126026000D03*
X209048300Y-126026000D03*
X160788300Y-112310000D03*
X163328300Y-112310000D03*
X160788300Y-114850000D03*
X163328300Y-114850000D03*
X160788300Y-117390000D03*
X163328300Y-117390000D03*
X160788300Y-119930000D03*
X163328300Y-119930000D03*
X160788300Y-122470000D03*
X163328300Y-122470000D03*
X160788300Y-125010000D03*
X163328300Y-125010000D03*
X160788300Y-127550000D03*
X163328300Y-127550000D03*
X160788300Y-130090000D03*
X163328300Y-130090000D03*
X160788300Y-135170000D03*
X163328300Y-135170000D03*
X160788300Y-137710000D03*
X163328300Y-137710000D03*
X160788300Y-140250000D03*
X163328300Y-140250000D03*
X160788300Y-142790000D03*
X163328300Y-142790000D03*
X160788300Y-145330000D03*
X163328300Y-145330000D03*
X160788300Y-147870000D03*
X163328300Y-147870000D03*
X160788300Y-150410000D03*
X163328300Y-150410000D03*
X160788300Y-152950000D03*
X163328300Y-152950000D03*
X160788300Y-155490000D03*
X163328300Y-155490000D03*
X160788300Y-158030000D03*
X163328300Y-158030000D03*
X160788300Y-160570000D03*
X163328300Y-160570000D03*
X160788300Y-163110000D03*
X163328300Y-163110000D03*
X160788300Y-165650000D03*
X163328300Y-165650000D03*
X160788300Y-168190000D03*
X163328300Y-168190000D03*
X160788300Y-170730000D03*
X163328300Y-170730000D03*
X206508300Y-130090000D03*
X209048300Y-130090000D03*
X206508300Y-132630000D03*
X209048300Y-132630000D03*
X206508300Y-135170000D03*
X209048300Y-135170000D03*
X206508300Y-137710000D03*
X209048300Y-137710000D03*
X206508300Y-140250000D03*
X209048300Y-140250000D03*
X206508300Y-142790000D03*
X209048300Y-142790000D03*
X206508300Y-145330000D03*
X209048300Y-145330000D03*
X206508300Y-147870000D03*
X209048300Y-147870000D03*
X206508300Y-150410000D03*
X209048300Y-150410000D03*
X206508300Y-152950000D03*
X209048300Y-152950000D03*
X206508300Y-155490000D03*
X209048300Y-155490000D03*
X206508300Y-158030000D03*
X209048300Y-158030000D03*
X206508300Y-160570000D03*
X209048300Y-160570000D03*
X206508300Y-163110000D03*
X209048300Y-163110000D03*
X206508300Y-165650000D03*
X209048300Y-165650000D03*
X206508300Y-168190000D03*
X209048300Y-168190000D03*
X206508300Y-170730000D03*
X209048300Y-170730000D03*
X153168300Y-102150000D03*
X155708300Y-102150000D03*
X153168300Y-104690000D03*
X155708300Y-104690000D03*
X153168300Y-107230000D03*
X155708300Y-107230000D03*
X153168300Y-109770000D03*
X155708300Y-109770000D03*
X153168300Y-112310000D03*
X155708300Y-112310000D03*
X153168300Y-114850000D03*
X155708300Y-114850000D03*
X153168300Y-117390000D03*
X155708300Y-117390000D03*
X153168300Y-119930000D03*
X155708300Y-119930000D03*
X153168300Y-122470000D03*
X155708300Y-122470000D03*
X153168300Y-125010000D03*
X155708300Y-125010000D03*
X153168300Y-127550000D03*
X155708300Y-127550000D03*
X153168300Y-130090000D03*
X155708300Y-130090000D03*
X153168300Y-132630000D03*
X155708300Y-132630000D03*
X153168300Y-135170000D03*
X155708300Y-135170000D03*
X153168300Y-137710000D03*
X155708300Y-137710000D03*
X153168300Y-140250000D03*
X155708300Y-140250000D03*
X153168300Y-142790000D03*
X155708300Y-142790000D03*
X153168300Y-145330000D03*
X155708300Y-145330000D03*
X153168300Y-147870000D03*
X155708300Y-147870000D03*
X153168300Y-150410000D03*
X155708300Y-150410000D03*
X153168300Y-152950000D03*
X155708300Y-152950000D03*
X153168300Y-155490000D03*
X155708300Y-155490000D03*
X153168300Y-158030000D03*
X155708300Y-158030000D03*
X153168300Y-160570000D03*
X155708300Y-160570000D03*
X153168300Y-163110000D03*
X155708300Y-163110000D03*
X153168300Y-165650000D03*
X155708300Y-165650000D03*
X153168300Y-168190000D03*
X155708300Y-168190000D03*
X153168300Y-170730000D03*
X155708300Y-170730000D03*
X153168300Y-173270000D03*
X155708300Y-173270000D03*
X153168300Y-175810000D03*
X155708300Y-175810000D03*
X153168300Y-178350000D03*
X155708300Y-178350000D03*
X153168300Y-180890000D03*
X155708300Y-180890000D03*
X153168300Y-183430000D03*
X155708300Y-183430000D03*
X153168300Y-185970000D03*
X155708300Y-185970000D03*
X153168300Y-188510000D03*
X155708300Y-188510000D03*
X214128300Y-102170000D03*
X216668300Y-102170000D03*
X214128300Y-104710000D03*
X216668300Y-104710000D03*
X214128300Y-107250000D03*
X216668300Y-107250000D03*
X214128300Y-109790000D03*
X216668300Y-109790000D03*
X214128300Y-112330000D03*
X216668300Y-112330000D03*
X214128300Y-114870000D03*
X216668300Y-114870000D03*
X214128300Y-117410000D03*
X216668300Y-117410000D03*
X214128300Y-119950000D03*
X216668300Y-119950000D03*
X214128300Y-122490000D03*
X216668300Y-122490000D03*
X214128300Y-125030000D03*
X216668300Y-125030000D03*
X214128300Y-127570000D03*
X216668300Y-127570000D03*
X214128300Y-130110000D03*
X216668300Y-130110000D03*
X214128300Y-132650000D03*
X216668300Y-132650000D03*
X214128300Y-135190000D03*
X216668300Y-135190000D03*
X214128300Y-137730000D03*
X216668300Y-137730000D03*
X214128300Y-140270000D03*
X216668300Y-140270000D03*
X214128300Y-142810000D03*
X216668300Y-142810000D03*
X214128300Y-145350000D03*
X216668300Y-145350000D03*
X214128300Y-147890000D03*
X216668300Y-147890000D03*
X214128300Y-150430000D03*
X216668300Y-150430000D03*
X214128300Y-152970000D03*
X216668300Y-152970000D03*
X214128300Y-155510000D03*
X216668300Y-155510000D03*
X214128300Y-158050000D03*
X216668300Y-158050000D03*
X214128300Y-160590000D03*
X216668300Y-160590000D03*
X214128300Y-163130000D03*
X216668300Y-163130000D03*
X214128300Y-165670000D03*
X216668300Y-165670000D03*
X214128300Y-168210000D03*
X216668300Y-168210000D03*
X214128300Y-170750000D03*
X216668300Y-170750000D03*
X214128300Y-173290000D03*
X216668300Y-173290000D03*
X214128300Y-175830000D03*
X216668300Y-175830000D03*
X214128300Y-178370000D03*
X216668300Y-178370000D03*
X214128300Y-180910000D03*
X216668300Y-180910000D03*
X214128300Y-183450000D03*
X216668300Y-183450000D03*
X214128300Y-185990000D03*
X216668300Y-185990000D03*
X214128300Y-188530000D03*
X216668300Y-188530000D03*
X214128300Y-191070000D03*
X216668300Y-191070000D03*
X153168300Y-191050000D03*
X155708300Y-191050000D03*
X228970000Y-72050000D03*
X226430000Y-72050000D03*
X228970000Y-74590000D03*
X226430000Y-74590000D03*
X228970000Y-77130000D03*
X226430000Y-77130000D03*
X228970000Y-79670000D03*
X226430000Y-79670000D03*
X228970000Y-82210000D03*
X226430000Y-82210000D03*
X228970000Y-84750000D03*
X226430000Y-84750000D03*
X228970000Y-87290000D03*
X226430000Y-87290000D03*
X228970000Y-89830000D03*
X226430000Y-89830000D03*
X228970000Y-92370000D03*
X226430000Y-92370000D03*
X228970000Y-94910000D03*
X226430000Y-94910000D03*
X228970000Y-108150000D03*
X226430000Y-108150000D03*
X228970000Y-110690000D03*
X226430000Y-110690000D03*
X228970000Y-113230000D03*
X226430000Y-113230000D03*
X228970000Y-115770000D03*
X226430000Y-115770000D03*
X228970000Y-118310000D03*
X226430000Y-118310000D03*
X254750000Y-132580000D03*
X254750000Y-136540000D03*
X254750000Y-140500000D03*
X254750000Y-144460000D03*
X254750000Y-148420000D03*
X110500000Y-115250000D03*
X110500000Y-117250000D03*
X110500000Y-119250000D03*
X110500000Y-121250000D03*
X110500000Y-123250000D03*
X110500000Y-125250000D03*
D18*
X188190000Y-173640000D03*
X201690000Y-173640000D03*
D17*
X191340000Y-167640000D03*
X198540000Y-167640000D03*
X264500000Y-146630000D03*
X264500000Y-149170000D03*
X264500000Y-151710000D03*
X264500000Y-154250000D03*
X122000000Y-147350000D03*
X122000000Y-143390000D03*
X122000000Y-139430000D03*
X122000000Y-135470000D03*
X122000000Y-131510000D03*
D18*
X169180000Y-173640000D03*
X182680000Y-173640000D03*
D17*
X172330000Y-167640000D03*
X179530000Y-167640000D03*
X111300000Y-101420000D03*
X111300000Y-103960000D03*
X111300000Y-106500000D03*
X111300000Y-109040000D03*
X110500000Y-131000000D03*
X110500000Y-133000000D03*
X110500000Y-135000000D03*
X110500000Y-137000000D03*
X110500000Y-139000000D03*
X110500000Y-141000000D03*
X111310000Y-148130000D03*
X111310000Y-150670000D03*
X111310000Y-153210000D03*
X111310000Y-155750000D03*
X265750000Y-141000000D03*
X265750000Y-139000000D03*
X265750000Y-137000000D03*
X265750000Y-135000000D03*
X265750000Y-133000000D03*
X265750000Y-131000000D03*
X254750000Y-108660000D03*
X254750000Y-112620000D03*
X254750000Y-116580000D03*
X254750000Y-120540000D03*
X254750000Y-124500000D03*
X265750000Y-125250000D03*
X265750000Y-123250000D03*
X265750000Y-121250000D03*
X265750000Y-119250000D03*
X265750000Y-117250000D03*
X265750000Y-115250000D03*
X264250000Y-101450000D03*
X264250000Y-103990000D03*
X264250000Y-106530000D03*
X264250000Y-109070000D03*
X122000000Y-123430000D03*
X122000000Y-119470000D03*
X122000000Y-115510000D03*
X122000000Y-111550000D03*
X122000000Y-107590000D03*
M02*
