%TF.GenerationSoftware,KiCad,Pcbnew,8.0.6*%
%TF.CreationDate,2024-11-14T20:58:14+01:00*%
%TF.ProjectId,Mainboard,4d61696e-626f-4617-9264-2e6b69636164,rev?*%
%TF.SameCoordinates,Original*%
%TF.FileFunction,Profile,NP*%
%FSLAX46Y46*%
G04 Gerber Fmt 4.6, Leading zero omitted, Abs format (unit mm)*
G04 Created by KiCad (PCBNEW 8.0.6) date 2024-11-14 20:58:14*
%MOMM*%
%LPD*%
G01*
G04 APERTURE LIST*
%TA.AperFunction,Profile*%
%ADD10C,0.050000*%
%TD*%
%ADD11C,0.350000*%
%ADD12O,0.600000X1.700000*%
G04 APERTURE END LIST*
D10*
X212750000Y-60550000D02*
X237910000Y-60550000D01*
X157260000Y-58540000D02*
X157230000Y-82890000D01*
X132241578Y-192126659D02*
G75*
G02*
X138110000Y-58540001I52938422J64596659D01*
G01*
X158840000Y-182870000D02*
X210160000Y-182870000D01*
X251500000Y-173500000D02*
G75*
G02*
X248500000Y-173500000I-1500000J0D01*
G01*
X248500000Y-173500000D02*
G75*
G02*
X251500000Y-173500000I1500000J0D01*
G01*
X157230000Y-82890000D02*
X212620000Y-82890000D01*
X210100000Y-194260000D02*
X240491643Y-194396228D01*
X150790000Y-58540000D02*
X157260000Y-58540000D01*
X158840000Y-192440000D02*
X158840000Y-182870000D01*
X237910000Y-60550000D02*
G75*
G02*
X240491643Y-194396228I-51430000J-67940000D01*
G01*
X249460000Y-75960000D02*
G75*
G02*
X246460000Y-75960000I-1500000J0D01*
G01*
X246460000Y-75960000D02*
G75*
G02*
X249460000Y-75960000I1500000J0D01*
G01*
X122300000Y-174170000D02*
G75*
G02*
X119300000Y-174170000I-1500000J0D01*
G01*
X119300000Y-174170000D02*
G75*
G02*
X122300000Y-174170000I1500000J0D01*
G01*
X210160000Y-182870000D02*
X210100000Y-194260000D01*
X158840000Y-192440000D02*
X158840000Y-194250000D01*
X127000000Y-76000000D02*
G75*
G02*
X124000000Y-76000000I-1500000J0D01*
G01*
X124000000Y-76000000D02*
G75*
G02*
X127000000Y-76000000I1500000J0D01*
G01*
X158840000Y-194250000D02*
X134920000Y-194240000D01*
X212620000Y-82890000D02*
X212750000Y-60550000D01*
X132241578Y-192126659D02*
X134920000Y-194240000D01*
X138110000Y-58540000D02*
X150790000Y-58540000D01*
D11*
X238600000Y-147468000D03*
X241140000Y-147468000D03*
X238600000Y-150008000D03*
X241140000Y-150008000D03*
X238600000Y-152548000D03*
X241140000Y-152548000D03*
X238600000Y-155088000D03*
X241140000Y-155088000D03*
X238600000Y-157628000D03*
X241140000Y-157628000D03*
X250650000Y-98390000D03*
X250650000Y-94430000D03*
X250650000Y-90470000D03*
X250650000Y-86510000D03*
X250650000Y-82550000D03*
X229000000Y-135190000D03*
X226460000Y-135190000D03*
X229000000Y-137730000D03*
X226460000Y-137730000D03*
X229000000Y-140270000D03*
X226460000Y-140270000D03*
X229000000Y-142810000D03*
X226460000Y-142810000D03*
X229000000Y-145350000D03*
X226460000Y-145350000D03*
X229000000Y-147890000D03*
X226460000Y-147890000D03*
X229000000Y-150430000D03*
X226460000Y-150430000D03*
X229000000Y-152970000D03*
X226460000Y-152970000D03*
X229000000Y-155510000D03*
X226460000Y-155510000D03*
X229000000Y-158050000D03*
X226460000Y-158050000D03*
X229000000Y-171290000D03*
X226460000Y-171290000D03*
X229000000Y-173830000D03*
X226460000Y-173830000D03*
X229000000Y-176370000D03*
X226460000Y-176370000D03*
X229000000Y-178910000D03*
X226460000Y-178910000D03*
X229000000Y-181450000D03*
X226460000Y-181450000D03*
X140575000Y-116125000D03*
X143115000Y-116125000D03*
X140575000Y-113585000D03*
X143115000Y-113585000D03*
X140575000Y-111045000D03*
X143115000Y-111045000D03*
X140575000Y-108505000D03*
X143115000Y-108505000D03*
X140575000Y-105965000D03*
X143115000Y-105965000D03*
X140575000Y-103425000D03*
X143115000Y-103425000D03*
X140575000Y-100885000D03*
X143115000Y-100885000D03*
X140575000Y-98345000D03*
X143115000Y-98345000D03*
X140575000Y-95805000D03*
X143115000Y-95805000D03*
X140575000Y-93265000D03*
X143115000Y-93265000D03*
X140575000Y-80025000D03*
X143115000Y-80025000D03*
X140575000Y-77485000D03*
X143115000Y-77485000D03*
X140575000Y-74945000D03*
X143115000Y-74945000D03*
X140575000Y-72405000D03*
X143115000Y-72405000D03*
X140575000Y-69865000D03*
X143115000Y-69865000D03*
X142880000Y-135350000D03*
X140340000Y-135350000D03*
X142880000Y-137890000D03*
X140340000Y-137890000D03*
X142880000Y-140430000D03*
X140340000Y-140430000D03*
X142880000Y-142970000D03*
X140340000Y-142970000D03*
X142880000Y-145510000D03*
X140340000Y-145510000D03*
X142880000Y-148050000D03*
X140340000Y-148050000D03*
X142880000Y-150590000D03*
X140340000Y-150590000D03*
X142880000Y-153130000D03*
X140340000Y-153130000D03*
X142880000Y-155670000D03*
X140340000Y-155670000D03*
X142880000Y-158210000D03*
X140340000Y-158210000D03*
X142880000Y-171450000D03*
X140340000Y-171450000D03*
X142880000Y-173990000D03*
X140340000Y-173990000D03*
X142880000Y-176530000D03*
X140340000Y-176530000D03*
X142880000Y-179070000D03*
X140340000Y-179070000D03*
X142880000Y-181610000D03*
X140340000Y-181610000D03*
X133460000Y-173627500D03*
X133460000Y-176167500D03*
X133460000Y-178707500D03*
X133460000Y-181247500D03*
X133460000Y-183787500D03*
X133460000Y-186327500D03*
X238630000Y-134780000D03*
X241170000Y-134780000D03*
X238630000Y-132240000D03*
X241170000Y-132240000D03*
X238630000Y-129700000D03*
X241170000Y-129700000D03*
X238630000Y-127160000D03*
X241170000Y-127160000D03*
X238630000Y-124620000D03*
X241170000Y-124620000D03*
X238630000Y-122080000D03*
X241170000Y-122080000D03*
X238630000Y-119540000D03*
X241170000Y-119540000D03*
X238630000Y-117000000D03*
X241170000Y-117000000D03*
X238630000Y-114460000D03*
X241170000Y-114460000D03*
X238630000Y-111920000D03*
X241170000Y-111920000D03*
X238630000Y-98680000D03*
X241170000Y-98680000D03*
X238630000Y-96140000D03*
X241170000Y-96140000D03*
X238630000Y-93600000D03*
X241170000Y-93600000D03*
X238630000Y-91060000D03*
X241170000Y-91060000D03*
X238630000Y-88520000D03*
X241170000Y-88520000D03*
X133460000Y-155640000D03*
X133460000Y-158180000D03*
X133460000Y-160720000D03*
X133460000Y-163260000D03*
X133460000Y-165800000D03*
X133460000Y-168340000D03*
X119500000Y-155650000D03*
X119500000Y-158190000D03*
X119500000Y-160730000D03*
X119500000Y-163270000D03*
X119500000Y-165810000D03*
X119500000Y-168350000D03*
X121670000Y-89530000D03*
X121670000Y-92070000D03*
X121670000Y-94610000D03*
X121670000Y-97150000D03*
X129166700Y-155668000D03*
X129166700Y-158208000D03*
X129166700Y-160748000D03*
X129166700Y-163288000D03*
X129166700Y-165828000D03*
X129166700Y-168368000D03*
X153168300Y-74210000D03*
X153168300Y-76750000D03*
X216668300Y-74210000D03*
X216668300Y-76750000D03*
X206508300Y-103166000D03*
X209048300Y-103166000D03*
X206508300Y-105706000D03*
X209048300Y-105706000D03*
X206508300Y-108246000D03*
X209048300Y-108246000D03*
X206508300Y-110786000D03*
X209048300Y-110786000D03*
X206508300Y-113326000D03*
X209048300Y-113326000D03*
X206508300Y-115866000D03*
X209048300Y-115866000D03*
X206508300Y-118406000D03*
X209048300Y-118406000D03*
X206508300Y-120946000D03*
X209048300Y-120946000D03*
X206508300Y-123486000D03*
X209048300Y-123486000D03*
X206508300Y-126026000D03*
X209048300Y-126026000D03*
X160788300Y-112310000D03*
X163328300Y-112310000D03*
X160788300Y-114850000D03*
X163328300Y-114850000D03*
X160788300Y-117390000D03*
X163328300Y-117390000D03*
X160788300Y-119930000D03*
X163328300Y-119930000D03*
X160788300Y-122470000D03*
X163328300Y-122470000D03*
X160788300Y-125010000D03*
X163328300Y-125010000D03*
X160788300Y-127550000D03*
X163328300Y-127550000D03*
X160788300Y-130090000D03*
X163328300Y-130090000D03*
X160788300Y-135170000D03*
X163328300Y-135170000D03*
X160788300Y-137710000D03*
X163328300Y-137710000D03*
X160788300Y-140250000D03*
X163328300Y-140250000D03*
X160788300Y-142790000D03*
X163328300Y-142790000D03*
X160788300Y-145330000D03*
X163328300Y-145330000D03*
X160788300Y-147870000D03*
X163328300Y-147870000D03*
X160788300Y-150410000D03*
X163328300Y-150410000D03*
X160788300Y-152950000D03*
X163328300Y-152950000D03*
X160788300Y-155490000D03*
X163328300Y-155490000D03*
X160788300Y-158030000D03*
X163328300Y-158030000D03*
X160788300Y-160570000D03*
X163328300Y-160570000D03*
X160788300Y-163110000D03*
X163328300Y-163110000D03*
X160788300Y-165650000D03*
X163328300Y-165650000D03*
X160788300Y-168190000D03*
X163328300Y-168190000D03*
X160788300Y-170730000D03*
X163328300Y-170730000D03*
X206508300Y-130090000D03*
X209048300Y-130090000D03*
X206508300Y-132630000D03*
X209048300Y-132630000D03*
X206508300Y-135170000D03*
X209048300Y-135170000D03*
X206508300Y-137710000D03*
X209048300Y-137710000D03*
X206508300Y-140250000D03*
X209048300Y-140250000D03*
X206508300Y-142790000D03*
X209048300Y-142790000D03*
X206508300Y-145330000D03*
X209048300Y-145330000D03*
X206508300Y-147870000D03*
X209048300Y-147870000D03*
X206508300Y-150410000D03*
X209048300Y-150410000D03*
X206508300Y-152950000D03*
X209048300Y-152950000D03*
X206508300Y-155490000D03*
X209048300Y-155490000D03*
X206508300Y-158030000D03*
X209048300Y-158030000D03*
X206508300Y-160570000D03*
X209048300Y-160570000D03*
X206508300Y-163110000D03*
X209048300Y-163110000D03*
X206508300Y-165650000D03*
X209048300Y-165650000D03*
X206508300Y-168190000D03*
X209048300Y-168190000D03*
X206508300Y-170730000D03*
X209048300Y-170730000D03*
X153168300Y-102150000D03*
X155708300Y-102150000D03*
X153168300Y-104690000D03*
X155708300Y-104690000D03*
X153168300Y-107230000D03*
X155708300Y-107230000D03*
X153168300Y-109770000D03*
X155708300Y-109770000D03*
X153168300Y-112310000D03*
X155708300Y-112310000D03*
X153168300Y-114850000D03*
X155708300Y-114850000D03*
X153168300Y-117390000D03*
X155708300Y-117390000D03*
X153168300Y-119930000D03*
X155708300Y-119930000D03*
X153168300Y-122470000D03*
X155708300Y-122470000D03*
X153168300Y-125010000D03*
X155708300Y-125010000D03*
X153168300Y-127550000D03*
X155708300Y-127550000D03*
X153168300Y-130090000D03*
X155708300Y-130090000D03*
X153168300Y-132630000D03*
X155708300Y-132630000D03*
X153168300Y-135170000D03*
X155708300Y-135170000D03*
X153168300Y-137710000D03*
X155708300Y-137710000D03*
X153168300Y-140250000D03*
X155708300Y-140250000D03*
X153168300Y-142790000D03*
X155708300Y-142790000D03*
X153168300Y-145330000D03*
X155708300Y-145330000D03*
X153168300Y-147870000D03*
X155708300Y-147870000D03*
X153168300Y-150410000D03*
X155708300Y-150410000D03*
X153168300Y-152950000D03*
X155708300Y-152950000D03*
X153168300Y-155490000D03*
X155708300Y-155490000D03*
X153168300Y-158030000D03*
X155708300Y-158030000D03*
X153168300Y-160570000D03*
X155708300Y-160570000D03*
X153168300Y-163110000D03*
X155708300Y-163110000D03*
X153168300Y-165650000D03*
X155708300Y-165650000D03*
X153168300Y-168190000D03*
X155708300Y-168190000D03*
X153168300Y-170730000D03*
X155708300Y-170730000D03*
X153168300Y-173270000D03*
X155708300Y-173270000D03*
X153168300Y-175810000D03*
X155708300Y-175810000D03*
X153168300Y-178350000D03*
X155708300Y-178350000D03*
X153168300Y-180890000D03*
X155708300Y-180890000D03*
X153168300Y-183430000D03*
X155708300Y-183430000D03*
X153168300Y-185970000D03*
X155708300Y-185970000D03*
X153168300Y-188510000D03*
X155708300Y-188510000D03*
X214128300Y-102170000D03*
X216668300Y-102170000D03*
X214128300Y-104710000D03*
X216668300Y-104710000D03*
X214128300Y-107250000D03*
X216668300Y-107250000D03*
X214128300Y-109790000D03*
X216668300Y-109790000D03*
X214128300Y-112330000D03*
X216668300Y-112330000D03*
X214128300Y-114870000D03*
X216668300Y-114870000D03*
X214128300Y-117410000D03*
X216668300Y-117410000D03*
X214128300Y-119950000D03*
X216668300Y-119950000D03*
X214128300Y-122490000D03*
X216668300Y-122490000D03*
X214128300Y-125030000D03*
X216668300Y-125030000D03*
X214128300Y-127570000D03*
X216668300Y-127570000D03*
X214128300Y-130110000D03*
X216668300Y-130110000D03*
X214128300Y-132650000D03*
X216668300Y-132650000D03*
X214128300Y-135190000D03*
X216668300Y-135190000D03*
X214128300Y-137730000D03*
X216668300Y-137730000D03*
X214128300Y-140270000D03*
X216668300Y-140270000D03*
X214128300Y-142810000D03*
X216668300Y-142810000D03*
X214128300Y-145350000D03*
X216668300Y-145350000D03*
X214128300Y-147890000D03*
X216668300Y-147890000D03*
X214128300Y-150430000D03*
X216668300Y-150430000D03*
X214128300Y-152970000D03*
X216668300Y-152970000D03*
X214128300Y-155510000D03*
X216668300Y-155510000D03*
X214128300Y-158050000D03*
X216668300Y-158050000D03*
X214128300Y-160590000D03*
X216668300Y-160590000D03*
X214128300Y-163130000D03*
X216668300Y-163130000D03*
X214128300Y-165670000D03*
X216668300Y-165670000D03*
X214128300Y-168210000D03*
X216668300Y-168210000D03*
X214128300Y-170750000D03*
X216668300Y-170750000D03*
X214128300Y-173290000D03*
X216668300Y-173290000D03*
X214128300Y-175830000D03*
X216668300Y-175830000D03*
X214128300Y-178370000D03*
X216668300Y-178370000D03*
X214128300Y-180910000D03*
X216668300Y-180910000D03*
X214128300Y-183450000D03*
X216668300Y-183450000D03*
X214128300Y-185990000D03*
X216668300Y-185990000D03*
X214128300Y-188530000D03*
X216668300Y-188530000D03*
X214128300Y-191070000D03*
X216668300Y-191070000D03*
X153168300Y-191050000D03*
X155708300Y-191050000D03*
X228970000Y-72050000D03*
X226430000Y-72050000D03*
X228970000Y-74590000D03*
X226430000Y-74590000D03*
X228970000Y-77130000D03*
X226430000Y-77130000D03*
X228970000Y-79670000D03*
X226430000Y-79670000D03*
X228970000Y-82210000D03*
X226430000Y-82210000D03*
X228970000Y-84750000D03*
X226430000Y-84750000D03*
X228970000Y-87290000D03*
X226430000Y-87290000D03*
X228970000Y-89830000D03*
X226430000Y-89830000D03*
X228970000Y-92370000D03*
X226430000Y-92370000D03*
X228970000Y-94910000D03*
X226430000Y-94910000D03*
X228970000Y-108150000D03*
X226430000Y-108150000D03*
X228970000Y-110690000D03*
X226430000Y-110690000D03*
X228970000Y-113230000D03*
X226430000Y-113230000D03*
X228970000Y-115770000D03*
X226430000Y-115770000D03*
X228970000Y-118310000D03*
X226430000Y-118310000D03*
X254750000Y-132580000D03*
X254750000Y-136540000D03*
X254750000Y-140500000D03*
X254750000Y-144460000D03*
X254750000Y-148420000D03*
X110500000Y-115250000D03*
X110500000Y-117250000D03*
X110500000Y-119250000D03*
X110500000Y-121250000D03*
X110500000Y-123250000D03*
X110500000Y-125250000D03*
D12*
X188190000Y-173640000D03*
X201690000Y-173640000D03*
D11*
X191340000Y-167640000D03*
X198540000Y-167640000D03*
X264500000Y-146630000D03*
X264500000Y-149170000D03*
X264500000Y-151710000D03*
X264500000Y-154250000D03*
X122000000Y-147350000D03*
X122000000Y-143390000D03*
X122000000Y-139430000D03*
X122000000Y-135470000D03*
X122000000Y-131510000D03*
D12*
X169180000Y-173640000D03*
X182680000Y-173640000D03*
D11*
X172330000Y-167640000D03*
X179530000Y-167640000D03*
X111300000Y-101420000D03*
X111300000Y-103960000D03*
X111300000Y-106500000D03*
X111300000Y-109040000D03*
X110500000Y-131000000D03*
X110500000Y-133000000D03*
X110500000Y-135000000D03*
X110500000Y-137000000D03*
X110500000Y-139000000D03*
X110500000Y-141000000D03*
X111310000Y-148130000D03*
X111310000Y-150670000D03*
X111310000Y-153210000D03*
X111310000Y-155750000D03*
X265750000Y-141000000D03*
X265750000Y-139000000D03*
X265750000Y-137000000D03*
X265750000Y-135000000D03*
X265750000Y-133000000D03*
X265750000Y-131000000D03*
X254750000Y-108660000D03*
X254750000Y-112620000D03*
X254750000Y-116580000D03*
X254750000Y-120540000D03*
X254750000Y-124500000D03*
X265750000Y-125250000D03*
X265750000Y-123250000D03*
X265750000Y-121250000D03*
X265750000Y-119250000D03*
X265750000Y-117250000D03*
X265750000Y-115250000D03*
X264250000Y-101450000D03*
X264250000Y-103990000D03*
X264250000Y-106530000D03*
X264250000Y-109070000D03*
X122000000Y-123430000D03*
X122000000Y-119470000D03*
X122000000Y-115510000D03*
X122000000Y-111550000D03*
X122000000Y-107590000D03*
M02*
