M48
; DRILL file {KiCad 8.0.6} date 2024-11-14T20:58:14+0100
; FORMAT={-:-/ absolute / metric / decimal}
; #@! TF.CreationDate,2024-11-14T20:58:14+01:00
; #@! TF.GenerationSoftware,Kicad,Pcbnew,8.0.6
; #@! TF.FileFunction,MixedPlating,1,2
FMAT,2
METRIC
; #@! TA.AperFunction,Plated,PTH,ViaDrill
T1C0.300
; #@! TA.AperFunction,Plated,PTH,ViaDrill
T2C0.600
; #@! TA.AperFunction,Plated,PTH,ComponentDrill
T3C0.600
; #@! TA.AperFunction,Plated,PTH,ComponentDrill
T4C0.800
; #@! TA.AperFunction,Plated,PTH,ViaDrill
T5C0.990
; #@! TA.AperFunction,Plated,PTH,ComponentDrill
T6C1.000
; #@! TA.AperFunction,Plated,PTH,ComponentDrill
T7C1.020
; #@! TA.AperFunction,Plated,PTH,ComponentDrill
T8C1.650
; #@! TA.AperFunction,Plated,PTH,ComponentDrill
T9C2.700
%
G90
G05
T1
X107.5Y-138.5
X107.6Y-136.3
X107.6Y-140.0
X113.474Y-151.126
X114.6Y-153.1
X115.6Y-146.45
X122.8Y-171.99
X125.668Y-169.811
X125.871Y-175.421
X126.475Y-169.77
X128.225Y-150.575
X129.44Y-82.9
X130.214Y-153.538
X131.31Y-160.62
X131.31Y-162.61
X132.95Y-146.75
X133.26Y-151.45
X134.604Y-152.901
X134.925Y-158.94
X135.2Y-180.5
X135.311Y-177.427
X135.524Y-162.176
X136.2Y-163.9
X136.4Y-172.2
X136.47Y-174.36
X136.6Y-168.79
X136.6Y-169.59
X136.8Y-161.3
X136.8Y-162.1
X136.824Y-160.476
X137.1Y-146.74
X137.849Y-168.3
X138.024Y-160.3
X138.024Y-161.1
X138.024Y-161.9
X138.5Y-175.4
X138.521Y-177.221
X139.1Y-183.3
X140.5Y-184.2
X141.88Y-125.02
X144.35Y-175.64
X145.54Y-148.923
X146.1Y-177.26
X146.15Y-125.05
X146.6Y-122.33
X146.63Y-123.33
X147.7Y-84.05
X147.775Y-89.525
X147.98Y-106.35
X148.025Y-94.15
X148.47Y-138.66
X148.47Y-148.4
X149.71Y-103.9
X149.757Y-88.843
X149.901Y-94.439
X150.07Y-138.34
X150.73Y-142.78
X151.11Y-157.18
X151.574Y-176.626
X151.6Y-96.11
X151.607Y-175.826
X151.65Y-182.544
X152.143Y-161.884
X152.275Y-179.447
X153.1Y-91.43
X157.575Y-163.5
X157.6Y-161.65
X157.925Y-101.094
X158.05Y-108.475
X158.2Y-156.66
X158.2Y-158.66
X158.225Y-91.025
X158.25Y-159.91
X158.34Y-155.0
X159.075Y-119.41
X159.775Y-177.896
X160.225Y-102.524
X160.375Y-172.325
X160.525Y-174.55
X162.058Y-155.061
X164.2Y-98.42
X164.4Y-162.225
X164.725Y-164.8
X164.83Y-99.7
X165.04Y-123.76
X165.581Y-124.994
X166.43Y-98.6
X169.39Y-118.26
X170.12Y-133.02
X170.687Y-131.069
X171.2Y-115.3
X171.916Y-114.942
X172.35Y-120.65
X174.5Y-157.2
X175.3Y-156.4
X175.896Y-161.372
X175.9Y-118.5
X175.957Y-158.043
X176.003Y-157.244
X176.143Y-119.389
X176.533Y-161.856
X176.571Y-128.488
X181.3Y-113.2
X181.3Y-114.0
X182.831Y-157.086
X182.84Y-157.9
X183.81Y-159.104
X186.111Y-119.559
X188.56Y-101.54
X188.61Y-103.17
X188.68Y-99.72
X191.4Y-159.3
X193.304Y-148.407
X193.876Y-117.735
X193.904Y-149.4
X193.904Y-151.4
X194.386Y-120.313
X194.978Y-117.588
X195.54Y-118.79
X197.851Y-148.132
X197.935Y-147.2
X198.2Y-125.2
X198.2Y-142.35
X199.6Y-114.2
X199.87Y-112.44
X200.163Y-134.537
X201.05Y-145.8
X201.426Y-144.576
X201.634Y-135.136
X201.85Y-152.0
X202.535Y-140.4
X202.535Y-141.2
X202.535Y-142.15
X204.9Y-138.1
X205.2Y-159.3
X205.25Y-107.04
X205.4Y-109.01
X209.526Y-176.001
X209.725Y-179.475
X210.088Y-174.163
X210.4Y-134.0
X210.445Y-123.945
X210.71Y-107.04
X210.71Y-108.52
X210.99Y-125.3
X211.03Y-136.97
X211.152Y-179.007
X211.718Y-178.441
X212.35Y-155.16
X212.785Y-160.7
X212.87Y-184.17
X213.178Y-166.774
X215.145Y-138.507
X215.39Y-109.12
X215.398Y-150.17
X215.398Y-174.15
X217.512Y-161.584
X217.68Y-111.15
X218.302Y-161.46
X218.52Y-172.83
X218.762Y-155.207
X218.95Y-152.3
X219.543Y-106.737
X220.05Y-161.3
X221.251Y-122.516
X222.579Y-128.488
X224.05Y-182.13
X224.22Y-180.68
X225.614Y-131.251
X227.0Y-161.8
X227.1Y-162.941
X227.1Y-163.79
X230.105Y-114.13
X230.81Y-111.56
X232.663Y-116.611
X232.92Y-159.4
X233.69Y-111.53
X234.341Y-114.392
X234.485Y-113.605
X234.521Y-105.391
X234.7Y-168.66
X234.89Y-108.97
X234.959Y-112.565
X235.15Y-103.63
X235.676Y-169.996
X236.304Y-170.492
X236.354Y-108.354
X236.546Y-146.56
X236.55Y-123.48
X236.57Y-151.73
X236.65Y-157.15
X236.904Y-171.098
X238.15Y-159.81
X241.14Y-162.24
X243.44Y-146.41
X243.747Y-162.189
X244.3Y-99.63
X244.375Y-162.685
X245.017Y-163.266
X247.579Y-161.389
X253.22Y-102.88
X255.93Y-103.48
X257.75Y-104.33
X257.98Y-107.81
X258.776Y-107.891
X259.44Y-146.66
X259.575Y-107.857
X262.85Y-143.22
T2
X147.17Y-119.94
X147.4Y-126.09
X158.01Y-171.01
X159.05Y-169.12
X159.08Y-109.47
X159.14Y-173.19
X165.2Y-175.81
X166.377Y-129.876
X167.6Y-175.8
X168.567Y-122.877
X168.567Y-140.983
X172.155Y-128.773
X173.48Y-145.3
X175.46Y-150.69
X179.41Y-161.04
X180.91Y-152.35
X180.91Y-153.39
X180.91Y-154.38
X181.054Y-132.096
X181.8Y-152.35
X181.8Y-153.39
X181.8Y-154.38
X191.41Y-161.94
X192.0Y-148.3
X196.4Y-146.6
X197.36Y-161.04
X198.06Y-160.54
X198.435Y-121.975
X200.11Y-139.84
X201.13Y-115.71
X211.32Y-184.83
X212.05Y-131.34
X212.49Y-135.78
X218.84Y-127.49
X218.87Y-118.55
X220.83Y-132.34
X223.74Y-110.83
X227.025Y-130.775
X227.06Y-131.95
X227.8Y-132.825
X229.025Y-132.825
X229.575Y-128.45
X230.4Y-129.2
X230.525Y-127.475
X231.225Y-130.05
X231.325Y-128.45
X231.53Y-126.84
X232.125Y-131.125
X232.2Y-127.73
X232.4Y-129.45
X232.975Y-132.0
X233.11Y-128.58
X233.225Y-130.275
X234.5Y-126.425
X234.625Y-128.525
X234.7Y-130.95
X261.2Y-109.22
T4
X110.5Y-115.25
X110.5Y-117.25
X110.5Y-119.25
X110.5Y-121.25
X110.5Y-123.25
X110.5Y-125.25
X110.5Y-131.0
X110.5Y-133.0
X110.5Y-135.0
X110.5Y-137.0
X110.5Y-139.0
X110.5Y-141.0
X265.75Y-115.25
X265.75Y-117.25
X265.75Y-119.25
X265.75Y-121.25
X265.75Y-123.25
X265.75Y-125.25
X265.75Y-131.0
X265.75Y-133.0
X265.75Y-135.0
X265.75Y-137.0
X265.75Y-139.0
X265.75Y-141.0
T5
X144.25Y-163.12
X145.74Y-152.85
X145.86Y-151.09
X145.91Y-163.11
X147.4Y-151.04
X147.61Y-152.85
T6
X111.3Y-101.42
X111.3Y-103.96
X111.3Y-106.5
X111.3Y-109.04
X111.31Y-148.13
X111.31Y-150.67
X111.31Y-153.21
X111.31Y-155.75
X121.67Y-89.53
X121.67Y-92.07
X121.67Y-94.61
X121.67Y-97.15
X153.168Y-74.21
X153.168Y-76.75
X153.168Y-102.15
X153.168Y-104.69
X153.168Y-107.23
X153.168Y-109.77
X153.168Y-112.31
X153.168Y-114.85
X153.168Y-117.39
X153.168Y-119.93
X153.168Y-122.47
X153.168Y-125.01
X153.168Y-127.55
X153.168Y-130.09
X153.168Y-132.63
X153.168Y-135.17
X153.168Y-137.71
X153.168Y-140.25
X153.168Y-142.79
X153.168Y-145.33
X153.168Y-147.87
X153.168Y-150.41
X153.168Y-152.95
X153.168Y-155.49
X153.168Y-158.03
X153.168Y-160.57
X153.168Y-163.11
X153.168Y-165.65
X153.168Y-168.19
X153.168Y-170.73
X153.168Y-173.27
X153.168Y-175.81
X153.168Y-178.35
X153.168Y-180.89
X153.168Y-183.43
X153.168Y-185.97
X153.168Y-188.51
X153.168Y-191.05
X155.708Y-102.15
X155.708Y-104.69
X155.708Y-107.23
X155.708Y-109.77
X155.708Y-112.31
X155.708Y-114.85
X155.708Y-117.39
X155.708Y-119.93
X155.708Y-122.47
X155.708Y-125.01
X155.708Y-127.55
X155.708Y-130.09
X155.708Y-132.63
X155.708Y-135.17
X155.708Y-137.71
X155.708Y-140.25
X155.708Y-142.79
X155.708Y-145.33
X155.708Y-147.87
X155.708Y-150.41
X155.708Y-152.95
X155.708Y-155.49
X155.708Y-158.03
X155.708Y-160.57
X155.708Y-163.11
X155.708Y-165.65
X155.708Y-168.19
X155.708Y-170.73
X155.708Y-173.27
X155.708Y-175.81
X155.708Y-178.35
X155.708Y-180.89
X155.708Y-183.43
X155.708Y-185.97
X155.708Y-188.51
X155.708Y-191.05
X160.788Y-112.31
X160.788Y-114.85
X160.788Y-117.39
X160.788Y-119.93
X160.788Y-122.47
X160.788Y-125.01
X160.788Y-127.55
X160.788Y-130.09
X160.788Y-135.17
X160.788Y-137.71
X160.788Y-140.25
X160.788Y-142.79
X160.788Y-145.33
X160.788Y-147.87
X160.788Y-150.41
X160.788Y-152.95
X160.788Y-155.49
X160.788Y-158.03
X160.788Y-160.57
X160.788Y-163.11
X160.788Y-165.65
X160.788Y-168.19
X160.788Y-170.73
X163.328Y-112.31
X163.328Y-114.85
X163.328Y-117.39
X163.328Y-119.93
X163.328Y-122.47
X163.328Y-125.01
X163.328Y-127.55
X163.328Y-130.09
X163.328Y-135.17
X163.328Y-137.71
X163.328Y-140.25
X163.328Y-142.79
X163.328Y-145.33
X163.328Y-147.87
X163.328Y-150.41
X163.328Y-152.95
X163.328Y-155.49
X163.328Y-158.03
X163.328Y-160.57
X163.328Y-163.11
X163.328Y-165.65
X163.328Y-168.19
X163.328Y-170.73
X206.508Y-103.166
X206.508Y-105.706
X206.508Y-108.246
X206.508Y-110.786
X206.508Y-113.326
X206.508Y-115.866
X206.508Y-118.406
X206.508Y-120.946
X206.508Y-123.486
X206.508Y-126.026
X206.508Y-130.09
X206.508Y-132.63
X206.508Y-135.17
X206.508Y-137.71
X206.508Y-140.25
X206.508Y-142.79
X206.508Y-145.33
X206.508Y-147.87
X206.508Y-150.41
X206.508Y-152.95
X206.508Y-155.49
X206.508Y-158.03
X206.508Y-160.57
X206.508Y-163.11
X206.508Y-165.65
X206.508Y-168.19
X206.508Y-170.73
X209.048Y-103.166
X209.048Y-105.706
X209.048Y-108.246
X209.048Y-110.786
X209.048Y-113.326
X209.048Y-115.866
X209.048Y-118.406
X209.048Y-120.946
X209.048Y-123.486
X209.048Y-126.026
X209.048Y-130.09
X209.048Y-132.63
X209.048Y-135.17
X209.048Y-137.71
X209.048Y-140.25
X209.048Y-142.79
X209.048Y-145.33
X209.048Y-147.87
X209.048Y-150.41
X209.048Y-152.95
X209.048Y-155.49
X209.048Y-158.03
X209.048Y-160.57
X209.048Y-163.11
X209.048Y-165.65
X209.048Y-168.19
X209.048Y-170.73
X214.128Y-102.17
X214.128Y-104.71
X214.128Y-107.25
X214.128Y-109.79
X214.128Y-112.33
X214.128Y-114.87
X214.128Y-117.41
X214.128Y-119.95
X214.128Y-122.49
X214.128Y-125.03
X214.128Y-127.57
X214.128Y-130.11
X214.128Y-132.65
X214.128Y-135.19
X214.128Y-137.73
X214.128Y-140.27
X214.128Y-142.81
X214.128Y-145.35
X214.128Y-147.89
X214.128Y-150.43
X214.128Y-152.97
X214.128Y-155.51
X214.128Y-158.05
X214.128Y-160.59
X214.128Y-163.13
X214.128Y-165.67
X214.128Y-168.21
X214.128Y-170.75
X214.128Y-173.29
X214.128Y-175.83
X214.128Y-178.37
X214.128Y-180.91
X214.128Y-183.45
X214.128Y-185.99
X214.128Y-188.53
X214.128Y-191.07
X216.668Y-74.21
X216.668Y-76.75
X216.668Y-102.17
X216.668Y-104.71
X216.668Y-107.25
X216.668Y-109.79
X216.668Y-112.33
X216.668Y-114.87
X216.668Y-117.41
X216.668Y-119.95
X216.668Y-122.49
X216.668Y-125.03
X216.668Y-127.57
X216.668Y-130.11
X216.668Y-132.65
X216.668Y-135.19
X216.668Y-137.73
X216.668Y-140.27
X216.668Y-142.81
X216.668Y-145.35
X216.668Y-147.89
X216.668Y-150.43
X216.668Y-152.97
X216.668Y-155.51
X216.668Y-158.05
X216.668Y-160.59
X216.668Y-163.13
X216.668Y-165.67
X216.668Y-168.21
X216.668Y-170.75
X216.668Y-173.29
X216.668Y-175.83
X216.668Y-178.37
X216.668Y-180.91
X216.668Y-183.45
X216.668Y-185.99
X216.668Y-188.53
X216.668Y-191.07
X264.25Y-101.45
X264.25Y-103.99
X264.25Y-106.53
X264.25Y-109.07
X264.5Y-146.63
X264.5Y-149.17
X264.5Y-151.71
X264.5Y-154.25
T7
X119.5Y-155.65
X119.5Y-158.19
X119.5Y-160.73
X119.5Y-163.27
X119.5Y-165.81
X119.5Y-168.35
X129.167Y-155.668
X129.167Y-158.208
X129.167Y-160.748
X129.167Y-163.288
X129.167Y-165.828
X129.167Y-168.368
X133.46Y-155.64
X133.46Y-158.18
X133.46Y-160.72
X133.46Y-163.26
X133.46Y-165.8
X133.46Y-168.34
X133.46Y-173.627
X133.46Y-176.167
X133.46Y-178.707
X133.46Y-181.248
X133.46Y-183.787
X133.46Y-186.327
X140.34Y-135.35
X140.34Y-137.89
X140.34Y-140.43
X140.34Y-142.97
X140.34Y-145.51
X140.34Y-148.05
X140.34Y-150.59
X140.34Y-153.13
X140.34Y-155.67
X140.34Y-158.21
X140.34Y-171.45
X140.34Y-173.99
X140.34Y-176.53
X140.34Y-179.07
X140.34Y-181.61
X140.575Y-69.865
X140.575Y-72.405
X140.575Y-74.945
X140.575Y-77.485
X140.575Y-80.025
X140.575Y-93.265
X140.575Y-95.805
X140.575Y-98.345
X140.575Y-100.885
X140.575Y-103.425
X140.575Y-105.965
X140.575Y-108.505
X140.575Y-111.045
X140.575Y-113.585
X140.575Y-116.125
X142.88Y-135.35
X142.88Y-137.89
X142.88Y-140.43
X142.88Y-142.97
X142.88Y-145.51
X142.88Y-148.05
X142.88Y-150.59
X142.88Y-153.13
X142.88Y-155.67
X142.88Y-158.21
X142.88Y-171.45
X142.88Y-173.99
X142.88Y-176.53
X142.88Y-179.07
X142.88Y-181.61
X143.115Y-69.865
X143.115Y-72.405
X143.115Y-74.945
X143.115Y-77.485
X143.115Y-80.025
X143.115Y-93.265
X143.115Y-95.805
X143.115Y-98.345
X143.115Y-100.885
X143.115Y-103.425
X143.115Y-105.965
X143.115Y-108.505
X143.115Y-111.045
X143.115Y-113.585
X143.115Y-116.125
X226.43Y-72.05
X226.43Y-74.59
X226.43Y-77.13
X226.43Y-79.67
X226.43Y-82.21
X226.43Y-84.75
X226.43Y-87.29
X226.43Y-89.83
X226.43Y-92.37
X226.43Y-94.91
X226.43Y-108.15
X226.43Y-110.69
X226.43Y-113.23
X226.43Y-115.77
X226.43Y-118.31
X226.46Y-135.19
X226.46Y-137.73
X226.46Y-140.27
X226.46Y-142.81
X226.46Y-145.35
X226.46Y-147.89
X226.46Y-150.43
X226.46Y-152.97
X226.46Y-155.51
X226.46Y-158.05
X226.46Y-171.29
X226.46Y-173.83
X226.46Y-176.37
X226.46Y-178.91
X226.46Y-181.45
X228.97Y-72.05
X228.97Y-74.59
X228.97Y-77.13
X228.97Y-79.67
X228.97Y-82.21
X228.97Y-84.75
X228.97Y-87.29
X228.97Y-89.83
X228.97Y-92.37
X228.97Y-94.91
X228.97Y-108.15
X228.97Y-110.69
X228.97Y-113.23
X228.97Y-115.77
X228.97Y-118.31
X229.0Y-135.19
X229.0Y-137.73
X229.0Y-140.27
X229.0Y-142.81
X229.0Y-145.35
X229.0Y-147.89
X229.0Y-150.43
X229.0Y-152.97
X229.0Y-155.51
X229.0Y-158.05
X229.0Y-171.29
X229.0Y-173.83
X229.0Y-176.37
X229.0Y-178.91
X229.0Y-181.45
X238.6Y-147.468
X238.6Y-150.008
X238.6Y-152.548
X238.6Y-155.088
X238.6Y-157.628
X238.63Y-88.52
X238.63Y-91.06
X238.63Y-93.6
X238.63Y-96.14
X238.63Y-98.68
X238.63Y-111.92
X238.63Y-114.46
X238.63Y-117.0
X238.63Y-119.54
X238.63Y-122.08
X238.63Y-124.62
X238.63Y-127.16
X238.63Y-129.7
X238.63Y-132.24
X238.63Y-134.78
X241.14Y-147.468
X241.14Y-150.008
X241.14Y-152.548
X241.14Y-155.088
X241.14Y-157.628
X241.17Y-88.52
X241.17Y-91.06
X241.17Y-93.6
X241.17Y-96.14
X241.17Y-98.68
X241.17Y-111.92
X241.17Y-114.46
X241.17Y-117.0
X241.17Y-119.54
X241.17Y-122.08
X241.17Y-124.62
X241.17Y-127.16
X241.17Y-129.7
X241.17Y-132.24
X241.17Y-134.78
T8
X122.0Y-107.59
X122.0Y-111.55
X122.0Y-115.51
X122.0Y-119.47
X122.0Y-123.43
X122.0Y-131.51
X122.0Y-135.47
X122.0Y-139.43
X122.0Y-143.39
X122.0Y-147.35
X250.65Y-82.55
X250.65Y-86.51
X250.65Y-90.47
X250.65Y-94.43
X250.65Y-98.39
X254.75Y-108.66
X254.75Y-112.62
X254.75Y-116.58
X254.75Y-120.54
X254.75Y-124.5
X254.75Y-132.58
X254.75Y-136.54
X254.75Y-140.5
X254.75Y-144.46
X254.75Y-148.42
T9
X172.33Y-167.64
X179.53Y-167.64
X191.34Y-167.64
X198.54Y-167.64
T3
G00X169.18Y-173.09
M15
G01X169.18Y-174.19
M16
G05
G00X182.68Y-173.09
M15
G01X182.68Y-174.19
M16
G05
G00X188.19Y-173.09
M15
G01X188.19Y-174.19
M16
G05
G00X201.69Y-173.09
M15
G01X201.69Y-174.19
M16
G05
M30
