%TF.GenerationSoftware,KiCad,Pcbnew,8.0.6*%
%TF.CreationDate,2024-11-14T20:58:14+01:00*%
%TF.ProjectId,Mainboard,4d61696e-626f-4617-9264-2e6b69636164,rev?*%
%TF.SameCoordinates,Original*%
%TF.FileFunction,Soldermask,Top*%
%TF.FilePolarity,Negative*%
%FSLAX46Y46*%
G04 Gerber Fmt 4.6, Leading zero omitted, Abs format (unit mm)*
G04 Created by KiCad (PCBNEW 8.0.6) date 2024-11-14 20:58:14*
%MOMM*%
%LPD*%
G01*
G04 APERTURE LIST*
G04 Aperture macros list*
%AMRoundRect*
0 Rectangle with rounded corners*
0 $1 Rounding radius*
0 $2 $3 $4 $5 $6 $7 $8 $9 X,Y pos of 4 corners*
0 Add a 4 corners polygon primitive as box body*
4,1,4,$2,$3,$4,$5,$6,$7,$8,$9,$2,$3,0*
0 Add four circle primitives for the rounded corners*
1,1,$1+$1,$2,$3*
1,1,$1+$1,$4,$5*
1,1,$1+$1,$6,$7*
1,1,$1+$1,$8,$9*
0 Add four rect primitives between the rounded corners*
20,1,$1+$1,$2,$3,$4,$5,0*
20,1,$1+$1,$4,$5,$6,$7,0*
20,1,$1+$1,$6,$7,$8,$9,0*
20,1,$1+$1,$8,$9,$2,$3,0*%
G04 Aperture macros list end*
%ADD10RoundRect,0.250000X0.412500X1.100000X-0.412500X1.100000X-0.412500X-1.100000X0.412500X-1.100000X0*%
%ADD11RoundRect,0.250000X-0.412500X-1.100000X0.412500X-1.100000X0.412500X1.100000X-0.412500X1.100000X0*%
%ADD12C,1.733200*%
%ADD13RoundRect,0.250000X0.450000X-0.350000X0.450000X0.350000X-0.450000X0.350000X-0.450000X-0.350000X0*%
%ADD14R,2.500000X2.500000*%
%ADD15C,2.500000*%
%ADD16RoundRect,0.250000X0.350000X0.450000X-0.350000X0.450000X-0.350000X-0.450000X0.350000X-0.450000X0*%
%ADD17RoundRect,0.250000X-0.337500X-0.475000X0.337500X-0.475000X0.337500X0.475000X-0.337500X0.475000X0*%
%ADD18RoundRect,0.250000X0.475000X-0.337500X0.475000X0.337500X-0.475000X0.337500X-0.475000X-0.337500X0*%
%ADD19R,2.000000X3.500000*%
%ADD20RoundRect,0.250000X-0.475000X0.337500X-0.475000X-0.337500X0.475000X-0.337500X0.475000X0.337500X0*%
%ADD21RoundRect,0.250000X-1.100000X0.412500X-1.100000X-0.412500X1.100000X-0.412500X1.100000X0.412500X0*%
%ADD22RoundRect,0.380000X-0.380000X0.380000X-0.380000X-0.380000X0.380000X-0.380000X0.380000X0.380000X0*%
%ADD23C,1.520000*%
%ADD24R,0.575000X0.350000*%
%ADD25R,0.350000X0.575000*%
%ADD26RoundRect,0.250000X0.337500X0.475000X-0.337500X0.475000X-0.337500X-0.475000X0.337500X-0.475000X0*%
%ADD27R,0.830000X0.400000*%
%ADD28R,0.620000X0.400000*%
%ADD29R,1.850000X2.250000*%
%ADD30R,0.130000X0.050000*%
%ADD31RoundRect,0.250000X1.100000X-0.412500X1.100000X0.412500X-1.100000X0.412500X-1.100000X-0.412500X0*%
%ADD32R,0.997699X0.508000*%
%ADD33R,1.700000X1.700000*%
%ADD34O,1.700000X1.700000*%
%ADD35R,0.300000X0.670000*%
%ADD36R,1.200000X0.450000*%
%ADD37RoundRect,0.102000X-0.754000X-0.754000X0.754000X-0.754000X0.754000X0.754000X-0.754000X0.754000X0*%
%ADD38C,1.712000*%
%ADD39RoundRect,0.102000X0.654000X-0.654000X0.654000X0.654000X-0.654000X0.654000X-0.654000X-0.654000X0*%
%ADD40C,1.512000*%
%ADD41R,0.900000X2.000000*%
%ADD42RoundRect,1.025000X-1.025000X-1.025000X1.025000X-1.025000X1.025000X1.025000X-1.025000X1.025000X0*%
%ADD43C,4.100000*%
%ADD44RoundRect,0.102000X-0.654000X0.654000X-0.654000X-0.654000X0.654000X-0.654000X0.654000X0.654000X0*%
G04 APERTURE END LIST*
D10*
%TO.C,C23*%
X198022500Y-139840000D03*
X194897500Y-139840000D03*
%TD*%
D11*
%TO.C,C13*%
X174235000Y-132490000D03*
X177360000Y-132490000D03*
%TD*%
D12*
%TO.C,J4*%
X238600000Y-147468000D03*
X241140000Y-147468000D03*
X238600000Y-150008000D03*
X241140000Y-150008000D03*
X238600000Y-152548000D03*
X241140000Y-152548000D03*
X238600000Y-155088000D03*
X241140000Y-155088000D03*
X238600000Y-157628000D03*
X241140000Y-157628000D03*
%TD*%
D13*
%TO.C,R4*%
X168160000Y-139440000D03*
X168160000Y-137440000D03*
%TD*%
D14*
%TO.C,J16*%
X250650000Y-98390000D03*
D15*
X250650000Y-94430000D03*
X250650000Y-90470000D03*
X250650000Y-86510000D03*
X250650000Y-82550000D03*
%TD*%
D16*
%TO.C,R1*%
X190050000Y-158780000D03*
X188050000Y-158780000D03*
%TD*%
D17*
%TO.C,C6*%
X170472500Y-147790000D03*
X172547500Y-147790000D03*
%TD*%
D18*
%TO.C,C2*%
X177760000Y-163122500D03*
X177760000Y-161047500D03*
%TD*%
D16*
%TO.C,R2*%
X171490000Y-158780000D03*
X169490000Y-158780000D03*
%TD*%
D12*
%TO.C,J20*%
X229000000Y-135190000D03*
X226460000Y-135190000D03*
X229000000Y-137730000D03*
X226460000Y-137730000D03*
X229000000Y-140270000D03*
X226460000Y-140270000D03*
X229000000Y-142810000D03*
X226460000Y-142810000D03*
X229000000Y-145350000D03*
X226460000Y-145350000D03*
X229000000Y-147890000D03*
X226460000Y-147890000D03*
X229000000Y-150430000D03*
X226460000Y-150430000D03*
X229000000Y-152970000D03*
X226460000Y-152970000D03*
X229000000Y-155510000D03*
X226460000Y-155510000D03*
X229000000Y-158050000D03*
X226460000Y-158050000D03*
X229000000Y-171290000D03*
X226460000Y-171290000D03*
X229000000Y-173830000D03*
X226460000Y-173830000D03*
X229000000Y-176370000D03*
X226460000Y-176370000D03*
X229000000Y-178910000D03*
X226460000Y-178910000D03*
X229000000Y-181450000D03*
X226460000Y-181450000D03*
%TD*%
D13*
%TO.C,R3*%
X171660000Y-139440000D03*
X171660000Y-137440000D03*
%TD*%
D18*
%TO.C,C1*%
X196080000Y-163122500D03*
X196080000Y-161047500D03*
%TD*%
D17*
%TO.C,C10*%
X189045000Y-147610000D03*
X191120000Y-147610000D03*
%TD*%
D12*
%TO.C,J22*%
X140575000Y-116125000D03*
X143115000Y-116125000D03*
X140575000Y-113585000D03*
X143115000Y-113585000D03*
X140575000Y-111045000D03*
X143115000Y-111045000D03*
X140575000Y-108505000D03*
X143115000Y-108505000D03*
X140575000Y-105965000D03*
X143115000Y-105965000D03*
X140575000Y-103425000D03*
X143115000Y-103425000D03*
X140575000Y-100885000D03*
X143115000Y-100885000D03*
X140575000Y-98345000D03*
X143115000Y-98345000D03*
X140575000Y-95805000D03*
X143115000Y-95805000D03*
X140575000Y-93265000D03*
X143115000Y-93265000D03*
X140575000Y-80025000D03*
X143115000Y-80025000D03*
X140575000Y-77485000D03*
X143115000Y-77485000D03*
X140575000Y-74945000D03*
X143115000Y-74945000D03*
X140575000Y-72405000D03*
X143115000Y-72405000D03*
X140575000Y-69865000D03*
X143115000Y-69865000D03*
%TD*%
D19*
%TO.C,L2*%
X189810000Y-131740000D03*
X198810000Y-131740000D03*
%TD*%
D17*
%TO.C,C26*%
X194287500Y-123450000D03*
X196362500Y-123450000D03*
%TD*%
D18*
%TO.C,C43*%
X165900000Y-133975000D03*
X165900000Y-131900000D03*
%TD*%
D12*
%TO.C,J19*%
X142880000Y-135350000D03*
X140340000Y-135350000D03*
X142880000Y-137890000D03*
X140340000Y-137890000D03*
X142880000Y-140430000D03*
X140340000Y-140430000D03*
X142880000Y-142970000D03*
X140340000Y-142970000D03*
X142880000Y-145510000D03*
X140340000Y-145510000D03*
X142880000Y-148050000D03*
X140340000Y-148050000D03*
X142880000Y-150590000D03*
X140340000Y-150590000D03*
X142880000Y-153130000D03*
X140340000Y-153130000D03*
X142880000Y-155670000D03*
X140340000Y-155670000D03*
X142880000Y-158210000D03*
X140340000Y-158210000D03*
X142880000Y-171450000D03*
X140340000Y-171450000D03*
X142880000Y-173990000D03*
X140340000Y-173990000D03*
X142880000Y-176530000D03*
X140340000Y-176530000D03*
X142880000Y-179070000D03*
X140340000Y-179070000D03*
X142880000Y-181610000D03*
X140340000Y-181610000D03*
%TD*%
D20*
%TO.C,C12*%
X167230000Y-119082500D03*
X167230000Y-121157500D03*
%TD*%
D21*
%TO.C,C24*%
X198900000Y-120412500D03*
X198900000Y-123537500D03*
%TD*%
D18*
%TO.C,C4*%
X174670000Y-163122500D03*
X174670000Y-161047500D03*
%TD*%
D22*
%TO.C,J3*%
X133460000Y-173627500D03*
D23*
X133460000Y-176167500D03*
X133460000Y-178707500D03*
X133460000Y-181247500D03*
X133460000Y-183787500D03*
X133460000Y-186327500D03*
%TD*%
D24*
%TO.C,IC3*%
X193562000Y-119462000D03*
X193562000Y-119962000D03*
X193562000Y-120462000D03*
X193562000Y-120962000D03*
D25*
X194225000Y-121124000D03*
X194725000Y-121124000D03*
X195225000Y-121124000D03*
D24*
X195888000Y-120962000D03*
X195888000Y-120462000D03*
X195888000Y-119962000D03*
X195888000Y-119462000D03*
D25*
X195225000Y-119300000D03*
X194725000Y-119300000D03*
X194225000Y-119300000D03*
%TD*%
D26*
%TO.C,C22*%
X191510000Y-140590000D03*
X189435000Y-140590000D03*
%TD*%
D11*
%TO.C,C9*%
X170535000Y-150500000D03*
X173660000Y-150500000D03*
%TD*%
D27*
%TO.C,Q1*%
X188641000Y-153960000D03*
X188641000Y-154610000D03*
X188641000Y-155260000D03*
X188641000Y-155910000D03*
D28*
X191815000Y-155910000D03*
X191815000Y-155260000D03*
X191815000Y-154610000D03*
X191815000Y-153960000D03*
D29*
X190580000Y-154935000D03*
D30*
X191440000Y-156085000D03*
X191440000Y-153785000D03*
%TD*%
D12*
%TO.C,J18*%
X238630000Y-134780000D03*
X241170000Y-134780000D03*
X238630000Y-132240000D03*
X241170000Y-132240000D03*
X238630000Y-129700000D03*
X241170000Y-129700000D03*
X238630000Y-127160000D03*
X241170000Y-127160000D03*
X238630000Y-124620000D03*
X241170000Y-124620000D03*
X238630000Y-122080000D03*
X241170000Y-122080000D03*
X238630000Y-119540000D03*
X241170000Y-119540000D03*
X238630000Y-117000000D03*
X241170000Y-117000000D03*
X238630000Y-114460000D03*
X241170000Y-114460000D03*
X238630000Y-111920000D03*
X241170000Y-111920000D03*
X238630000Y-98680000D03*
X241170000Y-98680000D03*
X238630000Y-96140000D03*
X241170000Y-96140000D03*
X238630000Y-93600000D03*
X241170000Y-93600000D03*
X238630000Y-91060000D03*
X241170000Y-91060000D03*
X238630000Y-88520000D03*
X241170000Y-88520000D03*
%TD*%
D11*
%TO.C,C7*%
X189127500Y-150360000D03*
X192252500Y-150360000D03*
%TD*%
D31*
%TO.C,C11*%
X181690000Y-163647500D03*
X181690000Y-160522500D03*
%TD*%
D22*
%TO.C,J24*%
X133460000Y-155640000D03*
D23*
X133460000Y-158180000D03*
X133460000Y-160720000D03*
X133460000Y-163260000D03*
X133460000Y-165800000D03*
X133460000Y-168340000D03*
%TD*%
D11*
%TO.C,C28*%
X174255000Y-135940000D03*
X177380000Y-135940000D03*
%TD*%
D22*
%TO.C,J25*%
X119500000Y-155650000D03*
D23*
X119500000Y-158190000D03*
X119500000Y-160730000D03*
X119500000Y-163270000D03*
X119500000Y-165810000D03*
X119500000Y-168350000D03*
%TD*%
D26*
%TO.C,C27*%
X176255000Y-138990000D03*
X174180000Y-138990000D03*
%TD*%
D20*
%TO.C,C25*%
X201850000Y-120987500D03*
X201850000Y-123062500D03*
%TD*%
D17*
%TO.C,C44*%
X168600000Y-129625000D03*
X170675000Y-129625000D03*
%TD*%
D32*
%TO.C,U2*%
X171160351Y-133940001D03*
X171160351Y-132990000D03*
X171160351Y-132039999D03*
X168410049Y-132039999D03*
X168410049Y-133940001D03*
%TD*%
D33*
%TO.C,J26*%
X121670000Y-89530000D03*
D34*
X121670000Y-92070000D03*
X121670000Y-94610000D03*
X121670000Y-97150000D03*
%TD*%
D35*
%TO.C,IC6*%
X189527500Y-145130000D03*
X190027500Y-145130000D03*
X190527500Y-145130000D03*
X191027500Y-145130000D03*
X191027500Y-143650000D03*
X190527500Y-143650000D03*
X190027500Y-143650000D03*
X189527500Y-143650000D03*
%TD*%
D36*
%TO.C,IC1*%
X190040000Y-162905000D03*
X190040000Y-162255000D03*
X190040000Y-161605000D03*
X190040000Y-160955000D03*
X187540000Y-160955000D03*
X187540000Y-161605000D03*
X187540000Y-162255000D03*
X187540000Y-162905000D03*
%TD*%
D22*
%TO.C,J8*%
X129166700Y-155668000D03*
D23*
X129166700Y-158208000D03*
X129166700Y-160748000D03*
X129166700Y-163288000D03*
X129166700Y-165828000D03*
X129166700Y-168368000D03*
%TD*%
D37*
%TO.C,U1*%
X153168300Y-74210000D03*
D38*
X153168300Y-76750000D03*
D37*
X216668300Y-74210000D03*
D38*
X216668300Y-76750000D03*
D37*
X206508300Y-103166000D03*
D38*
X209048300Y-103166000D03*
X206508300Y-105706000D03*
X209048300Y-105706000D03*
X206508300Y-108246000D03*
X209048300Y-108246000D03*
X206508300Y-110786000D03*
X209048300Y-110786000D03*
X206508300Y-113326000D03*
X209048300Y-113326000D03*
X206508300Y-115866000D03*
X209048300Y-115866000D03*
X206508300Y-118406000D03*
X209048300Y-118406000D03*
X206508300Y-120946000D03*
X209048300Y-120946000D03*
X206508300Y-123486000D03*
X209048300Y-123486000D03*
X206508300Y-126026000D03*
X209048300Y-126026000D03*
D37*
X160788300Y-112310000D03*
D38*
X163328300Y-112310000D03*
X160788300Y-114850000D03*
X163328300Y-114850000D03*
X160788300Y-117390000D03*
X163328300Y-117390000D03*
X160788300Y-119930000D03*
X163328300Y-119930000D03*
X160788300Y-122470000D03*
X163328300Y-122470000D03*
X160788300Y-125010000D03*
X163328300Y-125010000D03*
X160788300Y-127550000D03*
X163328300Y-127550000D03*
X160788300Y-130090000D03*
X163328300Y-130090000D03*
D37*
X160788300Y-135170000D03*
D38*
X163328300Y-135170000D03*
X160788300Y-137710000D03*
X163328300Y-137710000D03*
X160788300Y-140250000D03*
X163328300Y-140250000D03*
X160788300Y-142790000D03*
X163328300Y-142790000D03*
X160788300Y-145330000D03*
X163328300Y-145330000D03*
X160788300Y-147870000D03*
X163328300Y-147870000D03*
X160788300Y-150410000D03*
X163328300Y-150410000D03*
X160788300Y-152950000D03*
X163328300Y-152950000D03*
X160788300Y-155490000D03*
X163328300Y-155490000D03*
X160788300Y-158030000D03*
X163328300Y-158030000D03*
X160788300Y-160570000D03*
X163328300Y-160570000D03*
X160788300Y-163110000D03*
X163328300Y-163110000D03*
X160788300Y-165650000D03*
X163328300Y-165650000D03*
X160788300Y-168190000D03*
X163328300Y-168190000D03*
X160788300Y-170730000D03*
X163328300Y-170730000D03*
D37*
X206508300Y-130090000D03*
D38*
X209048300Y-130090000D03*
X206508300Y-132630000D03*
X209048300Y-132630000D03*
X206508300Y-135170000D03*
X209048300Y-135170000D03*
X206508300Y-137710000D03*
X209048300Y-137710000D03*
X206508300Y-140250000D03*
X209048300Y-140250000D03*
X206508300Y-142790000D03*
X209048300Y-142790000D03*
X206508300Y-145330000D03*
X209048300Y-145330000D03*
X206508300Y-147870000D03*
X209048300Y-147870000D03*
X206508300Y-150410000D03*
X209048300Y-150410000D03*
X206508300Y-152950000D03*
X209048300Y-152950000D03*
X206508300Y-155490000D03*
X209048300Y-155490000D03*
X206508300Y-158030000D03*
X209048300Y-158030000D03*
X206508300Y-160570000D03*
X209048300Y-160570000D03*
X206508300Y-163110000D03*
X209048300Y-163110000D03*
X206508300Y-165650000D03*
X209048300Y-165650000D03*
X206508300Y-168190000D03*
X209048300Y-168190000D03*
X206508300Y-170730000D03*
X209048300Y-170730000D03*
D37*
X153168300Y-102150000D03*
D38*
X155708300Y-102150000D03*
X153168300Y-104690000D03*
X155708300Y-104690000D03*
X153168300Y-107230000D03*
X155708300Y-107230000D03*
X153168300Y-109770000D03*
X155708300Y-109770000D03*
X153168300Y-112310000D03*
X155708300Y-112310000D03*
X153168300Y-114850000D03*
X155708300Y-114850000D03*
X153168300Y-117390000D03*
X155708300Y-117390000D03*
X153168300Y-119930000D03*
X155708300Y-119930000D03*
X153168300Y-122470000D03*
X155708300Y-122470000D03*
X153168300Y-125010000D03*
X155708300Y-125010000D03*
X153168300Y-127550000D03*
X155708300Y-127550000D03*
X153168300Y-130090000D03*
X155708300Y-130090000D03*
X153168300Y-132630000D03*
X155708300Y-132630000D03*
X153168300Y-135170000D03*
X155708300Y-135170000D03*
X153168300Y-137710000D03*
X155708300Y-137710000D03*
X153168300Y-140250000D03*
X155708300Y-140250000D03*
X153168300Y-142790000D03*
X155708300Y-142790000D03*
X153168300Y-145330000D03*
X155708300Y-145330000D03*
X153168300Y-147870000D03*
X155708300Y-147870000D03*
X153168300Y-150410000D03*
X155708300Y-150410000D03*
X153168300Y-152950000D03*
X155708300Y-152950000D03*
X153168300Y-155490000D03*
X155708300Y-155490000D03*
X153168300Y-158030000D03*
X155708300Y-158030000D03*
X153168300Y-160570000D03*
X155708300Y-160570000D03*
X153168300Y-163110000D03*
X155708300Y-163110000D03*
X153168300Y-165650000D03*
X155708300Y-165650000D03*
X153168300Y-168190000D03*
X155708300Y-168190000D03*
X153168300Y-170730000D03*
X155708300Y-170730000D03*
X153168300Y-173270000D03*
X155708300Y-173270000D03*
X153168300Y-175810000D03*
X155708300Y-175810000D03*
X153168300Y-178350000D03*
X155708300Y-178350000D03*
X153168300Y-180890000D03*
X155708300Y-180890000D03*
X153168300Y-183430000D03*
X155708300Y-183430000D03*
X153168300Y-185970000D03*
X155708300Y-185970000D03*
X153168300Y-188510000D03*
X155708300Y-188510000D03*
D37*
X214128300Y-102170000D03*
D38*
X216668300Y-102170000D03*
X214128300Y-104710000D03*
X216668300Y-104710000D03*
X214128300Y-107250000D03*
X216668300Y-107250000D03*
X214128300Y-109790000D03*
X216668300Y-109790000D03*
X214128300Y-112330000D03*
X216668300Y-112330000D03*
X214128300Y-114870000D03*
X216668300Y-114870000D03*
X214128300Y-117410000D03*
X216668300Y-117410000D03*
X214128300Y-119950000D03*
X216668300Y-119950000D03*
X214128300Y-122490000D03*
X216668300Y-122490000D03*
X214128300Y-125030000D03*
X216668300Y-125030000D03*
X214128300Y-127570000D03*
X216668300Y-127570000D03*
X214128300Y-130110000D03*
X216668300Y-130110000D03*
X214128300Y-132650000D03*
X216668300Y-132650000D03*
X214128300Y-135190000D03*
X216668300Y-135190000D03*
X214128300Y-137730000D03*
X216668300Y-137730000D03*
X214128300Y-140270000D03*
X216668300Y-140270000D03*
X214128300Y-142810000D03*
X216668300Y-142810000D03*
X214128300Y-145350000D03*
X216668300Y-145350000D03*
X214128300Y-147890000D03*
X216668300Y-147890000D03*
X214128300Y-150430000D03*
X216668300Y-150430000D03*
X214128300Y-152970000D03*
X216668300Y-152970000D03*
X214128300Y-155510000D03*
X216668300Y-155510000D03*
X214128300Y-158050000D03*
X216668300Y-158050000D03*
X214128300Y-160590000D03*
X216668300Y-160590000D03*
X214128300Y-163130000D03*
X216668300Y-163130000D03*
X214128300Y-165670000D03*
X216668300Y-165670000D03*
X214128300Y-168210000D03*
X216668300Y-168210000D03*
X214128300Y-170750000D03*
X216668300Y-170750000D03*
X214128300Y-173290000D03*
X216668300Y-173290000D03*
X214128300Y-175830000D03*
X216668300Y-175830000D03*
X214128300Y-178370000D03*
X216668300Y-178370000D03*
X214128300Y-180910000D03*
X216668300Y-180910000D03*
X214128300Y-183450000D03*
X216668300Y-183450000D03*
X214128300Y-185990000D03*
X216668300Y-185990000D03*
X214128300Y-188530000D03*
X216668300Y-188530000D03*
D37*
X214128300Y-191070000D03*
D38*
X216668300Y-191070000D03*
D37*
X153168300Y-191050000D03*
D38*
X155708300Y-191050000D03*
%TD*%
D31*
%TO.C,C8*%
X200030000Y-163647500D03*
X200030000Y-160522500D03*
%TD*%
D13*
%TO.C,R8*%
X194760000Y-145690000D03*
X194760000Y-143690000D03*
%TD*%
%TO.C,R9*%
X198060000Y-145690000D03*
X198060000Y-143690000D03*
%TD*%
D12*
%TO.C,J21*%
X228970000Y-72050000D03*
X226430000Y-72050000D03*
X228970000Y-74590000D03*
X226430000Y-74590000D03*
X228970000Y-77130000D03*
X226430000Y-77130000D03*
X228970000Y-79670000D03*
X226430000Y-79670000D03*
X228970000Y-82210000D03*
X226430000Y-82210000D03*
X228970000Y-84750000D03*
X226430000Y-84750000D03*
X228970000Y-87290000D03*
X226430000Y-87290000D03*
X228970000Y-89830000D03*
X226430000Y-89830000D03*
X228970000Y-92370000D03*
X226430000Y-92370000D03*
X228970000Y-94910000D03*
X226430000Y-94910000D03*
X228970000Y-108150000D03*
X226430000Y-108150000D03*
X228970000Y-110690000D03*
X226430000Y-110690000D03*
X228970000Y-113230000D03*
X226430000Y-113230000D03*
X228970000Y-115770000D03*
X226430000Y-115770000D03*
X228970000Y-118310000D03*
X226430000Y-118310000D03*
%TD*%
D27*
%TO.C,Q2*%
X170046000Y-153960000D03*
X170046000Y-154610000D03*
X170046000Y-155260000D03*
X170046000Y-155910000D03*
D28*
X173220000Y-155910000D03*
X173220000Y-155260000D03*
X173220000Y-154610000D03*
X173220000Y-153960000D03*
D29*
X171985000Y-154935000D03*
D30*
X172845000Y-156085000D03*
X172845000Y-153785000D03*
%TD*%
D36*
%TO.C,IC2*%
X171520000Y-162905000D03*
X171520000Y-162255000D03*
X171520000Y-161605000D03*
X171520000Y-160955000D03*
X169020000Y-160955000D03*
X169020000Y-161605000D03*
X169020000Y-162255000D03*
X169020000Y-162905000D03*
%TD*%
D35*
%TO.C,IC7*%
X170960000Y-145290000D03*
X171460000Y-145290000D03*
X171960000Y-145290000D03*
X172460000Y-145290000D03*
X172460000Y-143810000D03*
X171960000Y-143810000D03*
X171460000Y-143810000D03*
X170960000Y-143810000D03*
%TD*%
D18*
%TO.C,C3*%
X192920000Y-163122500D03*
X192920000Y-161047500D03*
%TD*%
D14*
%TO.C,J14*%
X254750000Y-132580000D03*
D15*
X254750000Y-136540000D03*
X254750000Y-140500000D03*
X254750000Y-144460000D03*
X254750000Y-148420000D03*
%TD*%
D39*
%TO.C,J5*%
X110500000Y-115250000D03*
D40*
X110500000Y-117250000D03*
X110500000Y-119250000D03*
X110500000Y-121250000D03*
X110500000Y-123250000D03*
X110500000Y-125250000D03*
%TD*%
D41*
%TO.C,J1*%
X188190000Y-173640000D03*
X201690000Y-173640000D03*
D42*
X191340000Y-167640000D03*
D43*
X198540000Y-167640000D03*
%TD*%
D33*
%TO.C,J27*%
X264500000Y-146630000D03*
D34*
X264500000Y-149170000D03*
X264500000Y-151710000D03*
X264500000Y-154250000D03*
%TD*%
D14*
%TO.C,J12*%
X122000000Y-147350000D03*
D15*
X122000000Y-143390000D03*
X122000000Y-139430000D03*
X122000000Y-135470000D03*
X122000000Y-131510000D03*
%TD*%
D41*
%TO.C,J2*%
X169180000Y-173640000D03*
X182680000Y-173640000D03*
D42*
X172330000Y-167640000D03*
D43*
X179530000Y-167640000D03*
%TD*%
D33*
%TO.C,J17*%
X111300000Y-101420000D03*
D34*
X111300000Y-103960000D03*
X111300000Y-106500000D03*
X111300000Y-109040000D03*
%TD*%
D39*
%TO.C,J11*%
X110500000Y-131000000D03*
D40*
X110500000Y-133000000D03*
X110500000Y-135000000D03*
X110500000Y-137000000D03*
X110500000Y-139000000D03*
X110500000Y-141000000D03*
%TD*%
D33*
%TO.C,J23*%
X111310000Y-148130000D03*
D34*
X111310000Y-150670000D03*
X111310000Y-153210000D03*
X111310000Y-155750000D03*
%TD*%
D44*
%TO.C,J13*%
X265750000Y-141000000D03*
D40*
X265750000Y-139000000D03*
X265750000Y-137000000D03*
X265750000Y-135000000D03*
X265750000Y-133000000D03*
X265750000Y-131000000D03*
%TD*%
D14*
%TO.C,J10*%
X254750000Y-108660000D03*
D15*
X254750000Y-112620000D03*
X254750000Y-116580000D03*
X254750000Y-120540000D03*
X254750000Y-124500000D03*
%TD*%
D44*
%TO.C,J7*%
X265750000Y-125250000D03*
D40*
X265750000Y-123250000D03*
X265750000Y-121250000D03*
X265750000Y-119250000D03*
X265750000Y-117250000D03*
X265750000Y-115250000D03*
%TD*%
D33*
%TO.C,J9*%
X264250000Y-101450000D03*
D34*
X264250000Y-103990000D03*
X264250000Y-106530000D03*
X264250000Y-109070000D03*
%TD*%
D14*
%TO.C,J6*%
X122000000Y-123430000D03*
D15*
X122000000Y-119470000D03*
X122000000Y-115510000D03*
X122000000Y-111550000D03*
X122000000Y-107590000D03*
%TD*%
M02*
