%TF.GenerationSoftware,KiCad,Pcbnew,8.0.6*%
%TF.CreationDate,2024-10-27T10:54:55+01:00*%
%TF.ProjectId,Motor_Driver_carrier_board,4d6f746f-725f-4447-9269-7665725f6361,rev?*%
%TF.SameCoordinates,Original*%
%TF.FileFunction,Soldermask,Top*%
%TF.FilePolarity,Negative*%
%FSLAX46Y46*%
G04 Gerber Fmt 4.6, Leading zero omitted, Abs format (unit mm)*
G04 Created by KiCad (PCBNEW 8.0.6) date 2024-10-27 10:54:55*
%MOMM*%
%LPD*%
G01*
G04 APERTURE LIST*
%ADD10R,5.000000X3.000000*%
%ADD11C,1.853200*%
%ADD12R,1.400000X1.400000*%
%ADD13R,3.000000X5.000000*%
G04 APERTURE END LIST*
D10*
%TO.C,OUT1*%
X127675000Y-46950000D03*
%TD*%
D11*
%TO.C,J3*%
X118385000Y-79640000D03*
X118385000Y-82180000D03*
X118385000Y-84720000D03*
X118385000Y-87260000D03*
X118385000Y-89800000D03*
%TD*%
D12*
%TO.C,GND*%
X144925000Y-85350000D03*
%TD*%
%TO.C,5V*%
X129875000Y-91875000D03*
%TD*%
%TO.C,GND*%
X137475000Y-91875000D03*
%TD*%
D13*
%TO.C,+24V*%
X141675000Y-93675000D03*
%TD*%
%TO.C,-24V*%
X126675000Y-93675000D03*
%TD*%
D10*
%TO.C,OUT3*%
X140675000Y-46950000D03*
%TD*%
%TO.C,OUT2*%
X134175000Y-46950000D03*
%TD*%
D11*
%TO.C,J1*%
X120925000Y-73870000D03*
X118385000Y-73870000D03*
X120925000Y-71330000D03*
X118385000Y-71330000D03*
X120925000Y-68790000D03*
X118385000Y-68790000D03*
X120925000Y-66250000D03*
X118385000Y-66250000D03*
X120925000Y-63710000D03*
X118385000Y-63710000D03*
%TD*%
D12*
%TO.C,PWM*%
X135575000Y-91875000D03*
%TD*%
%TO.C,H2*%
X144925000Y-79650000D03*
%TD*%
%TO.C,5V*%
X144925000Y-83450000D03*
%TD*%
%TO.C,SWDIO*%
X124000000Y-81175000D03*
%TD*%
%TO.C,H1*%
X144925000Y-77750000D03*
%TD*%
%TO.C,TX*%
X131775000Y-91875000D03*
%TD*%
%TO.C,GND*%
X124000000Y-86875000D03*
%TD*%
%TO.C,SWCLK*%
X124000000Y-83075000D03*
%TD*%
%TO.C,+3.3V*%
X124000000Y-84975000D03*
%TD*%
%TO.C,RX*%
X133675000Y-91875000D03*
%TD*%
%TO.C,H3*%
X144925000Y-81550000D03*
%TD*%
D11*
%TO.C,J2*%
X148395000Y-73870000D03*
X145855000Y-73870000D03*
X148395000Y-71330000D03*
X145855000Y-71330000D03*
X148395000Y-68790000D03*
X145855000Y-68790000D03*
X148395000Y-66250000D03*
X145855000Y-66250000D03*
X148395000Y-63710000D03*
X145855000Y-63710000D03*
%TD*%
M02*
