%TF.GenerationSoftware,KiCad,Pcbnew,8.0.6*%
%TF.CreationDate,2024-10-27T10:54:55+01:00*%
%TF.ProjectId,Motor_Driver_carrier_board,4d6f746f-725f-4447-9269-7665725f6361,rev?*%
%TF.SameCoordinates,Original*%
%TF.FileFunction,Copper,L1,Top*%
%TF.FilePolarity,Positive*%
%FSLAX46Y46*%
G04 Gerber Fmt 4.6, Leading zero omitted, Abs format (unit mm)*
G04 Created by KiCad (PCBNEW 8.0.6) date 2024-10-27 10:54:55*
%MOMM*%
%LPD*%
G01*
G04 APERTURE LIST*
%TA.AperFunction,SMDPad,CuDef*%
%ADD10R,5.000000X3.000000*%
%TD*%
%TA.AperFunction,ComponentPad*%
%ADD11C,1.650000*%
%TD*%
%TA.AperFunction,SMDPad,CuDef*%
%ADD12R,1.400000X1.400000*%
%TD*%
%TA.AperFunction,SMDPad,CuDef*%
%ADD13R,3.000000X5.000000*%
%TD*%
%TA.AperFunction,ViaPad*%
%ADD14C,0.600000*%
%TD*%
%TA.AperFunction,Conductor*%
%ADD15C,2.765520*%
%TD*%
%TA.AperFunction,Conductor*%
%ADD16C,0.200000*%
%TD*%
%TA.AperFunction,Conductor*%
%ADD17C,1.791660*%
%TD*%
G04 APERTURE END LIST*
D10*
%TO.P,OUT1,1*%
%TO.N,/OUT1*%
X127675000Y-46950000D03*
%TD*%
D11*
%TO.P,J3,1,1*%
%TO.N,/SWDIO*%
X118385000Y-79640000D03*
%TO.P,J3,2,2*%
%TO.N,/SWCLK*%
X118385000Y-82180000D03*
%TO.P,J3,3,3*%
%TO.N,/3.3V*%
X118385000Y-84720000D03*
%TO.P,J3,4,4*%
%TO.N,GND*%
X118385000Y-87260000D03*
%TO.P,J3,5,5*%
X118385000Y-89800000D03*
%TD*%
D12*
%TO.P,GND,1*%
%TO.N,GND*%
X144925000Y-85350000D03*
%TD*%
%TO.P,5V,1*%
%TO.N,/5V*%
X129875000Y-91875000D03*
%TD*%
%TO.P,GND,1*%
%TO.N,GND*%
X137475000Y-91875000D03*
%TD*%
D13*
%TO.P,+24V,1*%
%TO.N,/24V*%
X141675000Y-93675000D03*
%TD*%
%TO.P,-24V,1*%
%TO.N,GND*%
X126675000Y-93675000D03*
%TD*%
D10*
%TO.P,OUT3,1*%
%TO.N,/OUT3*%
X140675000Y-46950000D03*
%TD*%
%TO.P,OUT2,1*%
%TO.N,/OUT2*%
X134175000Y-46950000D03*
%TD*%
D11*
%TO.P,J1,1,1*%
%TO.N,GND*%
X120925000Y-73870000D03*
%TO.P,J1,2,2*%
X118385000Y-73870000D03*
%TO.P,J1,3,3*%
%TO.N,/24V*%
X120925000Y-71330000D03*
%TO.P,J1,4,4*%
X118385000Y-71330000D03*
%TO.P,J1,5,5*%
%TO.N,/OUT3*%
X120925000Y-68790000D03*
%TO.P,J1,6,6*%
X118385000Y-68790000D03*
%TO.P,J1,7,7*%
%TO.N,/OUT2*%
X120925000Y-66250000D03*
%TO.P,J1,8,8*%
X118385000Y-66250000D03*
%TO.P,J1,9,9*%
%TO.N,/OUT1*%
X120925000Y-63710000D03*
%TO.P,J1,10,10*%
X118385000Y-63710000D03*
%TD*%
D12*
%TO.P,PWM,1*%
%TO.N,/PWM*%
X135575000Y-91875000D03*
%TD*%
%TO.P,H2,1*%
%TO.N,/H2*%
X144925000Y-79650000D03*
%TD*%
%TO.P,5V,1*%
%TO.N,/5V*%
X144925000Y-83450000D03*
%TD*%
%TO.P,SWDIO,1*%
%TO.N,/SWDIO*%
X124000000Y-81175000D03*
%TD*%
%TO.P,H1,1*%
%TO.N,/H1*%
X144925000Y-77750000D03*
%TD*%
%TO.P,TX,1*%
%TO.N,/TX*%
X131775000Y-91875000D03*
%TD*%
%TO.P,GND,1*%
%TO.N,GND*%
X124000000Y-86875000D03*
%TD*%
%TO.P,SWCLK,1*%
%TO.N,/SWCLK*%
X124000000Y-83075000D03*
%TD*%
%TO.P,+3.3V,1*%
%TO.N,/3.3V*%
X124000000Y-84975000D03*
%TD*%
%TO.P,RX,1*%
%TO.N,/RX*%
X133675000Y-91875000D03*
%TD*%
%TO.P,H3,1*%
%TO.N,/H3*%
X144925000Y-81550000D03*
%TD*%
D11*
%TO.P,J2,1,1*%
%TO.N,GND*%
X148395000Y-73870000D03*
%TO.P,J2,2,2*%
X145855000Y-73870000D03*
%TO.P,J2,3,3*%
%TO.N,/5V*%
X148395000Y-71330000D03*
%TO.P,J2,4,4*%
X145855000Y-71330000D03*
%TO.P,J2,5,5*%
%TO.N,/TX*%
X148395000Y-68790000D03*
%TO.P,J2,6,6*%
%TO.N,/H3*%
X145855000Y-68790000D03*
%TO.P,J2,7,7*%
%TO.N,/RX*%
X148395000Y-66250000D03*
%TO.P,J2,8,8*%
%TO.N,/H2*%
X145855000Y-66250000D03*
%TO.P,J2,9,9*%
%TO.N,/PWM*%
X148395000Y-63710000D03*
%TO.P,J2,10,10*%
%TO.N,/H1*%
X145855000Y-63710000D03*
%TD*%
D14*
%TO.N,/OUT3*%
X141525000Y-47000000D03*
X141500000Y-47775000D03*
X140700000Y-46225000D03*
X140675000Y-47775000D03*
X139825000Y-46225000D03*
X142425000Y-47775000D03*
X139000000Y-46225000D03*
X142375000Y-46225000D03*
X138975000Y-47775000D03*
X140675000Y-47000000D03*
X139850000Y-47000000D03*
X141525000Y-46225000D03*
X142400000Y-47000000D03*
X139025000Y-47000000D03*
X139825000Y-47775000D03*
%TO.N,GND*%
X127800000Y-91550000D03*
X125525000Y-95125000D03*
X146525000Y-81800000D03*
X137475000Y-91875000D03*
X127000000Y-91550000D03*
X127775000Y-92275000D03*
X125525000Y-95875000D03*
%TO.N,/24V*%
X140825000Y-94450000D03*
X140850000Y-93700000D03*
X142475000Y-93700000D03*
X140775000Y-95225000D03*
X142500000Y-94450000D03*
X142500000Y-95275000D03*
X141650000Y-95250000D03*
X141675000Y-93675000D03*
X141650000Y-94425000D03*
%TO.N,/PWM*%
X135575000Y-92350000D03*
%TO.N,/5V*%
X145325000Y-83425000D03*
X129875000Y-92025000D03*
%TO.N,/RX*%
X133750000Y-91975000D03*
%TO.N,/TX*%
X131725000Y-91950000D03*
%TD*%
D15*
%TO.N,/OUT3*%
X139950000Y-46950000D02*
X139850000Y-47050000D01*
X140675000Y-46950000D02*
X139950000Y-46950000D01*
D16*
%TO.N,GND*%
X126675000Y-93975000D02*
X125525000Y-95125000D01*
X137475000Y-91875000D02*
X137475000Y-91800000D01*
X144925000Y-85350000D02*
X146525000Y-83750000D01*
X137475000Y-91800000D02*
X137450000Y-91775000D01*
X126675000Y-93675000D02*
X126675000Y-93975000D01*
X146525000Y-83750000D02*
X146525000Y-81800000D01*
D17*
%TO.N,/OUT2*%
X124629170Y-44150000D02*
X120925000Y-47854170D01*
X116225000Y-65100000D02*
X117375000Y-66250000D01*
X120925000Y-47854170D02*
X120925000Y-58211946D01*
X116225000Y-62911946D02*
X116225000Y-65100000D01*
X131375000Y-44150000D02*
X124629170Y-44150000D01*
X134175000Y-46950000D02*
X131375000Y-44150000D01*
X120925000Y-58211946D02*
X116225000Y-62911946D01*
X117375000Y-66250000D02*
X120925000Y-66250000D01*
%TO.N,/OUT1*%
X125650998Y-46950000D02*
X123625000Y-48975998D01*
X123625000Y-61010000D02*
X120925000Y-63710000D01*
X120925000Y-63710000D02*
X118385000Y-63710000D01*
X127675000Y-46950000D02*
X125650998Y-46950000D01*
X123625000Y-48975998D02*
X123625000Y-61010000D01*
%TO.N,/24V*%
X140850000Y-93700000D02*
X141650000Y-93700000D01*
X141650000Y-93700000D02*
X141675000Y-93675000D01*
D16*
%TO.N,/PWM*%
X135575000Y-91925000D02*
X135600000Y-91950000D01*
X135575000Y-91875000D02*
X135575000Y-91925000D01*
%TO.N,/5V*%
X129875000Y-91875000D02*
X129875000Y-92025000D01*
X144925000Y-83450000D02*
X145075000Y-83450000D01*
X145855000Y-71330000D02*
X148395000Y-71330000D01*
X145075000Y-83450000D02*
X145125000Y-83500000D01*
%TO.N,/RX*%
X133675000Y-91875000D02*
X133675000Y-91900000D01*
X133675000Y-91900000D02*
X133750000Y-91975000D01*
%TO.N,/H2*%
X145300000Y-79650000D02*
X146150000Y-78800000D01*
X144875000Y-66250000D02*
X145855000Y-66250000D01*
X145900000Y-76525000D02*
X144550000Y-76525000D01*
X146150000Y-78800000D02*
X146150000Y-76775000D01*
X144150000Y-76125000D02*
X144150000Y-66975000D01*
X144150000Y-66975000D02*
X144875000Y-66250000D01*
X144925000Y-79650000D02*
X145300000Y-79650000D01*
X146150000Y-76775000D02*
X145900000Y-76525000D01*
X144550000Y-76525000D02*
X144150000Y-76125000D01*
%TO.N,/TX*%
X131775000Y-91900000D02*
X131725000Y-91950000D01*
X131775000Y-91875000D02*
X131775000Y-91900000D01*
%TO.N,/H1*%
X145290000Y-63710000D02*
X145855000Y-63710000D01*
X143750000Y-65250000D02*
X145290000Y-63710000D01*
X144925000Y-77450000D02*
X144400000Y-76925000D01*
X144384314Y-76925000D02*
X143750000Y-76290686D01*
X143750000Y-76290686D02*
X143750000Y-65250000D01*
X144400000Y-76925000D02*
X144384314Y-76925000D01*
X144925000Y-77750000D02*
X144925000Y-77450000D01*
%TO.N,/H3*%
X146650000Y-76675000D02*
X146100000Y-76125000D01*
X144550000Y-70095000D02*
X145855000Y-68790000D01*
X146650000Y-80325000D02*
X146650000Y-76675000D01*
X145425000Y-81550000D02*
X146650000Y-80325000D01*
X144750000Y-76125000D02*
X144550000Y-75925000D01*
X144550000Y-75925000D02*
X144550000Y-70095000D01*
X146100000Y-76125000D02*
X144750000Y-76125000D01*
X144925000Y-81550000D02*
X145425000Y-81550000D01*
%TO.N,/SWDIO*%
X119920000Y-81175000D02*
X124000000Y-81175000D01*
X118385000Y-79640000D02*
X119920000Y-81175000D01*
%TO.N,/3.3V*%
X123745000Y-84720000D02*
X124000000Y-84975000D01*
X118385000Y-84720000D02*
X123745000Y-84720000D01*
%TO.N,/SWCLK*%
X119280000Y-83075000D02*
X124000000Y-83075000D01*
X118385000Y-82180000D02*
X119280000Y-83075000D01*
%TD*%
%TA.AperFunction,Conductor*%
%TO.N,GND*%
G36*
X145406757Y-42050847D02*
G01*
X145411610Y-42050822D01*
X145411611Y-42050823D01*
X145474799Y-42050507D01*
X145480171Y-42050597D01*
X145865578Y-42065548D01*
X145876369Y-42066441D01*
X146183852Y-42105489D01*
X146256252Y-42114684D01*
X146266947Y-42116521D01*
X146641144Y-42197789D01*
X146651640Y-42200554D01*
X147017316Y-42314234D01*
X147027496Y-42317895D01*
X147372485Y-42459281D01*
X147381830Y-42463111D01*
X147391681Y-42467661D01*
X147731952Y-42643295D01*
X147741369Y-42648690D01*
X148064994Y-42853412D01*
X148073888Y-42859600D01*
X148369254Y-43084877D01*
X148378352Y-43091816D01*
X148386681Y-43098765D01*
X148538877Y-43237489D01*
X148669695Y-43356728D01*
X148677387Y-43364382D01*
X148936752Y-43646091D01*
X148943744Y-43654386D01*
X148991072Y-43715800D01*
X149177481Y-43957689D01*
X149183723Y-43966566D01*
X149390051Y-44289149D01*
X149395493Y-44298538D01*
X149572827Y-44637927D01*
X149577427Y-44647756D01*
X149724408Y-45001347D01*
X149728131Y-45011541D01*
X149843633Y-45376630D01*
X149846450Y-45387109D01*
X149929590Y-45760900D01*
X149931480Y-45771586D01*
X149981619Y-46151205D01*
X149982568Y-46162016D01*
X149999438Y-46547210D01*
X149999557Y-46552772D01*
X149949580Y-91975870D01*
X149948850Y-91987849D01*
X149949490Y-92051607D01*
X149949496Y-92052982D01*
X149949495Y-92053927D01*
X149949423Y-92058011D01*
X149936313Y-92443447D01*
X149935462Y-92454336D01*
X149888786Y-92834683D01*
X149886979Y-92845453D01*
X149807025Y-93220190D01*
X149804278Y-93230761D01*
X149691657Y-93597020D01*
X149687991Y-93607307D01*
X149543579Y-93962236D01*
X149539022Y-93972161D01*
X149363936Y-94313018D01*
X149358522Y-94322504D01*
X149154134Y-94646613D01*
X149147907Y-94655585D01*
X148915785Y-94960463D01*
X148908794Y-94968853D01*
X148650747Y-95252125D01*
X148643044Y-95259867D01*
X148361070Y-95519338D01*
X148352715Y-95526372D01*
X148049014Y-95760016D01*
X148040073Y-95766288D01*
X147716978Y-95972312D01*
X147707520Y-95977772D01*
X147367570Y-96154558D01*
X147357668Y-96159166D01*
X147003460Y-96305363D01*
X146993191Y-96309081D01*
X146627502Y-96423541D01*
X146616945Y-96426341D01*
X146242598Y-96508181D01*
X146231837Y-96510041D01*
X145851759Y-96558622D01*
X145840875Y-96559529D01*
X145455240Y-96574587D01*
X145449781Y-96574679D01*
X145382947Y-96574344D01*
X145375387Y-96574826D01*
X143496199Y-96578367D01*
X143429122Y-96558809D01*
X143383268Y-96506091D01*
X143373194Y-96436951D01*
X143402099Y-96373341D01*
X143408258Y-96366712D01*
X143427206Y-96347765D01*
X143472585Y-96244991D01*
X143475500Y-96219865D01*
X143475499Y-91130136D01*
X143475497Y-91130117D01*
X143472586Y-91105012D01*
X143472585Y-91105010D01*
X143462548Y-91082277D01*
X143453477Y-91012999D01*
X143483302Y-90949814D01*
X143488269Y-90944544D01*
X143550500Y-90882314D01*
X143616392Y-90768186D01*
X143650500Y-90640892D01*
X143650500Y-86094785D01*
X143925001Y-86094785D01*
X143925002Y-86094808D01*
X143927908Y-86119869D01*
X143927909Y-86119873D01*
X143973211Y-86222474D01*
X143973214Y-86222479D01*
X144052520Y-86301785D01*
X144052525Y-86301788D01*
X144155123Y-86347089D01*
X144180206Y-86349999D01*
X144774999Y-86349999D01*
X145075000Y-86349999D01*
X145669786Y-86349999D01*
X145669808Y-86349997D01*
X145694869Y-86347091D01*
X145694873Y-86347090D01*
X145797474Y-86301788D01*
X145797479Y-86301785D01*
X145876785Y-86222479D01*
X145876788Y-86222474D01*
X145922089Y-86119877D01*
X145922089Y-86119875D01*
X145924999Y-86094794D01*
X145925000Y-86094791D01*
X145925000Y-85500000D01*
X145075000Y-85500000D01*
X145075000Y-86349999D01*
X144774999Y-86349999D01*
X144775000Y-86349998D01*
X144775000Y-85500000D01*
X143925001Y-85500000D01*
X143925001Y-86094785D01*
X143650500Y-86094785D01*
X143650500Y-76986230D01*
X143670185Y-76919191D01*
X143722989Y-76873436D01*
X143792147Y-76863492D01*
X143855703Y-76892517D01*
X143862181Y-76898549D01*
X143938181Y-76974549D01*
X143971666Y-77035872D01*
X143974500Y-77062230D01*
X143974500Y-78474678D01*
X143989032Y-78547735D01*
X143989033Y-78547739D01*
X144044739Y-78631110D01*
X144065616Y-78697788D01*
X144047131Y-78765168D01*
X144044739Y-78768890D01*
X143989033Y-78852260D01*
X143989032Y-78852264D01*
X143974500Y-78925321D01*
X143974500Y-80374678D01*
X143989032Y-80447735D01*
X143989033Y-80447739D01*
X144044739Y-80531110D01*
X144065616Y-80597788D01*
X144047131Y-80665168D01*
X144044739Y-80668890D01*
X143989033Y-80752260D01*
X143989032Y-80752264D01*
X143974500Y-80825321D01*
X143974500Y-82274678D01*
X143989032Y-82347735D01*
X143989033Y-82347739D01*
X144044739Y-82431110D01*
X144065616Y-82497788D01*
X144047131Y-82565168D01*
X144044739Y-82568890D01*
X143989033Y-82652260D01*
X143989032Y-82652264D01*
X143974500Y-82725321D01*
X143974500Y-84174678D01*
X143989032Y-84247735D01*
X143989033Y-84247739D01*
X143994811Y-84256386D01*
X144018198Y-84291388D01*
X144039075Y-84358064D01*
X144020590Y-84425444D01*
X144002777Y-84447957D01*
X143973214Y-84477520D01*
X143973211Y-84477525D01*
X143927910Y-84580122D01*
X143927910Y-84580124D01*
X143925000Y-84605205D01*
X143925000Y-85200000D01*
X145924999Y-85200000D01*
X145924999Y-84605214D01*
X145924997Y-84605191D01*
X145922091Y-84580130D01*
X145922090Y-84580126D01*
X145876788Y-84477525D01*
X145876785Y-84477520D01*
X145847223Y-84447958D01*
X145813738Y-84386635D01*
X145818722Y-84316943D01*
X145831795Y-84291396D01*
X145860966Y-84247740D01*
X145875500Y-84174674D01*
X145875500Y-83469206D01*
X145876561Y-83453020D01*
X145880250Y-83425000D01*
X145880250Y-83424998D01*
X145876561Y-83396978D01*
X145875500Y-83380793D01*
X145875500Y-82725323D01*
X145875499Y-82725321D01*
X145860967Y-82652264D01*
X145860966Y-82652262D01*
X145860966Y-82652260D01*
X145860964Y-82652258D01*
X145860964Y-82652256D01*
X145805261Y-82568890D01*
X145784383Y-82502213D01*
X145802868Y-82434833D01*
X145805261Y-82431110D01*
X145860964Y-82347743D01*
X145860964Y-82347742D01*
X145860966Y-82347740D01*
X145875500Y-82274674D01*
X145875500Y-81646544D01*
X145895185Y-81579505D01*
X145911819Y-81558863D01*
X146366182Y-81104500D01*
X146930470Y-80540212D01*
X146976614Y-80460288D01*
X147000500Y-80371143D01*
X147000500Y-80278856D01*
X147000500Y-76628856D01*
X146976614Y-76539712D01*
X146957091Y-76505898D01*
X146930469Y-76459787D01*
X146315212Y-75844530D01*
X146315211Y-75844529D01*
X146315208Y-75844527D01*
X146235290Y-75798387D01*
X146235289Y-75798386D01*
X146235288Y-75798386D01*
X146146144Y-75774500D01*
X146146143Y-75774500D01*
X145024500Y-75774500D01*
X144957461Y-75754815D01*
X144911706Y-75702011D01*
X144900500Y-75650500D01*
X144900500Y-74803001D01*
X144920185Y-74735962D01*
X144972989Y-74690207D01*
X145042147Y-74680263D01*
X145105703Y-74709288D01*
X145108039Y-74711364D01*
X145174134Y-74771618D01*
X145351392Y-74881371D01*
X145351398Y-74881374D01*
X145545811Y-74956689D01*
X145705000Y-74986446D01*
X145705000Y-74399209D01*
X145782591Y-74420000D01*
X145927409Y-74420000D01*
X146005000Y-74399209D01*
X146005000Y-74986446D01*
X146164187Y-74956689D01*
X146164188Y-74956689D01*
X146358601Y-74881374D01*
X146358607Y-74881371D01*
X146535867Y-74771617D01*
X146535869Y-74771615D01*
X146689945Y-74631157D01*
X146815590Y-74464776D01*
X146815595Y-74464768D01*
X146908521Y-74278148D01*
X146908527Y-74278133D01*
X146965582Y-74077605D01*
X146965582Y-74077603D01*
X146970921Y-74020000D01*
X146384209Y-74020000D01*
X146405000Y-73942409D01*
X146405000Y-73797591D01*
X146384209Y-73720000D01*
X146970920Y-73720000D01*
X147279079Y-73720000D01*
X147865791Y-73720000D01*
X147845000Y-73797591D01*
X147845000Y-73942409D01*
X147865791Y-74020000D01*
X147279079Y-74020000D01*
X147284417Y-74077603D01*
X147284417Y-74077605D01*
X147341472Y-74278133D01*
X147341478Y-74278148D01*
X147434404Y-74464768D01*
X147434409Y-74464776D01*
X147560054Y-74631157D01*
X147714130Y-74771615D01*
X147714132Y-74771617D01*
X147891392Y-74881371D01*
X147891398Y-74881374D01*
X148085811Y-74956689D01*
X148245000Y-74986446D01*
X148245000Y-74399209D01*
X148322591Y-74420000D01*
X148467409Y-74420000D01*
X148545000Y-74399209D01*
X148545000Y-74986446D01*
X148704187Y-74956689D01*
X148704188Y-74956689D01*
X148898601Y-74881374D01*
X148898607Y-74881371D01*
X149075867Y-74771617D01*
X149075869Y-74771615D01*
X149229945Y-74631157D01*
X149355590Y-74464776D01*
X149355595Y-74464768D01*
X149448521Y-74278148D01*
X149448527Y-74278133D01*
X149505582Y-74077605D01*
X149505582Y-74077603D01*
X149510921Y-74020000D01*
X148924209Y-74020000D01*
X148945000Y-73942409D01*
X148945000Y-73797591D01*
X148924209Y-73720000D01*
X149510920Y-73720000D01*
X149505582Y-73662396D01*
X149505582Y-73662394D01*
X149448527Y-73461866D01*
X149448521Y-73461851D01*
X149355595Y-73275231D01*
X149355590Y-73275223D01*
X149229945Y-73108842D01*
X149075869Y-72968384D01*
X149075867Y-72968382D01*
X148898607Y-72858628D01*
X148898601Y-72858625D01*
X148704189Y-72783310D01*
X148545000Y-72753552D01*
X148545000Y-73340790D01*
X148467409Y-73320000D01*
X148322591Y-73320000D01*
X148245000Y-73340790D01*
X148245000Y-72753552D01*
X148085810Y-72783310D01*
X147891398Y-72858625D01*
X147891392Y-72858628D01*
X147714132Y-72968382D01*
X147714130Y-72968384D01*
X147560054Y-73108842D01*
X147434409Y-73275223D01*
X147434404Y-73275231D01*
X147341478Y-73461851D01*
X147341472Y-73461866D01*
X147284417Y-73662394D01*
X147284417Y-73662396D01*
X147279079Y-73720000D01*
X146970920Y-73720000D01*
X146965582Y-73662396D01*
X146965582Y-73662394D01*
X146908527Y-73461866D01*
X146908521Y-73461851D01*
X146815595Y-73275231D01*
X146815590Y-73275223D01*
X146689945Y-73108842D01*
X146535869Y-72968384D01*
X146535867Y-72968382D01*
X146358607Y-72858628D01*
X146358601Y-72858625D01*
X146164189Y-72783310D01*
X146005000Y-72753552D01*
X146005000Y-73340790D01*
X145927409Y-73320000D01*
X145782591Y-73320000D01*
X145705000Y-73340790D01*
X145705000Y-72753552D01*
X145545810Y-72783310D01*
X145351398Y-72858625D01*
X145351392Y-72858628D01*
X145174132Y-72968382D01*
X145174130Y-72968384D01*
X145108038Y-73028635D01*
X145045234Y-73059252D01*
X144975847Y-73051054D01*
X144921907Y-73006644D01*
X144900539Y-72940122D01*
X144900500Y-72936998D01*
X144900500Y-72196019D01*
X144920185Y-72128980D01*
X144972989Y-72083225D01*
X145042147Y-72073281D01*
X145105703Y-72102306D01*
X145108038Y-72104382D01*
X145204090Y-72191945D01*
X145373554Y-72296873D01*
X145559414Y-72368876D01*
X145755340Y-72405500D01*
X145755342Y-72405500D01*
X145954658Y-72405500D01*
X145954660Y-72405500D01*
X146150586Y-72368876D01*
X146336446Y-72296873D01*
X146505910Y-72191945D01*
X146653209Y-72057664D01*
X146773326Y-71898604D01*
X146847707Y-71749228D01*
X146895210Y-71697991D01*
X146958707Y-71680500D01*
X147291293Y-71680500D01*
X147358332Y-71700185D01*
X147402293Y-71749228D01*
X147476670Y-71898598D01*
X147476675Y-71898606D01*
X147596792Y-72057666D01*
X147723508Y-72173182D01*
X147744090Y-72191945D01*
X147913554Y-72296873D01*
X148099414Y-72368876D01*
X148295340Y-72405500D01*
X148295342Y-72405500D01*
X148494658Y-72405500D01*
X148494660Y-72405500D01*
X148690586Y-72368876D01*
X148876446Y-72296873D01*
X149045910Y-72191945D01*
X149193209Y-72057664D01*
X149313326Y-71898604D01*
X149402171Y-71720180D01*
X149456717Y-71528469D01*
X149475108Y-71330000D01*
X149456717Y-71131531D01*
X149402171Y-70939820D01*
X149349500Y-70834042D01*
X149313329Y-70761401D01*
X149313324Y-70761393D01*
X149193207Y-70602333D01*
X149045911Y-70468056D01*
X149045910Y-70468055D01*
X148981193Y-70427984D01*
X148876447Y-70363127D01*
X148876445Y-70363126D01*
X148760417Y-70318177D01*
X148690586Y-70291124D01*
X148690582Y-70291123D01*
X148611639Y-70276366D01*
X148494660Y-70254500D01*
X148295340Y-70254500D01*
X148205254Y-70271339D01*
X148099417Y-70291123D01*
X148099415Y-70291123D01*
X148099414Y-70291124D01*
X148047517Y-70311229D01*
X147913554Y-70363126D01*
X147913552Y-70363127D01*
X147744088Y-70468056D01*
X147596792Y-70602333D01*
X147476675Y-70761393D01*
X147476670Y-70761401D01*
X147402293Y-70910772D01*
X147354790Y-70962009D01*
X147291293Y-70979500D01*
X146958707Y-70979500D01*
X146891668Y-70959815D01*
X146847707Y-70910772D01*
X146773329Y-70761401D01*
X146773324Y-70761393D01*
X146653207Y-70602333D01*
X146505911Y-70468056D01*
X146505910Y-70468055D01*
X146441193Y-70427984D01*
X146336447Y-70363127D01*
X146336445Y-70363126D01*
X146220417Y-70318177D01*
X146150586Y-70291124D01*
X146150582Y-70291123D01*
X146071639Y-70276366D01*
X145954660Y-70254500D01*
X145755340Y-70254500D01*
X145665254Y-70271339D01*
X145559417Y-70291123D01*
X145559415Y-70291123D01*
X145559414Y-70291124D01*
X145507517Y-70311229D01*
X145373554Y-70363126D01*
X145373552Y-70363127D01*
X145204088Y-70468056D01*
X145108038Y-70555617D01*
X145045234Y-70586234D01*
X144975847Y-70578036D01*
X144921907Y-70533626D01*
X144900539Y-70467104D01*
X144900500Y-70463980D01*
X144900500Y-70291543D01*
X144920185Y-70224504D01*
X144936815Y-70203866D01*
X145323814Y-69816866D01*
X145385135Y-69783383D01*
X145454826Y-69788367D01*
X145456098Y-69788850D01*
X145559414Y-69828876D01*
X145755340Y-69865500D01*
X145755342Y-69865500D01*
X145954658Y-69865500D01*
X145954660Y-69865500D01*
X146150586Y-69828876D01*
X146336446Y-69756873D01*
X146505910Y-69651945D01*
X146653209Y-69517664D01*
X146773326Y-69358604D01*
X146862171Y-69180180D01*
X146916717Y-68988469D01*
X146935108Y-68790000D01*
X146935108Y-68789999D01*
X147314892Y-68789999D01*
X147314892Y-68790000D01*
X147333282Y-68988464D01*
X147333282Y-68988466D01*
X147333283Y-68988469D01*
X147387829Y-69180179D01*
X147387830Y-69180183D01*
X147476670Y-69358598D01*
X147476675Y-69358606D01*
X147596792Y-69517666D01*
X147723508Y-69633182D01*
X147744090Y-69651945D01*
X147913554Y-69756873D01*
X148099414Y-69828876D01*
X148295340Y-69865500D01*
X148295342Y-69865500D01*
X148494658Y-69865500D01*
X148494660Y-69865500D01*
X148690586Y-69828876D01*
X148876446Y-69756873D01*
X149045910Y-69651945D01*
X149193209Y-69517664D01*
X149313326Y-69358604D01*
X149402171Y-69180180D01*
X149456717Y-68988469D01*
X149475108Y-68790000D01*
X149456717Y-68591531D01*
X149402171Y-68399820D01*
X149393137Y-68381677D01*
X149313329Y-68221401D01*
X149313324Y-68221393D01*
X149193207Y-68062333D01*
X149045911Y-67928056D01*
X149045910Y-67928055D01*
X148981193Y-67887984D01*
X148876447Y-67823127D01*
X148876445Y-67823126D01*
X148760417Y-67778177D01*
X148690586Y-67751124D01*
X148690582Y-67751123D01*
X148611639Y-67736366D01*
X148494660Y-67714500D01*
X148295340Y-67714500D01*
X148205254Y-67731339D01*
X148099417Y-67751123D01*
X148099415Y-67751123D01*
X148099414Y-67751124D01*
X148047517Y-67771229D01*
X147913554Y-67823126D01*
X147913552Y-67823127D01*
X147744088Y-67928056D01*
X147596792Y-68062333D01*
X147476675Y-68221393D01*
X147476670Y-68221401D01*
X147387830Y-68399816D01*
X147333282Y-68591535D01*
X147314892Y-68789999D01*
X146935108Y-68789999D01*
X146916717Y-68591531D01*
X146862171Y-68399820D01*
X146853137Y-68381677D01*
X146773329Y-68221401D01*
X146773324Y-68221393D01*
X146653207Y-68062333D01*
X146505911Y-67928056D01*
X146505910Y-67928055D01*
X146441193Y-67887984D01*
X146336447Y-67823127D01*
X146336445Y-67823126D01*
X146220417Y-67778177D01*
X146150586Y-67751124D01*
X146150582Y-67751123D01*
X146071639Y-67736366D01*
X145954660Y-67714500D01*
X145755340Y-67714500D01*
X145665254Y-67731339D01*
X145559417Y-67751123D01*
X145559415Y-67751123D01*
X145559414Y-67751124D01*
X145507517Y-67771229D01*
X145373554Y-67823126D01*
X145373552Y-67823127D01*
X145204088Y-67928056D01*
X145056792Y-68062333D01*
X144936675Y-68221393D01*
X144936670Y-68221401D01*
X144847830Y-68399816D01*
X144793282Y-68591535D01*
X144774892Y-68789999D01*
X144774892Y-68790000D01*
X144793282Y-68988464D01*
X144793282Y-68988466D01*
X144793283Y-68988469D01*
X144847829Y-69180180D01*
X144848383Y-69181292D01*
X144848488Y-69181883D01*
X144849900Y-69185527D01*
X144849187Y-69185803D01*
X144860647Y-69250077D01*
X144833777Y-69314573D01*
X144825067Y-69324250D01*
X144712180Y-69437136D01*
X144650859Y-69470621D01*
X144581167Y-69465637D01*
X144525233Y-69423766D01*
X144500816Y-69358302D01*
X144500500Y-69349455D01*
X144500500Y-67171543D01*
X144520185Y-67104504D01*
X144536815Y-67083866D01*
X144778002Y-66842678D01*
X144839325Y-66809194D01*
X144909017Y-66814178D01*
X144964637Y-66855633D01*
X145056792Y-66977666D01*
X145173284Y-67083862D01*
X145204090Y-67111945D01*
X145373554Y-67216873D01*
X145559414Y-67288876D01*
X145755340Y-67325500D01*
X145755342Y-67325500D01*
X145954658Y-67325500D01*
X145954660Y-67325500D01*
X146150586Y-67288876D01*
X146336446Y-67216873D01*
X146505910Y-67111945D01*
X146653209Y-66977664D01*
X146773326Y-66818604D01*
X146862171Y-66640180D01*
X146916717Y-66448469D01*
X146935108Y-66250000D01*
X146935108Y-66249999D01*
X147314892Y-66249999D01*
X147314892Y-66250000D01*
X147333282Y-66448464D01*
X147333282Y-66448466D01*
X147333283Y-66448469D01*
X147387829Y-66640180D01*
X147387830Y-66640183D01*
X147476670Y-66818598D01*
X147476675Y-66818606D01*
X147596792Y-66977666D01*
X147713284Y-67083862D01*
X147744090Y-67111945D01*
X147913554Y-67216873D01*
X148099414Y-67288876D01*
X148295340Y-67325500D01*
X148295342Y-67325500D01*
X148494658Y-67325500D01*
X148494660Y-67325500D01*
X148690586Y-67288876D01*
X148876446Y-67216873D01*
X149045910Y-67111945D01*
X149193209Y-66977664D01*
X149313326Y-66818604D01*
X149402171Y-66640180D01*
X149456717Y-66448469D01*
X149475108Y-66250000D01*
X149456717Y-66051531D01*
X149402171Y-65859820D01*
X149367786Y-65790766D01*
X149313329Y-65681401D01*
X149313324Y-65681393D01*
X149193207Y-65522333D01*
X149045911Y-65388056D01*
X149045910Y-65388055D01*
X148964247Y-65337491D01*
X148876447Y-65283127D01*
X148876445Y-65283126D01*
X148794379Y-65251334D01*
X148690586Y-65211124D01*
X148690582Y-65211123D01*
X148599797Y-65194153D01*
X148494660Y-65174500D01*
X148295340Y-65174500D01*
X148205254Y-65191339D01*
X148099417Y-65211123D01*
X148099415Y-65211123D01*
X148099414Y-65211124D01*
X148058932Y-65226807D01*
X147913554Y-65283126D01*
X147913552Y-65283127D01*
X147744088Y-65388056D01*
X147596792Y-65522333D01*
X147476675Y-65681393D01*
X147476670Y-65681401D01*
X147387830Y-65859816D01*
X147387829Y-65859820D01*
X147356521Y-65969859D01*
X147333282Y-66051535D01*
X147314892Y-66249999D01*
X146935108Y-66249999D01*
X146916717Y-66051531D01*
X146862171Y-65859820D01*
X146827786Y-65790766D01*
X146773329Y-65681401D01*
X146773324Y-65681393D01*
X146653207Y-65522333D01*
X146505911Y-65388056D01*
X146505910Y-65388055D01*
X146424247Y-65337491D01*
X146336447Y-65283127D01*
X146336445Y-65283126D01*
X146254379Y-65251334D01*
X146150586Y-65211124D01*
X146150582Y-65211123D01*
X146059797Y-65194153D01*
X145954660Y-65174500D01*
X145755340Y-65174500D01*
X145665254Y-65191339D01*
X145559417Y-65211123D01*
X145559415Y-65211123D01*
X145559414Y-65211124D01*
X145518932Y-65226807D01*
X145373554Y-65283126D01*
X145373552Y-65283127D01*
X145204088Y-65388056D01*
X145056792Y-65522333D01*
X144936675Y-65681393D01*
X144936670Y-65681401D01*
X144852863Y-65849707D01*
X144805359Y-65900944D01*
X144773958Y-65914209D01*
X144739716Y-65923384D01*
X144739709Y-65923387D01*
X144659791Y-65969527D01*
X144659786Y-65969531D01*
X144312181Y-66317137D01*
X144250858Y-66350622D01*
X144181166Y-66345638D01*
X144125233Y-66303766D01*
X144100816Y-66238302D01*
X144100500Y-66229456D01*
X144100500Y-65446543D01*
X144120185Y-65379504D01*
X144136815Y-65358866D01*
X144973711Y-64521969D01*
X145035034Y-64488485D01*
X145104726Y-64493469D01*
X145144930Y-64518014D01*
X145204090Y-64571945D01*
X145317452Y-64642136D01*
X145363482Y-64670637D01*
X145373554Y-64676873D01*
X145559414Y-64748876D01*
X145755340Y-64785500D01*
X145755342Y-64785500D01*
X145954658Y-64785500D01*
X145954660Y-64785500D01*
X146150586Y-64748876D01*
X146336446Y-64676873D01*
X146505910Y-64571945D01*
X146653209Y-64437664D01*
X146773326Y-64278604D01*
X146862171Y-64100180D01*
X146916717Y-63908469D01*
X146935108Y-63710000D01*
X146935108Y-63709999D01*
X147314892Y-63709999D01*
X147314892Y-63710000D01*
X147333282Y-63908464D01*
X147387830Y-64100183D01*
X147476670Y-64278598D01*
X147476675Y-64278606D01*
X147596792Y-64437666D01*
X147689270Y-64521970D01*
X147744090Y-64571945D01*
X147857452Y-64642136D01*
X147903482Y-64670637D01*
X147913554Y-64676873D01*
X148099414Y-64748876D01*
X148295340Y-64785500D01*
X148295342Y-64785500D01*
X148494658Y-64785500D01*
X148494660Y-64785500D01*
X148690586Y-64748876D01*
X148876446Y-64676873D01*
X149045910Y-64571945D01*
X149193209Y-64437664D01*
X149313326Y-64278604D01*
X149402171Y-64100180D01*
X149456717Y-63908469D01*
X149475108Y-63710000D01*
X149456717Y-63511531D01*
X149402171Y-63319820D01*
X149400759Y-63316984D01*
X149313329Y-63141401D01*
X149313324Y-63141393D01*
X149193207Y-62982333D01*
X149045911Y-62848056D01*
X149045910Y-62848055D01*
X148981375Y-62808096D01*
X148876447Y-62743127D01*
X148876445Y-62743126D01*
X148794379Y-62711334D01*
X148690586Y-62671124D01*
X148690582Y-62671123D01*
X148611639Y-62656366D01*
X148494660Y-62634500D01*
X148295340Y-62634500D01*
X148205254Y-62651339D01*
X148099417Y-62671123D01*
X148099415Y-62671123D01*
X148099414Y-62671124D01*
X148047517Y-62691229D01*
X147913554Y-62743126D01*
X147913552Y-62743127D01*
X147744088Y-62848056D01*
X147596792Y-62982333D01*
X147476675Y-63141393D01*
X147476670Y-63141401D01*
X147387830Y-63319816D01*
X147333282Y-63511535D01*
X147314892Y-63709999D01*
X146935108Y-63709999D01*
X146916717Y-63511531D01*
X146862171Y-63319820D01*
X146860759Y-63316984D01*
X146773329Y-63141401D01*
X146773324Y-63141393D01*
X146653207Y-62982333D01*
X146505911Y-62848056D01*
X146505910Y-62848055D01*
X146441375Y-62808096D01*
X146336447Y-62743127D01*
X146336445Y-62743126D01*
X146254379Y-62711334D01*
X146150586Y-62671124D01*
X146150582Y-62671123D01*
X146071639Y-62656366D01*
X145954660Y-62634500D01*
X145755340Y-62634500D01*
X145665254Y-62651339D01*
X145559417Y-62671123D01*
X145559415Y-62671123D01*
X145559414Y-62671124D01*
X145507517Y-62691229D01*
X145373554Y-62743126D01*
X145373552Y-62743127D01*
X145204088Y-62848056D01*
X145056792Y-62982333D01*
X144936675Y-63141393D01*
X144936670Y-63141401D01*
X144847830Y-63319816D01*
X144793282Y-63511535D01*
X144777039Y-63686828D01*
X144751253Y-63751765D01*
X144741249Y-63763067D01*
X143862181Y-64642136D01*
X143800858Y-64675621D01*
X143731167Y-64670637D01*
X143675233Y-64628765D01*
X143650816Y-64563301D01*
X143650500Y-64554455D01*
X143650500Y-49309110D01*
X143650500Y-49309108D01*
X143616392Y-49181814D01*
X143550500Y-49067686D01*
X143457314Y-48974500D01*
X143393281Y-48937530D01*
X143352654Y-48914074D01*
X143304439Y-48863506D01*
X143291217Y-48794899D01*
X143317185Y-48730035D01*
X143344586Y-48704382D01*
X143347755Y-48702210D01*
X143347765Y-48702206D01*
X143427206Y-48622765D01*
X143472585Y-48519991D01*
X143475500Y-48494865D01*
X143475499Y-45405136D01*
X143475170Y-45402297D01*
X143472586Y-45380012D01*
X143472585Y-45380010D01*
X143472585Y-45380009D01*
X143427206Y-45277235D01*
X143347765Y-45197794D01*
X143347763Y-45197793D01*
X143244992Y-45152415D01*
X143219865Y-45149500D01*
X138130143Y-45149500D01*
X138130117Y-45149502D01*
X138105012Y-45152413D01*
X138105008Y-45152415D01*
X138002235Y-45197793D01*
X137922794Y-45277234D01*
X137877415Y-45380006D01*
X137877415Y-45380008D01*
X137874500Y-45405131D01*
X137874500Y-48494856D01*
X137874502Y-48494882D01*
X137877413Y-48519987D01*
X137877415Y-48519991D01*
X137922793Y-48622764D01*
X137962848Y-48662819D01*
X137996333Y-48724142D01*
X137991349Y-48793834D01*
X137949477Y-48849767D01*
X137884013Y-48874184D01*
X137875167Y-48874500D01*
X136974833Y-48874500D01*
X136907794Y-48854815D01*
X136862039Y-48802011D01*
X136852095Y-48732853D01*
X136881120Y-48669297D01*
X136887152Y-48662819D01*
X136927206Y-48622765D01*
X136972585Y-48519991D01*
X136975500Y-48494865D01*
X136975499Y-45405136D01*
X136975170Y-45402297D01*
X136972586Y-45380012D01*
X136972585Y-45380010D01*
X136972585Y-45380009D01*
X136927206Y-45277235D01*
X136847765Y-45197794D01*
X136847763Y-45197793D01*
X136744992Y-45152415D01*
X136719868Y-45149500D01*
X136719865Y-45149500D01*
X134117728Y-45149500D01*
X134050689Y-45129815D01*
X134030047Y-45113181D01*
X132154359Y-43237493D01*
X132154357Y-43237491D01*
X132002014Y-43126807D01*
X131834231Y-43041318D01*
X131655142Y-42983128D01*
X131655140Y-42983127D01*
X131655139Y-42983127D01*
X131629711Y-42979100D01*
X131625683Y-42978462D01*
X131469153Y-42953670D01*
X124535017Y-42953670D01*
X124535012Y-42953670D01*
X124378486Y-42978462D01*
X124349031Y-42983127D01*
X124169935Y-43041319D01*
X124084449Y-43084877D01*
X124084448Y-43084876D01*
X124002158Y-43126806D01*
X123994258Y-43132546D01*
X123994257Y-43132545D01*
X123994257Y-43132546D01*
X123849819Y-43237485D01*
X123849814Y-43237489D01*
X120012493Y-47074810D01*
X120012493Y-47074811D01*
X120012491Y-47074813D01*
X119964956Y-47140238D01*
X119901807Y-47227155D01*
X119816319Y-47394936D01*
X119758127Y-47574032D01*
X119754100Y-47599457D01*
X119728670Y-47760011D01*
X119728670Y-57665048D01*
X119708985Y-57732087D01*
X119692351Y-57752729D01*
X115312493Y-62132586D01*
X115312493Y-62132587D01*
X115312491Y-62132589D01*
X115264956Y-62198014D01*
X115201807Y-62284931D01*
X115116319Y-62452712D01*
X115058127Y-62631808D01*
X115028670Y-62817793D01*
X115028670Y-65194152D01*
X115044824Y-65296144D01*
X115054757Y-65358862D01*
X115058128Y-65380142D01*
X115116318Y-65559231D01*
X115201807Y-65727014D01*
X115312491Y-65879357D01*
X116595643Y-67162510D01*
X116747987Y-67273193D01*
X116915769Y-67358682D01*
X117094859Y-67416872D01*
X117280847Y-67446330D01*
X117280848Y-67446330D01*
X118109640Y-67446330D01*
X118176679Y-67466015D01*
X118222434Y-67518819D01*
X118232378Y-67587977D01*
X118203353Y-67651533D01*
X118144575Y-67689307D01*
X118132437Y-67692216D01*
X118075673Y-67702827D01*
X118075671Y-67702827D01*
X118075669Y-67702828D01*
X117881172Y-67778176D01*
X117881171Y-67778177D01*
X117703827Y-67887985D01*
X117549683Y-68028505D01*
X117423981Y-68194961D01*
X117331007Y-68381677D01*
X117273923Y-68582308D01*
X117254678Y-68789999D01*
X117254678Y-68790000D01*
X117273923Y-68997691D01*
X117273923Y-68997693D01*
X117273924Y-68997696D01*
X117327445Y-69185803D01*
X117331007Y-69198322D01*
X117393712Y-69324250D01*
X117423981Y-69385038D01*
X117549682Y-69551493D01*
X117703829Y-69692016D01*
X117881172Y-69801823D01*
X118075673Y-69877173D01*
X118280707Y-69915500D01*
X118280710Y-69915500D01*
X118489290Y-69915500D01*
X118489293Y-69915500D01*
X118694327Y-69877173D01*
X118888828Y-69801823D01*
X119066171Y-69692016D01*
X119220318Y-69551493D01*
X119346019Y-69385038D01*
X119438994Y-69198319D01*
X119496076Y-68997696D01*
X119515322Y-68790000D01*
X119496076Y-68582304D01*
X119438994Y-68381681D01*
X119346019Y-68194962D01*
X119220318Y-68028507D01*
X119066171Y-67887984D01*
X118888828Y-67778177D01*
X118888827Y-67778176D01*
X118694330Y-67702828D01*
X118694329Y-67702827D01*
X118694327Y-67702827D01*
X118637572Y-67692217D01*
X118575294Y-67660551D01*
X118540021Y-67600239D01*
X118542955Y-67530431D01*
X118583163Y-67473290D01*
X118647882Y-67446959D01*
X118660360Y-67446330D01*
X120649640Y-67446330D01*
X120716679Y-67466015D01*
X120762434Y-67518819D01*
X120772378Y-67587977D01*
X120743353Y-67651533D01*
X120684575Y-67689307D01*
X120672437Y-67692216D01*
X120615673Y-67702827D01*
X120615671Y-67702827D01*
X120615669Y-67702828D01*
X120421172Y-67778176D01*
X120421171Y-67778177D01*
X120243827Y-67887985D01*
X120089683Y-68028505D01*
X119963981Y-68194961D01*
X119871007Y-68381677D01*
X119813923Y-68582308D01*
X119794678Y-68789999D01*
X119794678Y-68790000D01*
X119813923Y-68997691D01*
X119813923Y-68997693D01*
X119813924Y-68997696D01*
X119867445Y-69185803D01*
X119871007Y-69198322D01*
X119933712Y-69324250D01*
X119963981Y-69385038D01*
X120089682Y-69551493D01*
X120243829Y-69692016D01*
X120421172Y-69801823D01*
X120615673Y-69877173D01*
X120820707Y-69915500D01*
X120820710Y-69915500D01*
X121029290Y-69915500D01*
X121029293Y-69915500D01*
X121234327Y-69877173D01*
X121428828Y-69801823D01*
X121606171Y-69692016D01*
X121760318Y-69551493D01*
X121886019Y-69385038D01*
X121978994Y-69198319D01*
X122036076Y-68997696D01*
X122055322Y-68790000D01*
X122036076Y-68582304D01*
X121978994Y-68381681D01*
X121886019Y-68194962D01*
X121760318Y-68028507D01*
X121606171Y-67887984D01*
X121428828Y-67778177D01*
X121428827Y-67778176D01*
X121234330Y-67702828D01*
X121234329Y-67702827D01*
X121234327Y-67702827D01*
X121137849Y-67684792D01*
X121098935Y-67677518D01*
X121036655Y-67645849D01*
X121001382Y-67585537D01*
X121004316Y-67515729D01*
X121044525Y-67458589D01*
X121102317Y-67433157D01*
X121205141Y-67416872D01*
X121384231Y-67358682D01*
X121552013Y-67273193D01*
X121704356Y-67162509D01*
X121837509Y-67029356D01*
X121948193Y-66877013D01*
X122033682Y-66709231D01*
X122091872Y-66530141D01*
X122121330Y-66344153D01*
X122121330Y-66155847D01*
X122091872Y-65969859D01*
X122033682Y-65790769D01*
X121948193Y-65622987D01*
X121837509Y-65470644D01*
X121704356Y-65337491D01*
X121552013Y-65226807D01*
X121487924Y-65194152D01*
X121384233Y-65141319D01*
X121384232Y-65141318D01*
X121384231Y-65141318D01*
X121250698Y-65097930D01*
X121193023Y-65058493D01*
X121165825Y-64994135D01*
X121177740Y-64925288D01*
X121224984Y-64873813D01*
X121250695Y-64862070D01*
X121384231Y-64818682D01*
X121552014Y-64733193D01*
X121704357Y-64622509D01*
X124487821Y-61839045D01*
X124549142Y-61805562D01*
X124618834Y-61810546D01*
X124674767Y-61852418D01*
X124699184Y-61917882D01*
X124699500Y-61926728D01*
X124699500Y-80100500D01*
X124679815Y-80167539D01*
X124627011Y-80213294D01*
X124575500Y-80224500D01*
X123275323Y-80224500D01*
X123202264Y-80239032D01*
X123202260Y-80239033D01*
X123119399Y-80294399D01*
X123064033Y-80377260D01*
X123064032Y-80377264D01*
X123049500Y-80450321D01*
X123049500Y-80700500D01*
X123029815Y-80767539D01*
X122977011Y-80813294D01*
X122925500Y-80824500D01*
X120116544Y-80824500D01*
X120049505Y-80804815D01*
X120028863Y-80788181D01*
X119414933Y-80174251D01*
X119381448Y-80112928D01*
X119386432Y-80043236D01*
X119391610Y-80031305D01*
X119392171Y-80030180D01*
X119446717Y-79838469D01*
X119465108Y-79640000D01*
X119446717Y-79441531D01*
X119392171Y-79249820D01*
X119340565Y-79146182D01*
X119303329Y-79071401D01*
X119303324Y-79071393D01*
X119183207Y-78912333D01*
X119035911Y-78778056D01*
X119035910Y-78778055D01*
X118932513Y-78714034D01*
X118866447Y-78673127D01*
X118866445Y-78673126D01*
X118784379Y-78641334D01*
X118680586Y-78601124D01*
X118680582Y-78601123D01*
X118601639Y-78586366D01*
X118484660Y-78564500D01*
X118285340Y-78564500D01*
X118195254Y-78581339D01*
X118089417Y-78601123D01*
X118089415Y-78601123D01*
X118089414Y-78601124D01*
X118037517Y-78621229D01*
X117903554Y-78673126D01*
X117903552Y-78673127D01*
X117734088Y-78778056D01*
X117586792Y-78912333D01*
X117466675Y-79071393D01*
X117466670Y-79071401D01*
X117377830Y-79249816D01*
X117323282Y-79441535D01*
X117304892Y-79639999D01*
X117304892Y-79640000D01*
X117323282Y-79838464D01*
X117377830Y-80030183D01*
X117466670Y-80208598D01*
X117466675Y-80208606D01*
X117586792Y-80367666D01*
X117713508Y-80483182D01*
X117734090Y-80501945D01*
X117795895Y-80540213D01*
X117892453Y-80600000D01*
X117903554Y-80606873D01*
X118089414Y-80678876D01*
X118285340Y-80715500D01*
X118285342Y-80715500D01*
X118484658Y-80715500D01*
X118484660Y-80715500D01*
X118680586Y-80678876D01*
X118783712Y-80638923D01*
X118853334Y-80633061D01*
X118915075Y-80665770D01*
X118916187Y-80666869D01*
X119704788Y-81455470D01*
X119784712Y-81501614D01*
X119873856Y-81525500D01*
X119966144Y-81525500D01*
X122925500Y-81525500D01*
X122992539Y-81545185D01*
X123038294Y-81597989D01*
X123049500Y-81649500D01*
X123049500Y-81899678D01*
X123064032Y-81972735D01*
X123064033Y-81972739D01*
X123119739Y-82056110D01*
X123140616Y-82122788D01*
X123122131Y-82190168D01*
X123119739Y-82193890D01*
X123064033Y-82277260D01*
X123064032Y-82277264D01*
X123049500Y-82350321D01*
X123049500Y-82600500D01*
X123029815Y-82667539D01*
X122977011Y-82713294D01*
X122925500Y-82724500D01*
X119512465Y-82724500D01*
X119445426Y-82704815D01*
X119399671Y-82652011D01*
X119389727Y-82582853D01*
X119393199Y-82566566D01*
X119393597Y-82565168D01*
X119446717Y-82378469D01*
X119465108Y-82180000D01*
X119446717Y-81981531D01*
X119392171Y-81789820D01*
X119320828Y-81646544D01*
X119303329Y-81611401D01*
X119303324Y-81611393D01*
X119183207Y-81452333D01*
X119035911Y-81318056D01*
X119035910Y-81318055D01*
X118971375Y-81278096D01*
X118866447Y-81213127D01*
X118866445Y-81213126D01*
X118784379Y-81181334D01*
X118680586Y-81141124D01*
X118680582Y-81141123D01*
X118601639Y-81126366D01*
X118484660Y-81104500D01*
X118285340Y-81104500D01*
X118195254Y-81121339D01*
X118089417Y-81141123D01*
X118089415Y-81141123D01*
X118089414Y-81141124D01*
X118037517Y-81161229D01*
X117903554Y-81213126D01*
X117903552Y-81213127D01*
X117734088Y-81318056D01*
X117586792Y-81452333D01*
X117466675Y-81611393D01*
X117466670Y-81611401D01*
X117377830Y-81789816D01*
X117323282Y-81981535D01*
X117304892Y-82179999D01*
X117304892Y-82180000D01*
X117323282Y-82378464D01*
X117323282Y-82378466D01*
X117323283Y-82378469D01*
X117357232Y-82497788D01*
X117377830Y-82570183D01*
X117466670Y-82748598D01*
X117466675Y-82748606D01*
X117586792Y-82907666D01*
X117713508Y-83023182D01*
X117734090Y-83041945D01*
X117903554Y-83146873D01*
X118089414Y-83218876D01*
X118285340Y-83255500D01*
X118285342Y-83255500D01*
X118484658Y-83255500D01*
X118484660Y-83255500D01*
X118680586Y-83218876D01*
X118783712Y-83178923D01*
X118853334Y-83173061D01*
X118915075Y-83205770D01*
X118916187Y-83206869D01*
X119064788Y-83355470D01*
X119144712Y-83401614D01*
X119233856Y-83425500D01*
X122925500Y-83425500D01*
X122992539Y-83445185D01*
X123038294Y-83497989D01*
X123049500Y-83549500D01*
X123049500Y-83799678D01*
X123064032Y-83872735D01*
X123064033Y-83872739D01*
X123119739Y-83956110D01*
X123140616Y-84022788D01*
X123122131Y-84090168D01*
X123119739Y-84093890D01*
X123064033Y-84177260D01*
X123064032Y-84177264D01*
X123049500Y-84250321D01*
X123048903Y-84256386D01*
X123046376Y-84256137D01*
X123029815Y-84312539D01*
X122977011Y-84358294D01*
X122925500Y-84369500D01*
X119488707Y-84369500D01*
X119421668Y-84349815D01*
X119377707Y-84300772D01*
X119303329Y-84151401D01*
X119303324Y-84151393D01*
X119183207Y-83992333D01*
X119035911Y-83858056D01*
X119035910Y-83858055D01*
X118941622Y-83799674D01*
X118866447Y-83753127D01*
X118866445Y-83753126D01*
X118784379Y-83721334D01*
X118680586Y-83681124D01*
X118680582Y-83681123D01*
X118601639Y-83666366D01*
X118484660Y-83644500D01*
X118285340Y-83644500D01*
X118195254Y-83661339D01*
X118089417Y-83681123D01*
X118089415Y-83681123D01*
X118089414Y-83681124D01*
X118037517Y-83701229D01*
X117903554Y-83753126D01*
X117903552Y-83753127D01*
X117734088Y-83858056D01*
X117586792Y-83992333D01*
X117466675Y-84151393D01*
X117466670Y-84151401D01*
X117377830Y-84329816D01*
X117323282Y-84521535D01*
X117304892Y-84719999D01*
X117304892Y-84720000D01*
X117323282Y-84918464D01*
X117377830Y-85110183D01*
X117466670Y-85288598D01*
X117466675Y-85288606D01*
X117586792Y-85447666D01*
X117713508Y-85563182D01*
X117734090Y-85581945D01*
X117903554Y-85686873D01*
X118089414Y-85758876D01*
X118285340Y-85795500D01*
X118285342Y-85795500D01*
X118484658Y-85795500D01*
X118484660Y-85795500D01*
X118680586Y-85758876D01*
X118866446Y-85686873D01*
X119035910Y-85581945D01*
X119183209Y-85447664D01*
X119303326Y-85288604D01*
X119347446Y-85200000D01*
X119377707Y-85139228D01*
X119425210Y-85087991D01*
X119488707Y-85070500D01*
X122925500Y-85070500D01*
X122992539Y-85090185D01*
X123038294Y-85142989D01*
X123049500Y-85194500D01*
X123049500Y-85699678D01*
X123064032Y-85772735D01*
X123064033Y-85772739D01*
X123064034Y-85772740D01*
X123093198Y-85816388D01*
X123114075Y-85883064D01*
X123095590Y-85950444D01*
X123077777Y-85972957D01*
X123048214Y-86002520D01*
X123048211Y-86002525D01*
X123002910Y-86105122D01*
X123002910Y-86105124D01*
X123000000Y-86130205D01*
X123000000Y-86725000D01*
X124026000Y-86725000D01*
X124093039Y-86744685D01*
X124138794Y-86797489D01*
X124150000Y-86849000D01*
X124150000Y-87874999D01*
X124575500Y-87874999D01*
X124642539Y-87894684D01*
X124688294Y-87947488D01*
X124699500Y-87998999D01*
X124699500Y-90640891D01*
X124733608Y-90768187D01*
X124758541Y-90811371D01*
X124799500Y-90882314D01*
X124799502Y-90882316D01*
X124862076Y-90944890D01*
X124895561Y-91006213D01*
X124890577Y-91075905D01*
X124887831Y-91082655D01*
X124877910Y-91105124D01*
X124875000Y-91130205D01*
X124875000Y-93525000D01*
X128474999Y-93525000D01*
X128474999Y-91199500D01*
X128494684Y-91132461D01*
X128547488Y-91086706D01*
X128598999Y-91075500D01*
X128800500Y-91075500D01*
X128867539Y-91095185D01*
X128913294Y-91147989D01*
X128924500Y-91199500D01*
X128924500Y-92599678D01*
X128939032Y-92672735D01*
X128939033Y-92672739D01*
X128939034Y-92672740D01*
X128994399Y-92755601D01*
X129077257Y-92810964D01*
X129077260Y-92810966D01*
X129077264Y-92810967D01*
X129150321Y-92825499D01*
X129150324Y-92825500D01*
X129150326Y-92825500D01*
X130599676Y-92825500D01*
X130599677Y-92825499D01*
X130672740Y-92810966D01*
X130719971Y-92779408D01*
X130756110Y-92755261D01*
X130822787Y-92734383D01*
X130890167Y-92752868D01*
X130893890Y-92755261D01*
X130977256Y-92810964D01*
X130977258Y-92810964D01*
X130977260Y-92810966D01*
X130977262Y-92810966D01*
X130977264Y-92810967D01*
X131050321Y-92825499D01*
X131050324Y-92825500D01*
X131050326Y-92825500D01*
X132499676Y-92825500D01*
X132499677Y-92825499D01*
X132572740Y-92810966D01*
X132619971Y-92779408D01*
X132656110Y-92755261D01*
X132722787Y-92734383D01*
X132790167Y-92752868D01*
X132793890Y-92755261D01*
X132877256Y-92810964D01*
X132877258Y-92810964D01*
X132877260Y-92810966D01*
X132877262Y-92810966D01*
X132877264Y-92810967D01*
X132950321Y-92825499D01*
X132950324Y-92825500D01*
X132950326Y-92825500D01*
X134399676Y-92825500D01*
X134399677Y-92825499D01*
X134472740Y-92810966D01*
X134519971Y-92779408D01*
X134556110Y-92755261D01*
X134622787Y-92734383D01*
X134690167Y-92752868D01*
X134693890Y-92755261D01*
X134777256Y-92810964D01*
X134777258Y-92810964D01*
X134777260Y-92810966D01*
X134777262Y-92810966D01*
X134777264Y-92810967D01*
X134850321Y-92825499D01*
X134850324Y-92825500D01*
X134850326Y-92825500D01*
X135259769Y-92825500D01*
X135307219Y-92834938D01*
X135431291Y-92886330D01*
X135558280Y-92903048D01*
X135574999Y-92905250D01*
X135575000Y-92905250D01*
X135575001Y-92905250D01*
X135589977Y-92903278D01*
X135718709Y-92886330D01*
X135842780Y-92834938D01*
X135890231Y-92825500D01*
X136299676Y-92825500D01*
X136299677Y-92825499D01*
X136372735Y-92810967D01*
X136372737Y-92810967D01*
X136372737Y-92810966D01*
X136372740Y-92810966D01*
X136416390Y-92781800D01*
X136483063Y-92760924D01*
X136550443Y-92779408D01*
X136572958Y-92797223D01*
X136602520Y-92826785D01*
X136602525Y-92826788D01*
X136705123Y-92872089D01*
X136730206Y-92874999D01*
X137324999Y-92874999D01*
X137625000Y-92874999D01*
X138219786Y-92874999D01*
X138219808Y-92874997D01*
X138244869Y-92872091D01*
X138244873Y-92872090D01*
X138347474Y-92826788D01*
X138347479Y-92826785D01*
X138426785Y-92747479D01*
X138426788Y-92747474D01*
X138472089Y-92644877D01*
X138472089Y-92644875D01*
X138474999Y-92619794D01*
X138475000Y-92619791D01*
X138475000Y-92025000D01*
X137625000Y-92025000D01*
X137625000Y-92874999D01*
X137324999Y-92874999D01*
X137325000Y-92874998D01*
X137325000Y-91849000D01*
X137344685Y-91781961D01*
X137397489Y-91736206D01*
X137449000Y-91725000D01*
X138474999Y-91725000D01*
X138474999Y-91199500D01*
X138494684Y-91132461D01*
X138547488Y-91086706D01*
X138598999Y-91075500D01*
X139750500Y-91075500D01*
X139817539Y-91095185D01*
X139863294Y-91147989D01*
X139874500Y-91199500D01*
X139874500Y-92967052D01*
X139854815Y-93034091D01*
X139850820Y-93039935D01*
X139826808Y-93072986D01*
X139741319Y-93240766D01*
X139683127Y-93419862D01*
X139653670Y-93605847D01*
X139653670Y-93794152D01*
X139681094Y-93967304D01*
X139683128Y-93980141D01*
X139731771Y-94129849D01*
X139741319Y-94159233D01*
X139826807Y-94327014D01*
X139838581Y-94343218D01*
X139850817Y-94360061D01*
X139874298Y-94425865D01*
X139874500Y-94432946D01*
X139874500Y-96219856D01*
X139874502Y-96219882D01*
X139877413Y-96244987D01*
X139877415Y-96244991D01*
X139922793Y-96347764D01*
X139948562Y-96373533D01*
X139982047Y-96434856D01*
X139977063Y-96504548D01*
X139935191Y-96560481D01*
X139869727Y-96584898D01*
X139861115Y-96585214D01*
X128467181Y-96606679D01*
X128400104Y-96587121D01*
X128354250Y-96534403D01*
X128344176Y-96465263D01*
X128373081Y-96401653D01*
X128379267Y-96394997D01*
X128426786Y-96347478D01*
X128426788Y-96347474D01*
X128472089Y-96244877D01*
X128472089Y-96244875D01*
X128474999Y-96219794D01*
X128475000Y-96219791D01*
X128475000Y-93825000D01*
X124875001Y-93825000D01*
X124875001Y-96219785D01*
X124875002Y-96219808D01*
X124877908Y-96244869D01*
X124877909Y-96244873D01*
X124923211Y-96347474D01*
X124923214Y-96347479D01*
X124977472Y-96401737D01*
X125010957Y-96463060D01*
X125005973Y-96532752D01*
X124964101Y-96588685D01*
X124898637Y-96613102D01*
X124890025Y-96613418D01*
X118977795Y-96624555D01*
X118972169Y-96624438D01*
X118587293Y-96607687D01*
X118576551Y-96606750D01*
X118197128Y-96556958D01*
X118186507Y-96555091D01*
X117812853Y-96472525D01*
X117802435Y-96469743D01*
X117437357Y-96355023D01*
X117427220Y-96351346D01*
X117073490Y-96205341D01*
X117063711Y-96200797D01*
X116724014Y-96024618D01*
X116714666Y-96019242D01*
X116391548Y-95814208D01*
X116382703Y-95808040D01*
X116078629Y-95575715D01*
X116070353Y-95568802D01*
X115805288Y-95327059D01*
X115787597Y-95310924D01*
X115779973Y-95303338D01*
X115520690Y-95021868D01*
X115513738Y-95013629D01*
X115476056Y-94964815D01*
X115279893Y-94710701D01*
X115273691Y-94701901D01*
X115067052Y-94379805D01*
X115061631Y-94370488D01*
X114883759Y-94031661D01*
X114879167Y-94021905D01*
X114796744Y-93825000D01*
X114731406Y-93668910D01*
X114727680Y-93658797D01*
X114711218Y-93607307D01*
X114611142Y-93294285D01*
X114608310Y-93283888D01*
X114523880Y-92910625D01*
X114521966Y-92900039D01*
X114470285Y-92520854D01*
X114469296Y-92510121D01*
X114450646Y-92125642D01*
X114450500Y-92119634D01*
X114450500Y-89650000D01*
X117269079Y-89650000D01*
X117855791Y-89650000D01*
X117835000Y-89727591D01*
X117835000Y-89872409D01*
X117855791Y-89950000D01*
X117269079Y-89950000D01*
X117274417Y-90007603D01*
X117274417Y-90007605D01*
X117331472Y-90208133D01*
X117331478Y-90208148D01*
X117424404Y-90394768D01*
X117424409Y-90394776D01*
X117550054Y-90561157D01*
X117704130Y-90701615D01*
X117704132Y-90701617D01*
X117881392Y-90811371D01*
X117881398Y-90811374D01*
X118075811Y-90886689D01*
X118235000Y-90916446D01*
X118235000Y-90329209D01*
X118312591Y-90350000D01*
X118457409Y-90350000D01*
X118535000Y-90329209D01*
X118535000Y-90916446D01*
X118694187Y-90886689D01*
X118694188Y-90886689D01*
X118888601Y-90811374D01*
X118888607Y-90811371D01*
X119065867Y-90701617D01*
X119065869Y-90701615D01*
X119219945Y-90561157D01*
X119345590Y-90394776D01*
X119345595Y-90394768D01*
X119438521Y-90208148D01*
X119438527Y-90208133D01*
X119495582Y-90007605D01*
X119495582Y-90007603D01*
X119500921Y-89950000D01*
X118914209Y-89950000D01*
X118935000Y-89872409D01*
X118935000Y-89727591D01*
X118914209Y-89650000D01*
X119500920Y-89650000D01*
X119495582Y-89592396D01*
X119495582Y-89592394D01*
X119438527Y-89391866D01*
X119438521Y-89391851D01*
X119345595Y-89205231D01*
X119345590Y-89205223D01*
X119219945Y-89038842D01*
X119065869Y-88898384D01*
X119065867Y-88898382D01*
X118888607Y-88788628D01*
X118888601Y-88788625D01*
X118694189Y-88713310D01*
X118535000Y-88683552D01*
X118535000Y-89270790D01*
X118457409Y-89250000D01*
X118312591Y-89250000D01*
X118235000Y-89270790D01*
X118235000Y-88683552D01*
X118075810Y-88713310D01*
X117881398Y-88788625D01*
X117881392Y-88788628D01*
X117704132Y-88898382D01*
X117704130Y-88898384D01*
X117550054Y-89038842D01*
X117424409Y-89205223D01*
X117424404Y-89205231D01*
X117331478Y-89391851D01*
X117331472Y-89391866D01*
X117274417Y-89592394D01*
X117274417Y-89592396D01*
X117269079Y-89650000D01*
X114450500Y-89650000D01*
X114450500Y-87110000D01*
X117269079Y-87110000D01*
X117855791Y-87110000D01*
X117835000Y-87187591D01*
X117835000Y-87332409D01*
X117855791Y-87410000D01*
X117269079Y-87410000D01*
X117274417Y-87467603D01*
X117274417Y-87467605D01*
X117331472Y-87668133D01*
X117331478Y-87668148D01*
X117424404Y-87854768D01*
X117424409Y-87854776D01*
X117550054Y-88021157D01*
X117704130Y-88161615D01*
X117704132Y-88161617D01*
X117881392Y-88271371D01*
X117881398Y-88271374D01*
X118075811Y-88346689D01*
X118235000Y-88376446D01*
X118235000Y-87789209D01*
X118312591Y-87810000D01*
X118457409Y-87810000D01*
X118535000Y-87789209D01*
X118535000Y-88376446D01*
X118694187Y-88346689D01*
X118694188Y-88346689D01*
X118888601Y-88271374D01*
X118888607Y-88271371D01*
X119065867Y-88161617D01*
X119065869Y-88161615D01*
X119219945Y-88021157D01*
X119345590Y-87854776D01*
X119345595Y-87854768D01*
X119438521Y-87668148D01*
X119438527Y-87668133D01*
X119452283Y-87619785D01*
X123000001Y-87619785D01*
X123000002Y-87619808D01*
X123002908Y-87644869D01*
X123002909Y-87644873D01*
X123048211Y-87747474D01*
X123048214Y-87747479D01*
X123127520Y-87826785D01*
X123127525Y-87826788D01*
X123230123Y-87872089D01*
X123255206Y-87874999D01*
X123849999Y-87874999D01*
X123850000Y-87874998D01*
X123850000Y-87025000D01*
X123000001Y-87025000D01*
X123000001Y-87619785D01*
X119452283Y-87619785D01*
X119495582Y-87467605D01*
X119495582Y-87467603D01*
X119500921Y-87410000D01*
X118914209Y-87410000D01*
X118935000Y-87332409D01*
X118935000Y-87187591D01*
X118914209Y-87110000D01*
X119500920Y-87110000D01*
X119495582Y-87052396D01*
X119495582Y-87052394D01*
X119438527Y-86851866D01*
X119438521Y-86851851D01*
X119345595Y-86665231D01*
X119345590Y-86665223D01*
X119219945Y-86498842D01*
X119065869Y-86358384D01*
X119065867Y-86358382D01*
X118888607Y-86248628D01*
X118888601Y-86248625D01*
X118694189Y-86173310D01*
X118535000Y-86143552D01*
X118535000Y-86730790D01*
X118457409Y-86710000D01*
X118312591Y-86710000D01*
X118235000Y-86730790D01*
X118235000Y-86143552D01*
X118075810Y-86173310D01*
X117881398Y-86248625D01*
X117881392Y-86248628D01*
X117704132Y-86358382D01*
X117704130Y-86358384D01*
X117550054Y-86498842D01*
X117424409Y-86665223D01*
X117424404Y-86665231D01*
X117331478Y-86851851D01*
X117331472Y-86851866D01*
X117274417Y-87052394D01*
X117274417Y-87052396D01*
X117269079Y-87110000D01*
X114450500Y-87110000D01*
X114450500Y-73720000D01*
X117269079Y-73720000D01*
X117855791Y-73720000D01*
X117835000Y-73797591D01*
X117835000Y-73942409D01*
X117855791Y-74020000D01*
X117269079Y-74020000D01*
X117274417Y-74077603D01*
X117274417Y-74077605D01*
X117331472Y-74278133D01*
X117331478Y-74278148D01*
X117424404Y-74464768D01*
X117424409Y-74464776D01*
X117550054Y-74631157D01*
X117704130Y-74771615D01*
X117704132Y-74771617D01*
X117881392Y-74881371D01*
X117881398Y-74881374D01*
X118075811Y-74956689D01*
X118235000Y-74986446D01*
X118235000Y-74399209D01*
X118312591Y-74420000D01*
X118457409Y-74420000D01*
X118535000Y-74399209D01*
X118535000Y-74986446D01*
X118694187Y-74956689D01*
X118694188Y-74956689D01*
X118888601Y-74881374D01*
X118888607Y-74881371D01*
X119065867Y-74771617D01*
X119065869Y-74771615D01*
X119219945Y-74631157D01*
X119345590Y-74464776D01*
X119345595Y-74464768D01*
X119438521Y-74278148D01*
X119438527Y-74278133D01*
X119495582Y-74077605D01*
X119495582Y-74077603D01*
X119500921Y-74020000D01*
X118914209Y-74020000D01*
X118935000Y-73942409D01*
X118935000Y-73797591D01*
X118914209Y-73720000D01*
X119500920Y-73720000D01*
X119809079Y-73720000D01*
X120395791Y-73720000D01*
X120375000Y-73797591D01*
X120375000Y-73942409D01*
X120395791Y-74020000D01*
X119809079Y-74020000D01*
X119814417Y-74077603D01*
X119814417Y-74077605D01*
X119871472Y-74278133D01*
X119871478Y-74278148D01*
X119964404Y-74464768D01*
X119964409Y-74464776D01*
X120090054Y-74631157D01*
X120244130Y-74771615D01*
X120244132Y-74771617D01*
X120421392Y-74881371D01*
X120421398Y-74881374D01*
X120615811Y-74956689D01*
X120775000Y-74986446D01*
X120775000Y-74399209D01*
X120852591Y-74420000D01*
X120997409Y-74420000D01*
X121075000Y-74399209D01*
X121075000Y-74986446D01*
X121234187Y-74956689D01*
X121234188Y-74956689D01*
X121428601Y-74881374D01*
X121428607Y-74881371D01*
X121605867Y-74771617D01*
X121605869Y-74771615D01*
X121759945Y-74631157D01*
X121885590Y-74464776D01*
X121885595Y-74464768D01*
X121978521Y-74278148D01*
X121978527Y-74278133D01*
X122035582Y-74077605D01*
X122035582Y-74077603D01*
X122040921Y-74020000D01*
X121454209Y-74020000D01*
X121475000Y-73942409D01*
X121475000Y-73797591D01*
X121454209Y-73720000D01*
X122040920Y-73720000D01*
X122035582Y-73662396D01*
X122035582Y-73662394D01*
X121978527Y-73461866D01*
X121978521Y-73461851D01*
X121885595Y-73275231D01*
X121885590Y-73275223D01*
X121759945Y-73108842D01*
X121605869Y-72968384D01*
X121605867Y-72968382D01*
X121428607Y-72858628D01*
X121428601Y-72858625D01*
X121234189Y-72783310D01*
X121075000Y-72753552D01*
X121075000Y-73340790D01*
X120997409Y-73320000D01*
X120852591Y-73320000D01*
X120775000Y-73340790D01*
X120775000Y-72753552D01*
X120615810Y-72783310D01*
X120421398Y-72858625D01*
X120421392Y-72858628D01*
X120244132Y-72968382D01*
X120244130Y-72968384D01*
X120090054Y-73108842D01*
X119964409Y-73275223D01*
X119964404Y-73275231D01*
X119871478Y-73461851D01*
X119871472Y-73461866D01*
X119814417Y-73662394D01*
X119814417Y-73662396D01*
X119809079Y-73720000D01*
X119500920Y-73720000D01*
X119495582Y-73662396D01*
X119495582Y-73662394D01*
X119438527Y-73461866D01*
X119438521Y-73461851D01*
X119345595Y-73275231D01*
X119345590Y-73275223D01*
X119219945Y-73108842D01*
X119065869Y-72968384D01*
X119065867Y-72968382D01*
X118888607Y-72858628D01*
X118888601Y-72858625D01*
X118694189Y-72783310D01*
X118535000Y-72753552D01*
X118535000Y-73340790D01*
X118457409Y-73320000D01*
X118312591Y-73320000D01*
X118235000Y-73340790D01*
X118235000Y-72753552D01*
X118075810Y-72783310D01*
X117881398Y-72858625D01*
X117881392Y-72858628D01*
X117704132Y-72968382D01*
X117704130Y-72968384D01*
X117550054Y-73108842D01*
X117424409Y-73275223D01*
X117424404Y-73275231D01*
X117331478Y-73461851D01*
X117331472Y-73461866D01*
X117274417Y-73662394D01*
X117274417Y-73662396D01*
X117269079Y-73720000D01*
X114450500Y-73720000D01*
X114450500Y-71329999D01*
X117254678Y-71329999D01*
X117254678Y-71330000D01*
X117273923Y-71537691D01*
X117331007Y-71738322D01*
X117410815Y-71898598D01*
X117423981Y-71925038D01*
X117549682Y-72091493D01*
X117703829Y-72232016D01*
X117881172Y-72341823D01*
X118075673Y-72417173D01*
X118280707Y-72455500D01*
X118280710Y-72455500D01*
X118489290Y-72455500D01*
X118489293Y-72455500D01*
X118694327Y-72417173D01*
X118888828Y-72341823D01*
X119066171Y-72232016D01*
X119220318Y-72091493D01*
X119346019Y-71925038D01*
X119438994Y-71738319D01*
X119496076Y-71537696D01*
X119515322Y-71330000D01*
X119515322Y-71329999D01*
X119794678Y-71329999D01*
X119794678Y-71330000D01*
X119813923Y-71537691D01*
X119871007Y-71738322D01*
X119950815Y-71898598D01*
X119963981Y-71925038D01*
X120089682Y-72091493D01*
X120243829Y-72232016D01*
X120421172Y-72341823D01*
X120615673Y-72417173D01*
X120820707Y-72455500D01*
X120820710Y-72455500D01*
X121029290Y-72455500D01*
X121029293Y-72455500D01*
X121234327Y-72417173D01*
X121428828Y-72341823D01*
X121606171Y-72232016D01*
X121760318Y-72091493D01*
X121886019Y-71925038D01*
X121978994Y-71738319D01*
X122036076Y-71537696D01*
X122055322Y-71330000D01*
X122036076Y-71122304D01*
X121978994Y-70921681D01*
X121886019Y-70734962D01*
X121760318Y-70568507D01*
X121606171Y-70427984D01*
X121428828Y-70318177D01*
X121428827Y-70318176D01*
X121286609Y-70263081D01*
X121234327Y-70242827D01*
X121029293Y-70204500D01*
X120820707Y-70204500D01*
X120615673Y-70242827D01*
X120615670Y-70242827D01*
X120615670Y-70242828D01*
X120421172Y-70318176D01*
X120421171Y-70318177D01*
X120243827Y-70427985D01*
X120089683Y-70568505D01*
X119963981Y-70734961D01*
X119871007Y-70921677D01*
X119813923Y-71122308D01*
X119794678Y-71329999D01*
X119515322Y-71329999D01*
X119496076Y-71122304D01*
X119438994Y-70921681D01*
X119346019Y-70734962D01*
X119220318Y-70568507D01*
X119066171Y-70427984D01*
X118888828Y-70318177D01*
X118888827Y-70318176D01*
X118746609Y-70263081D01*
X118694327Y-70242827D01*
X118489293Y-70204500D01*
X118280707Y-70204500D01*
X118075673Y-70242827D01*
X118075670Y-70242827D01*
X118075670Y-70242828D01*
X117881172Y-70318176D01*
X117881171Y-70318177D01*
X117703827Y-70427985D01*
X117549683Y-70568505D01*
X117423981Y-70734961D01*
X117331007Y-70921677D01*
X117273923Y-71122308D01*
X117254678Y-71329999D01*
X114450500Y-71329999D01*
X114450500Y-46648757D01*
X114450847Y-46643245D01*
X114450712Y-46616163D01*
X114450507Y-46575195D01*
X114450596Y-46569844D01*
X114465438Y-46185749D01*
X114466327Y-46174978D01*
X114467968Y-46162016D01*
X114514231Y-45796391D01*
X114516055Y-45785737D01*
X114519118Y-45771586D01*
X114596767Y-45412751D01*
X114599512Y-45402297D01*
X114604216Y-45387109D01*
X114712416Y-45037764D01*
X114716056Y-45027603D01*
X114860301Y-44674277D01*
X114864820Y-44664459D01*
X114910832Y-44574954D01*
X115039296Y-44325058D01*
X115044634Y-44315701D01*
X115248029Y-43992779D01*
X115254183Y-43983894D01*
X115484941Y-43679923D01*
X115491830Y-43671627D01*
X115748200Y-43388915D01*
X115755766Y-43381269D01*
X116035812Y-43121956D01*
X116044030Y-43114986D01*
X116345575Y-42881085D01*
X116354388Y-42874844D01*
X116675172Y-42668103D01*
X116684506Y-42662649D01*
X116710979Y-42648690D01*
X117022058Y-42484658D01*
X117031821Y-42480042D01*
X117383624Y-42332128D01*
X117393751Y-42328381D01*
X117757113Y-42211682D01*
X117767516Y-42208836D01*
X118139652Y-42124244D01*
X118150271Y-42122313D01*
X118528348Y-42070471D01*
X118539114Y-42069471D01*
X118922539Y-42050656D01*
X118928534Y-42050509D01*
X145401242Y-42050500D01*
X145406757Y-42050847D01*
G37*
%TD.AperFunction*%
%TD*%
M02*
