%TF.GenerationSoftware,KiCad,Pcbnew,8.0.6*%
%TF.CreationDate,2024-10-27T10:54:55+01:00*%
%TF.ProjectId,Motor_Driver_carrier_board,4d6f746f-725f-4447-9269-7665725f6361,rev?*%
%TF.SameCoordinates,Original*%
%TF.FileFunction,Copper,L2,Bot*%
%TF.FilePolarity,Positive*%
%FSLAX46Y46*%
G04 Gerber Fmt 4.6, Leading zero omitted, Abs format (unit mm)*
G04 Created by KiCad (PCBNEW 8.0.6) date 2024-10-27 10:54:55*
%MOMM*%
%LPD*%
G01*
G04 APERTURE LIST*
%TA.AperFunction,ComponentPad*%
%ADD10C,1.650000*%
%TD*%
%TA.AperFunction,ViaPad*%
%ADD11C,0.600000*%
%TD*%
%TA.AperFunction,Conductor*%
%ADD12C,1.791660*%
%TD*%
%TA.AperFunction,Conductor*%
%ADD13C,0.200000*%
%TD*%
G04 APERTURE END LIST*
D10*
%TO.P,J3,1,1*%
%TO.N,/SWDIO*%
X118385000Y-79640000D03*
%TO.P,J3,2,2*%
%TO.N,/SWCLK*%
X118385000Y-82180000D03*
%TO.P,J3,3,3*%
%TO.N,/3.3V*%
X118385000Y-84720000D03*
%TO.P,J3,4,4*%
%TO.N,GND*%
X118385000Y-87260000D03*
%TO.P,J3,5,5*%
X118385000Y-89800000D03*
%TD*%
%TO.P,J1,1,1*%
%TO.N,GND*%
X120925000Y-73870000D03*
%TO.P,J1,2,2*%
X118385000Y-73870000D03*
%TO.P,J1,3,3*%
%TO.N,/24V*%
X120925000Y-71330000D03*
%TO.P,J1,4,4*%
X118385000Y-71330000D03*
%TO.P,J1,5,5*%
%TO.N,/OUT3*%
X120925000Y-68790000D03*
%TO.P,J1,6,6*%
X118385000Y-68790000D03*
%TO.P,J1,7,7*%
%TO.N,/OUT2*%
X120925000Y-66250000D03*
%TO.P,J1,8,8*%
X118385000Y-66250000D03*
%TO.P,J1,9,9*%
%TO.N,/OUT1*%
X120925000Y-63710000D03*
%TO.P,J1,10,10*%
X118385000Y-63710000D03*
%TD*%
%TO.P,J2,1,1*%
%TO.N,GND*%
X148395000Y-73870000D03*
%TO.P,J2,2,2*%
X145855000Y-73870000D03*
%TO.P,J2,3,3*%
%TO.N,/5V*%
X148395000Y-71330000D03*
%TO.P,J2,4,4*%
X145855000Y-71330000D03*
%TO.P,J2,5,5*%
%TO.N,/TX*%
X148395000Y-68790000D03*
%TO.P,J2,6,6*%
%TO.N,/H3*%
X145855000Y-68790000D03*
%TO.P,J2,7,7*%
%TO.N,/RX*%
X148395000Y-66250000D03*
%TO.P,J2,8,8*%
%TO.N,/H2*%
X145855000Y-66250000D03*
%TO.P,J2,9,9*%
%TO.N,/PWM*%
X148395000Y-63710000D03*
%TO.P,J2,10,10*%
%TO.N,/H1*%
X145855000Y-63710000D03*
%TD*%
D11*
%TO.N,/OUT3*%
X141525000Y-47000000D03*
X141500000Y-47775000D03*
X140700000Y-46225000D03*
X140675000Y-47775000D03*
X139825000Y-46225000D03*
X142425000Y-47775000D03*
X139000000Y-46225000D03*
X142375000Y-46225000D03*
X138975000Y-47775000D03*
X140675000Y-47000000D03*
X139850000Y-47000000D03*
X141525000Y-46225000D03*
X142400000Y-47000000D03*
X139025000Y-47000000D03*
X139825000Y-47775000D03*
%TO.N,GND*%
X127800000Y-91550000D03*
X125525000Y-95125000D03*
X146525000Y-81800000D03*
X137475000Y-91875000D03*
X127000000Y-91550000D03*
X127775000Y-92275000D03*
X125525000Y-95875000D03*
%TO.N,/24V*%
X140825000Y-94450000D03*
X140850000Y-93700000D03*
X142475000Y-93700000D03*
X140775000Y-95225000D03*
X142500000Y-94450000D03*
X142500000Y-95275000D03*
X141650000Y-95250000D03*
X141675000Y-93675000D03*
X141650000Y-94425000D03*
%TO.N,/PWM*%
X135575000Y-92350000D03*
%TO.N,/5V*%
X145325000Y-83425000D03*
X129875000Y-92025000D03*
%TO.N,/RX*%
X133750000Y-91975000D03*
%TO.N,/TX*%
X131725000Y-91950000D03*
%TD*%
D12*
%TO.N,/OUT3*%
X121242886Y-68790000D02*
X118385000Y-68790000D01*
X123600000Y-66432886D02*
X121242886Y-68790000D01*
X125600998Y-47000000D02*
X123600000Y-49000998D01*
X142400000Y-47000000D02*
X125600998Y-47000000D01*
X123600000Y-49000998D02*
X123600000Y-66432886D01*
D13*
%TO.N,GND*%
X118385000Y-73870000D02*
X120925000Y-73870000D01*
X125525000Y-95875000D02*
X124575000Y-95875000D01*
X124575000Y-95875000D02*
X123850000Y-95150000D01*
D12*
%TO.N,/24V*%
X140850000Y-94394632D02*
X139554170Y-95690462D01*
X121355000Y-71330000D02*
X118385000Y-71330000D01*
X141675000Y-93675000D02*
X142450000Y-93675000D01*
X141675000Y-95225000D02*
X141650000Y-95250000D01*
X142500000Y-94450000D02*
X142500000Y-95275000D01*
X139554170Y-95690462D02*
X128361546Y-95711546D01*
X123575000Y-73550000D02*
X121355000Y-71330000D01*
X123575000Y-90925000D02*
X123575000Y-73550000D01*
X141650000Y-95250000D02*
X140800000Y-95250000D01*
X140850000Y-93700000D02*
X141725000Y-93700000D01*
X140800000Y-95250000D02*
X140775000Y-95225000D01*
X142450000Y-93675000D02*
X142475000Y-93700000D01*
X140850000Y-93700000D02*
X140850000Y-94394632D01*
X141675000Y-93675000D02*
X141675000Y-95225000D01*
X128361546Y-95711546D02*
X123575000Y-90925000D01*
D13*
%TO.N,/PWM*%
X144400000Y-91075000D02*
X144400000Y-83914215D01*
X144400000Y-83914215D02*
X144325000Y-83839215D01*
X145535000Y-69915000D02*
X146320991Y-69915000D01*
X139618628Y-91575000D02*
X143900000Y-91575000D01*
X135575000Y-92350000D02*
X136125000Y-92900000D01*
X149520000Y-66715991D02*
X149520000Y-64835000D01*
X147929009Y-67665000D02*
X148570991Y-67665000D01*
X143900000Y-91575000D02*
X144400000Y-91075000D01*
X148570991Y-67665000D02*
X149520000Y-66715991D01*
X144325000Y-83839215D02*
X144325000Y-71125000D01*
X149520000Y-64835000D02*
X148395000Y-63710000D01*
X146980000Y-68614009D02*
X147929009Y-67665000D01*
X146980000Y-69255991D02*
X146980000Y-68614009D01*
X136125000Y-92900000D02*
X138293628Y-92900000D01*
X146320991Y-69915000D02*
X146980000Y-69255991D01*
X138293628Y-92900000D02*
X139618628Y-91575000D01*
X144325000Y-71125000D02*
X145535000Y-69915000D01*
%TO.N,/5V*%
X145325000Y-83425000D02*
X146455000Y-83425000D01*
X148125000Y-77275000D02*
X149520000Y-75880000D01*
X131550000Y-93700000D02*
X138625000Y-93700000D01*
X144470830Y-92379170D02*
X146980000Y-89870000D01*
X149520000Y-72455000D02*
X148395000Y-71330000D01*
X148125000Y-81755000D02*
X148125000Y-77275000D01*
X146980000Y-82900000D02*
X148125000Y-81755000D01*
X149520000Y-75880000D02*
X149520000Y-72455000D01*
X146980000Y-89870000D02*
X146980000Y-82900000D01*
X138625000Y-93700000D02*
X139945830Y-92379170D01*
X129875000Y-92025000D02*
X131550000Y-93700000D01*
X146455000Y-83425000D02*
X146980000Y-82900000D01*
X139945830Y-92379170D02*
X144470830Y-92379170D01*
%TO.N,/RX*%
X143750000Y-68950000D02*
X145275000Y-67425000D01*
X147220000Y-67425000D02*
X148395000Y-66250000D01*
X143750000Y-91075000D02*
X143750000Y-68950000D01*
X133750000Y-91575000D02*
X134150000Y-91175000D01*
X143650000Y-91175000D02*
X143750000Y-91075000D01*
X134150000Y-91175000D02*
X143650000Y-91175000D01*
X133750000Y-91975000D02*
X133750000Y-91575000D01*
X145275000Y-67425000D02*
X147220000Y-67425000D01*
%TO.N,/TX*%
X146320991Y-72455000D02*
X146980000Y-71795991D01*
X145045000Y-72455000D02*
X146320991Y-72455000D01*
X146980000Y-70205000D02*
X148395000Y-68790000D01*
X138459314Y-93300000D02*
X139784314Y-91975000D01*
X133050000Y-93300000D02*
X138459314Y-93300000D01*
X144725000Y-72775000D02*
X145045000Y-72455000D01*
X144900000Y-83848529D02*
X144725000Y-83673529D01*
X144725000Y-83673529D02*
X144725000Y-72775000D01*
X131725000Y-91950000D02*
X131725000Y-91975000D01*
X139784314Y-91975000D02*
X144300000Y-91975000D01*
X146980000Y-71795991D02*
X146980000Y-70205000D01*
X144300000Y-91975000D02*
X144900000Y-91375000D01*
X144900000Y-91375000D02*
X144900000Y-83848529D01*
X131725000Y-91975000D02*
X133050000Y-93300000D01*
%TD*%
%TA.AperFunction,Conductor*%
%TO.N,GND*%
G36*
X145406757Y-42050847D02*
G01*
X145411610Y-42050822D01*
X145411611Y-42050823D01*
X145474799Y-42050507D01*
X145480171Y-42050597D01*
X145865578Y-42065548D01*
X145876369Y-42066441D01*
X146183852Y-42105489D01*
X146256252Y-42114684D01*
X146266947Y-42116521D01*
X146641144Y-42197789D01*
X146651640Y-42200554D01*
X147017316Y-42314234D01*
X147027496Y-42317895D01*
X147372485Y-42459281D01*
X147381830Y-42463111D01*
X147391681Y-42467661D01*
X147731952Y-42643295D01*
X147741369Y-42648690D01*
X148064994Y-42853412D01*
X148073888Y-42859600D01*
X148378352Y-43091816D01*
X148386681Y-43098765D01*
X148408108Y-43118295D01*
X148669695Y-43356728D01*
X148677387Y-43364382D01*
X148936752Y-43646091D01*
X148943744Y-43654386D01*
X148991072Y-43715800D01*
X149177481Y-43957689D01*
X149183723Y-43966566D01*
X149390051Y-44289149D01*
X149395493Y-44298538D01*
X149572827Y-44637927D01*
X149577427Y-44647756D01*
X149724408Y-45001347D01*
X149728131Y-45011541D01*
X149843633Y-45376630D01*
X149846450Y-45387109D01*
X149929590Y-45760900D01*
X149931480Y-45771586D01*
X149981619Y-46151205D01*
X149982568Y-46162016D01*
X149999438Y-46547210D01*
X149999557Y-46552772D01*
X149979811Y-64499904D01*
X149960053Y-64566922D01*
X149907198Y-64612619D01*
X149838029Y-64622486D01*
X149774505Y-64593392D01*
X149768130Y-64587449D01*
X149424932Y-64244251D01*
X149391447Y-64182928D01*
X149396431Y-64113236D01*
X149401610Y-64101305D01*
X149402171Y-64100180D01*
X149456717Y-63908469D01*
X149475108Y-63710000D01*
X149456717Y-63511531D01*
X149402171Y-63319820D01*
X149393137Y-63301677D01*
X149313329Y-63141401D01*
X149313324Y-63141393D01*
X149193207Y-62982333D01*
X149045911Y-62848056D01*
X149045910Y-62848055D01*
X148981193Y-62807984D01*
X148876447Y-62743127D01*
X148876445Y-62743126D01*
X148760417Y-62698177D01*
X148690586Y-62671124D01*
X148690582Y-62671123D01*
X148611639Y-62656366D01*
X148494660Y-62634500D01*
X148295340Y-62634500D01*
X148205254Y-62651339D01*
X148099417Y-62671123D01*
X148099415Y-62671123D01*
X148099414Y-62671124D01*
X148047517Y-62691229D01*
X147913554Y-62743126D01*
X147913552Y-62743127D01*
X147744088Y-62848056D01*
X147596792Y-62982333D01*
X147476675Y-63141393D01*
X147476670Y-63141401D01*
X147387830Y-63319816D01*
X147333282Y-63511535D01*
X147314892Y-63709999D01*
X147314892Y-63710000D01*
X147333282Y-63908464D01*
X147333282Y-63908466D01*
X147333283Y-63908469D01*
X147387828Y-64100175D01*
X147387830Y-64100183D01*
X147476670Y-64278598D01*
X147476675Y-64278606D01*
X147596792Y-64437666D01*
X147723508Y-64553182D01*
X147744090Y-64571945D01*
X147913554Y-64676873D01*
X148099414Y-64748876D01*
X148295340Y-64785500D01*
X148295342Y-64785500D01*
X148494658Y-64785500D01*
X148494660Y-64785500D01*
X148690586Y-64748876D01*
X148793712Y-64708923D01*
X148863334Y-64703061D01*
X148925075Y-64735770D01*
X148926187Y-64736869D01*
X149133181Y-64943862D01*
X149166666Y-65005185D01*
X149169500Y-65031543D01*
X149169500Y-65241955D01*
X149149815Y-65308994D01*
X149097011Y-65354749D01*
X149027853Y-65364693D01*
X148980223Y-65347382D01*
X148876452Y-65283130D01*
X148876445Y-65283126D01*
X148760417Y-65238177D01*
X148690586Y-65211124D01*
X148690582Y-65211123D01*
X148611639Y-65196366D01*
X148494660Y-65174500D01*
X148295340Y-65174500D01*
X148205254Y-65191339D01*
X148099417Y-65211123D01*
X148099415Y-65211123D01*
X148099414Y-65211124D01*
X148047517Y-65231229D01*
X147913554Y-65283126D01*
X147913552Y-65283127D01*
X147744088Y-65388056D01*
X147596792Y-65522333D01*
X147476675Y-65681393D01*
X147476670Y-65681401D01*
X147387830Y-65859816D01*
X147333282Y-66051535D01*
X147314892Y-66249999D01*
X147314892Y-66250000D01*
X147333282Y-66448464D01*
X147333282Y-66448466D01*
X147333283Y-66448469D01*
X147387829Y-66640180D01*
X147388383Y-66641292D01*
X147388488Y-66641883D01*
X147389900Y-66645527D01*
X147389187Y-66645803D01*
X147400647Y-66710077D01*
X147373777Y-66774573D01*
X147365067Y-66784250D01*
X147111135Y-67038182D01*
X147049815Y-67071666D01*
X147023456Y-67074500D01*
X146829108Y-67074500D01*
X146762069Y-67054815D01*
X146716314Y-67002011D01*
X146706370Y-66932853D01*
X146730154Y-66875773D01*
X146773324Y-66818606D01*
X146773326Y-66818604D01*
X146862171Y-66640180D01*
X146916717Y-66448469D01*
X146935108Y-66250000D01*
X146916717Y-66051531D01*
X146862171Y-65859820D01*
X146853137Y-65841677D01*
X146773329Y-65681401D01*
X146773324Y-65681393D01*
X146653207Y-65522333D01*
X146505911Y-65388056D01*
X146505910Y-65388055D01*
X146378223Y-65308994D01*
X146336447Y-65283127D01*
X146336445Y-65283126D01*
X146220417Y-65238177D01*
X146150586Y-65211124D01*
X146150582Y-65211123D01*
X146071639Y-65196366D01*
X145954660Y-65174500D01*
X145755340Y-65174500D01*
X145665254Y-65191339D01*
X145559417Y-65211123D01*
X145559415Y-65211123D01*
X145559414Y-65211124D01*
X145507517Y-65231229D01*
X145373554Y-65283126D01*
X145373552Y-65283127D01*
X145204088Y-65388056D01*
X145056792Y-65522333D01*
X144936675Y-65681393D01*
X144936670Y-65681401D01*
X144847830Y-65859816D01*
X144793282Y-66051535D01*
X144774892Y-66249999D01*
X144774892Y-66250000D01*
X144793282Y-66448464D01*
X144793282Y-66448466D01*
X144793283Y-66448469D01*
X144847829Y-66640179D01*
X144847830Y-66640183D01*
X144936670Y-66818598D01*
X144936675Y-66818606D01*
X145056793Y-66977666D01*
X145058034Y-66979028D01*
X145058421Y-66979823D01*
X145060246Y-66982239D01*
X145059773Y-66982596D01*
X145088648Y-67041833D01*
X145080447Y-67111220D01*
X145054074Y-67150243D01*
X143862181Y-68342137D01*
X143800858Y-68375622D01*
X143731166Y-68370638D01*
X143675233Y-68328766D01*
X143650816Y-68263302D01*
X143650500Y-68254456D01*
X143650500Y-63709999D01*
X144774892Y-63709999D01*
X144774892Y-63710000D01*
X144793282Y-63908464D01*
X144793282Y-63908466D01*
X144793283Y-63908469D01*
X144847828Y-64100175D01*
X144847830Y-64100183D01*
X144936670Y-64278598D01*
X144936675Y-64278606D01*
X145056792Y-64437666D01*
X145183508Y-64553182D01*
X145204090Y-64571945D01*
X145373554Y-64676873D01*
X145559414Y-64748876D01*
X145755340Y-64785500D01*
X145755342Y-64785500D01*
X145954658Y-64785500D01*
X145954660Y-64785500D01*
X146150586Y-64748876D01*
X146336446Y-64676873D01*
X146505910Y-64571945D01*
X146653209Y-64437664D01*
X146773326Y-64278604D01*
X146862171Y-64100180D01*
X146916717Y-63908469D01*
X146935108Y-63710000D01*
X146916717Y-63511531D01*
X146862171Y-63319820D01*
X146853137Y-63301677D01*
X146773329Y-63141401D01*
X146773324Y-63141393D01*
X146653207Y-62982333D01*
X146505911Y-62848056D01*
X146505910Y-62848055D01*
X146441193Y-62807984D01*
X146336447Y-62743127D01*
X146336445Y-62743126D01*
X146220417Y-62698177D01*
X146150586Y-62671124D01*
X146150582Y-62671123D01*
X146071639Y-62656366D01*
X145954660Y-62634500D01*
X145755340Y-62634500D01*
X145665254Y-62651339D01*
X145559417Y-62671123D01*
X145559415Y-62671123D01*
X145559414Y-62671124D01*
X145507517Y-62691229D01*
X145373554Y-62743126D01*
X145373552Y-62743127D01*
X145204088Y-62848056D01*
X145056792Y-62982333D01*
X144936675Y-63141393D01*
X144936670Y-63141401D01*
X144847830Y-63319816D01*
X144793282Y-63511535D01*
X144774892Y-63709999D01*
X143650500Y-63709999D01*
X143650500Y-49309110D01*
X143650500Y-49309108D01*
X143616392Y-49181814D01*
X143550500Y-49067686D01*
X143457314Y-48974500D01*
X143400250Y-48941554D01*
X143343187Y-48908608D01*
X143279539Y-48891554D01*
X143215892Y-48874500D01*
X143215891Y-48874500D01*
X125717726Y-48874500D01*
X125650687Y-48854815D01*
X125604932Y-48802011D01*
X125594988Y-48732853D01*
X125624013Y-48669297D01*
X125630045Y-48662819D01*
X126060215Y-48232649D01*
X126121538Y-48199164D01*
X126147896Y-48196330D01*
X138495566Y-48196330D01*
X138562605Y-48216015D01*
X138571039Y-48221944D01*
X138672159Y-48299536D01*
X138818238Y-48360044D01*
X138896619Y-48370363D01*
X138974999Y-48380682D01*
X138975000Y-48380682D01*
X138975001Y-48380682D01*
X139027254Y-48373802D01*
X139131762Y-48360044D01*
X139277841Y-48299536D01*
X139324513Y-48263722D01*
X139389682Y-48238528D01*
X139458127Y-48252566D01*
X139475487Y-48263723D01*
X139522157Y-48299535D01*
X139522163Y-48299538D01*
X139595198Y-48329790D01*
X139668238Y-48360044D01*
X139746619Y-48370363D01*
X139824999Y-48380682D01*
X139825000Y-48380682D01*
X139825001Y-48380682D01*
X139877254Y-48373802D01*
X139981762Y-48360044D01*
X140127841Y-48299536D01*
X140174513Y-48263722D01*
X140239682Y-48238528D01*
X140308127Y-48252566D01*
X140325487Y-48263723D01*
X140372157Y-48299535D01*
X140372163Y-48299538D01*
X140445198Y-48329790D01*
X140518238Y-48360044D01*
X140596619Y-48370363D01*
X140674999Y-48380682D01*
X140675000Y-48380682D01*
X140675001Y-48380682D01*
X140727254Y-48373802D01*
X140831762Y-48360044D01*
X140977836Y-48299538D01*
X140977837Y-48299538D01*
X140977837Y-48299537D01*
X140977841Y-48299536D01*
X141012014Y-48273313D01*
X141077182Y-48248120D01*
X141145627Y-48262158D01*
X141162981Y-48273310D01*
X141197159Y-48299536D01*
X141197162Y-48299537D01*
X141197163Y-48299538D01*
X141270198Y-48329790D01*
X141343238Y-48360044D01*
X141421619Y-48370363D01*
X141499999Y-48380682D01*
X141500000Y-48380682D01*
X141500001Y-48380682D01*
X141552254Y-48373802D01*
X141656762Y-48360044D01*
X141802841Y-48299536D01*
X141887014Y-48234947D01*
X141952182Y-48209753D01*
X142020627Y-48223791D01*
X142037981Y-48234944D01*
X142086583Y-48272238D01*
X142122157Y-48299535D01*
X142122158Y-48299535D01*
X142122159Y-48299536D01*
X142268238Y-48360044D01*
X142346619Y-48370363D01*
X142424999Y-48380682D01*
X142425000Y-48380682D01*
X142425001Y-48380682D01*
X142477254Y-48373802D01*
X142581762Y-48360044D01*
X142727841Y-48299536D01*
X142853282Y-48203282D01*
X142949536Y-48077841D01*
X142949536Y-48077840D01*
X142951570Y-48075190D01*
X142993654Y-48040190D01*
X143027009Y-48023195D01*
X143027008Y-48023195D01*
X143027013Y-48023193D01*
X143179356Y-47912509D01*
X143312509Y-47779356D01*
X143423193Y-47627013D01*
X143508682Y-47459231D01*
X143566872Y-47280141D01*
X143596330Y-47094153D01*
X143596330Y-46905847D01*
X143566872Y-46719859D01*
X143508682Y-46540769D01*
X143423193Y-46372987D01*
X143312509Y-46220644D01*
X143179356Y-46087491D01*
X143027016Y-45976809D01*
X143027008Y-45976803D01*
X142911552Y-45917975D01*
X142869472Y-45882979D01*
X142803282Y-45796718D01*
X142677841Y-45700464D01*
X142531762Y-45639956D01*
X142531760Y-45639955D01*
X142375001Y-45619318D01*
X142374999Y-45619318D01*
X142218239Y-45639955D01*
X142218237Y-45639956D01*
X142072158Y-45700464D01*
X142025485Y-45736277D01*
X141960316Y-45761470D01*
X141891871Y-45747431D01*
X141874515Y-45736277D01*
X141827841Y-45700464D01*
X141681762Y-45639956D01*
X141681760Y-45639955D01*
X141525001Y-45619318D01*
X141524999Y-45619318D01*
X141368239Y-45639955D01*
X141368237Y-45639956D01*
X141222160Y-45700463D01*
X141187986Y-45726686D01*
X141122816Y-45751879D01*
X141054371Y-45737840D01*
X141037014Y-45726686D01*
X141002841Y-45700464D01*
X140856762Y-45639956D01*
X140856760Y-45639955D01*
X140700001Y-45619318D01*
X140699999Y-45619318D01*
X140543239Y-45639955D01*
X140543237Y-45639956D01*
X140397160Y-45700463D01*
X140397159Y-45700464D01*
X140337984Y-45745869D01*
X140272818Y-45771063D01*
X140204373Y-45757025D01*
X140187019Y-45745873D01*
X140127841Y-45700464D01*
X139981762Y-45639956D01*
X139981760Y-45639955D01*
X139825001Y-45619318D01*
X139824999Y-45619318D01*
X139668239Y-45639955D01*
X139668237Y-45639956D01*
X139522160Y-45700463D01*
X139487986Y-45726686D01*
X139422816Y-45751879D01*
X139354371Y-45737840D01*
X139337014Y-45726686D01*
X139302841Y-45700464D01*
X139156762Y-45639956D01*
X139156760Y-45639955D01*
X139000001Y-45619318D01*
X138999999Y-45619318D01*
X138843239Y-45639955D01*
X138843237Y-45639956D01*
X138697160Y-45700463D01*
X138697159Y-45700464D01*
X138596050Y-45778046D01*
X138530883Y-45803240D01*
X138520566Y-45803670D01*
X125695152Y-45803670D01*
X125506845Y-45803670D01*
X125463730Y-45810498D01*
X125320860Y-45833127D01*
X125141764Y-45891319D01*
X124973980Y-45976809D01*
X124821648Y-46087484D01*
X124821643Y-46087488D01*
X122687493Y-48221638D01*
X122687493Y-48221639D01*
X122687491Y-48221641D01*
X122677823Y-48234948D01*
X122576807Y-48373983D01*
X122491319Y-48541764D01*
X122433127Y-48720860D01*
X122403670Y-48906845D01*
X122403670Y-65885986D01*
X122383985Y-65953025D01*
X122367351Y-65973668D01*
X122243453Y-66097565D01*
X122182130Y-66131049D01*
X122112438Y-66126065D01*
X122056505Y-66084193D01*
X122036505Y-66043816D01*
X122036076Y-66042308D01*
X122036076Y-66042304D01*
X121978994Y-65841681D01*
X121978992Y-65841677D01*
X121899184Y-65681401D01*
X121886019Y-65654962D01*
X121760318Y-65488507D01*
X121606171Y-65347984D01*
X121428828Y-65238177D01*
X121428827Y-65238176D01*
X121286609Y-65183081D01*
X121234327Y-65162827D01*
X121029293Y-65124500D01*
X120820707Y-65124500D01*
X120615673Y-65162827D01*
X120615670Y-65162827D01*
X120615670Y-65162828D01*
X120421172Y-65238176D01*
X120421171Y-65238177D01*
X120243827Y-65347985D01*
X120089683Y-65488505D01*
X119963981Y-65654961D01*
X119871007Y-65841677D01*
X119813923Y-66042308D01*
X119794678Y-66249999D01*
X119794678Y-66250000D01*
X119813923Y-66457691D01*
X119813923Y-66457693D01*
X119813924Y-66457696D01*
X119867445Y-66645803D01*
X119871007Y-66658322D01*
X119933712Y-66784250D01*
X119963981Y-66845038D01*
X120067590Y-66982239D01*
X120089683Y-67011494D01*
X120126642Y-67045186D01*
X120243829Y-67152016D01*
X120421172Y-67261823D01*
X120615673Y-67337173D01*
X120672427Y-67347782D01*
X120734706Y-67379449D01*
X120769979Y-67439761D01*
X120767045Y-67509569D01*
X120726837Y-67566710D01*
X120662118Y-67593041D01*
X120649640Y-67593670D01*
X118660360Y-67593670D01*
X118593321Y-67573985D01*
X118547566Y-67521181D01*
X118537622Y-67452023D01*
X118566647Y-67388467D01*
X118625425Y-67350693D01*
X118637562Y-67347783D01*
X118694327Y-67337173D01*
X118888828Y-67261823D01*
X119066171Y-67152016D01*
X119220318Y-67011493D01*
X119346019Y-66845038D01*
X119438994Y-66658319D01*
X119496076Y-66457696D01*
X119515322Y-66250000D01*
X119496076Y-66042304D01*
X119438994Y-65841681D01*
X119346019Y-65654962D01*
X119220318Y-65488507D01*
X119066171Y-65347984D01*
X118888828Y-65238177D01*
X118888827Y-65238176D01*
X118746609Y-65183081D01*
X118694327Y-65162827D01*
X118489293Y-65124500D01*
X118280707Y-65124500D01*
X118075673Y-65162827D01*
X118075670Y-65162827D01*
X118075670Y-65162828D01*
X117881172Y-65238176D01*
X117881171Y-65238177D01*
X117703827Y-65347985D01*
X117549683Y-65488505D01*
X117423981Y-65654961D01*
X117331007Y-65841677D01*
X117273923Y-66042308D01*
X117254678Y-66249999D01*
X117254678Y-66250000D01*
X117273923Y-66457691D01*
X117273923Y-66457693D01*
X117273924Y-66457696D01*
X117327445Y-66645803D01*
X117331007Y-66658322D01*
X117393712Y-66784250D01*
X117423981Y-66845038D01*
X117527590Y-66982239D01*
X117549683Y-67011494D01*
X117586642Y-67045186D01*
X117703829Y-67152016D01*
X117881172Y-67261823D01*
X118075673Y-67337173D01*
X118211064Y-67362481D01*
X118273344Y-67394149D01*
X118308617Y-67454461D01*
X118305683Y-67524269D01*
X118265474Y-67581410D01*
X118207676Y-67606843D01*
X118104862Y-67623127D01*
X117925766Y-67681319D01*
X117757986Y-67766807D01*
X117680469Y-67823127D01*
X117605644Y-67877491D01*
X117605642Y-67877493D01*
X117605641Y-67877493D01*
X117472493Y-68010641D01*
X117472493Y-68010642D01*
X117472491Y-68010644D01*
X117424956Y-68076069D01*
X117361807Y-68162986D01*
X117276319Y-68330766D01*
X117218127Y-68509862D01*
X117188670Y-68695847D01*
X117188670Y-68884152D01*
X117216341Y-69058862D01*
X117218128Y-69070141D01*
X117276318Y-69249231D01*
X117361807Y-69417013D01*
X117472491Y-69569356D01*
X117605644Y-69702509D01*
X117757987Y-69813193D01*
X117925769Y-69898682D01*
X118059301Y-69942069D01*
X118116977Y-69981507D01*
X118144175Y-70045865D01*
X118132260Y-70114712D01*
X118085016Y-70166187D01*
X118059303Y-70177930D01*
X118005321Y-70195470D01*
X117925766Y-70221319D01*
X117757986Y-70306807D01*
X117680471Y-70363126D01*
X117605644Y-70417491D01*
X117605642Y-70417493D01*
X117605641Y-70417493D01*
X117472493Y-70550641D01*
X117472493Y-70550642D01*
X117472491Y-70550644D01*
X117428753Y-70610844D01*
X117361807Y-70702986D01*
X117276319Y-70870766D01*
X117218127Y-71049862D01*
X117200435Y-71161564D01*
X117188670Y-71235847D01*
X117188670Y-71424153D01*
X117218128Y-71610141D01*
X117254241Y-71721286D01*
X117276319Y-71789233D01*
X117318573Y-71872162D01*
X117361807Y-71957013D01*
X117472491Y-72109356D01*
X117605644Y-72242509D01*
X117757987Y-72353193D01*
X117925769Y-72438682D01*
X118104859Y-72496872D01*
X118209149Y-72513390D01*
X118272284Y-72543319D01*
X118309215Y-72602631D01*
X118308217Y-72672493D01*
X118269607Y-72730726D01*
X118212536Y-72757752D01*
X118075812Y-72783310D01*
X118075811Y-72783310D01*
X117881398Y-72858625D01*
X117881392Y-72858628D01*
X117704132Y-72968382D01*
X117704130Y-72968384D01*
X117550054Y-73108842D01*
X117424409Y-73275223D01*
X117424404Y-73275231D01*
X117331478Y-73461851D01*
X117331472Y-73461866D01*
X117274417Y-73662394D01*
X117274417Y-73662396D01*
X117269079Y-73720000D01*
X117855791Y-73720000D01*
X117835000Y-73797591D01*
X117835000Y-73942409D01*
X117855791Y-74020000D01*
X117269079Y-74020000D01*
X117274417Y-74077603D01*
X117274417Y-74077605D01*
X117331472Y-74278133D01*
X117331478Y-74278148D01*
X117424404Y-74464768D01*
X117424409Y-74464776D01*
X117550054Y-74631157D01*
X117704130Y-74771615D01*
X117704132Y-74771617D01*
X117881392Y-74881371D01*
X117881398Y-74881374D01*
X118075811Y-74956689D01*
X118235000Y-74986446D01*
X118235000Y-74399209D01*
X118312591Y-74420000D01*
X118457409Y-74420000D01*
X118535000Y-74399209D01*
X118535000Y-74986446D01*
X118694187Y-74956689D01*
X118694188Y-74956689D01*
X118888601Y-74881374D01*
X118888607Y-74881371D01*
X119065867Y-74771617D01*
X119065869Y-74771615D01*
X119219945Y-74631157D01*
X119345590Y-74464776D01*
X119345595Y-74464768D01*
X119438521Y-74278148D01*
X119438527Y-74278133D01*
X119495582Y-74077605D01*
X119495582Y-74077603D01*
X119500921Y-74020000D01*
X118914209Y-74020000D01*
X118935000Y-73942409D01*
X118935000Y-73797591D01*
X118914209Y-73720000D01*
X119500920Y-73720000D01*
X119495582Y-73662396D01*
X119495582Y-73662394D01*
X119438527Y-73461866D01*
X119438521Y-73461851D01*
X119345595Y-73275231D01*
X119345590Y-73275223D01*
X119219945Y-73108842D01*
X119065869Y-72968384D01*
X119065867Y-72968382D01*
X118888607Y-72858628D01*
X118888601Y-72858625D01*
X118694188Y-72783310D01*
X118634854Y-72772219D01*
X118572573Y-72740551D01*
X118537300Y-72680239D01*
X118540234Y-72610431D01*
X118580442Y-72553290D01*
X118645161Y-72526959D01*
X118657639Y-72526330D01*
X120652361Y-72526330D01*
X120719400Y-72546015D01*
X120765155Y-72598819D01*
X120775099Y-72667977D01*
X120746074Y-72731533D01*
X120687296Y-72769307D01*
X120675146Y-72772219D01*
X120615812Y-72783310D01*
X120615811Y-72783310D01*
X120421398Y-72858625D01*
X120421392Y-72858628D01*
X120244132Y-72968382D01*
X120244130Y-72968384D01*
X120090054Y-73108842D01*
X119964409Y-73275223D01*
X119964404Y-73275231D01*
X119871478Y-73461851D01*
X119871472Y-73461866D01*
X119814417Y-73662394D01*
X119814417Y-73662396D01*
X119809079Y-73720000D01*
X120395791Y-73720000D01*
X120375000Y-73797591D01*
X120375000Y-73942409D01*
X120395791Y-74020000D01*
X119809079Y-74020000D01*
X119814417Y-74077603D01*
X119814417Y-74077605D01*
X119871472Y-74278133D01*
X119871478Y-74278148D01*
X119964404Y-74464768D01*
X119964409Y-74464776D01*
X120090054Y-74631157D01*
X120244130Y-74771615D01*
X120244132Y-74771617D01*
X120421392Y-74881371D01*
X120421398Y-74881374D01*
X120615811Y-74956689D01*
X120775000Y-74986446D01*
X120775000Y-74399209D01*
X120852591Y-74420000D01*
X120997409Y-74420000D01*
X121075000Y-74399209D01*
X121075000Y-74986446D01*
X121234187Y-74956689D01*
X121234188Y-74956689D01*
X121428601Y-74881374D01*
X121428607Y-74881371D01*
X121605867Y-74771617D01*
X121605869Y-74771615D01*
X121759945Y-74631157D01*
X121885590Y-74464776D01*
X121885595Y-74464768D01*
X121978521Y-74278148D01*
X121978527Y-74278133D01*
X122035582Y-74077605D01*
X122035583Y-74077602D01*
X122043025Y-73997284D01*
X122068810Y-73932346D01*
X122125610Y-73891658D01*
X122195391Y-73888138D01*
X122254177Y-73921043D01*
X122342351Y-74009217D01*
X122375836Y-74070540D01*
X122378670Y-74096898D01*
X122378670Y-91019152D01*
X122396046Y-91128858D01*
X122396046Y-91128859D01*
X122408127Y-91205141D01*
X122408127Y-91205142D01*
X122466319Y-91384235D01*
X122548327Y-91545185D01*
X122551807Y-91552014D01*
X122662491Y-91704357D01*
X122662493Y-91704359D01*
X127355391Y-96397257D01*
X127388876Y-96458580D01*
X127383892Y-96528272D01*
X127342020Y-96584205D01*
X127276556Y-96608622D01*
X127267944Y-96608938D01*
X118977795Y-96624555D01*
X118972169Y-96624438D01*
X118587293Y-96607687D01*
X118576551Y-96606750D01*
X118197128Y-96556958D01*
X118186507Y-96555091D01*
X117812853Y-96472525D01*
X117802435Y-96469743D01*
X117437357Y-96355023D01*
X117427220Y-96351346D01*
X117073490Y-96205341D01*
X117063711Y-96200797D01*
X116724014Y-96024618D01*
X116714666Y-96019242D01*
X116391548Y-95814208D01*
X116382703Y-95808040D01*
X116078629Y-95575715D01*
X116070353Y-95568802D01*
X115805288Y-95327059D01*
X115787597Y-95310924D01*
X115779973Y-95303338D01*
X115520690Y-95021868D01*
X115513738Y-95013629D01*
X115476056Y-94964815D01*
X115279893Y-94710701D01*
X115273691Y-94701901D01*
X115067052Y-94379805D01*
X115061631Y-94370488D01*
X114883759Y-94031661D01*
X114879167Y-94021905D01*
X114783834Y-93794158D01*
X114731406Y-93668910D01*
X114727680Y-93658797D01*
X114711218Y-93607307D01*
X114611142Y-93294285D01*
X114608310Y-93283888D01*
X114604905Y-93268834D01*
X114523880Y-92910625D01*
X114521966Y-92900039D01*
X114470285Y-92520854D01*
X114469296Y-92510121D01*
X114469089Y-92505862D01*
X114450646Y-92125642D01*
X114450500Y-92119634D01*
X114450500Y-89650000D01*
X117269079Y-89650000D01*
X117855791Y-89650000D01*
X117835000Y-89727591D01*
X117835000Y-89872409D01*
X117855791Y-89950000D01*
X117269079Y-89950000D01*
X117274417Y-90007603D01*
X117274417Y-90007605D01*
X117331472Y-90208133D01*
X117331478Y-90208148D01*
X117424404Y-90394768D01*
X117424409Y-90394776D01*
X117550054Y-90561157D01*
X117704130Y-90701615D01*
X117704132Y-90701617D01*
X117881392Y-90811371D01*
X117881398Y-90811374D01*
X118075811Y-90886689D01*
X118235000Y-90916446D01*
X118235000Y-90329209D01*
X118312591Y-90350000D01*
X118457409Y-90350000D01*
X118535000Y-90329209D01*
X118535000Y-90916446D01*
X118694187Y-90886689D01*
X118694188Y-90886689D01*
X118888601Y-90811374D01*
X118888607Y-90811371D01*
X119065867Y-90701617D01*
X119065869Y-90701615D01*
X119219945Y-90561157D01*
X119345590Y-90394776D01*
X119345595Y-90394768D01*
X119438521Y-90208148D01*
X119438527Y-90208133D01*
X119495582Y-90007605D01*
X119495582Y-90007603D01*
X119500921Y-89950000D01*
X118914209Y-89950000D01*
X118935000Y-89872409D01*
X118935000Y-89727591D01*
X118914209Y-89650000D01*
X119500920Y-89650000D01*
X119495582Y-89592396D01*
X119495582Y-89592394D01*
X119438527Y-89391866D01*
X119438521Y-89391851D01*
X119345595Y-89205231D01*
X119345590Y-89205223D01*
X119219945Y-89038842D01*
X119065869Y-88898384D01*
X119065867Y-88898382D01*
X118888607Y-88788628D01*
X118888601Y-88788625D01*
X118694189Y-88713310D01*
X118535000Y-88683552D01*
X118535000Y-89270790D01*
X118457409Y-89250000D01*
X118312591Y-89250000D01*
X118235000Y-89270790D01*
X118235000Y-88683552D01*
X118075810Y-88713310D01*
X117881398Y-88788625D01*
X117881392Y-88788628D01*
X117704132Y-88898382D01*
X117704130Y-88898384D01*
X117550054Y-89038842D01*
X117424409Y-89205223D01*
X117424404Y-89205231D01*
X117331478Y-89391851D01*
X117331472Y-89391866D01*
X117274417Y-89592394D01*
X117274417Y-89592396D01*
X117269079Y-89650000D01*
X114450500Y-89650000D01*
X114450500Y-87110000D01*
X117269079Y-87110000D01*
X117855791Y-87110000D01*
X117835000Y-87187591D01*
X117835000Y-87332409D01*
X117855791Y-87410000D01*
X117269079Y-87410000D01*
X117274417Y-87467603D01*
X117274417Y-87467605D01*
X117331472Y-87668133D01*
X117331478Y-87668148D01*
X117424404Y-87854768D01*
X117424409Y-87854776D01*
X117550054Y-88021157D01*
X117704130Y-88161615D01*
X117704132Y-88161617D01*
X117881392Y-88271371D01*
X117881398Y-88271374D01*
X118075811Y-88346689D01*
X118235000Y-88376446D01*
X118235000Y-87789209D01*
X118312591Y-87810000D01*
X118457409Y-87810000D01*
X118535000Y-87789209D01*
X118535000Y-88376446D01*
X118694187Y-88346689D01*
X118694188Y-88346689D01*
X118888601Y-88271374D01*
X118888607Y-88271371D01*
X119065867Y-88161617D01*
X119065869Y-88161615D01*
X119219945Y-88021157D01*
X119345590Y-87854776D01*
X119345595Y-87854768D01*
X119438521Y-87668148D01*
X119438527Y-87668133D01*
X119495582Y-87467605D01*
X119495582Y-87467603D01*
X119500921Y-87410000D01*
X118914209Y-87410000D01*
X118935000Y-87332409D01*
X118935000Y-87187591D01*
X118914209Y-87110000D01*
X119500920Y-87110000D01*
X119495582Y-87052396D01*
X119495582Y-87052394D01*
X119438527Y-86851866D01*
X119438521Y-86851851D01*
X119345595Y-86665231D01*
X119345590Y-86665223D01*
X119219945Y-86498842D01*
X119065869Y-86358384D01*
X119065867Y-86358382D01*
X118888607Y-86248628D01*
X118888601Y-86248625D01*
X118694189Y-86173310D01*
X118535000Y-86143552D01*
X118535000Y-86730790D01*
X118457409Y-86710000D01*
X118312591Y-86710000D01*
X118235000Y-86730790D01*
X118235000Y-86143552D01*
X118075810Y-86173310D01*
X117881398Y-86248625D01*
X117881392Y-86248628D01*
X117704132Y-86358382D01*
X117704130Y-86358384D01*
X117550054Y-86498842D01*
X117424409Y-86665223D01*
X117424404Y-86665231D01*
X117331478Y-86851851D01*
X117331472Y-86851866D01*
X117274417Y-87052394D01*
X117274417Y-87052396D01*
X117269079Y-87110000D01*
X114450500Y-87110000D01*
X114450500Y-84719999D01*
X117304892Y-84719999D01*
X117304892Y-84720000D01*
X117323282Y-84918464D01*
X117377830Y-85110183D01*
X117466670Y-85288598D01*
X117466675Y-85288606D01*
X117586792Y-85447666D01*
X117713508Y-85563182D01*
X117734090Y-85581945D01*
X117903554Y-85686873D01*
X118089414Y-85758876D01*
X118285340Y-85795500D01*
X118285342Y-85795500D01*
X118484658Y-85795500D01*
X118484660Y-85795500D01*
X118680586Y-85758876D01*
X118866446Y-85686873D01*
X119035910Y-85581945D01*
X119183209Y-85447664D01*
X119303326Y-85288604D01*
X119392171Y-85110180D01*
X119446717Y-84918469D01*
X119465108Y-84720000D01*
X119446717Y-84521531D01*
X119392171Y-84329820D01*
X119390759Y-84326984D01*
X119303329Y-84151401D01*
X119303324Y-84151393D01*
X119183207Y-83992333D01*
X119035911Y-83858056D01*
X119035910Y-83858055D01*
X118902580Y-83775500D01*
X118866447Y-83753127D01*
X118866445Y-83753126D01*
X118784379Y-83721334D01*
X118680586Y-83681124D01*
X118680582Y-83681123D01*
X118601639Y-83666366D01*
X118484660Y-83644500D01*
X118285340Y-83644500D01*
X118195254Y-83661339D01*
X118089417Y-83681123D01*
X118089415Y-83681123D01*
X118089414Y-83681124D01*
X118037517Y-83701229D01*
X117903554Y-83753126D01*
X117903552Y-83753127D01*
X117734088Y-83858056D01*
X117586792Y-83992333D01*
X117466675Y-84151393D01*
X117466670Y-84151401D01*
X117377830Y-84329816D01*
X117323282Y-84521535D01*
X117304892Y-84719999D01*
X114450500Y-84719999D01*
X114450500Y-82179999D01*
X117304892Y-82179999D01*
X117304892Y-82180000D01*
X117323282Y-82378464D01*
X117377830Y-82570183D01*
X117466670Y-82748598D01*
X117466675Y-82748606D01*
X117586792Y-82907666D01*
X117697801Y-83008863D01*
X117734090Y-83041945D01*
X117903554Y-83146873D01*
X118089414Y-83218876D01*
X118285340Y-83255500D01*
X118285342Y-83255500D01*
X118484658Y-83255500D01*
X118484660Y-83255500D01*
X118680586Y-83218876D01*
X118866446Y-83146873D01*
X119035910Y-83041945D01*
X119183209Y-82907664D01*
X119303326Y-82748604D01*
X119392171Y-82570180D01*
X119446717Y-82378469D01*
X119465108Y-82180000D01*
X119446717Y-81981531D01*
X119392171Y-81789820D01*
X119320625Y-81646137D01*
X119303329Y-81611401D01*
X119303324Y-81611393D01*
X119183207Y-81452333D01*
X119035911Y-81318056D01*
X119035910Y-81318055D01*
X118971375Y-81278096D01*
X118866447Y-81213127D01*
X118866445Y-81213126D01*
X118784379Y-81181334D01*
X118680586Y-81141124D01*
X118680582Y-81141123D01*
X118601639Y-81126366D01*
X118484660Y-81104500D01*
X118285340Y-81104500D01*
X118195254Y-81121339D01*
X118089417Y-81141123D01*
X118089415Y-81141123D01*
X118089414Y-81141124D01*
X118037517Y-81161229D01*
X117903554Y-81213126D01*
X117903552Y-81213127D01*
X117734088Y-81318056D01*
X117586792Y-81452333D01*
X117466675Y-81611393D01*
X117466670Y-81611401D01*
X117377830Y-81789816D01*
X117323282Y-81981535D01*
X117304892Y-82179999D01*
X114450500Y-82179999D01*
X114450500Y-79639999D01*
X117304892Y-79639999D01*
X117304892Y-79640000D01*
X117323282Y-79838464D01*
X117377830Y-80030183D01*
X117466670Y-80208598D01*
X117466675Y-80208606D01*
X117586792Y-80367666D01*
X117713508Y-80483182D01*
X117734090Y-80501945D01*
X117903554Y-80606873D01*
X118089414Y-80678876D01*
X118285340Y-80715500D01*
X118285342Y-80715500D01*
X118484658Y-80715500D01*
X118484660Y-80715500D01*
X118680586Y-80678876D01*
X118866446Y-80606873D01*
X119035910Y-80501945D01*
X119183209Y-80367664D01*
X119303326Y-80208604D01*
X119392171Y-80030180D01*
X119446717Y-79838469D01*
X119465108Y-79640000D01*
X119446717Y-79441531D01*
X119392171Y-79249820D01*
X119390759Y-79246984D01*
X119303329Y-79071401D01*
X119303324Y-79071393D01*
X119183207Y-78912333D01*
X119035911Y-78778056D01*
X119035910Y-78778055D01*
X118971375Y-78738096D01*
X118866447Y-78673127D01*
X118866445Y-78673126D01*
X118784379Y-78641334D01*
X118680586Y-78601124D01*
X118680582Y-78601123D01*
X118601639Y-78586366D01*
X118484660Y-78564500D01*
X118285340Y-78564500D01*
X118195254Y-78581339D01*
X118089417Y-78601123D01*
X118089415Y-78601123D01*
X118089414Y-78601124D01*
X118037517Y-78621229D01*
X117903554Y-78673126D01*
X117903552Y-78673127D01*
X117734088Y-78778056D01*
X117586792Y-78912333D01*
X117466675Y-79071393D01*
X117466670Y-79071401D01*
X117377830Y-79249816D01*
X117323282Y-79441535D01*
X117304892Y-79639999D01*
X114450500Y-79639999D01*
X114450500Y-63709999D01*
X117254678Y-63709999D01*
X117254678Y-63710000D01*
X117273923Y-63917691D01*
X117331007Y-64118322D01*
X117423981Y-64305038D01*
X117549683Y-64471494D01*
X117601064Y-64518334D01*
X117703829Y-64612016D01*
X117881172Y-64721823D01*
X118075673Y-64797173D01*
X118280707Y-64835500D01*
X118280710Y-64835500D01*
X118489290Y-64835500D01*
X118489293Y-64835500D01*
X118694327Y-64797173D01*
X118888828Y-64721823D01*
X119066171Y-64612016D01*
X119220318Y-64471493D01*
X119346019Y-64305038D01*
X119438994Y-64118319D01*
X119496076Y-63917696D01*
X119515322Y-63710000D01*
X119515322Y-63709999D01*
X119794678Y-63709999D01*
X119794678Y-63710000D01*
X119813923Y-63917691D01*
X119871007Y-64118322D01*
X119963981Y-64305038D01*
X120089683Y-64471494D01*
X120141064Y-64518334D01*
X120243829Y-64612016D01*
X120421172Y-64721823D01*
X120615673Y-64797173D01*
X120820707Y-64835500D01*
X120820710Y-64835500D01*
X121029290Y-64835500D01*
X121029293Y-64835500D01*
X121234327Y-64797173D01*
X121428828Y-64721823D01*
X121606171Y-64612016D01*
X121760318Y-64471493D01*
X121886019Y-64305038D01*
X121978994Y-64118319D01*
X122036076Y-63917696D01*
X122055322Y-63710000D01*
X122036076Y-63502304D01*
X121978994Y-63301681D01*
X121886019Y-63114962D01*
X121760318Y-62948507D01*
X121606171Y-62807984D01*
X121428828Y-62698177D01*
X121428827Y-62698176D01*
X121286609Y-62643081D01*
X121234327Y-62622827D01*
X121029293Y-62584500D01*
X120820707Y-62584500D01*
X120615673Y-62622827D01*
X120615670Y-62622827D01*
X120615670Y-62622828D01*
X120421172Y-62698176D01*
X120421171Y-62698177D01*
X120243827Y-62807985D01*
X120089683Y-62948505D01*
X119963981Y-63114961D01*
X119871007Y-63301677D01*
X119813923Y-63502308D01*
X119794678Y-63709999D01*
X119515322Y-63709999D01*
X119496076Y-63502304D01*
X119438994Y-63301681D01*
X119346019Y-63114962D01*
X119220318Y-62948507D01*
X119066171Y-62807984D01*
X118888828Y-62698177D01*
X118888827Y-62698176D01*
X118746609Y-62643081D01*
X118694327Y-62622827D01*
X118489293Y-62584500D01*
X118280707Y-62584500D01*
X118075673Y-62622827D01*
X118075670Y-62622827D01*
X118075670Y-62622828D01*
X117881172Y-62698176D01*
X117881171Y-62698177D01*
X117703827Y-62807985D01*
X117549683Y-62948505D01*
X117423981Y-63114961D01*
X117331007Y-63301677D01*
X117273923Y-63502308D01*
X117254678Y-63709999D01*
X114450500Y-63709999D01*
X114450500Y-46648757D01*
X114450847Y-46643245D01*
X114450712Y-46616163D01*
X114450507Y-46575195D01*
X114450596Y-46569844D01*
X114465438Y-46185749D01*
X114466327Y-46174978D01*
X114467968Y-46162016D01*
X114514231Y-45796391D01*
X114516055Y-45785737D01*
X114516300Y-45784608D01*
X114596767Y-45412751D01*
X114599512Y-45402297D01*
X114712413Y-45037775D01*
X114716056Y-45027603D01*
X114860301Y-44674277D01*
X114864820Y-44664459D01*
X114910832Y-44574954D01*
X115039296Y-44325058D01*
X115044634Y-44315701D01*
X115248029Y-43992779D01*
X115254183Y-43983894D01*
X115484941Y-43679923D01*
X115491830Y-43671627D01*
X115748200Y-43388915D01*
X115755766Y-43381269D01*
X116035812Y-43121956D01*
X116044030Y-43114986D01*
X116345575Y-42881085D01*
X116354388Y-42874844D01*
X116675172Y-42668103D01*
X116684506Y-42662649D01*
X116710979Y-42648690D01*
X117022058Y-42484658D01*
X117031821Y-42480042D01*
X117383624Y-42332128D01*
X117393751Y-42328381D01*
X117757113Y-42211682D01*
X117767516Y-42208836D01*
X118139652Y-42124244D01*
X118150271Y-42122313D01*
X118528348Y-42070471D01*
X118539114Y-42069471D01*
X118922539Y-42050656D01*
X118928534Y-42050509D01*
X145401242Y-42050500D01*
X145406757Y-42050847D01*
G37*
%TD.AperFunction*%
%TA.AperFunction,Conductor*%
G36*
X133521495Y-91095185D02*
G01*
X133567250Y-91147989D01*
X133577194Y-91217147D01*
X133548169Y-91280703D01*
X133542137Y-91287181D01*
X133469532Y-91359785D01*
X133469530Y-91359787D01*
X133469530Y-91359788D01*
X133434911Y-91419750D01*
X133434910Y-91419750D01*
X133423387Y-91439709D01*
X133423386Y-91439710D01*
X133403243Y-91514887D01*
X133366877Y-91574547D01*
X133358962Y-91581163D01*
X133357383Y-91582374D01*
X133269137Y-91697377D01*
X133213671Y-91831287D01*
X133213670Y-91831291D01*
X133198042Y-91949999D01*
X133194750Y-91975000D01*
X133210378Y-92093708D01*
X133213670Y-92118708D01*
X133213671Y-92118712D01*
X133269137Y-92252622D01*
X133269138Y-92252624D01*
X133269139Y-92252625D01*
X133357379Y-92367621D01*
X133472375Y-92455861D01*
X133606291Y-92511330D01*
X133733280Y-92528048D01*
X133749999Y-92530250D01*
X133750000Y-92530250D01*
X133750001Y-92530250D01*
X133764977Y-92528278D01*
X133893709Y-92511330D01*
X134027625Y-92455861D01*
X134142621Y-92367621D01*
X134230861Y-92252625D01*
X134286330Y-92118709D01*
X134305250Y-91975000D01*
X134286330Y-91831291D01*
X134231064Y-91697867D01*
X134223596Y-91628399D01*
X134254871Y-91565920D01*
X134257992Y-91562687D01*
X134258958Y-91561723D01*
X134320318Y-91528305D01*
X134346544Y-91525500D01*
X138873084Y-91525500D01*
X138940123Y-91545185D01*
X138985878Y-91597989D01*
X138995822Y-91667147D01*
X138966797Y-91730703D01*
X138960765Y-91737181D01*
X138184765Y-92513181D01*
X138123442Y-92546666D01*
X138097084Y-92549500D01*
X136321544Y-92549500D01*
X136254505Y-92529815D01*
X136233863Y-92513181D01*
X136166560Y-92445878D01*
X136133075Y-92384555D01*
X136131983Y-92358129D01*
X136130250Y-92358129D01*
X136130250Y-92350000D01*
X136130250Y-92349999D01*
X136111330Y-92206291D01*
X136055861Y-92072375D01*
X135967621Y-91957379D01*
X135852625Y-91869139D01*
X135852624Y-91869138D01*
X135852622Y-91869137D01*
X135718712Y-91813671D01*
X135718710Y-91813670D01*
X135718709Y-91813670D01*
X135646854Y-91804210D01*
X135575001Y-91794750D01*
X135574999Y-91794750D01*
X135431291Y-91813670D01*
X135431287Y-91813671D01*
X135297377Y-91869137D01*
X135182379Y-91957379D01*
X135094137Y-92072377D01*
X135038671Y-92206287D01*
X135038670Y-92206291D01*
X135019750Y-92349999D01*
X135019750Y-92350000D01*
X135038670Y-92493708D01*
X135038671Y-92493712D01*
X135094137Y-92627622D01*
X135094138Y-92627624D01*
X135094139Y-92627625D01*
X135182379Y-92742621D01*
X135182381Y-92742622D01*
X135187327Y-92749068D01*
X135184784Y-92751018D01*
X135211062Y-92799142D01*
X135206078Y-92868834D01*
X135164206Y-92924767D01*
X135098742Y-92949184D01*
X135089896Y-92949500D01*
X133246544Y-92949500D01*
X133179505Y-92929815D01*
X133158863Y-92913181D01*
X132313651Y-92067969D01*
X132280166Y-92006646D01*
X132278393Y-91964103D01*
X132280250Y-91950000D01*
X132261330Y-91806291D01*
X132205861Y-91672375D01*
X132117621Y-91557379D01*
X132002625Y-91469139D01*
X132002624Y-91469138D01*
X132002622Y-91469137D01*
X131868712Y-91413671D01*
X131868710Y-91413670D01*
X131868709Y-91413670D01*
X131796854Y-91404210D01*
X131725001Y-91394750D01*
X131724999Y-91394750D01*
X131581291Y-91413670D01*
X131581287Y-91413671D01*
X131447377Y-91469137D01*
X131332379Y-91557379D01*
X131244137Y-91672377D01*
X131188671Y-91806287D01*
X131188670Y-91806291D01*
X131169750Y-91950000D01*
X131184173Y-92059555D01*
X131188670Y-92093708D01*
X131188671Y-92093712D01*
X131244137Y-92227622D01*
X131244138Y-92227624D01*
X131244139Y-92227625D01*
X131332379Y-92342621D01*
X131447375Y-92430861D01*
X131581291Y-92486330D01*
X131723078Y-92504996D01*
X131786973Y-92533262D01*
X131794572Y-92540254D01*
X132392137Y-93137819D01*
X132425622Y-93199142D01*
X132420638Y-93268834D01*
X132378766Y-93324767D01*
X132313302Y-93349184D01*
X132304456Y-93349500D01*
X131746544Y-93349500D01*
X131679505Y-93329815D01*
X131658863Y-93313181D01*
X130466560Y-92120878D01*
X130433075Y-92059555D01*
X130431983Y-92033129D01*
X130430250Y-92033129D01*
X130430250Y-92025000D01*
X130430214Y-92024729D01*
X130411330Y-91881291D01*
X130355861Y-91747375D01*
X130267621Y-91632379D01*
X130152625Y-91544139D01*
X130152624Y-91544138D01*
X130152622Y-91544137D01*
X130018712Y-91488671D01*
X130018710Y-91488670D01*
X130018709Y-91488670D01*
X129946854Y-91479210D01*
X129875001Y-91469750D01*
X129874999Y-91469750D01*
X129731291Y-91488670D01*
X129731287Y-91488671D01*
X129597377Y-91544137D01*
X129482379Y-91632379D01*
X129394137Y-91747377D01*
X129338671Y-91881287D01*
X129338670Y-91881291D01*
X129319750Y-92024999D01*
X129319750Y-92025000D01*
X129338670Y-92168708D01*
X129338671Y-92168712D01*
X129394137Y-92302622D01*
X129394138Y-92302624D01*
X129394139Y-92302625D01*
X129482379Y-92417621D01*
X129597375Y-92505861D01*
X129597376Y-92505861D01*
X129597377Y-92505862D01*
X129633584Y-92520859D01*
X129731291Y-92561330D01*
X129875000Y-92580250D01*
X129883129Y-92580250D01*
X129883129Y-92583828D01*
X129935970Y-92592031D01*
X129970878Y-92616560D01*
X131334788Y-93980470D01*
X131387661Y-94010996D01*
X131387663Y-94010997D01*
X131414709Y-94026613D01*
X131414711Y-94026613D01*
X131414712Y-94026614D01*
X131503856Y-94050500D01*
X131503857Y-94050500D01*
X131503858Y-94050500D01*
X138671142Y-94050500D01*
X138671144Y-94050500D01*
X138760288Y-94026614D01*
X138787339Y-94010996D01*
X138840212Y-93980470D01*
X139466402Y-93354279D01*
X139527723Y-93320796D01*
X139597414Y-93325780D01*
X139653348Y-93367651D01*
X139677765Y-93433116D01*
X139676554Y-93461359D01*
X139653670Y-93605846D01*
X139653670Y-93847733D01*
X139633985Y-93914772D01*
X139617351Y-93935414D01*
X139093922Y-94458842D01*
X139032599Y-94492327D01*
X139006475Y-94495161D01*
X128907645Y-94514183D01*
X128840568Y-94494625D01*
X128819730Y-94477864D01*
X125629047Y-91287181D01*
X125595562Y-91225858D01*
X125600546Y-91156166D01*
X125642418Y-91100233D01*
X125707882Y-91075816D01*
X125716728Y-91075500D01*
X133454456Y-91075500D01*
X133521495Y-91095185D01*
G37*
%TD.AperFunction*%
%TA.AperFunction,Conductor*%
G36*
X147481460Y-71911730D02*
G01*
X147503762Y-71934474D01*
X147596792Y-72057666D01*
X147674369Y-72128386D01*
X147744090Y-72191945D01*
X147913554Y-72296873D01*
X148099414Y-72368876D01*
X148295340Y-72405500D01*
X148295342Y-72405500D01*
X148494658Y-72405500D01*
X148494660Y-72405500D01*
X148690586Y-72368876D01*
X148793712Y-72328923D01*
X148863334Y-72323061D01*
X148925075Y-72355770D01*
X148926187Y-72356869D01*
X149133181Y-72563862D01*
X149166666Y-72625185D01*
X149169500Y-72651543D01*
X149169500Y-72803735D01*
X149149815Y-72870774D01*
X149097011Y-72916529D01*
X149027853Y-72926473D01*
X148980223Y-72909163D01*
X148898600Y-72858625D01*
X148704189Y-72783310D01*
X148545000Y-72753552D01*
X148545000Y-73340790D01*
X148467409Y-73320000D01*
X148322591Y-73320000D01*
X148245000Y-73340790D01*
X148245000Y-72753552D01*
X148085810Y-72783310D01*
X147891398Y-72858625D01*
X147891392Y-72858628D01*
X147714132Y-72968382D01*
X147714130Y-72968384D01*
X147560054Y-73108842D01*
X147434409Y-73275223D01*
X147434404Y-73275231D01*
X147341478Y-73461851D01*
X147341472Y-73461866D01*
X147284417Y-73662394D01*
X147284417Y-73662396D01*
X147279079Y-73720000D01*
X147865791Y-73720000D01*
X147845000Y-73797591D01*
X147845000Y-73942409D01*
X147865791Y-74020000D01*
X147279079Y-74020000D01*
X147284417Y-74077603D01*
X147284417Y-74077605D01*
X147341472Y-74278133D01*
X147341478Y-74278148D01*
X147434404Y-74464768D01*
X147434409Y-74464776D01*
X147560054Y-74631157D01*
X147714130Y-74771615D01*
X147714132Y-74771617D01*
X147891392Y-74881371D01*
X147891398Y-74881374D01*
X148085811Y-74956689D01*
X148245000Y-74986446D01*
X148245000Y-74399209D01*
X148322591Y-74420000D01*
X148467409Y-74420000D01*
X148545000Y-74399209D01*
X148545000Y-74986446D01*
X148704187Y-74956689D01*
X148704188Y-74956689D01*
X148898601Y-74881374D01*
X148898607Y-74881371D01*
X148980223Y-74830837D01*
X149047583Y-74812282D01*
X149114283Y-74833090D01*
X149159144Y-74886655D01*
X149169500Y-74936264D01*
X149169500Y-75683456D01*
X149149815Y-75750495D01*
X149133181Y-75771137D01*
X147844531Y-77059786D01*
X147844527Y-77059791D01*
X147798387Y-77139709D01*
X147798386Y-77139712D01*
X147774500Y-77228856D01*
X147774500Y-81558456D01*
X147754815Y-81625495D01*
X147738181Y-81646137D01*
X146346137Y-83038181D01*
X146284814Y-83071666D01*
X146258456Y-83074500D01*
X145811092Y-83074500D01*
X145744053Y-83054815D01*
X145724587Y-83036913D01*
X145723372Y-83038129D01*
X145717627Y-83032384D01*
X145717621Y-83032379D01*
X145602625Y-82944139D01*
X145602624Y-82944138D01*
X145602622Y-82944137D01*
X145468712Y-82888671D01*
X145468710Y-82888670D01*
X145468709Y-82888670D01*
X145396854Y-82879210D01*
X145325001Y-82869750D01*
X145324998Y-82869750D01*
X145215685Y-82884141D01*
X145146650Y-82873375D01*
X145094394Y-82826995D01*
X145075500Y-82761202D01*
X145075500Y-74933168D01*
X145095185Y-74866129D01*
X145147989Y-74820374D01*
X145217147Y-74810430D01*
X145264778Y-74827741D01*
X145351397Y-74881373D01*
X145351398Y-74881374D01*
X145545811Y-74956689D01*
X145705000Y-74986446D01*
X145705000Y-74399209D01*
X145782591Y-74420000D01*
X145927409Y-74420000D01*
X146005000Y-74399209D01*
X146005000Y-74986446D01*
X146164187Y-74956689D01*
X146164188Y-74956689D01*
X146358601Y-74881374D01*
X146358607Y-74881371D01*
X146535867Y-74771617D01*
X146535869Y-74771615D01*
X146689945Y-74631157D01*
X146815590Y-74464776D01*
X146815595Y-74464768D01*
X146908521Y-74278148D01*
X146908527Y-74278133D01*
X146965582Y-74077605D01*
X146965582Y-74077603D01*
X146970921Y-74020000D01*
X146384209Y-74020000D01*
X146405000Y-73942409D01*
X146405000Y-73797591D01*
X146384209Y-73720000D01*
X146970920Y-73720000D01*
X146965582Y-73662396D01*
X146965582Y-73662394D01*
X146908527Y-73461866D01*
X146908521Y-73461851D01*
X146815595Y-73275231D01*
X146815590Y-73275223D01*
X146689945Y-73108842D01*
X146535869Y-72968384D01*
X146535867Y-72968382D01*
X146517650Y-72957103D01*
X146471014Y-72905076D01*
X146459910Y-72836094D01*
X146487863Y-72772060D01*
X146520931Y-72744287D01*
X146527402Y-72740551D01*
X146536203Y-72735470D01*
X147260469Y-72011204D01*
X147297421Y-71947200D01*
X147347988Y-71898985D01*
X147416595Y-71885762D01*
X147481460Y-71911730D01*
G37*
%TD.AperFunction*%
%TD*%
M02*
