%TF.GenerationSoftware,KiCad,Pcbnew,8.0.6*%
%TF.CreationDate,2024-10-27T10:54:55+01:00*%
%TF.ProjectId,Motor_Driver_carrier_board,4d6f746f-725f-4447-9269-7665725f6361,rev?*%
%TF.SameCoordinates,Original*%
%TF.FileFunction,Legend,Top*%
%TF.FilePolarity,Positive*%
%FSLAX46Y46*%
G04 Gerber Fmt 4.6, Leading zero omitted, Abs format (unit mm)*
G04 Created by KiCad (PCBNEW 8.0.6) date 2024-10-27 10:54:55*
%MOMM*%
%LPD*%
G01*
G04 APERTURE LIST*
%ADD10C,0.100000*%
%ADD11C,0.150000*%
%ADD12C,0.065024*%
%ADD13C,0.120000*%
%ADD14C,0.200000*%
G04 APERTURE END LIST*
D10*
X114980074Y-63358609D02*
X115075312Y-63358609D01*
X115075312Y-63358609D02*
X115122931Y-63382419D01*
X115122931Y-63382419D02*
X115170550Y-63430038D01*
X115170550Y-63430038D02*
X115194360Y-63525276D01*
X115194360Y-63525276D02*
X115194360Y-63691942D01*
X115194360Y-63691942D02*
X115170550Y-63787180D01*
X115170550Y-63787180D02*
X115122931Y-63834800D01*
X115122931Y-63834800D02*
X115075312Y-63858609D01*
X115075312Y-63858609D02*
X114980074Y-63858609D01*
X114980074Y-63858609D02*
X114932455Y-63834800D01*
X114932455Y-63834800D02*
X114884836Y-63787180D01*
X114884836Y-63787180D02*
X114861027Y-63691942D01*
X114861027Y-63691942D02*
X114861027Y-63525276D01*
X114861027Y-63525276D02*
X114884836Y-63430038D01*
X114884836Y-63430038D02*
X114932455Y-63382419D01*
X114932455Y-63382419D02*
X114980074Y-63358609D01*
X115408646Y-63358609D02*
X115408646Y-63763371D01*
X115408646Y-63763371D02*
X115432456Y-63810990D01*
X115432456Y-63810990D02*
X115456265Y-63834800D01*
X115456265Y-63834800D02*
X115503884Y-63858609D01*
X115503884Y-63858609D02*
X115599122Y-63858609D01*
X115599122Y-63858609D02*
X115646741Y-63834800D01*
X115646741Y-63834800D02*
X115670551Y-63810990D01*
X115670551Y-63810990D02*
X115694360Y-63763371D01*
X115694360Y-63763371D02*
X115694360Y-63358609D01*
X115861028Y-63358609D02*
X116146742Y-63358609D01*
X116003885Y-63858609D02*
X116003885Y-63358609D01*
X116575313Y-63858609D02*
X116289599Y-63858609D01*
X116432456Y-63858609D02*
X116432456Y-63358609D01*
X116432456Y-63358609D02*
X116384837Y-63430038D01*
X116384837Y-63430038D02*
X116337218Y-63477657D01*
X116337218Y-63477657D02*
X116289599Y-63501466D01*
X147137216Y-60994919D02*
X147089597Y-60971109D01*
X147089597Y-60971109D02*
X147018168Y-60971109D01*
X147018168Y-60971109D02*
X146946740Y-60994919D01*
X146946740Y-60994919D02*
X146899121Y-61042538D01*
X146899121Y-61042538D02*
X146875311Y-61090157D01*
X146875311Y-61090157D02*
X146851502Y-61185395D01*
X146851502Y-61185395D02*
X146851502Y-61256823D01*
X146851502Y-61256823D02*
X146875311Y-61352061D01*
X146875311Y-61352061D02*
X146899121Y-61399680D01*
X146899121Y-61399680D02*
X146946740Y-61447300D01*
X146946740Y-61447300D02*
X147018168Y-61471109D01*
X147018168Y-61471109D02*
X147065787Y-61471109D01*
X147065787Y-61471109D02*
X147137216Y-61447300D01*
X147137216Y-61447300D02*
X147161025Y-61423490D01*
X147161025Y-61423490D02*
X147161025Y-61256823D01*
X147161025Y-61256823D02*
X147065787Y-61256823D01*
X147375311Y-61471109D02*
X147375311Y-60971109D01*
X147375311Y-60971109D02*
X147661025Y-61471109D01*
X147661025Y-61471109D02*
X147661025Y-60971109D01*
X147899121Y-61471109D02*
X147899121Y-60971109D01*
X147899121Y-60971109D02*
X148018169Y-60971109D01*
X148018169Y-60971109D02*
X148089597Y-60994919D01*
X148089597Y-60994919D02*
X148137216Y-61042538D01*
X148137216Y-61042538D02*
X148161026Y-61090157D01*
X148161026Y-61090157D02*
X148184835Y-61185395D01*
X148184835Y-61185395D02*
X148184835Y-61256823D01*
X148184835Y-61256823D02*
X148161026Y-61352061D01*
X148161026Y-61352061D02*
X148137216Y-61399680D01*
X148137216Y-61399680D02*
X148089597Y-61447300D01*
X148089597Y-61447300D02*
X148018169Y-61471109D01*
X148018169Y-61471109D02*
X147899121Y-61471109D01*
X147137216Y-56721109D02*
X147137216Y-56221109D01*
X147137216Y-56221109D02*
X147327692Y-56221109D01*
X147327692Y-56221109D02*
X147375311Y-56244919D01*
X147375311Y-56244919D02*
X147399121Y-56268728D01*
X147399121Y-56268728D02*
X147422930Y-56316347D01*
X147422930Y-56316347D02*
X147422930Y-56387776D01*
X147422930Y-56387776D02*
X147399121Y-56435395D01*
X147399121Y-56435395D02*
X147375311Y-56459204D01*
X147375311Y-56459204D02*
X147327692Y-56483014D01*
X147327692Y-56483014D02*
X147137216Y-56483014D01*
X147589597Y-56221109D02*
X147708645Y-56721109D01*
X147708645Y-56721109D02*
X147803883Y-56363966D01*
X147803883Y-56363966D02*
X147899121Y-56721109D01*
X147899121Y-56721109D02*
X148018169Y-56221109D01*
X148208645Y-56721109D02*
X148208645Y-56221109D01*
X148208645Y-56221109D02*
X148375312Y-56578252D01*
X148375312Y-56578252D02*
X148541978Y-56221109D01*
X148541978Y-56221109D02*
X148541978Y-56721109D01*
X145359836Y-57908609D02*
X145359836Y-57408609D01*
X145359836Y-57646704D02*
X145645550Y-57646704D01*
X145645550Y-57908609D02*
X145645550Y-57408609D01*
X145859837Y-57456228D02*
X145883646Y-57432419D01*
X145883646Y-57432419D02*
X145931265Y-57408609D01*
X145931265Y-57408609D02*
X146050313Y-57408609D01*
X146050313Y-57408609D02*
X146097932Y-57432419D01*
X146097932Y-57432419D02*
X146121741Y-57456228D01*
X146121741Y-57456228D02*
X146145551Y-57503847D01*
X146145551Y-57503847D02*
X146145551Y-57551466D01*
X146145551Y-57551466D02*
X146121741Y-57622895D01*
X146121741Y-57622895D02*
X145836027Y-57908609D01*
X145836027Y-57908609D02*
X146145551Y-57908609D01*
X145645551Y-59783609D02*
X145407456Y-59783609D01*
X145407456Y-59783609D02*
X145383647Y-60021704D01*
X145383647Y-60021704D02*
X145407456Y-59997895D01*
X145407456Y-59997895D02*
X145455075Y-59974085D01*
X145455075Y-59974085D02*
X145574123Y-59974085D01*
X145574123Y-59974085D02*
X145621742Y-59997895D01*
X145621742Y-59997895D02*
X145645551Y-60021704D01*
X145645551Y-60021704D02*
X145669361Y-60069323D01*
X145669361Y-60069323D02*
X145669361Y-60188371D01*
X145669361Y-60188371D02*
X145645551Y-60235990D01*
X145645551Y-60235990D02*
X145621742Y-60259800D01*
X145621742Y-60259800D02*
X145574123Y-60283609D01*
X145574123Y-60283609D02*
X145455075Y-60283609D01*
X145455075Y-60283609D02*
X145407456Y-60259800D01*
X145407456Y-60259800D02*
X145383647Y-60235990D01*
X145812218Y-59783609D02*
X145978884Y-60283609D01*
X145978884Y-60283609D02*
X146145551Y-59783609D01*
X145359836Y-59096109D02*
X145359836Y-58596109D01*
X145359836Y-58834204D02*
X145645550Y-58834204D01*
X145645550Y-59096109D02*
X145645550Y-58596109D01*
X145836027Y-58596109D02*
X146145551Y-58596109D01*
X146145551Y-58596109D02*
X145978884Y-58786585D01*
X145978884Y-58786585D02*
X146050313Y-58786585D01*
X146050313Y-58786585D02*
X146097932Y-58810395D01*
X146097932Y-58810395D02*
X146121741Y-58834204D01*
X146121741Y-58834204D02*
X146145551Y-58881823D01*
X146145551Y-58881823D02*
X146145551Y-59000871D01*
X146145551Y-59000871D02*
X146121741Y-59048490D01*
X146121741Y-59048490D02*
X146097932Y-59072300D01*
X146097932Y-59072300D02*
X146050313Y-59096109D01*
X146050313Y-59096109D02*
X145907456Y-59096109D01*
X145907456Y-59096109D02*
X145859837Y-59072300D01*
X145859837Y-59072300D02*
X145836027Y-59048490D01*
X115122933Y-71093728D02*
X115146742Y-71069919D01*
X115146742Y-71069919D02*
X115194361Y-71046109D01*
X115194361Y-71046109D02*
X115313409Y-71046109D01*
X115313409Y-71046109D02*
X115361028Y-71069919D01*
X115361028Y-71069919D02*
X115384837Y-71093728D01*
X115384837Y-71093728D02*
X115408647Y-71141347D01*
X115408647Y-71141347D02*
X115408647Y-71188966D01*
X115408647Y-71188966D02*
X115384837Y-71260395D01*
X115384837Y-71260395D02*
X115099123Y-71546109D01*
X115099123Y-71546109D02*
X115408647Y-71546109D01*
X115837218Y-71212776D02*
X115837218Y-71546109D01*
X115718170Y-71022300D02*
X115599123Y-71379442D01*
X115599123Y-71379442D02*
X115908646Y-71379442D01*
X116027694Y-71046109D02*
X116194360Y-71546109D01*
X116194360Y-71546109D02*
X116361027Y-71046109D01*
X114980074Y-68483609D02*
X115075312Y-68483609D01*
X115075312Y-68483609D02*
X115122931Y-68507419D01*
X115122931Y-68507419D02*
X115170550Y-68555038D01*
X115170550Y-68555038D02*
X115194360Y-68650276D01*
X115194360Y-68650276D02*
X115194360Y-68816942D01*
X115194360Y-68816942D02*
X115170550Y-68912180D01*
X115170550Y-68912180D02*
X115122931Y-68959800D01*
X115122931Y-68959800D02*
X115075312Y-68983609D01*
X115075312Y-68983609D02*
X114980074Y-68983609D01*
X114980074Y-68983609D02*
X114932455Y-68959800D01*
X114932455Y-68959800D02*
X114884836Y-68912180D01*
X114884836Y-68912180D02*
X114861027Y-68816942D01*
X114861027Y-68816942D02*
X114861027Y-68650276D01*
X114861027Y-68650276D02*
X114884836Y-68555038D01*
X114884836Y-68555038D02*
X114932455Y-68507419D01*
X114932455Y-68507419D02*
X114980074Y-68483609D01*
X115408646Y-68483609D02*
X115408646Y-68888371D01*
X115408646Y-68888371D02*
X115432456Y-68935990D01*
X115432456Y-68935990D02*
X115456265Y-68959800D01*
X115456265Y-68959800D02*
X115503884Y-68983609D01*
X115503884Y-68983609D02*
X115599122Y-68983609D01*
X115599122Y-68983609D02*
X115646741Y-68959800D01*
X115646741Y-68959800D02*
X115670551Y-68935990D01*
X115670551Y-68935990D02*
X115694360Y-68888371D01*
X115694360Y-68888371D02*
X115694360Y-68483609D01*
X115861028Y-68483609D02*
X116146742Y-68483609D01*
X116003885Y-68983609D02*
X116003885Y-68483609D01*
X116265789Y-68483609D02*
X116575313Y-68483609D01*
X116575313Y-68483609D02*
X116408646Y-68674085D01*
X116408646Y-68674085D02*
X116480075Y-68674085D01*
X116480075Y-68674085D02*
X116527694Y-68697895D01*
X116527694Y-68697895D02*
X116551503Y-68721704D01*
X116551503Y-68721704D02*
X116575313Y-68769323D01*
X116575313Y-68769323D02*
X116575313Y-68888371D01*
X116575313Y-68888371D02*
X116551503Y-68935990D01*
X116551503Y-68935990D02*
X116527694Y-68959800D01*
X116527694Y-68959800D02*
X116480075Y-68983609D01*
X116480075Y-68983609D02*
X116337218Y-68983609D01*
X116337218Y-68983609D02*
X116289599Y-68959800D01*
X116289599Y-68959800D02*
X116265789Y-68935990D01*
X115337217Y-73632419D02*
X115289598Y-73608609D01*
X115289598Y-73608609D02*
X115218169Y-73608609D01*
X115218169Y-73608609D02*
X115146741Y-73632419D01*
X115146741Y-73632419D02*
X115099122Y-73680038D01*
X115099122Y-73680038D02*
X115075312Y-73727657D01*
X115075312Y-73727657D02*
X115051503Y-73822895D01*
X115051503Y-73822895D02*
X115051503Y-73894323D01*
X115051503Y-73894323D02*
X115075312Y-73989561D01*
X115075312Y-73989561D02*
X115099122Y-74037180D01*
X115099122Y-74037180D02*
X115146741Y-74084800D01*
X115146741Y-74084800D02*
X115218169Y-74108609D01*
X115218169Y-74108609D02*
X115265788Y-74108609D01*
X115265788Y-74108609D02*
X115337217Y-74084800D01*
X115337217Y-74084800D02*
X115361026Y-74060990D01*
X115361026Y-74060990D02*
X115361026Y-73894323D01*
X115361026Y-73894323D02*
X115265788Y-73894323D01*
X115575312Y-74108609D02*
X115575312Y-73608609D01*
X115575312Y-73608609D02*
X115861026Y-74108609D01*
X115861026Y-74108609D02*
X115861026Y-73608609D01*
X116099122Y-74108609D02*
X116099122Y-73608609D01*
X116099122Y-73608609D02*
X116218170Y-73608609D01*
X116218170Y-73608609D02*
X116289598Y-73632419D01*
X116289598Y-73632419D02*
X116337217Y-73680038D01*
X116337217Y-73680038D02*
X116361027Y-73727657D01*
X116361027Y-73727657D02*
X116384836Y-73822895D01*
X116384836Y-73822895D02*
X116384836Y-73894323D01*
X116384836Y-73894323D02*
X116361027Y-73989561D01*
X116361027Y-73989561D02*
X116337217Y-74037180D01*
X116337217Y-74037180D02*
X116289598Y-74084800D01*
X116289598Y-74084800D02*
X116218170Y-74108609D01*
X116218170Y-74108609D02*
X116099122Y-74108609D01*
X147422930Y-57908609D02*
X147256264Y-57670514D01*
X147137216Y-57908609D02*
X147137216Y-57408609D01*
X147137216Y-57408609D02*
X147327692Y-57408609D01*
X147327692Y-57408609D02*
X147375311Y-57432419D01*
X147375311Y-57432419D02*
X147399121Y-57456228D01*
X147399121Y-57456228D02*
X147422930Y-57503847D01*
X147422930Y-57503847D02*
X147422930Y-57575276D01*
X147422930Y-57575276D02*
X147399121Y-57622895D01*
X147399121Y-57622895D02*
X147375311Y-57646704D01*
X147375311Y-57646704D02*
X147327692Y-57670514D01*
X147327692Y-57670514D02*
X147137216Y-57670514D01*
X147589597Y-57408609D02*
X147922930Y-57908609D01*
X147922930Y-57408609D02*
X147589597Y-57908609D01*
X114980074Y-65921109D02*
X115075312Y-65921109D01*
X115075312Y-65921109D02*
X115122931Y-65944919D01*
X115122931Y-65944919D02*
X115170550Y-65992538D01*
X115170550Y-65992538D02*
X115194360Y-66087776D01*
X115194360Y-66087776D02*
X115194360Y-66254442D01*
X115194360Y-66254442D02*
X115170550Y-66349680D01*
X115170550Y-66349680D02*
X115122931Y-66397300D01*
X115122931Y-66397300D02*
X115075312Y-66421109D01*
X115075312Y-66421109D02*
X114980074Y-66421109D01*
X114980074Y-66421109D02*
X114932455Y-66397300D01*
X114932455Y-66397300D02*
X114884836Y-66349680D01*
X114884836Y-66349680D02*
X114861027Y-66254442D01*
X114861027Y-66254442D02*
X114861027Y-66087776D01*
X114861027Y-66087776D02*
X114884836Y-65992538D01*
X114884836Y-65992538D02*
X114932455Y-65944919D01*
X114932455Y-65944919D02*
X114980074Y-65921109D01*
X115408646Y-65921109D02*
X115408646Y-66325871D01*
X115408646Y-66325871D02*
X115432456Y-66373490D01*
X115432456Y-66373490D02*
X115456265Y-66397300D01*
X115456265Y-66397300D02*
X115503884Y-66421109D01*
X115503884Y-66421109D02*
X115599122Y-66421109D01*
X115599122Y-66421109D02*
X115646741Y-66397300D01*
X115646741Y-66397300D02*
X115670551Y-66373490D01*
X115670551Y-66373490D02*
X115694360Y-66325871D01*
X115694360Y-66325871D02*
X115694360Y-65921109D01*
X115861028Y-65921109D02*
X116146742Y-65921109D01*
X116003885Y-66421109D02*
X116003885Y-65921109D01*
X116289599Y-65968728D02*
X116313408Y-65944919D01*
X116313408Y-65944919D02*
X116361027Y-65921109D01*
X116361027Y-65921109D02*
X116480075Y-65921109D01*
X116480075Y-65921109D02*
X116527694Y-65944919D01*
X116527694Y-65944919D02*
X116551503Y-65968728D01*
X116551503Y-65968728D02*
X116575313Y-66016347D01*
X116575313Y-66016347D02*
X116575313Y-66063966D01*
X116575313Y-66063966D02*
X116551503Y-66135395D01*
X116551503Y-66135395D02*
X116265789Y-66421109D01*
X116265789Y-66421109D02*
X116575313Y-66421109D01*
X145359836Y-60994919D02*
X145312217Y-60971109D01*
X145312217Y-60971109D02*
X145240788Y-60971109D01*
X145240788Y-60971109D02*
X145169360Y-60994919D01*
X145169360Y-60994919D02*
X145121741Y-61042538D01*
X145121741Y-61042538D02*
X145097931Y-61090157D01*
X145097931Y-61090157D02*
X145074122Y-61185395D01*
X145074122Y-61185395D02*
X145074122Y-61256823D01*
X145074122Y-61256823D02*
X145097931Y-61352061D01*
X145097931Y-61352061D02*
X145121741Y-61399680D01*
X145121741Y-61399680D02*
X145169360Y-61447300D01*
X145169360Y-61447300D02*
X145240788Y-61471109D01*
X145240788Y-61471109D02*
X145288407Y-61471109D01*
X145288407Y-61471109D02*
X145359836Y-61447300D01*
X145359836Y-61447300D02*
X145383645Y-61423490D01*
X145383645Y-61423490D02*
X145383645Y-61256823D01*
X145383645Y-61256823D02*
X145288407Y-61256823D01*
X145597931Y-61471109D02*
X145597931Y-60971109D01*
X145597931Y-60971109D02*
X145883645Y-61471109D01*
X145883645Y-61471109D02*
X145883645Y-60971109D01*
X146121741Y-61471109D02*
X146121741Y-60971109D01*
X146121741Y-60971109D02*
X146240789Y-60971109D01*
X146240789Y-60971109D02*
X146312217Y-60994919D01*
X146312217Y-60994919D02*
X146359836Y-61042538D01*
X146359836Y-61042538D02*
X146383646Y-61090157D01*
X146383646Y-61090157D02*
X146407455Y-61185395D01*
X146407455Y-61185395D02*
X146407455Y-61256823D01*
X146407455Y-61256823D02*
X146383646Y-61352061D01*
X146383646Y-61352061D02*
X146359836Y-61399680D01*
X146359836Y-61399680D02*
X146312217Y-61447300D01*
X146312217Y-61447300D02*
X146240789Y-61471109D01*
X146240789Y-61471109D02*
X146121741Y-61471109D01*
X147065788Y-58596109D02*
X147351502Y-58596109D01*
X147208645Y-59096109D02*
X147208645Y-58596109D01*
X147470549Y-58596109D02*
X147803882Y-59096109D01*
X147803882Y-58596109D02*
X147470549Y-59096109D01*
X147422931Y-59783609D02*
X147184836Y-59783609D01*
X147184836Y-59783609D02*
X147161027Y-60021704D01*
X147161027Y-60021704D02*
X147184836Y-59997895D01*
X147184836Y-59997895D02*
X147232455Y-59974085D01*
X147232455Y-59974085D02*
X147351503Y-59974085D01*
X147351503Y-59974085D02*
X147399122Y-59997895D01*
X147399122Y-59997895D02*
X147422931Y-60021704D01*
X147422931Y-60021704D02*
X147446741Y-60069323D01*
X147446741Y-60069323D02*
X147446741Y-60188371D01*
X147446741Y-60188371D02*
X147422931Y-60235990D01*
X147422931Y-60235990D02*
X147399122Y-60259800D01*
X147399122Y-60259800D02*
X147351503Y-60283609D01*
X147351503Y-60283609D02*
X147232455Y-60283609D01*
X147232455Y-60283609D02*
X147184836Y-60259800D01*
X147184836Y-60259800D02*
X147161027Y-60235990D01*
X147589598Y-59783609D02*
X147756264Y-60283609D01*
X147756264Y-60283609D02*
X147922931Y-59783609D01*
X145359836Y-56721109D02*
X145359836Y-56221109D01*
X145359836Y-56459204D02*
X145645550Y-56459204D01*
X145645550Y-56721109D02*
X145645550Y-56221109D01*
X146145551Y-56721109D02*
X145859837Y-56721109D01*
X146002694Y-56721109D02*
X146002694Y-56221109D01*
X146002694Y-56221109D02*
X145955075Y-56292538D01*
X145955075Y-56292538D02*
X145907456Y-56340157D01*
X145907456Y-56340157D02*
X145859837Y-56363966D01*
D11*
X126198809Y-43404819D02*
X126389285Y-43404819D01*
X126389285Y-43404819D02*
X126484523Y-43452438D01*
X126484523Y-43452438D02*
X126579761Y-43547676D01*
X126579761Y-43547676D02*
X126627380Y-43738152D01*
X126627380Y-43738152D02*
X126627380Y-44071485D01*
X126627380Y-44071485D02*
X126579761Y-44261961D01*
X126579761Y-44261961D02*
X126484523Y-44357200D01*
X126484523Y-44357200D02*
X126389285Y-44404819D01*
X126389285Y-44404819D02*
X126198809Y-44404819D01*
X126198809Y-44404819D02*
X126103571Y-44357200D01*
X126103571Y-44357200D02*
X126008333Y-44261961D01*
X126008333Y-44261961D02*
X125960714Y-44071485D01*
X125960714Y-44071485D02*
X125960714Y-43738152D01*
X125960714Y-43738152D02*
X126008333Y-43547676D01*
X126008333Y-43547676D02*
X126103571Y-43452438D01*
X126103571Y-43452438D02*
X126198809Y-43404819D01*
X127055952Y-43404819D02*
X127055952Y-44214342D01*
X127055952Y-44214342D02*
X127103571Y-44309580D01*
X127103571Y-44309580D02*
X127151190Y-44357200D01*
X127151190Y-44357200D02*
X127246428Y-44404819D01*
X127246428Y-44404819D02*
X127436904Y-44404819D01*
X127436904Y-44404819D02*
X127532142Y-44357200D01*
X127532142Y-44357200D02*
X127579761Y-44309580D01*
X127579761Y-44309580D02*
X127627380Y-44214342D01*
X127627380Y-44214342D02*
X127627380Y-43404819D01*
X127960714Y-43404819D02*
X128532142Y-43404819D01*
X128246428Y-44404819D02*
X128246428Y-43404819D01*
X129389285Y-44404819D02*
X128817857Y-44404819D01*
X129103571Y-44404819D02*
X129103571Y-43404819D01*
X129103571Y-43404819D02*
X129008333Y-43547676D01*
X129008333Y-43547676D02*
X128913095Y-43642914D01*
X128913095Y-43642914D02*
X128817857Y-43690533D01*
D12*
X118967012Y-76907329D02*
X118967012Y-77441455D01*
X118967012Y-77441455D02*
X118931403Y-77548280D01*
X118931403Y-77548280D02*
X118860187Y-77619497D01*
X118860187Y-77619497D02*
X118753361Y-77655105D01*
X118753361Y-77655105D02*
X118682145Y-77655105D01*
X119251879Y-76907329D02*
X119714788Y-76907329D01*
X119714788Y-76907329D02*
X119465529Y-77192196D01*
X119465529Y-77192196D02*
X119572354Y-77192196D01*
X119572354Y-77192196D02*
X119643571Y-77227804D01*
X119643571Y-77227804D02*
X119679179Y-77263413D01*
X119679179Y-77263413D02*
X119714788Y-77334629D01*
X119714788Y-77334629D02*
X119714788Y-77512671D01*
X119714788Y-77512671D02*
X119679179Y-77583888D01*
X119679179Y-77583888D02*
X119643571Y-77619497D01*
X119643571Y-77619497D02*
X119572354Y-77655105D01*
X119572354Y-77655105D02*
X119358704Y-77655105D01*
X119358704Y-77655105D02*
X119287487Y-77619497D01*
X119287487Y-77619497D02*
X119251879Y-77583888D01*
D11*
X146467857Y-85129592D02*
X146410715Y-85101021D01*
X146410715Y-85101021D02*
X146325000Y-85101021D01*
X146325000Y-85101021D02*
X146239286Y-85129592D01*
X146239286Y-85129592D02*
X146182143Y-85186735D01*
X146182143Y-85186735D02*
X146153572Y-85243878D01*
X146153572Y-85243878D02*
X146125000Y-85358164D01*
X146125000Y-85358164D02*
X146125000Y-85443878D01*
X146125000Y-85443878D02*
X146153572Y-85558164D01*
X146153572Y-85558164D02*
X146182143Y-85615307D01*
X146182143Y-85615307D02*
X146239286Y-85672450D01*
X146239286Y-85672450D02*
X146325000Y-85701021D01*
X146325000Y-85701021D02*
X146382143Y-85701021D01*
X146382143Y-85701021D02*
X146467857Y-85672450D01*
X146467857Y-85672450D02*
X146496429Y-85643878D01*
X146496429Y-85643878D02*
X146496429Y-85443878D01*
X146496429Y-85443878D02*
X146382143Y-85443878D01*
X146753572Y-85701021D02*
X146753572Y-85101021D01*
X146753572Y-85101021D02*
X147096429Y-85701021D01*
X147096429Y-85701021D02*
X147096429Y-85101021D01*
X147382143Y-85701021D02*
X147382143Y-85101021D01*
X147382143Y-85101021D02*
X147525000Y-85101021D01*
X147525000Y-85101021D02*
X147610714Y-85129592D01*
X147610714Y-85129592D02*
X147667857Y-85186735D01*
X147667857Y-85186735D02*
X147696428Y-85243878D01*
X147696428Y-85243878D02*
X147725000Y-85358164D01*
X147725000Y-85358164D02*
X147725000Y-85443878D01*
X147725000Y-85443878D02*
X147696428Y-85558164D01*
X147696428Y-85558164D02*
X147667857Y-85615307D01*
X147667857Y-85615307D02*
X147610714Y-85672450D01*
X147610714Y-85672450D02*
X147525000Y-85701021D01*
X147525000Y-85701021D02*
X147382143Y-85701021D01*
X129734820Y-93294771D02*
X129449106Y-93294771D01*
X129449106Y-93294771D02*
X129420534Y-93580485D01*
X129420534Y-93580485D02*
X129449106Y-93551914D01*
X129449106Y-93551914D02*
X129506249Y-93523342D01*
X129506249Y-93523342D02*
X129649106Y-93523342D01*
X129649106Y-93523342D02*
X129706249Y-93551914D01*
X129706249Y-93551914D02*
X129734820Y-93580485D01*
X129734820Y-93580485D02*
X129763391Y-93637628D01*
X129763391Y-93637628D02*
X129763391Y-93780485D01*
X129763391Y-93780485D02*
X129734820Y-93837628D01*
X129734820Y-93837628D02*
X129706249Y-93866200D01*
X129706249Y-93866200D02*
X129649106Y-93894771D01*
X129649106Y-93894771D02*
X129506249Y-93894771D01*
X129506249Y-93894771D02*
X129449106Y-93866200D01*
X129449106Y-93866200D02*
X129420534Y-93837628D01*
X129934820Y-93294771D02*
X130134820Y-93894771D01*
X130134820Y-93894771D02*
X130334820Y-93294771D01*
X137116963Y-93323342D02*
X137059821Y-93294771D01*
X137059821Y-93294771D02*
X136974106Y-93294771D01*
X136974106Y-93294771D02*
X136888392Y-93323342D01*
X136888392Y-93323342D02*
X136831249Y-93380485D01*
X136831249Y-93380485D02*
X136802678Y-93437628D01*
X136802678Y-93437628D02*
X136774106Y-93551914D01*
X136774106Y-93551914D02*
X136774106Y-93637628D01*
X136774106Y-93637628D02*
X136802678Y-93751914D01*
X136802678Y-93751914D02*
X136831249Y-93809057D01*
X136831249Y-93809057D02*
X136888392Y-93866200D01*
X136888392Y-93866200D02*
X136974106Y-93894771D01*
X136974106Y-93894771D02*
X137031249Y-93894771D01*
X137031249Y-93894771D02*
X137116963Y-93866200D01*
X137116963Y-93866200D02*
X137145535Y-93837628D01*
X137145535Y-93837628D02*
X137145535Y-93637628D01*
X137145535Y-93637628D02*
X137031249Y-93637628D01*
X137402678Y-93894771D02*
X137402678Y-93294771D01*
X137402678Y-93294771D02*
X137745535Y-93894771D01*
X137745535Y-93894771D02*
X137745535Y-93294771D01*
X138031249Y-93894771D02*
X138031249Y-93294771D01*
X138031249Y-93294771D02*
X138174106Y-93294771D01*
X138174106Y-93294771D02*
X138259820Y-93323342D01*
X138259820Y-93323342D02*
X138316963Y-93380485D01*
X138316963Y-93380485D02*
X138345534Y-93437628D01*
X138345534Y-93437628D02*
X138374106Y-93551914D01*
X138374106Y-93551914D02*
X138374106Y-93637628D01*
X138374106Y-93637628D02*
X138345534Y-93751914D01*
X138345534Y-93751914D02*
X138316963Y-93809057D01*
X138316963Y-93809057D02*
X138259820Y-93866200D01*
X138259820Y-93866200D02*
X138174106Y-93894771D01*
X138174106Y-93894771D02*
X138031249Y-93894771D01*
X143913095Y-93723866D02*
X144675000Y-93723866D01*
X144294047Y-94104819D02*
X144294047Y-93342914D01*
X145103571Y-93200057D02*
X145151190Y-93152438D01*
X145151190Y-93152438D02*
X145246428Y-93104819D01*
X145246428Y-93104819D02*
X145484523Y-93104819D01*
X145484523Y-93104819D02*
X145579761Y-93152438D01*
X145579761Y-93152438D02*
X145627380Y-93200057D01*
X145627380Y-93200057D02*
X145674999Y-93295295D01*
X145674999Y-93295295D02*
X145674999Y-93390533D01*
X145674999Y-93390533D02*
X145627380Y-93533390D01*
X145627380Y-93533390D02*
X145055952Y-94104819D01*
X145055952Y-94104819D02*
X145674999Y-94104819D01*
X146532142Y-93438152D02*
X146532142Y-94104819D01*
X146294047Y-93057200D02*
X146055952Y-93771485D01*
X146055952Y-93771485D02*
X146674999Y-93771485D01*
X146913095Y-93104819D02*
X147246428Y-94104819D01*
X147246428Y-94104819D02*
X147579761Y-93104819D01*
X120613095Y-93698866D02*
X121375000Y-93698866D01*
X121803571Y-93175057D02*
X121851190Y-93127438D01*
X121851190Y-93127438D02*
X121946428Y-93079819D01*
X121946428Y-93079819D02*
X122184523Y-93079819D01*
X122184523Y-93079819D02*
X122279761Y-93127438D01*
X122279761Y-93127438D02*
X122327380Y-93175057D01*
X122327380Y-93175057D02*
X122374999Y-93270295D01*
X122374999Y-93270295D02*
X122374999Y-93365533D01*
X122374999Y-93365533D02*
X122327380Y-93508390D01*
X122327380Y-93508390D02*
X121755952Y-94079819D01*
X121755952Y-94079819D02*
X122374999Y-94079819D01*
X123232142Y-93413152D02*
X123232142Y-94079819D01*
X122994047Y-93032200D02*
X122755952Y-93746485D01*
X122755952Y-93746485D02*
X123374999Y-93746485D01*
X123613095Y-93079819D02*
X123946428Y-94079819D01*
X123946428Y-94079819D02*
X124279761Y-93079819D01*
X139198809Y-43404819D02*
X139389285Y-43404819D01*
X139389285Y-43404819D02*
X139484523Y-43452438D01*
X139484523Y-43452438D02*
X139579761Y-43547676D01*
X139579761Y-43547676D02*
X139627380Y-43738152D01*
X139627380Y-43738152D02*
X139627380Y-44071485D01*
X139627380Y-44071485D02*
X139579761Y-44261961D01*
X139579761Y-44261961D02*
X139484523Y-44357200D01*
X139484523Y-44357200D02*
X139389285Y-44404819D01*
X139389285Y-44404819D02*
X139198809Y-44404819D01*
X139198809Y-44404819D02*
X139103571Y-44357200D01*
X139103571Y-44357200D02*
X139008333Y-44261961D01*
X139008333Y-44261961D02*
X138960714Y-44071485D01*
X138960714Y-44071485D02*
X138960714Y-43738152D01*
X138960714Y-43738152D02*
X139008333Y-43547676D01*
X139008333Y-43547676D02*
X139103571Y-43452438D01*
X139103571Y-43452438D02*
X139198809Y-43404819D01*
X140055952Y-43404819D02*
X140055952Y-44214342D01*
X140055952Y-44214342D02*
X140103571Y-44309580D01*
X140103571Y-44309580D02*
X140151190Y-44357200D01*
X140151190Y-44357200D02*
X140246428Y-44404819D01*
X140246428Y-44404819D02*
X140436904Y-44404819D01*
X140436904Y-44404819D02*
X140532142Y-44357200D01*
X140532142Y-44357200D02*
X140579761Y-44309580D01*
X140579761Y-44309580D02*
X140627380Y-44214342D01*
X140627380Y-44214342D02*
X140627380Y-43404819D01*
X140960714Y-43404819D02*
X141532142Y-43404819D01*
X141246428Y-44404819D02*
X141246428Y-43404819D01*
X141770238Y-43404819D02*
X142389285Y-43404819D01*
X142389285Y-43404819D02*
X142055952Y-43785771D01*
X142055952Y-43785771D02*
X142198809Y-43785771D01*
X142198809Y-43785771D02*
X142294047Y-43833390D01*
X142294047Y-43833390D02*
X142341666Y-43881009D01*
X142341666Y-43881009D02*
X142389285Y-43976247D01*
X142389285Y-43976247D02*
X142389285Y-44214342D01*
X142389285Y-44214342D02*
X142341666Y-44309580D01*
X142341666Y-44309580D02*
X142294047Y-44357200D01*
X142294047Y-44357200D02*
X142198809Y-44404819D01*
X142198809Y-44404819D02*
X141913095Y-44404819D01*
X141913095Y-44404819D02*
X141817857Y-44357200D01*
X141817857Y-44357200D02*
X141770238Y-44309580D01*
X132698809Y-43404819D02*
X132889285Y-43404819D01*
X132889285Y-43404819D02*
X132984523Y-43452438D01*
X132984523Y-43452438D02*
X133079761Y-43547676D01*
X133079761Y-43547676D02*
X133127380Y-43738152D01*
X133127380Y-43738152D02*
X133127380Y-44071485D01*
X133127380Y-44071485D02*
X133079761Y-44261961D01*
X133079761Y-44261961D02*
X132984523Y-44357200D01*
X132984523Y-44357200D02*
X132889285Y-44404819D01*
X132889285Y-44404819D02*
X132698809Y-44404819D01*
X132698809Y-44404819D02*
X132603571Y-44357200D01*
X132603571Y-44357200D02*
X132508333Y-44261961D01*
X132508333Y-44261961D02*
X132460714Y-44071485D01*
X132460714Y-44071485D02*
X132460714Y-43738152D01*
X132460714Y-43738152D02*
X132508333Y-43547676D01*
X132508333Y-43547676D02*
X132603571Y-43452438D01*
X132603571Y-43452438D02*
X132698809Y-43404819D01*
X133555952Y-43404819D02*
X133555952Y-44214342D01*
X133555952Y-44214342D02*
X133603571Y-44309580D01*
X133603571Y-44309580D02*
X133651190Y-44357200D01*
X133651190Y-44357200D02*
X133746428Y-44404819D01*
X133746428Y-44404819D02*
X133936904Y-44404819D01*
X133936904Y-44404819D02*
X134032142Y-44357200D01*
X134032142Y-44357200D02*
X134079761Y-44309580D01*
X134079761Y-44309580D02*
X134127380Y-44214342D01*
X134127380Y-44214342D02*
X134127380Y-43404819D01*
X134460714Y-43404819D02*
X135032142Y-43404819D01*
X134746428Y-44404819D02*
X134746428Y-43404819D01*
X135317857Y-43500057D02*
X135365476Y-43452438D01*
X135365476Y-43452438D02*
X135460714Y-43404819D01*
X135460714Y-43404819D02*
X135698809Y-43404819D01*
X135698809Y-43404819D02*
X135794047Y-43452438D01*
X135794047Y-43452438D02*
X135841666Y-43500057D01*
X135841666Y-43500057D02*
X135889285Y-43595295D01*
X135889285Y-43595295D02*
X135889285Y-43690533D01*
X135889285Y-43690533D02*
X135841666Y-43833390D01*
X135841666Y-43833390D02*
X135270238Y-44404819D01*
X135270238Y-44404819D02*
X135889285Y-44404819D01*
D12*
X117617012Y-75632329D02*
X117617012Y-76166455D01*
X117617012Y-76166455D02*
X117581403Y-76273280D01*
X117581403Y-76273280D02*
X117510187Y-76344497D01*
X117510187Y-76344497D02*
X117403361Y-76380105D01*
X117403361Y-76380105D02*
X117332145Y-76380105D01*
X118364788Y-76380105D02*
X117937487Y-76380105D01*
X118151137Y-76380105D02*
X118151137Y-75632329D01*
X118151137Y-75632329D02*
X118079921Y-75739154D01*
X118079921Y-75739154D02*
X118008704Y-75810371D01*
X118008704Y-75810371D02*
X117937487Y-75845979D01*
D11*
X134307143Y-93894771D02*
X134307143Y-93294771D01*
X134307143Y-93294771D02*
X134535714Y-93294771D01*
X134535714Y-93294771D02*
X134592857Y-93323342D01*
X134592857Y-93323342D02*
X134621428Y-93351914D01*
X134621428Y-93351914D02*
X134650000Y-93409057D01*
X134650000Y-93409057D02*
X134650000Y-93494771D01*
X134650000Y-93494771D02*
X134621428Y-93551914D01*
X134621428Y-93551914D02*
X134592857Y-93580485D01*
X134592857Y-93580485D02*
X134535714Y-93609057D01*
X134535714Y-93609057D02*
X134307143Y-93609057D01*
X134850000Y-93294771D02*
X134992857Y-93894771D01*
X134992857Y-93894771D02*
X135107143Y-93466200D01*
X135107143Y-93466200D02*
X135221428Y-93894771D01*
X135221428Y-93894771D02*
X135364286Y-93294771D01*
X135592857Y-93894771D02*
X135592857Y-93294771D01*
X135592857Y-93294771D02*
X135792857Y-93723342D01*
X135792857Y-93723342D02*
X135992857Y-93294771D01*
X135992857Y-93294771D02*
X135992857Y-93894771D01*
X146467857Y-79907271D02*
X146467857Y-79307271D01*
X146467857Y-79592985D02*
X146810714Y-79592985D01*
X146810714Y-79907271D02*
X146810714Y-79307271D01*
X147067856Y-79364414D02*
X147096428Y-79335842D01*
X147096428Y-79335842D02*
X147153571Y-79307271D01*
X147153571Y-79307271D02*
X147296428Y-79307271D01*
X147296428Y-79307271D02*
X147353571Y-79335842D01*
X147353571Y-79335842D02*
X147382142Y-79364414D01*
X147382142Y-79364414D02*
X147410713Y-79421557D01*
X147410713Y-79421557D02*
X147410713Y-79478700D01*
X147410713Y-79478700D02*
X147382142Y-79564414D01*
X147382142Y-79564414D02*
X147039285Y-79907271D01*
X147039285Y-79907271D02*
X147410713Y-79907271D01*
X146810714Y-83169771D02*
X146525000Y-83169771D01*
X146525000Y-83169771D02*
X146496428Y-83455485D01*
X146496428Y-83455485D02*
X146525000Y-83426914D01*
X146525000Y-83426914D02*
X146582143Y-83398342D01*
X146582143Y-83398342D02*
X146725000Y-83398342D01*
X146725000Y-83398342D02*
X146782143Y-83426914D01*
X146782143Y-83426914D02*
X146810714Y-83455485D01*
X146810714Y-83455485D02*
X146839285Y-83512628D01*
X146839285Y-83512628D02*
X146839285Y-83655485D01*
X146839285Y-83655485D02*
X146810714Y-83712628D01*
X146810714Y-83712628D02*
X146782143Y-83741200D01*
X146782143Y-83741200D02*
X146725000Y-83769771D01*
X146725000Y-83769771D02*
X146582143Y-83769771D01*
X146582143Y-83769771D02*
X146525000Y-83741200D01*
X146525000Y-83741200D02*
X146496428Y-83712628D01*
X147010714Y-83169771D02*
X147210714Y-83769771D01*
X147210714Y-83769771D02*
X147410714Y-83169771D01*
X120253571Y-80566200D02*
X120339286Y-80594771D01*
X120339286Y-80594771D02*
X120482143Y-80594771D01*
X120482143Y-80594771D02*
X120539286Y-80566200D01*
X120539286Y-80566200D02*
X120567857Y-80537628D01*
X120567857Y-80537628D02*
X120596428Y-80480485D01*
X120596428Y-80480485D02*
X120596428Y-80423342D01*
X120596428Y-80423342D02*
X120567857Y-80366200D01*
X120567857Y-80366200D02*
X120539286Y-80337628D01*
X120539286Y-80337628D02*
X120482143Y-80309057D01*
X120482143Y-80309057D02*
X120367857Y-80280485D01*
X120367857Y-80280485D02*
X120310714Y-80251914D01*
X120310714Y-80251914D02*
X120282143Y-80223342D01*
X120282143Y-80223342D02*
X120253571Y-80166200D01*
X120253571Y-80166200D02*
X120253571Y-80109057D01*
X120253571Y-80109057D02*
X120282143Y-80051914D01*
X120282143Y-80051914D02*
X120310714Y-80023342D01*
X120310714Y-80023342D02*
X120367857Y-79994771D01*
X120367857Y-79994771D02*
X120510714Y-79994771D01*
X120510714Y-79994771D02*
X120596428Y-80023342D01*
X120796429Y-79994771D02*
X120939286Y-80594771D01*
X120939286Y-80594771D02*
X121053572Y-80166200D01*
X121053572Y-80166200D02*
X121167857Y-80594771D01*
X121167857Y-80594771D02*
X121310715Y-79994771D01*
X121539286Y-80594771D02*
X121539286Y-79994771D01*
X121539286Y-79994771D02*
X121682143Y-79994771D01*
X121682143Y-79994771D02*
X121767857Y-80023342D01*
X121767857Y-80023342D02*
X121825000Y-80080485D01*
X121825000Y-80080485D02*
X121853571Y-80137628D01*
X121853571Y-80137628D02*
X121882143Y-80251914D01*
X121882143Y-80251914D02*
X121882143Y-80337628D01*
X121882143Y-80337628D02*
X121853571Y-80451914D01*
X121853571Y-80451914D02*
X121825000Y-80509057D01*
X121825000Y-80509057D02*
X121767857Y-80566200D01*
X121767857Y-80566200D02*
X121682143Y-80594771D01*
X121682143Y-80594771D02*
X121539286Y-80594771D01*
X122139286Y-80594771D02*
X122139286Y-79994771D01*
X122539285Y-79994771D02*
X122653571Y-79994771D01*
X122653571Y-79994771D02*
X122710714Y-80023342D01*
X122710714Y-80023342D02*
X122767857Y-80080485D01*
X122767857Y-80080485D02*
X122796428Y-80194771D01*
X122796428Y-80194771D02*
X122796428Y-80394771D01*
X122796428Y-80394771D02*
X122767857Y-80509057D01*
X122767857Y-80509057D02*
X122710714Y-80566200D01*
X122710714Y-80566200D02*
X122653571Y-80594771D01*
X122653571Y-80594771D02*
X122539285Y-80594771D01*
X122539285Y-80594771D02*
X122482143Y-80566200D01*
X122482143Y-80566200D02*
X122425000Y-80509057D01*
X122425000Y-80509057D02*
X122396428Y-80394771D01*
X122396428Y-80394771D02*
X122396428Y-80194771D01*
X122396428Y-80194771D02*
X122425000Y-80080485D01*
X122425000Y-80080485D02*
X122482143Y-80023342D01*
X122482143Y-80023342D02*
X122539285Y-79994771D01*
X146467857Y-77976021D02*
X146467857Y-77376021D01*
X146467857Y-77661735D02*
X146810714Y-77661735D01*
X146810714Y-77976021D02*
X146810714Y-77376021D01*
X147410713Y-77976021D02*
X147067856Y-77976021D01*
X147239285Y-77976021D02*
X147239285Y-77376021D01*
X147239285Y-77376021D02*
X147182142Y-77461735D01*
X147182142Y-77461735D02*
X147124999Y-77518878D01*
X147124999Y-77518878D02*
X147067856Y-77547450D01*
X130973213Y-93294771D02*
X131316071Y-93294771D01*
X131144642Y-93894771D02*
X131144642Y-93294771D01*
X131458928Y-93294771D02*
X131858928Y-93894771D01*
X131858928Y-93294771D02*
X131458928Y-93894771D01*
X121067857Y-85498342D02*
X121010715Y-85469771D01*
X121010715Y-85469771D02*
X120925000Y-85469771D01*
X120925000Y-85469771D02*
X120839286Y-85498342D01*
X120839286Y-85498342D02*
X120782143Y-85555485D01*
X120782143Y-85555485D02*
X120753572Y-85612628D01*
X120753572Y-85612628D02*
X120725000Y-85726914D01*
X120725000Y-85726914D02*
X120725000Y-85812628D01*
X120725000Y-85812628D02*
X120753572Y-85926914D01*
X120753572Y-85926914D02*
X120782143Y-85984057D01*
X120782143Y-85984057D02*
X120839286Y-86041200D01*
X120839286Y-86041200D02*
X120925000Y-86069771D01*
X120925000Y-86069771D02*
X120982143Y-86069771D01*
X120982143Y-86069771D02*
X121067857Y-86041200D01*
X121067857Y-86041200D02*
X121096429Y-86012628D01*
X121096429Y-86012628D02*
X121096429Y-85812628D01*
X121096429Y-85812628D02*
X120982143Y-85812628D01*
X121353572Y-86069771D02*
X121353572Y-85469771D01*
X121353572Y-85469771D02*
X121696429Y-86069771D01*
X121696429Y-86069771D02*
X121696429Y-85469771D01*
X121982143Y-86069771D02*
X121982143Y-85469771D01*
X121982143Y-85469771D02*
X122125000Y-85469771D01*
X122125000Y-85469771D02*
X122210714Y-85498342D01*
X122210714Y-85498342D02*
X122267857Y-85555485D01*
X122267857Y-85555485D02*
X122296428Y-85612628D01*
X122296428Y-85612628D02*
X122325000Y-85726914D01*
X122325000Y-85726914D02*
X122325000Y-85812628D01*
X122325000Y-85812628D02*
X122296428Y-85926914D01*
X122296428Y-85926914D02*
X122267857Y-85984057D01*
X122267857Y-85984057D02*
X122210714Y-86041200D01*
X122210714Y-86041200D02*
X122125000Y-86069771D01*
X122125000Y-86069771D02*
X121982143Y-86069771D01*
X120167857Y-82391200D02*
X120253572Y-82419771D01*
X120253572Y-82419771D02*
X120396429Y-82419771D01*
X120396429Y-82419771D02*
X120453572Y-82391200D01*
X120453572Y-82391200D02*
X120482143Y-82362628D01*
X120482143Y-82362628D02*
X120510714Y-82305485D01*
X120510714Y-82305485D02*
X120510714Y-82248342D01*
X120510714Y-82248342D02*
X120482143Y-82191200D01*
X120482143Y-82191200D02*
X120453572Y-82162628D01*
X120453572Y-82162628D02*
X120396429Y-82134057D01*
X120396429Y-82134057D02*
X120282143Y-82105485D01*
X120282143Y-82105485D02*
X120225000Y-82076914D01*
X120225000Y-82076914D02*
X120196429Y-82048342D01*
X120196429Y-82048342D02*
X120167857Y-81991200D01*
X120167857Y-81991200D02*
X120167857Y-81934057D01*
X120167857Y-81934057D02*
X120196429Y-81876914D01*
X120196429Y-81876914D02*
X120225000Y-81848342D01*
X120225000Y-81848342D02*
X120282143Y-81819771D01*
X120282143Y-81819771D02*
X120425000Y-81819771D01*
X120425000Y-81819771D02*
X120510714Y-81848342D01*
X120710715Y-81819771D02*
X120853572Y-82419771D01*
X120853572Y-82419771D02*
X120967858Y-81991200D01*
X120967858Y-81991200D02*
X121082143Y-82419771D01*
X121082143Y-82419771D02*
X121225001Y-81819771D01*
X121796429Y-82362628D02*
X121767857Y-82391200D01*
X121767857Y-82391200D02*
X121682143Y-82419771D01*
X121682143Y-82419771D02*
X121625000Y-82419771D01*
X121625000Y-82419771D02*
X121539286Y-82391200D01*
X121539286Y-82391200D02*
X121482143Y-82334057D01*
X121482143Y-82334057D02*
X121453572Y-82276914D01*
X121453572Y-82276914D02*
X121425000Y-82162628D01*
X121425000Y-82162628D02*
X121425000Y-82076914D01*
X121425000Y-82076914D02*
X121453572Y-81962628D01*
X121453572Y-81962628D02*
X121482143Y-81905485D01*
X121482143Y-81905485D02*
X121539286Y-81848342D01*
X121539286Y-81848342D02*
X121625000Y-81819771D01*
X121625000Y-81819771D02*
X121682143Y-81819771D01*
X121682143Y-81819771D02*
X121767857Y-81848342D01*
X121767857Y-81848342D02*
X121796429Y-81876914D01*
X122339286Y-82419771D02*
X122053572Y-82419771D01*
X122053572Y-82419771D02*
X122053572Y-81819771D01*
X122539286Y-82419771D02*
X122539286Y-81819771D01*
X122882143Y-82419771D02*
X122625000Y-82076914D01*
X122882143Y-81819771D02*
X122539286Y-82162628D01*
X120325000Y-84016200D02*
X120782143Y-84016200D01*
X120553571Y-84244771D02*
X120553571Y-83787628D01*
X121010714Y-83644771D02*
X121382142Y-83644771D01*
X121382142Y-83644771D02*
X121182142Y-83873342D01*
X121182142Y-83873342D02*
X121267857Y-83873342D01*
X121267857Y-83873342D02*
X121325000Y-83901914D01*
X121325000Y-83901914D02*
X121353571Y-83930485D01*
X121353571Y-83930485D02*
X121382142Y-83987628D01*
X121382142Y-83987628D02*
X121382142Y-84130485D01*
X121382142Y-84130485D02*
X121353571Y-84187628D01*
X121353571Y-84187628D02*
X121325000Y-84216200D01*
X121325000Y-84216200D02*
X121267857Y-84244771D01*
X121267857Y-84244771D02*
X121096428Y-84244771D01*
X121096428Y-84244771D02*
X121039285Y-84216200D01*
X121039285Y-84216200D02*
X121010714Y-84187628D01*
X121639286Y-84187628D02*
X121667857Y-84216200D01*
X121667857Y-84216200D02*
X121639286Y-84244771D01*
X121639286Y-84244771D02*
X121610714Y-84216200D01*
X121610714Y-84216200D02*
X121639286Y-84187628D01*
X121639286Y-84187628D02*
X121639286Y-84244771D01*
X121867857Y-83644771D02*
X122239285Y-83644771D01*
X122239285Y-83644771D02*
X122039285Y-83873342D01*
X122039285Y-83873342D02*
X122125000Y-83873342D01*
X122125000Y-83873342D02*
X122182143Y-83901914D01*
X122182143Y-83901914D02*
X122210714Y-83930485D01*
X122210714Y-83930485D02*
X122239285Y-83987628D01*
X122239285Y-83987628D02*
X122239285Y-84130485D01*
X122239285Y-84130485D02*
X122210714Y-84187628D01*
X122210714Y-84187628D02*
X122182143Y-84216200D01*
X122182143Y-84216200D02*
X122125000Y-84244771D01*
X122125000Y-84244771D02*
X121953571Y-84244771D01*
X121953571Y-84244771D02*
X121896428Y-84216200D01*
X121896428Y-84216200D02*
X121867857Y-84187628D01*
X122410714Y-83644771D02*
X122610714Y-84244771D01*
X122610714Y-84244771D02*
X122810714Y-83644771D01*
X132954464Y-93894771D02*
X132754464Y-93609057D01*
X132611607Y-93894771D02*
X132611607Y-93294771D01*
X132611607Y-93294771D02*
X132840178Y-93294771D01*
X132840178Y-93294771D02*
X132897321Y-93323342D01*
X132897321Y-93323342D02*
X132925892Y-93351914D01*
X132925892Y-93351914D02*
X132954464Y-93409057D01*
X132954464Y-93409057D02*
X132954464Y-93494771D01*
X132954464Y-93494771D02*
X132925892Y-93551914D01*
X132925892Y-93551914D02*
X132897321Y-93580485D01*
X132897321Y-93580485D02*
X132840178Y-93609057D01*
X132840178Y-93609057D02*
X132611607Y-93609057D01*
X133154464Y-93294771D02*
X133554464Y-93894771D01*
X133554464Y-93294771D02*
X133154464Y-93894771D01*
X146467857Y-81838521D02*
X146467857Y-81238521D01*
X146467857Y-81524235D02*
X146810714Y-81524235D01*
X146810714Y-81838521D02*
X146810714Y-81238521D01*
X147039285Y-81238521D02*
X147410713Y-81238521D01*
X147410713Y-81238521D02*
X147210713Y-81467092D01*
X147210713Y-81467092D02*
X147296428Y-81467092D01*
X147296428Y-81467092D02*
X147353571Y-81495664D01*
X147353571Y-81495664D02*
X147382142Y-81524235D01*
X147382142Y-81524235D02*
X147410713Y-81581378D01*
X147410713Y-81581378D02*
X147410713Y-81724235D01*
X147410713Y-81724235D02*
X147382142Y-81781378D01*
X147382142Y-81781378D02*
X147353571Y-81809950D01*
X147353571Y-81809950D02*
X147296428Y-81838521D01*
X147296428Y-81838521D02*
X147124999Y-81838521D01*
X147124999Y-81838521D02*
X147067856Y-81809950D01*
X147067856Y-81809950D02*
X147039285Y-81781378D01*
D12*
X147167012Y-75882329D02*
X147167012Y-76416455D01*
X147167012Y-76416455D02*
X147131403Y-76523280D01*
X147131403Y-76523280D02*
X147060187Y-76594497D01*
X147060187Y-76594497D02*
X146953361Y-76630105D01*
X146953361Y-76630105D02*
X146882145Y-76630105D01*
X147487487Y-75953546D02*
X147523095Y-75917937D01*
X147523095Y-75917937D02*
X147594312Y-75882329D01*
X147594312Y-75882329D02*
X147772354Y-75882329D01*
X147772354Y-75882329D02*
X147843571Y-75917937D01*
X147843571Y-75917937D02*
X147879179Y-75953546D01*
X147879179Y-75953546D02*
X147914788Y-76024762D01*
X147914788Y-76024762D02*
X147914788Y-76095979D01*
X147914788Y-76095979D02*
X147879179Y-76202804D01*
X147879179Y-76202804D02*
X147451879Y-76630105D01*
X147451879Y-76630105D02*
X147914788Y-76630105D01*
D13*
%TO.C,OUT1*%
X124975000Y-45250000D02*
X130375000Y-45250000D01*
X124975000Y-48650000D02*
X124975000Y-45250000D01*
X130375000Y-45250000D02*
X130375000Y-48650000D01*
X130375000Y-48650000D02*
X124975000Y-48650000D01*
D14*
%TO.C,J3*%
X117015000Y-78270000D02*
X119755000Y-78270000D01*
X117015000Y-91170000D02*
X117015000Y-78270000D01*
X119755000Y-78270000D02*
X119755000Y-91170000D01*
X119755000Y-91170000D02*
X117015000Y-91170000D01*
X117585000Y-78720000D02*
G75*
G02*
X117385000Y-78720000I-100000J0D01*
G01*
X117385000Y-78720000D02*
G75*
G02*
X117585000Y-78720000I100000J0D01*
G01*
D13*
%TO.C,GND*%
X144025000Y-84450000D02*
X145825000Y-84450000D01*
X144025000Y-86250000D02*
X144025000Y-84450000D01*
X145825000Y-84450000D02*
X145825000Y-86250000D01*
X145825000Y-86250000D02*
X144025000Y-86250000D01*
%TO.C,5V*%
X128975000Y-90975000D02*
X130775000Y-90975000D01*
X128975000Y-92775000D02*
X128975000Y-90975000D01*
X130775000Y-90975000D02*
X130775000Y-92775000D01*
X130775000Y-92775000D02*
X128975000Y-92775000D01*
%TO.C,GND*%
X136575000Y-90975000D02*
X138375000Y-90975000D01*
X136575000Y-92775000D02*
X136575000Y-90975000D01*
X138375000Y-90975000D02*
X138375000Y-92775000D01*
X138375000Y-92775000D02*
X136575000Y-92775000D01*
%TO.C,+24V*%
X139975000Y-90975000D02*
X143375000Y-90975000D01*
X139975000Y-96375000D02*
X139975000Y-90975000D01*
X143375000Y-90975000D02*
X143375000Y-96375000D01*
X143375000Y-96375000D02*
X139975000Y-96375000D01*
%TO.C,-24V*%
X124975000Y-90975000D02*
X128375000Y-90975000D01*
X124975000Y-96375000D02*
X124975000Y-90975000D01*
X128375000Y-90975000D02*
X128375000Y-96375000D01*
X128375000Y-96375000D02*
X124975000Y-96375000D01*
%TO.C,OUT3*%
X137975000Y-45250000D02*
X143375000Y-45250000D01*
X137975000Y-48650000D02*
X137975000Y-45250000D01*
X143375000Y-45250000D02*
X143375000Y-48650000D01*
X143375000Y-48650000D02*
X137975000Y-48650000D01*
%TO.C,OUT2*%
X131475000Y-45250000D02*
X136875000Y-45250000D01*
X131475000Y-48650000D02*
X131475000Y-45250000D01*
X136875000Y-45250000D02*
X136875000Y-48650000D01*
X136875000Y-48650000D02*
X131475000Y-48650000D01*
D14*
%TO.C,J1*%
X117015000Y-62340000D02*
X122295000Y-62340000D01*
X117015000Y-75240000D02*
X117015000Y-62340000D01*
X122295000Y-62340000D02*
X122295000Y-75240000D01*
X122295000Y-75240000D02*
X117015000Y-75240000D01*
X121955000Y-74800000D02*
G75*
G02*
X121755000Y-74800000I-100000J0D01*
G01*
X121755000Y-74800000D02*
G75*
G02*
X121955000Y-74800000I100000J0D01*
G01*
D13*
%TO.C,PWM*%
X134675000Y-90975000D02*
X136475000Y-90975000D01*
X134675000Y-92775000D02*
X134675000Y-90975000D01*
X136475000Y-90975000D02*
X136475000Y-92775000D01*
X136475000Y-92775000D02*
X134675000Y-92775000D01*
%TO.C,H2*%
X144025000Y-78750000D02*
X145825000Y-78750000D01*
X144025000Y-80550000D02*
X144025000Y-78750000D01*
X145825000Y-78750000D02*
X145825000Y-80550000D01*
X145825000Y-80550000D02*
X144025000Y-80550000D01*
%TO.C,5V*%
X144025000Y-82550000D02*
X145825000Y-82550000D01*
X144025000Y-84350000D02*
X144025000Y-82550000D01*
X145825000Y-82550000D02*
X145825000Y-84350000D01*
X145825000Y-84350000D02*
X144025000Y-84350000D01*
%TO.C,SWDIO*%
X123100000Y-80275000D02*
X124900000Y-80275000D01*
X123100000Y-82075000D02*
X123100000Y-80275000D01*
X124900000Y-80275000D02*
X124900000Y-82075000D01*
X124900000Y-82075000D02*
X123100000Y-82075000D01*
%TO.C,H1*%
X144025000Y-76850000D02*
X145825000Y-76850000D01*
X144025000Y-78650000D02*
X144025000Y-76850000D01*
X145825000Y-76850000D02*
X145825000Y-78650000D01*
X145825000Y-78650000D02*
X144025000Y-78650000D01*
%TO.C,TX*%
X130875000Y-90975000D02*
X132675000Y-90975000D01*
X130875000Y-92775000D02*
X130875000Y-90975000D01*
X132675000Y-90975000D02*
X132675000Y-92775000D01*
X132675000Y-92775000D02*
X130875000Y-92775000D01*
%TO.C,GND*%
X123100000Y-85975000D02*
X124900000Y-85975000D01*
X123100000Y-87775000D02*
X123100000Y-85975000D01*
X124900000Y-85975000D02*
X124900000Y-87775000D01*
X124900000Y-87775000D02*
X123100000Y-87775000D01*
%TO.C,SWCLK*%
X123100000Y-82175000D02*
X124900000Y-82175000D01*
X123100000Y-83975000D02*
X123100000Y-82175000D01*
X124900000Y-82175000D02*
X124900000Y-83975000D01*
X124900000Y-83975000D02*
X123100000Y-83975000D01*
%TO.C,+3.3V*%
X123100000Y-84075000D02*
X124900000Y-84075000D01*
X123100000Y-85875000D02*
X123100000Y-84075000D01*
X124900000Y-84075000D02*
X124900000Y-85875000D01*
X124900000Y-85875000D02*
X123100000Y-85875000D01*
%TO.C,RX*%
X132775000Y-90975000D02*
X134575000Y-90975000D01*
X132775000Y-92775000D02*
X132775000Y-90975000D01*
X134575000Y-90975000D02*
X134575000Y-92775000D01*
X134575000Y-92775000D02*
X132775000Y-92775000D01*
%TO.C,H3*%
X144025000Y-80650000D02*
X145825000Y-80650000D01*
X144025000Y-82450000D02*
X144025000Y-80650000D01*
X145825000Y-80650000D02*
X145825000Y-82450000D01*
X145825000Y-82450000D02*
X144025000Y-82450000D01*
D14*
%TO.C,J2*%
X144485000Y-62340000D02*
X149765000Y-62340000D01*
X144485000Y-75240000D02*
X144485000Y-62340000D01*
X149765000Y-62340000D02*
X149765000Y-75240000D01*
X149765000Y-75240000D02*
X144485000Y-75240000D01*
X149425000Y-74800000D02*
G75*
G02*
X149225000Y-74800000I-100000J0D01*
G01*
X149225000Y-74800000D02*
G75*
G02*
X149425000Y-74800000I100000J0D01*
G01*
%TD*%
M02*
